<?xml version="1.0" standalone="no"?>
<!DOCTYPE svg PUBLIC "-//W3C//DTD SVG 1.1//EN" "http://www.w3.org/Graphics/SVG/1.1/DTD/svg11.dtd" >
<svg xmlns="http://www.w3.org/2000/svg" xmlns:xlink="http://www.w3.org/1999/xlink" version="1.1">
<metadata>
Created by FontForge 20160407 at Mon Sep 26 17:10:56 2016
 By Jimmy Warting
Copyright (c) 2014 by Josep Patau Bellart. All rights reserved.
</metadata>
<defs>
<font id="Naste-DemiBoldItalic" horiz-adv-x="592" >
  <font-face 
    font-family="Naste DemiBold"
    font-weight="600"
    font-style="italic"
    font-stretch="normal"
    units-per-em="1000"
    panose-1="2 0 0 0 0 0 0 0 0 0"
    ascent="759"
    descent="-241"
    x-height="494"
    cap-height="675"
    bbox="-205 -365 1330 1066"
    underline-thickness="83"
    underline-position="-167"
    slope="-9"
    stemh="150"
    stemv="81"
    unicode-range="U+0020-FB04"
  />
<missing-glyph horiz-adv-x="479" 
d="M141 750h372l-159 -1000h-372zM316 -200l142 900h-279l-142 -900h279z" />
    <glyph glyph-name="f_f" unicode="ff" horiz-adv-x="617" 
d="M477 -50l-2 -1c-11 -68 -38 -116 -80 -144s-99 -42 -172 -42l33 123c27 0 47 6 59 18s20 27 23 45l66 423h-35l20 122h34l5 33c11 68 38 116 81 144s101 42 174 42l-33 -122c-28 0 -48 -6 -60 -18s-19 -27 -22 -45l-6 -33h77l-6 -36l-23 -86h-67zM168 -51l-5 -1
c-11 -68 -38 -116 -80 -144s-99 -42 -172 -42l33 123c27 0 47 6 59 18s20 27 23 45l66 423h-34l19 122h34l6 33c11 68 38 116 81 144s101 42 174 42l-33 -122c-27 0 -46 -6 -58 -18s-19 -27 -22 -45l-5 -33h76l-6 -36l-23 -86h-66z" />
    <glyph glyph-name="fi" unicode="fi" horiz-adv-x="573" 
d="M500 566l-1 -2c-24 0 -43 9 -57 26s-19 38 -16 63c4 24 16 45 35 62s41 26 65 26c23 0 42 -8 56 -25s19 -37 15 -61c-4 -25 -15 -46 -34 -63s-40 -26 -63 -26zM417 493h139l-79 -495h-139zM171 -52l-5 -1c-11 -68 -38 -116 -80 -144s-99 -42 -172 -42l33 123
c27 0 47 6 59 18s20 27 23 45l66 423h-34l19 122h34l6 33c11 68 38 116 81 144s101 42 174 42l-33 -122c-27 0 -46 -6 -58 -18s-19 -27 -22 -45l-5 -33h76l-6 -36l-23 -86h-66z" />
    <glyph glyph-name="fl" unicode="fl" horiz-adv-x="568" 
d="M449 714h139l-113 -714h-139zM170 -50l-5 -1c-11 -68 -38 -116 -80 -144s-99 -42 -172 -42l33 123c27 0 47 6 59 18s20 27 23 45l66 423h-34l19 122h34l6 33c11 68 38 116 81 144s101 42 174 42l-33 -122c-27 0 -46 -6 -58 -18s-19 -27 -22 -45l-5 -33h76l-6 -36l-23 -86
h-66z" />
    <glyph glyph-name="f_f_i" unicode="ffi" horiz-adv-x="877" 
d="M805 566l-1 -1c-25 0 -44 9 -58 26s-19 38 -15 63c4 24 16 45 35 62s41 26 66 26c23 0 41 -8 55 -25s19 -37 16 -61c-2 -13 -6 -25 -12 -36s-14 -20 -23 -28s-19 -14 -30 -19s-22 -7 -33 -7zM721 494h139l-78 -495h-139zM476 -51l-2 -1c-11 -68 -38 -116 -80 -144
s-99 -42 -172 -42l33 123c27 0 47 6 59 18s20 27 23 45l66 423h-35l20 122h34l5 33c11 68 38 116 81 144s101 42 174 42l-33 -122c-28 0 -48 -6 -60 -18s-19 -27 -22 -45l-6 -33h77l-6 -36l-23 -86h-67zM167 -52l-5 -1c-11 -68 -38 -116 -80 -144s-99 -42 -172 -42l33 123
c27 0 47 6 59 18s20 27 23 45l66 423h-34l19 122h34l6 33c11 68 38 116 81 144s101 42 174 42l-33 -122c-27 0 -46 -6 -58 -18s-19 -27 -22 -45l-5 -33h76l-6 -36l-23 -86h-66z" />
    <glyph glyph-name="f_f_l" unicode="ffl" horiz-adv-x="875" 
d="M756 714h139l-113 -714h-139zM477 -50l-2 -1c-11 -68 -38 -116 -80 -144s-99 -42 -172 -42l33 123c27 0 47 6 59 18s20 27 23 45l66 423h-35l20 122h34l5 33c11 68 38 116 81 144s101 42 174 42l-33 -122c-28 0 -48 -6 -60 -18s-19 -27 -22 -45l-6 -33h77l-6 -36l-23 -86
h-67zM168 -51l-5 -1c-11 -68 -38 -116 -80 -144s-99 -42 -172 -42l33 123c27 0 47 6 59 18s20 27 23 45l66 423h-34l19 122h34l6 33c11 68 38 116 81 144s101 42 174 42l-33 -122c-27 0 -46 -6 -58 -18s-19 -27 -22 -45l-5 -33h76l-6 -36l-23 -86h-66z" />
    <glyph glyph-name=".notdef" horiz-adv-x="479" 
d="M141 750h372l-159 -1000h-372zM316 -200l142 900h-279l-142 -900h279z" />
    <glyph glyph-name="NULL" horiz-adv-x="0" 
 />
    <glyph glyph-name="CR" horiz-adv-x="205" 
 />
    <glyph glyph-name="space" unicode=" " horiz-adv-x="205" 
 />
    <glyph glyph-name="numbersign" unicode="#" horiz-adv-x="653" 
d="M425 396h-103l-38 -118h103zM343 142h-104l-46 -142h-139l46 142h-83l44 136h83l38 118h-83l45 136h82l47 143h139l-46 -143h103l46 143h140l-46 -143h73l-44 -136h-74l-38 -118h74l-45 -136h-73l-46 -142h-139z" />
    <glyph glyph-name="dollar" unicode="$" horiz-adv-x="603" 
d="M270 493l2 -1c-3 -19 0 -33 8 -43s25 -20 51 -29l20 129c-21 -1 -39 -7 -54 -17s-24 -23 -27 -39zM323 125h-1c23 0 44 6 63 19s30 29 33 48s-1 34 -13 45s-32 20 -61 28l-23 -140h2zM298 -14l-15 -98h-38l16 97c-47 3 -89 13 -127 29s-74 39 -108 68l76 116
c30 -20 60 -36 90 -48s60 -20 91 -23l24 148c-45 15 -81 31 -108 48s-47 35 -61 54s-22 39 -25 59s-3 41 0 62c4 25 13 49 26 72s31 43 53 61s47 32 76 42s62 15 98 15h7l17 105h37l-17 -107c40 -3 79 -11 116 -24s71 -33 101 -60l-73 -118c-25 17 -51 31 -79 41
s-57 17 -88 20l-22 -140c45 -15 82 -30 110 -45s50 -31 65 -48s25 -35 29 -55s4 -43 0 -68c-5 -30 -15 -57 -30 -82s-34 -46 -57 -64s-50 -32 -81 -42s-64 -15 -99 -15h-4z" />
    <glyph glyph-name="percent" unicode="%" horiz-adv-x="707" 
d="M92 533h-1c3 22 10 42 20 61s23 35 38 49s33 25 53 33s41 12 63 12s42 -4 59 -12s31 -19 42 -33s19 -30 23 -49s5 -39 2 -61s-10 -43 -20 -62s-23 -36 -39 -50s-34 -25 -54 -33s-41 -12 -63 -12c-24 0 -45 4 -62 12s-31 19 -41 33s-17 31 -20 50s-3 40 0 62zM176 0h-78
l469 675h79zM181 531l-3 -1c-3 -21 0 -37 10 -48s23 -16 40 -16c16 0 31 6 45 18s23 28 26 47c3 21 0 37 -10 48s-23 17 -40 17c-16 0 -31 -6 -44 -18s-21 -28 -24 -47zM356 143c3 22 10 42 20 61s23 35 38 49s32 25 51 33s40 12 62 12s42 -4 59 -12s31 -19 42 -33
s19 -30 23 -49s4 -39 1 -61s-10 -43 -20 -62s-23 -36 -38 -50s-32 -25 -52 -33s-41 -12 -63 -12c-24 0 -45 4 -62 12s-31 19 -41 33s-17 31 -20 50s-3 40 0 62zM494 77v-1c17 0 32 6 45 18s21 28 24 47c3 21 0 37 -10 48s-23 17 -39 17s-31 -6 -45 -18s-22 -28 -25 -47
c-3 -21 0 -37 10 -48s23 -16 40 -16z" />
    <glyph glyph-name="ampersand" unicode="&#x26;" horiz-adv-x="687" 
d="M452 66l-1 -1c-35 -25 -70 -44 -106 -58s-74 -21 -113 -21c-32 0 -61 5 -87 14s-48 22 -65 38s-30 35 -38 57s-10 46 -6 72c7 46 24 84 51 113s63 54 108 75c-21 25 -35 50 -42 74s-8 51 -3 82c4 25 13 48 27 69s31 39 52 54s45 27 71 36s54 13 83 13s55 -4 77 -13
s40 -21 54 -36s24 -33 30 -53s7 -41 3 -64c-5 -35 -18 -68 -39 -99s-49 -58 -84 -82l60 -68c13 17 26 35 39 53s26 38 38 59l108 -56c-17 -28 -34 -54 -51 -78s-34 -47 -52 -68l78 -88l-120 -106zM344 426l1 -2c15 9 27 20 36 32s15 26 18 41s0 28 -8 39s-20 16 -36 16
c-13 0 -25 -4 -36 -12s-18 -19 -21 -33c-2 -16 1 -29 9 -39s19 -23 33 -38zM266 124c16 0 33 3 50 9s34 15 51 26l-96 108c-24 -9 -43 -19 -58 -31s-24 -28 -27 -49c-3 -18 2 -33 15 -45s35 -18 65 -18z" />
    <glyph glyph-name="quotesingle" unicode="'" horiz-adv-x="201" 
d="M96 574l16 101h128l-16 -101l-45 -124h-77z" />
    <glyph glyph-name="parenleft" unicode="(" horiz-adv-x="379" 
d="M221 -276l1 1c-73 60 -126 131 -159 213s-41 176 -24 281s54 199 111 282s131 154 221 213l56 -110c-38 -27 -71 -54 -98 -82s-50 -58 -69 -90s-34 -65 -46 -100s-21 -73 -27 -114c-7 -41 -10 -79 -9 -114s6 -68 15 -99s23 -60 41 -88s42 -55 71 -81l-84 -112v0z" />
    <glyph glyph-name="parenright" unicode=")" horiz-adv-x="380" 
d="M-41 -164l1 -3c37 26 69 53 96 81s50 58 69 89s35 64 47 99s21 73 27 114c7 41 10 79 9 114s-6 69 -15 101s-23 62 -41 90s-42 55 -71 82l91 110c72 -59 123 -130 154 -213s38 -177 21 -282s-55 -199 -114 -281s-134 -153 -226 -213z" />
    <glyph glyph-name="asterisk" unicode="*" horiz-adv-x="392" 
d="M325 473l41 -81l-93 -63l-41 83l-68 -82l-72 63l66 80l-85 31l48 102l84 -32l17 104h102l-16 -104l91 30l16 -100z" />
    <glyph glyph-name="plus" unicode="+" horiz-adv-x="458" 
d="M286 179l-22 -142h-124l23 142h-130l20 129h130l22 142h124l-22 -142h130l-20 -129h-131z" />
    <glyph glyph-name="comma" unicode="," horiz-adv-x="229" 
d="M13 -105l-1 -2c16 17 29 32 40 46s20 30 27 47c-24 1 -43 10 -56 27s-18 38 -14 63c4 24 16 45 35 62s41 26 66 26c23 0 41 -10 54 -29s18 -42 14 -69c-5 -35 -19 -69 -42 -103s-58 -66 -105 -97z" />
    <glyph glyph-name="hyphen" unicode="-" horiz-adv-x="467" 
d="M59 313h384l-21 -137h-384z" />
    <glyph glyph-name="period" unicode="." horiz-adv-x="226" 
d="M80 -13l-1 -2c-24 0 -43 9 -57 26s-19 38 -15 63c2 12 6 23 12 34s14 20 23 28s19 14 30 19s23 7 35 7c23 0 41 -8 55 -25s19 -37 15 -61c-4 -25 -15 -46 -34 -63s-40 -26 -63 -26z" />
    <glyph glyph-name="slash" unicode="/" horiz-adv-x="307" 
d="M262 675h112l-285 -675h-113z" />
    <glyph glyph-name="zero" unicode="0" horiz-adv-x="658" 
d="M295 -13c-39 0 -75 7 -108 22s-60 37 -81 66s-36 65 -44 109s-7 95 2 154c9 58 25 109 47 153s48 81 78 110s64 51 101 66s75 22 114 22s75 -7 108 -22s60 -37 81 -66s36 -66 44 -110s7 -95 -2 -153c-9 -59 -25 -110 -47 -154s-48 -80 -78 -109s-64 -51 -101 -66
s-75 -22 -114 -22zM317 128l-3 -3c19 0 38 5 56 14s35 22 50 40s29 40 41 66s21 56 26 90s6 64 3 90s-10 48 -20 66s-23 32 -38 41s-32 14 -51 14s-38 -4 -56 -13s-35 -22 -50 -40s-28 -40 -39 -66s-19 -56 -24 -90s-6 -64 -3 -90s9 -48 19 -66s23 -31 38 -40s32 -13 51 -13
z" />
    <glyph glyph-name="one" unicode="1" horiz-adv-x="458" 
d="M43 0l21 136h101l60 382l-111 -62l-42 119l178 100h144l-86 -539h100l-22 -136h-343z" />
    <glyph glyph-name="two" unicode="2" horiz-adv-x="582" 
d="M31 0l17 111c6 38 19 72 39 101s44 55 71 77s56 42 86 59s58 33 84 48s48 30 66 45s28 31 31 48s-3 30 -18 40s-35 15 -60 15c-38 0 -73 -6 -106 -17s-66 -30 -99 -57l-51 98c48 41 95 71 141 89s96 27 150 27c33 0 63 -5 89 -15s47 -24 63 -41s28 -38 35 -62
s8 -50 3 -79c-5 -33 -17 -61 -36 -85s-41 -45 -67 -63s-53 -35 -82 -50s-56 -30 -81 -45s-47 -31 -65 -48s-29 -37 -32 -60h313l-21 -136h-470z" />
    <glyph glyph-name="three" unicode="3" horiz-adv-x="583" 
d="M268 -13l-4 -1c-52 0 -98 8 -137 23s-76 41 -110 78l78 100c15 -12 29 -22 43 -30s28 -14 42 -19s29 -8 45 -10s34 -3 53 -3c33 0 58 7 75 20s27 31 30 53c4 24 -5 44 -27 59s-56 23 -102 23l20 127c31 0 56 3 75 8s34 11 45 18s19 15 24 24s8 18 9 27c3 23 -4 39 -21 48
s-40 14 -69 14c-34 0 -64 -5 -91 -14s-57 -21 -90 -36l-37 113c39 25 80 44 123 58s89 21 138 21c33 0 63 -3 90 -10s50 -18 68 -33s31 -34 39 -58s9 -52 4 -85c-5 -32 -18 -61 -39 -88s-48 -50 -82 -69c28 -18 49 -40 62 -66s17 -54 12 -84c-5 -31 -14 -59 -28 -85
s-32 -48 -54 -66s-48 -32 -79 -42s-66 -15 -105 -15z" />
    <glyph glyph-name="four" unicode="4" horiz-adv-x="591" 
d="M389 482l-192 -214h158zM476 132l-21 -132h-143l21 132h-316l22 136l371 407h152l-64 -407h70l-22 -136h-70z" />
    <glyph glyph-name="five" unicode="5" horiz-adv-x="569" 
d="M229 -13l-5 2c-47 0 -88 7 -124 21s-71 35 -105 62l83 106c15 -10 29 -18 42 -25s26 -13 39 -18s26 -8 40 -10s30 -3 47 -3c45 0 79 8 102 24s37 38 42 66s-6 51 -33 70s-69 28 -125 28c-21 0 -42 -1 -64 -4s-43 -7 -64 -13l-26 -10l98 392h395l-34 -136h-260l-24 -96
c7 1 14 1 20 1h20c46 0 85 -6 117 -17s58 -27 77 -47s32 -44 39 -71s8 -57 3 -89c-5 -34 -15 -65 -30 -93s-35 -52 -60 -73s-55 -37 -90 -49s-75 -18 -120 -18z" />
    <glyph glyph-name="six" unicode="6" horiz-adv-x="602" 
d="M563 227h1c-7 -40 -19 -75 -36 -105s-38 -55 -62 -75s-51 -35 -81 -45s-61 -15 -94 -15c-39 0 -74 6 -106 19s-59 32 -81 57s-37 57 -46 95s-9 82 -1 132l1 7c13 75 32 138 58 188s57 90 92 120s74 51 117 64s88 19 135 19c30 0 57 -2 81 -6s50 -11 78 -21l-63 -131
c-20 7 -40 12 -60 15s-41 5 -62 5c-39 0 -76 -9 -110 -28s-62 -52 -84 -99c20 7 39 12 58 16s36 6 51 6c34 0 66 -5 95 -14s53 -23 72 -41s33 -41 42 -68s11 -59 5 -95zM291 128l-2 -4c30 0 57 8 81 24s38 39 43 69c2 13 1 25 -3 36s-11 20 -20 27s-20 12 -33 16
s-28 6 -44 6c-15 0 -29 -2 -42 -6s-25 -9 -36 -16s-20 -15 -27 -25s-11 -20 -13 -31c-3 -16 -2 -30 2 -42s10 -22 19 -30s20 -14 33 -18s27 -6 42 -6z" />
    <glyph glyph-name="seven" unicode="7" horiz-adv-x="577" 
d="M41 0l362 539h-315l22 136h531l-454 -675h-146z" />
    <glyph glyph-name="eight" unicode="8" horiz-adv-x="617" 
d="M280 -13l-3 -3c-37 0 -71 4 -102 13s-57 22 -79 39s-38 39 -48 65s-12 56 -7 90c6 39 21 71 45 97s54 46 89 60c-22 13 -39 32 -50 57s-13 57 -6 96c5 31 15 58 31 81s36 42 60 57s51 27 81 35s61 12 93 12s62 -4 89 -12s50 -20 69 -36s33 -36 41 -60s10 -52 5 -83
c-6 -39 -18 -70 -36 -94s-40 -43 -66 -56c30 -14 52 -34 67 -59s20 -56 15 -93c-5 -35 -16 -66 -34 -92s-40 -47 -66 -64s-55 -30 -87 -38s-66 -12 -101 -12zM340 416l-2 -1c23 0 44 6 63 17s30 27 33 48s-3 37 -18 48s-34 16 -57 16s-44 -5 -62 -16s-29 -27 -32 -48
s3 -37 18 -48s34 -16 57 -16zM292 124l1 -2c15 0 30 2 44 5s27 8 38 15s20 15 27 24s12 20 14 32c4 25 -4 43 -24 55s-46 18 -77 18s-58 -6 -82 -18s-38 -30 -42 -55c-3 -23 5 -41 25 -54s45 -20 76 -20z" />
    <glyph glyph-name="nine" unicode="9" horiz-adv-x="601" 
d="M352 547l-1 2c-30 0 -57 -8 -80 -24s-37 -39 -42 -69c-2 -13 -1 -25 3 -36s11 -20 20 -27s20 -12 33 -16s27 -6 42 -6s29 2 43 6s26 10 37 17s20 15 27 25s12 21 14 32c3 16 2 30 -2 42s-10 22 -19 30s-20 14 -33 18s-27 6 -42 6zM183 -11l-4 1c-29 0 -56 2 -81 6
s-51 11 -79 21l64 131c20 -7 40 -12 60 -15s41 -5 63 -5c20 0 39 2 58 6s37 11 53 21s31 23 45 39s27 36 38 59c-20 -7 -39 -12 -58 -16s-36 -6 -51 -6c-34 0 -65 5 -93 15s-52 25 -72 45s-34 45 -42 74s-9 63 -3 101s18 71 35 99s38 51 63 69s53 32 84 41s63 14 96 14
c38 0 73 -6 104 -18s57 -30 78 -55s36 -56 45 -94s9 -82 1 -132l-1 -7c-12 -77 -31 -141 -57 -192s-57 -91 -93 -121s-75 -51 -118 -63s-88 -18 -135 -18z" />
    <glyph glyph-name="colon" unicode=":" horiz-adv-x="239" 
d="M141 331v-1c-24 0 -43 9 -57 26s-19 38 -15 63c4 24 16 45 35 62s41 26 65 26c23 0 41 -8 55 -25s19 -37 15 -61c-2 -13 -6 -25 -12 -36s-14 -20 -23 -28s-19 -14 -30 -19s-22 -7 -33 -7zM87 -14l-1 -1c-25 0 -44 9 -58 26s-19 38 -15 63c4 24 16 45 35 62s41 26 66 26
c23 0 41 -8 55 -25s19 -37 16 -61c-2 -13 -6 -25 -12 -36s-14 -20 -23 -28s-19 -14 -30 -19s-22 -7 -33 -7z" />
    <glyph glyph-name="semicolon" unicode=";" horiz-adv-x="240" 
d="M141 331v-1c-24 0 -43 9 -57 26s-19 38 -15 63c4 24 16 45 35 62s41 26 65 26c23 0 41 -8 55 -25s19 -37 15 -61c-2 -13 -6 -25 -12 -36s-14 -20 -23 -28s-19 -14 -30 -19s-22 -7 -33 -7zM20 -106l-1 -2c16 17 29 32 40 46s20 30 27 47c-23 1 -41 10 -55 27
s-19 38 -15 63c2 12 6 23 12 34s14 20 23 28s19 14 30 19s23 7 35 7c23 0 41 -10 54 -29s18 -42 14 -69c-5 -35 -19 -69 -42 -103s-58 -66 -105 -97z" />
    <glyph glyph-name="less" unicode="&#x3c;" horiz-adv-x="495" 
d="M34 171l25 158l440 151l-23 -147l-295 -83l265 -80l-24 -149z" />
    <glyph glyph-name="equal" unicode="=" horiz-adv-x="470" 
d="M79 429h384l-21 -137h-385zM42 195h384l-22 -137h-384z" />
    <glyph glyph-name="greater" unicode="&#x3e;" horiz-adv-x="495" 
d="M39 170l290 80l-269 83l23 147l392 -151l-25 -158l-435 -150z" />
    <glyph glyph-name="question" unicode="?" horiz-adv-x="535" 
d="M178 191l31 195c59 0 105 9 139 28s53 43 58 72c3 19 -2 34 -15 45s-36 17 -69 17c-35 0 -67 -5 -97 -15s-60 -25 -90 -44l-50 109c39 32 81 55 125 69s88 21 131 21c39 0 73 -5 101 -15s50 -24 66 -41s27 -38 33 -62s7 -50 2 -79c-8 -49 -30 -93 -67 -132
s-90 -65 -159 -78l-15 -90h-124zM208 -14l-1 -1c-23 0 -40 8 -52 24s-16 36 -13 59c2 11 6 21 11 31s12 19 20 26s17 13 27 17s21 6 32 6c21 0 38 -8 51 -24s18 -35 15 -57c-2 -11 -6 -22 -12 -32s-13 -19 -21 -26s-17 -13 -27 -17s-20 -6 -30 -6z" />
    <glyph glyph-name="at" unicode="@" horiz-adv-x="767" 
d="M318 -92l-2 -3c-51 0 -95 10 -132 31s-66 48 -88 81s-37 70 -45 111s-9 82 -3 122c8 53 23 101 45 143s50 78 84 107s74 52 119 68s94 24 147 24c49 0 93 -7 132 -21s72 -34 98 -61s45 -60 56 -99s13 -84 5 -135c-5 -31 -13 -60 -24 -87s-24 -51 -39 -71s-32 -36 -51 -48
s-40 -18 -62 -18c-21 0 -40 4 -57 11s-30 17 -39 30c-19 -14 -39 -25 -61 -33s-44 -12 -66 -12c-24 0 -46 5 -67 15s-38 24 -52 42s-24 39 -30 63s-7 51 -2 80c5 28 14 54 28 78s31 45 51 63s42 32 66 42s48 15 72 15c21 0 41 -3 59 -10s35 -17 50 -30l11 29h70l-38 -242
c-2 -13 -1 -24 3 -33s11 -13 20 -13c12 0 23 4 33 12s19 18 26 30s13 26 18 41s9 30 12 45c7 41 6 77 -2 108s-22 57 -42 78s-46 37 -77 47s-67 15 -108 15c-45 0 -86 -7 -122 -20s-67 -32 -94 -56s-49 -53 -66 -86s-29 -70 -36 -111c-5 -32 -5 -64 1 -96s18 -61 35 -87
s40 -47 69 -63s65 -24 107 -24zM380 333l1 -2c-21 0 -40 -8 -57 -25s-27 -37 -30 -60s1 -44 11 -62s26 -27 47 -27c11 0 22 2 32 7s19 11 27 19s15 17 21 28s10 23 12 36c4 25 0 46 -13 62s-30 24 -51 24z" />
    <glyph glyph-name="A" unicode="A" horiz-adv-x="685" 
d="M393 513l-125 -245h173zM467 132h-269l-67 -132h-153l363 675h152l149 -675h-150z" />
    <glyph glyph-name="B" unicode="B" horiz-adv-x="658" 
d="M143 675l324 -3c29 0 54 -5 75 -16s38 -25 50 -42s21 -37 26 -59s5 -45 1 -68c-3 -24 -10 -47 -21 -69s-25 -42 -42 -59c25 -17 43 -40 53 -69s13 -60 8 -92c-4 -25 -12 -50 -24 -74s-28 -45 -47 -63s-42 -33 -68 -44s-55 -17 -86 -17h-356zM262 536l-20 -130h156
c20 0 36 7 48 21s20 29 23 44c2 17 -1 32 -9 45s-22 20 -43 20h-155zM391 132h-1c23 0 41 8 54 23s21 32 24 50c3 17 1 32 -7 45s-23 20 -44 20h-197l-22 -138h193z" />
    <glyph glyph-name="C" unicode="C" horiz-adv-x="673" 
d="M616 95l-5 -5c-35 -34 -77 -60 -125 -79s-97 -28 -147 -28c-47 0 -89 9 -127 26s-70 41 -96 72s-44 68 -55 111s-12 90 -4 141c9 57 27 108 53 152s57 81 93 111s75 53 116 68s82 23 123 23c58 0 108 -10 150 -29s76 -47 101 -83l-110 -93c-18 23 -40 40 -66 50
s-55 15 -87 15c-26 0 -51 -5 -76 -15s-47 -25 -67 -44s-37 -41 -51 -67s-23 -55 -28 -86s-4 -59 3 -85s18 -48 33 -66s33 -32 54 -42s44 -15 69 -15c32 0 63 6 92 18s54 29 75 52z" />
    <glyph glyph-name="D" unicode="D" horiz-adv-x="705" 
d="M265 539l-64 -403h129c25 0 49 5 72 16s44 26 63 44s35 40 48 65s22 51 27 78c4 27 4 53 0 77s-12 45 -24 63s-27 33 -45 44s-38 16 -60 16h-146zM143 675l290 3c43 0 82 -9 116 -27s63 -42 86 -72s39 -66 48 -107s10 -85 3 -132s-21 -91 -43 -132s-49 -77 -81 -108
s-67 -55 -106 -73s-79 -27 -121 -27h-299z" />
    <glyph glyph-name="E" unicode="E" horiz-adv-x="583" 
d="M143 675h455l-22 -136h-311l-21 -132h293l-22 -136h-292l-22 -135h314l-21 -136h-458z" />
    <glyph glyph-name="F" unicode="F" horiz-adv-x="550" 
d="M218 239l-38 -239h-144l107 675h440l-22 -136h-296l-26 -164h277l-21 -136h-277z" />
    <glyph glyph-name="G" unicode="G" horiz-adv-x="715" 
d="M631 85l-2 -5c-16 -15 -35 -29 -56 -41s-44 -22 -68 -31s-49 -15 -75 -19s-52 -6 -78 -6c-49 0 -93 9 -132 27s-72 43 -98 74s-45 68 -56 111s-12 90 -4 141s24 98 47 141s52 80 87 111s74 55 118 72s91 26 141 26c58 0 109 -10 153 -29s79 -47 104 -83l-109 -93
c-14 21 -36 37 -65 48s-62 17 -99 17c-30 0 -58 -6 -84 -18s-49 -27 -69 -46s-37 -41 -50 -66s-22 -51 -26 -78c-5 -29 -5 -56 0 -82s15 -48 29 -67s33 -34 56 -45s50 -17 81 -17c45 0 86 10 123 29l14 87h-109l22 136h252l-47 -294v0z" />
    <glyph glyph-name="H" unicode="H" horiz-adv-x="719" 
d="M519 274h-296l-43 -274h-144l107 675h144l-42 -265h296l42 265h143l-107 -675h-143z" />
    <glyph glyph-name="I" unicode="I" horiz-adv-x="280" 
d="M143 675h144l-107 -675h-144z" />
    <glyph glyph-name="J" unicode="J" horiz-adv-x="544" 
d="M237 -13h-2c-57 0 -104 10 -141 31s-68 49 -93 85l97 94c17 -19 35 -35 54 -48s44 -19 75 -19c27 0 51 9 72 27s35 47 41 86l69 433h143l-70 -443c-7 -45 -19 -83 -35 -114s-35 -56 -57 -76s-46 -34 -72 -43s-53 -13 -81 -13z" />
    <glyph glyph-name="K" unicode="K" horiz-adv-x="671" 
d="M306 275l-98 -95l-28 -180h-144l107 675h144l-47 -293l297 293h178l-306 -299l219 -376h-164z" />
    <glyph glyph-name="L" unicode="L" horiz-adv-x="545" 
d="M143 675h144l-86 -539h301l-21 -136h-445z" />
    <glyph glyph-name="M" unicode="M" horiz-adv-x="850" 
d="M247 426l-67 -426h-144l107 675h148l144 -414l274 414h148l-107 -675h-144l68 426l-237 -356h-65z" />
    <glyph glyph-name="N" unicode="N" horiz-adv-x="720" 
d="M252 455l-72 -455h-144l107 675h144l224 -455l72 455h144l-107 -675h-144z" />
    <glyph glyph-name="O" unicode="O" horiz-adv-x="750" 
d="M345 -13l-1 -1c-47 0 -90 9 -128 27s-70 43 -96 75s-44 69 -55 111s-12 88 -4 137c8 48 23 93 46 136s52 80 86 112s73 57 117 75s91 27 141 27c47 0 89 -9 127 -27s70 -43 95 -75s43 -69 54 -112s13 -88 6 -136c-8 -49 -24 -94 -48 -136s-53 -79 -88 -111
s-74 -57 -117 -75s-88 -27 -135 -27zM362 126l1 -1c26 0 51 6 75 17s46 26 66 45s37 41 51 67s23 53 28 82s4 56 -2 82s-16 48 -30 67s-31 34 -52 45s-44 17 -70 17c-25 0 -50 -6 -75 -17s-47 -26 -67 -45s-37 -41 -51 -67s-23 -53 -28 -82s-4 -56 2 -82s16 -48 30 -67
s32 -34 53 -45s44 -16 69 -16z" />
    <glyph glyph-name="P" unicode="P" horiz-adv-x="641" 
d="M265 539l-35 -220h155c16 0 30 3 43 10s24 16 34 27s18 23 24 36s10 27 12 41c2 13 2 26 0 39s-6 24 -12 34s-14 18 -25 24s-24 9 -39 9h-157zM208 182l-28 -184h-144l107 675h329c33 0 62 -7 86 -21s43 -32 57 -55s24 -49 29 -78s5 -58 0 -88c-5 -31 -15 -62 -29 -92
s-32 -57 -54 -80s-47 -42 -75 -56s-59 -21 -92 -21h-186z" />
    <glyph glyph-name="Q" unicode="Q" horiz-adv-x="750" 
d="M232 7l-3 -2c-31 12 -58 29 -82 51s-43 47 -58 76s-25 61 -31 96s-6 71 0 109c8 48 24 93 47 136s52 80 87 112s74 57 118 75s91 27 140 27c47 0 89 -9 127 -27s70 -43 95 -75s43 -69 54 -112s13 -88 6 -136c-6 -38 -17 -74 -33 -108s-35 -65 -58 -94s-49 -54 -79 -75
s-62 -38 -96 -51l48 -13l126 -49l-23 -150zM360 125l1 -3c26 0 51 6 75 17s46 26 66 45s37 41 51 66s23 52 28 81s4 56 -2 82s-16 49 -30 68s-31 34 -52 45s-44 17 -70 17c-25 0 -50 -5 -75 -16s-47 -26 -67 -45s-37 -41 -51 -67s-23 -53 -28 -82s-4 -56 2 -81
s16 -47 30 -66s32 -34 53 -45s44 -16 69 -16z" />
    <glyph glyph-name="R" unicode="R" horiz-adv-x="665" 
d="M265 539l-30 -197h167c13 0 25 3 35 9s19 14 27 24s15 21 20 33s9 24 11 37c2 12 2 24 1 35s-4 21 -9 30s-11 16 -19 21s-18 8 -30 8h-173zM380 205l-166 -1l-33 -208h-144l107 675h340c31 0 57 -6 79 -19s40 -30 53 -51s22 -45 27 -72s5 -54 0 -82
c-7 -41 -21 -80 -42 -117s-48 -67 -81 -90l76 -243h-152z" />
    <glyph glyph-name="S" unicode="S" horiz-adv-x="614" 
d="M98 200l-4 -2c73 -49 146 -74 220 -74c23 0 44 6 63 19s30 29 33 48s-1 34 -13 45s-34 21 -66 30c-52 15 -93 31 -124 48s-54 35 -70 55s-25 40 -28 61s-3 43 0 66c4 25 13 49 26 72s31 43 53 61s47 32 76 42s62 15 98 15c48 0 95 -6 140 -18s85 -34 120 -66l-73 -118
c-29 19 -60 34 -93 45s-67 17 -103 17c-23 0 -43 -5 -59 -15s-25 -24 -28 -41c-1 -11 -1 -20 1 -28s7 -15 14 -21s17 -12 29 -17s28 -11 47 -17c46 -15 84 -30 113 -45s51 -31 66 -48s25 -36 29 -56s4 -43 0 -68c-5 -30 -15 -57 -30 -82s-34 -46 -57 -64s-50 -32 -81 -42
s-64 -15 -99 -15c-57 0 -107 8 -151 24s-86 40 -125 73z" />
    <glyph glyph-name="T" unicode="T" 
d="M421 539l-85 -539h-143l85 539h-199l21 136h542l-22 -136h-199z" />
    <glyph glyph-name="U" unicode="U" horiz-adv-x="694" 
d="M283 675l-60 -385c-9 -57 -4 -99 16 -126s54 -40 101 -40c39 0 73 14 102 41s48 69 57 126l61 382h143l-62 -395c-8 -48 -21 -90 -40 -127s-43 -67 -71 -91s-60 -42 -96 -55s-75 -19 -116 -19c-44 0 -83 6 -116 19s-60 32 -81 56s-35 55 -43 92s-8 79 -1 127l63 395h143z
" />
    <glyph glyph-name="V" unicode="V" horiz-adv-x="678" 
d="M89 675h151l94 -504l250 504h155l-356 -675h-152z" />
    <glyph glyph-name="W" unicode="W" horiz-adv-x="956" 
d="M92 675h150l49 -476l195 476h134l46 -480l197 480h150l-298 -675h-151l-41 478l-193 -478h-151z" />
    <glyph glyph-name="X" unicode="X" horiz-adv-x="705" 
d="M360 230l-202 -230h-172l309 344l-185 331h162l122 -220l187 220h168l-293 -335l194 -340h-163z" />
    <glyph glyph-name="Y" unicode="Y" horiz-adv-x="691" 
d="M385 0h-143l36 227l-190 448h155l124 -324l226 324h160l-332 -448z" />
    <glyph glyph-name="Z" unicode="Z" horiz-adv-x="611" 
d="M16 0l16 101l386 438h-304l22 136h489l-16 -100l-392 -439h337l-22 -136h-516z" />
    <glyph glyph-name="bracketleft" unicode="[" horiz-adv-x="309" 
d="M136 675h219l-21 -128h-75l-106 -669h75l-20 -128h-219z" />
    <glyph glyph-name="backslash" unicode="\" horiz-adv-x="321" 
d="M161 0l-71 675h112l72 -675h-113z" />
    <glyph glyph-name="bracketright" unicode="]" horiz-adv-x="309" 
d="M-22 -122h76l106 669h-76l21 128h219l-147 -925h-219z" />
    <glyph glyph-name="asciicircum" unicode="^" horiz-adv-x="518" 
d="M360 312l-47 236l-117 -231h-143l205 358h151l93 -363h-142z" />
    <glyph glyph-name="underscore" unicode="_" horiz-adv-x="546" 
d="M-41 -67h543l-21 -129h-542z" />
    <glyph glyph-name="grave" unicode="`" horiz-adv-x="272" 
d="M113 702h159l36 -150h-127z" />
    <glyph glyph-name="a" unicode="a" 
d="M279 119l-4 3c15 0 30 3 44 9s27 15 39 26s22 25 30 41s14 33 17 52c3 18 3 35 0 51s-9 30 -17 41s-18 20 -30 27s-26 10 -41 10c-16 0 -31 -3 -46 -10s-29 -16 -41 -28s-22 -26 -30 -42s-13 -33 -16 -51s-3 -35 1 -51s10 -30 18 -42s19 -21 32 -27s28 -9 44 -9zM402 65
l2 -3c-25 -21 -52 -39 -81 -53s-59 -21 -90 -21c-32 0 -61 6 -87 19s-48 31 -66 54s-31 50 -39 82s-9 67 -3 106s18 74 36 106s40 60 66 83s54 41 85 54s63 19 96 19c29 0 56 -6 81 -18s47 -28 66 -48l27 53h79l-79 -495h-78z" />
    <glyph glyph-name="b" unicode="b" 
d="M283 -13h-2c-29 0 -56 6 -81 18s-47 28 -66 48l-29 -53h-78l113 714h139l-28 -176l-18 -76c21 14 43 25 66 33s46 12 70 12c32 0 61 -6 87 -18s48 -29 66 -52s31 -50 39 -82s9 -67 3 -106s-18 -74 -36 -106s-40 -60 -65 -83s-53 -41 -84 -54s-63 -19 -96 -19zM287 119
l-3 -2c16 0 31 3 46 10s28 16 40 28s22 26 30 42s14 33 17 51s3 35 0 50s-9 29 -17 41s-18 21 -31 27s-27 9 -42 9s-30 -3 -45 -9s-28 -15 -40 -26s-22 -24 -30 -40s-13 -33 -16 -51c-6 -37 0 -68 17 -93s42 -37 74 -37z" />
    <glyph glyph-name="c" unicode="c" horiz-adv-x="509" 
d="M459 75l-1 -4c-28 -28 -60 -50 -95 -65s-73 -23 -114 -23c-33 0 -63 6 -91 18s-52 30 -72 53s-34 51 -42 83s-9 68 -3 108c6 39 18 74 35 106s38 59 63 82s54 41 86 53s66 18 102 18c39 0 74 -7 106 -22s58 -36 77 -64l-110 -87c-11 12 -24 22 -39 30s-33 12 -54 12
c-15 0 -29 -3 -43 -9s-27 -15 -38 -26s-21 -24 -29 -40s-13 -33 -16 -52c-6 -37 0 -68 18 -92s43 -36 75 -36c19 0 36 4 51 11s31 18 49 33z" />
    <glyph glyph-name="d" unicode="d" 
d="M277 119l-2 -3c16 0 31 3 46 10s28 16 40 28s22 26 30 42s14 33 17 52c6 37 0 67 -18 91s-43 36 -76 36c-17 0 -32 -3 -46 -9s-27 -15 -38 -27s-21 -25 -29 -40s-13 -32 -16 -50c-5 -36 0 -67 16 -92s41 -38 76 -38zM407 50l3 -2c-25 -20 -52 -36 -81 -48
s-58 -18 -87 -18c-33 0 -63 6 -90 19s-50 31 -68 54s-31 51 -39 83s-9 68 -3 107s17 74 33 106s36 59 60 82s51 41 82 53s64 18 99 18c25 0 48 -4 68 -12s38 -19 54 -32l6 75l29 176h138l-113 -714h-79z" />
    <glyph glyph-name="e" unicode="e" horiz-adv-x="550" 
d="M306 392c-27 0 -50 -9 -69 -27s-33 -41 -42 -70l187 8c-4 59 -29 89 -76 89zM475 80l-3 -2c-29 -30 -63 -53 -101 -69s-77 -24 -117 -24c-33 0 -64 6 -93 18s-54 29 -74 51s-35 49 -44 81s-11 68 -5 107c7 41 20 78 38 111s40 61 66 84s55 40 87 52s65 18 98 18
c32 0 62 -6 89 -19s50 -32 68 -57s31 -56 38 -93s7 -79 -1 -127h-337c3 -29 14 -52 33 -68s44 -24 74 -24c41 0 76 15 106 44z" />
    <glyph glyph-name="f" unicode="f" horiz-adv-x="311" 
d="M170 -50l-5 -1c-11 -68 -38 -116 -80 -144s-99 -42 -172 -42l33 123c27 0 47 6 59 18s20 27 23 45l66 423h-34l19 122h34l6 33c11 68 38 116 81 144s101 42 174 42l-33 -122c-27 0 -46 -6 -58 -18s-19 -27 -22 -45l-5 -33h76l-6 -36l-23 -86h-66l-67 -423v0z" />
    <glyph glyph-name="g" unicode="g" 
d="M320 376v3c-16 0 -32 -3 -47 -10s-29 -16 -41 -28s-22 -26 -31 -42s-15 -33 -18 -51s-3 -35 0 -51s9 -30 18 -42s20 -21 33 -27s28 -9 44 -9c15 0 30 3 44 9s27 15 39 26s22 25 30 41s14 33 17 52c3 18 3 35 0 51s-9 30 -17 41s-18 20 -30 27s-26 10 -41 10zM218 -228
l-3 -2c-45 0 -84 4 -117 12s-66 19 -99 33l52 107c27 -9 53 -16 78 -21s53 -8 84 -8c40 0 73 11 98 33s41 52 47 91l2 9c-19 -11 -39 -20 -60 -27s-43 -10 -66 -10c-32 0 -61 6 -88 18s-49 30 -67 53s-31 50 -38 82s-8 68 -2 107s17 74 34 106s38 60 62 83s52 41 84 54
s66 19 103 19c29 0 56 -6 81 -18s47 -28 66 -47l29 52h78l-76 -479c-6 -37 -17 -71 -32 -102s-34 -57 -58 -78s-52 -37 -84 -49s-68 -18 -108 -18z" />
    <glyph glyph-name="h" unicode="h" horiz-adv-x="589" 
d="M331 368l1 -1c-19 0 -38 -5 -57 -14s-38 -22 -57 -39c-5 -28 -10 -60 -15 -96s-10 -70 -15 -103c-6 -38 -12 -77 -19 -116h-139l113 714h139l-28 -181l-22 -94c25 21 52 38 80 50s56 18 83 18c25 0 48 -4 69 -12s39 -20 53 -37s24 -38 30 -64s6 -57 0 -93l-48 -301h-139
l43 269c5 35 1 60 -13 76s-34 24 -59 24z" />
    <glyph glyph-name="i" unicode="i" horiz-adv-x="264" 
d="M191 566l-1 -2c-24 0 -43 9 -57 26s-19 38 -15 63c2 12 6 23 12 34s14 20 23 28s19 14 30 19s23 7 35 7c23 0 41 -8 55 -25s19 -37 15 -61c-4 -25 -15 -46 -34 -63s-40 -26 -63 -26zM108 493h139l-79 -495h-139z" />
    <glyph glyph-name="j" unicode="j" horiz-adv-x="265" 
d="M192 566l-1 -1c-25 0 -44 9 -58 26s-19 38 -15 63c4 24 16 45 35 62s41 26 66 26c23 0 41 -8 55 -25s19 -37 16 -61c-2 -13 -6 -25 -12 -36s-14 -20 -23 -28s-19 -14 -30 -19s-22 -7 -33 -7zM166 -23l-2 -2c-5 -32 -15 -61 -29 -87s-32 -48 -54 -66s-48 -32 -77 -42
s-61 -15 -96 -15l21 132c12 0 23 2 34 6s21 10 30 17s16 16 22 26s10 21 12 33l81 515h140z" />
    <glyph glyph-name="k" unicode="k" horiz-adv-x="575" 
d="M275 168l-1 -1l-45 -33s-30 -22 -46 -33l-16 -101h-139l113 714h139l-71 -449c44 35 84 71 120 109s68 78 96 121h161c-55 -84 -124 -164 -207 -239l149 -256h-155z" />
    <glyph glyph-name="l" unicode="l" horiz-adv-x="262" 
d="M142 714h139l-113 -714h-139z" />
    <glyph glyph-name="m" unicode="m" horiz-adv-x="911" 
d="M330 368v-6c-19 0 -38 -5 -56 -15s-36 -23 -55 -40l-49 -313h-139l78 495h92l11 -75c28 30 57 52 88 66s61 21 91 21c33 0 63 -7 89 -21s45 -37 56 -68c28 30 58 53 89 68s62 23 92 23c25 0 48 -4 69 -12s39 -20 54 -37s25 -38 31 -64s6 -57 0 -93l-48 -301h-138l43 269
c5 35 1 60 -13 76s-33 24 -58 24c-19 0 -38 -5 -56 -14s-36 -22 -54 -39c-1 -2 -1 -4 -1 -6s0 -4 -1 -6l-48 -301h-139l43 269c5 35 1 60 -13 76s-33 24 -58 24z" />
    <glyph glyph-name="n" unicode="n" horiz-adv-x="591" 
d="M332 368v-1c-19 0 -38 -5 -57 -15s-38 -23 -57 -40l-50 -313h-139l79 495h91l12 -75c28 30 58 52 89 66s62 21 92 21c25 0 48 -4 70 -12s40 -20 55 -37s26 -38 32 -64s6 -57 0 -93l-48 -301h-139l42 269c5 35 1 60 -13 76s-34 24 -59 24z" />
    <glyph glyph-name="o" unicode="o" horiz-adv-x="577" 
d="M254 -13l-2 -3c-33 0 -64 6 -93 18s-53 29 -73 51s-35 49 -44 81s-10 68 -4 107c7 41 20 78 38 111s40 61 66 84s56 40 89 52s67 18 103 18c34 0 66 -6 95 -19s53 -31 73 -54s34 -51 43 -83s10 -68 4 -107s-18 -74 -36 -106s-40 -59 -67 -81s-57 -39 -90 -51
s-67 -18 -102 -18zM272 116l-1 -2c16 0 31 3 46 9s28 15 40 26s22 24 30 40s14 33 17 51c3 19 3 36 0 52s-9 30 -17 42s-18 21 -31 28s-27 10 -43 10c-15 0 -30 -3 -45 -10s-28 -16 -40 -28s-22 -26 -30 -42s-13 -33 -16 -52c-3 -18 -3 -35 0 -50s9 -28 17 -39
s18 -20 31 -26s27 -9 42 -9z" />
    <glyph glyph-name="p" unicode="p" 
d="M330 376l-5 -3c-16 0 -31 -3 -45 -10s-27 -16 -39 -27s-22 -25 -30 -41s-13 -33 -16 -51c-6 -37 0 -68 17 -92s42 -36 74 -36c16 0 31 3 46 9s28 15 40 27s22 26 30 42s14 33 17 51s3 35 0 51s-9 30 -17 42s-18 21 -30 28s-26 10 -42 10zM126 -239l-141 -2l116 731h78
l12 -52c25 19 52 35 81 47s58 18 87 18c33 0 63 -6 90 -19s50 -31 68 -54s31 -50 39 -82s9 -67 3 -106s-18 -74 -36 -106s-39 -59 -64 -82s-53 -41 -83 -53s-61 -18 -93 -18c-24 0 -46 5 -66 14s-38 21 -55 36l-5 -78z" />
    <glyph glyph-name="q" unicode="q" 
d="M323 -236l33 192l18 74c-21 -13 -43 -24 -66 -32s-46 -12 -70 -12c-32 0 -61 6 -88 18s-49 30 -67 53s-31 50 -38 82s-8 68 -2 107s18 74 36 106s40 60 65 83s53 41 84 54s63 19 96 19c29 0 56 -6 81 -18s47 -28 66 -48l29 53h78l-116 -731h-139zM320 374l-4 1
c-16 0 -31 -3 -46 -10s-28 -16 -40 -28s-22 -26 -30 -42s-13 -33 -16 -51c-5 -37 1 -67 18 -91s42 -36 74 -36c16 0 31 3 46 9s28 15 40 26s22 25 30 41s14 33 17 52c3 18 3 35 0 51s-9 30 -17 41s-18 20 -30 27s-26 10 -42 10z" />
    <glyph glyph-name="r" unicode="r" horiz-adv-x="391" 
d="M29 0l78 493h100l18 -92c28 32 57 58 87 77s60 29 91 29l-22 -144c-35 0 -66 -8 -94 -23s-53 -34 -74 -57l-45 -283h-139z" />
    <glyph glyph-name="s" unicode="s" horiz-adv-x="515" 
d="M73 170l-4 -5c36 -21 69 -36 99 -44s62 -12 95 -12c15 0 27 3 36 9s14 13 15 20c1 9 -2 16 -9 21s-18 9 -33 13c-42 10 -76 21 -102 33s-46 25 -60 39s-23 29 -27 45s-5 33 -3 51c3 23 10 45 21 65s26 38 45 53s42 27 69 35s57 12 90 12c18 0 37 -1 56 -3s38 -5 56 -9
s35 -9 51 -16s30 -15 41 -24l-63 -110c-18 11 -41 20 -69 26s-56 9 -84 9c-17 0 -32 -2 -44 -7s-19 -12 -20 -22c-1 -9 1 -16 7 -21s18 -9 35 -13c37 -9 69 -19 95 -30s47 -23 63 -36s27 -28 33 -45s8 -37 5 -60s-11 -44 -23 -63s-28 -36 -48 -50s-43 -25 -70 -33
s-56 -12 -88 -12c-46 0 -88 5 -126 16s-72 29 -103 54z" />
    <glyph glyph-name="t" unicode="t" horiz-adv-x="353" 
d="M283 -13v-2c-39 0 -73 5 -101 15s-51 24 -69 43s-30 41 -36 67s-6 55 -1 87l27 173h-48l20 124h48l19 119l146 45l-26 -164h94l-17 -109l-15 -15h-82l-26 -163c-5 -26 1 -47 17 -64s40 -25 71 -25z" />
    <glyph glyph-name="u" unicode="u" horiz-adv-x="586" 
d="M389 75l-1 -1c-28 -30 -57 -52 -88 -66s-61 -21 -91 -21c-25 0 -48 4 -69 13s-39 23 -53 42s-24 43 -30 71s-6 62 0 101l45 282h139l-41 -260c-12 -72 13 -108 74 -108c19 0 37 5 55 14s36 22 53 39l50 314h139l-79 -495h-91z" />
    <glyph glyph-name="v" unicode="v" horiz-adv-x="507" 
d="M49 495h148l57 -319c30 52 57 104 80 157s43 107 60 162h151c-32 -91 -71 -178 -118 -260s-101 -160 -163 -235h-90z" />
    <glyph glyph-name="w" unicode="w" horiz-adv-x="784" 
d="M49 495l148 -2l52 -331c53 96 97 207 131 332h111l49 -331c30 54 57 108 80 163s42 111 57 168h146c-62 -183 -151 -348 -267 -495h-102l-40 292c-18 -50 -39 -99 -64 -147s-53 -96 -85 -144h-105z" />
    <glyph glyph-name="x" unicode="x" horiz-adv-x="548" 
d="M260 154v-1c-25 -20 -47 -43 -67 -68s-37 -54 -52 -86h-158c30 55 63 103 100 145s76 78 117 109l-133 241h159l75 -160c23 21 44 45 62 72s34 56 49 88h160c-25 -48 -55 -93 -90 -135s-75 -82 -121 -120l137 -239h-159z" />
    <glyph glyph-name="y" unicode="y" horiz-adv-x="503" 
d="M-34 -102l-4 -2c21 2 41 8 60 18s37 22 53 36s31 30 45 47s26 34 36 50l-107 446h152l53 -308c29 50 55 101 78 153s42 104 58 156h152c-34 -89 -73 -172 -116 -250s-92 -155 -147 -230c-29 -39 -56 -74 -82 -105s-52 -57 -79 -78s-54 -37 -82 -49s-58 -18 -91 -18z" />
    <glyph glyph-name="z" unicode="z" horiz-adv-x="500" 
d="M424 0l-1 -1c-133 14 -271 14 -413 0l19 122l261 241c-35 0 -69 1 -103 3s-68 5 -102 8l19 122c136 -13 266 -13 389 0l-19 -122l-260 -240c40 1 79 1 117 -1s75 -5 112 -10l-19 -122v0z" />
    <glyph glyph-name="braceleft" unicode="{" horiz-adv-x="318" 
d="M228 -176l-1 -1c-27 0 -52 4 -75 12s-43 19 -60 33s-29 31 -37 51s-10 42 -6 67l25 157c3 19 0 35 -10 47s-24 18 -41 18l19 119c17 0 33 6 47 18s22 28 25 47l25 160c4 25 13 47 27 67s32 37 53 51s44 25 70 33s53 12 80 12l-19 -119c-17 0 -33 -7 -48 -20
s-24 -30 -27 -50l-22 -139c-4 -23 -13 -44 -28 -64s-32 -37 -52 -52c15 -15 27 -32 36 -51s12 -40 9 -63l-23 -144c-3 -20 1 -37 11 -50s24 -20 41 -20l-19 -119v0z" />
    <glyph glyph-name="bar" unicode="|" horiz-adv-x="270" 
d="M147 714h139l-153 -964h-139z" />
    <glyph glyph-name="braceright" unicode="}" horiz-adv-x="318" 
d="M-11 -57v-3c17 0 33 7 47 20s23 30 26 50l23 146c3 23 12 44 27 63s33 36 53 51c-15 15 -27 33 -36 53s-12 42 -9 65l22 137c3 20 0 37 -10 50s-24 20 -41 20l18 119c27 0 52 -4 75 -12s43 -19 60 -33s29 -31 37 -51s10 -42 6 -67l-25 -158c-3 -19 0 -34 10 -46
s24 -18 41 -18l-19 -119c-17 0 -32 -6 -46 -18s-22 -27 -25 -46l-25 -159c-4 -25 -13 -47 -27 -67s-32 -37 -53 -51s-44 -25 -69 -33s-51 -12 -78 -12z" />
    <glyph glyph-name="asciitilde" unicode="~" horiz-adv-x="440" 
d="M44 228v-2c5 25 12 47 21 66s20 35 32 47s25 21 39 27s28 9 42 9c18 0 34 -2 49 -6s29 -9 42 -14s26 -9 39 -13s27 -6 42 -6c9 0 18 3 27 9s15 17 19 34h33c-7 -49 -22 -87 -44 -114s-50 -40 -84 -40c-19 0 -36 2 -51 6s-30 9 -44 14s-28 10 -42 14s-28 6 -43 6
c-20 0 -34 -12 -43 -37h-34z" />
    <glyph glyph-name="uni00A0" unicode="&#xa0;" horiz-adv-x="78" 
 />
    <glyph glyph-name="exclamdown" unicode="&#xa1;" horiz-adv-x="233" 
d="M166 508v-2c23 0 41 -9 55 -26s19 -38 15 -63c-2 -12 -6 -23 -12 -34s-14 -20 -23 -28s-19 -14 -30 -19s-22 -7 -33 -7c-24 0 -43 9 -57 26s-19 38 -15 62c2 13 6 25 12 36s14 21 23 29s19 14 30 19s23 7 35 7zM174 272l-30 -354l-16 -101h-144l16 101l82 354h92z" />
    <glyph glyph-name="cent" unicode="&#xa2;" horiz-adv-x="512" 
d="M459 75l-2 -1c-21 -21 -45 -39 -72 -53s-55 -24 -84 -30l-24 -148h-124l23 153c-23 7 -44 18 -63 33s-35 33 -48 54s-22 45 -27 72s-5 57 0 89s14 62 28 90s31 53 51 75s42 41 66 56s49 26 75 33l23 146h125l-23 -141c27 -6 52 -16 74 -30s40 -31 55 -52l-115 -90
c-10 13 -22 24 -37 32s-32 12 -52 12c-15 0 -29 -3 -43 -9s-26 -15 -37 -26s-20 -24 -28 -40s-13 -33 -16 -52c-3 -18 -3 -35 0 -51s9 -30 17 -42s18 -21 30 -27s25 -9 40 -9c19 0 36 4 51 11s32 18 51 33l86 -88v0z" />
    <glyph glyph-name="sterling" unicode="&#xa3;" horiz-adv-x="621" 
d="M16 0l13 114l103 10l1 129h-83l19 119l65 7v52c1 43 10 81 27 113s39 59 65 80s56 37 89 47s65 15 97 15c48 0 91 -9 129 -28s70 -44 95 -75l-85 -94c-18 17 -41 31 -68 41s-57 15 -89 15c-13 0 -26 -2 -39 -6s-25 -10 -36 -18s-20 -19 -27 -32s-10 -28 -10 -45v-60h112
l-20 -120l-93 -4v-131h152l31 146h113l-43 -275h-518z" />
    <glyph glyph-name="currency" unicode="&#xa4;" horiz-adv-x="639" 
d="M424 107v1c-40 -20 -83 -30 -128 -30c-43 0 -81 9 -114 28l-75 -70l-85 104l72 66c-7 19 -12 39 -14 61s-1 45 3 70c4 26 11 51 21 74s23 44 38 63l-52 67l113 101l56 -72c39 19 79 29 120 29s78 -9 111 -28l81 74l85 -104l-77 -71c17 -39 21 -84 13 -134
c-4 -25 -10 -48 -19 -70s-20 -42 -33 -61l53 -69l-113 -101zM317 210l-2 2c16 0 31 3 45 9s27 15 39 26s22 24 30 39s14 32 17 51s3 36 0 52s-9 30 -17 42s-18 21 -30 28s-26 10 -42 10s-31 -3 -45 -10s-27 -16 -39 -28s-22 -26 -30 -42s-13 -33 -16 -52
c-5 -37 1 -67 18 -91s41 -36 72 -36z" />
    <glyph glyph-name="yen" unicode="&#xa5;" horiz-adv-x="647" 
d="M377 82l-13 -82h-143l13 82h-183l20 122h182l7 43l-7 17h-173l19 122h107l-110 289h148l106 -309l202 309h150l-202 -289h89l-19 -122h-155l-12 -17l-7 -43h164l-19 -122h-164z" />
    <glyph glyph-name="brokenbar" unicode="&#xa6;" horiz-adv-x="276" 
d="M141 675h144l-46 -292h-144zM84 310h143l-49 -310h-144z" />
    <glyph glyph-name="section" unicode="&#xa7;" horiz-adv-x="597" 
d="M325 159l1 2c21 2 39 8 53 18s23 23 26 38c3 20 -2 35 -16 46s-38 21 -72 30l-10 3h-9h-9c-22 0 -41 -5 -56 -15s-24 -24 -27 -41c-2 -11 -2 -20 1 -27s9 -13 18 -19s22 -12 38 -17s37 -11 62 -18zM229 -230l-4 -8c-47 0 -89 7 -126 22s-73 36 -108 63l82 125
c28 -19 55 -35 81 -48s54 -19 83 -19c18 0 34 5 48 15s22 23 25 38c2 14 -2 25 -11 32s-25 14 -48 21c-47 14 -85 30 -113 47s-49 36 -63 56s-22 41 -25 62s-3 43 0 65c5 31 17 60 35 87s42 48 72 63c-9 17 -14 35 -16 53s-1 36 2 55c4 25 12 49 24 72s28 43 47 60
s42 31 68 41s55 15 87 15c40 0 79 -5 117 -15s73 -28 105 -53l-71 -129c-22 18 -47 32 -75 42s-56 15 -85 15c-15 0 -28 -4 -39 -12s-18 -18 -20 -31c-3 -16 1 -28 11 -36s29 -16 56 -25c41 -14 75 -29 101 -44s46 -32 60 -50s23 -38 26 -60s3 -46 -1 -73
c-5 -32 -16 -60 -34 -85s-40 -45 -67 -60c7 -15 11 -31 12 -49s0 -37 -3 -57c-5 -29 -14 -55 -27 -79s-30 -44 -51 -61s-44 -30 -70 -40s-54 -15 -85 -15z" />
    <glyph glyph-name="dieresis" unicode="&#xa8;" horiz-adv-x="445" 
d="M179 562v1c-24 0 -43 9 -57 26s-19 38 -15 63c2 12 6 23 12 34s14 20 23 28s19 14 30 19s23 7 35 7c23 0 41 -8 55 -25s19 -38 15 -63c-2 -13 -6 -25 -12 -36s-14 -20 -23 -28s-19 -14 -30 -19s-22 -7 -33 -7zM396 563v-1c-12 0 -23 2 -32 7s-17 11 -24 19s-12 18 -15 29
s-3 23 -1 36c2 12 6 23 12 34s14 20 23 28s19 14 30 19s23 7 35 7c23 0 41 -8 55 -25s19 -38 15 -63c-2 -13 -6 -25 -12 -36s-14 -20 -23 -28s-19 -14 -30 -19s-22 -7 -33 -7z" />
    <glyph glyph-name="copyright" unicode="&#xa9;" horiz-adv-x="735" 
d="M333 -13l-3 -1c-45 0 -86 9 -122 27s-66 43 -91 75s-42 69 -52 111s-11 88 -3 137c7 48 23 93 47 136s53 80 88 112s74 57 116 75s86 27 131 27s86 -9 123 -27s68 -43 93 -75s43 -69 53 -112s12 -88 5 -136c-8 -49 -24 -94 -48 -136s-53 -79 -88 -111s-74 -57 -117 -75
s-87 -27 -132 -27zM335 20l2 -1c40 0 79 8 117 25s73 40 104 69s57 63 78 101s35 79 42 122s6 84 -3 122s-24 72 -46 101s-49 52 -82 69s-69 25 -109 25s-79 -8 -117 -25s-72 -40 -103 -69s-57 -63 -79 -101s-36 -79 -43 -122s-6 -84 3 -122s25 -71 47 -100s49 -52 81 -69
s68 -25 108 -25zM527 181l-1 -2c-23 -21 -49 -38 -77 -50s-57 -18 -87 -18c-29 0 -55 6 -79 17s-44 27 -60 47s-27 44 -34 71s-8 56 -3 87s15 60 30 87s34 51 56 71s47 36 74 48s55 18 84 18c31 0 59 -6 84 -18s45 -29 60 -51l-76 -67c-7 15 -18 26 -33 34s-31 12 -49 12
c-15 0 -30 -3 -45 -10s-28 -16 -40 -28s-22 -26 -31 -42s-15 -33 -18 -51s-3 -35 1 -51s10 -30 19 -42s20 -21 33 -28s27 -10 43 -10c17 0 34 4 51 12s32 19 45 32z" />
    <glyph glyph-name="ordfeminine" unicode="&#xaa;" horiz-adv-x="341" 
d="M203 460v-3c7 0 13 1 19 3s12 5 18 8l7 46l-25 -4c-10 -1 -19 -3 -27 -7s-13 -11 -15 -22c-1 -6 0 -11 4 -15s10 -6 19 -6zM250 422l2 1c-15 -9 -29 -16 -43 -20s-29 -6 -46 -6c-30 0 -51 8 -64 23s-18 34 -15 57c5 27 17 47 36 59s44 20 74 23l63 5l2 15
c2 15 -12 23 -42 23c-16 0 -31 -1 -45 -3s-28 -5 -43 -9l-2 77c18 6 35 11 51 14s36 5 59 5c43 0 74 -9 93 -27s26 -43 21 -75l-29 -182h-61z" />
    <glyph glyph-name="guillemotleft" unicode="&#xab;" horiz-adv-x="535" 
d="M28 164l27 171l235 145l-23 -148l-150 -81l124 -79l-24 -151zM275 164l27 171l235 145l-23 -148l-150 -81l124 -79l-24 -151z" />
    <glyph glyph-name="logicalnot" unicode="&#xac;" horiz-adv-x="614" 
d="M533 76h-139l32 204h-367l20 129h507z" />
    <glyph glyph-name="registered" unicode="&#xae;" horiz-adv-x="735" 
d="M333 -13l-3 -1c-45 0 -86 9 -122 27s-66 43 -91 75s-42 69 -52 111s-11 88 -3 137c7 48 23 93 47 136s53 80 88 112s74 57 116 75s86 27 131 27s86 -9 123 -27s68 -43 93 -75s43 -69 53 -112s12 -88 5 -136c-8 -49 -24 -94 -48 -136s-53 -79 -88 -111s-74 -57 -117 -75
s-87 -27 -132 -27zM335 20l2 -1c40 0 79 8 117 25s73 40 104 69s57 63 78 101s35 79 42 122s6 84 -3 122s-24 72 -46 101s-49 52 -82 69s-69 25 -109 25s-79 -8 -117 -25s-72 -40 -103 -69s-57 -63 -79 -101s-36 -79 -43 -122s-6 -84 3 -122s25 -71 47 -100s49 -52 81 -69
s68 -25 108 -25zM340 458l-20 -110h100c13 0 24 6 33 18s15 25 18 39c2 13 1 25 -4 36s-14 17 -27 17h-100zM388 267l-80 -1l-22 -135h-89l65 408h217c16 0 30 -4 42 -11s21 -17 28 -29s12 -26 14 -41s2 -31 -1 -47c-5 -27 -14 -53 -28 -78s-32 -43 -53 -54l45 -147h-96z
" />
    <glyph glyph-name="macron" unicode="&#xaf;" horiz-adv-x="364" 
d="M118 667h290l-17 -106h-290z" />
    <glyph glyph-name="degree" unicode="&#xb0;" horiz-adv-x="373" 
d="M89 532c3 22 10 42 20 61s23 35 38 49s32 25 51 33s40 12 62 12s42 -4 59 -12s31 -19 42 -33s19 -30 23 -49s5 -39 2 -61s-10 -43 -20 -62s-23 -36 -38 -50s-32 -25 -52 -33s-41 -12 -63 -12c-24 0 -44 4 -61 12s-31 19 -42 33s-18 31 -21 50s-3 40 0 62zM227 466v-1
c17 0 32 6 45 18s21 28 24 47c3 21 0 37 -10 48s-23 17 -39 17s-31 -6 -45 -18s-22 -28 -25 -47c-3 -21 0 -37 10 -48s23 -16 40 -16z" />
    <glyph glyph-name="plusminus" unicode="&#xb1;" horiz-adv-x="436" 
d="M283 258l-18 -116h-119l18 116h-109l19 124h110l18 113h119l-18 -113h116l-19 -124h-117zM30 105h345l-16 -105h-346z" />
    <glyph glyph-name="two.sups" unicode="&#xb2;" horiz-adv-x="311" 
d="M56 340l13 70c3 18 9 34 18 47s20 25 33 35s26 19 40 27s27 15 39 21s22 12 30 18s13 12 14 19s-1 13 -7 17s-14 6 -24 6c-15 0 -31 -3 -48 -8s-33 -14 -49 -26l-35 61c27 22 53 38 79 48s54 15 85 15c36 0 64 -10 83 -30s26 -45 21 -76c-4 -23 -14 -42 -31 -57
s-35 -28 -54 -39s-37 -21 -54 -30s-27 -19 -30 -31h142l-14 -87h-251z" />
    <glyph glyph-name="three.sups" unicode="&#xb3;" horiz-adv-x="313" 
d="M182 331l-2 -4c-29 0 -54 4 -76 12s-43 22 -62 41l53 64c15 -11 30 -18 44 -21s29 -5 45 -5c13 0 23 3 30 8s11 12 12 20c1 7 -3 13 -12 18s-23 8 -42 8l11 72c25 0 41 4 49 11s13 14 14 21s-1 12 -7 15s-15 5 -26 5c-17 0 -32 -2 -46 -5s-29 -7 -45 -12l-25 72
c21 11 44 20 68 26s50 9 78 9c35 0 64 -7 86 -21s31 -36 26 -67c-3 -17 -10 -33 -22 -48s-26 -28 -43 -39c15 -9 26 -20 33 -34s9 -29 6 -46c-5 -29 -19 -53 -43 -72s-59 -28 -104 -28z" />
    <glyph glyph-name="acute" unicode="&#xb4;" horiz-adv-x="272" 
d="M89 552l84 150h159l-115 -150h-128z" />
    <glyph glyph-name="mu" unicode="&#xb5;" horiz-adv-x="591" 
d="M165 -22l4 -4c-5 -32 -15 -61 -29 -87s-32 -48 -54 -66s-48 -32 -77 -42s-61 -15 -96 -15l21 131c23 0 44 8 63 24s30 36 33 61l81 515h139l-41 -260c-5 -36 0 -63 14 -81s34 -27 60 -27c19 0 37 5 54 14s34 22 51 39l50 314h139l-78 -495h-92l-12 74
c-28 -29 -57 -51 -88 -65s-61 -21 -91 -21c-17 0 -33 2 -48 6l-3 -15v0z" />
    <glyph glyph-name="paragraph" unicode="&#xb6;" horiz-adv-x="769" 
d="M592 546l-65 -2l-124 -781h-140l64 401h-60c-39 0 -73 8 -101 24s-50 37 -67 63s-28 55 -34 88s-6 66 -1 100c5 29 15 58 31 86s36 53 61 75s54 40 86 54s68 21 107 21h452l-21 -129h-48l-124 -781h-140z" />
    <glyph glyph-name="periodcentered" unicode="&#xb7;" horiz-adv-x="243" 
d="M125 219v-1c-24 0 -43 9 -57 26s-19 38 -15 63c4 24 16 45 35 62s41 26 65 26c23 0 41 -8 55 -25s19 -37 15 -61c-2 -13 -6 -25 -12 -36s-14 -20 -23 -28s-19 -14 -30 -19s-22 -7 -33 -7z" />
    <glyph glyph-name="cedilla" unicode="&#xb8;" horiz-adv-x="237" 
d="M7 -126l-2 2c7 -7 14 -11 21 -13s15 -3 24 -3s17 2 23 6s10 11 11 20s-3 16 -13 21s-25 7 -44 7l39 89h53l-22 -51c30 -2 50 -8 60 -18s14 -26 11 -47c-3 -22 -15 -41 -36 -57s-47 -24 -77 -24c-19 0 -34 3 -45 9s-19 13 -24 20z" />
    <glyph glyph-name="one.sups" unicode="&#xb9;" horiz-adv-x="250" 
d="M64 340l14 87h44l24 149l-48 -25l-30 75l93 50h100l-39 -249h44l-13 -87h-189z" />
    <glyph glyph-name="ordmasculine" unicode="&#xba;" horiz-adv-x="343" 
d="M90 545h-2c3 20 9 39 18 56s21 32 35 45s30 23 48 30s37 11 57 11s38 -4 54 -11s29 -17 39 -30s17 -28 21 -45s4 -36 1 -56c-3 -21 -9 -40 -18 -58s-21 -33 -35 -46s-30 -23 -48 -30s-37 -11 -57 -11c-22 0 -41 4 -57 11s-29 17 -38 30s-15 28 -18 46s-3 37 0 58z
M214 484h-1c15 0 29 6 41 17s20 25 23 42c3 19 0 34 -9 44s-21 15 -36 15s-29 -5 -41 -16s-19 -25 -22 -43c-3 -19 0 -34 9 -44s21 -15 36 -15z" />
    <glyph glyph-name="guillemotright" unicode="&#xbb;" horiz-adv-x="535" 
d="M285 172l149 79l-124 81l23 148l190 -145l-27 -171l-235 -143zM38 172l149 79l-124 81l23 148l190 -145l-27 -171l-235 -143z" />
    <glyph glyph-name="onequarter" unicode="&#xbc;" horiz-adv-x="699" 
d="M442 675h112l-285 -675h-113zM50 340l14 87h44l24 149l-48 -25l-30 75l93 50h100l-39 -249h44l-13 -87h-189zM580 225l-73 -77h60zM653 61l-9 -61h-100l10 61h-159l14 87l181 188h107l-30 -188h26l-14 -87h-26z" />
    <glyph glyph-name="onehalf" unicode="&#xbd;" horiz-adv-x="728" 
d="M442 675h112l-285 -675h-113zM50 340l14 87h44l24 149l-48 -25l-30 75l93 50h100l-39 -249h44l-13 -87h-189zM435 0l13 70c3 18 9 34 18 47s20 25 33 35s26 19 40 27s27 15 39 21s22 12 30 18s13 12 14 19s-1 13 -7 17s-14 6 -24 6c-15 0 -31 -3 -48 -8s-33 -14 -49 -26
l-35 61c27 22 53 38 79 48s54 15 85 15c36 0 64 -10 83 -30s26 -45 21 -76c-4 -23 -14 -42 -31 -57s-35 -28 -54 -39s-37 -21 -54 -30s-27 -19 -30 -31h142l-14 -87h-251z" />
    <glyph glyph-name="threequarters" unicode="&#xbe;" horiz-adv-x="726" 
d="M481 675h112l-286 -675h-112zM177 331l-4 -5c-29 0 -54 4 -76 12s-43 22 -62 41l52 64c15 -11 30 -18 44 -21s29 -5 44 -5c14 0 24 3 31 8s11 12 12 20c1 7 -3 13 -12 18s-23 8 -42 8l12 72c12 0 22 1 30 3s14 5 19 8s8 7 10 11s3 8 4 11c1 7 -1 12 -7 15s-15 5 -26 5
c-17 0 -32 -2 -46 -5s-29 -7 -45 -12l-25 72c21 11 44 20 68 26s50 9 78 9c36 0 65 -7 87 -21s31 -36 26 -67c-3 -17 -10 -33 -22 -48s-26 -28 -43 -39c15 -9 26 -20 33 -34s9 -29 6 -46c-5 -29 -19 -53 -43 -72s-58 -28 -103 -28zM603 220l-73 -77h60zM676 56l-9 -61h-100
l10 61h-159l14 87l181 188h107l-30 -188h26l-14 -87h-26z" />
    <glyph glyph-name="questiondown" unicode="&#xbf;" horiz-adv-x="534" 
d="M314 345l-4 -2c-21 0 -38 8 -50 24s-16 35 -13 57c2 11 6 22 12 32s13 19 21 27s17 14 27 18s20 6 31 6c22 0 39 -8 52 -24s18 -36 15 -59c-2 -11 -6 -21 -12 -31s-13 -18 -21 -25s-17 -13 -27 -17s-20 -6 -31 -6zM460 -92l-2 -3c-38 -31 -77 -54 -117 -68
s-80 -21 -121 -21c-43 0 -79 5 -108 15s-52 24 -70 41s-30 38 -36 62s-7 51 -3 80c7 49 29 91 66 127s90 60 159 71l14 89h124l-31 -196c-61 0 -109 -8 -144 -25s-54 -38 -58 -63c-3 -22 2 -39 16 -52s39 -19 74 -19s67 5 96 15s59 25 89 44z" />
    <glyph glyph-name="Agrave" unicode="&#xc0;" horiz-adv-x="685" 
d="M292 878h159l36 -150h-128zM393 513l-125 -245h173zM467 132h-269l-67 -132h-153l363 675h152l149 -675h-150z" />
    <glyph glyph-name="Aacute" unicode="&#xc1;" horiz-adv-x="685" 
d="M365 728l84 150h159l-115 -150h-128zM393 513l-125 -245h173zM467 132h-269l-67 -132h-153l363 675h152l149 -675h-150z" />
    <glyph glyph-name="Acircumflex" unicode="&#xc2;" horiz-adv-x="685" 
d="M441 827l-76 -99h-127l115 150h193l68 -150h-128zM393 513l-125 -245h173zM467 132h-269l-67 -132h-153l363 675h152l149 -675h-150z" />
    <glyph glyph-name="Atilde" unicode="&#xc3;" horiz-adv-x="685" 
d="M251 746l1 -3c4 23 10 43 19 60s19 31 30 42s23 19 35 25s24 9 35 9c16 0 30 -2 43 -6s25 -8 36 -13s22 -9 33 -13s23 -6 36 -6c8 0 16 2 23 6s12 12 15 23h48c-7 -45 -21 -79 -43 -103s-46 -36 -72 -36c-16 0 -31 2 -44 6s-26 8 -38 13s-24 9 -36 13s-24 6 -37 6
c-8 0 -15 -2 -21 -6s-11 -10 -14 -17h-49zM394 510l-125 -245h173zM468 129h-269l-67 -132h-153l363 675h152l149 -675h-150z" />
    <glyph glyph-name="Adieresis" unicode="&#xc4;" horiz-adv-x="685" 
d="M317 733v-1c-24 0 -43 9 -57 26s-19 38 -15 63c2 12 6 23 12 34s14 20 23 28s19 14 30 19s23 7 35 7c22 0 40 -8 54 -25s19 -37 15 -61c-2 -13 -6 -25 -12 -36s-13 -20 -22 -28s-19 -14 -30 -19s-22 -7 -33 -7zM538 732l-1 -1c-23 0 -42 9 -56 26s-19 38 -15 63
c2 12 6 23 12 34s14 20 23 28s19 14 30 19s23 7 35 7c23 0 41 -8 55 -25s19 -37 15 -61c-2 -13 -6 -25 -12 -36s-14 -20 -23 -28s-19 -14 -30 -19s-22 -7 -33 -7zM392 511l-125 -245h173zM466 130h-269l-67 -132h-153l363 675h152l149 -675h-150z" />
    <glyph glyph-name="Aring" unicode="&#xc5;" horiz-adv-x="685" 
d="M425 709h-1c11 0 21 5 30 14s14 21 14 36s-5 27 -14 36s-19 13 -30 13c-13 0 -24 -4 -33 -13s-13 -21 -13 -36c0 -17 5 -30 14 -38s20 -12 33 -12zM392 513l-125 -245h173zM466 132l-270 1l-67 -132h-153l358 665c-13 11 -22 25 -28 41s-9 34 -9 53c0 35 12 64 35 87
s53 35 90 35c18 0 35 -3 50 -9s28 -15 39 -26s20 -24 26 -39s9 -31 9 -48c0 -22 -4 -42 -13 -60s-21 -32 -37 -43l145 -657h-150z" />
    <glyph glyph-name="AE" unicode="&#xc6;" horiz-adv-x="957" 
d="M495 539h-47l-153 -255h160zM433 148h-220l-88 -148h-147l409 675h585l-22 -136h-311l-21 -131h293l-22 -136h-293l-21 -136h314l-21 -136h-458z" />
    <glyph glyph-name="Ccedilla" unicode="&#xc7;" horiz-adv-x="673" 
d="M287 -195l-7 -2c-19 0 -34 3 -45 9s-19 13 -24 20l21 39c7 -7 14 -11 21 -13s15 -3 24 -3s17 2 23 6s10 11 11 20s-3 16 -13 21s-25 7 -44 7l34 78c-40 5 -76 17 -108 36s-58 44 -79 74s-36 65 -44 105s-8 83 -1 130c9 57 27 108 53 152s57 81 93 111s75 53 116 68
s82 23 123 23c58 0 108 -10 150 -29s76 -47 101 -83l-110 -93c-18 23 -40 40 -66 50s-55 15 -87 15c-26 0 -51 -5 -76 -15s-47 -25 -67 -44s-37 -41 -51 -67s-23 -55 -28 -86s-4 -59 3 -85s18 -48 33 -66s33 -32 54 -42s44 -15 69 -15c32 0 63 6 92 18s54 29 75 52l82 -102
c-35 -34 -77 -60 -125 -79s-97 -28 -146 -28l-15 -36c30 -2 50 -8 60 -18s14 -26 11 -47c-3 -22 -15 -41 -36 -57s-47 -24 -77 -24z" />
    <glyph glyph-name="Egrave" unicode="&#xc8;" horiz-adv-x="583" 
d="M267 878h159l36 -150h-128zM143 675h455l-22 -136h-311l-21 -132h293l-22 -136h-292l-22 -135h314l-21 -136h-458z" />
    <glyph glyph-name="Eacute" unicode="&#xc9;" horiz-adv-x="583" 
d="M311 728l84 150h159l-115 -150h-128zM143 675h455l-22 -136h-311l-21 -132h293l-22 -136h-292l-22 -135h314l-21 -136h-458z" />
    <glyph glyph-name="Ecircumflex" unicode="&#xca;" horiz-adv-x="583" 
d="M393 827l-76 -99h-127l115 150h193l68 -150h-128zM143 675h455l-22 -136h-311l-21 -132h293l-22 -136h-292l-22 -135h314l-21 -136h-458z" />
    <glyph glyph-name="Edieresis" unicode="&#xcb;" horiz-adv-x="583" 
d="M274 733v-1c-24 0 -43 9 -57 26s-19 38 -15 63c2 12 6 23 12 34s14 20 23 28s19 14 30 19s23 7 35 7c22 0 40 -8 54 -25s19 -37 15 -61c-2 -13 -6 -25 -12 -36s-13 -20 -22 -28s-19 -14 -30 -19s-22 -7 -33 -7zM495 732l-1 -1c-23 0 -42 9 -56 26s-19 38 -15 63
c2 12 6 23 12 34s14 20 23 28s19 14 30 19s23 7 35 7c23 0 41 -8 55 -25s19 -37 15 -61c-2 -13 -6 -25 -12 -36s-14 -20 -23 -28s-19 -14 -30 -19s-22 -7 -33 -7zM142 673h455l-22 -136h-311l-21 -132h293l-22 -136h-292l-22 -135h314l-21 -136h-458z" />
    <glyph glyph-name="Igrave" unicode="&#xcc;" horiz-adv-x="280" 
d="M93 878h159l36 -150h-127zM143 675h144l-107 -675h-144z" />
    <glyph glyph-name="Iacute" unicode="&#xcd;" horiz-adv-x="280" 
d="M162 728l84 150h159l-115 -150h-128zM143 675h144l-107 -675h-144z" />
    <glyph glyph-name="Icircumflex" unicode="&#xce;" horiz-adv-x="280" 
d="M240 827l-76 -99h-127l115 150h193l68 -150h-128zM143 675h144l-107 -675h-144z" />
    <glyph glyph-name="Idieresis" unicode="&#xcf;" horiz-adv-x="280" 
d="M114 733v-1c-24 0 -43 9 -57 26s-19 38 -15 63c2 12 6 23 12 34s14 20 23 28s19 14 30 19s23 7 35 7c23 0 41 -8 55 -25s19 -37 15 -61c-2 -13 -6 -25 -12 -36s-14 -20 -23 -28s-19 -14 -30 -19s-22 -7 -33 -7zM336 732v-1c-24 0 -43 9 -57 26s-19 38 -15 63
c2 12 6 23 12 34s14 20 23 28s19 14 30 19s23 7 35 7c22 0 40 -8 54 -25s19 -37 16 -61c-2 -13 -6 -25 -12 -36s-14 -20 -23 -28s-19 -14 -30 -19s-22 -7 -33 -7zM143 673h144l-107 -675h-144z" />
    <glyph glyph-name="Eth" unicode="&#xd0;" horiz-adv-x="710" 
d="M224 276l-21 -140h150c22 0 44 5 65 16s40 26 57 44s32 40 44 65s20 51 24 78c5 27 5 53 0 77s-13 45 -24 63s-25 33 -43 44s-38 16 -60 16h-150l-21 -127h136l-22 -136h-135zM81 276l-42 3l22 136h40l42 263h293c43 0 82 -9 117 -27s64 -42 87 -72s39 -66 48 -107
s10 -85 3 -132s-22 -91 -45 -132s-50 -77 -82 -108s-68 -55 -108 -73s-81 -27 -124 -27h-294z" />
    <glyph glyph-name="Ntilde" unicode="&#xd1;" horiz-adv-x="720" 
d="M280 746l-2 -3c4 23 10 43 19 60s19 31 30 42s23 19 35 25s24 9 35 9c16 0 30 -2 43 -6s25 -8 36 -13s22 -9 33 -13s23 -6 36 -6c9 0 17 2 24 6s12 12 15 23h48c-7 -45 -21 -79 -42 -103s-45 -36 -72 -36c-16 0 -30 2 -43 6s-26 8 -38 13s-24 9 -36 13s-24 6 -37 6
c-8 0 -15 -2 -21 -6s-10 -10 -13 -17h-50zM250 452l-72 -455h-144l107 675h144l224 -455l72 455h144l-107 -675h-144z" />
    <glyph glyph-name="Ograve" unicode="&#xd2;" horiz-adv-x="750" 
d="M323 878h159l37 -150h-128zM345 -13l-1 -1c-47 0 -90 9 -128 27s-70 43 -96 75s-44 69 -55 111s-12 88 -4 137c8 48 23 93 46 136s52 80 86 112s73 57 117 75s91 27 141 27c47 0 89 -9 127 -27s70 -43 95 -75s43 -69 54 -112s13 -88 6 -136c-8 -49 -24 -94 -48 -136
s-53 -79 -88 -111s-74 -57 -117 -75s-88 -27 -135 -27zM362 126l1 -1c26 0 51 6 75 17s46 26 66 45s37 41 51 67s23 53 28 82s4 56 -2 82s-16 48 -30 67s-31 34 -52 45s-44 17 -70 17c-25 0 -50 -6 -75 -17s-47 -26 -67 -45s-37 -41 -51 -67s-23 -53 -28 -82s-4 -56 2 -82
s16 -48 30 -67s32 -34 53 -45s44 -16 69 -16z" />
    <glyph glyph-name="Oacute" unicode="&#xd3;" horiz-adv-x="750" 
d="M383 727l84 150h159l-115 -150h-128zM345 -13l-1 -1c-47 0 -90 9 -128 27s-70 43 -96 75s-44 69 -55 111s-12 88 -4 137c8 48 23 93 46 136s52 80 86 112s73 57 117 75s91 27 141 27c47 0 89 -9 127 -27s70 -43 95 -75s43 -69 54 -112s13 -88 6 -136
c-8 -49 -24 -94 -48 -136s-53 -79 -88 -111s-74 -57 -117 -75s-88 -27 -135 -27zM362 126l1 -1c26 0 51 6 75 17s46 26 66 45s37 41 51 67s23 53 28 82s4 56 -2 82s-16 48 -30 67s-31 34 -52 45s-44 17 -70 17c-25 0 -50 -6 -75 -17s-47 -26 -67 -45s-37 -41 -51 -67
s-23 -53 -28 -82s-4 -56 2 -82s16 -48 30 -67s32 -34 53 -45s44 -16 69 -16z" />
    <glyph glyph-name="Ocircumflex" unicode="&#xd4;" horiz-adv-x="750" 
d="M470 827l-77 -99h-126l115 150h192l68 -150h-127zM345 -13l-1 -1c-47 0 -90 9 -128 27s-70 43 -96 75s-44 69 -55 111s-12 88 -4 137c8 48 23 93 46 136s52 80 86 112s73 57 117 75s91 27 141 27c47 0 89 -9 127 -27s70 -43 95 -75s43 -69 54 -112s13 -88 6 -136
c-8 -49 -24 -94 -48 -136s-53 -79 -88 -111s-74 -57 -117 -75s-88 -27 -135 -27zM362 126l1 -1c26 0 51 6 75 17s46 26 66 45s37 41 51 67s23 53 28 82s4 56 -2 82s-16 48 -30 67s-31 34 -52 45s-44 17 -70 17c-25 0 -50 -6 -75 -17s-47 -26 -67 -45s-37 -41 -51 -67
s-23 -53 -28 -82s-4 -56 2 -82s16 -48 30 -67s32 -34 53 -45s44 -16 69 -16z" />
    <glyph glyph-name="Otilde" unicode="&#xd5;" horiz-adv-x="750" 
d="M293 746l1 -3c4 23 10 43 19 60s19 31 30 42s23 19 35 25s24 9 35 9c16 0 30 -2 43 -6s25 -8 36 -13s22 -9 33 -13s23 -6 36 -6c8 0 16 2 23 6s12 12 15 23h48c-7 -45 -21 -79 -43 -103s-46 -36 -72 -36c-16 0 -31 2 -44 6s-26 8 -38 13s-24 9 -36 13s-24 6 -37 6
c-8 0 -15 -2 -21 -6s-11 -10 -14 -17h-49zM346 -16l-1 -1c-47 0 -90 9 -128 27s-70 43 -96 75s-44 69 -55 111s-12 88 -4 137c8 48 23 93 46 136s52 80 86 112s73 57 117 75s91 27 141 27c47 0 89 -9 127 -27s70 -43 95 -75s43 -69 54 -112s13 -88 6 -136
c-8 -49 -24 -94 -48 -136s-53 -79 -88 -111s-74 -57 -117 -75s-88 -27 -135 -27zM363 123l1 -1c26 0 51 6 75 17s46 26 66 45s37 41 51 67s23 53 28 82s4 56 -2 82s-16 48 -30 67s-31 34 -52 45s-44 17 -70 17c-25 0 -50 -6 -75 -17s-47 -26 -67 -45s-37 -41 -51 -67
s-23 -53 -28 -82s-4 -56 2 -82s16 -48 30 -67s32 -34 53 -45s44 -16 69 -16z" />
    <glyph glyph-name="Odieresis" unicode="&#xd6;" horiz-adv-x="750" 
d="M349 733v-1c-24 0 -43 9 -57 26s-19 38 -15 63c2 12 6 23 12 34s14 20 23 28s19 14 30 19s23 7 35 7c22 0 40 -8 54 -25s19 -37 15 -61c-2 -13 -6 -25 -12 -36s-13 -20 -22 -28s-19 -14 -30 -19s-22 -7 -33 -7zM570 732l-1 -1c-23 0 -42 9 -56 26s-19 38 -15 63
c2 12 6 23 12 34s14 20 23 28s19 14 30 19s23 7 35 7c23 0 41 -8 55 -25s19 -37 15 -61c-2 -13 -6 -25 -12 -36s-14 -20 -23 -28s-19 -14 -30 -19s-22 -7 -33 -7zM344 -15l-1 -1c-47 0 -90 9 -128 27s-70 43 -96 75s-44 69 -55 111s-12 88 -4 137c8 48 23 93 46 136
s52 80 86 112s73 57 117 75s91 27 141 27c47 0 89 -9 127 -27s70 -43 95 -75s43 -69 54 -112s13 -88 6 -136c-8 -49 -24 -94 -48 -136s-53 -79 -88 -111s-74 -57 -117 -75s-88 -27 -135 -27zM361 124l1 -1c26 0 51 6 75 17s46 26 66 45s37 41 51 67s23 53 28 82s4 56 -2 82
s-16 48 -30 67s-31 34 -52 45s-44 17 -70 17c-25 0 -50 -6 -75 -17s-47 -26 -67 -45s-37 -41 -51 -67s-23 -53 -28 -82s-4 -56 2 -82s16 -48 30 -67s32 -34 53 -45s44 -16 69 -16z" />
    <glyph glyph-name="multiply" unicode="&#xd7;" horiz-adv-x="452" 
d="M218 150l-108 -98l-73 91l109 100l-78 101l102 91l76 -100l108 100l74 -91l-110 -101l77 -100l-101 -91z" />
    <glyph glyph-name="Oslash" unicode="&#xd8;" horiz-adv-x="750" 
d="M209 337h1c-5 -28 -5 -54 0 -78s14 -45 27 -64l273 331c-24 15 -51 22 -80 22c-25 0 -50 -6 -75 -17s-47 -26 -67 -45s-37 -41 -51 -67s-23 -53 -28 -82zM364 127l-1 -2c26 0 51 6 75 17s46 26 66 45s37 41 51 67s23 53 28 82c5 28 5 54 0 79s-14 47 -27 66l-274 -331
c11 -7 24 -13 38 -17s29 -6 44 -6zM345 -15l3 1c-31 0 -60 4 -87 12s-52 19 -75 34l-93 -113h-81l125 153c-31 32 -53 71 -67 116s-16 94 -7 147c8 48 23 93 46 136s52 80 86 112s73 57 117 75s91 27 141 27c29 0 57 -4 83 -12s50 -18 72 -31l92 112h82l-126 -152
c32 -33 55 -72 69 -118s17 -96 8 -150c-8 -49 -24 -94 -48 -136s-53 -79 -88 -111s-74 -57 -117 -75s-88 -27 -135 -27z" />
    <glyph glyph-name="Ugrave" unicode="&#xd9;" horiz-adv-x="694" 
d="M300 878h159l37 -150h-128zM283 675l-60 -385c-9 -57 -4 -99 16 -126s54 -40 101 -40c39 0 73 14 102 41s48 69 57 126l61 382h143l-62 -395c-8 -48 -21 -90 -40 -127s-43 -67 -71 -91s-60 -42 -96 -55s-75 -19 -116 -19c-44 0 -83 6 -116 19s-60 32 -81 56
s-35 55 -43 92s-8 79 -1 127l63 395h143z" />
    <glyph glyph-name="Uacute" unicode="&#xda;" horiz-adv-x="694" 
d="M360 728l84 150h159l-115 -150h-128zM283 675l-60 -385c-9 -57 -4 -99 16 -126s54 -40 101 -40c39 0 73 14 102 41s48 69 57 126l61 382h143l-62 -395c-8 -48 -21 -90 -40 -127s-43 -67 -71 -91s-60 -42 -96 -55s-75 -19 -116 -19c-44 0 -83 6 -116 19s-60 32 -81 56
s-35 55 -43 92s-8 79 -1 127l63 395h143z" />
    <glyph glyph-name="Ucircumflex" unicode="&#xdb;" horiz-adv-x="694" 
d="M444 827l-76 -99h-127l115 150h193l68 -150h-128zM283 675l-60 -385c-9 -57 -4 -99 16 -126s54 -40 101 -40c39 0 73 14 102 41s48 69 57 126l61 382h143l-62 -395c-8 -48 -21 -90 -40 -127s-43 -67 -71 -91s-60 -42 -96 -55s-75 -19 -116 -19c-44 0 -83 6 -116 19
s-60 32 -81 56s-35 55 -43 92s-8 79 -1 127l63 395h143z" />
    <glyph glyph-name="Udieresis" unicode="&#xdc;" horiz-adv-x="694" 
d="M321 733v-1c-24 0 -43 9 -57 26s-19 38 -15 63c2 12 6 23 12 34s14 20 23 28s19 14 30 19s23 7 35 7c23 0 41 -8 55 -25s19 -37 15 -61c-2 -13 -6 -25 -12 -36s-14 -20 -23 -28s-19 -14 -30 -19s-22 -7 -33 -7zM543 732v-1c-24 0 -43 9 -57 26s-19 38 -15 63
c2 12 6 23 12 34s14 20 23 28s19 14 30 19s23 7 35 7c22 0 40 -8 54 -25s19 -37 16 -61c-2 -13 -6 -25 -12 -36s-14 -20 -23 -28s-19 -14 -30 -19s-22 -7 -33 -7zM283 673l-60 -385c-9 -57 -4 -99 16 -126s54 -40 101 -40c39 0 73 14 102 41s48 69 57 126l61 382h143
l-62 -395c-8 -48 -21 -90 -40 -127s-43 -67 -71 -91s-60 -42 -96 -55s-75 -19 -116 -19c-44 0 -83 6 -116 19s-60 32 -81 56s-35 55 -43 92s-8 79 -1 127l63 395h143z" />
    <glyph glyph-name="Yacute" unicode="&#xdd;" horiz-adv-x="691" 
d="M353 728l85 150h159l-116 -150h-128zM385 0h-143l36 227l-190 448h155l124 -324l226 324h160l-332 -448z" />
    <glyph glyph-name="Thorn" unicode="&#xde;" horiz-adv-x="624" 
d="M248 429l-32 -184h153c14 0 27 3 38 9s21 14 29 23s15 20 20 32s9 24 11 36c1 11 1 21 -1 31s-5 19 -10 27s-12 14 -21 19s-20 7 -33 7h-154zM194 109l-18 -111h-144l107 675h144l-18 -109h191c30 0 56 -6 78 -19s39 -30 52 -51s22 -45 26 -71s4 -53 0 -80
c-5 -29 -14 -58 -27 -86s-29 -53 -48 -75s-41 -40 -66 -53s-52 -20 -82 -20h-195z" />
    <glyph glyph-name="germandbls" unicode="&#xdf;" horiz-adv-x="619" 
d="M323 404l18 -2c31 0 58 7 82 21s38 34 43 61c3 23 -4 41 -22 53s-41 18 -69 18c-33 0 -62 -9 -87 -28s-40 -47 -46 -85l-70 -442h-139l71 451c6 39 18 73 35 103s38 55 63 75s54 35 87 45s68 15 105 15c33 0 64 -4 92 -12s52 -19 72 -34s35 -34 44 -57s11 -49 6 -79
c-7 -39 -22 -72 -45 -99s-52 -47 -86 -60c38 -13 67 -34 87 -62s27 -64 20 -107c-5 -32 -16 -60 -32 -84s-36 -44 -61 -60s-53 -28 -84 -36s-63 -12 -96 -12c-13 0 -26 1 -40 3s-27 5 -40 8l21 132c14 -5 27 -8 39 -9s25 -1 38 -1c28 0 53 7 75 20s35 32 39 57
c2 13 0 24 -6 34s-15 18 -27 24s-26 11 -43 14s-35 5 -54 5h-11z" />
    <glyph glyph-name="agrave" unicode="&#xe0;" 
d="M215 702h159l36 -150h-127zM279 119l-4 3c15 0 30 3 44 9s27 15 39 26s22 25 30 41s14 33 17 52c3 18 3 35 0 51s-9 30 -17 41s-18 20 -30 27s-26 10 -41 10c-16 0 -31 -3 -46 -10s-29 -16 -41 -28s-22 -26 -30 -42s-13 -33 -16 -51s-3 -35 1 -51s10 -30 18 -42
s19 -21 32 -27s28 -9 44 -9zM402 65l2 -3c-25 -21 -52 -39 -81 -53s-59 -21 -90 -21c-32 0 -61 6 -87 19s-48 31 -66 54s-31 50 -39 82s-9 67 -3 106s18 74 36 106s40 60 66 83s54 41 85 54s63 19 96 19c29 0 56 -6 81 -18s47 -28 66 -48l27 53h79l-79 -495h-78z" />
    <glyph glyph-name="aacute" unicode="&#xe1;" 
d="M276 552l84 150h159l-115 -150h-128zM279 119l-4 3c15 0 30 3 44 9s27 15 39 26s22 25 30 41s14 33 17 52c3 18 3 35 0 51s-9 30 -17 41s-18 20 -30 27s-26 10 -41 10c-16 0 -31 -3 -46 -10s-29 -16 -41 -28s-22 -26 -30 -42s-13 -33 -16 -51s-3 -35 1 -51s10 -30 18 -42
s19 -21 32 -27s28 -9 44 -9zM402 65l2 -3c-25 -21 -52 -39 -81 -53s-59 -21 -90 -21c-32 0 -61 6 -87 19s-48 31 -66 54s-31 50 -39 82s-9 67 -3 106s18 74 36 106s40 60 66 83s54 41 85 54s63 19 96 19c29 0 56 -6 81 -18s47 -28 66 -48l27 53h79l-79 -495h-78z" />
    <glyph glyph-name="acircumflex" unicode="&#xe2;" 
d="M366 650l-76 -99h-127l107 150h209l60 -150h-128zM279 119l-4 3c15 0 30 3 44 9s27 15 39 26s22 25 30 41s14 33 17 52c3 18 3 35 0 51s-9 30 -17 41s-18 20 -30 27s-26 10 -41 10c-16 0 -31 -3 -46 -10s-29 -16 -41 -28s-22 -26 -30 -42s-13 -33 -16 -51s-3 -35 1 -51
s10 -30 18 -42s19 -21 32 -27s28 -9 44 -9zM402 65l2 -3c-25 -21 -52 -39 -81 -53s-59 -21 -90 -21c-32 0 -61 6 -87 19s-48 31 -66 54s-31 50 -39 82s-9 67 -3 106s18 74 36 106s40 60 66 83s54 41 85 54s63 19 96 19c29 0 56 -6 81 -18s47 -28 66 -48l27 53h79l-79 -495
h-78z" />
    <glyph glyph-name="atilde" unicode="&#xe3;" 
d="M186 574l1 -1c8 45 24 79 47 101s47 33 72 33c16 0 30 -2 43 -6s25 -8 36 -13s22 -9 33 -13s23 -6 36 -6c8 0 16 2 23 6s12 12 15 23h48c-7 -45 -20 -79 -40 -103s-45 -36 -75 -36c-16 0 -31 2 -44 6s-26 8 -38 13s-24 9 -36 13s-24 6 -37 6c-8 0 -15 -2 -21 -6
s-10 -10 -13 -17h-50zM280 118l-4 3c15 0 30 3 44 9s27 15 39 26s22 25 30 41s14 33 17 52c3 18 3 35 0 51s-9 30 -17 41s-18 20 -30 27s-26 10 -41 10c-16 0 -31 -3 -46 -10s-29 -16 -41 -28s-22 -26 -30 -42s-13 -33 -16 -51s-3 -35 1 -51s10 -30 18 -42s19 -21 32 -27
s28 -9 44 -9zM403 64l2 -3c-25 -21 -52 -39 -81 -53s-59 -21 -90 -21c-32 0 -61 6 -87 19s-48 31 -66 54s-31 50 -39 82s-9 67 -3 106s18 74 36 106s40 60 66 83s54 41 85 54s63 19 96 19c29 0 56 -6 81 -18s47 -28 66 -48l27 53h79l-79 -495h-78z" />
    <glyph glyph-name="adieresis" unicode="&#xe4;" 
d="M238 562c-24 0 -43 9 -57 26s-19 38 -15 63s16 46 35 63s41 26 65 26c22 0 40 -8 54 -25s19 -38 16 -63c-2 -13 -6 -25 -12 -36s-14 -20 -23 -28s-19 -14 -30 -19s-22 -7 -33 -7zM455 562c-24 0 -43 9 -57 26s-19 38 -15 63s16 46 35 63s41 26 65 26c22 0 40 -8 54 -25
s19 -38 16 -63c-2 -13 -6 -25 -12 -36s-14 -20 -23 -28s-19 -14 -30 -19s-22 -7 -33 -7zM279 119l-4 3c15 0 30 3 44 9s27 15 39 26s22 25 30 41s14 33 17 52c3 18 3 35 0 51s-9 30 -17 41s-18 20 -30 27s-26 10 -41 10c-16 0 -31 -3 -46 -10s-29 -16 -41 -28
s-22 -26 -30 -42s-13 -33 -16 -51s-3 -35 1 -51s10 -30 18 -42s19 -21 32 -27s28 -9 44 -9zM402 65l2 -3c-25 -21 -52 -39 -81 -53s-59 -21 -90 -21c-32 0 -61 6 -87 19s-48 31 -66 54s-31 50 -39 82s-9 67 -3 106s18 74 36 106s40 60 66 83s54 41 85 54s63 19 96 19
c29 0 56 -6 81 -18s47 -28 66 -48l27 53h79l-79 -495h-78z" />
    <glyph glyph-name="aring" unicode="&#xe5;" 
d="M240 678l-3 -2c0 35 12 64 35 87s54 35 92 35c18 0 35 -3 50 -9s28 -14 39 -25s20 -24 26 -39s9 -31 9 -48c0 -18 -3 -35 -9 -51s-15 -29 -26 -40s-24 -20 -39 -26s-31 -9 -49 -9c-42 0 -73 12 -94 36s-31 54 -31 91zM363 624v2c11 0 21 5 30 14s14 21 14 36
s-5 27 -14 35s-19 12 -30 12c-13 0 -24 -4 -33 -13s-13 -21 -13 -36c0 -17 4 -30 13 -38s20 -12 33 -12zM276 119l-4 3c15 0 30 3 44 9s27 15 39 26s22 25 30 41s14 33 17 52c3 18 3 35 0 51s-9 30 -17 41s-18 20 -30 27s-26 10 -41 10c-16 0 -31 -3 -46 -10
s-29 -16 -41 -28s-22 -26 -30 -42s-13 -33 -16 -51s-3 -35 1 -51s10 -30 18 -42s19 -21 32 -27s28 -9 44 -9zM399 65l2 -3c-25 -21 -52 -39 -81 -53s-59 -21 -90 -21c-32 0 -61 6 -87 19s-48 31 -66 54s-31 50 -39 82s-9 67 -3 106s18 74 36 106s40 60 66 83s54 41 85 54
s63 19 96 19c29 0 56 -6 81 -18s47 -28 66 -48l27 53h79l-79 -495h-78z" />
    <glyph glyph-name="ae" unicode="&#xe6;" horiz-adv-x="869" 
d="M627 392c-28 0 -51 -9 -70 -27s-33 -41 -42 -70l187 8c-3 59 -28 89 -75 89zM224 99l-1 -3c23 0 46 5 68 15s45 24 70 42c-1 9 -2 19 -3 29s-1 20 0 31l-105 -15c-19 -3 -36 -8 -51 -15s-24 -20 -27 -40c-2 -13 1 -24 9 -32s21 -12 40 -12zM793 77l7 -2
c-29 -30 -62 -53 -100 -69s-77 -24 -118 -24c-37 0 -71 7 -102 21s-56 35 -76 62c-39 -28 -75 -49 -108 -63s-70 -21 -111 -21c-29 0 -54 4 -75 12s-38 20 -51 35s-22 32 -27 52s-5 42 -1 65c7 47 28 81 63 103s79 35 132 40l144 13l1 8c3 23 -4 41 -22 53s-44 18 -79 18
c-29 0 -55 -2 -79 -6s-49 -10 -76 -18l-9 113c33 11 64 20 94 26s65 9 106 9s76 -5 105 -15s52 -24 69 -42c24 18 49 32 76 42s54 15 82 15c34 0 65 -6 93 -19s52 -32 71 -57s32 -56 39 -93s7 -79 -1 -127h-337c3 -29 14 -52 33 -68s44 -24 74 -24c41 0 76 15 106 44z" />
    <glyph glyph-name="ccedilla" unicode="&#xe7;" horiz-adv-x="509" 
d="M195 -195l-5 -4c-19 0 -34 3 -45 9s-19 13 -24 20l21 39c7 -7 14 -11 21 -13s15 -3 24 -3s17 2 23 6s10 11 11 20s-3 16 -13 21s-25 7 -44 7l35 78c-27 5 -52 15 -74 30s-40 33 -55 55s-25 48 -31 77s-6 61 -1 96c6 39 18 74 35 106s38 59 63 82s54 41 86 53
s66 18 102 18c39 0 74 -7 106 -22s58 -36 77 -64l-110 -87c-11 12 -24 22 -39 30s-33 12 -54 12c-15 0 -29 -3 -43 -9s-27 -15 -38 -26s-21 -24 -29 -40s-13 -33 -16 -52c-6 -37 0 -68 18 -92s43 -36 75 -36c19 0 36 4 51 11s31 18 49 33l85 -87c-28 -28 -59 -50 -94 -65
s-72 -23 -111 -23l-16 -36c30 -2 50 -8 61 -18s15 -26 12 -47c-2 -11 -6 -21 -12 -31s-14 -18 -24 -25s-22 -13 -35 -17s-27 -6 -42 -6z" />
    <glyph glyph-name="egrave" unicode="&#xe8;" horiz-adv-x="550" 
d="M205 702h159l37 -150h-128zM306 392c-27 0 -50 -9 -69 -27s-33 -41 -42 -70l187 8c-4 59 -29 89 -76 89zM475 80l-3 -2c-29 -30 -63 -53 -101 -69s-77 -24 -117 -24c-33 0 -64 6 -93 18s-54 29 -74 51s-35 49 -44 81s-11 68 -5 107c7 41 20 78 38 111s40 61 66 84
s55 40 87 52s65 18 98 18c32 0 62 -6 89 -19s50 -32 68 -57s31 -56 38 -93s7 -79 -1 -127h-337c3 -29 14 -52 33 -68s44 -24 74 -24c41 0 76 15 106 44z" />
    <glyph glyph-name="eacute" unicode="&#xe9;" horiz-adv-x="550" 
d="M266 552l84 150h159l-115 -150h-128zM306 392c-27 0 -50 -9 -69 -27s-33 -41 -42 -70l187 8c-4 59 -29 89 -76 89zM475 80l-3 -2c-29 -30 -63 -53 -101 -69s-77 -24 -117 -24c-33 0 -64 6 -93 18s-54 29 -74 51s-35 49 -44 81s-11 68 -5 107c7 41 20 78 38 111
s40 61 66 84s55 40 87 52s65 18 98 18c32 0 62 -6 89 -19s50 -32 68 -57s31 -56 38 -93s7 -79 -1 -127h-337c3 -29 14 -52 33 -68s44 -24 74 -24c41 0 76 15 106 44z" />
    <glyph glyph-name="ecircumflex" unicode="&#xea;" horiz-adv-x="550" 
d="M350 650l-77 -99h-127l108 150h209l59 -150h-127zM306 392c-27 0 -50 -9 -69 -27s-33 -41 -42 -70l187 8c-4 59 -29 89 -76 89zM475 80l-3 -2c-29 -30 -63 -53 -101 -69s-77 -24 -117 -24c-33 0 -64 6 -93 18s-54 29 -74 51s-35 49 -44 81s-11 68 -5 107
c7 41 20 78 38 111s40 61 66 84s55 40 87 52s65 18 98 18c32 0 62 -6 89 -19s50 -32 68 -57s31 -56 38 -93s7 -79 -1 -127h-337c3 -29 14 -52 33 -68s44 -24 74 -24c41 0 76 15 106 44z" />
    <glyph glyph-name="edieresis" unicode="&#xeb;" horiz-adv-x="550" 
d="M227 562l-1 1c-24 0 -43 9 -57 26s-19 38 -14 63c2 12 6 23 12 34s14 20 23 28s19 14 30 19s23 7 35 7c22 0 40 -8 54 -25s19 -38 15 -63c-2 -13 -6 -25 -12 -36s-13 -20 -22 -28s-19 -14 -30 -19s-22 -7 -33 -7zM443 563c-24 0 -43 9 -57 26s-19 38 -15 63s16 46 35 63
s41 26 65 26c22 0 40 -8 54 -25s19 -38 15 -63c-2 -13 -6 -25 -12 -36s-13 -20 -22 -28s-19 -14 -30 -19s-22 -7 -33 -7zM305 393c-27 0 -50 -9 -69 -27s-33 -41 -42 -70l187 8c-4 59 -29 89 -76 89zM474 81l-3 -2c-29 -30 -63 -53 -101 -69s-77 -24 -117 -24
c-33 0 -64 6 -93 18s-54 29 -74 51s-35 49 -44 81s-11 68 -5 107c7 41 20 78 38 111s40 61 66 84s55 40 87 52s65 18 98 18c32 0 62 -6 89 -19s50 -32 68 -57s31 -56 38 -93s7 -79 -1 -127h-337c3 -29 14 -52 33 -68s44 -24 74 -24c41 0 76 15 106 44z" />
    <glyph glyph-name="igrave" unicode="&#xec;" horiz-adv-x="264" 
d="M57 702h160l36 -150h-128zM109 495h139l-79 -495h-139z" />
    <glyph glyph-name="iacute" unicode="&#xed;" horiz-adv-x="264" 
d="M123 552l84 150h159l-116 -150h-127zM109 495h139l-79 -495h-139z" />
    <glyph glyph-name="icircumflex" unicode="&#xee;" horiz-adv-x="264" 
d="M203 650l-77 -99h-127l108 150h209l59 -150h-127zM109 495h139l-79 -495h-139z" />
    <glyph glyph-name="idieresis" unicode="&#xef;" horiz-adv-x="264" 
d="M80 562c-24 0 -43 9 -57 26s-19 38 -15 63s16 46 35 63s41 26 65 26c22 0 40 -8 54 -25s19 -38 16 -63c-2 -13 -6 -25 -12 -36s-14 -20 -23 -28s-19 -14 -30 -19s-22 -7 -33 -7zM297 562c-24 0 -43 9 -57 26s-19 38 -15 63s16 46 35 63s41 26 65 26c22 0 40 -8 54 -25
s19 -38 16 -63c-2 -13 -6 -25 -12 -36s-14 -20 -23 -28s-19 -14 -30 -19s-22 -7 -33 -7zM109 495h139l-79 -495h-139z" />
    <glyph glyph-name="eth" unicode="&#xf0;" horiz-adv-x="554" 
d="M234 -13l2 2c-33 0 -63 6 -90 17s-49 27 -67 48s-30 47 -37 78s-8 65 -2 103c5 37 16 70 32 98s36 52 60 71s51 33 80 42s59 14 90 14c15 0 31 -2 48 -6s34 -10 51 -17c-1 19 -3 35 -7 49s-10 26 -17 37l-53 -48l-26 37l47 43c-11 7 -24 12 -38 15s-29 5 -45 5
c-18 0 -36 -2 -54 -6s-36 -9 -55 -16l-26 106c31 9 59 16 84 20s52 6 81 6c30 0 58 -3 84 -9s50 -16 71 -30l81 74l27 -36l-74 -68c27 -29 46 -69 56 -120s9 -117 -4 -197l-2 -7c-8 -51 -21 -96 -40 -134s-42 -70 -69 -95s-56 -44 -88 -57s-65 -19 -100 -19zM267 129h1
c25 0 48 9 69 27s34 44 39 79c4 25 -1 46 -16 63s-35 25 -60 25c-28 0 -53 -8 -74 -24s-34 -39 -39 -69c-5 -33 0 -58 16 -75s37 -26 64 -26z" />
    <glyph glyph-name="ntilde" unicode="&#xf1;" horiz-adv-x="590" 
d="M190 574l1 -1c8 45 24 79 47 101s47 33 72 33c16 0 30 -2 43 -6s25 -8 36 -13s22 -9 33 -13s23 -6 36 -6c8 0 16 2 23 6s12 12 15 23h48c-7 -45 -20 -79 -40 -103s-45 -36 -75 -36c-16 0 -31 2 -44 6s-26 8 -38 13s-24 9 -36 13s-24 6 -37 6c-8 0 -15 -2 -21 -6
s-10 -10 -13 -17h-50zM333 367v-1c-19 0 -38 -5 -57 -15s-38 -23 -57 -40l-50 -313h-139l79 495h91l12 -75c28 30 58 52 89 66s62 21 92 21c25 0 48 -4 70 -12s40 -20 55 -37s26 -38 32 -64s6 -57 0 -93l-48 -301h-139l42 269c5 35 1 60 -13 76s-34 24 -59 24z" />
    <glyph glyph-name="ograve" unicode="&#xf2;" horiz-adv-x="577" 
d="M220 702h160l36 -150h-128zM254 -13l-2 -3c-33 0 -64 6 -93 18s-53 29 -73 51s-35 49 -44 81s-10 68 -4 107c7 41 20 78 38 111s40 61 66 84s56 40 89 52s67 18 103 18c34 0 66 -6 95 -19s53 -31 73 -54s34 -51 43 -83s10 -68 4 -107s-18 -74 -36 -106s-40 -59 -67 -81
s-57 -39 -90 -51s-67 -18 -102 -18zM272 116l-1 -2c16 0 31 3 46 9s28 15 40 26s22 24 30 40s14 33 17 51c3 19 3 36 0 52s-9 30 -17 42s-18 21 -31 28s-27 10 -43 10c-15 0 -30 -3 -45 -10s-28 -16 -40 -28s-22 -26 -30 -42s-13 -33 -16 -52c-3 -18 -3 -35 0 -50
s9 -28 17 -39s18 -20 31 -26s27 -9 42 -9z" />
    <glyph glyph-name="oacute" unicode="&#xf3;" horiz-adv-x="577" 
d="M269 552l84 150h159l-115 -150h-128zM254 -13l-2 -3c-33 0 -64 6 -93 18s-53 29 -73 51s-35 49 -44 81s-10 68 -4 107c7 41 20 78 38 111s40 61 66 84s56 40 89 52s67 18 103 18c34 0 66 -6 95 -19s53 -31 73 -54s34 -51 43 -83s10 -68 4 -107s-18 -74 -36 -106
s-40 -59 -67 -81s-57 -39 -90 -51s-67 -18 -102 -18zM272 116l-1 -2c16 0 31 3 46 9s28 15 40 26s22 24 30 40s14 33 17 51c3 19 3 36 0 52s-9 30 -17 42s-18 21 -31 28s-27 10 -43 10c-15 0 -30 -3 -45 -10s-28 -16 -40 -28s-22 -26 -30 -42s-13 -33 -16 -52
c-3 -18 -3 -35 0 -50s9 -28 17 -39s18 -20 31 -26s27 -9 42 -9z" />
    <glyph glyph-name="ocircumflex" unicode="&#xf4;" horiz-adv-x="577" 
d="M352 650l-77 -99h-127l108 150h209l59 -150h-127zM254 -13l-2 -3c-33 0 -64 6 -93 18s-53 29 -73 51s-35 49 -44 81s-10 68 -4 107c7 41 20 78 38 111s40 61 66 84s56 40 89 52s67 18 103 18c34 0 66 -6 95 -19s53 -31 73 -54s34 -51 43 -83s10 -68 4 -107
s-18 -74 -36 -106s-40 -59 -67 -81s-57 -39 -90 -51s-67 -18 -102 -18zM272 116l-1 -2c16 0 31 3 46 9s28 15 40 26s22 24 30 40s14 33 17 51c3 19 3 36 0 52s-9 30 -17 42s-18 21 -31 28s-27 10 -43 10c-15 0 -30 -3 -45 -10s-28 -16 -40 -28s-22 -26 -30 -42
s-13 -33 -16 -52c-3 -18 -3 -35 0 -50s9 -28 17 -39s18 -20 31 -26s27 -9 42 -9z" />
    <glyph glyph-name="otilde" unicode="&#xf5;" horiz-adv-x="577" 
d="M178 574l-2 -1c8 45 24 79 47 101s47 33 72 33c16 0 30 -2 43 -6s25 -8 36 -13s22 -9 33 -13s23 -6 36 -6c9 0 17 2 24 6s12 12 15 23h48c-7 -45 -20 -79 -39 -103s-44 -36 -75 -36c-16 0 -30 2 -43 6s-26 8 -38 13s-24 9 -36 13s-24 6 -37 6c-8 0 -15 -2 -21 -6
s-10 -10 -13 -17h-50zM252 -14l-2 -3c-33 0 -64 6 -93 18s-53 29 -73 51s-35 49 -44 81s-10 68 -4 107c7 41 20 78 38 111s40 61 66 84s56 40 89 52s67 18 103 18c34 0 66 -6 95 -19s53 -31 73 -54s34 -51 43 -83s10 -68 4 -107s-18 -74 -36 -106s-40 -59 -67 -81
s-57 -39 -90 -51s-67 -18 -102 -18zM270 115l-1 -2c16 0 31 3 46 9s28 15 40 26s22 24 30 40s14 33 17 51c3 19 3 36 0 52s-9 30 -17 42s-18 21 -31 28s-27 10 -43 10c-15 0 -30 -3 -45 -10s-28 -16 -40 -28s-22 -26 -30 -42s-13 -33 -16 -52c-3 -18 -3 -35 0 -50
s9 -28 17 -39s18 -20 31 -26s27 -9 42 -9z" />
    <glyph glyph-name="odieresis" unicode="&#xf6;" horiz-adv-x="577" 
d="M239 562v1c-24 0 -43 9 -57 26s-19 38 -15 63c2 12 6 23 12 34s14 20 23 28s19 14 30 19s23 7 35 7c23 0 41 -8 55 -25s19 -38 15 -63c-2 -13 -6 -25 -12 -36s-14 -20 -23 -28s-19 -14 -30 -19s-22 -7 -33 -7zM456 563v-1c-12 0 -23 2 -32 7s-17 11 -24 19s-12 18 -15 29
s-3 23 -1 36c2 12 6 23 12 34s14 20 23 28s19 14 30 19s23 7 35 7c23 0 41 -8 55 -25s19 -38 15 -63c-2 -13 -6 -25 -12 -36s-14 -20 -23 -28s-19 -14 -30 -19s-22 -7 -33 -7zM254 -13l-2 -3c-33 0 -64 6 -93 18s-53 29 -73 51s-35 49 -44 81s-10 68 -4 107
c7 41 20 78 38 111s40 61 66 84s56 40 89 52s67 18 103 18c34 0 66 -6 95 -19s53 -31 73 -54s34 -51 43 -83s10 -68 4 -107s-18 -74 -36 -106s-40 -59 -67 -81s-57 -39 -90 -51s-67 -18 -102 -18zM272 116l-1 -2c16 0 31 3 46 9s28 15 40 26s22 24 30 40s14 33 17 51
c3 19 3 36 0 52s-9 30 -17 42s-18 21 -31 28s-27 10 -43 10c-15 0 -30 -3 -45 -10s-28 -16 -40 -28s-22 -26 -30 -42s-13 -33 -16 -52c-3 -18 -3 -35 0 -50s9 -28 17 -39s18 -20 31 -26s27 -9 42 -9z" />
    <glyph glyph-name="divide" unicode="&#xf7;" horiz-adv-x="463" 
d="M255 336l-1 -4c-21 0 -38 8 -50 24s-16 35 -13 57c2 11 6 21 11 31s12 18 20 25s17 13 27 17s20 6 31 6c19 0 35 -8 48 -23s18 -33 15 -54c-2 -11 -6 -21 -11 -31s-12 -18 -20 -25s-17 -13 -27 -17s-20 -6 -30 -6zM45 288h400l-15 -91h-399zM201 -3v-4
c-21 0 -38 8 -50 24s-16 35 -13 57c2 11 6 21 11 31s12 18 20 25s17 13 27 17s20 6 31 6c20 0 36 -8 48 -23s17 -33 14 -54c-2 -11 -6 -21 -11 -31s-12 -18 -20 -25s-17 -13 -27 -17s-20 -6 -30 -6z" />
    <glyph glyph-name="oslash" unicode="&#xf8;" horiz-adv-x="577" 
d="M184 245h-2c-5 -35 0 -64 16 -87l175 198c-17 14 -37 21 -59 21c-16 0 -31 -3 -45 -10s-27 -16 -39 -28s-22 -26 -30 -42s-13 -33 -16 -52zM273 119l-1 -1c16 0 31 3 46 9s28 15 40 26s22 24 30 40s14 33 17 51c3 17 3 34 0 50s-8 30 -15 41l-174 -197
c16 -13 35 -19 57 -19zM251 -14l-1 -4c-25 0 -49 4 -71 11s-42 17 -61 30l-97 -109h-34l111 125c-24 23 -42 51 -54 85s-14 72 -7 115c7 41 19 78 37 111s40 61 66 84s56 40 89 52s67 18 103 18c53 0 99 -14 137 -43l99 112h34l-114 -129c24 -23 42 -52 53 -86
s13 -73 6 -116c-6 -39 -18 -74 -36 -106s-40 -59 -67 -81s-57 -39 -90 -51s-67 -18 -103 -18z" />
    <glyph glyph-name="ugrave" unicode="&#xf9;" horiz-adv-x="585" 
d="M221 702h159l36 -150h-127zM389 75l-1 -1c-28 -30 -57 -52 -88 -66s-61 -21 -91 -21c-25 0 -48 4 -69 13s-39 23 -53 42s-24 43 -30 71s-6 62 0 101l45 282h139l-41 -260c-12 -72 13 -108 74 -108c19 0 37 5 55 14s36 22 53 39l50 314h139l-79 -495h-91z" />
    <glyph glyph-name="uacute" unicode="&#xfa;" horiz-adv-x="585" 
d="M275 552l84 150h159l-115 -150h-128zM389 75l-1 -1c-28 -30 -57 -52 -88 -66s-61 -21 -91 -21c-25 0 -48 4 -69 13s-39 23 -53 42s-24 43 -30 71s-6 62 0 101l45 282h139l-41 -260c-12 -72 13 -108 74 -108c19 0 37 5 55 14s36 22 53 39l50 314h139l-79 -495h-91z" />
    <glyph glyph-name="ucircumflex" unicode="&#xfb;" horiz-adv-x="585" 
d="M365 650l-77 -99h-127l108 150h209l59 -150h-127zM389 75l-1 -1c-28 -30 -57 -52 -88 -66s-61 -21 -91 -21c-25 0 -48 4 -69 13s-39 23 -53 42s-24 43 -30 71s-6 62 0 101l45 282h139l-41 -260c-12 -72 13 -108 74 -108c19 0 37 5 55 14s36 22 53 39l50 314h139l-79 -495
h-91z" />
    <glyph glyph-name="udieresis" unicode="&#xfc;" horiz-adv-x="585" 
d="M241 562l-1 1c-24 0 -43 9 -57 26s-19 38 -14 63c2 12 6 23 12 34s14 20 23 28s19 14 30 19s23 7 35 7c22 0 40 -8 54 -25s19 -38 15 -63c-2 -13 -6 -25 -12 -36s-13 -20 -22 -28s-19 -14 -30 -19s-22 -7 -33 -7zM457 563c-24 0 -43 9 -57 26s-19 38 -15 63s16 46 35 63
s41 26 65 26c22 0 40 -8 54 -25s19 -38 15 -63c-2 -13 -6 -25 -12 -36s-13 -20 -22 -28s-19 -14 -30 -19s-22 -7 -33 -7zM388 76l-1 -1c-28 -30 -57 -52 -88 -66s-61 -21 -91 -21c-25 0 -48 4 -69 13s-39 23 -53 42s-24 43 -30 71s-6 62 0 101l45 282h139l-41 -260
c-12 -72 13 -108 74 -108c19 0 37 5 55 14s36 22 53 39l50 314h139l-79 -495h-91z" />
    <glyph glyph-name="yacute" unicode="&#xfd;" horiz-adv-x="502" 
d="M241 552l84 150h159l-116 -150h-127zM-34 -102l-4 -2c21 2 41 8 60 18s37 22 53 36s31 30 45 47s26 34 36 50l-107 446h152l53 -308c29 50 55 101 78 153s42 104 58 156h152c-34 -89 -73 -172 -116 -250s-92 -155 -147 -230c-29 -39 -56 -74 -82 -105s-52 -57 -79 -78
s-54 -37 -82 -49s-58 -18 -91 -18z" />
    <glyph glyph-name="thorn" unicode="&#xfe;" 
d="M293 119l-1 -1c17 0 33 3 47 10s27 16 38 27s20 24 27 39s12 32 15 50s3 35 0 51s-9 30 -17 42s-18 21 -31 28s-27 10 -42 10c-16 0 -31 -3 -46 -10s-28 -16 -40 -27s-22 -25 -30 -41s-13 -33 -16 -52c-5 -36 1 -66 18 -90s43 -36 78 -36zM130 -237l-139 2l151 950h139
l-39 -241c19 11 39 20 60 26s42 9 62 9c33 0 63 -6 90 -19s50 -31 68 -54s31 -51 39 -83s9 -67 3 -106s-17 -74 -33 -106s-36 -59 -60 -82s-51 -41 -81 -54s-62 -19 -95 -19c-26 0 -50 5 -72 15s-41 23 -58 38l-6 -92z" />
    <glyph glyph-name="ydieresis" unicode="&#xff;" horiz-adv-x="502" 
d="M203 562v1c-24 0 -43 9 -57 26s-19 38 -15 63c2 12 6 23 12 34s14 20 23 28s19 14 30 19s23 7 35 7c23 0 41 -8 55 -25s19 -38 15 -63c-2 -13 -6 -25 -12 -36s-14 -20 -23 -28s-19 -14 -30 -19s-22 -7 -33 -7zM420 563v-1c-12 0 -23 2 -32 7s-17 11 -24 19s-12 18 -15 29
s-3 23 -1 36c2 12 6 23 12 34s14 20 23 28s19 14 30 19s23 7 35 7c23 0 41 -8 55 -25s19 -38 15 -63c-2 -13 -6 -25 -12 -36s-14 -20 -23 -28s-19 -14 -30 -19s-22 -7 -33 -7zM-34 -102l-4 -2c21 2 41 8 60 18s37 22 53 36s31 30 45 47s26 34 36 50l-107 446h152l53 -308
c29 50 55 101 78 153s42 104 58 156h152c-34 -89 -73 -172 -116 -250s-92 -155 -147 -230c-29 -39 -56 -74 -82 -105s-52 -57 -79 -78s-54 -37 -82 -49s-58 -18 -91 -18z" />
    <glyph glyph-name="Amacron" unicode="&#x100;" horiz-adv-x="685" 
d="M286 844h296l-17 -106h-296zM393 513l-125 -245h173zM467 132h-269l-67 -132h-153l363 675h152l149 -675h-150z" />
    <glyph glyph-name="amacron" unicode="&#x101;" 
d="M225 667h290l-17 -106h-290zM279 119l-4 3c15 0 30 3 44 9s27 15 39 26s22 25 30 41s14 33 17 52c3 18 3 35 0 51s-9 30 -17 41s-18 20 -30 27s-26 10 -41 10c-16 0 -31 -3 -46 -10s-29 -16 -41 -28s-22 -26 -30 -42s-13 -33 -16 -51s-3 -35 1 -51s10 -30 18 -42
s19 -21 32 -27s28 -9 44 -9zM402 65l2 -3c-25 -21 -52 -39 -81 -53s-59 -21 -90 -21c-32 0 -61 6 -87 19s-48 31 -66 54s-31 50 -39 82s-9 67 -3 106s18 74 36 106s40 60 66 83s54 41 85 54s63 19 96 19c29 0 56 -6 81 -18s47 -28 66 -48l27 53h79l-79 -495h-78z" />
    <glyph glyph-name="Abreve" unicode="&#x102;" horiz-adv-x="685" 
d="M376 889h2c-1 -17 4 -32 15 -45s27 -20 48 -20s39 7 54 20s25 28 30 45h75c-13 -52 -34 -92 -63 -120s-66 -42 -111 -42c-46 0 -79 14 -100 42s-29 68 -24 120h74zM395 513l-125 -245h173zM469 132h-269l-67 -132h-153l363 675h152l149 -675h-150z" />
    <glyph glyph-name="abreve" unicode="&#x103;" 
d="M297 713h2c-1 -17 4 -32 15 -45s27 -20 48 -20s39 7 54 20s25 28 30 45h76c-13 -52 -34 -92 -63 -120s-66 -42 -111 -42c-46 0 -79 14 -100 42s-29 68 -24 120h73zM281 119l-4 3c15 0 30 3 44 9s27 15 39 26s22 25 30 41s14 33 17 52c3 18 3 35 0 51s-9 30 -17 41
s-18 20 -30 27s-26 10 -41 10c-16 0 -31 -3 -46 -10s-29 -16 -41 -28s-22 -26 -30 -42s-13 -33 -16 -51s-3 -35 1 -51s10 -30 18 -42s19 -21 32 -27s28 -9 44 -9zM404 65l2 -3c-25 -21 -52 -39 -81 -53s-59 -21 -90 -21c-32 0 -61 6 -87 19s-48 31 -66 54s-31 50 -39 82
s-9 67 -3 106s18 74 36 106s40 60 66 83s54 41 85 54s63 19 96 19c29 0 56 -6 81 -18s47 -28 66 -48l27 53h79l-79 -495h-78z" />
    <glyph glyph-name="Aogonek" unicode="&#x104;" horiz-adv-x="684" 
d="M393 513l-125 -245h173zM639 -163v-2c-29 -23 -64 -34 -106 -34c-37 0 -65 9 -85 26s-27 41 -22 72c3 21 11 40 23 57s27 31 45 43h-4l-25 132h-269l-67 -132h-153l363 675h152l149 -675h-2c-39 -11 -67 -23 -83 -36s-25 -29 -28 -47c-1 -9 1 -17 7 -24s14 -11 25 -11
c25 0 48 9 68 27z" />
    <glyph glyph-name="aogonek" unicode="&#x105;" horiz-adv-x="591" 
d="M393 -197l6 -7c-37 0 -65 9 -85 26s-27 41 -22 72c5 32 19 59 42 80s51 38 83 51l-7 32c-25 -21 -52 -39 -81 -53s-59 -21 -90 -21c-32 0 -61 6 -87 19s-48 31 -66 54s-31 50 -39 82s-9 67 -3 106s18 74 36 106s40 60 65 83s53 41 84 54s63 19 96 19c29 0 56 -6 81 -18
s47 -28 66 -48l27 53h78l-78 -494v-1c-39 -11 -67 -23 -83 -36s-25 -29 -28 -47c-2 -9 0 -17 6 -24s14 -11 25 -11c13 0 25 2 36 7s22 12 32 21l12 -71c-29 -23 -64 -34 -106 -34zM285 112l-4 3c15 0 30 3 44 9s27 15 39 26s22 25 30 41s14 33 17 52c3 18 3 35 0 51
s-9 30 -17 41s-18 20 -30 27s-25 10 -40 10c-16 0 -32 -3 -47 -10s-29 -16 -41 -28s-22 -26 -30 -42s-13 -33 -16 -51s-3 -35 0 -51s9 -30 18 -42s20 -21 33 -27s28 -9 44 -9z" />
    <glyph glyph-name="Cacute" unicode="&#x106;" horiz-adv-x="673" 
d="M377 728l84 150h159l-115 -150h-128zM616 95l-5 -5c-35 -34 -77 -60 -125 -79s-97 -28 -147 -28c-47 0 -89 9 -127 26s-70 41 -96 72s-44 68 -55 111s-12 90 -4 141c9 57 27 108 53 152s57 81 93 111s75 53 116 68s82 23 123 23c58 0 108 -10 150 -29s76 -47 101 -83
l-110 -93c-18 23 -40 40 -66 50s-55 15 -87 15c-26 0 -51 -5 -76 -15s-47 -25 -67 -44s-37 -41 -51 -67s-23 -55 -28 -86s-4 -59 3 -85s18 -48 33 -66s33 -32 54 -42s44 -15 69 -15c32 0 63 6 92 18s54 29 75 52z" />
    <glyph glyph-name="cacute" unicode="&#x107;" horiz-adv-x="509" 
d="M258 552l84 150h159l-116 -150h-127zM459 75l-1 -4c-28 -28 -60 -50 -95 -65s-73 -23 -114 -23c-33 0 -63 6 -91 18s-52 30 -72 53s-34 51 -42 83s-9 68 -3 108c6 39 18 74 35 106s38 59 63 82s54 41 86 53s66 18 102 18c39 0 74 -7 106 -22s58 -36 77 -64l-110 -87
c-11 12 -24 22 -39 30s-33 12 -54 12c-15 0 -29 -3 -43 -9s-27 -15 -38 -26s-21 -24 -29 -40s-13 -33 -16 -52c-6 -37 0 -68 18 -92s43 -36 75 -36c19 0 36 4 51 11s31 18 49 33z" />
    <glyph glyph-name="Ccircumflex" unicode="&#x108;" horiz-adv-x="673" 
d="M470 827l-76 -99h-127l115 150h193l68 -150h-128zM616 95l-5 -5c-35 -34 -77 -60 -125 -79s-97 -28 -147 -28c-47 0 -89 9 -127 26s-70 41 -96 72s-44 68 -55 111s-12 90 -4 141c9 57 27 108 53 152s57 81 93 111s75 53 116 68s82 23 123 23c58 0 108 -10 150 -29
s76 -47 101 -83l-110 -93c-18 23 -40 40 -66 50s-55 15 -87 15c-26 0 -51 -5 -76 -15s-47 -25 -67 -44s-37 -41 -51 -67s-23 -55 -28 -86s-4 -59 3 -85s18 -48 33 -66s33 -32 54 -42s44 -15 69 -15c32 0 63 6 92 18s54 29 75 52z" />
    <glyph glyph-name="ccircumflex" unicode="&#x109;" horiz-adv-x="509" 
d="M334 650l-76 -99h-127l107 150h209l60 -150h-128zM459 75l-1 -4c-28 -28 -60 -50 -95 -65s-73 -23 -114 -23c-33 0 -63 6 -91 18s-52 30 -72 53s-34 51 -42 83s-9 68 -3 108c6 39 18 74 35 106s38 59 63 82s54 41 86 53s66 18 102 18c39 0 74 -7 106 -22s58 -36 77 -64
l-110 -87c-11 12 -24 22 -39 30s-33 12 -54 12c-15 0 -29 -3 -43 -9s-27 -15 -38 -26s-21 -24 -29 -40s-13 -33 -16 -52c-6 -37 0 -68 18 -92s43 -36 75 -36c19 0 36 4 51 11s31 18 49 33z" />
    <glyph glyph-name="Cdotaccent" unicode="&#x10a;" horiz-adv-x="673" 
d="M452 735l1 -1c-24 0 -43 9 -57 26s-19 38 -15 63c2 12 6 23 12 34s14 20 23 28s19 14 30 19s23 7 35 7c22 0 40 -8 54 -25s19 -37 15 -61c-2 -13 -6 -25 -12 -36s-14 -20 -23 -28s-19 -14 -30 -19s-22 -7 -33 -7zM617 94l-5 -5c-35 -34 -77 -60 -125 -79
s-97 -28 -147 -28c-47 0 -89 9 -127 26s-70 41 -96 72s-44 68 -55 111s-12 90 -4 141c9 57 27 108 53 152s57 81 93 111s75 53 116 68s82 23 123 23c58 0 108 -10 150 -29s76 -47 101 -83l-110 -93c-18 23 -40 40 -66 50s-55 15 -87 15c-26 0 -51 -5 -76 -15
s-47 -25 -67 -44s-37 -41 -51 -67s-23 -55 -28 -86s-4 -59 3 -85s18 -48 33 -66s33 -32 54 -42s44 -15 69 -15c32 0 63 6 92 18s54 29 75 52z" />
    <glyph glyph-name="cdotaccent" unicode="&#x10b;" horiz-adv-x="509" 
d="M328 562v-1c-24 0 -43 9 -57 26s-19 38 -15 63c4 24 16 45 35 62s41 26 65 26c23 0 41 -8 55 -25s19 -37 15 -61c-2 -13 -6 -25 -12 -36s-14 -20 -23 -28s-19 -14 -30 -19s-22 -7 -33 -7zM459 74l-1 -4c-28 -28 -60 -50 -95 -65s-73 -23 -114 -23c-33 0 -63 6 -91 18
s-52 30 -72 53s-34 51 -42 83s-9 68 -3 108c6 39 18 74 35 106s38 59 63 82s54 41 86 53s66 18 102 18c39 0 74 -7 106 -22s58 -36 77 -64l-110 -87c-11 12 -24 22 -39 30s-33 12 -54 12c-15 0 -29 -3 -43 -9s-27 -15 -38 -26s-21 -24 -29 -40s-13 -33 -16 -52
c-6 -37 0 -68 18 -92s43 -36 75 -36c19 0 36 4 51 11s31 18 49 33z" />
    <glyph glyph-name="Ccaron" unicode="&#x10c;" horiz-adv-x="673" 
d="M290 878h127l45 -99l77 99h127l-107 -150h-209zM616 95l-5 -5c-35 -34 -77 -60 -125 -79s-97 -28 -147 -28c-47 0 -89 9 -127 26s-70 41 -96 72s-44 68 -55 111s-12 90 -4 141c9 57 27 108 53 152s57 81 93 111s75 53 116 68s82 23 123 23c58 0 108 -10 150 -29
s76 -47 101 -83l-110 -93c-18 23 -40 40 -66 50s-55 15 -87 15c-26 0 -51 -5 -76 -15s-47 -25 -67 -44s-37 -41 -51 -67s-23 -55 -28 -86s-4 -59 3 -85s18 -48 33 -66s33 -32 54 -42s44 -15 69 -15c32 0 63 6 92 18s54 29 75 52z" />
    <glyph glyph-name="ccaron" unicode="&#x10d;" horiz-adv-x="509" 
d="M163 702h127l45 -98l77 98h127l-107 -150h-209zM459 75l-1 -4c-28 -28 -60 -50 -95 -65s-73 -23 -114 -23c-33 0 -63 6 -91 18s-52 30 -72 53s-34 51 -42 83s-9 68 -3 108c6 39 18 74 35 106s38 59 63 82s54 41 86 53s66 18 102 18c39 0 74 -7 106 -22s58 -36 77 -64
l-110 -87c-11 12 -24 22 -39 30s-33 12 -54 12c-15 0 -29 -3 -43 -9s-27 -15 -38 -26s-21 -24 -29 -40s-13 -33 -16 -52c-6 -37 0 -68 18 -92s43 -36 75 -36c19 0 36 4 51 11s31 18 49 33z" />
    <glyph glyph-name="Dcaron" unicode="&#x10e;" horiz-adv-x="699" 
d="M235 878h127l45 -99l76 99h128l-107 -150h-209zM265 539l-64 -403h129c25 0 49 5 72 16s44 26 63 44s35 40 48 65s22 51 27 78c4 27 4 53 0 77s-12 45 -24 63s-27 33 -45 44s-38 16 -60 16h-146zM143 675l290 3c43 0 82 -9 116 -27s63 -42 86 -72s39 -66 48 -107
s10 -85 3 -132s-21 -91 -43 -132s-49 -77 -81 -108s-67 -55 -106 -73s-79 -27 -121 -27h-299z" />
    <glyph glyph-name="dcaron" unicode="&#x10f;" horiz-adv-x="762" 
d="M651 411v-2c16 17 30 33 41 47s20 31 27 50c-25 0 -44 9 -58 27s-19 40 -15 65s16 46 36 63s42 26 67 26c12 0 23 -3 32 -8s17 -12 23 -21s10 -20 12 -32s2 -25 0 -39c-5 -35 -19 -70 -42 -105s-58 -68 -105 -100zM277 117l-2 -3c16 0 31 3 46 10s28 16 40 28
s22 26 30 42s14 33 17 52c6 37 0 67 -18 91s-43 36 -76 36c-17 0 -32 -3 -46 -9s-27 -15 -38 -27s-21 -25 -29 -40s-13 -32 -16 -50c-5 -36 0 -67 16 -92s41 -38 76 -38zM407 48l3 -2c-25 -20 -52 -36 -81 -48s-58 -18 -87 -18c-33 0 -63 6 -90 19s-50 31 -68 54
s-31 51 -39 83s-9 68 -3 107s17 74 33 106s36 59 60 82s51 41 82 53s64 18 99 18c25 0 48 -4 68 -12s38 -19 54 -32l6 75l29 176h138l-113 -714h-79z" />
    <glyph glyph-name="Dcroat" unicode="&#x110;" horiz-adv-x="712" 
d="M226 276l-21 -140h150c22 0 44 5 65 16s40 26 57 44s32 40 44 65s20 51 24 78c5 27 5 53 0 77s-13 45 -24 63s-25 33 -43 44s-38 16 -60 16h-150l-21 -127h136l-22 -136h-135zM83 276l-42 3l22 136h40l42 263h293c43 0 82 -9 117 -27s64 -42 87 -72s39 -66 48 -107
s10 -85 3 -132s-22 -91 -45 -132s-50 -77 -82 -108s-68 -55 -108 -73s-81 -27 -124 -27h-294z" />
    <glyph glyph-name="dcroat" unicode="&#x111;" horiz-adv-x="593" 
d="M277 119l-2 -3c16 0 31 3 46 10s28 16 40 28s22 26 30 42s14 33 17 52c6 37 0 67 -18 91s-43 36 -76 36c-17 0 -32 -3 -46 -9s-27 -15 -38 -27s-21 -25 -29 -40s-13 -32 -16 -50c-5 -36 0 -67 16 -92s41 -38 76 -38zM407 50l3 -2c-25 -20 -52 -36 -81 -48
s-58 -18 -87 -18c-33 0 -63 6 -90 19s-50 31 -68 54s-31 51 -39 83s-9 68 -3 107s17 74 33 106s36 59 60 82s51 41 82 53s64 18 99 18c25 0 48 -4 68 -12s38 -19 54 -32l6 75l2 14h-215l13 88h217l12 74h138l-11 -74h35l-14 -88h-35l-88 -552h-79z" />
    <glyph glyph-name="Emacron" unicode="&#x112;" horiz-adv-x="583" 
d="M247 844h296l-17 -106h-296zM143 675h455l-22 -136h-311l-21 -132h293l-22 -136h-292l-22 -135h314l-21 -136h-458z" />
    <glyph glyph-name="emacron" unicode="&#x113;" horiz-adv-x="550" 
d="M203 682h289l-17 -106h-290zM306 392c-27 0 -50 -9 -69 -27s-33 -41 -42 -70l187 8c-4 59 -29 89 -76 89zM475 80l-3 -2c-29 -30 -63 -53 -101 -69s-77 -24 -117 -24c-33 0 -64 6 -93 18s-54 29 -74 51s-35 49 -44 81s-11 68 -5 107c7 41 20 78 38 111s40 61 66 84
s55 40 87 52s65 18 98 18c32 0 62 -6 89 -19s50 -32 68 -57s31 -56 38 -93s7 -79 -1 -127h-337c3 -29 14 -52 33 -68s44 -24 74 -24c41 0 76 15 106 44z" />
    <glyph glyph-name="Ebreve" unicode="&#x114;" horiz-adv-x="583" 
d="M326 889h2c-1 -17 4 -32 15 -45s27 -20 48 -20s39 7 54 20s25 28 30 45h76c-13 -52 -34 -92 -63 -120s-66 -42 -111 -42c-46 0 -79 14 -100 42s-29 68 -24 120h73zM145 675h455l-22 -136h-311l-21 -132h293l-22 -136h-292l-22 -135h314l-21 -136h-458z" />
    <glyph glyph-name="ebreve" unicode="&#x115;" horiz-adv-x="550" 
d="M283 713h3c-1 -17 4 -32 15 -45s27 -20 48 -20s39 7 54 20s25 28 30 45h75c-13 -52 -34 -92 -63 -120s-66 -42 -111 -42c-46 0 -79 14 -100 42s-29 68 -24 120h73zM309 392c-27 0 -50 -9 -69 -27s-33 -41 -42 -70l187 8c-4 59 -29 89 -76 89zM478 80l-3 -2
c-29 -30 -63 -53 -101 -69s-77 -24 -117 -24c-33 0 -64 6 -93 18s-54 29 -74 51s-35 49 -44 81s-11 68 -5 107c7 41 20 78 38 111s40 61 66 84s55 40 87 52s65 18 98 18c32 0 62 -6 89 -19s50 -32 68 -57s31 -56 38 -93s7 -79 -1 -127h-337c3 -29 14 -52 33 -68
s44 -24 74 -24c41 0 76 15 106 44z" />
    <glyph glyph-name="Edotaccent" unicode="&#x116;" horiz-adv-x="583" 
d="M382 735v-1c-24 0 -43 9 -57 26s-19 38 -15 63c2 12 6 23 12 34s14 20 23 28s19 14 30 19s23 7 35 7c22 0 40 -8 54 -25s19 -37 15 -61c-2 -13 -6 -25 -12 -36s-13 -20 -22 -28s-19 -14 -30 -19s-22 -7 -33 -7zM143 674h455l-22 -136h-311l-21 -132h293l-22 -136h-292
l-22 -135h314l-21 -136h-458z" />
    <glyph glyph-name="edotaccent" unicode="&#x117;" horiz-adv-x="550" 
d="M337 562v-1c-24 0 -43 9 -57 26s-19 38 -15 63c4 24 16 45 35 62s41 26 65 26c22 0 40 -8 54 -25s19 -37 16 -61c-2 -13 -6 -25 -12 -36s-14 -20 -23 -28s-19 -14 -30 -19s-22 -7 -33 -7zM306 391c-27 0 -50 -9 -69 -27s-33 -41 -42 -70l187 8c-4 59 -29 89 -76 89z
M475 79l-3 -2c-29 -30 -63 -53 -101 -69s-77 -24 -117 -24c-33 0 -64 6 -93 18s-54 29 -74 51s-35 49 -44 81s-11 68 -5 107c7 41 20 78 38 111s40 61 66 84s55 40 87 52s65 18 98 18c32 0 62 -6 89 -19s50 -32 68 -57s31 -56 38 -93s7 -79 -1 -127h-337
c3 -29 14 -52 33 -68s44 -24 74 -24c41 0 76 15 106 44z" />
    <glyph glyph-name="Eogonek" unicode="&#x118;" horiz-adv-x="598" 
d="M493 -163v-2c-29 -23 -64 -34 -106 -34c-37 0 -65 9 -85 26s-27 41 -22 72c3 21 11 40 23 57s27 31 45 43h-314l107 675h455l-22 -136h-311l-21 -132h293l-22 -136h-293l-21 -135h314l-22 -135l1 -1c-39 -11 -67 -23 -83 -36s-25 -29 -28 -47c-1 -9 1 -17 7 -24
s14 -11 25 -11c25 0 48 9 68 27l12 -71v0z" />
    <glyph glyph-name="eogonek" unicode="&#x119;" horiz-adv-x="550" 
d="M306 392c-27 0 -50 -9 -69 -27s-33 -41 -42 -70l187 8c-4 59 -29 89 -76 89zM372 -151l-5 -5c-29 -23 -64 -34 -106 -34c-37 0 -65 9 -85 26s-27 41 -22 72c3 16 8 31 16 44s18 25 29 36c-27 6 -52 16 -74 30s-41 32 -56 54s-26 47 -32 75s-6 59 -1 93c7 41 20 78 38 111
s40 61 66 84s55 40 87 52s65 18 98 18c32 0 62 -6 89 -19s50 -32 68 -57s31 -56 38 -93s7 -79 -1 -127h-337c3 -29 14 -52 33 -68s44 -24 74 -24c41 0 76 15 106 44l78 -83c-44 -45 -96 -74 -155 -86c-19 -9 -33 -19 -42 -29s-14 -22 -16 -35c-1 -9 1 -17 7 -24
s14 -11 25 -11c25 0 48 9 68 27z" />
    <glyph glyph-name="Ecaron" unicode="&#x11a;" horiz-adv-x="583" 
d="M218 878h127l45 -99l76 99h128l-107 -150h-209zM143 675h455l-22 -136h-311l-21 -132h293l-22 -136h-292l-22 -135h314l-21 -136h-458z" />
    <glyph glyph-name="ecaron" unicode="&#x11b;" horiz-adv-x="550" 
d="M168 702h128l45 -98l76 98h127l-107 -150h-209zM306 392c-27 0 -50 -9 -69 -27s-33 -41 -42 -70l187 8c-4 59 -29 89 -76 89zM475 80l-3 -2c-29 -30 -63 -53 -101 -69s-77 -24 -117 -24c-33 0 -64 6 -93 18s-54 29 -74 51s-35 49 -44 81s-11 68 -5 107c7 41 20 78 38 111
s40 61 66 84s55 40 87 52s65 18 98 18c32 0 62 -6 89 -19s50 -32 68 -57s31 -56 38 -93s7 -79 -1 -127h-337c3 -29 14 -52 33 -68s44 -24 74 -24c41 0 76 15 106 44z" />
    <glyph glyph-name="Gcircumflex" unicode="&#x11c;" horiz-adv-x="715" 
d="M466 827l-77 -99h-126l115 150h192l68 -150h-127zM631 85l-1 -5c-16 -15 -35 -29 -56 -41s-44 -22 -68 -31s-49 -15 -75 -19s-52 -6 -78 -6c-48 0 -92 9 -131 27s-72 43 -98 74s-45 68 -56 111s-12 90 -4 141s24 98 47 141s52 80 86 111s73 55 117 72s91 26 141 26
c58 0 109 -10 153 -29s79 -47 105 -83l-109 -93c-15 21 -37 37 -66 48s-62 17 -99 17c-30 0 -58 -6 -84 -18s-49 -27 -69 -46s-37 -41 -50 -66s-22 -51 -26 -78c-5 -29 -5 -56 0 -82s15 -48 29 -67s33 -34 56 -45s50 -17 81 -17c45 0 86 10 123 29l14 87h-110l22 136h253z
" />
    <glyph glyph-name="gcircumflex" unicode="&#x11d;" 
d="M364 650l-77 -99h-127l108 150h209l59 -150h-127zM320 376v3c-16 0 -32 -3 -47 -10s-29 -16 -41 -28s-22 -26 -31 -42s-15 -33 -18 -51s-3 -35 0 -51s9 -30 18 -42s20 -21 33 -27s28 -9 44 -9c15 0 30 3 44 9s27 15 39 26s22 25 30 41s14 33 17 52c3 18 3 35 0 51
s-9 30 -17 41s-18 20 -30 27s-26 10 -41 10zM218 -228l-3 -2c-45 0 -84 4 -117 12s-66 19 -99 33l52 107c27 -9 53 -16 78 -21s53 -8 84 -8c40 0 73 11 98 33s41 52 47 91l2 9c-19 -11 -39 -20 -60 -27s-43 -10 -66 -10c-32 0 -61 6 -88 18s-49 30 -67 53s-31 50 -38 82
s-8 68 -2 107s17 74 34 106s38 60 62 83s52 41 84 54s66 19 103 19c29 0 56 -6 81 -18s47 -28 66 -47l29 52h78l-76 -479c-6 -37 -17 -71 -32 -102s-34 -57 -58 -78s-52 -37 -84 -49s-68 -18 -108 -18z" />
    <glyph glyph-name="Gbreve" unicode="&#x11e;" horiz-adv-x="715" 
d="M404 889h2c-1 -17 4 -32 15 -45s27 -20 48 -20s39 7 54 20s25 28 30 45h76c-13 -52 -34 -92 -63 -120s-66 -42 -111 -42c-46 0 -79 14 -100 42s-29 68 -24 120h73zM633 85l-1 -5c-16 -15 -35 -29 -56 -41s-44 -22 -68 -31s-49 -15 -75 -19s-52 -6 -78 -6
c-48 0 -92 9 -131 27s-72 43 -98 74s-45 68 -56 111s-12 90 -4 141s24 98 47 141s52 80 86 111s73 55 117 72s91 26 141 26c58 0 109 -10 153 -29s79 -47 105 -83l-109 -93c-15 21 -37 37 -66 48s-62 17 -99 17c-30 0 -58 -6 -84 -18s-49 -27 -69 -46s-37 -41 -50 -66
s-22 -51 -26 -78c-5 -29 -5 -56 0 -82s15 -48 29 -67s33 -34 56 -45s50 -17 81 -17c45 0 86 10 123 29l14 87h-110l22 136h253z" />
    <glyph glyph-name="gbreve" unicode="&#x11f;" 
d="M292 713h3c-1 -17 4 -32 15 -45s27 -20 48 -20s39 7 54 20s25 28 30 45h75c-13 -52 -34 -92 -63 -120s-66 -42 -111 -42c-46 0 -79 14 -100 42s-29 68 -24 120h73zM323 376v3c-16 0 -32 -3 -47 -10s-29 -16 -41 -28s-22 -26 -31 -42s-15 -33 -18 -51s-3 -35 0 -51
s9 -30 18 -42s20 -21 33 -27s28 -9 44 -9c15 0 30 3 44 9s27 15 39 26s22 25 30 41s14 33 17 52c3 18 3 35 0 51s-9 30 -17 41s-18 20 -30 27s-26 10 -41 10zM221 -228l-3 -2c-45 0 -84 4 -117 12s-66 19 -99 33l52 107c27 -9 53 -16 78 -21s53 -8 84 -8c40 0 73 11 98 33
s41 52 47 91l2 9c-19 -11 -39 -20 -60 -27s-43 -10 -66 -10c-32 0 -61 6 -88 18s-49 30 -67 53s-31 50 -38 82s-8 68 -2 107s17 74 34 106s38 60 62 83s52 41 84 54s66 19 103 19c29 0 56 -6 81 -18s47 -28 66 -47l29 52h78l-76 -479c-6 -37 -17 -71 -32 -102
s-34 -57 -58 -78s-52 -37 -84 -49s-68 -18 -108 -18z" />
    <glyph glyph-name="Gdotaccent" unicode="&#x120;" horiz-adv-x="715" 
d="M455 735l-1 -1c-23 0 -42 9 -56 26s-19 38 -15 63c2 12 6 23 12 34s14 20 23 28s19 14 30 19s23 7 35 7c23 0 41 -8 55 -25s19 -37 15 -61c-2 -13 -6 -25 -12 -36s-14 -20 -23 -28s-19 -14 -30 -19s-22 -7 -33 -7zM630 84l-1 -5c-16 -15 -35 -29 -56 -41s-44 -22 -68 -31
s-49 -15 -75 -19s-52 -6 -78 -6c-48 0 -92 9 -131 27s-72 43 -98 74s-45 68 -56 111s-12 90 -4 141s24 98 47 141s52 80 86 111s73 55 117 72s91 26 141 26c58 0 109 -10 153 -29s79 -47 105 -83l-109 -93c-15 21 -37 37 -66 48s-62 17 -99 17c-30 0 -58 -6 -84 -18
s-49 -27 -69 -46s-37 -41 -50 -66s-22 -51 -26 -78c-5 -29 -5 -56 0 -82s15 -48 29 -67s33 -34 56 -45s50 -17 81 -17c45 0 86 10 123 29l14 87h-110l22 136h253z" />
    <glyph glyph-name="gdotaccent" unicode="&#x121;" 
d="M345 562v-1c-24 0 -43 9 -57 26s-19 38 -15 63c4 24 16 45 35 62s41 26 65 26c22 0 40 -8 54 -25s19 -37 16 -61c-2 -13 -6 -25 -12 -36s-14 -20 -23 -28s-19 -14 -30 -19s-22 -7 -33 -7zM320 375v3c-16 0 -32 -3 -47 -10s-29 -16 -41 -28s-22 -26 -31 -42
s-15 -33 -18 -51s-3 -35 0 -51s9 -30 18 -42s20 -21 33 -27s28 -9 44 -9c15 0 30 3 44 9s27 15 39 26s22 25 30 41s14 33 17 52c3 18 3 35 0 51s-9 30 -17 41s-18 20 -30 27s-26 10 -41 10zM218 -229l-3 -2c-45 0 -84 4 -117 12s-66 19 -99 33l52 107c27 -9 53 -16 78 -21
s53 -8 84 -8c40 0 73 11 98 33s41 52 47 91l2 9c-19 -11 -39 -20 -60 -27s-43 -10 -66 -10c-32 0 -61 6 -88 18s-49 30 -67 53s-31 50 -38 82s-8 68 -2 107s17 74 34 106s38 60 62 83s52 41 84 54s66 19 103 19c29 0 56 -6 81 -18s47 -28 66 -47l29 52h78l-76 -479
c-6 -37 -17 -71 -32 -102s-34 -57 -58 -78s-52 -37 -84 -49s-68 -18 -108 -18z" />
    <glyph glyph-name="Gcommaaccent" unicode="&#x122;" horiz-adv-x="715" 
d="M631 85l-1 -5c-16 -15 -35 -29 -56 -41s-44 -22 -68 -31s-49 -15 -75 -19s-52 -6 -78 -6c-48 0 -92 9 -131 27s-72 43 -98 74s-45 68 -56 111s-12 90 -4 141s24 98 47 141s52 80 86 111s73 55 117 72s91 26 141 26c58 0 109 -10 153 -29s79 -47 105 -83l-109 -93
c-15 21 -37 37 -66 48s-62 17 -99 17c-30 0 -58 -6 -84 -18s-49 -27 -69 -46s-37 -41 -50 -66s-22 -51 -26 -78c-5 -29 -5 -56 0 -82s15 -48 29 -67s33 -34 56 -45s50 -17 81 -17c45 0 86 10 123 29l14 87h-110l22 136h253zM236 -336l3 -3c15 17 28 33 39 47s20 30 27 47
c-24 1 -43 10 -56 27s-18 38 -15 63c4 24 16 45 35 62s41 26 65 26c23 0 41 -9 54 -28s17 -42 12 -70c-5 -35 -19 -69 -42 -103s-58 -66 -105 -97z" />
    <glyph glyph-name="gcommaaccent" unicode="&#x123;" 
d="M334 553l-2 1c-23 0 -41 10 -54 29s-17 42 -12 69v1v1c5 34 19 68 42 102s58 66 104 97l17 -29c-16 -17 -29 -32 -40 -46s-20 -30 -27 -47c23 -1 42 -10 56 -27s19 -38 14 -63c-2 -12 -6 -23 -12 -34s-13 -20 -22 -28s-19 -14 -30 -19s-22 -7 -34 -7zM318 377v3
c-16 0 -32 -3 -47 -10s-29 -16 -41 -28s-22 -26 -31 -42s-15 -33 -18 -51s-3 -35 0 -51s9 -30 18 -42s20 -21 33 -27s28 -9 44 -9c15 0 30 3 44 9s27 15 39 26s22 25 30 41s14 33 17 52c3 18 3 35 0 51s-9 30 -17 41s-18 20 -30 27s-26 10 -41 10zM216 -227l-3 -2
c-45 0 -84 4 -117 12s-66 19 -99 33l52 107c27 -9 53 -16 78 -21s53 -8 84 -8c40 0 73 11 98 33s41 52 47 91l2 9c-19 -11 -39 -20 -60 -27s-43 -10 -66 -10c-32 0 -61 6 -88 18s-49 30 -67 53s-31 50 -38 82s-8 68 -2 107s17 74 34 106s38 60 62 83s52 41 84 54
s66 19 103 19c29 0 56 -6 81 -18s47 -28 66 -47l29 52h78l-76 -479c-6 -37 -17 -71 -32 -102s-34 -57 -58 -78s-52 -37 -84 -49s-68 -18 -108 -18z" />
    <glyph glyph-name="Hcircumflex" unicode="&#x124;" horiz-adv-x="720" 
d="M459 827l-77 -99h-126l115 150h192l68 -150h-127zM519 274h-296l-43 -274h-144l107 675h144l-42 -265h296l42 265h143l-107 -675h-143z" />
    <glyph glyph-name="hcircumflex" unicode="&#x125;" horiz-adv-x="589" 
d="M411 879l-77 -98h-126l115 150h192l68 -150h-127zM331 368l1 -1c-19 0 -38 -5 -57 -14s-38 -22 -57 -39c-5 -28 -10 -60 -15 -96s-10 -70 -15 -103c-6 -38 -12 -77 -19 -116h-139l113 714h139l-28 -181l-22 -94c25 21 52 38 80 50s56 18 83 18c25 0 48 -4 69 -12
s39 -20 53 -37s24 -38 30 -64s6 -57 0 -93l-48 -301h-139l43 269c5 35 1 60 -13 76s-34 24 -59 24z" />
    <glyph glyph-name="Hbar" unicode="&#x126;" horiz-adv-x="721" 
d="M556 502h-296l-14 -92h296zM520 274h-296l-43 -274h-144l80 502h-40l13 81h40l14 92h144l-15 -92h296l15 92h143l-15 -92h38l-13 -81h-38l-79 -502h-143z" />
    <glyph glyph-name="hbar" unicode="&#x127;" horiz-adv-x="589" 
d="M331 368l1 -1c-19 0 -38 -5 -57 -14s-38 -22 -57 -39c-5 -28 -10 -60 -15 -96s-10 -70 -15 -103c-6 -38 -12 -77 -19 -116h-139l88 554h-49l14 87h48l12 73h139l-11 -73h203l-14 -87h-203l-3 -21l-22 -94c25 21 52 38 80 50s56 18 83 18c25 0 48 -4 69 -12s39 -20 53 -37
s24 -38 30 -64s6 -57 0 -93l-48 -301h-139l43 269c5 35 1 60 -13 76s-34 24 -59 24z" />
    <glyph glyph-name="Itilde" unicode="&#x128;" horiz-adv-x="280" 
d="M47 746l1 -3c4 23 10 43 19 60s19 31 30 42s23 19 35 25s24 9 35 9c16 0 30 -2 43 -6s25 -8 36 -13s22 -9 33 -13s23 -6 36 -6c8 0 16 2 23 6s12 12 15 23h48c-7 -45 -21 -79 -42 -103s-45 -36 -71 -36c-16 0 -31 2 -44 6s-26 8 -38 13s-24 9 -36 13s-24 6 -37 6
c-19 0 -31 -8 -36 -23h-50zM144 672h144l-107 -675h-144z" />
    <glyph glyph-name="itilde" unicode="&#x129;" horiz-adv-x="264" 
d="M22 574l1 -1c8 45 24 79 47 101s47 33 72 33c16 0 30 -2 43 -6s25 -8 36 -13s22 -9 33 -13s23 -6 36 -6c8 0 16 2 23 6s12 12 15 23h48c-7 -45 -20 -79 -40 -103s-45 -36 -75 -36c-16 0 -31 2 -44 6s-26 8 -38 13s-24 9 -36 13s-24 6 -37 6c-8 0 -15 -2 -21 -6
s-10 -10 -13 -17h-50zM109 494h139l-78 -495h-139z" />
    <glyph glyph-name="Imacron" unicode="&#x12a;" horiz-adv-x="280" 
d="M88 847h290l-17 -106h-290zM143 675h144l-107 -675h-144z" />
    <glyph glyph-name="imacron" unicode="&#x12b;" horiz-adv-x="264" 
d="M56 667h289l-17 -106h-290zM109 495h139l-79 -495h-139z" />
    <glyph glyph-name="Ibreve" unicode="&#x12c;" horiz-adv-x="280" 
d="M174 890h2c-1 -17 4 -32 15 -45s27 -20 48 -20s39 7 54 20s25 28 30 45h75c-13 -52 -34 -92 -63 -120s-66 -42 -111 -42c-46 0 -79 14 -100 42s-29 68 -24 120h74zM145 675h144l-107 -675h-144z" />
    <glyph glyph-name="ibreve" unicode="&#x12d;" horiz-adv-x="264" 
d="M137 713h2c-1 -17 4 -32 15 -45s27 -20 48 -20s39 7 54 20s25 28 30 45h75c-13 -52 -34 -92 -63 -120s-66 -42 -111 -42c-46 0 -79 14 -100 42s-29 68 -24 120h74zM111 495h139l-79 -495h-139z" />
    <glyph glyph-name="Iogonek" unicode="&#x12e;" horiz-adv-x="280" 
d="M178 -163l-2 -4c-28 -23 -63 -34 -106 -34c-37 0 -65 9 -84 26s-26 41 -21 72c3 21 11 40 24 57s28 32 46 45l107 674h143l-106 -675h-1c-39 -11 -67 -23 -83 -36s-25 -29 -28 -47c-1 -9 1 -17 7 -24s14 -11 25 -11c13 0 25 2 36 7s22 12 32 21l11 -71v0z" />
    <glyph glyph-name="iogonek" unicode="&#x12f;" horiz-adv-x="264" 
d="M191 566l-1 -2c-24 0 -43 9 -57 26s-19 38 -15 63c2 12 6 23 12 34s14 20 23 28s19 14 30 19s23 7 35 7c23 0 41 -8 55 -25s19 -37 15 -61c-4 -25 -15 -46 -34 -63s-40 -26 -63 -26zM167 -165l-3 -4c-28 -23 -63 -34 -106 -34c-37 0 -65 9 -84 26s-26 41 -21 72
c3 23 12 43 26 60s31 32 50 45l78 491h139l-79 -495c-39 -11 -67 -23 -83 -36s-25 -29 -28 -47c-1 -9 1 -17 7 -24s14 -11 25 -11c13 0 25 2 36 7s22 12 32 21z" />
    <glyph glyph-name="Idotaccent" unicode="&#x130;" horiz-adv-x="280" 
d="M226 735v-1c-24 0 -43 9 -57 26s-19 38 -15 63c2 12 6 23 12 34s14 20 23 28s19 14 30 19s23 7 35 7c22 0 40 -8 54 -25s19 -37 15 -61c-2 -13 -6 -25 -12 -36s-13 -20 -22 -28s-19 -14 -30 -19s-22 -7 -33 -7zM143 674h144l-107 -675h-144z" />
    <glyph glyph-name="dotlessi" unicode="&#x131;" horiz-adv-x="264" 
d="M109 495h139l-79 -495h-139z" />
    <glyph glyph-name="IJ" unicode="&#x132;" horiz-adv-x="820" 
d="M143 675h144l-107 -675h-144zM514 -13h-3c-57 0 -104 10 -141 31s-68 49 -93 85l97 94c17 -19 35 -35 54 -48s44 -19 75 -19c27 0 51 9 72 27s35 47 42 86l68 433h144l-71 -443c-7 -45 -19 -83 -35 -114s-35 -56 -57 -76s-46 -34 -72 -43s-53 -13 -80 -13z" />
    <glyph glyph-name="ij" unicode="&#x133;" horiz-adv-x="525" 
d="M452 566v-1c-24 0 -43 9 -57 26s-19 38 -15 63c4 24 16 45 35 62s41 26 65 26c23 0 41 -8 55 -25s19 -37 15 -61c-2 -13 -6 -25 -12 -36s-14 -20 -23 -28s-19 -14 -30 -19s-22 -7 -33 -7zM191 565l-1 -2c-24 0 -43 9 -57 26s-19 38 -15 63c2 12 6 23 12 34s14 20 23 28
s19 14 30 19s23 7 35 7c23 0 41 -8 55 -25s19 -37 15 -61c-4 -25 -15 -46 -34 -63s-40 -26 -63 -26zM426 -25l-2 -2c-5 -32 -15 -61 -29 -87s-32 -48 -54 -66s-48 -32 -77 -42s-61 -15 -96 -15l22 132c12 0 23 2 34 6s21 10 30 17s16 16 22 26s10 21 11 33l82 515h139z
M106 490h139l-79 -495h-139z" />
    <glyph glyph-name="Jcircumflex" unicode="&#x134;" horiz-adv-x="544" 
d="M498 827l-76 -99h-127l115 150h193l68 -150h-128zM237 -13h-2c-57 0 -104 10 -141 31s-68 49 -93 85l97 94c17 -19 35 -35 54 -48s44 -19 75 -19c27 0 51 9 72 27s35 47 41 86l69 433h143l-70 -443c-7 -45 -19 -83 -35 -114s-35 -56 -57 -76s-46 -34 -72 -43
s-53 -13 -81 -13z" />
    <glyph glyph-name="jcircumflex" unicode="&#x135;" horiz-adv-x="265" 
d="M208 650l-76 -99h-127l108 150h208l60 -150h-128zM167 -22v-4c-5 -32 -15 -61 -29 -87s-32 -48 -54 -66s-48 -32 -77 -42s-61 -15 -96 -15l21 131c23 0 44 8 63 24s30 36 33 61l81 515h140z" />
    <glyph glyph-name="Kcommaaccent" unicode="&#x136;" horiz-adv-x="670" 
d="M306 275l-98 -95l-28 -180h-144l107 675h144l-47 -293l297 293h178l-306 -299l219 -376h-164zM207 -331l2 -3c15 17 28 33 39 47s20 30 27 47c-23 1 -41 10 -55 27s-19 38 -15 63c4 24 16 45 35 62s41 26 65 26c23 0 41 -9 54 -28s17 -42 12 -70c-5 -35 -19 -69 -42 -103
s-58 -66 -105 -97z" />
    <glyph glyph-name="kcommaaccent" unicode="&#x137;" horiz-adv-x="575" 
d="M275 168l-1 -1l-45 -33s-30 -22 -46 -33l-16 -101h-139l113 714h139l-71 -449c44 35 84 71 120 109s68 78 96 121h161c-55 -84 -124 -164 -207 -239l149 -256h-155zM161 -332l2 -3c15 17 28 33 39 47s20 30 27 47c-23 1 -41 10 -55 27s-19 38 -15 63c4 24 16 45 35 62
s41 26 65 26c23 0 41 -9 54 -28s17 -42 12 -70c-5 -35 -19 -69 -42 -103s-58 -66 -105 -97z" />
    <glyph glyph-name="kgreenlandic" unicode="&#x138;" horiz-adv-x="575" 
d="M265 184l-2 2c-17 -15 -32 -28 -45 -40s-24 -22 -33 -29l-19 -115h-139l79 495h139l-32 -198c21 19 42 39 64 60s43 41 62 59s35 34 49 48s23 24 27 30h169c-5 -7 -15 -18 -29 -33s-31 -32 -51 -52s-42 -41 -66 -64l-72 -69l162 -278h-156z" />
    <glyph glyph-name="Lacute" unicode="&#x139;" horiz-adv-x="546" 
d="M157 728l85 150h159l-116 -150h-128zM143 675h144l-86 -539h301l-21 -136h-445z" />
    <glyph glyph-name="lacute" unicode="&#x13a;" horiz-adv-x="262" 
d="M150 749l85 150h159l-116 -150h-128zM142 714h139l-113 -714h-139z" />
    <glyph glyph-name="Lcommaaccent" unicode="&#x13b;" horiz-adv-x="546" 
d="M143 675h144l-86 -539h301l-21 -136h-445zM153 -331l2 -3c15 17 28 33 39 47s20 30 27 47c-23 1 -41 10 -55 27s-19 38 -15 63c4 24 16 45 35 62s41 26 65 26c23 0 41 -9 54 -28s17 -42 12 -70c-5 -35 -19 -69 -42 -103s-58 -66 -105 -97z" />
    <glyph glyph-name="lcommaaccent" unicode="&#x13c;" horiz-adv-x="262" 
d="M142 714h139l-113 -714h-139zM-6 -331l-1 -3c16 17 29 33 40 47s20 30 27 47c-24 1 -43 10 -56 27s-18 38 -14 63c2 12 6 23 12 34s14 20 23 28s19 14 30 19s23 7 35 7c23 0 41 -9 54 -28s18 -42 14 -70c-5 -35 -19 -69 -42 -103s-58 -66 -105 -97z" />
    <glyph glyph-name="Lcaron" unicode="&#x13d;" horiz-adv-x="546" 
d="M328 411v-2c17 17 31 33 42 47s20 31 27 50c-25 0 -44 9 -58 27s-19 40 -15 65s16 46 35 63s41 26 66 26c12 0 23 -3 33 -8s18 -12 24 -21s10 -20 12 -32s2 -25 0 -39c-5 -35 -19 -70 -42 -105s-58 -68 -106 -100zM143 673h143l-85 -539h301l-22 -136h-444z" />
    <glyph glyph-name="lcaron" unicode="&#x13e;" horiz-adv-x="437" 
d="M142 714h139l-113 -714h-139zM328 411v-2c17 17 31 33 42 47s20 31 27 50c-25 0 -44 9 -58 27s-19 40 -15 65s16 46 35 63s41 26 66 26c12 0 23 -3 33 -8s18 -12 24 -21s10 -20 12 -32s2 -25 0 -39c-5 -35 -19 -70 -42 -105s-58 -68 -106 -100z" />
    <glyph glyph-name="Ldot" unicode="&#x13f;" horiz-adv-x="551" 
d="M406 297h-1c-24 0 -43 9 -57 26s-19 38 -16 63c2 12 6 23 12 34s14 20 23 28s19 14 30 19s23 7 35 7c23 0 42 -9 56 -26s19 -38 15 -62c-4 -25 -15 -46 -34 -63s-40 -26 -63 -26zM142 675h144l-86 -539h301l-21 -136h-445z" />
    <glyph glyph-name="ldot" unicode="&#x140;" horiz-adv-x="396" 
d="M142 714h139l-113 -714h-139zM345 283v-1c-24 0 -43 9 -57 26s-19 38 -15 63c4 24 16 45 35 62s41 26 65 26c23 0 41 -8 55 -25s19 -37 15 -61c-2 -13 -6 -25 -12 -36s-14 -20 -23 -28s-19 -14 -30 -19s-22 -7 -33 -7z" />
    <glyph glyph-name="Lslash" unicode="&#x141;" horiz-adv-x="548" 
d="M75 226l-61 -39l12 74l61 38l59 376h143l-43 -274l110 70l-12 -74l-110 -70l-30 -191h301l-22 -136h-444z" />
    <glyph glyph-name="lslash" unicode="&#x142;" horiz-adv-x="263" 
d="M30 0l46 290l-51 -31l9 65l52 32l57 358h139l-42 -265l49 29l-10 -66l-49 -29l-61 -383h-139z" />
    <glyph glyph-name="Nacute" unicode="&#x143;" horiz-adv-x="720" 
d="M369 728l85 150h159l-116 -150h-128zM252 455l-72 -455h-144l107 675h144l224 -455l72 455h144l-107 -675h-144z" />
    <glyph glyph-name="nacute" unicode="&#x144;" horiz-adv-x="590" 
d="M285 552l84 150h159l-116 -150h-127zM332 368v-1c-19 0 -38 -5 -57 -15s-38 -23 -57 -40l-50 -313h-139l79 495h91l12 -75c28 30 58 52 89 66s62 21 92 21c25 0 48 -4 70 -12s40 -20 55 -37s26 -38 32 -64s6 -57 0 -93l-48 -301h-139l42 269c5 35 1 60 -13 76
s-34 24 -59 24z" />
    <glyph glyph-name="Ncommaaccent" unicode="&#x145;" horiz-adv-x="720" 
d="M252 455l-72 -455h-144l107 675h144l224 -455l72 455h144l-107 -675h-144zM229 -331l-1 -3c16 17 29 33 40 47s20 30 27 47c-24 1 -43 10 -56 27s-18 38 -14 63c2 12 6 23 12 34s14 20 23 28s19 14 30 19s23 7 35 7c23 0 41 -9 54 -28s18 -42 14 -70
c-5 -35 -19 -69 -42 -103s-58 -66 -105 -97z" />
    <glyph glyph-name="ncommaaccent" unicode="&#x146;" horiz-adv-x="590" 
d="M332 368v-1c-19 0 -38 -5 -57 -15s-38 -23 -57 -40l-50 -313h-139l79 495h91l12 -75c28 30 58 52 89 66s62 21 92 21c25 0 48 -4 70 -12s40 -20 55 -37s26 -38 32 -64s6 -57 0 -93l-48 -301h-139l42 269c5 35 1 60 -13 76s-34 24 -59 24zM159 -332l3 -3
c15 17 28 33 39 47s20 30 27 47c-24 1 -43 10 -56 27s-18 38 -15 63c4 24 16 45 35 62s41 26 65 26c23 0 41 -9 54 -28s17 -42 12 -70c-5 -35 -19 -69 -42 -103s-58 -66 -105 -97z" />
    <glyph glyph-name="Ncaron" unicode="&#x147;" horiz-adv-x="720" 
d="M277 878h127l45 -99l76 99h128l-108 -150h-208zM252 455l-72 -455h-144l107 675h144l224 -455l72 455h144l-107 -675h-144z" />
    <glyph glyph-name="ncaron" unicode="&#x148;" horiz-adv-x="590" 
d="M188 702h128l45 -98l76 98h127l-107 -150h-209zM332 368v-1c-19 0 -38 -5 -57 -15s-38 -23 -57 -40l-50 -313h-139l79 495h91l12 -75c28 30 58 52 89 66s62 21 92 21c25 0 48 -4 70 -12s40 -20 55 -37s26 -38 32 -64s6 -57 0 -93l-48 -301h-139l42 269c5 35 1 60 -13 76
s-34 24 -59 24z" />
    <glyph glyph-name="napostrophe" unicode="&#x149;" horiz-adv-x="758" 
d="M86 411v-2c16 17 30 33 41 47s20 31 27 50c-25 0 -44 9 -58 27s-19 40 -15 65s16 46 36 63s42 26 67 26c12 0 23 -3 32 -8s17 -12 23 -21s10 -20 12 -32s2 -25 0 -39c-5 -35 -19 -70 -42 -105s-58 -68 -105 -100zM502 366v-1c-19 0 -38 -5 -57 -15s-38 -23 -57 -40
l-50 -313h-139l79 495h91l12 -75c28 30 58 52 89 66s62 21 92 21c25 0 48 -4 70 -12s40 -20 55 -37s26 -38 32 -64s6 -57 0 -93l-48 -301h-139l42 269c5 35 1 60 -13 76s-34 24 -59 24z" />
    <glyph glyph-name="Eng" unicode="&#x14a;" horiz-adv-x="719" 
d="M383 -247l-1 2c-50 0 -91 10 -123 30s-59 48 -82 83l97 94c15 -21 31 -37 47 -48s37 -16 63 -16c21 0 40 8 57 24s28 40 33 71l1 8l-224 455l-72 -455h-144l107 675h143l225 -455l72 455h143l-110 -693c-6 -38 -16 -71 -31 -100s-33 -53 -54 -72s-44 -33 -69 -43
s-51 -15 -78 -15z" />
    <glyph glyph-name="eng" unicode="&#x14b;" horiz-adv-x="590" 
d="M261 -103v-4c23 0 44 8 63 23s31 35 35 60l45 289c5 35 1 60 -13 76s-34 24 -59 24c-19 0 -38 -5 -57 -15s-38 -23 -57 -40l-49 -313h-139l78 495h92l12 -75c28 30 58 52 89 66s62 21 92 21c25 0 48 -4 69 -12s39 -20 54 -37s26 -38 32 -64s6 -57 0 -93l-51 -323
c-5 -32 -15 -61 -29 -87s-32 -48 -54 -66s-48 -32 -77 -42s-61 -15 -96 -15z" />
    <glyph glyph-name="Omacron" unicode="&#x14c;" horiz-adv-x="750" 
d="M327 844h295l-16 -106h-296zM345 -13l-1 -1c-47 0 -90 9 -128 27s-70 43 -96 75s-44 69 -55 111s-12 88 -4 137c8 48 23 93 46 136s52 80 86 112s73 57 117 75s91 27 141 27c47 0 89 -9 127 -27s70 -43 95 -75s43 -69 54 -112s13 -88 6 -136c-8 -49 -24 -94 -48 -136
s-53 -79 -88 -111s-74 -57 -117 -75s-88 -27 -135 -27zM362 126l1 -1c26 0 51 6 75 17s46 26 66 45s37 41 51 67s23 53 28 82s4 56 -2 82s-16 48 -30 67s-31 34 -52 45s-44 17 -70 17c-25 0 -50 -6 -75 -17s-47 -26 -67 -45s-37 -41 -51 -67s-23 -53 -28 -82s-4 -56 2 -82
s16 -48 30 -67s32 -34 53 -45s44 -16 69 -16z" />
    <glyph glyph-name="omacron" unicode="&#x14d;" horiz-adv-x="577" 
d="M211 682h290l-17 -106h-290zM254 -13l-2 -3c-33 0 -64 6 -93 18s-53 29 -73 51s-35 49 -44 81s-10 68 -4 107c7 41 20 78 38 111s40 61 66 84s56 40 89 52s67 18 103 18c34 0 66 -6 95 -19s53 -31 73 -54s34 -51 43 -83s10 -68 4 -107s-18 -74 -36 -106s-40 -59 -67 -81
s-57 -39 -90 -51s-67 -18 -102 -18zM272 116l-1 -2c16 0 31 3 46 9s28 15 40 26s22 24 30 40s14 33 17 51c3 19 3 36 0 52s-9 30 -17 42s-18 21 -31 28s-27 10 -43 10c-15 0 -30 -3 -45 -10s-28 -16 -40 -28s-22 -26 -30 -42s-13 -33 -16 -52c-3 -18 -3 -35 0 -50
s9 -28 17 -39s18 -20 31 -26s27 -9 42 -9z" />
    <glyph glyph-name="Obreve" unicode="&#x14e;" horiz-adv-x="750" 
d="M407 889h2c-1 -17 4 -32 15 -45s27 -20 48 -20s39 7 54 20s25 28 30 45h76c-13 -52 -34 -92 -63 -120s-66 -42 -111 -42c-46 0 -79 14 -100 42s-29 68 -24 120h73zM347 -13l-1 -1c-47 0 -90 9 -128 27s-70 43 -96 75s-44 69 -55 111s-12 88 -4 137c8 48 23 93 46 136
s52 80 86 112s73 57 117 75s91 27 141 27c47 0 89 -9 127 -27s70 -43 95 -75s43 -69 54 -112s13 -88 6 -136c-8 -49 -24 -94 -48 -136s-53 -79 -88 -111s-74 -57 -117 -75s-88 -27 -135 -27zM364 126l1 -1c26 0 51 6 75 17s46 26 66 45s37 41 51 67s23 53 28 82s4 56 -2 82
s-16 48 -30 67s-31 34 -52 45s-44 17 -70 17c-25 0 -50 -6 -75 -17s-47 -26 -67 -45s-37 -41 -51 -67s-23 -53 -28 -82s-4 -56 2 -82s16 -48 30 -67s32 -34 53 -45s44 -16 69 -16z" />
    <glyph glyph-name="obreve" unicode="&#x14f;" horiz-adv-x="577" 
d="M288 713h3c-1 -17 4 -32 15 -45s27 -20 48 -20s39 7 54 20s25 28 30 45h75c-13 -52 -34 -92 -63 -120s-66 -42 -111 -42c-46 0 -79 14 -100 42s-29 68 -24 120h73zM257 -13l-2 -3c-33 0 -64 6 -93 18s-53 29 -73 51s-35 49 -44 81s-10 68 -4 107c7 41 20 78 38 111
s40 61 66 84s56 40 89 52s67 18 103 18c34 0 66 -6 95 -19s53 -31 73 -54s34 -51 43 -83s10 -68 4 -107s-18 -74 -36 -106s-40 -59 -67 -81s-57 -39 -90 -51s-67 -18 -102 -18zM275 116l-1 -2c16 0 31 3 46 9s28 15 40 26s22 24 30 40s14 33 17 51c3 19 3 36 0 52
s-9 30 -17 42s-18 21 -31 28s-27 10 -43 10c-15 0 -30 -3 -45 -10s-28 -16 -40 -28s-22 -26 -30 -42s-13 -33 -16 -52c-3 -18 -3 -35 0 -50s9 -28 17 -39s18 -20 31 -26s27 -9 42 -9z" />
    <glyph glyph-name="Ohungarumlaut" unicode="&#x150;" horiz-adv-x="749" 
d="M668 881l-92 -150h-112l61 150h143zM489 881l-91 -150h-113l61 150h143zM345 -13l-1 -1c-47 0 -90 9 -128 27s-70 43 -96 75s-44 69 -55 111s-12 88 -4 137c8 48 23 93 46 136s52 80 86 112s73 57 117 75s91 27 141 27c47 0 89 -9 127 -27s70 -43 95 -75s43 -69 54 -112
s13 -88 6 -136c-8 -49 -24 -94 -48 -136s-53 -79 -88 -111s-74 -57 -117 -75s-88 -27 -135 -27zM362 126l1 -1c26 0 51 6 75 17s46 26 66 45s37 41 51 67s23 53 28 82s4 56 -2 82s-16 48 -30 67s-31 34 -52 45s-44 17 -70 17c-25 0 -50 -6 -75 -17s-47 -26 -67 -45
s-37 -41 -51 -67s-23 -53 -28 -82s-4 -56 2 -82s16 -48 30 -67s32 -34 53 -45s44 -16 69 -16z" />
    <glyph glyph-name="ohungarumlaut" unicode="&#x151;" horiz-adv-x="577" 
d="M572 701l-92 -150h-112l60 150h144zM393 701l-92 -150h-112l61 150h143zM254 -13l-2 -3c-33 0 -64 6 -93 18s-53 29 -73 51s-35 49 -44 81s-10 68 -4 107c7 41 20 78 38 111s40 61 66 84s56 40 89 52s67 18 103 18c34 0 66 -6 95 -19s53 -31 73 -54s34 -51 43 -83
s10 -68 4 -107s-18 -74 -36 -106s-40 -59 -67 -81s-57 -39 -90 -51s-67 -18 -102 -18zM272 116l-1 -2c16 0 31 3 46 9s28 15 40 26s22 24 30 40s14 33 17 51c3 19 3 36 0 52s-9 30 -17 42s-18 21 -31 28s-27 10 -43 10c-15 0 -30 -3 -45 -10s-28 -16 -40 -28
s-22 -26 -30 -42s-13 -33 -16 -52c-3 -18 -3 -35 0 -50s9 -28 17 -39s18 -20 31 -26s27 -9 42 -9z" />
    <glyph glyph-name="OE" unicode="&#x152;" horiz-adv-x="1000" 
d="M474 131l67 414h-115c-25 0 -49 -5 -73 -16s-46 -26 -66 -45s-36 -41 -49 -66s-22 -52 -27 -81c-5 -28 -5 -54 0 -79s14 -47 27 -66s29 -34 48 -45s41 -16 65 -16h123zM316 -1l1 -3c-42 0 -80 9 -115 27s-64 42 -87 72s-39 66 -48 107s-10 85 -3 132s22 91 45 132
s51 77 83 108s68 55 108 73s81 27 123 27h593l-22 -136h-311l-21 -132h293l-21 -136h-293l-21 -135h314l-22 -136h-596z" />
    <glyph glyph-name="oe" unicode="&#x153;" horiz-adv-x="917" 
d="M674 392h-2c-27 0 -50 -9 -69 -27s-33 -41 -42 -70l188 8c-5 59 -30 89 -75 89zM272 119l-1 -2c16 0 31 3 46 9s28 15 40 26s22 24 30 40s14 33 17 51c3 19 3 36 0 52s-9 30 -17 42s-18 21 -31 28s-27 10 -43 10c-15 0 -30 -3 -45 -10s-28 -16 -40 -28s-22 -26 -30 -42
s-13 -33 -16 -52c-3 -18 -3 -35 0 -50s9 -28 17 -39s18 -20 31 -26s27 -9 42 -9zM839 78l-2 -5c-29 -30 -62 -53 -100 -69s-77 -24 -118 -24c-35 0 -67 7 -97 20s-55 32 -75 57c-27 -25 -57 -44 -91 -57s-69 -19 -106 -19c-33 0 -64 6 -93 18s-53 29 -73 51s-35 49 -44 81
s-10 68 -4 107c7 41 20 78 38 111s40 61 66 84s56 40 89 52s67 18 103 18c35 0 67 -6 96 -19s54 -31 74 -55c27 24 57 43 89 56s66 20 101 20c32 0 62 -6 89 -19s50 -32 68 -57s30 -56 37 -93s6 -79 -2 -127h-336c3 -29 14 -52 33 -68s44 -24 74 -24c21 0 40 4 57 11
s34 18 50 33z" />
    <glyph glyph-name="Racute" unicode="&#x154;" horiz-adv-x="664" 
d="M328 728l84 150h159l-115 -150h-128zM265 539l-30 -197h167c13 0 25 3 35 9s19 14 27 24s15 21 20 33s9 24 11 37c2 12 2 24 1 35s-4 21 -9 30s-11 16 -19 21s-18 8 -30 8h-173zM380 205l-166 -1l-33 -208h-144l107 675h340c31 0 57 -6 79 -19s40 -30 53 -51
s22 -45 27 -72s5 -54 0 -82c-7 -41 -21 -80 -42 -117s-48 -67 -81 -90l76 -243h-152z" />
    <glyph glyph-name="racute" unicode="&#x155;" horiz-adv-x="390" 
d="M185 552l84 150h159l-116 -150h-127zM29 0l78 493h100l18 -92c28 32 57 58 87 77s60 29 91 29l-22 -144c-35 0 -66 -8 -94 -23s-53 -34 -74 -57l-45 -283h-139z" />
    <glyph glyph-name="Rcommaaccent" unicode="&#x156;" horiz-adv-x="664" 
d="M265 539l-30 -197h167c13 0 25 3 35 9s19 14 27 24s15 21 20 33s9 24 11 37c2 12 2 24 1 35s-4 21 -9 30s-11 16 -19 21s-18 8 -30 8h-173zM380 205l-166 -1l-33 -208h-144l107 675h340c31 0 57 -6 79 -19s40 -30 53 -51s22 -45 27 -72s5 -54 0 -82
c-7 -41 -21 -80 -42 -117s-48 -67 -81 -90l76 -243h-152zM209 -335l2 -3c15 17 28 33 39 47s20 30 27 47c-23 1 -41 10 -55 27s-19 38 -15 63c4 24 16 45 35 62s41 26 65 26c23 0 41 -9 54 -28s17 -42 12 -70c-5 -35 -19 -69 -42 -103s-58 -66 -105 -97z" />
    <glyph glyph-name="rcommaaccent" unicode="&#x157;" horiz-adv-x="391" 
d="M29 0l78 493h100l18 -92c28 32 57 58 87 77s60 29 91 29l-22 -144c-35 0 -66 -8 -94 -23s-53 -34 -74 -57l-45 -283h-139zM-7 -333l2 -3c15 17 28 33 39 47s20 30 27 47c-23 1 -41 10 -55 27s-19 38 -15 63c4 24 16 45 35 62s41 26 65 26c23 0 41 -9 54 -28
s17 -42 12 -70c-5 -35 -19 -69 -42 -103s-58 -66 -105 -97z" />
    <glyph glyph-name="Rcaron" unicode="&#x158;" horiz-adv-x="664" 
d="M231 878h127l45 -99l76 99h128l-108 -150h-208zM265 539l-30 -197h167c13 0 25 3 35 9s19 14 27 24s15 21 20 33s9 24 11 37c2 12 2 24 1 35s-4 21 -9 30s-11 16 -19 21s-18 8 -30 8h-173zM380 205l-166 -1l-33 -208h-144l107 675h340c31 0 57 -6 79 -19s40 -30 53 -51
s22 -45 27 -72s5 -54 0 -82c-7 -41 -21 -80 -42 -117s-48 -67 -81 -90l76 -243h-152z" />
    <glyph glyph-name="rcaron" unicode="&#x159;" horiz-adv-x="391" 
d="M104 702h127l45 -98l76 98h128l-108 -150h-208zM29 0l78 493h100l18 -92c28 32 57 58 87 77s60 29 91 29l-22 -144c-35 0 -66 -8 -94 -23s-53 -34 -74 -57l-45 -283h-139z" />
    <glyph glyph-name="Sacute" unicode="&#x15a;" horiz-adv-x="614" 
d="M316 728l84 150h159l-115 -150h-128zM98 200l-4 -2c73 -49 146 -74 220 -74c23 0 44 6 63 19s30 29 33 48s-1 34 -13 45s-34 21 -66 30c-52 15 -93 31 -124 48s-54 35 -70 55s-25 40 -28 61s-3 43 0 66c4 25 13 49 26 72s31 43 53 61s47 32 76 42s62 15 98 15
c48 0 95 -6 140 -18s85 -34 120 -66l-73 -118c-29 19 -60 34 -93 45s-67 17 -103 17c-23 0 -43 -5 -59 -15s-25 -24 -28 -41c-1 -11 -1 -20 1 -28s7 -15 14 -21s17 -12 29 -17s28 -11 47 -17c46 -15 84 -30 113 -45s51 -31 66 -48s25 -36 29 -56s4 -43 0 -68
c-5 -30 -15 -57 -30 -82s-34 -46 -57 -64s-50 -32 -81 -42s-64 -15 -99 -15c-57 0 -107 8 -151 24s-86 40 -125 73z" />
    <glyph glyph-name="sacute" unicode="&#x15b;" horiz-adv-x="515" 
d="M247 552l84 150h159l-115 -150h-128zM73 170l-4 -5c36 -21 69 -36 99 -44s62 -12 95 -12c15 0 27 3 36 9s14 13 15 20c1 9 -2 16 -9 21s-18 9 -33 13c-42 10 -76 21 -102 33s-46 25 -60 39s-23 29 -27 45s-5 33 -3 51c3 23 10 45 21 65s26 38 45 53s42 27 69 35
s57 12 90 12c18 0 37 -1 56 -3s38 -5 56 -9s35 -9 51 -16s30 -15 41 -24l-63 -110c-18 11 -41 20 -69 26s-56 9 -84 9c-17 0 -32 -2 -44 -7s-19 -12 -20 -22c-1 -9 1 -16 7 -21s18 -9 35 -13c37 -9 69 -19 95 -30s47 -23 63 -36s27 -28 33 -45s8 -37 5 -60s-11 -44 -23 -63
s-28 -36 -48 -50s-43 -25 -70 -33s-56 -12 -88 -12c-46 0 -88 5 -126 16s-72 29 -103 54z" />
    <glyph glyph-name="Scircumflex" unicode="&#x15c;" horiz-adv-x="614" 
d="M410 827l-77 -99h-126l115 150h192l68 -150h-127zM98 200l-4 -2c73 -49 146 -74 220 -74c23 0 44 6 63 19s30 29 33 48s-1 34 -13 45s-34 21 -66 30c-52 15 -93 31 -124 48s-54 35 -70 55s-25 40 -28 61s-3 43 0 66c4 25 13 49 26 72s31 43 53 61s47 32 76 42
s62 15 98 15c48 0 95 -6 140 -18s85 -34 120 -66l-73 -118c-29 19 -60 34 -93 45s-67 17 -103 17c-23 0 -43 -5 -59 -15s-25 -24 -28 -41c-1 -11 -1 -20 1 -28s7 -15 14 -21s17 -12 29 -17s28 -11 47 -17c46 -15 84 -30 113 -45s51 -31 66 -48s25 -36 29 -56s4 -43 0 -68
c-5 -30 -15 -57 -30 -82s-34 -46 -57 -64s-50 -32 -81 -42s-64 -15 -99 -15c-57 0 -107 8 -151 24s-86 40 -125 73z" />
    <glyph glyph-name="scircumflex" unicode="&#x15d;" horiz-adv-x="515" 
d="M337 650l-76 -99h-127l107 150h209l60 -150h-128zM73 170l-4 -5c36 -21 69 -36 99 -44s62 -12 95 -12c15 0 27 3 36 9s14 13 15 20c1 9 -2 16 -9 21s-18 9 -33 13c-42 10 -76 21 -102 33s-46 25 -60 39s-23 29 -27 45s-5 33 -3 51c3 23 10 45 21 65s26 38 45 53
s42 27 69 35s57 12 90 12c18 0 37 -1 56 -3s38 -5 56 -9s35 -9 51 -16s30 -15 41 -24l-63 -110c-18 11 -41 20 -69 26s-56 9 -84 9c-17 0 -32 -2 -44 -7s-19 -12 -20 -22c-1 -9 1 -16 7 -21s18 -9 35 -13c37 -9 69 -19 95 -30s47 -23 63 -36s27 -28 33 -45s8 -37 5 -60
s-11 -44 -23 -63s-28 -36 -48 -50s-43 -25 -70 -33s-56 -12 -88 -12c-46 0 -88 5 -126 16s-72 29 -103 54z" />
    <glyph glyph-name="Scedilla" unicode="&#x15e;" horiz-adv-x="614" 
d="M98 200l-4 -2c73 -49 146 -74 220 -74c23 0 44 6 63 19s30 29 33 48s-1 34 -13 45s-34 21 -66 30c-52 15 -93 31 -124 48s-54 35 -70 55s-25 40 -28 61s-3 43 0 66c4 25 13 49 26 72s31 43 53 61s47 32 76 42s62 15 98 15c48 0 95 -6 140 -18s85 -34 120 -66l-73 -118
c-29 19 -60 34 -93 45s-67 17 -103 17c-23 0 -43 -5 -59 -15s-25 -24 -28 -41c-1 -11 -1 -20 1 -28s7 -15 14 -21s17 -12 29 -17s28 -11 47 -17c46 -15 84 -30 113 -45s51 -31 66 -48s25 -36 29 -56s4 -43 0 -68c-5 -30 -15 -57 -30 -82s-34 -46 -57 -64s-50 -32 -81 -42
s-64 -15 -99 -15c-57 0 -107 8 -151 24s-86 40 -125 73zM179 -333l3 -3c15 17 28 33 39 47s20 30 27 47c-24 1 -43 10 -56 27s-18 38 -15 63c4 24 16 45 35 62s41 26 65 26c23 0 41 -9 54 -28s17 -42 12 -70c-5 -35 -19 -69 -42 -103s-58 -66 -105 -97z" />
    <glyph glyph-name="scedilla" unicode="&#x15f;" horiz-adv-x="515" 
d="M73 170l-4 -5c36 -21 69 -36 99 -44s62 -12 95 -12c15 0 27 3 36 9s14 13 15 20c1 9 -2 16 -9 21s-18 9 -33 13c-42 10 -76 21 -102 33s-46 25 -60 39s-23 29 -27 45s-5 33 -3 51c3 23 10 45 21 65s26 38 45 53s42 27 69 35s57 12 90 12c18 0 37 -1 56 -3s38 -5 56 -9
s35 -9 51 -16s30 -15 41 -24l-63 -110c-18 11 -41 20 -69 26s-56 9 -84 9c-17 0 -32 -2 -44 -7s-19 -12 -20 -22c-1 -9 1 -16 7 -21s18 -9 35 -13c37 -9 69 -19 95 -30s47 -23 63 -36s27 -28 33 -45s8 -37 5 -60s-11 -44 -23 -63s-28 -36 -48 -50s-43 -25 -70 -33
s-56 -12 -88 -12c-46 0 -88 5 -126 16s-72 29 -103 54zM118 -336l2 -3c15 17 28 33 39 47s20 30 27 47c-23 1 -41 10 -55 27s-19 38 -15 63c4 24 16 45 35 62s41 26 65 26c23 0 41 -9 54 -28s17 -42 12 -70c-5 -35 -19 -69 -42 -103s-58 -66 -105 -97z" />
    <glyph glyph-name="Scaron" unicode="&#x160;" horiz-adv-x="614" 
d="M221 878h127l45 -99l76 99h128l-108 -150h-208zM98 200l-4 -2c73 -49 146 -74 220 -74c23 0 44 6 63 19s30 29 33 48s-1 34 -13 45s-34 21 -66 30c-52 15 -93 31 -124 48s-54 35 -70 55s-25 40 -28 61s-3 43 0 66c4 25 13 49 26 72s31 43 53 61s47 32 76 42s62 15 98 15
c48 0 95 -6 140 -18s85 -34 120 -66l-73 -118c-29 19 -60 34 -93 45s-67 17 -103 17c-23 0 -43 -5 -59 -15s-25 -24 -28 -41c-1 -11 -1 -20 1 -28s7 -15 14 -21s17 -12 29 -17s28 -11 47 -17c46 -15 84 -30 113 -45s51 -31 66 -48s25 -36 29 -56s4 -43 0 -68
c-5 -30 -15 -57 -30 -82s-34 -46 -57 -64s-50 -32 -81 -42s-64 -15 -99 -15c-57 0 -107 8 -151 24s-86 40 -125 73z" />
    <glyph glyph-name="scaron" unicode="&#x161;" horiz-adv-x="515" 
d="M154 702h127l45 -98l76 98h128l-108 -150h-208zM73 170l-4 -5c36 -21 69 -36 99 -44s62 -12 95 -12c15 0 27 3 36 9s14 13 15 20c1 9 -2 16 -9 21s-18 9 -33 13c-42 10 -76 21 -102 33s-46 25 -60 39s-23 29 -27 45s-5 33 -3 51c3 23 10 45 21 65s26 38 45 53
s42 27 69 35s57 12 90 12c18 0 37 -1 56 -3s38 -5 56 -9s35 -9 51 -16s30 -15 41 -24l-63 -110c-18 11 -41 20 -69 26s-56 9 -84 9c-17 0 -32 -2 -44 -7s-19 -12 -20 -22c-1 -9 1 -16 7 -21s18 -9 35 -13c37 -9 69 -19 95 -30s47 -23 63 -36s27 -28 33 -45s8 -37 5 -60
s-11 -44 -23 -63s-28 -36 -48 -50s-43 -25 -70 -33s-56 -12 -88 -12c-46 0 -88 5 -126 16s-72 29 -103 54z" />
    <glyph glyph-name="Tcedilla" unicode="&#x162;" 
d="M421 539l-85 -539h-143l85 539h-199l21 136h542l-22 -136h-199zM160 -332l-1 -3c16 17 29 33 40 47s20 30 27 47c-24 1 -43 10 -56 27s-18 38 -14 63c2 12 6 23 12 34s14 20 23 28s19 14 30 19s23 7 35 7c23 0 41 -9 54 -28s18 -42 14 -70c-5 -35 -19 -69 -42 -103
s-58 -66 -105 -97z" />
    <glyph glyph-name="tcedilla" unicode="&#x163;" horiz-adv-x="353" 
d="M283 -13v-2c-39 0 -73 5 -101 15s-51 24 -69 43s-30 41 -36 67s-6 55 -1 87l27 173h-48l20 124h48l19 119l146 45l-26 -164h94l-17 -109l-15 -15h-82l-26 -163c-5 -26 1 -47 17 -64s40 -25 71 -25zM65 -333l-1 -3c16 17 29 33 40 47s20 30 27 47c-24 1 -43 10 -56 27
s-18 38 -14 63c2 12 6 23 12 34s14 20 23 28s19 14 30 19s23 7 35 7c23 0 41 -9 54 -28s18 -42 14 -70c-5 -35 -19 -69 -42 -103s-58 -66 -105 -97z" />
    <glyph glyph-name="Tcaron" unicode="&#x164;" 
d="M214 878h127l45 -99l76 99h128l-107 -150h-209zM421 539l-85 -539h-143l85 539h-199l21 136h542l-22 -136h-199z" />
    <glyph glyph-name="tcaron" unicode="&#x165;" horiz-adv-x="518" 
d="M402 411v-2c17 17 31 33 42 47s20 31 27 50c-25 0 -44 9 -58 27s-19 40 -15 65s16 46 35 63s41 26 66 26c12 0 23 -3 33 -8s18 -12 24 -21s10 -20 12 -32s2 -25 0 -39c-5 -35 -19 -70 -42 -105s-58 -68 -106 -100zM283 -15v-2c-39 0 -73 5 -101 15s-51 24 -69 43
s-30 41 -36 67s-6 55 -1 87l27 173h-48l20 124h48l19 119l146 45l-26 -164h94l-17 -109l-15 -15h-82l-26 -163c-5 -26 1 -47 17 -64s40 -25 71 -25z" />
    <glyph glyph-name="Tbar" unicode="&#x166;" horiz-adv-x="596" 
d="M389 326l-51 -326h-144l52 326h-143l14 88h143l20 125h-200l22 136h541l-22 -136h-198l-20 -125h139l-14 -88h-139z" />
    <glyph glyph-name="tbar" unicode="&#x167;" horiz-adv-x="356" 
d="M286 -13l-2 -2c-39 0 -73 5 -101 15s-51 24 -68 43s-29 41 -35 67s-6 55 -1 87l4 25h-54l14 88h53l10 60h-48l19 124h49l18 119l146 45l-26 -164h95l-17 -109l-16 -15h-81l-10 -60h90l-14 -88h-90l-2 -15c-5 -26 1 -47 17 -64s40 -25 71 -25z" />
    <glyph glyph-name="Utilde" unicode="&#x168;" horiz-adv-x="694" 
d="M266 746l1 -3c4 23 10 43 19 60s19 31 30 42s23 19 35 25s24 9 35 9c16 0 30 -2 43 -6s25 -8 36 -13s22 -9 33 -13s23 -6 36 -6c8 0 16 2 23 6s12 12 15 23h48c-7 -45 -21 -79 -42 -103s-45 -36 -71 -36c-16 0 -31 2 -44 6s-26 8 -38 13s-24 9 -36 13s-24 6 -37 6
c-19 0 -31 -8 -36 -23h-50zM284 672l-60 -385c-9 -57 -4 -99 16 -126s54 -40 101 -40c39 0 73 14 102 41s48 69 57 126l61 382h143l-62 -395c-8 -48 -21 -90 -40 -127s-43 -67 -71 -91s-60 -42 -96 -55s-75 -19 -116 -19c-44 0 -83 6 -116 19s-60 32 -81 56s-35 55 -43 92
s-8 79 -1 127l63 395h143z" />
    <glyph glyph-name="utilde" unicode="&#x169;" horiz-adv-x="585" 
d="M182 574l1 -1c8 45 24 79 47 101s47 33 72 33c16 0 30 -2 43 -6s25 -8 36 -13s22 -9 33 -13s23 -6 36 -6c8 0 16 2 23 6s12 12 15 23h48c-7 -45 -20 -79 -40 -103s-45 -36 -75 -36c-16 0 -31 2 -44 6s-26 8 -38 13s-24 9 -36 13s-24 6 -37 6c-8 0 -15 -2 -21 -6
s-10 -10 -13 -17h-50zM390 74l-1 -1c-28 -30 -57 -52 -88 -66s-61 -21 -91 -21c-25 0 -48 4 -69 13s-39 23 -53 42s-24 43 -30 71s-6 62 0 101l45 282h139l-41 -260c-12 -72 13 -108 74 -108c19 0 37 5 55 14s36 22 53 39l50 314h139l-79 -495h-91z" />
    <glyph glyph-name="Umacron" unicode="&#x16a;" horiz-adv-x="694" 
d="M300 844h295l-17 -106h-295zM283 675l-60 -385c-9 -57 -4 -99 16 -126s54 -40 101 -40c39 0 73 14 102 41s48 69 57 126l61 382h143l-62 -395c-8 -48 -21 -90 -40 -127s-43 -67 -71 -91s-60 -42 -96 -55s-75 -19 -116 -19c-44 0 -83 6 -116 19s-60 32 -81 56
s-35 55 -43 92s-8 79 -1 127l63 395h143z" />
    <glyph glyph-name="umacron" unicode="&#x16b;" horiz-adv-x="585" 
d="M225 682h289l-17 -106h-290zM389 75l-1 -1c-28 -30 -57 -52 -88 -66s-61 -21 -91 -21c-25 0 -48 4 -69 13s-39 23 -53 42s-24 43 -30 71s-6 62 0 101l45 282h139l-41 -260c-12 -72 13 -108 74 -108c19 0 37 5 55 14s36 22 53 39l50 314h139l-79 -495h-91z" />
    <glyph glyph-name="Ubreve" unicode="&#x16c;" horiz-adv-x="694" 
d="M376 889h3c-1 -17 4 -32 15 -45s27 -20 48 -20s39 7 54 20s25 28 30 45h75c-13 -52 -34 -92 -63 -120s-66 -42 -111 -42c-46 0 -79 14 -100 42s-29 68 -24 120h73zM286 675l-60 -385c-9 -57 -4 -99 16 -126s54 -40 101 -40c39 0 73 14 102 41s48 69 57 126l61 382h143
l-62 -395c-8 -48 -21 -90 -40 -127s-43 -67 -71 -91s-60 -42 -96 -55s-75 -19 -116 -19c-44 0 -83 6 -116 19s-60 32 -81 56s-35 55 -43 92s-8 79 -1 127l63 395h143z" />
    <glyph glyph-name="ubreve" unicode="&#x16d;" horiz-adv-x="585" 
d="M298 713h3c-1 -17 4 -32 15 -45s27 -20 48 -20s39 7 54 20s25 28 30 45h75c-13 -52 -34 -92 -63 -120s-66 -42 -111 -42c-46 0 -79 14 -100 42s-29 68 -24 120h73zM392 75l-1 -1c-28 -30 -57 -52 -88 -66s-61 -21 -91 -21c-25 0 -48 4 -69 13s-39 23 -53 42
s-24 43 -30 71s-6 62 0 101l45 282h139l-41 -260c-12 -72 13 -108 74 -108c19 0 37 5 55 14s36 22 53 39l50 314h139l-79 -495h-91z" />
    <glyph glyph-name="Uring" unicode="&#x16e;" horiz-adv-x="694" 
d="M319 857l-2 -1c0 35 12 64 35 87s53 35 90 35s67 -11 90 -34s35 -52 35 -87c0 -37 -11 -67 -34 -91s-53 -36 -90 -36c-41 0 -72 12 -93 36s-31 54 -31 91zM443 804l-1 2c11 0 21 5 30 14s14 21 14 36s-5 27 -14 35s-19 12 -30 12c-13 0 -24 -4 -33 -13s-13 -21 -13 -36
c0 -17 5 -30 14 -38s20 -12 33 -12zM280 676l-60 -385c-9 -57 -4 -99 16 -126s54 -40 101 -40c39 0 73 14 102 41s48 69 57 126l61 382h143l-62 -395c-8 -48 -21 -90 -40 -127s-43 -67 -71 -91s-60 -42 -96 -55s-75 -19 -116 -19c-44 0 -83 6 -116 19s-60 32 -81 56
s-35 55 -43 92s-8 79 -1 127l63 395h143z" />
    <glyph glyph-name="uring" unicode="&#x16f;" horiz-adv-x="584" 
d="M228 677l-3 -2c0 35 12 64 35 87s54 35 92 35c18 0 35 -3 50 -9s28 -14 39 -25s20 -24 26 -39s9 -31 9 -48c0 -18 -3 -35 -9 -51s-15 -29 -26 -40s-24 -20 -39 -26s-31 -9 -49 -9c-42 0 -73 12 -94 36s-31 54 -31 91zM351 623v2c11 0 21 5 30 14s14 21 14 36
s-5 27 -14 35s-19 12 -30 12c-13 0 -24 -4 -33 -13s-13 -21 -13 -36c0 -17 4 -30 13 -38s20 -12 33 -12zM386 75l-1 -1c-28 -30 -57 -52 -88 -66s-61 -21 -91 -21c-25 0 -48 4 -69 13s-39 23 -53 42s-24 43 -30 71s-6 62 0 101l45 282h139l-41 -260c-12 -72 13 -108 74 -108
c19 0 37 5 55 14s36 22 53 39l50 314h139l-79 -495h-91z" />
    <glyph glyph-name="Uhungarumlaut" unicode="&#x170;" horiz-adv-x="694" 
d="M664 881l-92 -150h-112l61 150h143zM485 881l-91 -150h-113l61 150h143zM283 675l-60 -385c-9 -57 -4 -99 16 -126s54 -40 101 -40c39 0 73 14 102 41s48 69 57 126l61 382h143l-62 -395c-8 -48 -21 -90 -40 -127s-43 -67 -71 -91s-60 -42 -96 -55s-75 -19 -116 -19
c-44 0 -83 6 -116 19s-60 32 -81 56s-35 55 -43 92s-8 79 -1 127l63 395h143z" />
    <glyph glyph-name="uhungarumlaut" unicode="&#x171;" horiz-adv-x="585" 
d="M576 701l-92 -150h-112l61 150h143zM398 701l-92 -150h-112l60 150h144zM389 75l-1 -1c-28 -30 -57 -52 -88 -66s-61 -21 -91 -21c-25 0 -48 4 -69 13s-39 23 -53 42s-24 43 -30 71s-6 62 0 101l45 282h139l-41 -260c-12 -72 13 -108 74 -108c19 0 37 5 55 14
s36 22 53 39l50 314h139l-79 -495h-91z" />
    <glyph glyph-name="Uogonek" unicode="&#x172;" horiz-adv-x="694" 
d="M310 -194l3 -4c-37 0 -65 9 -84 26s-26 41 -21 72c3 18 9 34 18 49s21 28 35 39c-69 11 -120 41 -153 89s-43 115 -30 200l63 395h143l-60 -382c-9 -57 -4 -99 16 -126s54 -40 101 -40c39 0 73 14 102 41s48 69 57 126l61 382h143l-62 -395c-13 -83 -42 -149 -88 -197
s-102 -78 -169 -90c-28 -9 -48 -20 -59 -32s-18 -26 -21 -41c-1 -10 1 -18 7 -25s14 -10 25 -10c13 0 25 2 36 7s22 12 32 21l11 -71c-28 -23 -63 -34 -106 -34z" />
    <glyph glyph-name="uogonek" unicode="&#x173;" horiz-adv-x="586" 
d="M491 -163l-4 -5c-28 -23 -63 -34 -106 -34c-37 0 -65 9 -84 26s-26 41 -21 72c5 30 19 55 41 76s48 38 78 51l-8 49c-28 -30 -57 -52 -88 -66s-61 -21 -91 -21c-25 0 -48 4 -69 13s-39 23 -53 42s-24 43 -30 71s-6 62 0 101l45 282h139l-41 -260c-12 -72 13 -108 74 -108
c19 0 37 5 55 14s36 22 53 39l50 314h139l-79 -495c-39 -11 -67 -23 -83 -36s-25 -29 -28 -47c-1 -9 1 -17 7 -24s14 -11 25 -11c13 0 25 2 36 7s22 12 32 21l11 -71v0z" />
    <glyph glyph-name="Wcircumflex" unicode="&#x174;" horiz-adv-x="956" 
d="M575 827l-77 -99h-126l115 150h192l68 -150h-127zM92 675h150l49 -476l195 476h134l46 -480l197 480h150l-298 -675h-151l-41 478l-193 -478h-151z" />
    <glyph glyph-name="wcircumflex" unicode="&#x175;" horiz-adv-x="784" 
d="M460 650l-77 -99h-127l108 150h209l59 -150h-127zM49 495l148 -2l52 -331c53 96 97 207 131 332h111l49 -331c30 54 57 108 80 163s42 111 57 168h146c-62 -183 -151 -348 -267 -495h-102l-40 292c-18 -50 -39 -99 -64 -147s-53 -96 -85 -144h-105z" />
    <glyph glyph-name="Ycircumflex" unicode="&#x176;" horiz-adv-x="691" 
d="M441 827l-76 -99h-127l115 150h193l68 -150h-128zM385 0h-143l36 227l-190 448h155l124 -324l226 324h160l-332 -448z" />
    <glyph glyph-name="ycircumflex" unicode="&#x177;" horiz-adv-x="502" 
d="M311 650l-76 -99h-127l108 150h208l60 -150h-128zM-34 -102l-4 -2c21 2 41 8 60 18s37 22 53 36s31 30 45 47s26 34 36 50l-107 446h152l53 -308c29 50 55 101 78 153s42 104 58 156h152c-34 -89 -73 -172 -116 -250s-92 -155 -147 -230c-29 -39 -56 -74 -82 -105
s-52 -57 -79 -78s-54 -37 -82 -49s-58 -18 -91 -18z" />
    <glyph glyph-name="Ydieresis" unicode="&#x178;" horiz-adv-x="691" 
d="M310 733v-1c-24 0 -43 9 -57 26s-19 38 -15 63c2 12 6 23 12 34s14 20 23 28s19 14 30 19s23 7 35 7c23 0 41 -8 55 -25s19 -37 15 -61c-2 -13 -6 -25 -12 -36s-14 -20 -23 -28s-19 -14 -30 -19s-22 -7 -33 -7zM532 732v-1c-24 0 -43 9 -57 26s-19 38 -15 63
c2 12 6 23 12 34s14 20 23 28s19 14 30 19s23 7 35 7c22 0 40 -8 54 -25s19 -37 16 -61c-2 -13 -6 -25 -12 -36s-14 -20 -23 -28s-19 -14 -30 -19s-22 -7 -33 -7zM385 -2h-143l36 227l-190 448h155l124 -324l226 324h160l-332 -448z" />
    <glyph glyph-name="Zacute" unicode="&#x179;" horiz-adv-x="611" 
d="M313 728l84 150h159l-115 -150h-128zM16 0l16 101l386 438h-304l22 136h489l-16 -100l-392 -439h337l-22 -136h-516z" />
    <glyph glyph-name="zacute" unicode="&#x17a;" horiz-adv-x="500" 
d="M235 552l83 150h159l-115 -150h-127zM424 0l-1 -1c-133 14 -271 14 -413 0l19 122l261 241c-35 0 -69 1 -103 3s-68 5 -102 8l19 122c136 -13 266 -13 389 0l-19 -122l-260 -240c40 1 79 1 117 -1s75 -5 112 -10z" />
    <glyph glyph-name="Zdotaccent" unicode="&#x17b;" horiz-adv-x="611" 
d="M385 735l-1 -1c-23 0 -42 9 -56 26s-19 38 -15 63c2 12 6 23 12 34s14 20 23 28s19 14 30 19s23 7 35 7c23 0 41 -8 55 -25s19 -37 15 -61c-2 -13 -6 -25 -12 -36s-14 -20 -23 -28s-19 -14 -30 -19s-22 -7 -33 -7zM15 -1l16 101l386 438h-304l22 136h489l-16 -100
l-392 -439h337l-22 -136h-516z" />
    <glyph glyph-name="zdotaccent" unicode="&#x17c;" horiz-adv-x="500" 
d="M308 562v-1c-24 0 -43 9 -57 26s-19 38 -15 63c2 12 6 23 12 34s14 20 23 28s19 14 30 19s23 7 35 7c22 0 40 -8 54 -25s19 -37 15 -61c-2 -13 -6 -25 -12 -36s-13 -20 -22 -28s-19 -14 -30 -19s-22 -7 -33 -7zM424 -1l-1 -1c-133 14 -271 14 -413 0l19 122l261 241
c-35 0 -69 1 -103 3s-68 5 -102 8l19 122c136 -13 266 -13 389 0l-19 -122l-260 -240c40 1 79 1 117 -1s75 -5 112 -10z" />
    <glyph glyph-name="Zcaron" unicode="&#x17d;" horiz-adv-x="611" 
d="M218 878h127l45 -99l76 99h128l-107 -150h-209zM16 0l16 101l386 438h-304l22 136h489l-16 -100l-392 -439h337l-22 -136h-516z" />
    <glyph glyph-name="zcaron" unicode="&#x17e;" horiz-adv-x="500" 
d="M142 703h127l45 -99l76 99h128l-108 -150h-208zM424 0l-1 -1c-133 14 -271 14 -413 0l19 122l261 241c-35 0 -69 1 -103 3s-68 5 -102 8l19 122c136 -13 266 -13 389 0l-19 -122l-260 -240c40 1 79 1 117 -1s75 -5 112 -10z" />
    <glyph glyph-name="longs" unicode="&#x17f;" horiz-adv-x="303" 
d="M-50 -116h-1c28 0 48 6 59 19s18 28 21 45l67 425h-35l19 122h36l5 33c11 68 38 116 80 144s100 42 173 42l-33 -122c-28 0 -48 -6 -59 -18s-18 -27 -21 -46l-92 -580c-11 -68 -38 -116 -80 -144s-99 -42 -172 -42z" />
    <glyph glyph-name="Schwa" unicode="&#x18f;" horiz-adv-x="745" 
d="M337 -13l-3 -4c-45 0 -87 10 -126 29s-72 46 -98 80s-44 76 -53 125s-6 104 9 164h514c-1 23 -6 45 -14 65s-19 37 -33 52s-30 27 -49 35s-39 12 -61 12c-24 0 -47 -4 -70 -13s-44 -22 -63 -39l-83 102c34 29 71 51 112 67s83 24 127 24c47 0 89 -9 127 -27
s70 -43 95 -75s43 -69 54 -112s13 -88 5 -136c-7 -49 -22 -94 -46 -136s-53 -79 -88 -111s-74 -57 -118 -75s-90 -27 -138 -27zM356 123l-1 -3c21 0 41 4 61 11s39 17 56 30s33 28 48 46s27 38 36 59h-356c3 -23 9 -44 19 -62s22 -33 36 -45s30 -21 47 -27s35 -9 54 -9z" />
    <glyph glyph-name="florin" unicode="&#x192;" horiz-adv-x="296" 
d="M-50 -116c28 0 48 6 60 19s19 28 22 45l68 425h-41l20 122h40l5 33c11 68 38 116 81 144s101 42 174 42l-33 -122c-28 0 -48 -6 -60 -18s-19 -27 -22 -46l-5 -33h76l-6 -36l-22 -86h-68l-67 -425c-11 -68 -38 -116 -81 -144s-101 -42 -174 -42z" />
    <glyph glyph-name="DZcaron" unicode="&#x1c4;" horiz-adv-x="1316" 
d="M265 539l-64 -403h129c25 0 49 5 72 16s44 26 63 44s35 40 48 65s22 51 27 78c4 27 4 53 0 77s-12 45 -24 63s-27 33 -45 44s-38 16 -60 16h-146zM143 675l290 3c43 0 82 -9 116 -27s63 -42 86 -72s39 -66 48 -107s10 -85 3 -132s-21 -91 -43 -132s-49 -77 -81 -108
s-67 -55 -106 -73s-79 -27 -121 -27h-299zM923 881h127l45 -99l76 99h128l-107 -150h-209zM721 3l16 101l386 438h-304l22 136h489l-16 -100l-392 -439h337l-22 -136h-516z" />
    <glyph glyph-name="Dzcaron" unicode="&#x1c5;" horiz-adv-x="1185" 
d="M828 699h127l45 -99l77 99h127l-107 -150h-209zM265 539l-64 -403h129c25 0 49 5 72 16s44 26 63 44s35 40 48 65s22 51 27 78c4 27 4 53 0 77s-12 45 -24 63s-27 33 -45 44s-38 16 -60 16h-146zM1109 0v-1c-133 14 -271 14 -413 0l19 122l261 241c-35 0 -69 1 -103 3
s-68 5 -102 8l19 122c135 -13 265 -13 389 0l-20 -122l-260 -240c40 1 79 1 117 -1s75 -5 112 -10zM143 674l290 3c43 0 82 -9 116 -27s63 -42 86 -72s39 -66 48 -107s10 -85 3 -132s-21 -91 -43 -132s-49 -77 -81 -108s-67 -55 -106 -73s-79 -27 -121 -27h-299z" />
    <glyph glyph-name="dzcaron" unicode="&#x1c6;" horiz-adv-x="1088" 
d="M734 702h127l45 -98l76 98h128l-108 -150h-208zM1012 0l-1 -1c-133 14 -271 14 -413 0l19 122l261 241c-35 0 -69 1 -103 3s-68 5 -102 8l19 122c136 -13 266 -13 389 0l-19 -122l-260 -240c40 1 79 1 117 -1s75 -5 112 -10zM276 118l-2 -3c16 0 31 3 46 10s28 16 40 28
s22 26 30 42s14 33 17 52c6 37 0 67 -18 91s-43 36 -76 36c-17 0 -32 -3 -46 -9s-27 -15 -38 -27s-21 -25 -29 -40s-13 -32 -16 -50c-5 -36 0 -67 16 -92s41 -38 76 -38zM406 49l3 -2c-25 -20 -52 -36 -81 -48s-58 -18 -87 -18c-33 0 -63 6 -90 19s-50 31 -68 54
s-31 51 -39 83s-9 68 -3 107s17 74 33 106s36 59 60 82s51 41 82 53s64 18 99 18c25 0 48 -4 68 -12s38 -19 54 -32l6 75l29 176h138l-113 -714h-79z" />
    <glyph glyph-name="LJ" unicode="&#x1c7;" horiz-adv-x="1089" 
d="M143 675h144l-86 -539h301l-21 -136h-445zM782 -13h-2c-57 0 -104 10 -141 31s-68 49 -93 85l97 94c17 -19 35 -35 54 -48s44 -19 75 -19c27 0 51 9 72 27s35 47 41 86l69 433h143l-70 -443c-7 -45 -19 -83 -35 -114s-35 -56 -57 -76s-46 -34 -72 -43s-53 -13 -81 -13z
" />
    <glyph glyph-name="Lj" unicode="&#x1c8;" horiz-adv-x="810" 
d="M143 675h144l-86 -539h301l-21 -136h-445zM737 566l-1 -1c-25 0 -44 9 -58 26s-19 38 -15 63c4 24 16 45 35 62s41 26 66 26c23 0 41 -8 55 -25s19 -37 16 -61c-2 -13 -6 -25 -12 -36s-14 -20 -23 -28s-19 -14 -30 -19s-22 -7 -33 -7zM711 -23l-2 -2
c-5 -32 -15 -61 -29 -87s-32 -48 -54 -66s-48 -32 -77 -42s-61 -15 -96 -15l21 132c12 0 23 2 34 6s21 10 30 17s16 16 22 26s10 21 12 33l81 515h140z" />
    <glyph glyph-name="lj" unicode="&#x1c9;" horiz-adv-x="522" 
d="M449 566l-1 -2c-24 0 -43 9 -57 26s-19 38 -15 63c2 12 6 23 12 34s14 20 23 28s19 14 30 19s23 7 35 7c23 0 41 -8 55 -25s19 -37 15 -61c-4 -25 -15 -46 -34 -63s-40 -26 -63 -26zM141 712h139l-113 -714h-139zM423 -24l-1 -2c-5 -32 -15 -61 -29 -87s-32 -48 -54 -66
s-48 -32 -77 -42s-61 -15 -96 -15l21 132c12 0 23 2 34 6s21 10 30 17s16 16 22 26s10 21 11 33l82 515h139z" />
    <glyph glyph-name="NJ" unicode="&#x1ca;" horiz-adv-x="1264" 
d="M252 455l-72 -455h-144l107 675h144l224 -455l72 455h144l-107 -675h-144zM957 -13h-2c-57 0 -104 10 -141 31s-68 49 -93 85l97 94c17 -19 35 -35 54 -48s44 -19 75 -19c27 0 51 9 72 27s35 47 41 86l69 433h143l-70 -443c-7 -45 -19 -83 -35 -114s-35 -56 -57 -76
s-46 -34 -72 -43s-53 -13 -81 -13z" />
    <glyph glyph-name="Nj" unicode="&#x1cb;" horiz-adv-x="985" 
d="M252 455l-72 -455h-144l107 675h144l224 -455l72 455h144l-107 -675h-144zM912 566l-1 -1c-25 0 -44 9 -58 26s-19 38 -15 63c4 24 16 45 35 62s41 26 66 26c23 0 41 -8 55 -25s19 -37 16 -61c-2 -13 -6 -25 -12 -36s-14 -20 -23 -28s-19 -14 -30 -19s-22 -7 -33 -7z
M886 -23l-2 -2c-5 -32 -15 -61 -29 -87s-32 -48 -54 -66s-48 -32 -77 -42s-61 -15 -96 -15l21 132c12 0 23 2 34 6s21 10 30 17s16 16 22 26s10 21 12 33l81 515h140z" />
    <glyph glyph-name="nj" unicode="&#x1cc;" horiz-adv-x="850" 
d="M777 566v-1c-24 0 -43 9 -57 26s-19 38 -15 63c4 24 16 45 35 62s41 26 65 26c23 0 41 -8 55 -25s19 -37 15 -61c-2 -13 -6 -25 -12 -36s-14 -20 -23 -28s-19 -14 -30 -19s-22 -7 -33 -7zM752 -23l-2 -2c-5 -32 -15 -61 -29 -87s-32 -48 -54 -66s-48 -32 -77 -42
s-61 -15 -96 -15l22 132c12 0 23 2 34 6s21 10 30 17s16 16 22 26s10 21 11 33l82 515h139zM330 365v-1c-19 0 -38 -5 -57 -15s-38 -23 -57 -40l-50 -313h-139l79 495h91l12 -75c28 30 58 52 89 66s62 21 92 21c25 0 48 -4 70 -12s40 -20 55 -37s26 -38 32 -64s6 -57 0 -93
l-48 -301h-139l42 269c5 35 1 60 -13 76s-34 24 -59 24z" />
    <glyph glyph-name="Acaron" unicode="&#x1cd;" horiz-adv-x="685" 
d="M255 878h127l45 -99l76 99h128l-107 -150h-209zM393 513l-125 -245h173zM467 132h-269l-67 -132h-153l363 675h152l149 -675h-150z" />
    <glyph glyph-name="acaron" unicode="&#x1ce;" 
d="M168 702h127l45 -98l76 98h128l-108 -150h-208zM279 119l-4 3c15 0 30 3 44 9s27 15 39 26s22 25 30 41s14 33 17 52c3 18 3 35 0 51s-9 30 -17 41s-18 20 -30 27s-26 10 -41 10c-16 0 -31 -3 -46 -10s-29 -16 -41 -28s-22 -26 -30 -42s-13 -33 -16 -51s-3 -35 1 -51
s10 -30 18 -42s19 -21 32 -27s28 -9 44 -9zM402 65l2 -3c-25 -21 -52 -39 -81 -53s-59 -21 -90 -21c-32 0 -61 6 -87 19s-48 31 -66 54s-31 50 -39 82s-9 67 -3 106s18 74 36 106s40 60 66 83s54 41 85 54s63 19 96 19c29 0 56 -6 81 -18s47 -28 66 -48l27 53h79l-79 -495
h-78z" />
    <glyph glyph-name="Icaron" unicode="&#x1cf;" horiz-adv-x="280" 
d="M59 878h127l45 -99l77 99h127l-107 -150h-209zM143 675h144l-107 -675h-144z" />
    <glyph glyph-name="icaron" unicode="&#x1d0;" horiz-adv-x="264" 
d="M18 702h127l45 -98l77 98h127l-107 -150h-209zM109 495h139l-79 -495h-139z" />
    <glyph glyph-name="Ocaron" unicode="&#x1d1;" horiz-adv-x="750" 
d="M291 878h127l45 -99l76 99h128l-107 -150h-209zM345 -13l-1 -1c-47 0 -90 9 -128 27s-70 43 -96 75s-44 69 -55 111s-12 88 -4 137c8 48 23 93 46 136s52 80 86 112s73 57 117 75s91 27 141 27c47 0 89 -9 127 -27s70 -43 95 -75s43 -69 54 -112s13 -88 6 -136
c-8 -49 -24 -94 -48 -136s-53 -79 -88 -111s-74 -57 -117 -75s-88 -27 -135 -27zM362 126l1 -1c26 0 51 6 75 17s46 26 66 45s37 41 51 67s23 53 28 82s4 56 -2 82s-16 48 -30 67s-31 34 -52 45s-44 17 -70 17c-25 0 -50 -6 -75 -17s-47 -26 -67 -45s-37 -41 -51 -67
s-23 -53 -28 -82s-4 -56 2 -82s16 -48 30 -67s32 -34 53 -45s44 -16 69 -16z" />
    <glyph glyph-name="ocaron" unicode="&#x1d2;" horiz-adv-x="577" 
d="M169 702h127l45 -98l77 98h127l-107 -150h-209zM254 -13l-2 -3c-33 0 -64 6 -93 18s-53 29 -73 51s-35 49 -44 81s-10 68 -4 107c7 41 20 78 38 111s40 61 66 84s56 40 89 52s67 18 103 18c34 0 66 -6 95 -19s53 -31 73 -54s34 -51 43 -83s10 -68 4 -107
s-18 -74 -36 -106s-40 -59 -67 -81s-57 -39 -90 -51s-67 -18 -102 -18zM272 116l-1 -2c16 0 31 3 46 9s28 15 40 26s22 24 30 40s14 33 17 51c3 19 3 36 0 52s-9 30 -17 42s-18 21 -31 28s-27 10 -43 10c-15 0 -30 -3 -45 -10s-28 -16 -40 -28s-22 -26 -30 -42
s-13 -33 -16 -52c-3 -18 -3 -35 0 -50s9 -28 17 -39s18 -20 31 -26s27 -9 42 -9z" />
    <glyph glyph-name="Ucaron" unicode="&#x1d3;" horiz-adv-x="694" 
d="M256 878h127l45 -99l76 99h128l-107 -150h-209zM283 675l-60 -385c-9 -57 -4 -99 16 -126s54 -40 101 -40c39 0 73 14 102 41s48 69 57 126l61 382h143l-62 -395c-8 -48 -21 -90 -40 -127s-43 -67 -71 -91s-60 -42 -96 -55s-75 -19 -116 -19c-44 0 -83 6 -116 19
s-60 32 -81 56s-35 55 -43 92s-8 79 -1 127l63 395h143z" />
    <glyph glyph-name="ucaron" unicode="&#x1d4;" horiz-adv-x="585" 
d="M180 702h128l45 -98l76 98h127l-107 -150h-209zM389 75l-1 -1c-28 -30 -57 -52 -88 -66s-61 -21 -91 -21c-25 0 -48 4 -69 13s-39 23 -53 42s-24 43 -30 71s-6 62 0 101l45 282h139l-41 -260c-12 -72 13 -108 74 -108c19 0 37 5 55 14s36 22 53 39l50 314h139l-79 -495
h-91z" />
    <glyph glyph-name="Udieresismacron" unicode="&#x1d5;" horiz-adv-x="694" 
d="M324 1024h296l-17 -106h-296zM313 707v-1c-24 0 -43 9 -57 26s-19 38 -15 63c2 12 6 23 12 34s14 20 23 28s19 14 30 19s23 7 35 7c23 0 41 -8 55 -25s19 -37 15 -61c-2 -13 -6 -25 -12 -36s-14 -20 -23 -28s-19 -14 -30 -19s-22 -7 -33 -7zM535 706v-1
c-24 0 -43 9 -57 26s-19 38 -15 63c2 12 6 23 12 34s14 20 23 28s19 14 30 19s23 7 35 7c22 0 40 -8 54 -25s19 -37 16 -61c-2 -13 -6 -25 -12 -36s-14 -20 -23 -28s-19 -14 -30 -19s-22 -7 -33 -7zM283 673l-60 -385c-9 -57 -4 -99 16 -126s54 -40 101 -40
c39 0 73 14 102 41s48 69 57 126l61 382h143l-62 -395c-8 -48 -21 -90 -40 -127s-43 -67 -71 -91s-60 -42 -96 -55s-75 -19 -116 -19c-44 0 -83 6 -116 19s-60 32 -81 56s-35 55 -43 92s-8 79 -1 127l63 395h143z" />
    <glyph glyph-name="udieresismacron" unicode="&#x1d6;" horiz-adv-x="585" 
d="M242 844h289l-17 -106h-290zM238 529v-1c-24 0 -43 9 -57 26s-19 38 -15 63c4 24 16 45 35 62s41 26 65 26c22 0 40 -8 54 -25s19 -37 16 -61c-2 -13 -6 -25 -12 -36s-14 -20 -23 -28s-19 -14 -30 -19s-22 -7 -33 -7zM455 528v-1c-24 0 -43 9 -57 26s-19 38 -15 63
c4 24 16 45 35 62s41 26 65 26c22 0 40 -8 54 -25s19 -37 16 -61c-2 -13 -6 -25 -12 -36s-14 -20 -23 -28s-19 -14 -30 -19s-22 -7 -33 -7zM389 73l-1 -1c-28 -30 -57 -52 -88 -66s-61 -21 -91 -21c-25 0 -48 4 -69 13s-39 23 -53 42s-24 43 -30 71s-6 62 0 101l45 282h139
l-41 -260c-12 -72 13 -108 74 -108c19 0 37 5 55 14s36 22 53 39l50 314h139l-79 -495h-91z" />
    <glyph glyph-name="Udieresisacute" unicode="&#x1d7;" horiz-adv-x="694" 
d="M386 916l85 150h159l-116 -150h-128zM315 707l1 -1c-24 0 -43 9 -57 26s-19 38 -15 63c4 24 16 45 35 62s41 26 65 26c22 0 40 -8 54 -25s19 -37 15 -61c-2 -13 -6 -25 -12 -36s-14 -20 -23 -28s-19 -14 -30 -19s-22 -7 -33 -7zM537 706l-1 -1c-23 0 -42 9 -56 26
s-19 38 -15 63c2 12 6 23 12 34s14 20 23 28s19 14 30 19s23 7 35 7c23 0 41 -8 55 -25s19 -37 15 -61c-2 -13 -6 -25 -12 -36s-14 -20 -23 -28s-19 -14 -30 -19s-22 -7 -33 -7zM283 673l-60 -385c-9 -57 -4 -99 16 -126s54 -40 101 -40c39 0 73 14 102 41s48 69 57 126
l61 382h143l-62 -395c-8 -48 -21 -90 -40 -127s-43 -67 -71 -91s-60 -42 -96 -55s-75 -19 -116 -19c-44 0 -83 6 -116 19s-60 32 -81 56s-35 55 -43 92s-8 79 -1 127l63 395h143z" />
    <glyph glyph-name="udieresisacute" unicode="&#x1d8;" horiz-adv-x="585" 
d="M307 723l83 150h159l-115 -150h-127zM237 529v-1c-24 0 -43 9 -57 26s-19 38 -15 63c2 12 6 23 12 34s14 20 23 28s19 14 30 19s23 7 35 7c23 0 41 -8 55 -25s19 -37 15 -61c-2 -13 -6 -25 -12 -36s-14 -20 -23 -28s-19 -14 -30 -19s-22 -7 -33 -7zM454 528l-1 -1
c-23 0 -42 9 -56 26s-19 38 -15 63c2 12 6 23 12 34s14 20 23 28s19 14 30 19s23 7 35 7c23 0 41 -8 55 -25s19 -37 15 -61c-2 -13 -6 -25 -12 -36s-14 -20 -23 -28s-19 -14 -30 -19s-22 -7 -33 -7zM388 73l-1 -1c-28 -30 -57 -52 -88 -66s-61 -21 -91 -21
c-25 0 -48 4 -69 13s-39 23 -53 42s-24 43 -30 71s-6 62 0 101l45 282h139l-41 -260c-12 -72 13 -108 74 -108c19 0 37 5 55 14s36 22 53 39l50 314h139l-79 -495h-91z" />
    <glyph glyph-name="Udieresiscaron" unicode="&#x1d9;" horiz-adv-x="694" 
d="M298 1066h127l45 -98l77 98h127l-107 -150h-209zM320 707l1 -1c-24 0 -43 9 -57 26s-19 38 -15 63c4 24 16 45 35 62s41 26 65 26c22 0 40 -8 54 -25s19 -37 15 -61c-2 -13 -6 -25 -12 -36s-14 -20 -23 -28s-19 -14 -30 -19s-22 -7 -33 -7zM542 706l-1 -1
c-23 0 -42 9 -56 26s-19 38 -15 63c2 12 6 23 12 34s14 20 23 28s19 14 30 19s23 7 35 7c23 0 41 -8 55 -25s19 -37 15 -61c-2 -13 -6 -25 -12 -36s-14 -20 -23 -28s-19 -14 -30 -19s-22 -7 -33 -7zM283 673l-60 -385c-9 -57 -4 -99 16 -126s54 -40 101 -40
c39 0 73 14 102 41s48 69 57 126l61 382h143l-62 -395c-8 -48 -21 -90 -40 -127s-43 -67 -71 -91s-60 -42 -96 -55s-75 -19 -116 -19c-44 0 -83 6 -116 19s-60 32 -81 56s-35 55 -43 92s-8 79 -1 127l63 395h143z" />
    <glyph glyph-name="udieresiscaron" unicode="&#x1da;" horiz-adv-x="585" 
d="M217 888h127l45 -99l76 99h128l-108 -150h-208zM238 529v-1c-24 0 -43 9 -57 26s-19 38 -15 63c4 24 16 45 35 62s41 26 65 26c22 0 40 -8 54 -25s19 -37 16 -61c-2 -13 -6 -25 -12 -36s-14 -20 -23 -28s-19 -14 -30 -19s-22 -7 -33 -7zM455 528v-1c-24 0 -43 9 -57 26
s-19 38 -15 63c4 24 16 45 35 62s41 26 65 26c22 0 40 -8 54 -25s19 -37 16 -61c-2 -13 -6 -25 -12 -36s-14 -20 -23 -28s-19 -14 -30 -19s-22 -7 -33 -7zM389 73l-1 -1c-28 -30 -57 -52 -88 -66s-61 -21 -91 -21c-25 0 -48 4 -69 13s-39 23 -53 42s-24 43 -30 71
s-6 62 0 101l45 282h139l-41 -260c-12 -72 13 -108 74 -108c19 0 37 5 55 14s36 22 53 39l50 314h139l-79 -495h-91z" />
    <glyph glyph-name="Udieresisgrave" unicode="&#x1db;" horiz-adv-x="694" 
d="M322 1065h159l37 -150h-128zM313 707v-1c-24 0 -43 9 -57 26s-19 38 -15 63c2 12 6 23 12 34s14 20 23 28s19 14 30 19s23 7 35 7c22 0 40 -8 54 -25s19 -37 15 -61c-2 -13 -6 -25 -12 -36s-13 -20 -22 -28s-19 -14 -30 -19s-22 -7 -33 -7zM534 706l-1 -1
c-23 0 -42 9 -56 26s-19 38 -15 63c2 12 6 23 12 34s14 20 23 28s19 14 30 19s23 7 35 7c23 0 41 -8 55 -25s19 -37 15 -61c-2 -13 -6 -25 -12 -36s-14 -20 -23 -28s-19 -14 -30 -19s-22 -7 -33 -7zM282 673l-60 -385c-9 -57 -4 -99 16 -126s54 -40 101 -40
c39 0 73 14 102 41s48 69 57 126l61 382h143l-62 -395c-8 -48 -21 -90 -40 -127s-43 -67 -71 -91s-60 -42 -96 -55s-75 -19 -116 -19c-44 0 -83 6 -116 19s-60 32 -81 56s-35 55 -43 92s-8 79 -1 127l63 395h143z" />
    <glyph glyph-name="udieresisgrave" unicode="&#x1dc;" horiz-adv-x="585" 
d="M235 871h159l36 -150h-127zM231 529v-1c-24 0 -43 9 -57 26s-19 38 -15 63c4 24 16 45 35 62s41 26 65 26c22 0 40 -8 54 -25s19 -37 16 -61c-2 -13 -6 -25 -12 -36s-14 -20 -23 -28s-19 -14 -30 -19s-22 -7 -33 -7zM448 528v-1c-24 0 -43 9 -57 26s-19 38 -15 63
c4 24 16 45 35 62s41 26 65 26c22 0 40 -8 54 -25s19 -37 16 -61c-2 -13 -6 -25 -12 -36s-14 -20 -23 -28s-19 -14 -30 -19s-22 -7 -33 -7zM389 73l-1 -1c-28 -30 -57 -52 -88 -66s-61 -21 -91 -21c-25 0 -48 4 -69 13s-39 23 -53 42s-24 43 -30 71s-6 62 0 101l45 282h139
l-41 -260c-12 -72 13 -108 74 -108c19 0 37 5 55 14s36 22 53 39l50 314h139l-79 -495h-91z" />
    <glyph glyph-name="Oogonek" unicode="&#x1ea;" horiz-adv-x="750" 
d="M311 -201l-2 -4c-37 0 -65 9 -85 26s-27 41 -22 72c3 21 11 40 23 56s27 30 44 42c-37 9 -70 24 -99 45s-53 47 -72 77s-32 64 -40 102s-8 78 -1 120c8 48 23 93 46 136s52 80 86 112s73 57 117 75s91 27 141 27c47 0 89 -9 127 -27s70 -43 95 -75s43 -69 54 -112
s13 -88 6 -136c-7 -43 -20 -84 -40 -123s-44 -73 -73 -103s-62 -55 -98 -76s-74 -35 -115 -42c-35 -10 -59 -21 -73 -34s-22 -28 -25 -45c-1 -9 1 -17 7 -24s14 -11 25 -11c25 0 48 9 68 27l12 -71c-29 -23 -64 -34 -106 -34zM361 123l1 -1c26 0 51 6 75 17s46 26 66 45
s37 41 51 67s23 53 28 82s4 56 -2 82s-16 48 -30 67s-31 34 -52 45s-44 17 -70 17c-25 0 -50 -6 -75 -17s-47 -26 -67 -45s-37 -41 -51 -67s-23 -53 -28 -82s-4 -56 2 -82s16 -48 30 -67s32 -34 53 -45s44 -16 69 -16z" />
    <glyph glyph-name="oogonek" unicode="&#x1eb;" horiz-adv-x="577" 
d="M217 -201l-3 -4c-37 0 -65 9 -85 26s-27 41 -22 72c3 22 11 41 24 58s29 32 48 45c-24 7 -46 18 -66 33s-36 33 -49 54s-22 45 -27 72s-5 56 0 87c7 41 20 78 38 111s40 61 66 84s56 40 89 52s67 18 103 18c34 0 66 -6 95 -19s53 -31 73 -54s34 -51 43 -83s10 -68 4 -107
c-5 -33 -15 -64 -29 -92s-32 -53 -53 -75s-45 -40 -72 -54s-55 -24 -84 -30c-35 -11 -60 -23 -74 -36s-22 -28 -25 -45c-1 -9 1 -17 7 -24s14 -11 25 -11c25 0 48 9 68 27l12 -71c-29 -23 -64 -34 -106 -34zM271 115l-1 -2c16 0 31 3 46 9s28 15 40 26s22 24 30 40
s14 33 17 51c3 19 3 36 0 52s-9 30 -17 42s-18 21 -31 28s-27 10 -43 10c-15 0 -30 -3 -45 -10s-28 -16 -40 -28s-22 -26 -30 -42s-13 -33 -16 -52c-3 -18 -3 -35 0 -50s9 -28 17 -39s18 -20 31 -26s27 -9 42 -9z" />
    <glyph glyph-name="DZ" unicode="&#x1f1;" horiz-adv-x="1312" 
d="M265 539l-64 -403h129c25 0 49 5 72 16s44 26 63 44s35 40 48 65s22 51 27 78c4 27 4 53 0 77s-12 45 -24 63s-27 33 -45 44s-38 16 -60 16h-146zM143 675l290 3c43 0 82 -9 116 -27s63 -42 86 -72s39 -66 48 -107s10 -85 3 -132s-21 -91 -43 -132s-49 -77 -81 -108
s-67 -55 -106 -73s-79 -27 -121 -27h-299zM717 3l16 101l386 438h-304l22 136h489l-16 -100l-392 -439h337l-22 -136h-516z" />
    <glyph glyph-name="Dz" unicode="&#x1f2;" horiz-adv-x="1188" 
d="M265 539l-64 -403h129c25 0 49 5 72 16s44 26 63 44s35 40 48 65s22 51 27 78c4 27 4 53 0 77s-12 45 -24 63s-27 33 -45 44s-38 16 -60 16h-146zM1111 0l-1 -1c-133 14 -271 14 -413 0l19 122l261 241c-35 0 -69 1 -103 3s-68 5 -102 8l19 122c136 -13 266 -13 389 0
l-19 -122l-260 -240c40 1 79 1 117 -1s75 -5 112 -10zM142 674l290 3c43 0 82 -9 116 -27s63 -42 86 -72s39 -66 48 -107s10 -85 3 -132s-21 -91 -43 -132s-49 -77 -81 -108s-67 -55 -106 -73s-79 -27 -121 -27h-299z" />
    <glyph glyph-name="dz" unicode="&#x1f3;" horiz-adv-x="1088" 
d="M1012 0l-1 -1c-133 14 -271 14 -413 0l19 122l261 241c-35 0 -69 1 -103 3s-68 5 -102 8l19 122c136 -13 266 -13 389 0l-19 -122l-260 -240c40 1 79 1 117 -1s75 -5 112 -10zM276 118l-2 -3c16 0 31 3 46 10s28 16 40 28s22 26 30 42s14 33 17 52c6 37 0 67 -18 91
s-43 36 -76 36c-17 0 -32 -3 -46 -9s-27 -15 -38 -27s-21 -25 -29 -40s-13 -32 -16 -50c-5 -36 0 -67 16 -92s41 -38 76 -38zM406 49l3 -2c-25 -20 -52 -36 -81 -48s-58 -18 -87 -18c-33 0 -63 6 -90 19s-50 31 -68 54s-31 51 -39 83s-9 68 -3 107s17 74 33 106s36 59 60 82
s51 41 82 53s64 18 99 18c25 0 48 -4 68 -12s38 -19 54 -32l6 75l29 176h138l-113 -714h-79z" />
    <glyph glyph-name="Gacute" unicode="&#x1f4;" horiz-adv-x="715" 
d="M392 728l84 150h159l-115 -150h-128zM631 85l-1 -5c-16 -15 -35 -29 -56 -41s-44 -22 -68 -31s-49 -15 -75 -19s-52 -6 -78 -6c-48 0 -92 9 -131 27s-72 43 -98 74s-45 68 -56 111s-12 90 -4 141s24 98 47 141s52 80 86 111s73 55 117 72s91 26 141 26
c58 0 109 -10 153 -29s79 -47 105 -83l-109 -93c-15 21 -37 37 -66 48s-62 17 -99 17c-30 0 -58 -6 -84 -18s-49 -27 -69 -46s-37 -41 -50 -66s-22 -51 -26 -78c-5 -29 -5 -56 0 -82s15 -48 29 -67s33 -34 56 -45s50 -17 81 -17c45 0 86 10 123 29l14 87h-110l22 136h253z
" />
    <glyph glyph-name="gacute" unicode="&#x1f5;" 
d="M275 552l83 150h159l-115 -150h-127zM320 376v3c-16 0 -32 -3 -47 -10s-29 -16 -41 -28s-22 -26 -31 -42s-15 -33 -18 -51s-3 -35 0 -51s9 -30 18 -42s20 -21 33 -27s28 -9 44 -9c15 0 30 3 44 9s27 15 39 26s22 25 30 41s14 33 17 52c3 18 3 35 0 51s-9 30 -17 41
s-18 20 -30 27s-26 10 -41 10zM218 -228l-3 -2c-45 0 -84 4 -117 12s-66 19 -99 33l52 107c27 -9 53 -16 78 -21s53 -8 84 -8c40 0 73 11 98 33s41 52 47 91l2 9c-19 -11 -39 -20 -60 -27s-43 -10 -66 -10c-32 0 -61 6 -88 18s-49 30 -67 53s-31 50 -38 82s-8 68 -2 107
s17 74 34 106s38 60 62 83s52 41 84 54s66 19 103 19c29 0 56 -6 81 -18s47 -28 66 -47l29 52h78l-76 -479c-6 -37 -17 -71 -32 -102s-34 -57 -58 -78s-52 -37 -84 -49s-68 -18 -108 -18z" />
    <glyph glyph-name="Aringacute" unicode="&#x1fa;" horiz-adv-x="685" 
d="M360 889l84 150h159l-115 -150h-128zM424 687l-1 2c11 0 21 5 30 14s14 21 14 36s-5 27 -14 35s-19 12 -30 12c-13 0 -24 -4 -33 -13s-13 -21 -13 -36c0 -17 5 -30 14 -38s20 -12 33 -12zM392 515l-125 -245h173zM466 134l-271 -3l-67 -132h-153l350 650
c-11 11 -19 24 -24 39s-7 32 -7 50c0 35 12 64 35 87s54 35 92 35c37 0 67 -11 90 -34s35 -52 35 -87c0 -21 -4 -40 -12 -57s-19 -31 -34 -42l141 -638h-150z" />
    <glyph glyph-name="aringacute" unicode="&#x1fb;" horiz-adv-x="594" 
d="M308 836l85 150h159l-116 -150h-128zM246 677l-2 -1c0 35 12 64 35 87s53 35 90 35s67 -11 90 -34s35 -52 35 -87c0 -37 -11 -67 -34 -91s-53 -36 -90 -36c-41 0 -72 12 -93 36s-31 54 -31 91zM370 624l-1 2c11 0 21 5 30 14s14 21 14 36s-5 27 -14 35s-19 12 -30 12
c-13 0 -24 -4 -33 -13s-13 -21 -13 -36c0 -17 5 -30 14 -38s20 -12 33 -12zM278 120l-4 3c15 0 30 3 44 9s27 15 39 26s22 25 30 41s14 33 17 52c3 18 3 35 0 51s-9 30 -17 41s-18 20 -30 27s-26 10 -41 10c-16 0 -31 -3 -46 -10s-29 -16 -41 -28s-22 -26 -30 -42
s-13 -33 -16 -51s-3 -35 1 -51s10 -30 18 -42s19 -21 32 -27s28 -9 44 -9zM401 66l2 -3c-25 -21 -52 -39 -81 -53s-59 -21 -90 -21c-32 0 -61 6 -87 19s-48 31 -66 54s-31 50 -39 82s-9 67 -3 106s18 74 36 106s40 60 66 83s54 41 85 54s63 19 96 19c29 0 56 -6 81 -18
s47 -28 66 -48l27 53h79l-79 -495h-78z" />
    <glyph glyph-name="AEacute" unicode="&#x1fc;" horiz-adv-x="957" 
d="M583 728l85 150h159l-116 -150h-128zM495 539h-47l-153 -255h160zM433 148h-220l-88 -148h-147l409 675h585l-22 -136h-311l-21 -131h293l-22 -136h-293l-21 -136h314l-21 -136h-458z" />
    <glyph glyph-name="aeacute" unicode="&#x1fd;" horiz-adv-x="869" 
d="M382 552l84 150h159l-115 -150h-128zM627 392c-28 0 -51 -9 -70 -27s-33 -41 -42 -70l187 8c-3 59 -28 89 -75 89zM224 99l-1 -3c23 0 46 5 68 15s45 24 70 42c-1 9 -2 19 -3 29s-1 20 0 31l-105 -15c-19 -3 -36 -8 -51 -15s-24 -20 -27 -40c-2 -13 1 -24 9 -32
s21 -12 40 -12zM793 77l7 -2c-29 -30 -62 -53 -100 -69s-77 -24 -118 -24c-37 0 -71 7 -102 21s-56 35 -76 62c-39 -28 -75 -49 -108 -63s-70 -21 -111 -21c-29 0 -54 4 -75 12s-38 20 -51 35s-22 32 -27 52s-5 42 -1 65c7 47 28 81 63 103s79 35 132 40l144 13l1 8
c3 23 -4 41 -22 53s-44 18 -79 18c-29 0 -55 -2 -79 -6s-49 -10 -76 -18l-9 113c33 11 64 20 94 26s65 9 106 9s76 -5 105 -15s52 -24 69 -42c24 18 49 32 76 42s54 15 82 15c34 0 65 -6 93 -19s52 -32 71 -57s32 -56 39 -93s7 -79 -1 -127h-337c3 -29 14 -52 33 -68
s44 -24 74 -24c41 0 76 15 106 44z" />
    <glyph glyph-name="Oslashacute" unicode="&#x1fe;" horiz-adv-x="750" 
d="M387 728l84 150h159l-115 -150h-128zM209 337h2c-5 -28 -5 -54 0 -78s14 -45 27 -64l272 331c-24 15 -51 22 -80 22c-25 0 -50 -6 -75 -17s-47 -26 -67 -45s-37 -41 -51 -67s-23 -53 -28 -82zM365 127l-2 -1c26 0 51 6 75 17s46 26 66 45s37 41 51 67s23 53 28 82
c5 28 5 54 0 79s-14 47 -27 66l-273 -332c11 -7 24 -13 38 -17s29 -6 44 -6zM345 -14l2 -1c-31 0 -60 4 -87 12s-52 19 -75 34l-92 -112h-82l126 152c-31 32 -53 71 -67 117s-16 96 -7 149c8 48 23 93 46 136s52 80 86 112s73 57 117 75s91 27 141 27c29 0 57 -4 83 -12
s50 -19 72 -33l93 113h81l-125 -153c31 -32 54 -71 68 -117s17 -96 8 -150c-8 -49 -24 -94 -48 -136s-53 -79 -88 -111s-74 -57 -117 -75s-88 -27 -135 -27z" />
    <glyph glyph-name="oslashacute" unicode="&#x1ff;" horiz-adv-x="577" 
d="M273 552l84 150h159l-116 -150h-127zM184 245l-1 1c-5 -35 0 -64 15 -88l175 198c-17 14 -37 21 -59 21c-16 0 -31 -3 -45 -10s-27 -16 -39 -28s-22 -26 -30 -42s-13 -33 -16 -52zM274 120l-1 1c16 0 31 3 46 9s28 15 40 26s22 24 30 40s14 33 17 51s3 35 0 50
s-8 28 -15 39l-175 -197c17 -13 36 -19 58 -19zM252 -11l1 -4c-25 0 -49 4 -71 11s-42 17 -61 30l-97 -109h-34l111 125c-24 23 -42 51 -54 85s-14 72 -7 115c7 41 19 78 37 111s40 61 66 84s56 40 89 52s67 18 103 18c53 0 98 -14 136 -43l99 112h34l-113 -129
c23 -23 40 -52 51 -86s13 -73 6 -116c-6 -39 -18 -74 -36 -106s-40 -59 -67 -81s-57 -39 -90 -51s-67 -18 -103 -18z" />
    <glyph glyph-name="Adblgrave" unicode="&#x200;" horiz-adv-x="685" 
d="M236 878h143l13 -150h-112zM414 878h144l13 -150h-112zM393 513l-125 -245h173zM467 132h-269l-67 -132h-153l363 675h152l149 -675h-150z" />
    <glyph glyph-name="adblgrave" unicode="&#x201;" horiz-adv-x="594" 
d="M162 701h143l14 -150h-113zM341 701h143l13 -150h-112zM281 119l-4 3c15 0 30 3 44 9s27 15 39 26s22 25 30 41s14 33 17 52c3 18 3 35 0 51s-9 30 -17 41s-18 20 -30 27s-26 10 -41 10c-16 0 -31 -3 -46 -10s-29 -16 -41 -28s-22 -26 -30 -42s-13 -33 -16 -51
s-3 -35 1 -51s10 -30 18 -42s19 -21 32 -27s28 -9 44 -9zM404 65l2 -3c-25 -21 -52 -39 -81 -53s-59 -21 -90 -21c-32 0 -61 6 -87 19s-48 31 -66 54s-31 50 -39 82s-9 67 -3 106s18 74 36 106s40 60 66 83s54 41 85 54s63 19 96 19c29 0 56 -6 81 -18s47 -28 66 -48l27 53
h79l-79 -495h-78z" />
    <glyph glyph-name="Ainvertedbreve" unicode="&#x202;" horiz-adv-x="685" 
d="M272 727l-2 1c11 52 32 92 62 120s68 42 114 42c45 0 78 -14 98 -42s28 -68 25 -120h-75c1 17 -4 32 -15 45s-27 20 -48 20s-39 -7 -55 -21s-26 -29 -31 -45h-73zM391 514l-125 -245h173zM465 133h-269l-67 -132h-153l363 675h152l149 -675h-150z" />
    <glyph glyph-name="ainvertedbreve" unicode="&#x203;" horiz-adv-x="594" 
d="M190 550h-4c11 52 32 92 62 120s68 42 114 42c45 0 78 -14 98 -42s29 -68 26 -120h-76c1 17 -4 32 -15 45s-27 20 -48 20s-39 -7 -54 -20s-25 -28 -30 -45h-73zM277 119l-4 3c15 0 30 3 44 9s27 15 39 26s22 25 30 41s14 33 17 52c3 18 3 35 0 51s-9 30 -17 41
s-18 20 -30 27s-26 10 -41 10c-16 0 -31 -3 -46 -10s-29 -16 -41 -28s-22 -26 -30 -42s-13 -33 -16 -51s-3 -35 1 -51s10 -30 18 -42s19 -21 32 -27s28 -9 44 -9zM400 65l2 -3c-25 -21 -52 -39 -81 -53s-59 -21 -90 -21c-32 0 -61 6 -87 19s-48 31 -66 54s-31 50 -39 82
s-9 67 -3 106s18 74 36 106s40 60 66 83s54 41 85 54s63 19 96 19c29 0 56 -6 81 -18s47 -28 66 -48l27 53h79l-79 -495h-78z" />
    <glyph glyph-name="Edblgrave" unicode="&#x204;" horiz-adv-x="583" 
d="M198 878h143l13 -150h-112zM376 878h144l13 -150h-112zM143 675h455l-22 -136h-311l-21 -132h293l-22 -136h-292l-22 -135h314l-21 -136h-458z" />
    <glyph glyph-name="edblgrave" unicode="&#x205;" horiz-adv-x="550" 
d="M148 701h143l13 -150h-112zM326 701h144l13 -150h-112zM306 392c-27 0 -50 -9 -69 -27s-33 -41 -42 -70l187 8c-4 59 -29 89 -76 89zM475 80l-3 -2c-29 -30 -63 -53 -101 -69s-77 -24 -117 -24c-33 0 -64 6 -93 18s-54 29 -74 51s-35 49 -44 81s-11 68 -5 107
c7 41 20 78 38 111s40 61 66 84s55 40 87 52s65 18 98 18c32 0 62 -6 89 -19s50 -32 68 -57s31 -56 38 -93s7 -79 -1 -127h-337c3 -29 14 -52 33 -68s44 -24 74 -24c41 0 76 15 106 44z" />
    <glyph glyph-name="Einvertedbreve" unicode="&#x206;" horiz-adv-x="583" 
d="M230 727l1 1c11 52 32 92 62 120s68 42 114 42c45 0 78 -14 98 -42s28 -68 25 -120h-75c0 17 -6 32 -17 45s-27 20 -48 20s-39 -7 -55 -21s-26 -29 -31 -45h-74zM144 676h455l-22 -136h-311l-21 -132h293l-22 -136h-292l-22 -135h314l-21 -136h-458z" />
    <glyph glyph-name="einvertedbreve" unicode="&#x207;" horiz-adv-x="550" 
d="M184 550h-3c11 52 32 92 62 120s68 42 114 42c45 0 78 -14 98 -42s29 -68 26 -120h-75c0 17 -5 32 -16 45s-27 20 -48 20s-39 -7 -54 -20s-25 -28 -30 -45h-74zM303 392c-27 0 -50 -9 -69 -27s-33 -41 -42 -70l187 8c-4 59 -29 89 -76 89zM472 80l-3 -2
c-29 -30 -63 -53 -101 -69s-77 -24 -117 -24c-33 0 -64 6 -93 18s-54 29 -74 51s-35 49 -44 81s-11 68 -5 107c7 41 20 78 38 111s40 61 66 84s55 40 87 52s65 18 98 18c32 0 62 -6 89 -19s50 -32 68 -57s31 -56 38 -93s7 -79 -1 -127h-337c3 -29 14 -52 33 -68
s44 -24 74 -24c41 0 76 15 106 44z" />
    <glyph glyph-name="Idblgrave" unicode="&#x208;" horiz-adv-x="280" 
d="M38 878h143l13 -150h-112zM216 878h144l13 -150h-112zM143 675h144l-107 -675h-144z" />
    <glyph glyph-name="idblgrave" unicode="&#x209;" horiz-adv-x="264" 
d="M8 701h143l13 -150h-112zM186 701h144l13 -150h-112zM109 495h139l-79 -495h-139z" />
    <glyph glyph-name="Iinvertedbreve" unicode="&#x20a;" horiz-adv-x="280" 
d="M75 727l-2 1c11 52 32 92 62 120s68 42 114 42c45 0 78 -14 98 -42s28 -68 25 -120h-75c1 17 -4 32 -15 45s-27 20 -48 20s-39 -7 -55 -21s-26 -29 -31 -45h-73zM141 676h144l-107 -675h-144z" />
    <glyph glyph-name="iinvertedbreve" unicode="&#x20b;" horiz-adv-x="264" 
d="M38 550h-3c11 52 32 92 62 120s68 42 114 42c45 0 78 -14 98 -42s28 -68 25 -120h-75c0 17 -5 32 -16 45s-27 20 -48 20s-39 -7 -54 -20s-25 -28 -30 -45h-73zM106 495h139l-79 -495h-139z" />
    <glyph glyph-name="Odblgrave" unicode="&#x20c;" horiz-adv-x="750" 
d="M272 878h143l13 -150h-112zM450 878h144l13 -150h-112zM345 -13l-1 -1c-47 0 -90 9 -128 27s-70 43 -96 75s-44 69 -55 111s-12 88 -4 137c8 48 23 93 46 136s52 80 86 112s73 57 117 75s91 27 141 27c47 0 89 -9 127 -27s70 -43 95 -75s43 -69 54 -112s13 -88 6 -136
c-8 -49 -24 -94 -48 -136s-53 -79 -88 -111s-74 -57 -117 -75s-88 -27 -135 -27zM362 126l1 -1c26 0 51 6 75 17s46 26 66 45s37 41 51 67s23 53 28 82s4 56 -2 82s-16 48 -30 67s-31 34 -52 45s-44 17 -70 17c-25 0 -50 -6 -75 -17s-47 -26 -67 -45s-37 -41 -51 -67
s-23 -53 -28 -82s-4 -56 2 -82s16 -48 30 -67s32 -34 53 -45s44 -16 69 -16z" />
    <glyph glyph-name="odblgrave" unicode="&#x20d;" horiz-adv-x="577" 
d="M153 701h143l13 -150h-112zM331 701h144l13 -150h-112zM254 -13l-2 -3c-33 0 -64 6 -93 18s-53 29 -73 51s-35 49 -44 81s-10 68 -4 107c7 41 20 78 38 111s40 61 66 84s56 40 89 52s67 18 103 18c34 0 66 -6 95 -19s53 -31 73 -54s34 -51 43 -83s10 -68 4 -107
s-18 -74 -36 -106s-40 -59 -67 -81s-57 -39 -90 -51s-67 -18 -102 -18zM272 116l-1 -2c16 0 31 3 46 9s28 15 40 26s22 24 30 40s14 33 17 51c3 19 3 36 0 52s-9 30 -17 42s-18 21 -31 28s-27 10 -43 10c-15 0 -30 -3 -45 -10s-28 -16 -40 -28s-22 -26 -30 -42
s-13 -33 -16 -52c-3 -18 -3 -35 0 -50s9 -28 17 -39s18 -20 31 -26s27 -9 42 -9z" />
    <glyph glyph-name="Oinvertedbreve" unicode="&#x20e;" horiz-adv-x="750" 
d="M308 727l1 1c11 52 32 92 62 120s68 42 114 42c45 0 78 -14 98 -42s28 -68 25 -120h-75c0 17 -6 32 -17 45s-27 20 -48 20s-39 -7 -55 -21s-26 -29 -31 -45h-74zM346 -12l-1 -1c-47 0 -90 9 -128 27s-70 43 -96 75s-44 69 -55 111s-12 88 -4 137c8 48 23 93 46 136
s52 80 86 112s73 57 117 75s91 27 141 27c47 0 89 -9 127 -27s70 -43 95 -75s43 -69 54 -112s13 -88 6 -136c-8 -49 -24 -94 -48 -136s-53 -79 -88 -111s-74 -57 -117 -75s-88 -27 -135 -27zM363 127l1 -1c26 0 51 6 75 17s46 26 66 45s37 41 51 67s23 53 28 82s4 56 -2 82
s-16 48 -30 67s-31 34 -52 45s-44 17 -70 17c-25 0 -50 -6 -75 -17s-47 -26 -67 -45s-37 -41 -51 -67s-23 -53 -28 -82s-4 -56 2 -82s16 -48 30 -67s32 -34 53 -45s44 -16 69 -16z" />
    <glyph glyph-name="oinvertedbreve" unicode="&#x20f;" horiz-adv-x="577" 
d="M187 550h-4c11 52 32 92 62 120s68 42 114 42c45 0 78 -14 98 -42s29 -68 26 -120h-76c1 17 -4 32 -15 45s-27 20 -48 20s-39 -7 -54 -20s-25 -28 -30 -45h-73zM250 -13l-2 -3c-33 0 -64 6 -93 18s-53 29 -73 51s-35 49 -44 81s-10 68 -4 107c7 41 20 78 38 111
s40 61 66 84s56 40 89 52s67 18 103 18c34 0 66 -6 95 -19s53 -31 73 -54s34 -51 43 -83s10 -68 4 -107s-18 -74 -36 -106s-40 -59 -67 -81s-57 -39 -90 -51s-67 -18 -102 -18zM268 116l-1 -2c16 0 31 3 46 9s28 15 40 26s22 24 30 40s14 33 17 51c3 19 3 36 0 52
s-9 30 -17 42s-18 21 -31 28s-27 10 -43 10c-15 0 -30 -3 -45 -10s-28 -16 -40 -28s-22 -26 -30 -42s-13 -33 -16 -52c-3 -18 -3 -35 0 -50s9 -28 17 -39s18 -20 31 -26s27 -9 42 -9z" />
    <glyph glyph-name="Rdblgrave" unicode="&#x210;" horiz-adv-x="664" 
d="M202 878h143l13 -150h-112zM380 878h144l12 -150h-111zM265 539l-30 -197h167c13 0 25 3 35 9s19 14 27 24s15 21 20 33s9 24 11 37c2 12 2 24 1 35s-4 21 -9 30s-11 16 -19 21s-18 8 -30 8h-173zM380 205l-166 -1l-33 -208h-144l107 675h340c31 0 57 -6 79 -19
s40 -30 53 -51s22 -45 27 -72s5 -54 0 -82c-7 -41 -21 -80 -42 -117s-48 -67 -81 -90l76 -243h-152z" />
    <glyph glyph-name="rdblgrave" unicode="&#x211;" horiz-adv-x="391" 
d="M76 701h144l13 -150h-112zM255 701h143l13 -150h-112zM29 0l78 493h100l18 -92c28 32 57 58 87 77s60 29 91 29l-22 -144c-35 0 -66 -8 -94 -23s-53 -34 -74 -57l-45 -283h-139z" />
    <glyph glyph-name="Rinvertedbreve" unicode="&#x212;" horiz-adv-x="664" 
d="M240 727l-3 1c11 52 32 92 62 120s68 42 114 42c45 0 78 -14 98 -42s29 -68 26 -120h-76c1 17 -4 32 -15 45s-27 20 -48 20c-20 0 -38 -7 -54 -21s-26 -29 -31 -45h-73zM262 540l-30 -197h167c13 0 25 3 35 9s19 14 27 24s15 21 20 33s9 24 11 37c2 12 2 24 1 35
s-4 21 -9 30s-11 16 -19 21s-18 8 -30 8h-173zM377 206l-166 -1l-33 -208h-144l107 675h340c31 0 57 -6 79 -19s40 -30 53 -51s22 -45 27 -72s5 -54 0 -82c-7 -41 -21 -80 -42 -117s-48 -67 -81 -90l76 -243h-152z" />
    <glyph glyph-name="rinvertedbreve" unicode="&#x213;" horiz-adv-x="391" 
d="M118 550h-3c11 52 32 92 62 120s68 42 114 42c45 0 78 -14 98 -42s29 -68 26 -120h-75c0 17 -5 32 -16 45s-27 20 -48 20s-39 -7 -54 -20s-25 -28 -30 -45h-74zM26 0l78 493h100l18 -92c28 32 57 58 87 77s60 29 91 29l-22 -144c-35 0 -66 -8 -94 -23s-53 -34 -74 -57
l-45 -283h-139z" />
    <glyph glyph-name="Udblgrave" unicode="&#x214;" horiz-adv-x="694" 
d="M247 878h143l13 -150h-112zM425 878h144l13 -150h-112zM283 675l-60 -385c-9 -57 -4 -99 16 -126s54 -40 101 -40c39 0 73 14 102 41s48 69 57 126l61 382h143l-62 -395c-8 -48 -21 -90 -40 -127s-43 -67 -71 -91s-60 -42 -96 -55s-75 -19 -116 -19c-44 0 -83 6 -116 19
s-60 32 -81 56s-35 55 -43 92s-8 79 -1 127l63 395h143z" />
    <glyph glyph-name="udblgrave" unicode="&#x215;" horiz-adv-x="585" 
d="M173 701h143l13 -150h-112zM351 701h144l13 -150h-112zM389 75l-1 -1c-28 -30 -57 -52 -88 -66s-61 -21 -91 -21c-25 0 -48 4 -69 13s-39 23 -53 42s-24 43 -30 71s-6 62 0 101l45 282h139l-41 -260c-12 -72 13 -108 74 -108c19 0 37 5 55 14s36 22 53 39l50 314h139
l-79 -495h-91z" />
    <glyph glyph-name="Uinvertedbreve" unicode="&#x216;" horiz-adv-x="694" 
d="M281 727l-3 1c11 52 32 92 62 120s68 42 114 42c45 0 78 -14 98 -42s29 -68 26 -120h-76c1 17 -4 32 -15 45s-27 20 -48 20c-20 0 -38 -7 -54 -21s-26 -29 -31 -45h-73zM280 676l-60 -385c-9 -57 -4 -99 16 -126s54 -40 101 -40c39 0 73 14 102 41s48 69 57 126l61 382
h143l-62 -395c-8 -48 -21 -90 -40 -127s-43 -67 -71 -91s-60 -42 -96 -55s-75 -19 -116 -19c-44 0 -83 6 -116 19s-60 32 -81 56s-35 55 -43 92s-8 79 -1 127l63 395h143z" />
    <glyph glyph-name="uinvertedbreve" unicode="&#x217;" horiz-adv-x="585" 
d="M199 550h-4c11 52 32 92 62 120s68 42 114 42c45 0 78 -14 98 -42s29 -68 26 -120h-76c1 17 -4 32 -15 45s-27 20 -48 20s-39 -7 -54 -20s-25 -28 -30 -45h-73zM385 75l-1 -1c-28 -30 -57 -52 -88 -66s-61 -21 -91 -21c-25 0 -48 4 -69 13s-39 23 -53 42s-24 43 -30 71
s-6 62 0 101l45 282h139l-41 -260c-12 -72 13 -108 74 -108c19 0 37 5 55 14s36 22 53 39l50 314h139l-79 -495h-91z" />
    <glyph glyph-name="Scommaaccent" unicode="&#x218;" horiz-adv-x="614" 
d="M98 200l-4 -2c73 -49 146 -74 220 -74c23 0 44 6 63 19s30 29 33 48s-1 34 -13 45s-34 21 -66 30c-52 15 -93 31 -124 48s-54 35 -70 55s-25 40 -28 61s-3 43 0 66c4 25 13 49 26 72s31 43 53 61s47 32 76 42s62 15 98 15c48 0 95 -6 140 -18s85 -34 120 -66l-73 -118
c-29 19 -60 34 -93 45s-67 17 -103 17c-23 0 -43 -5 -59 -15s-25 -24 -28 -41c-1 -11 -1 -20 1 -28s7 -15 14 -21s17 -12 29 -17s28 -11 47 -17c46 -15 84 -30 113 -45s51 -31 66 -48s25 -36 29 -56s4 -43 0 -68c-5 -30 -15 -57 -30 -82s-34 -46 -57 -64s-50 -32 -81 -42
s-64 -15 -99 -15c-57 0 -107 8 -151 24s-86 40 -125 73zM173 -333l-1 -3c16 17 29 33 40 47s20 30 27 47c-24 1 -43 10 -56 27s-18 38 -14 63c2 12 6 23 12 34s14 20 23 28s19 14 30 19s23 7 35 7c23 0 41 -9 54 -28s18 -42 14 -70c-5 -35 -19 -69 -42 -103
s-58 -66 -105 -97z" />
    <glyph glyph-name="scommaaccent" unicode="&#x219;" horiz-adv-x="515" 
d="M73 170l-4 -5c36 -21 69 -36 99 -44s62 -12 95 -12c15 0 27 3 36 9s14 13 15 20c1 9 -2 16 -9 21s-18 9 -33 13c-42 10 -76 21 -102 33s-46 25 -60 39s-23 29 -27 45s-5 33 -3 51c3 23 10 45 21 65s26 38 45 53s42 27 69 35s57 12 90 12c18 0 37 -1 56 -3s38 -5 56 -9
s35 -9 51 -16s30 -15 41 -24l-63 -110c-18 11 -41 20 -69 26s-56 9 -84 9c-17 0 -32 -2 -44 -7s-19 -12 -20 -22c-1 -9 1 -16 7 -21s18 -9 35 -13c37 -9 69 -19 95 -30s47 -23 63 -36s27 -28 33 -45s8 -37 5 -60s-11 -44 -23 -63s-28 -36 -48 -50s-43 -25 -70 -33
s-56 -12 -88 -12c-46 0 -88 5 -126 16s-72 29 -103 54zM112 -336l2 -3c15 17 28 33 39 47s20 30 27 47c-23 1 -41 10 -55 27s-19 38 -15 63c4 24 16 45 35 62s41 26 65 26c23 0 41 -9 54 -28s17 -42 12 -70c-5 -35 -19 -69 -42 -103s-58 -66 -105 -97z" />
    <glyph glyph-name="uni021A" unicode="&#x21a;" 
d="M421 539l-85 -539h-143l85 539h-199l21 136h542l-22 -136h-199zM158 -331l2 -3c15 17 28 33 39 47s20 30 27 47c-23 1 -41 10 -55 27s-19 38 -15 63c4 24 16 45 35 62s41 26 65 26c23 0 41 -9 54 -28s17 -42 12 -70c-5 -35 -19 -69 -42 -103s-58 -66 -105 -97z" />
    <glyph glyph-name="uni021B" unicode="&#x21b;" horiz-adv-x="353" 
d="M283 -13v-2c-39 0 -73 5 -101 15s-51 24 -69 43s-30 41 -36 67s-6 55 -1 87l27 173h-48l20 124h48l19 119l146 45l-26 -164h94l-17 -109l-15 -15h-82l-26 -163c-5 -26 1 -47 17 -64s40 -25 71 -25zM50 -333l2 -3c15 17 28 33 39 47s20 30 27 47c-23 1 -41 10 -55 27
s-19 38 -15 63c4 24 16 45 35 62s41 26 65 26c23 0 41 -9 54 -28s17 -42 12 -70c-5 -35 -19 -69 -42 -103s-58 -66 -105 -97z" />
    <glyph glyph-name="schwa" unicode="&#x259;" horiz-adv-x="550" 
d="M239 -13l-3 -4c-33 0 -63 6 -90 19s-50 32 -68 57s-31 56 -38 93s-6 80 2 128h336c-3 28 -14 51 -33 68s-43 26 -72 26c-42 0 -78 -15 -108 -44l-78 83c29 30 63 53 101 69s77 24 117 24c34 0 66 -6 95 -18s54 -29 74 -51s35 -49 44 -81s11 -67 5 -106s-18 -75 -36 -107
s-40 -60 -66 -83s-55 -41 -86 -54s-63 -19 -96 -19zM256 99c27 0 50 9 68 27s32 41 41 70l-189 -8c3 -30 11 -52 25 -67s32 -22 55 -22z" />
    <glyph glyph-name="circumflex" unicode="&#x2c6;" horiz-adv-x="422" 
d="M289 650l-77 -99h-127l108 150h209l59 -150h-127z" />
    <glyph glyph-name="caron" unicode="&#x2c7;" horiz-adv-x="422" 
d="M109 702h127l45 -98l77 98h127l-107 -150h-209z" />
    <glyph glyph-name="breve" unicode="&#x2d8;" horiz-adv-x="360" 
d="M192 713h2c-1 -17 4 -32 15 -45s27 -20 48 -20s39 7 54 20s25 28 30 45h75c-13 -52 -34 -92 -63 -120s-66 -42 -111 -42c-46 0 -79 14 -100 42s-29 68 -24 120h74z" />
    <glyph glyph-name="dotaccent" unicode="&#x2d9;" horiz-adv-x="231" 
d="M181 562v-1c-24 0 -43 9 -57 26s-19 38 -15 63c2 12 6 23 12 34s14 20 23 28s19 14 30 19s23 7 35 7c22 0 40 -8 54 -25s19 -37 15 -61c-2 -13 -6 -25 -12 -36s-13 -20 -22 -28s-19 -14 -30 -19s-22 -7 -33 -7z" />
    <glyph glyph-name="ring" unicode="&#x2da;" horiz-adv-x="311" 
d="M117 677l-3 -2c0 35 12 64 35 87s54 35 92 35c18 0 35 -3 50 -9s28 -14 39 -25s20 -24 26 -39s9 -31 9 -48c0 -18 -3 -35 -9 -51s-15 -29 -26 -40s-24 -20 -39 -26s-31 -9 -49 -9c-42 0 -73 12 -94 36s-31 54 -31 91zM240 623v2c11 0 21 5 30 14s14 21 14 36
s-5 27 -14 35s-19 12 -30 12c-13 0 -24 -4 -33 -13s-13 -21 -13 -36c0 -17 4 -30 13 -38s20 -12 33 -12z" />
    <glyph glyph-name="ogonek" unicode="&#x2db;" horiz-adv-x="280" 
d="M200 -167l2 -3c-29 -23 -64 -34 -106 -34c-37 0 -65 9 -85 26s-27 41 -22 72c3 21 11 40 23 57s27 32 45 44s38 22 60 30s44 15 67 20l15 -51c-39 -11 -67 -23 -83 -36s-25 -29 -28 -47c-1 -9 1 -17 7 -24s14 -11 25 -11c13 0 25 2 36 7s22 12 32 21z" />
    <glyph glyph-name="tilde" unicode="&#x2dc;" horiz-adv-x="365" 
d="M81 574l-2 -1c8 45 24 79 47 101s47 33 72 33c16 0 30 -2 43 -6s25 -8 36 -13s22 -9 33 -13s23 -6 36 -6c9 0 17 2 24 6s12 12 15 23h48c-7 -45 -20 -79 -39 -103s-44 -36 -75 -36c-16 0 -30 2 -43 6s-26 8 -38 13s-24 9 -36 13s-24 6 -37 6c-8 0 -15 -2 -21 -6
s-10 -10 -13 -17h-50z" />
    <glyph glyph-name="hungarumlaut" unicode="&#x2dd;" horiz-adv-x="420" 
d="M475 701l-92 -150h-112l61 150h143zM297 701l-92 -150h-112l60 150h144z" />
    <glyph glyph-name="uni0401" unicode="&#x401;" horiz-adv-x="583" 
d="M268 733l1 -1c-24 0 -43 9 -57 26s-19 38 -15 63c4 24 16 45 35 62s41 26 65 26c22 0 40 -8 54 -25s19 -37 15 -61c-2 -13 -6 -25 -12 -36s-14 -20 -23 -28s-19 -14 -30 -19s-22 -7 -33 -7zM490 732l-1 -1c-23 0 -42 9 -56 26s-19 38 -15 63c2 12 6 23 12 34s14 20 23 28
s19 14 30 19s23 7 35 7c23 0 41 -8 55 -25s19 -37 15 -61c-2 -13 -6 -25 -12 -36s-14 -20 -23 -28s-19 -14 -30 -19s-22 -7 -33 -7zM143 673h455l-22 -136h-311l-21 -132h293l-22 -136h-292l-22 -135h314l-21 -136h-458z" />
    <glyph glyph-name="uni0402" unicode="&#x402;" horiz-adv-x="756" 
d="M731 234l4 1c-6 -37 -17 -71 -33 -101s-36 -56 -60 -78s-52 -39 -84 -51s-67 -18 -105 -18l21 132c29 0 54 9 75 27s34 44 39 77s0 58 -15 75s-43 26 -83 26c-25 0 -49 -2 -72 -7s-48 -14 -75 -27l-46 -291h-143l85 539h-153l22 136h448l-21 -136h-152l-19 -116
c32 13 61 23 87 29s55 9 86 9c35 0 66 -4 93 -13s49 -23 66 -42s29 -42 35 -70s6 -62 0 -101z" />
    <glyph glyph-name="uni0403" unicode="&#x403;" horiz-adv-x="549" 
d="M298 728l84 150h159l-115 -150h-128zM267 539l-85 -539h-144l107 675h444l-22 -136h-300z" />
    <glyph glyph-name="uni0404" unicode="&#x404;" horiz-adv-x="662" 
d="M599 95l1 1c-35 -34 -75 -60 -120 -79s-91 -28 -139 -28c-46 0 -88 9 -126 27s-69 43 -94 75s-43 69 -54 111s-12 88 -4 137c8 48 24 93 48 136s53 80 88 112s74 57 117 75s88 27 135 27c49 0 93 -10 132 -30s71 -47 96 -82l-111 -94c-15 21 -35 37 -60 49s-52 18 -82 18
c-21 0 -42 -3 -62 -10s-38 -17 -55 -30s-32 -28 -46 -46s-25 -37 -34 -58h214l-21 -136h-215c5 -41 21 -75 47 -102s62 -40 107 -40c29 0 57 5 83 15s51 27 75 50l80 -98v0z" />
    <glyph glyph-name="uni0405" unicode="&#x405;" horiz-adv-x="614" 
d="M98 200l-4 -2c73 -49 146 -74 220 -74c23 0 44 6 63 19s30 29 33 48s-1 34 -13 45s-34 21 -66 30c-52 15 -93 31 -124 48s-54 35 -70 55s-25 40 -28 61s-3 43 0 66c4 25 13 49 26 72s31 43 53 61s47 32 76 42s62 15 98 15c48 0 95 -6 140 -18s85 -34 120 -66l-73 -118
c-29 19 -60 34 -93 45s-67 17 -103 17c-23 0 -43 -5 -59 -15s-25 -24 -28 -41c-1 -11 -1 -20 1 -28s7 -15 14 -21s17 -12 29 -17s28 -11 47 -17c46 -15 84 -30 113 -45s51 -31 66 -48s25 -36 29 -56s4 -43 0 -68c-5 -30 -15 -57 -30 -82s-34 -46 -57 -64s-50 -32 -81 -42
s-64 -15 -99 -15c-57 0 -107 8 -151 24s-86 40 -125 73z" />
    <glyph glyph-name="uni0406" unicode="&#x406;" horiz-adv-x="280" 
d="M145 675h144l-107 -675h-144z" />
    <glyph glyph-name="uni0407" unicode="&#x407;" horiz-adv-x="280" 
d="M116 733l-1 -1c-23 0 -42 9 -56 26s-19 38 -15 63c2 12 6 23 12 34s14 20 23 28s19 14 30 19s23 7 35 7c23 0 41 -8 55 -25s19 -37 15 -61c-2 -13 -6 -25 -12 -36s-14 -20 -23 -28s-19 -14 -30 -19s-22 -7 -33 -7zM337 732v-1c-24 0 -43 9 -57 26s-19 38 -15 63
c4 24 16 45 35 62s41 26 65 26c22 0 40 -8 54 -25s19 -37 16 -61c-2 -13 -6 -25 -12 -36s-14 -20 -23 -28s-19 -14 -30 -19s-22 -7 -33 -7zM144 673h144l-107 -675h-144z" />
    <glyph glyph-name="uni0408" unicode="&#x408;" horiz-adv-x="540" 
d="M239 -13h-2c-57 0 -104 10 -141 31s-68 49 -93 85l97 94c17 -19 35 -35 54 -48s44 -19 75 -19c27 0 51 9 72 27s35 47 41 86l69 433h143l-70 -443c-7 -45 -19 -83 -35 -114s-35 -56 -57 -76s-46 -34 -72 -43s-53 -13 -81 -13z" />
    <glyph glyph-name="uni0409" unicode="&#x409;" horiz-adv-x="1045" 
d="M262 204l-1 1c-5 -33 -15 -63 -30 -90s-34 -50 -57 -69s-49 -33 -79 -43s-62 -15 -97 -15l21 132c11 0 22 2 33 6s21 10 30 17s17 16 23 26s10 22 12 35l74 470h535l-39 -247h160c33 0 61 -6 84 -18s41 -28 55 -48s23 -43 28 -68s5 -51 1 -77c-5 -28 -14 -55 -27 -81
s-29 -49 -48 -69s-41 -36 -66 -48s-53 -18 -83 -18h-313l85 538h-248zM667 293l-25 -156h134c26 0 47 8 62 24s24 35 27 56c3 19 0 36 -10 52s-28 24 -55 24h-133z" />
    <glyph glyph-name="uni040A" unicode="&#x40a;" horiz-adv-x="1039" 
d="M665 292l-24 -156h134c26 0 47 8 62 24s24 35 27 56c3 19 0 36 -10 52s-28 24 -55 24h-134zM519 275l-297 -1l-43 -275h-144l107 675h144l-42 -263h296l42 263h143l-39 -247h160c31 0 58 -6 81 -18s41 -28 55 -48s23 -43 28 -68s5 -51 1 -77c-4 -28 -12 -55 -25 -81
s-29 -49 -48 -69s-41 -36 -66 -48s-53 -18 -83 -18h-313z" />
    <glyph glyph-name="uni040B" unicode="&#x40b;" horiz-adv-x="801" 
d="M523 334l-2 1c-24 0 -47 -4 -70 -12s-46 -20 -69 -35l-46 -287h-143l85 539h-193l22 136h529l-22 -136h-192l-19 -117c29 15 57 27 84 35s55 12 84 12c33 0 63 -4 89 -12s48 -21 65 -39s29 -41 35 -69s6 -61 0 -100l-39 -249h-143l38 241c5 31 0 54 -15 69s-41 23 -78 23
z" />
    <glyph glyph-name="uni040C" unicode="&#x40c;" horiz-adv-x="670" 
d="M340 728l84 150h159l-115 -150h-128zM306 275l-98 -95l-28 -180h-144l107 675h144l-47 -293l297 293h178l-306 -299l219 -376h-164z" />
    <glyph glyph-name="uni040E" unicode="&#x40e;" horiz-adv-x="641" 
d="M351 889h2c-1 -17 4 -32 15 -45s27 -20 48 -20s39 7 54 20s25 28 30 45h76c-13 -52 -34 -92 -63 -120s-66 -42 -111 -42c-46 0 -79 14 -100 42s-29 68 -24 120h73zM482 295l-3 -3c-37 -63 -74 -114 -112 -153s-76 -69 -115 -90s-79 -35 -120 -42s-83 -10 -126 -9l30 133
c43 0 81 5 114 14s63 23 90 42l-146 488h154l99 -352l204 352h154z" />
    <glyph glyph-name="uni040F" unicode="&#x40f;" horiz-adv-x="708" 
d="M405 0l-39 -168h-126l15 168h-219l107 675h143l-85 -539h296l85 539h143l-107 -675h-213z" />
    <glyph glyph-name="uni0410" unicode="&#x410;" horiz-adv-x="685" 
d="M393 513l-125 -245h173zM467 132h-269l-67 -132h-153l363 675h152l149 -675h-150z" />
    <glyph glyph-name="uni0411" unicode="&#x411;" horiz-adv-x="637" 
d="M226 292l-25 -156h172c26 0 47 8 62 24s24 35 27 56c3 19 0 36 -10 52s-28 24 -55 24h-171zM143 675l448 -1l-22 -136h-305l-17 -110l195 -1c33 0 61 -6 84 -18s42 -28 56 -48s23 -43 27 -68s4 -51 0 -77c-4 -28 -12 -55 -25 -81s-29 -49 -48 -69s-41 -36 -66 -48
s-53 -18 -83 -18h-351z" />
    <glyph glyph-name="uni0412" unicode="&#x412;" horiz-adv-x="658" 
d="M143 675l324 -3c29 0 54 -5 75 -16s38 -25 50 -42s21 -37 26 -59s5 -45 1 -68c-3 -24 -10 -47 -21 -69s-25 -42 -42 -59c25 -17 43 -40 53 -69s13 -60 8 -92c-4 -25 -12 -50 -24 -74s-28 -45 -47 -63s-42 -33 -68 -44s-55 -17 -86 -17h-356zM262 536l-20 -130h156
c20 0 36 7 48 21s20 29 23 44c2 17 -1 32 -9 45s-22 20 -43 20h-155zM391 132h-1c23 0 41 8 54 23s21 32 24 50c3 17 1 32 -7 45s-23 20 -44 20h-197l-22 -138h193z" />
    <glyph glyph-name="uni0413" unicode="&#x413;" horiz-adv-x="549" 
d="M265 539l-85 -539h-144l107 675h444l-22 -136h-300z" />
    <glyph glyph-name="uni0414" unicode="&#x414;" horiz-adv-x="724" 
d="M534 539h-158c-18 -87 -38 -163 -60 -227s-46 -123 -73 -176h228zM521 0l-384 -3l-26 -112h-126l39 248h69c23 41 43 83 60 126s32 87 45 132s24 91 33 138s18 96 26 146h443l-85 -539h62l-39 -248h-127z" />
    <glyph glyph-name="uni0415" unicode="&#x415;" horiz-adv-x="583" 
d="M143 675h455l-22 -136h-311l-21 -132h293l-22 -136h-292l-22 -135h314l-21 -136h-458z" />
    <glyph glyph-name="uni0416" unicode="&#x416;" horiz-adv-x="1062" 
d="M-20 0l348 368l-217 306l174 1l203 -292l46 292h144l-46 -287l289 287h185l-317 -310l230 -365h-173l-163 262l-84 -82l-28 -180h-144l30 186l-52 72l-245 -258h-180z" />
    <glyph glyph-name="uni0417" unicode="&#x417;" horiz-adv-x="635" 
d="M290 -13l3 -6c-58 0 -109 7 -153 22s-85 42 -122 81l79 100c32 -25 64 -42 96 -50s69 -12 110 -12c45 0 79 6 102 19s36 31 39 54s-9 43 -37 59s-70 24 -127 24l20 125c37 0 68 3 92 8s43 11 56 18s22 15 27 24s8 18 9 27c3 23 -6 39 -28 49s-52 15 -89 15
c-41 0 -77 -4 -109 -12s-66 -20 -103 -35l-37 112c40 24 84 43 131 56s97 20 150 20c38 0 73 -4 104 -11s57 -18 78 -33s37 -34 47 -58s12 -52 7 -85c-5 -32 -19 -61 -41 -87s-52 -48 -89 -67c32 -18 55 -40 70 -65s20 -53 15 -84s-15 -59 -30 -85s-35 -48 -60 -66
s-55 -32 -90 -42s-75 -15 -120 -15z" />
    <glyph glyph-name="uni0418" unicode="&#x418;" horiz-adv-x="718" 
d="M36 0l107 675h144l-73 -457l367 457h143l-107 -675h-143l72 455l-366 -455h-144z" />
    <glyph glyph-name="uni0419" unicode="&#x419;" horiz-adv-x="718" 
d="M392 889h2c-1 -17 4 -32 15 -45s27 -20 48 -20s39 7 54 20s25 28 30 45h75c-13 -52 -34 -92 -63 -120s-66 -42 -111 -42c-46 0 -79 14 -100 42s-29 68 -24 120h74zM40 0l107 675h144l-73 -457l367 457h143l-107 -675h-143l72 455l-366 -455h-144z" />
    <glyph glyph-name="uni041A" unicode="&#x41a;" horiz-adv-x="670" 
d="M306 275l-98 -95l-28 -180h-144l107 675h144l-47 -293l297 293h178l-306 -299l219 -376h-164z" />
    <glyph glyph-name="uni041B" unicode="&#x41b;" horiz-adv-x="721" 
d="M262 204l1 2c-5 -33 -15 -63 -30 -90s-34 -50 -57 -69s-49 -33 -79 -43s-62 -15 -97 -15l21 132c11 0 22 2 33 6s21 10 30 17s17 16 23 26s10 22 12 35l74 470h534l-107 -675h-143l85 539h-247l-53 -335v0z" />
    <glyph glyph-name="uni041C" unicode="&#x41c;" horiz-adv-x="851" 
d="M247 426l-67 -426h-144l107 675h148l144 -414l274 414h148l-107 -675h-144l68 426l-237 -356h-65z" />
    <glyph glyph-name="uni041D" unicode="&#x41d;" horiz-adv-x="720" 
d="M519 274h-296l-43 -274h-144l107 675h144l-42 -265h296l42 265h143l-107 -675h-143z" />
    <glyph glyph-name="uni041E" unicode="&#x41e;" horiz-adv-x="750" 
d="M345 -13l-1 -1c-47 0 -90 9 -128 27s-70 43 -96 75s-44 69 -55 111s-12 88 -4 137c8 48 23 93 46 136s52 80 86 112s73 57 117 75s91 27 141 27c47 0 89 -9 127 -27s70 -43 95 -75s43 -69 54 -112s13 -88 6 -136c-8 -49 -24 -94 -48 -136s-53 -79 -88 -111
s-74 -57 -117 -75s-88 -27 -135 -27zM362 126l1 -1c26 0 51 6 75 17s46 26 66 45s37 41 51 67s23 53 28 82s4 56 -2 82s-16 48 -30 67s-31 34 -52 45s-44 17 -70 17c-25 0 -50 -6 -75 -17s-47 -26 -67 -45s-37 -41 -51 -67s-23 -53 -28 -82s-4 -56 2 -82s16 -48 30 -67
s32 -34 53 -45s44 -16 69 -16z" />
    <glyph glyph-name="uni041F" unicode="&#x41f;" horiz-adv-x="719" 
d="M561 539h-296l-85 -539h-144l107 675h583l-107 -675h-143z" />
    <glyph glyph-name="uni0420" unicode="&#x420;" horiz-adv-x="641" 
d="M265 539l-35 -220h155c16 0 30 3 43 10s24 16 34 27s18 23 24 36s10 27 12 41c2 13 2 26 0 39s-6 24 -12 34s-14 18 -25 24s-24 9 -39 9h-157zM208 182l-28 -184h-144l107 675h329c33 0 62 -7 86 -21s43 -32 57 -55s24 -49 29 -78s5 -58 0 -88c-5 -31 -15 -62 -29 -92
s-32 -57 -54 -80s-47 -42 -75 -56s-59 -21 -92 -21h-186z" />
    <glyph glyph-name="uni0421" unicode="&#x421;" horiz-adv-x="673" 
d="M616 95l-5 -5c-35 -34 -77 -60 -125 -79s-97 -28 -147 -28c-47 0 -89 9 -127 26s-70 41 -96 72s-44 68 -55 111s-12 90 -4 141c9 57 27 108 53 152s57 81 93 111s75 53 116 68s82 23 123 23c58 0 108 -10 150 -29s76 -47 101 -83l-110 -93c-18 23 -40 40 -66 50
s-55 15 -87 15c-26 0 -51 -5 -76 -15s-47 -25 -67 -44s-37 -41 -51 -67s-23 -55 -28 -86s-4 -59 3 -85s18 -48 33 -66s33 -32 54 -42s44 -15 69 -15c32 0 63 6 92 18s54 29 75 52z" />
    <glyph glyph-name="uni0422" unicode="&#x422;" 
d="M421 539l-85 -539h-144l86 539h-200l22 136h541l-22 -136h-198z" />
    <glyph glyph-name="uni0423" unicode="&#x423;" horiz-adv-x="642" 
d="M480 295l-3 -3c-37 -63 -74 -114 -112 -153s-76 -69 -115 -90s-79 -35 -120 -42s-83 -10 -126 -9l30 133c43 0 81 5 114 14s63 23 90 42l-146 488h154l99 -352l204 352h154l-223 -380v0z" />
    <glyph glyph-name="uni0424" unicode="&#x424;" horiz-adv-x="806" 
d="M298 0l13 82c-49 5 -91 15 -126 29s-63 32 -85 54s-37 48 -45 78s-9 63 -4 98c11 68 45 124 101 169s136 72 239 81l13 83h143l-13 -83c50 -5 93 -14 129 -28s65 -32 87 -54s37 -48 45 -77s9 -61 4 -96c-11 -70 -45 -127 -103 -172s-138 -72 -241 -81l-14 -83h-143z
M652 336v-1c5 29 -3 54 -24 74s-59 34 -114 41l-36 -227c57 6 99 19 126 39s43 45 48 74zM197 335h2c-5 -28 3 -52 24 -72s58 -33 112 -40l36 227c-57 -7 -99 -21 -126 -42s-43 -45 -48 -73z" />
    <glyph glyph-name="uni0425" unicode="&#x425;" horiz-adv-x="706" 
d="M360 230l-202 -230h-172l309 344l-185 331h162l122 -220l187 220h168l-293 -335l194 -340h-163z" />
    <glyph glyph-name="uni0426" unicode="&#x426;" horiz-adv-x="745" 
d="M536 -112l10 112h-510l107 675h143l-85 -538h296l85 538h144l-85 -538h61l-40 -249h-126z" />
    <glyph glyph-name="uni0427" unicode="&#x427;" horiz-adv-x="659" 
d="M415 0l36 225c-21 -5 -41 -9 -60 -11s-39 -3 -60 -3c-43 0 -82 6 -116 18s-62 29 -84 52s-38 51 -47 85s-10 73 -3 116l30 193h144l-27 -165c-9 -57 -2 -97 22 -121s60 -36 108 -36c21 0 40 1 58 3s37 6 57 11l49 308h143l-107 -675h-143z" />
    <glyph glyph-name="uni0428" unicode="&#x428;" horiz-adv-x="973" 
d="M143 675h144l-86 -539h204l85 539h143l-85 -539h203l85 539h143l-106 -675h-837z" />
    <glyph glyph-name="uni0429" unicode="&#x429;" horiz-adv-x="998" 
d="M789 -112l10 112h-763l107 675h143l-85 -539h203l85 539h143l-85 -539h203l85 539h144l-86 -539h62l-40 -248h-126z" />
    <glyph glyph-name="uni042A" unicode="&#x42a;" horiz-adv-x="788" 
d="M380 292l-24 -156h170c26 0 47 8 62 24s24 35 27 56c3 19 -1 36 -11 52s-28 24 -55 24h-169zM277 539l-196 -1l21 136h340l-39 -246l195 -1c33 0 61 -6 84 -18s41 -28 55 -48s23 -43 27 -68s4 -51 0 -77c-5 -28 -14 -55 -27 -81s-29 -49 -48 -69s-41 -36 -66 -48
s-53 -18 -83 -18h-349z" />
    <glyph glyph-name="uni042B" unicode="&#x42b;" horiz-adv-x="886" 
d="M749 675h144l-107 -675h-144zM226 292l-25 -156h172c26 0 47 8 62 24s24 35 27 56c3 19 0 36 -10 52s-28 24 -55 24h-171zM143 675l143 -1l-39 -246l196 -1c33 0 61 -6 84 -18s41 -28 55 -48s23 -43 27 -68s4 -51 0 -77c-4 -28 -12 -55 -25 -81s-29 -49 -48 -69
s-41 -36 -66 -48s-53 -18 -83 -18h-351z" />
    <glyph glyph-name="uni042C" unicode="&#x42c;" horiz-adv-x="634" 
d="M226 292l-27 -156h171c25 0 46 8 62 24s26 35 29 56c3 19 -1 36 -11 52s-28 24 -55 24h-169zM141 675l144 -1l-39 -246l195 -1c33 0 61 -6 84 -18s41 -28 55 -48s23 -43 27 -68s4 -51 0 -77c-5 -28 -14 -55 -27 -81s-29 -49 -48 -69s-41 -36 -66 -48s-53 -18 -83 -18
h-349z" />
    <glyph glyph-name="uni042D" unicode="&#x42d;" horiz-adv-x="662" 
d="M257 -13l-10 -4c-50 0 -95 10 -135 29s-73 46 -98 80l108 95c15 -20 35 -35 60 -46s53 -16 84 -16c20 0 40 4 60 11s38 17 55 30s33 28 47 45s26 36 35 57h-214l21 136h214c-5 42 -21 76 -48 103s-61 40 -102 40c-30 0 -59 -6 -87 -18s-53 -29 -75 -50l-82 96
c36 35 77 62 123 82s94 30 144 30c46 0 88 -9 125 -27s68 -43 93 -75s43 -69 54 -112s13 -88 6 -136c-7 -49 -21 -95 -42 -138s-48 -80 -81 -111s-71 -56 -114 -74s-90 -27 -141 -27z" />
    <glyph glyph-name="uni042E" unicode="&#x42e;" horiz-adv-x="1046" 
d="M634 -13l-4 -3c-41 0 -79 7 -114 22s-65 35 -90 60s-45 55 -59 90s-21 73 -22 114h-127l-43 -273h-144l107 675h144l-42 -265h129c14 39 34 76 59 110s54 64 87 89s69 45 108 59s79 21 120 21c47 0 89 -9 127 -27s70 -43 95 -75s43 -69 54 -112s13 -88 6 -136
c-8 -49 -24 -94 -48 -136s-53 -79 -88 -111s-74 -57 -118 -75s-90 -27 -137 -27zM652 124v-1c26 0 51 6 75 17s46 26 66 45s37 41 51 66s23 52 28 81s5 56 0 82s-14 48 -27 67s-30 34 -51 45s-46 17 -74 17c-25 0 -50 -6 -74 -17s-46 -26 -66 -45s-37 -41 -51 -67
s-23 -53 -28 -82s-5 -56 -1 -81s13 -47 26 -66s30 -34 51 -45s46 -16 75 -16z" />
    <glyph glyph-name="uni042F" unicode="&#x42f;" horiz-adv-x="685" 
d="M498 361l26 176h-195c-12 0 -23 -2 -32 -7s-17 -11 -24 -19s-13 -17 -17 -27s-7 -20 -9 -31s-2 -22 -1 -33s4 -21 9 -30s11 -16 19 -21s18 -8 30 -8h194zM474 222l-183 -1l-140 -224h-154l163 259c-28 22 -47 51 -57 87s-12 74 -5 113c4 27 13 53 27 79s31 49 52 70
s45 38 73 50s58 18 90 18h349l-107 -675h-143z" />
    <glyph glyph-name="uni0430" unicode="&#x430;" 
d="M279 119l-4 3c15 0 30 3 44 9s27 15 39 26s22 25 30 41s14 33 17 52c3 18 3 35 0 51s-9 30 -17 41s-18 20 -30 27s-26 10 -41 10c-16 0 -31 -3 -46 -10s-29 -16 -41 -28s-22 -26 -30 -42s-13 -33 -16 -51s-3 -35 1 -51s10 -30 18 -42s19 -21 32 -27s28 -9 44 -9zM402 65
l2 -3c-25 -21 -52 -39 -81 -53s-59 -21 -90 -21c-32 0 -61 6 -87 19s-48 31 -66 54s-31 50 -39 82s-9 67 -3 106s18 74 36 106s40 60 66 83s54 41 85 54s63 19 96 19c29 0 56 -6 81 -18s47 -28 66 -48l27 53h79l-79 -495h-78z" />
    <glyph glyph-name="uni0431" unicode="&#x431;" horiz-adv-x="571" 
d="M541 227h-1c-7 -40 -19 -75 -36 -105s-37 -55 -61 -75s-51 -35 -81 -45s-61 -15 -93 -15c-37 0 -71 6 -102 18s-56 31 -76 56s-34 56 -42 94s-8 82 0 132l1 6c11 73 29 135 54 185s55 91 90 122s74 54 117 68s87 21 132 21c28 0 54 -2 78 -6s49 -11 75 -21l-62 -126
c-19 7 -38 12 -57 15s-39 5 -60 5c-37 0 -71 -9 -103 -26s-59 -47 -80 -90c39 15 73 22 102 22c33 0 63 -5 91 -15s51 -25 70 -45s33 -44 41 -73s9 -63 3 -102zM276 119v-3c13 0 26 3 39 8s25 12 36 21s21 21 29 35s13 30 16 47c5 32 -2 57 -21 75s-43 27 -72 27
c-14 0 -28 -2 -42 -7s-26 -12 -37 -21s-20 -19 -27 -31s-12 -24 -14 -37c-3 -19 -3 -35 1 -49s10 -26 19 -36s20 -17 32 -22s26 -7 41 -7z" />
    <glyph glyph-name="uni0432" unicode="&#x432;" horiz-adv-x="545" 
d="M108 495l264 1c26 0 48 -4 66 -12s32 -19 43 -32s18 -28 22 -45s5 -34 2 -51s-8 -33 -15 -49s-17 -31 -30 -44c18 -13 31 -30 38 -51s9 -42 6 -64c-3 -19 -9 -37 -19 -55s-22 -34 -37 -48s-33 -25 -54 -33s-44 -12 -69 -12h-295zM226 371l-8 -63h107c10 0 18 3 24 10
s10 15 11 24c1 7 -1 14 -6 20s-13 9 -24 9h-104zM200 192l-10 -66h134c12 0 21 3 28 10s11 15 12 24c1 8 -1 15 -6 22s-13 10 -24 10h-134z" />
    <glyph glyph-name="uni0433" unicode="&#x433;" horiz-adv-x="438" 
d="M226 362l-57 -362h-140l79 495h347l-21 -133h-208z" />
    <glyph glyph-name="uni0434" unicode="&#x434;" horiz-adv-x="577" 
d="M370 362l-67 -1c-13 -42 -27 -82 -42 -120s-31 -74 -48 -108h121zM131 -1l-23 -113h-127l39 245h57c27 49 52 103 75 162s41 126 54 201h326l-57 -362h59l-39 -245h-126l10 113z" />
    <glyph glyph-name="uni0435" unicode="&#x435;" horiz-adv-x="550" 
d="M306 392c-27 0 -50 -9 -69 -27s-33 -41 -42 -70l187 8c-4 59 -29 89 -76 89zM475 80l-3 -2c-29 -30 -63 -53 -101 -69s-77 -24 -117 -24c-33 0 -64 6 -93 18s-54 29 -74 51s-35 49 -44 81s-11 68 -5 107c7 41 20 78 38 111s40 61 66 84s55 40 87 52s65 18 98 18
c32 0 62 -6 89 -19s50 -32 68 -57s31 -56 38 -93s7 -79 -1 -127h-337c3 -29 14 -52 33 -68s44 -24 74 -24c41 0 76 15 106 44z" />
    <glyph glyph-name="uni0436" unicode="&#x436;" horiz-adv-x="844" 
d="M339 109l-1 -1c-7 9 -14 18 -22 26s-15 17 -22 26l-145 -161h-167l236 257c-55 76 -102 155 -141 238h167c37 -80 78 -150 123 -211l33 211h140l-33 -210c38 35 73 70 104 105s59 70 84 105h168c-34 -44 -69 -87 -106 -128s-75 -81 -115 -119l159 -248h-159l-100 158
c-20 -17 -41 -34 -64 -51l-16 -106h-140z" />
    <glyph glyph-name="uni0437" unicode="&#x437;" horiz-adv-x="478" 
d="M213 -13l-7 -3c-43 0 -80 6 -112 17s-62 31 -91 59l66 92c13 -9 25 -16 36 -22s22 -11 33 -15s22 -6 34 -7s25 -2 40 -2c41 0 63 14 67 42c2 13 -5 24 -21 32s-40 12 -72 12l17 111c22 0 40 1 53 4s24 6 32 10s14 9 17 14s5 10 6 15c2 11 -2 19 -12 24s-24 7 -41 7
c-14 0 -27 0 -39 -1s-24 -2 -35 -4s-22 -5 -33 -9s-24 -8 -38 -13l-27 104c31 16 64 29 99 39s73 15 113 15c26 0 50 -3 72 -8s40 -13 55 -24s26 -25 33 -43s8 -39 4 -64c-3 -23 -12 -44 -28 -64s-36 -37 -61 -52c20 -14 35 -30 44 -49s12 -40 9 -63
c-7 -45 -28 -82 -63 -111s-85 -43 -150 -43z" />
    <glyph glyph-name="uni0438" unicode="&#x438;" horiz-adv-x="589" 
d="M29 0l79 495h139l-44 -281l231 281h140l-78 -495h-140l44 281l-231 -281h-140z" />
    <glyph glyph-name="uni0439" unicode="&#x439;" horiz-adv-x="589" 
d="M291 713h3c-1 -17 4 -32 15 -45s27 -20 48 -20s39 7 54 20s25 28 30 45h75c-13 -52 -34 -92 -63 -120s-66 -42 -111 -42c-46 0 -79 14 -100 42s-29 68 -24 120h73zM34 0l79 495h139l-44 -281l231 281h140l-78 -495h-140l44 281l-231 -281h-140z" />
    <glyph glyph-name="uni043A" unicode="&#x43a;" horiz-adv-x="559" 
d="M249 156l-2 -1c-11 -9 -21 -17 -31 -25s-20 -16 -31 -24l-17 -106h-140l79 495h139l-32 -208c69 63 131 132 186 208h174c-34 -44 -69 -87 -106 -128s-76 -81 -117 -120l158 -247h-161z" />
    <glyph glyph-name="uni043B" unicode="&#x43b;" horiz-adv-x="606" 
d="M248 195v-1c-5 -31 -14 -59 -28 -84s-32 -47 -54 -65s-47 -32 -76 -42s-60 -15 -94 -15l21 132c22 0 42 7 60 21s29 33 32 56l47 298h435l-78 -495h-140l58 362h-156l-27 -167v0z" />
    <glyph glyph-name="uni043C" unicode="&#x43c;" horiz-adv-x="684" 
d="M212 270l-43 -270h-140l79 495h143l95 -261l180 261h143l-78 -495h-140l43 268l-147 -212h-55z" />
    <glyph glyph-name="uni043D" unicode="&#x43d;" horiz-adv-x="594" 
d="M390 180h-192l-29 -180h-140l79 495h139l-28 -182h192l29 182h139l-78 -495h-139z" />
    <glyph glyph-name="uni043E" unicode="&#x43e;" horiz-adv-x="577" 
d="M254 -13l-2 -3c-33 0 -64 6 -93 18s-53 29 -73 51s-35 49 -44 81s-10 68 -4 107c7 41 20 78 38 111s40 61 66 84s56 40 89 52s67 18 103 18c34 0 66 -6 95 -19s53 -31 73 -54s34 -51 43 -83s10 -68 4 -107s-18 -74 -36 -106s-40 -59 -67 -81s-57 -39 -90 -51
s-67 -18 -102 -18zM272 116l-1 -2c16 0 31 3 46 9s28 15 40 26s22 24 30 40s14 33 17 51c3 19 3 36 0 52s-9 30 -17 42s-18 21 -31 28s-27 10 -43 10c-15 0 -30 -3 -45 -10s-28 -16 -40 -28s-22 -26 -30 -42s-13 -33 -16 -52c-3 -18 -3 -35 0 -50s9 -28 17 -39
s18 -20 31 -26s27 -9 42 -9z" />
    <glyph glyph-name="uni043F" unicode="&#x43f;" horiz-adv-x="594" 
d="M419 362h-193l-57 -362h-140l79 495h471l-78 -495h-139z" />
    <glyph glyph-name="uni0440" unicode="&#x440;" 
d="M330 376l-4 -3c-16 0 -31 -3 -46 -10s-28 -16 -40 -27s-22 -25 -30 -41s-13 -33 -16 -51c-5 -37 1 -68 18 -92s42 -36 74 -36c16 0 31 3 46 9s28 15 40 27s22 26 30 42s14 33 17 51s3 35 0 51s-9 30 -17 42s-18 21 -30 28s-26 10 -42 10zM127 -239l-140 -2l115 731h79
l12 -52c25 19 52 35 81 47s58 18 86 18c33 0 63 -6 90 -19s50 -31 68 -54s31 -50 39 -82s9 -67 3 -106s-18 -74 -36 -106s-39 -59 -64 -82s-53 -41 -83 -53s-61 -18 -93 -18c-24 0 -46 5 -66 14s-38 21 -55 36l-6 -78z" />
    <glyph glyph-name="uni0441" unicode="&#x441;" horiz-adv-x="509" 
d="M459 75l-1 -4c-28 -28 -60 -50 -95 -65s-73 -23 -114 -23c-33 0 -63 6 -91 18s-52 30 -72 53s-34 51 -42 83s-9 68 -3 108c6 39 18 74 35 106s38 59 63 82s54 41 86 53s66 18 102 18c39 0 74 -7 106 -22s58 -36 77 -64l-110 -87c-11 12 -24 22 -39 30s-33 12 -54 12
c-15 0 -29 -3 -43 -9s-27 -15 -38 -26s-21 -24 -29 -40s-13 -33 -16 -52c-6 -37 0 -68 18 -92s43 -36 75 -36c19 0 36 4 51 11s31 18 49 33z" />
    <glyph glyph-name="uni0442" unicode="&#x442;" horiz-adv-x="425" 
d="M308 370l-58 -370h-139l58 370h-126l20 125h392l-20 -125h-127z" />
    <glyph glyph-name="uni0443" unicode="&#x443;" horiz-adv-x="502" 
d="M-35 -102l-4 -2c21 2 41 8 60 18s37 22 53 36s31 30 45 47s26 34 36 50l-107 446h152l53 -308c29 50 55 101 78 153s42 104 58 156h152c-34 -89 -73 -172 -116 -250s-92 -155 -147 -230c-29 -39 -56 -74 -82 -105s-52 -57 -79 -78s-54 -37 -82 -49s-58 -18 -91 -18z" />
    <glyph glyph-name="uni0444" unicode="&#x444;" horiz-adv-x="916" 
d="M615 119v1c15 0 30 3 44 9s27 15 39 27s22 26 30 41s14 32 17 50s3 35 0 51s-9 30 -17 42s-18 21 -30 28s-26 10 -41 10s-30 -3 -45 -10s-28 -16 -40 -28s-22 -26 -30 -42s-13 -33 -16 -52c-6 -37 0 -67 17 -91s41 -36 72 -36zM275 120l-1 -2c15 0 30 3 45 10
s28 16 40 28s22 26 30 42s14 33 17 52c5 37 -1 67 -18 91s-41 36 -72 36c-15 0 -30 -3 -45 -9s-28 -15 -40 -27s-22 -25 -30 -40s-13 -32 -16 -50s-3 -35 0 -51s9 -30 17 -42s18 -21 31 -28s27 -10 42 -10zM457 -235l-140 -3l41 258c-19 -11 -39 -20 -59 -27
s-40 -10 -61 -10c-33 0 -63 6 -90 19s-49 31 -67 54s-31 51 -39 83s-9 68 -3 107s18 74 36 106s39 59 64 82s53 41 83 53s61 18 93 18c24 0 46 -5 66 -14s38 -21 54 -36l6 81l29 188h139l-40 -254c19 11 39 20 59 27s41 10 62 10c33 0 63 -6 90 -19s50 -31 68 -54
s31 -51 38 -83s8 -67 2 -106s-18 -74 -36 -106s-39 -59 -64 -82s-53 -40 -83 -52s-61 -18 -92 -18c-24 0 -46 5 -66 14s-38 21 -54 36l-5 -80z" />
    <glyph glyph-name="uni0445" unicode="&#x445;" horiz-adv-x="549" 
d="M260 154v-1c-24 -20 -46 -43 -66 -68s-37 -54 -51 -86h-159c30 55 63 103 100 145s76 78 118 109l-134 241h160l74 -160c23 21 44 45 62 72s34 56 49 88h159c-25 -48 -55 -93 -90 -135s-75 -82 -121 -120l137 -239h-159z" />
    <glyph glyph-name="uni0446" unicode="&#x446;" horiz-adv-x="625" 
d="M415 -112l10 112h-396l78 495h140l-57 -362h188l57 362h140l-58 -362h63l-39 -245h-126z" />
    <glyph glyph-name="uni0447" unicode="&#x447;" horiz-adv-x="547" 
d="M315 0l15 98l19 75c-15 -9 -30 -16 -45 -21s-30 -7 -45 -7c-35 0 -66 6 -93 17s-49 28 -66 50s-29 50 -35 83s-6 71 1 114l14 86h139l-12 -74c-7 -50 -3 -85 12 -106s39 -31 72 -31c12 0 24 2 36 6s24 10 36 17l30 188h139l-78 -495h-139z" />
    <glyph glyph-name="uni0448" unicode="&#x448;" horiz-adv-x="831" 
d="M108 495h139l-57 -362h145l57 362h140l-58 -362h145l58 362h139l-78 -495h-709z" />
    <glyph glyph-name="uni0449" unicode="&#x449;" horiz-adv-x="866" 
d="M656 -112l10 112h-637l78 495h140l-57 -362h145l57 362h139l-57 -362h145l57 362h140l-57 -362h62l-39 -245h-126z" />
    <glyph glyph-name="uni044A" unicode="&#x44a;" horiz-adv-x="587" 
d="M291 227l-16 -101h85c15 0 27 5 36 15s15 22 17 36c2 13 0 25 -6 35s-17 15 -32 15h-84zM174 371h-125l19 125h264l-23 -144h102c28 0 52 -5 72 -15s36 -23 48 -39s20 -35 24 -56s4 -42 1 -64s-10 -44 -21 -65s-24 -40 -40 -57s-35 -30 -57 -40s-46 -15 -72 -15h-251z
" />
    <glyph glyph-name="uni044B" unicode="&#x44b;" horiz-adv-x="731" 
d="M498 0l78 495h140l-78 -495h-140zM205 227l-16 -101h94c15 0 27 5 36 15s15 22 17 36c2 13 0 25 -6 35s-16 15 -31 15h-94zM108 496h138l-22 -144h110c28 0 52 -5 72 -15s36 -23 48 -39s20 -35 24 -56s4 -42 1 -64c-4 -22 -11 -44 -22 -65s-24 -40 -40 -57
s-35 -30 -57 -40s-45 -15 -70 -15h-261z" />
    <glyph glyph-name="uni044C" unicode="&#x44c;" horiz-adv-x="511" 
d="M205 227l-16 -101h94c15 0 27 5 36 15s15 22 17 36c2 13 0 25 -6 35s-16 15 -31 15h-94zM108 496h138l-22 -144h110c28 0 52 -5 72 -15s36 -23 48 -39s20 -35 24 -56s4 -42 1 -64c-4 -22 -11 -44 -22 -65s-24 -40 -40 -57s-35 -30 -57 -40s-45 -15 -70 -15h-261z" />
    <glyph glyph-name="uni044D" unicode="&#x44d;" horiz-adv-x="511" 
d="M196 -13l-3 -7c-39 0 -75 8 -107 23s-58 37 -77 66l109 87c15 -15 29 -26 42 -33s30 -10 50 -10c28 0 52 8 72 24s35 37 45 62h-168l14 88h167c-3 26 -12 47 -27 62s-34 23 -57 23c-20 0 -39 -4 -57 -12s-34 -19 -48 -32l-84 90c28 28 60 50 97 65s75 23 114 23
c33 0 63 -6 91 -19s52 -31 71 -54s33 -51 41 -83s9 -68 3 -107s-18 -74 -36 -106s-39 -59 -64 -81s-54 -39 -86 -51s-66 -18 -102 -18z" />
    <glyph glyph-name="uni044E" unicode="&#x44e;" horiz-adv-x="795" 
d="M474 -13l-6 -5c-29 0 -56 5 -81 14s-47 22 -66 39s-35 37 -47 61s-19 51 -22 81h-59l-29 -180h-140l79 495h139l-28 -182h60c12 30 28 57 48 81s42 45 67 62s51 30 79 39s56 14 84 14c34 0 66 -6 95 -19s53 -31 73 -54s34 -51 43 -83s11 -68 5 -107s-18 -74 -37 -106
s-42 -59 -69 -81s-57 -39 -89 -51s-65 -18 -99 -18zM487 114l-3 -2c16 0 31 3 46 9s28 15 40 26s22 24 30 40s14 33 17 51c3 19 3 36 0 52s-9 30 -17 42s-18 21 -30 28s-26 10 -42 10s-31 -3 -45 -10s-27 -16 -39 -28s-22 -26 -30 -42s-13 -33 -16 -52c-3 -18 -3 -35 0 -50
s9 -28 17 -39s18 -20 30 -26s26 -9 42 -9z" />
    <glyph glyph-name="uni044F" unicode="&#x44f;" horiz-adv-x="542" 
d="M354 279l13 92h-112c-12 0 -22 -4 -30 -13s-13 -19 -14 -30c-2 -13 -1 -24 4 -34s14 -15 27 -15h112zM333 155l-89 -1l-100 -154h-149l119 184c-21 17 -35 39 -42 66s-8 56 -3 86c3 20 10 40 20 59s23 36 38 51s33 27 53 36s42 14 66 14h281l-79 -495h-139z" />
    <glyph glyph-name="uni0451" unicode="&#x451;" horiz-adv-x="550" 
d="M227 562l-1 1c-24 0 -43 9 -57 26s-19 38 -14 63c2 12 6 23 12 34s14 20 23 28s19 14 30 19s23 7 35 7c22 0 40 -8 54 -25s19 -38 15 -63c-2 -13 -6 -25 -12 -36s-13 -20 -22 -28s-19 -14 -30 -19s-22 -7 -33 -7zM443 563c-24 0 -43 9 -57 26s-19 38 -15 63s16 46 35 63
s41 26 65 26c22 0 40 -8 54 -25s19 -38 15 -63c-2 -13 -6 -25 -12 -36s-13 -20 -22 -28s-19 -14 -30 -19s-22 -7 -33 -7zM305 393c-27 0 -50 -9 -69 -27s-33 -41 -42 -70l187 8c-4 59 -29 89 -76 89zM474 81l-3 -2c-29 -30 -63 -53 -101 -69s-77 -24 -117 -24
c-33 0 -64 6 -93 18s-54 29 -74 51s-35 49 -44 81s-11 68 -5 107c7 41 20 78 38 111s40 61 66 84s55 40 87 52s65 18 98 18c32 0 62 -6 89 -19s50 -32 68 -57s31 -56 38 -93s7 -79 -1 -127h-337c3 -29 14 -52 33 -68s44 -24 74 -24c41 0 76 15 106 44z" />
    <glyph glyph-name="uni0452" unicode="&#x452;" horiz-adv-x="589" 
d="M496 -22l-1 -4c-5 -32 -15 -61 -29 -87s-32 -48 -54 -66s-48 -32 -77 -42s-61 -15 -96 -15l21 132c23 0 44 8 63 23s30 35 33 60l46 289c5 35 1 60 -13 76s-34 24 -59 24c-37 0 -75 -18 -113 -54c-5 -28 -10 -60 -15 -96s-10 -70 -15 -103c-6 -38 -12 -77 -18 -116h-139
l87 553h-47l15 96h47l13 78h139l-12 -78h205l-15 -96h-205l-3 -20l-22 -93c25 21 52 38 80 50s55 18 81 18c25 0 48 -4 69 -12s39 -20 54 -37s26 -38 32 -64s6 -57 0 -93l-52 -323v0z" />
    <glyph glyph-name="uni0453" unicode="&#x453;" horiz-adv-x="431" 
d="M204 552l84 150h159l-115 -150h-128zM228 362l-57 -362h-140l79 495h347l-21 -133h-208z" />
    <glyph glyph-name="uni0454" unicode="&#x454;" horiz-adv-x="514" 
d="M460 75h1c-28 -29 -61 -51 -98 -66s-75 -22 -114 -22c-32 0 -62 6 -90 18s-52 29 -71 51s-33 49 -42 81s-10 68 -4 107s19 75 38 107s42 60 68 83s55 41 87 54s64 19 97 19c38 0 73 -7 105 -22s58 -36 77 -64l-112 -90c-10 13 -22 24 -37 32s-32 12 -52 12
c-23 0 -45 -7 -66 -22s-37 -35 -48 -61h167l-14 -91h-166c4 -25 14 -45 30 -60s36 -22 59 -22c19 0 36 4 51 11s32 18 51 33l83 -88v0z" />
    <glyph glyph-name="uni0455" unicode="&#x455;" horiz-adv-x="515" 
d="M73 170l-2 -5c36 -21 69 -36 99 -44s62 -12 95 -12c15 0 27 3 36 9s14 13 15 20c1 9 -2 16 -9 21s-18 9 -33 13c-42 10 -76 21 -102 33s-46 25 -60 39s-23 29 -27 45s-5 33 -3 51c2 23 9 45 21 65s28 38 47 53s42 27 69 35s57 12 90 12c17 0 35 -1 54 -3s38 -5 56 -9
s35 -9 51 -16s30 -15 41 -24l-63 -110c-18 11 -41 20 -69 26s-56 9 -84 9c-17 0 -32 -2 -44 -7s-19 -12 -20 -22c-1 -9 1 -16 7 -21s17 -9 34 -13c37 -9 69 -19 95 -30s47 -23 63 -36s27 -28 33 -45s7 -37 4 -60s-10 -44 -22 -63s-28 -36 -48 -50s-43 -25 -70 -33
s-56 -12 -88 -12c-47 0 -89 5 -127 16s-72 29 -103 54z" />
    <glyph glyph-name="uni0456" unicode="&#x456;" horiz-adv-x="265" 
d="M191 566l-1 -2c-24 0 -43 9 -57 26s-19 38 -15 63c2 12 6 23 12 34s14 20 23 28s19 14 30 19s23 7 35 7c23 0 41 -8 55 -25s19 -37 15 -61c-4 -25 -15 -46 -34 -63s-40 -26 -63 -26zM108 493h139l-79 -495h-139z" />
    </font>
</defs>
</svg>
