<?xml version="1.0" standalone="no"?>
<!DOCTYPE svg PUBLIC "-//W3C//DTD SVG 1.1//EN" "http://www.w3.org/Graphics/SVG/1.1/DTD/svg11.dtd" >
<svg xmlns="http://www.w3.org/2000/svg" xmlns:xlink="http://www.w3.org/1999/xlink" version="1.1">
<metadata>
Created by FontForge 20160407 at Mon Sep 26 17:46:59 2016
 By Jimmy Warting
Copyright (c) 2014 by Josep Patau Bellart. All rights reserved.
</metadata>
<defs>
<font id="Naste-Italic" horiz-adv-x="590" >
  <font-face 
    font-family="Naste"
    font-weight="400"
    font-style="italic"
    font-stretch="normal"
    units-per-em="1000"
    panose-1="2 0 0 0 0 0 0 0 0 0"
    ascent="755"
    descent="-245"
    x-height="494"
    cap-height="675"
    bbox="-198 -338 1330 1042"
    underline-thickness="93"
    underline-position="-186"
    slope="-9"
    unicode-range="U+0020-FB04"
  />
<missing-glyph horiz-adv-x="478" 
d="M143 750h374l-159 -1000h-374zM319 -200l143 900h-280l-143 -900h280z" />
    <glyph glyph-name="f_f" unicode="ff" horiz-adv-x="564" 
d="M424 -58v-1c-10 -63 -35 -108 -75 -136s-92 -42 -156 -42l26 102c28 0 50 7 66 21s26 32 29 54l71 451h-37l17 102h36l6 41c10 63 35 109 75 137s92 42 155 42l-25 -102c-28 0 -50 -7 -66 -21s-25 -32 -28 -54l-7 -41h83l-4 -30l-21 -72h-74zM145 -59l-2 -1
c-10 -63 -35 -108 -75 -136s-92 -42 -155 -42l25 102c28 0 50 7 66 21s26 32 29 54l71 451h-36l16 102h36l7 41c10 63 35 109 75 137s92 42 156 42l-26 -102c-28 0 -50 -7 -66 -21s-25 -32 -28 -54l-6 -41h83l-5 -30l-21 -72h-73z" />
    <glyph glyph-name="fi" unicode="fi" horiz-adv-x="527" 
d="M470 578l3 -2c-20 0 -36 8 -48 23s-16 33 -13 54s13 39 29 53s34 21 54 21c19 0 34 -7 45 -21s15 -31 12 -52s-13 -39 -29 -54s-34 -22 -53 -22zM402 493h111l-78 -495h-111zM150 -60l1 -1c-10 -63 -35 -108 -75 -136s-92 -42 -156 -42l26 102c28 0 50 7 66 21
s25 32 28 54l71 451h-37l17 102h36l6 41c10 63 35 109 75 137s92 42 155 42l-25 -102c-28 0 -50 -7 -66 -21s-25 -32 -28 -54l-7 -41h83l-4 -30l-21 -72h-74z" />
    <glyph glyph-name="fl" unicode="fl" horiz-adv-x="522" 
d="M430 714h111l-113 -714h-111zM145 -58l-2 -1c-10 -63 -35 -108 -75 -136s-92 -42 -155 -42l25 102c28 0 50 7 66 21s26 32 29 54l71 451h-36l16 102h36l7 41c10 63 35 109 75 137s92 42 156 42l-26 -102c-28 0 -50 -7 -66 -21s-25 -32 -28 -54l-6 -41h83l-5 -30l-21 -72
h-73z" />
    <glyph glyph-name="f_f_i" unicode="ffi" horiz-adv-x="803" 
d="M747 578l2 -2c-20 0 -36 8 -48 23s-16 33 -13 54s13 39 29 53s34 21 54 21c19 0 34 -7 45 -21s15 -31 12 -52c-2 -11 -5 -21 -10 -30s-11 -17 -19 -24s-16 -12 -25 -16s-18 -6 -27 -6zM678 493h111l-78 -495h-111zM426 -60v-1c-10 -63 -35 -108 -75 -136
s-92 -42 -156 -42l26 102c28 0 50 7 66 21s26 32 29 54l71 451h-37l17 102h36l6 41c10 63 35 109 75 137s92 42 155 42l-25 -102c-28 0 -50 -7 -66 -21s-25 -32 -28 -54l-7 -41h83l-4 -30l-21 -72h-74zM147 -61l-2 -1c-10 -63 -35 -108 -75 -136s-92 -42 -155 -42l25 102
c28 0 50 7 66 21s26 32 29 54l71 451h-36l16 102h36l7 41c10 63 35 109 75 137s92 42 156 42l-26 -102c-28 0 -50 -7 -66 -21s-25 -32 -28 -54l-6 -41h83l-5 -30l-21 -72h-73z" />
    <glyph glyph-name="f_f_l" unicode="ffl" horiz-adv-x="801" 
d="M710 714h111l-113 -714h-111zM424 -58v-1c-10 -63 -35 -108 -75 -136s-92 -42 -156 -42l26 102c28 0 50 7 66 21s26 32 29 54l71 451h-37l17 102h36l6 41c10 63 35 109 75 137s92 42 155 42l-25 -102c-28 0 -50 -7 -66 -21s-25 -32 -28 -54l-7 -41h83l-4 -30l-21 -72h-74
zM145 -59l-2 -1c-10 -63 -35 -108 -75 -136s-92 -42 -155 -42l25 102c28 0 50 7 66 21s26 32 29 54l71 451h-36l16 102h36l7 41c10 63 35 109 75 137s92 42 156 42l-26 -102c-28 0 -50 -7 -66 -21s-25 -32 -28 -54l-6 -41h83l-5 -30l-21 -72h-73z" />
    <glyph glyph-name=".notdef" horiz-adv-x="478" 
d="M143 750h374l-159 -1000h-374zM319 -200l143 900h-280l-143 -900h280z" />
    <glyph glyph-name="space" unicode=" " horiz-adv-x="204" 
 />
    <glyph glyph-name="exclam" unicode="!" horiz-adv-x="204" 
d="M108 574l16 101h116l-16 -101l-81 -374h-73zM73 -13l2 -1c-20 0 -36 8 -48 23s-16 33 -13 54s13 39 29 54s34 22 54 22c19 0 34 -7 45 -22s15 -33 12 -54c-2 -11 -5 -21 -10 -30s-11 -17 -19 -24s-16 -12 -25 -16s-18 -6 -27 -6z" />
    <glyph glyph-name="quotedbl" unicode="&#x22;" horiz-adv-x="325" 
d="M95 574l16 101h105l-16 -101l-42 -124h-61zM249 574l16 101h105l-16 -101l-41 -124h-62z" />
    <glyph glyph-name="numbersign" unicode="#" horiz-adv-x="643" 
d="M438 405h-127l-43 -135h126zM357 157h-126l-51 -157h-112l51 157h-98l37 113h98l43 135h-100l36 113h101l51 157h112l-51 -157h126l51 157h112l-51 -157h90l-36 -113h-90l-44 -135h93l-37 -113h-93l-51 -157h-112z" />
    <glyph glyph-name="dollar" unicode="$" horiz-adv-x="600" 
d="M250 498v1c-2 -11 -2 -21 0 -30s6 -17 12 -24s15 -13 26 -19s25 -12 42 -18l26 164c-28 -1 -52 -8 -72 -22s-31 -31 -34 -52zM325 103l-1 1c31 0 58 8 81 24s37 37 41 63c3 24 -3 42 -19 55s-43 24 -81 34l-28 -177h7zM299 -11l-15 -90h-37l15 97c-46 3 -87 13 -124 29
s-72 39 -105 69l65 98c57 -45 118 -71 183 -79l29 185c-43 13 -77 27 -103 42s-45 31 -58 48s-21 35 -24 54s-3 39 0 60c4 25 13 49 26 72s30 43 51 60s46 31 75 41s61 15 96 15l17 105h36l-17 -106c40 -3 78 -10 115 -22s70 -32 100 -60l-61 -98c-25 19 -52 34 -81 44
s-59 17 -91 20l-27 -174c43 -14 79 -28 107 -42s50 -29 65 -45s25 -34 30 -54s5 -42 1 -67c-5 -29 -15 -56 -30 -81s-34 -46 -57 -64s-50 -32 -80 -42s-62 -15 -97 -15h-4z" />
    <glyph glyph-name="percent" unicode="%" horiz-adv-x="717" 
d="M100 533h-1c3 22 10 42 20 61s23 35 38 49s33 25 53 33s41 12 63 12s42 -4 59 -12s31 -19 42 -33s19 -30 23 -49s5 -39 2 -61s-10 -43 -21 -62s-24 -36 -39 -50s-33 -25 -53 -33s-41 -12 -63 -12c-24 0 -45 4 -62 12s-31 19 -41 33s-17 31 -20 50s-3 40 0 62zM181 0h-71
l472 675h70zM175 531l-2 -2c-4 -25 0 -44 12 -57s28 -19 49 -19c20 0 39 7 56 21s27 33 30 56c4 25 0 44 -12 57s-28 20 -49 20c-19 0 -37 -7 -54 -21s-27 -32 -30 -55zM366 142c3 22 10 42 20 61s23 35 38 49s33 25 53 33s41 12 63 12s42 -4 59 -12s31 -19 42 -33
s19 -30 23 -49s5 -39 2 -61s-10 -43 -21 -62s-24 -36 -39 -50s-32 -25 -52 -33s-41 -12 -63 -12c-24 0 -45 4 -62 12s-31 19 -42 33s-18 31 -21 50s-3 40 0 62zM503 64l-2 -1c20 0 39 7 56 21s27 32 30 55c4 25 0 44 -12 57s-28 20 -49 20c-19 0 -37 -7 -54 -21
s-27 -32 -30 -55c-4 -25 0 -44 12 -57s28 -19 49 -19z" />
    <glyph glyph-name="ampersand" unicode="&#x26;" horiz-adv-x="678" 
d="M457 76l-2 -4c-36 -29 -72 -51 -109 -66s-75 -23 -115 -23c-32 0 -61 5 -87 14s-47 22 -64 38s-29 35 -37 57s-10 46 -6 71c7 48 25 87 53 118s66 58 114 81c-19 25 -32 49 -39 73s-8 51 -3 82c4 24 13 46 26 67s29 39 49 54s42 27 67 35s51 12 78 12c28 0 53 -4 74 -13
s38 -21 52 -36s24 -32 29 -52s6 -41 3 -63c-5 -36 -20 -70 -44 -101s-56 -58 -96 -81l82 -94c31 37 60 79 87 126l89 -46c-35 -59 -71 -111 -108 -156l86 -99l-99 -86zM331 415l-1 -4c24 11 44 24 59 39s24 32 27 52c3 19 -1 35 -11 48s-26 20 -47 20c-17 0 -33 -5 -48 -16
s-24 -26 -27 -45c-1 -9 -1 -18 1 -26s5 -16 10 -23s11 -14 17 -21s13 -15 20 -24zM255 96v-1c42 0 86 17 131 51l-116 133c-32 -11 -58 -24 -77 -39s-31 -37 -36 -65c-4 -23 3 -42 20 -57s43 -22 78 -22z" />
    <glyph glyph-name="quotesingle" unicode="'" horiz-adv-x="176" 
d="M100 574l16 101h105l-16 -101l-42 -124h-61z" />
    <glyph glyph-name="parenleft" unicode="(" horiz-adv-x="361" 
d="M220 -276h-2c-72 59 -123 130 -154 213s-38 177 -21 282s53 200 109 284s129 155 218 212l43 -90c-38 -27 -71 -55 -100 -85s-53 -61 -73 -94s-37 -68 -50 -106s-23 -78 -30 -121c-13 -86 -10 -162 9 -227s58 -124 118 -176l-67 -92v0z" />
    <glyph glyph-name="parenright" unicode=")" horiz-adv-x="361" 
d="M-41 -184v-1c77 52 135 111 175 176s67 141 80 227s10 162 -9 228s-58 126 -117 179l72 90c71 -57 121 -128 151 -212s36 -179 19 -284s-54 -199 -111 -282s-131 -154 -222 -213z" />
    <glyph glyph-name="asterisk" unicode="*" horiz-adv-x="376" 
d="M308 486l44 -86l-76 -53l-45 87l-73 -87l-60 53l72 85l-91 34l40 86l90 -34l18 109h84l-17 -109l99 33l12 -86z" />
    <glyph glyph-name="plus" unicode="+" horiz-adv-x="456" 
d="M279 190l-24 -153h-100l24 153h-142l17 107h142l25 153h100l-24 -153h143l-17 -107h-144z" />
    <glyph glyph-name="comma" unicode="," horiz-adv-x="199" 
d="M8 -104l-1 -2c13 16 25 31 35 45s18 30 24 47c-19 1 -34 9 -45 24s-15 33 -12 54s13 39 29 53s34 21 54 21s35 -8 46 -25s14 -37 10 -60v-1c-5 -32 -17 -63 -36 -93s-48 -59 -87 -87z" />
    <glyph glyph-name="hyphen" unicode="-" horiz-adv-x="461" 
d="M57 301h386l-18 -113h-386z" />
    <glyph glyph-name="period" unicode="." horiz-adv-x="197" 
d="M70 -13l1 -1c-21 0 -37 8 -48 23s-15 33 -12 54s13 39 29 54s34 22 54 22c19 0 34 -7 45 -22s15 -33 12 -54c-2 -11 -5 -21 -10 -30s-11 -17 -19 -24s-16 -12 -25 -16s-18 -6 -27 -6z" />
    <glyph glyph-name="slash" unicode="/" horiz-adv-x="284" 
d="M264 675h92l-286 -675h-92z" />
    <glyph glyph-name="zero" unicode="0" horiz-adv-x="647" 
d="M293 -13h1c-39 0 -74 7 -106 22s-58 37 -79 66s-35 65 -43 109s-7 95 2 154c9 58 25 109 47 153s48 81 78 110s63 51 99 66s74 22 113 22s74 -7 106 -22s58 -37 79 -66s35 -66 43 -110s7 -95 -2 -153c-9 -59 -24 -110 -46 -154s-48 -80 -78 -109s-63 -51 -100 -66
s-75 -22 -114 -22zM313 104l-2 -2c22 0 44 5 65 15s41 25 59 45s34 44 47 73s23 63 29 101s7 72 3 101s-12 53 -23 73s-26 35 -44 45s-38 15 -60 15s-44 -5 -65 -15s-41 -25 -59 -45s-33 -44 -46 -73s-22 -62 -28 -100s-7 -71 -3 -100s12 -53 23 -73s26 -35 44 -45
s38 -15 60 -15z" />
    <glyph glyph-name="one" unicode="1" horiz-adv-x="438" 
d="M38 0l17 113h112l68 432l-125 -69l-34 99l180 100h115l-90 -562h111l-18 -113h-336z" />
    <glyph glyph-name="two" unicode="2" horiz-adv-x="574" 
d="M32 0l15 102c6 40 20 75 41 104s46 55 75 77s59 42 91 59s62 34 90 50s52 32 71 48s30 34 33 54c3 23 -4 42 -22 56s-43 21 -74 21c-39 0 -75 -6 -109 -18s-68 -32 -102 -59l-42 81c46 39 91 67 135 85s92 27 144 27c33 0 62 -5 87 -15s46 -23 63 -40s29 -37 36 -61
s8 -50 3 -79c-5 -33 -18 -61 -38 -84s-44 -44 -72 -63s-57 -36 -88 -51s-60 -31 -87 -48s-50 -35 -70 -55s-32 -43 -36 -70l-2 -8h343l-18 -113h-467z" />
    <glyph glyph-name="three" unicode="3" horiz-adv-x="574" 
d="M269 -13h-3c-50 0 -94 8 -132 24s-74 42 -107 78l65 83c29 -25 58 -43 86 -53s62 -15 101 -15s69 8 89 25s32 39 37 67c5 29 -5 53 -31 71s-65 27 -118 27l17 107c36 0 65 3 87 9s40 14 53 23s22 19 27 30s9 22 11 33c2 14 1 26 -3 36s-11 18 -20 24s-21 10 -35 13
s-29 4 -46 4s-33 -1 -48 -4s-30 -7 -45 -12s-30 -11 -45 -19s-31 -16 -48 -25l-32 93c38 27 78 48 119 62s85 21 132 21c32 0 61 -3 87 -10s48 -18 66 -33s31 -34 39 -57s10 -50 5 -82c-5 -34 -18 -65 -39 -93s-50 -51 -87 -70c29 -17 51 -39 65 -65s18 -55 13 -87
c-5 -30 -14 -58 -27 -83s-30 -47 -52 -65s-48 -32 -78 -42s-64 -15 -103 -15z" />
    <glyph glyph-name="four" unicode="4" horiz-adv-x="578" 
d="M407 520l-241 -268h198zM461 139l-22 -139h-115l22 139h-326l18 113l387 423h121l-67 -423h83l-18 -113h-83z" />
    <glyph glyph-name="five" unicode="5" horiz-adv-x="561" 
d="M233 -13l-1 -1c-48 0 -90 7 -126 22s-70 37 -103 66l68 87c29 -22 57 -38 84 -48s59 -15 96 -15c50 0 88 10 114 31s42 49 47 85c5 34 -7 62 -36 84s-73 33 -133 33c-23 0 -46 -2 -70 -6s-47 -10 -70 -19l-17 -7l95 375h386l-30 -113h-276l-32 -124l30 3s20 2 30 2
c45 0 84 -6 116 -17s58 -27 77 -47s32 -44 39 -71s8 -57 3 -89c-5 -34 -15 -65 -30 -93s-34 -52 -58 -72s-53 -36 -87 -48s-73 -18 -116 -18z" />
    <glyph glyph-name="six" unicode="6" horiz-adv-x="594" 
d="M560 226l-3 1c-6 -40 -18 -75 -35 -105s-38 -55 -62 -75s-51 -35 -82 -45s-63 -15 -96 -15c-37 0 -71 6 -102 18s-57 30 -78 54s-36 54 -45 90s-9 79 -1 128l1 8c13 78 32 143 58 195s56 93 91 124s74 53 116 66s86 19 132 19c28 0 54 -2 78 -6s50 -10 77 -19l-53 -109
c-20 7 -40 12 -60 15s-41 5 -62 5c-23 0 -45 -3 -67 -9s-42 -15 -61 -28s-37 -30 -53 -51s-30 -46 -42 -76c23 10 46 18 69 24s44 9 63 9c35 0 67 -5 96 -14s53 -23 73 -41s34 -41 43 -68s11 -59 5 -95zM284 105l-2 -1c19 0 37 3 54 8s33 13 47 23s26 22 35 37s15 32 18 51
c5 34 -4 60 -28 78s-56 27 -96 27c-18 0 -35 -2 -52 -7s-32 -12 -45 -21s-24 -19 -33 -31s-14 -24 -16 -37c-3 -21 -2 -39 3 -55s13 -29 23 -40s23 -19 39 -24s34 -8 53 -8z" />
    <glyph glyph-name="seven" unicode="7" horiz-adv-x="563" 
d="M51 0l383 562h-340l18 113h517l-460 -675h-118z" />
    <glyph glyph-name="eight" unicode="8" horiz-adv-x="625" 
d="M286 -13l1 2c-37 0 -71 4 -102 12s-57 21 -79 38s-38 38 -48 63s-12 55 -7 89c6 39 21 72 46 98s56 46 93 60c-24 13 -42 32 -54 57s-14 58 -7 98c5 30 15 57 31 80s36 42 60 57s51 27 80 35s60 12 92 12s62 -4 89 -12s50 -20 69 -36s33 -36 41 -60s10 -51 5 -82
c-6 -39 -18 -70 -37 -94s-42 -42 -70 -55c32 -15 56 -35 72 -61s21 -58 15 -97c-5 -34 -16 -64 -34 -90s-40 -47 -66 -64s-55 -30 -88 -38s-67 -12 -102 -12zM350 408l-3 -1c16 0 31 2 45 6s27 9 39 16s22 16 30 26s13 22 15 35s1 25 -3 35s-11 19 -20 26s-20 12 -33 16
s-28 6 -44 6s-31 -2 -45 -6s-27 -9 -38 -16s-20 -15 -28 -25s-13 -22 -15 -35c-5 -27 3 -48 23 -62s46 -21 77 -21zM299 105h-1c20 0 39 2 57 6s34 10 48 18s26 18 35 29s15 24 17 39c3 15 2 28 -4 39s-15 21 -27 29s-26 14 -43 18s-35 6 -55 6c-39 0 -74 -8 -104 -23
s-48 -38 -53 -69c-2 -15 0 -28 6 -39s15 -21 27 -29s26 -14 43 -18s35 -6 54 -6z" />
    <glyph glyph-name="nine" unicode="9" horiz-adv-x="594" 
d="M356 571l1 -3c-18 0 -35 -2 -52 -7s-32 -12 -46 -22s-26 -22 -36 -37s-16 -32 -19 -51c-5 -34 5 -60 29 -78s56 -27 95 -27c18 0 35 3 52 8s32 12 45 21s24 19 33 31s15 25 17 38c3 21 2 39 -3 55s-13 29 -24 40s-24 19 -40 24s-33 8 -52 8zM190 -16l2 -1
c-28 0 -54 2 -78 6s-49 11 -76 20l51 109c39 -13 80 -20 123 -20c47 0 90 12 129 36s71 66 95 126c-23 -10 -46 -18 -69 -24s-45 -9 -65 -9c-35 0 -67 5 -96 15s-53 24 -73 43s-34 43 -43 71s-10 61 -4 98c6 39 18 73 35 102s38 53 63 72s53 33 84 43s64 15 98 15
c37 0 71 -6 102 -18s57 -30 77 -54s34 -54 42 -90s8 -78 0 -127l-1 -9c-13 -78 -32 -143 -58 -195s-56 -93 -91 -124s-73 -53 -115 -66s-86 -19 -132 -19z" />
    <glyph glyph-name="colon" unicode=":" horiz-adv-x="205" 
d="M132 356l3 -1c-20 0 -36 8 -48 23s-16 33 -13 54s13 39 29 54s34 22 54 22c19 0 34 -7 45 -22s15 -33 12 -54s-13 -39 -29 -54s-34 -22 -53 -22zM77 -14l-3 -1c-21 0 -37 8 -48 23s-15 33 -12 54s13 39 29 54s34 22 55 22c19 0 34 -7 46 -22s16 -33 13 -54
c-2 -11 -6 -21 -11 -30s-11 -17 -18 -24s-15 -12 -24 -16s-18 -6 -27 -6z" />
    <glyph glyph-name="semicolon" unicode=";" horiz-adv-x="206" 
d="M132 356l3 -1c-20 0 -36 8 -48 23s-16 33 -13 54s13 39 29 54s34 22 54 22c19 0 34 -7 45 -22s15 -33 12 -54s-13 -39 -29 -54s-34 -22 -53 -22zM15 -105l-3 -1c14 16 26 31 36 45s18 30 25 47c-19 1 -34 9 -45 24s-15 33 -12 54s13 39 29 53s34 21 54 21s35 -8 46 -25
s15 -37 12 -60c-5 -32 -17 -63 -36 -94s-49 -60 -89 -88z" />
    <glyph glyph-name="less" unicode="&#x3c;" horiz-adv-x="487" 
d="M39 185l21 131l437 162l-19 -123l-329 -105l292 -102l-19 -123z" />
    <glyph glyph-name="equal" unicode="=" horiz-adv-x="464" 
d="M77 415h386l-18 -113h-386zM41 187h386l-18 -113h-386z" />
    <glyph glyph-name="greater" unicode="&#x3e;" horiz-adv-x="487" 
d="M15 25l20 123l325 102l-296 105l19 123l387 -162l-21 -131z" />
    <glyph glyph-name="question" unicode="?" horiz-adv-x="527" 
d="M183 171l29 200c62 0 111 11 148 33s58 50 63 84c5 27 -1 48 -17 63s-44 23 -85 23c-36 0 -69 -6 -100 -17s-61 -27 -90 -48l-41 91c38 31 79 54 122 68s86 21 128 21c39 0 72 -5 99 -15s49 -24 65 -42s27 -39 32 -63s5 -50 0 -79c-4 -25 -12 -49 -24 -72
s-28 -44 -48 -63s-43 -35 -70 -48s-58 -22 -93 -27l-17 -109h-101zM203 -11l-3 2c-19 0 -34 7 -44 21s-13 31 -10 51c3 19 12 35 27 48s32 20 51 20c17 0 31 -7 42 -20s15 -29 12 -48c-1 -10 -4 -19 -9 -28s-11 -17 -18 -24s-15 -12 -23 -16s-16 -6 -25 -6z" />
    <glyph glyph-name="at" unicode="@" horiz-adv-x="769" 
d="M317 -88l-10 -2c-49 0 -92 10 -128 30s-65 46 -87 78s-37 68 -45 108s-9 80 -3 119c9 53 25 101 47 144s51 79 86 109s75 53 120 69s94 24 147 24c49 0 93 -7 132 -21s72 -34 98 -61s45 -60 56 -99s13 -84 5 -135c-5 -31 -13 -60 -23 -87s-23 -51 -38 -71
s-32 -36 -51 -48s-39 -18 -61 -18c-21 0 -40 4 -57 12s-29 19 -36 33c-19 -15 -40 -27 -62 -36s-44 -13 -67 -13c-24 0 -46 5 -66 15s-37 24 -51 42s-24 39 -30 63s-7 51 -2 80c5 28 14 54 28 78s31 45 51 63s42 32 66 42s48 15 72 15c23 0 44 -4 64 -13s37 -21 52 -36
l12 37h60l-41 -256c-2 -13 0 -24 5 -33s12 -13 21 -13c13 0 25 4 36 13s21 20 29 33s15 28 21 45s10 34 13 51c7 42 6 79 -2 111s-22 59 -43 81s-47 38 -79 49s-69 16 -111 16c-47 0 -89 -7 -127 -21s-71 -33 -99 -58s-51 -55 -69 -90s-30 -73 -37 -115c-5 -32 -4 -64 2 -96
s18 -61 36 -87s42 -47 71 -63s64 -24 105 -24zM384 352l4 1c-13 0 -25 -3 -37 -9s-23 -14 -33 -24s-18 -21 -25 -33s-11 -25 -13 -39s-2 -27 0 -40s6 -24 12 -34s14 -18 24 -24s22 -9 35 -9c27 0 51 10 72 30s34 46 39 77c3 15 3 29 0 42s-8 24 -15 33s-16 16 -27 21
s-23 8 -36 8z" />
    <glyph glyph-name="A" unicode="A" horiz-adv-x="677" 
d="M399 548l-151 -286h212zM484 150h-295l-79 -150h-125l371 675h123l157 -675h-120z" />
    <glyph glyph-name="B" unicode="B" horiz-adv-x="655" 
d="M151 675l315 -2c29 0 54 -5 75 -15s38 -23 50 -40s21 -36 26 -58s5 -45 1 -69c-4 -25 -12 -49 -24 -72s-27 -43 -44 -60c27 -15 46 -38 57 -68s14 -62 9 -96c-4 -25 -12 -49 -24 -73s-27 -45 -46 -63s-41 -32 -66 -43s-53 -16 -83 -16h-353zM245 561l-27 -164h189
c12 0 23 3 33 8s19 11 27 19s14 17 19 26s8 19 9 29c1 11 1 21 -1 31s-5 19 -10 26s-12 13 -21 18s-20 7 -34 7h-184zM393 108l1 -2c15 0 28 3 40 8s22 12 31 21s16 19 21 30s9 22 11 34c3 23 -1 43 -12 60s-30 26 -58 26h-227l-28 -177h221z" />
    <glyph glyph-name="C" unicode="C" horiz-adv-x="678" 
d="M618 94l-4 -3c-35 -33 -76 -59 -124 -78s-97 -28 -146 -28c-47 0 -89 9 -127 26s-70 41 -95 72s-43 68 -54 110s-12 89 -4 140c9 55 26 105 51 149s55 81 90 111s74 53 116 69s85 24 128 24c55 0 104 -9 146 -28s76 -46 101 -82l-88 -74c-19 24 -43 42 -72 53
s-61 17 -96 17c-31 0 -61 -6 -89 -18s-54 -28 -77 -49s-42 -46 -57 -75s-25 -60 -30 -94s-4 -65 3 -94s19 -53 35 -73s36 -36 60 -48s51 -18 80 -18c34 0 68 7 101 20s62 32 87 57z" />
    <glyph glyph-name="D" unicode="D" horiz-adv-x="706" 
d="M248 563l-72 -450h146c29 0 58 6 86 18s53 28 75 48s41 44 56 71s25 56 30 87s5 60 0 87s-14 51 -28 72s-32 37 -53 49s-45 18 -72 18h-168zM150 676l278 3c43 0 82 -9 117 -27s64 -42 87 -72s39 -66 49 -107s11 -85 4 -132s-22 -91 -44 -132s-49 -77 -81 -108
s-68 -55 -108 -73s-82 -27 -126 -27h-283z" />
    <glyph glyph-name="E" unicode="E" horiz-adv-x="580" 
d="M151 675h446l-18 -112h-331l-26 -165h312l-18 -112h-312l-28 -174h334l-17 -112h-449z" />
    <glyph glyph-name="F" unicode="F" horiz-adv-x="549" 
d="M199 256l-40 -256h-115l107 675h435l-18 -112h-320l-31 -195h302l-18 -112h-302z" />
    <glyph glyph-name="G" unicode="G" horiz-adv-x="721" 
d="M637 84l-6 -3c-16 -15 -35 -28 -56 -40s-44 -22 -68 -31s-49 -15 -75 -19s-52 -6 -78 -6c-47 0 -90 9 -129 27s-72 43 -98 74s-45 68 -56 111s-13 90 -5 141s24 98 47 141s52 80 87 111s75 55 119 72s91 26 140 26c57 0 108 -9 153 -28s80 -46 105 -82l-89 -77
c-15 23 -39 41 -71 54s-69 19 -111 19c-33 0 -64 -6 -93 -19s-55 -30 -78 -52s-42 -47 -58 -75s-26 -57 -31 -88c-5 -33 -4 -64 3 -93s19 -54 35 -76s37 -39 63 -51s56 -18 90 -18c28 0 55 3 82 10s51 17 72 30l18 111h-132l18 112h247l-45 -281v0z" />
    <glyph glyph-name="H" unicode="H" horiz-adv-x="713" 
d="M544 287h-340l-45 -287h-115l107 675h114l-43 -275h340l44 275h115l-107 -675h-115z" />
    <glyph glyph-name="I" unicode="I" horiz-adv-x="258" 
d="M151 675h114l-106 -675h-115z" />
    <glyph glyph-name="J" unicode="J" horiz-adv-x="541" 
d="M239 -13c-56 0 -102 11 -138 32s-66 50 -89 87l79 77c17 -24 37 -43 60 -57s52 -21 87 -21c29 0 56 10 81 31s41 53 48 96l71 443h115l-72 -451c-7 -43 -18 -79 -34 -109s-35 -54 -57 -73s-46 -33 -72 -42s-52 -13 -79 -13z" />
    <glyph glyph-name="K" unicode="K" horiz-adv-x="659" 
d="M305 299l-117 -111l-29 -188h-115l107 675h114l-51 -325l344 325h144l-313 -296l224 -379h-132z" />
    <glyph glyph-name="L" unicode="L" horiz-adv-x="545" 
d="M151 675h114l-89 -563h325l-18 -112h-439z" />
    <glyph glyph-name="M" unicode="M" horiz-adv-x="848" 
d="M234 474l-75 -474h-115l107 675h117l163 -456l307 456h117l-107 -675h-115l76 474l-272 -408h-61z" />
    <glyph glyph-name="N" unicode="N" horiz-adv-x="714" 
d="M238 501l-79 -501h-115l107 675h114l262 -502l79 502h115l-107 -675h-115z" />
    <glyph glyph-name="O" unicode="O" horiz-adv-x="757" 
d="M348 -13l-1 -1c-47 0 -89 9 -127 27s-70 43 -96 75s-44 69 -55 111s-13 88 -6 137c8 48 24 93 47 136s52 80 87 112s75 57 119 75s91 27 140 27c47 0 89 -9 127 -27s70 -43 96 -75s44 -69 55 -112s13 -88 6 -136c-8 -49 -24 -94 -48 -136s-54 -79 -89 -111
s-75 -57 -119 -75s-89 -27 -136 -27zM365 101h-1c30 0 59 6 88 18s55 29 78 51s43 47 59 75s27 58 32 90s4 62 -3 91s-19 54 -35 75s-36 38 -61 51s-52 19 -82 19s-59 -6 -87 -19s-54 -30 -77 -51s-43 -46 -59 -75s-26 -59 -31 -91s-4 -62 3 -90s19 -53 35 -75
s36 -39 60 -51s51 -18 81 -18z" />
    <glyph glyph-name="P" unicode="P" horiz-adv-x="634" 
d="M248 563l-44 -256h178c20 0 38 4 54 12s30 18 42 31s21 27 28 43s12 32 15 48c3 15 3 30 1 45s-7 28 -15 39s-18 20 -31 27s-29 11 -48 11h-180zM186 195l-29 -196h-115l107 675h316c33 0 62 -7 86 -21s43 -32 57 -54s24 -47 29 -75s5 -56 0 -85c-5 -31 -15 -61 -29 -90
s-32 -55 -53 -78s-46 -41 -74 -55s-59 -21 -93 -21h-202z" />
    <glyph glyph-name="Q" unicode="Q" horiz-adv-x="757" 
d="M262 -1l-6 -1c-34 10 -64 26 -91 47s-49 47 -66 77s-29 63 -36 99s-7 75 -1 116c8 48 23 93 46 136s52 80 87 112s74 57 118 75s91 27 142 27c47 0 89 -9 127 -27s70 -43 96 -75s44 -69 55 -112s13 -88 6 -136c-6 -39 -17 -76 -33 -111s-36 -67 -60 -96s-52 -54 -83 -76
s-65 -38 -101 -49l47 -13l139 -50l-19 -124zM360 101c30 0 59 6 88 18s55 29 78 50s43 46 59 75s27 59 32 91s4 62 -3 91s-18 54 -34 76s-36 39 -61 51s-53 18 -84 18c-30 0 -59 -6 -87 -18s-54 -29 -77 -51s-43 -47 -59 -76s-26 -59 -31 -91s-4 -62 3 -91s19 -54 35 -75
s36 -38 60 -50s51 -18 81 -18z" />
    <glyph glyph-name="R" unicode="R" horiz-adv-x="656" 
d="M248 563l-36 -230h195c16 0 30 4 43 11s24 16 33 27s17 24 23 38s10 28 12 42s2 28 1 41s-4 25 -9 36s-12 20 -22 26s-22 9 -37 9h-203zM390 220l-196 1l-35 -222h-115l107 675h334c30 0 56 -6 77 -18s38 -28 51 -49s22 -44 26 -70s4 -52 0 -79c-7 -43 -22 -84 -45 -123
s-52 -69 -88 -90l76 -247h-124z" />
    <glyph glyph-name="S" unicode="S" horiz-adv-x="613" 
d="M95 184h-3c69 -55 145 -82 227 -82c31 0 58 8 81 24s37 37 41 63c3 24 -4 42 -21 55s-45 25 -85 36c-50 14 -90 29 -120 45s-53 33 -68 51s-24 37 -27 57s-3 42 0 65c4 25 13 49 26 72s30 43 51 60s46 31 75 41s61 15 96 15c47 0 92 -6 135 -18s82 -34 116 -66l-61 -98
c-29 23 -61 40 -95 51s-70 16 -108 16c-29 0 -54 -7 -75 -21s-33 -32 -36 -54c-2 -13 -2 -24 1 -33s9 -17 18 -24s21 -14 37 -21s36 -14 60 -21c43 -14 79 -28 107 -42s50 -29 65 -45s25 -34 30 -54s5 -42 1 -67c-5 -29 -15 -56 -30 -81s-34 -46 -57 -64s-50 -32 -80 -42
s-62 -15 -97 -15c-56 0 -105 8 -148 24s-83 41 -121 75z" />
    <glyph glyph-name="T" unicode="T" horiz-adv-x="592" 
d="M415 563l-89 -563h-115l89 563h-215l18 112h544l-18 -112h-214z" />
    <glyph glyph-name="U" unicode="U" horiz-adv-x="691" 
d="M263 675l-62 -395c-10 -61 -3 -106 21 -135s63 -44 118 -45c22 0 43 4 63 12s39 19 56 34s31 34 42 56s19 49 24 80l62 392h115l-64 -401c-7 -47 -20 -88 -39 -124s-42 -66 -70 -90s-59 -42 -94 -54s-72 -18 -112 -18c-43 0 -81 6 -114 18s-60 30 -81 54s-35 54 -43 90
s-8 78 -1 125l64 401h115z" />
    <glyph glyph-name="V" unicode="V" horiz-adv-x="676" 
d="M96 675h123l112 -544l281 544h126l-367 -675h-122z" />
    <glyph glyph-name="W" unicode="W" horiz-adv-x="960" 
d="M97 675h122l65 -522l219 522h111l58 -525l228 525h120l-309 -675h-122l-54 521l-219 -521h-121z" />
    <glyph glyph-name="X" unicode="X" horiz-adv-x="698" 
d="M364 255l-228 -255h-139l314 346l-188 329h130l138 -241l211 241h136l-297 -334l197 -341h-129z" />
    <glyph glyph-name="Y" unicode="Y" horiz-adv-x="686" 
d="M373 0h-115l36 230l-198 445h125l145 -347l254 347h129l-340 -445z" />
    <glyph glyph-name="Z" unicode="Z" horiz-adv-x="612" 
d="M20 0l13 83l427 480h-338l17 112h491l-13 -81l-433 -482h370l-18 -112h-516z" />
    <glyph glyph-name="bracketleft" unicode="[" horiz-adv-x="270" 
d="M140 675h182l-17 -107h-67l-113 -711h68l-17 -107h-183z" />
    <glyph glyph-name="backslash" unicode="\" horiz-adv-x="300" 
d="M166 0l-73 675h93l72 -675h-92z" />
    <glyph glyph-name="bracketright" unicode="]" horiz-adv-x="270" 
d="M-24 -143h67l113 711h-67l17 107h182l-147 -925h-182z" />
    <glyph glyph-name="asciicircum" unicode="^" horiz-adv-x="493" 
d="M367 319l-57 257l-136 -253h-115l205 352h123l94 -356h-114z" />
    <glyph glyph-name="underscore" unicode="_" horiz-adv-x="550" 
d="M-36 -69h544l-17 -107h-544z" />
    <glyph glyph-name="grave" unicode="`" horiz-adv-x="252" 
d="M114 696h127l45 -144h-105z" />
    <glyph glyph-name="a" unicode="a" 
d="M275 95l-1 -4c19 0 37 4 55 12s34 19 48 33s26 30 36 49s17 39 20 60c3 22 3 42 -1 61s-11 35 -21 49s-23 25 -38 33s-32 12 -51 12s-38 -4 -56 -12s-34 -19 -48 -33s-26 -30 -36 -49s-17 -39 -20 -60s-3 -40 1 -58s11 -34 21 -48s23 -25 38 -33s33 -12 53 -12zM421 66
l-2 -2c-26 -23 -54 -43 -85 -59s-63 -24 -96 -24c-31 0 -60 6 -86 19s-48 31 -66 54s-31 51 -39 83s-9 67 -3 105s18 73 36 105s40 60 66 83s54 41 85 54s63 20 96 20c31 0 60 -7 87 -21s50 -32 69 -55l26 63h66l-79 -495h-65z" />
    <glyph glyph-name="b" unicode="b" 
d="M285 -13v1c-31 0 -59 7 -85 20s-49 31 -68 54l-29 -61h-65l113 714h110l-31 -202l-16 -64c23 17 48 31 74 42s54 17 83 17c32 0 61 -6 87 -19s48 -31 66 -54s31 -50 39 -82s9 -67 3 -106c-6 -38 -18 -73 -36 -105s-40 -59 -65 -82s-53 -41 -84 -54s-63 -19 -96 -19z
M292 97l1 -1c19 0 37 4 55 12s34 19 48 33s26 30 36 48s17 38 20 59s3 41 -1 60s-11 35 -21 48s-23 24 -38 32s-32 12 -51 12s-37 -4 -55 -12s-34 -18 -49 -31s-27 -29 -37 -47s-17 -38 -20 -60s-2 -42 2 -60s11 -34 21 -48s23 -25 38 -33s32 -12 51 -12z" />
    <glyph glyph-name="c" unicode="c" horiz-adv-x="507" 
d="M458 72l-4 -2c-28 -28 -60 -49 -96 -63s-73 -21 -111 -21c-32 0 -62 6 -90 18s-51 29 -70 51s-33 49 -42 81s-10 68 -4 107s18 75 36 107s40 60 66 83s55 41 87 54s66 19 101 19c38 0 72 -7 103 -21s56 -35 75 -62l-89 -72c-13 14 -28 25 -45 34s-37 13 -60 13
c-19 0 -37 -4 -54 -11s-32 -17 -46 -31s-26 -30 -36 -49s-16 -39 -19 -61s-3 -42 1 -60s11 -34 21 -47s23 -23 38 -31s32 -12 51 -12c23 0 44 4 62 13s37 21 56 36z" />
    <glyph glyph-name="d" unicode="d" 
d="M273 96l-5 2c19 0 38 4 56 12s34 19 49 32s27 29 37 48s17 39 20 61s3 42 -1 60s-11 34 -21 48s-23 25 -39 33s-34 12 -54 12s-39 -4 -56 -12s-32 -19 -46 -33s-25 -30 -34 -49s-15 -39 -18 -60s-3 -41 0 -60s9 -35 18 -49s22 -25 38 -33s35 -12 56 -12zM418 63l1 -2
c-27 -23 -56 -41 -87 -54s-62 -20 -93 -20c-32 0 -61 7 -88 20s-50 31 -68 54s-31 51 -39 83s-9 67 -3 105c6 39 17 74 34 106s37 59 61 82s51 41 82 54s63 19 97 19c30 0 57 -5 81 -16s45 -25 62 -42l5 62l32 202h111l-113 -714h-65z" />
    <glyph glyph-name="e" unicode="e" horiz-adv-x="548" 
d="M313 412v-1c-33 0 -62 -11 -86 -33s-42 -50 -54 -85l237 9c-3 36 -12 63 -28 82s-39 28 -69 28zM472 75l-2 -1c-28 -29 -60 -51 -97 -66s-75 -23 -114 -23c-33 0 -64 6 -93 18s-53 29 -73 51s-35 49 -44 81s-11 68 -5 107c7 41 20 78 39 111s41 61 67 83s55 39 86 51
s63 18 95 18s61 -6 88 -19s49 -32 67 -57s30 -56 36 -93s5 -80 -3 -128h-359c2 -37 15 -65 38 -85s53 -30 90 -30c24 0 46 4 66 13s39 22 56 39z" />
    <glyph glyph-name="f" unicode="f" horiz-adv-x="285" 
d="M145 -58l-2 -1c-10 -63 -35 -108 -75 -136s-92 -42 -155 -42l25 102c28 0 50 7 66 21s26 32 29 54l71 451h-36l16 102h36l7 41c10 63 35 109 75 137s92 42 156 42l-26 -102c-28 0 -50 -7 -66 -21s-25 -32 -28 -54l-6 -41h83l-5 -30l-21 -72h-73l-71 -451v0z" />
    <glyph glyph-name="g" unicode="g" 
d="M323 399h-2c-19 0 -38 -4 -56 -12s-34 -19 -48 -33s-26 -30 -36 -49s-17 -39 -20 -60s-3 -41 1 -59s11 -34 21 -47s23 -24 39 -32s34 -12 53 -12s37 4 55 12s34 19 48 32s26 29 36 47s17 38 20 60s3 42 -1 60s-11 34 -21 48s-23 25 -38 33s-32 12 -51 12zM221 -225l1 -4
c-44 0 -82 4 -115 12s-66 20 -100 35l44 89c28 -11 56 -19 83 -25s57 -9 90 -9c47 0 85 13 113 39s45 59 51 100l4 22c-22 -15 -46 -27 -71 -36s-52 -13 -80 -13c-31 0 -60 6 -87 19s-49 31 -67 54s-31 51 -38 83s-8 67 -2 105s18 73 35 105s38 60 63 83s53 41 84 54
s64 20 99 20c31 0 60 -6 86 -19s49 -31 68 -54l29 60h65l-76 -480c-6 -36 -16 -69 -31 -99s-34 -55 -58 -76s-52 -37 -84 -48s-67 -17 -106 -17z" />
    <glyph glyph-name="h" unicode="h" horiz-adv-x="585" 
d="M339 393l-4 1c-25 0 -49 -7 -72 -20s-45 -31 -66 -53c-5 -29 -10 -62 -16 -99s-11 -72 -16 -105c-7 -39 -13 -78 -19 -117h-111l113 714h110l-31 -200l-20 -87c26 25 55 45 86 59s61 21 90 21c25 0 49 -4 71 -12s40 -20 55 -37s26 -38 32 -64s7 -57 2 -93l-48 -301h-111
l44 277c6 41 0 71 -17 89s-41 27 -72 27z" />
    <glyph glyph-name="i" unicode="i" horiz-adv-x="245" 
d="M188 578l-3 -2c-21 0 -37 8 -48 23s-15 33 -12 54s13 39 29 53s34 21 55 21c19 0 34 -7 46 -21s16 -31 13 -52c-2 -11 -6 -21 -11 -30s-11 -17 -18 -24s-15 -12 -24 -16s-18 -6 -27 -6zM114 493h111l-78 -495h-112z" />
    <glyph glyph-name="j" unicode="j" horiz-adv-x="245" 
d="M187 578l1 -2c-20 0 -36 8 -47 23s-15 33 -12 54s13 39 29 53s34 21 54 21c19 0 34 -7 45 -21s15 -31 12 -52s-13 -39 -29 -54s-34 -22 -53 -22zM145 -39l-1 -3c-5 -30 -14 -57 -27 -81s-30 -45 -50 -62s-43 -30 -69 -39s-54 -14 -85 -14l17 109c13 0 25 2 37 7
s23 12 32 20s17 18 23 29s10 23 12 36l85 530h111z" />
    <glyph glyph-name="k" unicode="k" horiz-adv-x="557" 
d="M277 193l-1 2c-18 -14 -36 -28 -55 -42s-38 -28 -57 -41l-17 -110h-111l113 714h111l-75 -472c103 76 187 160 251 253h128c-29 -41 -60 -81 -94 -120s-71 -77 -112 -114l150 -263h-121z" />
    <glyph glyph-name="l" unicode="l" horiz-adv-x="242" 
d="M151 714h111l-113 -714h-111z" />
    <glyph glyph-name="m" unicode="m" horiz-adv-x="908" 
d="M335 393l-2 -4c-25 0 -48 -7 -70 -21s-43 -32 -64 -54l-50 -319h-111l78 495h75l7 -80c28 31 58 54 89 70s62 24 93 24c34 0 64 -8 90 -23s45 -40 56 -74c27 31 57 55 89 72s64 25 96 25c25 0 48 -4 69 -12s39 -20 53 -37s24 -38 30 -64s6 -57 1 -93l-48 -301h-110
l43 277c7 40 2 69 -14 88s-39 28 -68 28c-24 0 -47 -7 -69 -20s-43 -30 -64 -51c-1 -3 -1 -6 -1 -9s0 -6 -1 -9l-48 -301h-111l44 277c7 40 2 69 -14 88s-39 28 -68 28z" />
    <glyph glyph-name="n" unicode="n" horiz-adv-x="587" 
d="M341 393l-3 -2c-25 0 -49 -7 -73 -20s-46 -31 -67 -54l-51 -319h-111l79 495h74l8 -80c29 32 60 56 92 71s64 23 96 23c25 0 49 -4 71 -12s40 -20 55 -37s26 -38 32 -64s6 -57 0 -93l-48 -301h-111l44 277c7 40 2 69 -15 88s-41 28 -72 28z" />
    <glyph glyph-name="o" unicode="o" horiz-adv-x="570" 
d="M254 -13v-1c-32 0 -62 6 -90 18s-52 29 -71 51s-33 49 -42 81s-10 68 -4 107c7 41 19 78 37 111s40 61 66 83s55 39 87 51s66 18 102 18c33 0 64 -6 92 -19s52 -31 71 -54s33 -51 41 -83s9 -68 3 -107s-18 -74 -36 -106s-40 -59 -66 -81s-55 -39 -88 -51
s-67 -18 -102 -18zM271 95l-3 -1c19 0 38 4 56 11s34 17 48 30s26 29 36 47s17 38 20 60s3 42 -1 61s-11 35 -21 49s-23 25 -38 33s-32 12 -51 12s-37 -4 -54 -12s-33 -19 -47 -33s-26 -30 -36 -49s-17 -39 -20 -61c-3 -21 -3 -41 1 -59s11 -34 21 -47s23 -23 38 -30
s32 -11 51 -11z" />
    <glyph glyph-name="p" unicode="p" 
d="M340 399l1 1c-19 0 -37 -4 -55 -12s-34 -19 -49 -33s-27 -30 -37 -48s-17 -38 -20 -59c-3 -22 -2 -42 2 -60s11 -34 21 -48s23 -25 38 -33s32 -12 51 -12s37 4 55 12s34 19 48 33s26 30 36 48s17 38 20 59s3 41 -1 59s-11 34 -21 48s-23 25 -38 33s-32 12 -51 12z
M112 -235h-115l115 731h65l10 -61c27 23 56 41 87 54s62 20 93 20c32 0 62 -6 89 -19s50 -31 68 -54s31 -50 39 -82s9 -67 3 -105c-6 -39 -18 -74 -36 -106s-39 -59 -64 -82s-53 -41 -83 -54s-61 -19 -93 -19c-28 0 -54 6 -77 18s-44 27 -62 46l-5 -68z" />
    <glyph glyph-name="q" unicode="q" 
d="M349 -236l32 216l16 63c-23 -17 -48 -31 -74 -42s-54 -16 -83 -16c-32 0 -61 6 -87 19s-48 31 -66 54s-31 51 -39 83s-9 67 -3 106c6 38 18 73 36 105s40 59 66 82s54 41 85 54s63 20 96 20c31 0 60 -7 86 -20s49 -31 68 -54l29 61h65l-116 -731h-111zM318 396l-4 -2
c-19 0 -37 -4 -55 -12s-34 -19 -48 -33s-26 -30 -36 -48s-16 -37 -19 -58s-3 -41 1 -59s11 -34 21 -48s23 -25 38 -33s32 -12 51 -12s38 4 56 12s34 19 49 33s27 30 37 48s17 38 20 60c3 21 3 41 -1 59s-11 34 -21 48s-23 25 -38 33s-32 12 -51 12z" />
    <glyph glyph-name="r" unicode="r" horiz-adv-x="385" 
d="M37 0l78 495h81l11 -99c29 34 60 61 93 81s67 30 101 30l-18 -114c-38 0 -73 -9 -105 -27s-60 -41 -83 -68l-47 -298h-111z" />
    <glyph glyph-name="s" unicode="s" horiz-adv-x="507" 
d="M71 150l-1 -1c35 -21 68 -36 100 -45s64 -13 95 -13c21 0 39 5 53 14s22 19 24 30c1 15 -4 26 -15 33s-28 13 -52 18c-41 9 -74 20 -99 32s-44 25 -57 39s-21 29 -24 45s-4 33 -2 50c3 22 10 43 21 62s26 36 45 50s41 25 66 33s53 12 84 12c17 0 35 -1 53 -3s36 -5 53 -9
s33 -9 48 -16s28 -15 39 -24l-52 -91c-19 11 -42 20 -69 27s-55 10 -83 10c-23 0 -43 -4 -60 -11s-26 -18 -28 -33c-2 -12 2 -22 11 -30s27 -15 54 -21c37 -9 68 -19 93 -29s45 -22 60 -35s25 -28 30 -45s6 -36 3 -58s-10 -42 -22 -61s-28 -35 -48 -49s-43 -25 -69 -33
s-54 -12 -85 -12c-45 0 -86 6 -122 18s-69 29 -99 52z" />
    <glyph glyph-name="t" unicode="t" horiz-adv-x="328" 
d="M267 -13l-1 -1c-73 0 -125 18 -156 54s-42 83 -33 142l33 210h-51l16 103h51l19 121l118 40l-26 -161h101l-13 -88l-15 -15h-89l-32 -203c-5 -28 0 -51 16 -68s42 -26 79 -26z" />
    <glyph glyph-name="u" unicode="u" horiz-adv-x="578" 
d="M403 79v-1c-28 -30 -58 -53 -90 -69s-64 -24 -95 -24c-25 0 -48 4 -69 13s-39 22 -53 40s-24 41 -30 69s-6 61 0 100l45 287h111l-43 -270c-13 -83 17 -124 89 -123c25 -1 48 6 70 20s43 32 64 54l50 320h111l-78 -495h-75z" />
    <glyph glyph-name="v" unicode="v" horiz-adv-x="495" 
d="M56 495l119 1l73 -354c37 57 70 115 98 173s52 118 72 180h121c-63 -180 -157 -345 -282 -495h-77z" />
    <glyph glyph-name="w" unicode="w" horiz-adv-x="773" 
d="M57 495l114 -1l62 -367c31 50 59 106 85 167s50 128 71 201h91l56 -365c37 59 69 119 97 179s51 122 69 186h113c-61 -189 -148 -354 -261 -495h-88l-48 329c-19 -57 -43 -112 -71 -166s-60 -108 -97 -163h-88z" />
    <glyph glyph-name="x" unicode="x" horiz-adv-x="531" 
d="M258 171v1c-30 -23 -57 -48 -81 -76s-45 -60 -62 -96h-126c31 54 65 102 103 144s78 79 120 111l-137 240h129l91 -175c30 24 56 51 77 80s40 61 57 96h127c-28 -51 -60 -98 -95 -141s-75 -82 -119 -117l140 -238h-128z" />
    <glyph glyph-name="y" unicode="y" horiz-adv-x="484" 
d="M-43 -126l-4 -2c20 0 40 6 60 18s39 26 57 43s35 35 50 54s28 36 39 51l-105 456h122l65 -346c36 53 67 108 93 165s49 117 70 181h121c-33 -91 -73 -180 -121 -267s-102 -169 -163 -246c-26 -33 -51 -63 -75 -90s-48 -50 -72 -69s-49 -33 -74 -43s-52 -15 -80 -15z" />
    <glyph glyph-name="z" unicode="z" horiz-adv-x="493" 
d="M422 0l1 1c-131 15 -267 15 -408 0l16 101l297 283c-80 -2 -158 1 -234 9l15 102c137 -13 265 -13 384 0l-16 -102l-296 -281c45 1 89 1 132 -1s85 -5 126 -10l-17 -102v0z" />
    <glyph glyph-name="braceleft" unicode="{" horiz-adv-x="301" 
d="M220 -194l-3 -7c-25 0 -48 4 -70 12s-40 19 -55 33s-26 31 -33 51s-8 42 -4 66l26 164c4 23 0 42 -12 57s-29 22 -50 22l16 99c21 0 40 7 57 22s27 34 30 57l27 169c4 24 13 46 26 66s29 37 48 51s41 25 65 33s48 12 73 12l-16 -99c-21 0 -40 -8 -57 -23s-27 -34 -30 -57
l-25 -154c-4 -25 -14 -48 -29 -68s-33 -38 -54 -53c16 -15 29 -32 38 -52s12 -42 8 -66l-24 -155c-2 -12 -2 -23 0 -33s6 -19 12 -26s13 -13 22 -17s19 -6 30 -6l-16 -98v0z" />
    <glyph glyph-name="bar" unicode="|" horiz-adv-x="246" 
d="M153 714h111l-153 -964h-111z" />
    <glyph glyph-name="braceright" unicode="}" horiz-adv-x="301" 
d="M-21 -96l-2 6c21 0 40 8 57 24s27 36 30 59l26 159c3 24 13 46 29 66s34 37 55 52c-16 15 -29 33 -38 53s-12 43 -8 68l24 150c4 23 0 42 -12 57s-29 23 -50 23l16 99c25 0 48 -4 70 -12s40 -19 55 -33s26 -31 33 -51s9 -42 5 -66l-26 -165c-4 -23 0 -42 12 -57
s29 -22 50 -22l-16 -99c-21 0 -40 -7 -57 -22s-27 -34 -30 -57l-27 -168c-4 -24 -13 -46 -26 -66s-29 -37 -48 -51s-41 -25 -65 -33s-48 -12 -73 -12z" />
    <glyph glyph-name="asciitilde" unicode="~" horiz-adv-x="426" 
d="M45 235h-2c8 46 24 80 48 102s50 33 77 33c18 0 34 -2 48 -7s28 -10 41 -15l39 -15s27 -7 42 -7c10 0 20 3 29 9s16 19 21 38h33c-7 -45 -21 -80 -42 -105s-47 -37 -79 -37c-18 0 -34 2 -49 7s-29 10 -43 15s-27 10 -40 15s-27 7 -42 7c-12 0 -22 -3 -29 -10
s-13 -17 -18 -30h-34z" />
    <glyph glyph-name="uni00A0" unicode="&#xa0;" horiz-adv-x="41" 
 />
    <glyph glyph-name="exclamdown" unicode="&#xa1;" horiz-adv-x="203" 
d="M155 508l-1 -1c19 0 34 -7 45 -22s15 -33 12 -54s-12 -39 -28 -54s-33 -22 -52 -22c-21 0 -37 7 -48 22s-15 33 -12 54s13 39 29 54s34 23 55 23zM156 293l-38 -374l-16 -101h-115l16 101l80 374h73z" />
    <glyph glyph-name="cent" unicode="&#xa2;" horiz-adv-x="508" 
d="M457 72l-2 -6c-21 -21 -45 -38 -72 -52s-55 -23 -84 -28l-23 -147h-107l24 150c-25 7 -48 18 -68 32s-37 32 -51 54s-23 47 -28 75s-5 59 0 92s15 64 29 92s31 53 51 75s43 41 68 56s51 26 78 33l23 143h107l-23 -140c27 -5 52 -14 74 -27s41 -30 56 -51l-92 -75
c-11 15 -25 27 -42 36s-37 14 -60 14c-19 0 -37 -4 -54 -11s-32 -17 -46 -31s-26 -30 -36 -49s-16 -39 -19 -61s-3 -42 1 -60s11 -34 21 -47s23 -23 38 -31s32 -12 51 -12c22 0 42 4 61 13s38 21 57 36l68 -73v0z" />
    <glyph glyph-name="sterling" unicode="&#xa3;" horiz-adv-x="616" 
d="M20 0l15 93l105 11l1 171h-83l16 98l67 7l1 52c0 43 8 81 25 113s39 59 66 80s57 37 90 47s65 15 97 15c47 0 89 -9 126 -27s68 -43 93 -74l-70 -78c-19 20 -43 36 -73 47s-62 17 -97 17c-17 0 -34 -2 -51 -7s-32 -13 -45 -24s-24 -24 -33 -40s-13 -35 -13 -57l-1 -60
h139l-16 -99l-123 -5l-1 -173h194l31 140h89l-39 -247h-510z" />
    <glyph glyph-name="currency" unicode="&#xa4;" horiz-adv-x="624" 
d="M433 115v3c-21 -13 -44 -23 -68 -30s-48 -10 -72 -10c-47 0 -88 12 -123 36l-76 -68l-69 87l74 68c-8 19 -13 40 -16 62s-2 46 2 72c5 29 13 56 24 80s25 47 41 68l-52 68l90 83l55 -71c21 11 43 20 65 26s45 9 68 9c46 0 86 -12 121 -35l81 74l69 -87l-78 -72
c9 -20 15 -42 18 -66s2 -50 -3 -78c-4 -27 -11 -52 -21 -75s-22 -44 -37 -63l53 -69l-90 -83zM310 188l1 2c19 0 37 4 55 11s34 17 48 30s26 29 36 47s17 38 20 59c3 22 3 42 -1 61s-11 35 -21 49s-22 25 -37 33s-32 12 -52 12c-19 0 -37 -4 -55 -12s-34 -19 -48 -33
s-26 -30 -36 -49s-17 -39 -20 -61c-3 -21 -3 -41 1 -59s11 -34 21 -47s22 -23 37 -31s32 -12 51 -12z" />
    <glyph glyph-name="yen" unicode="&#xa5;" horiz-adv-x="627" 
d="M359 102l-16 -102h-115l16 102h-190l16 102h190l8 46l-12 28h-174l16 102h118l-119 295h120l123 -330l225 330h122l-212 -295h101l-16 -102h-158l-20 -28l-7 -46h173l-16 -102h-173z" />
    <glyph glyph-name="brokenbar" unicode="&#xa6;" horiz-adv-x="252" 
d="M147 675h115l-45 -288h-115zM89 306h115l-49 -306h-115z" />
    <glyph glyph-name="section" unicode="&#xa7;" horiz-adv-x="580" 
d="M180 236l-1 2c-2 -13 -1 -24 2 -33s9 -17 18 -24s22 -14 39 -20s38 -12 64 -19c30 1 56 8 78 21s35 31 38 53c3 18 1 33 -6 45s-19 22 -36 31c-13 7 -27 12 -42 14s-30 3 -46 3c-29 0 -53 -7 -73 -21s-32 -31 -35 -52zM222 -231l-10 -3c-46 0 -87 7 -122 21
s-69 35 -101 63l67 101c28 -20 55 -37 81 -50s55 -20 86 -20c23 0 44 6 62 19s29 30 32 51c3 19 -1 33 -13 42s-33 18 -62 26c-45 14 -81 29 -108 45s-48 34 -62 53s-22 39 -25 60s-3 42 0 64c5 31 18 60 39 87s49 47 83 60c-17 19 -27 39 -30 60s-3 43 0 66s11 45 23 66
s27 40 45 56s40 29 65 38s53 14 83 14c38 0 75 -5 111 -15s69 -28 99 -53l-58 -105c-23 19 -48 33 -76 42s-57 14 -87 14c-21 0 -38 -5 -52 -15s-22 -23 -25 -40c-2 -10 -2 -19 0 -26s6 -14 13 -20s16 -11 27 -16s25 -10 42 -15c40 -13 73 -27 99 -42s46 -31 60 -49
s23 -38 27 -60s4 -46 0 -73c-5 -32 -17 -60 -37 -85s-46 -44 -77 -58c13 -16 21 -34 24 -54s3 -42 0 -65c-4 -27 -12 -52 -25 -74s-29 -41 -49 -58s-43 -30 -68 -39s-52 -13 -81 -13z" />
    <glyph glyph-name="dieresis" unicode="&#xa8;" horiz-adv-x="411" 
d="M171 572v-1c-19 0 -35 7 -47 21s-16 33 -13 56c3 21 13 39 30 54s35 22 54 22c18 0 33 -7 45 -22s16 -33 13 -54c-2 -11 -6 -21 -11 -30s-11 -17 -19 -24s-16 -12 -25 -16s-18 -6 -27 -6zM373 571l1 -1c-19 0 -35 7 -47 21s-16 33 -13 56c3 21 13 39 29 54s34 22 54 22
c18 0 33 -7 45 -22s16 -33 13 -54c-2 -11 -6 -21 -11 -30s-11 -17 -19 -24s-16 -12 -25 -16s-18 -6 -27 -6z" />
    <glyph glyph-name="copyright" unicode="&#xa9;" horiz-adv-x="740" 
d="M340 -13l-3 -1c-45 0 -86 9 -123 27s-68 43 -92 75s-41 69 -52 111s-12 88 -4 137c8 48 24 93 48 136s53 80 88 112s74 57 117 75s87 27 132 27s86 -9 123 -27s68 -43 93 -75s43 -69 53 -112s12 -88 5 -136c-8 -49 -24 -94 -48 -136s-53 -79 -88 -111s-74 -57 -117 -75
s-87 -27 -132 -27zM342 20l-3 -1c41 0 81 8 119 25s73 40 104 69s57 63 78 101s35 79 42 122s6 84 -3 122s-25 72 -47 101s-49 52 -82 69s-69 25 -109 25s-79 -8 -117 -25s-72 -40 -103 -69s-57 -63 -79 -101s-36 -79 -43 -122s-6 -84 3 -122s25 -71 47 -100s50 -52 83 -69
s70 -25 110 -25zM524 182l-2 1c-23 -21 -48 -37 -75 -49s-56 -18 -86 -18c-29 0 -55 6 -78 17s-43 26 -59 45s-27 42 -34 69s-8 56 -3 87s15 60 31 87s35 50 57 70s47 36 74 47s55 17 83 17c30 0 57 -6 81 -18s44 -29 60 -50l-64 -59c-9 15 -21 27 -37 35s-34 12 -53 12
c-17 0 -34 -4 -51 -11s-32 -17 -45 -30s-24 -28 -33 -45s-15 -35 -18 -55c-3 -19 -3 -37 1 -54s11 -32 20 -45s21 -23 35 -30s30 -10 47 -10c19 0 38 4 57 12s35 19 48 34z" />
    <glyph glyph-name="ordfeminine" unicode="&#xaa;" horiz-adv-x="333" 
d="M196 455v-2c17 0 34 5 52 16l8 52l-37 -6c-12 -1 -23 -4 -32 -8s-15 -13 -17 -26c-1 -7 1 -13 5 -18s11 -8 21 -8zM255 425l-1 -3c-15 -9 -30 -16 -45 -21s-31 -7 -48 -7c-29 0 -50 8 -62 23s-16 34 -13 57c5 28 17 49 37 62s45 21 75 24l67 5l3 18c1 9 -2 16 -9 21
s-20 8 -39 8c-30 0 -59 -4 -87 -13l-2 67c17 7 34 12 50 15s35 5 57 5c41 0 71 -9 89 -26s25 -41 20 -71l-30 -187h-52z" />
    <glyph glyph-name="guillemotleft" unicode="&#xab;" horiz-adv-x="503" 
d="M32 181l22 139l229 158l-19 -125l-161 -102l128 -98l-20 -128zM260 181l22 139l230 158l-20 -125l-161 -102l129 -98l-21 -128z" />
    <glyph glyph-name="logicalnot" unicode="&#xac;" horiz-adv-x="619" 
d="M429 76l36 225h-397l17 108h509l-53 -333h-112z" />
    <glyph glyph-name="registered" unicode="&#xae;" horiz-adv-x="740" 
d="M340 -13l-3 -1c-45 0 -86 9 -123 27s-68 43 -92 75s-41 69 -52 111s-12 88 -4 137c8 48 24 93 48 136s53 80 88 112s74 57 117 75s87 27 132 27s86 -9 123 -27s68 -43 93 -75s43 -69 53 -112s12 -88 5 -136c-8 -49 -24 -94 -48 -136s-53 -79 -88 -111s-74 -57 -117 -75
s-87 -27 -132 -27zM342 20l-3 -1c41 0 81 8 119 25s73 40 104 69s57 63 78 101s35 79 42 122s6 84 -3 122s-25 72 -47 101s-49 52 -82 69s-69 25 -109 25s-79 -8 -117 -25s-72 -40 -103 -69s-57 -63 -79 -101s-36 -79 -43 -122s-6 -84 3 -122s25 -71 47 -100s50 -52 83 -69
s70 -25 110 -25zM338 468l-20 -126h108c15 0 28 7 38 21s16 29 19 44s1 29 -5 42s-17 19 -32 19h-108zM395 272l-89 -1l-22 -140h-75l64 406h204c16 0 30 -4 42 -11s21 -17 28 -29s12 -26 14 -41s2 -31 -1 -47c-5 -27 -15 -53 -30 -77s-34 -41 -57 -51l45 -149h-80z" />
    <glyph glyph-name="macron" unicode="&#xaf;" horiz-adv-x="362" 
d="M121 659h278l-14 -90h-278z" />
    <glyph glyph-name="degree" unicode="&#xb0;" horiz-adv-x="377" 
d="M94 532c3 22 10 42 20 61s23 35 38 49s33 25 53 33s41 12 63 12s42 -4 59 -12s31 -19 42 -33s19 -30 23 -49s5 -39 2 -61s-10 -43 -21 -62s-24 -36 -39 -50s-32 -25 -52 -33s-41 -12 -63 -12c-24 0 -45 4 -62 12s-31 19 -42 33s-18 31 -21 50s-3 40 0 62zM231 454
c21 0 40 7 57 21s27 32 30 55c4 25 0 44 -12 57s-29 20 -50 20c-19 0 -37 -7 -54 -21s-27 -33 -31 -56c-3 -25 1 -44 12 -57s27 -19 48 -19z" />
    <glyph glyph-name="plusminus" unicode="&#xb1;" horiz-adv-x="446" 
d="M282 263l-21 -131h-97l21 131h-127l16 104h128l20 128h97l-21 -128h134l-17 -104h-133zM30 89h358l-14 -89h-358z" />
    <glyph glyph-name="two.sups" unicode="&#xb2;" horiz-adv-x="301" 
d="M57 340l6 60c3 19 9 35 19 49s22 26 35 37s27 20 42 28s29 15 42 22s24 14 33 21s14 14 15 22c1 10 -2 18 -9 23s-17 8 -30 8c-16 0 -32 -3 -49 -9s-33 -15 -49 -28l-31 53c25 21 50 36 75 45s52 14 81 14c36 0 63 -9 82 -28s26 -43 21 -73c-3 -17 -9 -31 -18 -43
s-20 -22 -33 -31s-27 -17 -41 -24s-27 -14 -39 -21s-23 -15 -32 -23s-14 -17 -15 -27h154l-12 -75h-247z" />
    <glyph glyph-name="three.sups" unicode="&#xb3;" horiz-adv-x="302" 
d="M182 332l-4 -2c-28 0 -52 4 -73 12s-41 22 -60 41l46 55c15 -11 29 -19 43 -23s29 -6 46 -6s30 3 38 9s13 15 15 26c1 11 -4 20 -15 27s-27 10 -48 10l10 63c29 0 48 5 58 14s16 18 17 27s-2 16 -9 20s-17 6 -30 6c-18 0 -34 -2 -48 -6s-29 -10 -46 -17l-22 62
c21 12 43 21 66 28s48 10 75 10c35 0 63 -7 84 -21s29 -36 24 -67c-3 -17 -10 -33 -21 -48s-26 -28 -44 -39c15 -9 26 -20 33 -34s9 -29 6 -46c-5 -30 -19 -54 -42 -73s-56 -28 -99 -28z" />
    <glyph glyph-name="acute" unicode="&#xb4;" horiz-adv-x="252" 
d="M91 551l90 144h128l-113 -144h-105z" />
    <glyph glyph-name="mu" unicode="&#xb5;" horiz-adv-x="583" 
d="M143 -37l1 -3c-5 -30 -14 -57 -27 -81s-30 -45 -51 -62s-44 -30 -70 -39s-54 -14 -85 -14l17 108c26 0 49 9 69 26s32 39 36 66l84 530h111l-43 -270c-7 -42 -2 -73 15 -93s42 -30 74 -30c24 0 47 7 69 21s43 32 63 53l51 320h111l-78 -495h-75l-7 80
c-28 -30 -58 -53 -90 -69s-64 -24 -95 -24c-27 0 -52 5 -74 15l-6 -39v0z" />
    <glyph glyph-name="paragraph" unicode="&#xb6;" horiz-adv-x="719" 
d="M579 568l-70 -2l-127 -803h-112l64 401h-61c-39 0 -73 8 -101 24s-51 37 -68 63s-28 55 -34 88s-6 66 -1 100c5 29 15 58 31 86s36 53 61 75s54 40 87 54s69 21 108 21h401l-17 -107h-48l-127 -803h-113z" />
    <glyph glyph-name="periodcentered" unicode="&#xb7;" horiz-adv-x="216" 
d="M119 243l3 -1c-20 0 -36 8 -48 23s-16 33 -13 54s13 39 29 54s34 22 54 22c19 0 34 -7 45 -22s15 -33 12 -54s-13 -39 -29 -54s-34 -22 -53 -22z" />
    <glyph glyph-name="cedilla" unicode="&#xb8;" horiz-adv-x="233" 
d="M5 -125v1c7 -7 15 -12 23 -14s17 -3 26 -3s17 2 23 6s10 11 11 20c1 10 -4 17 -15 22s-27 7 -48 7l40 89h48l-22 -51c30 -2 50 -8 61 -18s15 -26 12 -47c-2 -11 -6 -21 -12 -31s-14 -18 -24 -25s-21 -13 -34 -17s-26 -6 -40 -6c-19 0 -34 3 -45 9s-19 13 -24 20z" />
    <glyph glyph-name="one.sups" unicode="&#xb9;" horiz-adv-x="234" 
d="M62 340l12 75h48l28 175l-53 -28l-26 65l93 50h85l-41 -262h48l-11 -75h-183z" />
    <glyph glyph-name="ordmasculine" unicode="&#xba;" horiz-adv-x="342" 
d="M94 545c3 20 9 39 18 56s21 32 35 45s30 23 47 30s36 11 56 11s38 -4 53 -11s28 -17 38 -30s17 -28 21 -45s5 -36 2 -56c-3 -21 -9 -40 -18 -58s-21 -33 -35 -46s-30 -23 -48 -30s-37 -11 -57 -11c-22 0 -41 4 -56 11s-27 17 -37 30s-16 28 -19 46s-3 37 0 58zM217 473
h-2c17 0 33 6 48 19s24 30 27 51c3 23 0 41 -10 53s-24 18 -41 18s-33 -7 -47 -20s-23 -30 -26 -51c-3 -23 0 -40 10 -52s24 -18 41 -18z" />
    <glyph glyph-name="guillemotright" unicode="&#xbb;" horiz-adv-x="503" 
d="M15 25l20 128l160 99l-128 101l19 125l180 -158l-22 -139zM243 25l21 128l160 99l-129 101l20 125l179 -158l-22 -139z" />
    <glyph glyph-name="onequarter" unicode="&#xbc;" horiz-adv-x="655" 
d="M434 675h92l-286 -675h-93zM44 340l12 75h48l28 175l-53 -28l-26 65l93 50h85l-41 -262h48l-11 -75h-183zM561 239l-93 -100h77zM618 65l-11 -65h-84l10 65h-162l12 74l187 198h91l-32 -198h32l-11 -74h-32z" />
    <glyph glyph-name="onehalf" unicode="&#xbd;" horiz-adv-x="689" 
d="M434 675h92l-286 -675h-93zM44 340l12 75h48l28 175l-53 -28l-26 65l93 50h85l-41 -262h48l-11 -75h-183zM412 0l10 60c3 19 9 35 19 49s22 26 35 37s27 20 42 28s29 15 42 22s24 14 33 21s14 14 15 22c1 10 -2 18 -9 23s-17 8 -30 8c-16 0 -32 -3 -49 -9
s-34 -15 -51 -28l-31 53c26 21 52 36 77 45s52 14 81 14c36 0 63 -9 81 -28s25 -43 20 -73c-3 -17 -9 -31 -19 -43s-21 -22 -34 -31s-26 -17 -40 -24s-27 -14 -40 -21s-24 -15 -33 -23s-14 -17 -15 -27h154l-11 -75h-247z" />
    <glyph glyph-name="threequarters" unicode="&#xbe;" horiz-adv-x="686" 
d="M474 675h93l-286 -675h-93zM175 332l1 -3c-28 0 -52 4 -73 12s-41 22 -60 41l46 55c15 -11 29 -19 43 -23s29 -6 46 -6s30 3 38 9s13 15 15 26c1 11 -4 20 -15 27s-27 10 -48 10l6 33l4 30c15 0 27 1 36 4s16 6 21 10s9 8 11 13s4 10 5 15c1 9 -2 16 -9 20s-17 6 -30 6
c-18 0 -34 -2 -48 -6s-30 -10 -47 -17l-22 62c21 12 43 21 66 28s48 10 75 10c34 0 61 -7 82 -21s29 -36 24 -67c-3 -17 -10 -33 -21 -48s-26 -28 -44 -39c15 -9 26 -20 33 -34s9 -29 6 -46c-5 -30 -19 -54 -42 -73s-56 -28 -99 -28zM592 236l-93 -100h77zM649 62l-10 -65
h-85l10 65h-162l12 74l188 198h90l-31 -198h32l-12 -74h-32z" />
    <glyph glyph-name="questiondown" unicode="&#xbf;" horiz-adv-x="526" 
d="M321 367l-1 -2c-17 0 -31 7 -42 20s-15 29 -12 48c1 10 4 19 9 28s11 17 18 24s15 12 23 16s17 6 26 6c19 0 34 -7 45 -21s15 -31 12 -51c-3 -19 -12 -35 -27 -48s-32 -20 -51 -20zM459 -93h-4c-36 -30 -73 -52 -112 -67s-77 -22 -115 -22c-43 0 -79 5 -108 15
s-52 24 -69 42s-29 39 -35 63s-7 51 -3 80c7 51 30 94 69 129s94 57 165 66l17 107h101l-31 -198c-63 0 -113 -10 -150 -30s-58 -46 -63 -78c-5 -28 1 -50 18 -66s47 -24 90 -24c35 0 68 6 98 17s60 27 90 48z" />
    <glyph glyph-name="Agrave" unicode="&#xc0;" horiz-adv-x="678" 
d="M303 871h128l44 -144h-105zM399 548l-151 -286h212zM484 150h-295l-79 -150h-125l371 675h123l157 -675h-120z" />
    <glyph glyph-name="Aacute" unicode="&#xc1;" horiz-adv-x="678" 
d="M376 727l91 144h127l-112 -144h-106zM399 548l-151 -286h212zM484 150h-295l-79 -150h-125l371 675h123l157 -675h-120z" />
    <glyph glyph-name="Acircumflex" unicode="&#xc2;" horiz-adv-x="678" 
d="M441 825l-77 -98h-106l113 144h154l67 -144h-105zM399 548l-151 -286h212zM484 150h-295l-79 -150h-125l371 675h123l157 -675h-120z" />
    <glyph glyph-name="Atilde" unicode="&#xc3;" horiz-adv-x="678" 
d="M266 749c4 20 10 37 18 52s17 27 27 37s21 17 32 22s22 7 32 7c14 0 27 -2 39 -6s23 -8 33 -13s20 -9 30 -13s21 -6 32 -6c7 0 14 2 21 6s12 12 15 23h44c-7 -39 -20 -69 -40 -91s-41 -33 -64 -33c-15 0 -28 2 -40 6s-23 8 -34 13s-22 9 -33 13s-22 6 -33 6
c-7 0 -14 -2 -20 -6s-10 -10 -13 -17h-46zM399 548l-151 -286h212zM484 150h-295l-79 -150h-125l371 675h123l157 -675h-120z" />
    <glyph glyph-name="Adieresis" unicode="&#xc4;" horiz-adv-x="678" 
d="M323 737l1 -2c-19 0 -35 7 -47 21s-16 33 -13 56c3 21 13 39 29 53s34 21 54 21c18 0 33 -7 45 -21s16 -31 13 -52c-2 -11 -6 -21 -11 -30s-11 -17 -19 -24s-16 -12 -25 -16s-18 -6 -27 -6zM533 735v-3c-19 0 -35 7 -47 21s-16 33 -13 56c1 10 4 20 9 29s12 17 20 24
s17 12 26 16s19 6 29 6c18 0 33 -7 45 -21s16 -31 13 -52c-2 -11 -6 -21 -11 -30s-11 -17 -19 -24s-16 -12 -25 -16s-18 -6 -27 -6zM400 543l-151 -286h212zM485 145h-295l-79 -150h-125l371 675h123l157 -675h-120z" />
    <glyph glyph-name="Aring" unicode="&#xc5;" horiz-adv-x="678" 
d="M424 702v-2c12 0 23 5 33 14s15 21 15 36c0 17 -5 30 -15 39s-21 13 -33 13c-13 0 -24 -5 -33 -14s-14 -21 -14 -36c0 -17 5 -30 14 -38s20 -12 33 -12zM399 546l-151 -286h212zM484 148h-297l-79 -150h-125l363 660c-13 11 -23 25 -30 41s-10 34 -10 53
c0 33 11 61 32 83s49 33 84 33c34 0 62 -11 83 -33s32 -49 32 -82c0 -22 -5 -42 -14 -60s-22 -32 -39 -42l152 -653h-120z" />
    <glyph glyph-name="AE" unicode="&#xc6;" horiz-adv-x="960" 
d="M512 563h-64l-177 -289h196zM449 162h-247l-99 -162h-119l418 675h575l-18 -112h-332l-26 -164h313l-17 -113h-313l-28 -174h334l-17 -112h-450z" />
    <glyph glyph-name="Ccedilla" unicode="&#xc7;" horiz-adv-x="678" 
d="M294 -193l-7 -3c-19 0 -34 3 -45 9s-19 13 -24 20l21 38c7 -7 15 -12 23 -14s17 -3 26 -3s17 2 24 6s11 11 12 20c1 10 -4 17 -15 22s-27 7 -48 7l34 77c-40 6 -76 19 -108 38s-58 44 -79 74s-36 65 -44 105s-8 83 -1 129c9 55 26 105 51 149s55 81 90 111s74 53 116 69
s85 24 128 24c55 0 104 -9 146 -28s76 -46 101 -82l-88 -74c-19 24 -43 42 -72 53s-61 17 -96 17c-31 0 -61 -6 -89 -18s-54 -28 -77 -49s-42 -46 -57 -75s-25 -60 -30 -94s-4 -65 3 -94s19 -53 35 -73s36 -36 60 -48s51 -18 80 -18c34 0 68 7 101 20s62 32 87 57l65 -86
c-35 -33 -76 -59 -124 -78s-97 -28 -146 -28l-16 -36c30 -2 50 -8 61 -18s15 -26 12 -47c-2 -11 -6 -21 -12 -31s-14 -18 -24 -25s-21 -13 -34 -17s-26 -6 -40 -6z" />
    <glyph glyph-name="Egrave" unicode="&#xc8;" horiz-adv-x="580" 
d="M280 871h128l44 -144h-105zM151 675h446l-18 -112h-331l-26 -165h312l-18 -112h-312l-28 -174h334l-17 -112h-449z" />
    <glyph glyph-name="Eacute" unicode="&#xc9;" horiz-adv-x="580" 
d="M325 727l90 144h128l-113 -144h-105zM151 675h446l-18 -112h-331l-26 -165h312l-18 -112h-312l-28 -174h334l-17 -112h-449z" />
    <glyph glyph-name="Ecircumflex" unicode="&#xca;" horiz-adv-x="580" 
d="M398 825l-77 -98h-105l112 144h154l67 -144h-105zM151 675h446l-18 -112h-331l-26 -165h312l-18 -112h-312l-28 -174h334l-17 -112h-449z" />
    <glyph glyph-name="Edieresis" unicode="&#xcb;" horiz-adv-x="580" 
d="M286 737l1 -2c-19 0 -35 7 -47 21s-16 33 -13 56c3 21 13 39 29 53s34 21 54 21c18 0 33 -7 45 -21s16 -31 13 -52c-2 -11 -6 -21 -11 -30s-11 -17 -19 -24s-16 -12 -25 -16s-18 -6 -27 -6zM496 735v-3c-19 0 -35 7 -47 21s-16 33 -13 56c1 10 4 20 9 29s12 17 20 24
s17 12 26 16s19 6 29 6c18 0 33 -7 45 -21s16 -31 13 -52c-2 -11 -6 -21 -11 -30s-11 -17 -19 -24s-16 -12 -25 -16s-18 -6 -27 -6zM152 670h446l-18 -112h-331l-26 -165h312l-18 -112h-312l-28 -174h334l-17 -112h-449z" />
    <glyph glyph-name="Igrave" unicode="&#xcc;" horiz-adv-x="258" 
d="M98 871h127l45 -144h-106zM151 675h114l-106 -675h-115z" />
    <glyph glyph-name="Iacute" unicode="&#xcd;" horiz-adv-x="258" 
d="M167 727l90 144h128l-113 -144h-105zM151 675h114l-106 -675h-115z" />
    <glyph glyph-name="Icircumflex" unicode="&#xce;" horiz-adv-x="258" 
d="M234 825l-77 -98h-105l112 144h154l67 -144h-105zM151 675h114l-106 -675h-115z" />
    <glyph glyph-name="Idieresis" unicode="&#xcf;" horiz-adv-x="258" 
d="M112 737v-2c-19 0 -35 7 -47 21s-16 33 -13 56c3 21 13 39 30 53s35 21 54 21c18 0 33 -7 45 -21s16 -31 13 -52c-3 -23 -13 -41 -30 -55s-34 -21 -52 -21zM321 735v-2c-19 0 -35 7 -47 21s-16 33 -13 56c3 21 13 39 30 53s35 21 54 21c18 0 33 -7 45 -21s16 -31 13 -52
c-3 -23 -13 -41 -30 -55s-34 -21 -52 -21zM151 671h114l-106 -675h-115z" />
    <glyph glyph-name="Eth" unicode="&#xd0;" horiz-adv-x="714" 
d="M204 289l-28 -176h177c26 0 52 6 77 18s48 28 68 49s37 45 51 72s24 56 29 87s5 60 -1 87s-16 51 -30 71s-31 36 -52 48s-44 18 -70 18h-177l-26 -162h158l-18 -112h-158zM89 290l-49 3l18 112h47l44 274h291c43 0 82 -9 117 -27s64 -42 87 -72s39 -66 49 -107
s11 -85 4 -132s-22 -91 -45 -132s-51 -77 -84 -108s-69 -55 -109 -73s-81 -27 -124 -27h-291z" />
    <glyph glyph-name="Ntilde" unicode="&#xd1;" horiz-adv-x="714" 
d="M303 749h-1c3 20 9 37 17 52s17 27 27 37s21 17 32 22s22 7 32 7c14 0 27 -2 39 -6s23 -8 33 -13s20 -9 30 -13s21 -6 33 -6c7 0 14 2 21 6s12 12 15 23h44c-7 -39 -20 -69 -39 -91s-41 -33 -65 -33c-15 0 -28 2 -40 6s-23 8 -34 13s-22 9 -32 13s-21 6 -33 6
c-17 0 -28 -8 -34 -23h-45zM237 501l-79 -501h-115l107 675h114l262 -502l79 502h115l-107 -675h-115z" />
    <glyph glyph-name="Ograve" unicode="&#xd2;" horiz-adv-x="757" 
d="M341 871h128l44 -144h-105zM348 -13l-1 -1c-47 0 -89 9 -127 27s-70 43 -96 75s-44 69 -55 111s-13 88 -6 137c8 48 24 93 47 136s52 80 87 112s75 57 119 75s91 27 140 27c47 0 89 -9 127 -27s70 -43 96 -75s44 -69 55 -112s13 -88 6 -136c-8 -49 -24 -94 -48 -136
s-54 -79 -89 -111s-75 -57 -119 -75s-89 -27 -136 -27zM365 101h-1c30 0 59 6 88 18s55 29 78 51s43 47 59 75s27 58 32 90s4 62 -3 91s-19 54 -35 75s-36 38 -61 51s-52 19 -82 19s-59 -6 -87 -19s-54 -30 -77 -51s-43 -46 -59 -75s-26 -59 -31 -91s-4 -62 3 -90
s19 -53 35 -75s36 -39 60 -51s51 -18 81 -18z" />
    <glyph glyph-name="Oacute" unicode="&#xd3;" horiz-adv-x="757" 
d="M403 726l90 144h128l-112 -144h-106zM348 -13l-1 -1c-47 0 -89 9 -127 27s-70 43 -96 75s-44 69 -55 111s-13 88 -6 137c8 48 24 93 47 136s52 80 87 112s75 57 119 75s91 27 140 27c47 0 89 -9 127 -27s70 -43 96 -75s44 -69 55 -112s13 -88 6 -136
c-8 -49 -24 -94 -48 -136s-54 -79 -89 -111s-75 -57 -119 -75s-89 -27 -136 -27zM365 101h-1c30 0 59 6 88 18s55 29 78 51s43 47 59 75s27 58 32 90s4 62 -3 91s-19 54 -35 75s-36 38 -61 51s-52 19 -82 19s-59 -6 -87 -19s-54 -30 -77 -51s-43 -46 -59 -75
s-26 -59 -31 -91s-4 -62 3 -90s19 -53 35 -75s36 -39 60 -51s51 -18 81 -18z" />
    <glyph glyph-name="Ocircumflex" unicode="&#xd4;" horiz-adv-x="757" 
d="M478 825l-77 -98h-105l112 144h154l67 -144h-105zM348 -13l-1 -1c-47 0 -89 9 -127 27s-70 43 -96 75s-44 69 -55 111s-13 88 -6 137c8 48 24 93 47 136s52 80 87 112s75 57 119 75s91 27 140 27c47 0 89 -9 127 -27s70 -43 96 -75s44 -69 55 -112s13 -88 6 -136
c-8 -49 -24 -94 -48 -136s-54 -79 -89 -111s-75 -57 -119 -75s-89 -27 -136 -27zM365 101h-1c30 0 59 6 88 18s55 29 78 51s43 47 59 75s27 58 32 90s4 62 -3 91s-19 54 -35 75s-36 38 -61 51s-52 19 -82 19s-59 -6 -87 -19s-54 -30 -77 -51s-43 -46 -59 -75
s-26 -59 -31 -91s-4 -62 3 -90s19 -53 35 -75s36 -39 60 -51s51 -18 81 -18z" />
    <glyph glyph-name="Otilde" unicode="&#xd5;" horiz-adv-x="757" 
d="M313 749c4 20 10 37 18 52s17 27 27 37s21 17 32 22s22 7 32 7c14 0 27 -2 39 -6s23 -8 33 -13s20 -9 30 -13s21 -6 32 -6c7 0 14 2 21 6s12 12 15 23h44c-7 -39 -20 -69 -40 -91s-41 -33 -64 -33c-15 0 -28 2 -40 6s-23 8 -34 13s-22 9 -33 13s-22 6 -33 6
c-7 0 -14 -2 -20 -6s-10 -10 -13 -17h-46zM348 -13l-1 -1c-47 0 -89 9 -127 27s-70 43 -96 75s-44 69 -55 111s-13 88 -6 137c8 48 24 93 47 136s52 80 87 112s75 57 119 75s91 27 140 27c47 0 89 -9 127 -27s70 -43 96 -75s44 -69 55 -112s13 -88 6 -136
c-8 -49 -24 -94 -48 -136s-54 -79 -89 -111s-75 -57 -119 -75s-89 -27 -136 -27zM365 101h-1c30 0 59 6 88 18s55 29 78 51s43 47 59 75s27 58 32 90s4 62 -3 91s-19 54 -35 75s-36 38 -61 51s-52 19 -82 19s-59 -6 -87 -19s-54 -30 -77 -51s-43 -46 -59 -75
s-26 -59 -31 -91s-4 -62 3 -90s19 -53 35 -75s36 -39 60 -51s51 -18 81 -18z" />
    <glyph glyph-name="Odieresis" unicode="&#xd6;" horiz-adv-x="757" 
d="M363 737v-2c-19 0 -35 7 -47 21s-16 33 -13 56c3 21 13 39 30 53s35 21 54 21c18 0 33 -7 45 -21s16 -31 13 -52c-2 -11 -6 -21 -11 -30s-11 -17 -19 -24s-16 -12 -25 -16s-18 -6 -27 -6zM572 735v-2c-19 0 -35 7 -47 21s-16 33 -13 56c3 21 13 39 30 53s35 21 54 21
c18 0 33 -7 45 -21s16 -31 13 -52c-2 -11 -6 -21 -11 -30s-11 -17 -19 -24s-16 -12 -25 -16s-18 -6 -27 -6zM348 -17l-1 -1c-47 0 -89 9 -127 27s-70 43 -96 75s-44 69 -55 111s-13 88 -6 137c8 48 24 93 47 136s52 80 87 112s75 57 119 75s91 27 140 27c47 0 89 -9 127 -27
s70 -43 96 -75s44 -69 55 -112s13 -88 6 -136c-8 -49 -24 -94 -48 -136s-54 -79 -89 -111s-75 -57 -119 -75s-89 -27 -136 -27zM365 97h-1c30 0 59 6 88 18s55 29 78 51s43 47 59 75s27 58 32 90s4 62 -3 91s-19 54 -35 75s-36 38 -61 51s-52 19 -82 19s-59 -6 -87 -19
s-54 -30 -77 -51s-43 -46 -59 -75s-26 -59 -31 -91s-4 -62 3 -90s19 -53 35 -75s36 -39 60 -51s51 -18 81 -18z" />
    <glyph glyph-name="multiply" unicode="&#xd7;" horiz-adv-x="444" 
d="M220 167l-118 -108l-59 76l118 108l-84 109l83 75l84 -108l118 108l59 -75l-118 -109l84 -108l-83 -76z" />
    <glyph glyph-name="Oslash" unicode="&#xd8;" horiz-adv-x="757" 
d="M186 337l-2 -1c-5 -33 -4 -64 4 -93s21 -54 38 -75l315 375c-29 20 -63 30 -101 30c-30 0 -59 -6 -87 -19s-54 -30 -77 -51s-43 -46 -59 -75s-26 -59 -31 -91zM364 101l-2 2c30 0 59 6 88 18s55 29 78 51s43 47 59 75s27 58 32 90c5 34 4 66 -4 95s-20 54 -37 75
l-316 -375c29 -21 63 -31 102 -31zM344 -12l-1 -1c-32 0 -62 4 -89 13s-52 21 -75 36l-98 -116h-68l126 150c-32 32 -55 71 -69 117s-17 96 -8 150c8 48 24 93 47 136s52 80 87 112s75 57 119 75s91 27 140 27c32 0 62 -4 89 -13s52 -21 75 -36l99 118h68l-127 -151
c32 -33 55 -72 69 -118s17 -96 8 -150c-8 -49 -24 -94 -48 -136s-54 -79 -89 -111s-75 -57 -119 -75s-89 -27 -136 -27z" />
    <glyph glyph-name="Ugrave" unicode="&#xd9;" horiz-adv-x="691" 
d="M319 871h128l44 -144h-105zM263 675l-62 -395c-10 -61 -3 -106 21 -135s63 -44 118 -45c22 0 43 4 63 12s39 19 56 34s31 34 42 56s19 49 24 80l62 392h115l-64 -401c-7 -47 -20 -88 -39 -124s-42 -66 -70 -90s-59 -42 -94 -54s-72 -18 -112 -18c-43 0 -81 6 -114 18
s-60 30 -81 54s-35 54 -43 90s-8 78 -1 125l64 401h115z" />
    <glyph glyph-name="Uacute" unicode="&#xda;" horiz-adv-x="691" 
d="M372 727l90 144h128l-113 -144h-105zM263 675l-62 -395c-10 -61 -3 -106 21 -135s63 -44 118 -45c22 0 43 4 63 12s39 19 56 34s31 34 42 56s19 49 24 80l62 392h115l-64 -401c-7 -47 -20 -88 -39 -124s-42 -66 -70 -90s-59 -42 -94 -54s-72 -18 -112 -18
c-43 0 -81 6 -114 18s-60 30 -81 54s-35 54 -43 90s-8 78 -1 125l64 401h115z" />
    <glyph glyph-name="Ucircumflex" unicode="&#xdb;" horiz-adv-x="691" 
d="M448 825l-77 -98h-105l113 144h154l67 -144h-106zM263 675l-62 -395c-10 -61 -3 -106 21 -135s63 -44 118 -45c22 0 43 4 63 12s39 19 56 34s31 34 42 56s19 49 24 80l62 392h115l-64 -401c-7 -47 -20 -88 -39 -124s-42 -66 -70 -90s-59 -42 -94 -54s-72 -18 -112 -18
c-43 0 -81 6 -114 18s-60 30 -81 54s-35 54 -43 90s-8 78 -1 125l64 401h115z" />
    <glyph glyph-name="Udieresis" unicode="&#xdc;" horiz-adv-x="691" 
d="M331 737l1 -2c-19 0 -35 7 -47 21s-16 33 -13 56c3 21 13 39 29 53s34 21 54 21c18 0 33 -7 45 -21s16 -31 13 -52c-2 -11 -6 -21 -11 -30s-11 -17 -19 -24s-16 -12 -25 -16s-18 -6 -27 -6zM541 735v-3c-19 0 -35 7 -47 21s-16 33 -13 56c1 10 4 20 9 29s12 17 20 24
s17 12 26 16s19 6 29 6c18 0 33 -7 45 -21s16 -31 13 -52c-2 -11 -6 -21 -11 -30s-11 -17 -19 -24s-16 -12 -25 -16s-18 -6 -27 -6zM264 670l-62 -395c-10 -61 -3 -106 21 -135s63 -44 118 -45c22 0 43 4 63 12s39 19 56 34s31 34 42 56s19 49 24 80l62 392h115l-64 -401
c-7 -47 -20 -88 -39 -124s-42 -66 -70 -90s-59 -42 -94 -54s-72 -18 -112 -18c-43 0 -81 6 -114 18s-60 30 -81 54s-35 54 -43 90s-8 78 -1 125l64 401h115z" />
    <glyph glyph-name="Yacute" unicode="&#xdd;" horiz-adv-x="686" 
d="M368 727l90 144h128l-113 -144h-105zM373 0h-115l36 230l-198 445h125l145 -347l254 347h129l-340 -445z" />
    <glyph glyph-name="Thorn" unicode="&#xde;" horiz-adv-x="622" 
d="M230 451l-34 -225h188c16 0 31 4 44 11s24 16 33 27s17 24 23 38s10 28 12 43c2 13 2 26 0 39s-6 24 -12 34s-14 18 -25 24s-24 9 -40 9h-189zM178 114l-21 -115h-115l107 675h114l-17 -112h218c29 0 54 -6 75 -18s38 -28 51 -49s21 -44 25 -70s4 -52 0 -79
c-5 -29 -13 -57 -25 -85s-28 -53 -47 -75s-41 -39 -66 -52s-52 -20 -81 -20h-218z" />
    <glyph glyph-name="germandbls" unicode="&#xdf;" horiz-adv-x="604" 
d="M313 395l14 -1c37 0 70 8 99 24s46 40 51 72c2 14 1 27 -4 38s-12 20 -22 28s-22 14 -36 18s-29 6 -46 6c-38 1 -71 -9 -99 -30s-45 -51 -52 -91l-72 -458h-111l72 457c6 38 17 71 33 100s36 53 60 73s52 35 83 45s65 15 102 15c32 0 62 -4 89 -12s50 -20 69 -36
s33 -35 42 -58s11 -49 6 -79c-7 -40 -22 -73 -45 -99s-52 -46 -86 -59c38 -14 67 -35 87 -63s27 -63 20 -106c-5 -32 -16 -60 -32 -84s-36 -44 -60 -60s-51 -28 -82 -36s-63 -12 -96 -12c-31 0 -59 3 -84 10l18 109c15 -5 29 -8 42 -9s27 -1 42 -1c35 0 66 8 93 24
s43 40 48 72c3 15 1 29 -6 41s-17 22 -31 30s-30 14 -49 18s-40 6 -63 6h-11z" />
    <glyph glyph-name="agrave" unicode="&#xe0;" 
d="M229 696h127l44 -144h-104zM275 95l-1 -4c19 0 37 4 55 12s34 19 48 33s26 30 36 49s17 39 20 60c3 22 3 42 -1 61s-11 35 -21 49s-23 25 -38 33s-32 12 -51 12s-38 -4 -56 -12s-34 -19 -48 -33s-26 -30 -36 -49s-17 -39 -20 -60s-3 -40 1 -58s11 -34 21 -48
s23 -25 38 -33s33 -12 53 -12zM421 66l-2 -2c-26 -23 -54 -43 -85 -59s-63 -24 -96 -24c-31 0 -60 6 -86 19s-48 31 -66 54s-31 51 -39 83s-9 67 -3 105s18 73 36 105s40 60 66 83s54 41 85 54s63 20 96 20c31 0 60 -7 87 -21s50 -32 69 -55l26 63h66l-79 -495h-65z" />
    <glyph glyph-name="aacute" unicode="&#xe1;" 
d="M291 551l90 144h128l-113 -144h-105zM275 95l-1 -4c19 0 37 4 55 12s34 19 48 33s26 30 36 49s17 39 20 60c3 22 3 42 -1 61s-11 35 -21 49s-23 25 -38 33s-32 12 -51 12s-38 -4 -56 -12s-34 -19 -48 -33s-26 -30 -36 -49s-17 -39 -20 -60s-3 -40 1 -58s11 -34 21 -48
s23 -25 38 -33s33 -12 53 -12zM421 66l-2 -2c-26 -23 -54 -43 -85 -59s-63 -24 -96 -24c-31 0 -60 6 -86 19s-48 31 -66 54s-31 51 -39 83s-9 67 -3 105s18 73 36 105s40 60 66 83s54 41 85 54s63 20 96 20c31 0 60 -7 87 -21s50 -32 69 -55l26 63h66l-79 -495h-65z" />
    <glyph glyph-name="acircumflex" unicode="&#xe2;" 
d="M368 649l-77 -98h-105l107 144h165l61 -144h-105zM275 95l-1 -4c19 0 37 4 55 12s34 19 48 33s26 30 36 49s17 39 20 60c3 22 3 42 -1 61s-11 35 -21 49s-23 25 -38 33s-32 12 -51 12s-38 -4 -56 -12s-34 -19 -48 -33s-26 -30 -36 -49s-17 -39 -20 -60s-3 -40 1 -58
s11 -34 21 -48s23 -25 38 -33s33 -12 53 -12zM421 66l-2 -2c-26 -23 -54 -43 -85 -59s-63 -24 -96 -24c-31 0 -60 6 -86 19s-48 31 -66 54s-31 51 -39 83s-9 67 -3 105s18 73 36 105s40 60 66 83s54 41 85 54s63 20 96 20c31 0 60 -7 87 -21s50 -32 69 -55l26 63h66
l-79 -495h-65z" />
    <glyph glyph-name="atilde" unicode="&#xe3;" 
d="M200 582h1c7 40 21 70 42 89s43 29 66 29c14 0 27 -2 39 -6s23 -8 33 -13s20 -9 30 -13s21 -6 33 -6c7 0 14 2 21 6s12 12 15 23h44c-6 -40 -18 -71 -36 -92s-41 -32 -69 -32c-14 0 -27 2 -39 6s-23 8 -34 13s-22 9 -33 13s-22 6 -34 6c-17 0 -28 -8 -33 -23h-46zM276 95
l-1 -4c19 0 37 4 55 12s34 19 48 33s26 30 36 49s17 39 20 60c3 22 3 42 -1 61s-11 35 -21 49s-23 25 -38 33s-32 12 -51 12s-38 -4 -56 -12s-34 -19 -48 -33s-26 -30 -36 -49s-17 -39 -20 -60s-3 -40 1 -58s11 -34 21 -48s23 -25 38 -33s33 -12 53 -12zM422 66l-2 -2
c-26 -23 -54 -43 -85 -59s-63 -24 -96 -24c-31 0 -60 6 -86 19s-48 31 -66 54s-31 51 -39 83s-9 67 -3 105s18 73 36 105s40 60 66 83s54 41 85 54s63 20 96 20c31 0 60 -7 87 -21s50 -32 69 -55l26 63h66l-79 -495h-65z" />
    <glyph glyph-name="adieresis" unicode="&#xe4;" 
d="M243 572h3c-19 0 -34 7 -46 21s-16 33 -13 56c1 10 4 20 9 29s11 17 18 24s15 12 24 16s19 6 29 6c19 0 34 -7 46 -22s16 -33 13 -54c-4 -23 -14 -41 -31 -55s-34 -21 -52 -21zM448 572v-1c-19 0 -35 7 -47 21s-16 33 -13 56c3 21 13 39 30 54s35 22 54 22
c18 0 33 -7 45 -22s16 -33 13 -54c-3 -23 -13 -41 -30 -55s-34 -21 -52 -21zM278 94l-1 -4c19 0 37 4 55 12s34 19 48 33s26 30 36 49s17 39 20 60c3 22 3 42 -1 61s-11 35 -21 49s-23 25 -38 33s-32 12 -51 12s-38 -4 -56 -12s-34 -19 -48 -33s-26 -30 -36 -49
s-17 -39 -20 -60s-3 -40 1 -58s11 -34 21 -48s23 -25 38 -33s33 -12 53 -12zM424 65l-2 -2c-26 -23 -54 -43 -85 -59s-63 -24 -96 -24c-31 0 -60 6 -86 19s-48 31 -66 54s-31 51 -39 83s-9 67 -3 105s18 73 36 105s40 60 66 83s54 41 85 54s63 20 96 20c31 0 60 -7 87 -21
s50 -32 69 -55l26 63h66l-79 -495h-65z" />
    <glyph glyph-name="aring" unicode="&#xe5;" 
d="M251 668h-1c0 33 11 61 32 83s49 33 84 33c34 0 62 -11 83 -33s32 -50 32 -83c0 -34 -10 -62 -31 -84s-48 -33 -82 -33c-38 0 -67 11 -87 33s-30 50 -30 84zM366 616v-2c12 0 23 5 33 14s15 21 15 36c0 17 -5 30 -15 39s-21 13 -33 13c-13 0 -24 -5 -33 -14
s-14 -21 -14 -36c0 -17 5 -30 14 -38s20 -12 33 -12zM274 93l-1 -4c19 0 37 4 55 12s34 19 48 33s26 30 36 49s17 39 20 60c3 22 3 42 -1 61s-11 35 -21 49s-23 25 -38 33s-32 12 -51 12s-38 -4 -56 -12s-34 -19 -48 -33s-26 -30 -36 -49s-17 -39 -20 -60s-3 -40 1 -58
s11 -34 21 -48s23 -25 38 -33s33 -12 53 -12zM420 64l-2 -2c-26 -23 -54 -43 -85 -59s-63 -24 -96 -24c-31 0 -60 6 -86 19s-48 31 -66 54s-31 51 -39 83s-9 67 -3 105s18 73 36 105s40 60 66 83s54 41 85 54s63 20 96 20c31 0 60 -7 87 -21s50 -32 69 -55l26 63h66
l-79 -495h-65z" />
    <glyph glyph-name="ae" unicode="&#xe6;" horiz-adv-x="877" 
d="M643 412l-1 -1c-33 0 -62 -11 -86 -33s-42 -50 -53 -85l235 9c-3 36 -12 63 -28 82s-38 28 -67 28zM215 84l-3 -2c27 0 54 6 80 18s53 29 82 50c-5 23 -6 49 -3 77l-118 -15c-13 -1 -25 -3 -37 -6s-22 -7 -31 -12s-16 -12 -22 -20s-10 -18 -12 -31c-3 -17 1 -31 11 -42
s28 -17 53 -17zM798 73h-7c-29 -29 -61 -51 -97 -66s-74 -23 -113 -23c-38 0 -73 8 -105 24s-58 39 -77 68c-20 -15 -39 -28 -57 -39s-36 -20 -54 -28s-36 -14 -54 -18s-37 -6 -58 -6c-28 0 -52 4 -72 13s-36 21 -48 36s-20 33 -24 54s-4 43 0 66c4 24 12 45 23 62
s25 32 42 44s37 21 60 28s48 11 75 13l150 12l2 11c4 27 -3 47 -22 60s-47 20 -85 20c-29 0 -56 -2 -81 -6s-51 -11 -78 -20l-8 93c31 11 61 20 91 26s65 9 104 9c85 0 142 -22 172 -65c24 21 50 37 78 48s57 17 87 17c34 0 65 -6 93 -19s52 -32 71 -57s32 -56 39 -93
s7 -80 -1 -128h-358c3 -37 16 -65 39 -85s53 -30 89 -30c24 0 46 4 66 12s39 21 56 38z" />
    <glyph glyph-name="ccedilla" unicode="&#xe7;" horiz-adv-x="508" 
d="M196 -193l-6 -1c-19 0 -34 3 -45 9s-19 13 -24 20l20 38c7 -7 15 -12 23 -14s17 -3 26 -3s17 2 24 6s11 11 12 20c1 10 -4 17 -15 22s-27 7 -48 7l35 79c-26 6 -50 16 -72 30s-40 32 -54 54s-24 47 -30 75s-6 59 -1 93c6 39 18 75 36 107s40 60 66 83s55 41 87 54
s66 19 101 19c38 0 72 -7 103 -21s56 -35 75 -62l-89 -72c-13 14 -28 25 -45 34s-37 13 -60 13c-19 0 -37 -4 -54 -11s-32 -17 -46 -31s-26 -30 -36 -49s-16 -39 -19 -61s-3 -42 1 -60s11 -34 21 -47s23 -23 38 -31s32 -12 51 -12c23 0 44 4 62 13s37 21 56 36l69 -73
c-28 -28 -60 -49 -96 -63s-73 -21 -111 -21h-3l-15 -36c30 -2 50 -8 60 -18s14 -26 11 -47s-15 -39 -35 -55s-44 -24 -73 -24z" />
    <glyph glyph-name="egrave" unicode="&#xe8;" horiz-adv-x="548" 
d="M221 696h127l44 -144h-104zM313 412v-1c-33 0 -62 -11 -86 -33s-42 -50 -54 -85l237 9c-3 36 -12 63 -28 82s-39 28 -69 28zM472 75l-2 -1c-28 -29 -60 -51 -97 -66s-75 -23 -114 -23c-33 0 -64 6 -93 18s-53 29 -73 51s-35 49 -44 81s-11 68 -5 107c7 41 20 78 39 111
s41 61 67 83s55 39 86 51s63 18 95 18s61 -6 88 -19s49 -32 67 -57s30 -56 36 -93s5 -80 -3 -128h-359c2 -37 15 -65 38 -85s53 -30 90 -30c24 0 46 4 66 13s39 22 56 39z" />
    <glyph glyph-name="eacute" unicode="&#xe9;" horiz-adv-x="548" 
d="M281 551l89 144h129l-113 -144h-105zM313 412v-1c-33 0 -62 -11 -86 -33s-42 -50 -54 -85l237 9c-3 36 -12 63 -28 82s-39 28 -69 28zM472 75l-2 -1c-28 -29 -60 -51 -97 -66s-75 -23 -114 -23c-33 0 -64 6 -93 18s-53 29 -73 51s-35 49 -44 81s-11 68 -5 107
c7 41 20 78 39 111s41 61 67 83s55 39 86 51s63 18 95 18s61 -6 88 -19s49 -32 67 -57s30 -56 36 -93s5 -80 -3 -128h-359c2 -37 15 -65 38 -85s53 -30 90 -30c24 0 46 4 66 13s39 22 56 39z" />
    <glyph glyph-name="ecircumflex" unicode="&#xea;" horiz-adv-x="548" 
d="M354 649l-77 -98h-105l107 144h165l61 -144h-105zM313 412v-1c-33 0 -62 -11 -86 -33s-42 -50 -54 -85l237 9c-3 36 -12 63 -28 82s-39 28 -69 28zM472 75l-2 -1c-28 -29 -60 -51 -97 -66s-75 -23 -114 -23c-33 0 -64 6 -93 18s-53 29 -73 51s-35 49 -44 81
s-11 68 -5 107c7 41 20 78 39 111s41 61 67 83s55 39 86 51s63 18 95 18s61 -6 88 -19s49 -32 67 -57s30 -56 36 -93s5 -80 -3 -128h-359c2 -37 15 -65 38 -85s53 -30 90 -30c24 0 46 4 66 13s39 22 56 39z" />
    <glyph glyph-name="edieresis" unicode="&#xeb;" horiz-adv-x="548" 
d="M238 572l1 -1c-19 0 -35 7 -47 21s-16 33 -13 56c3 21 13 39 29 54s34 22 54 22c18 0 33 -7 45 -22s16 -33 13 -54c-2 -11 -6 -21 -11 -30s-11 -17 -19 -24s-16 -12 -25 -16s-18 -6 -27 -6zM440 571v-1c-19 0 -35 7 -47 21s-16 33 -13 56c3 21 13 39 30 54s35 22 54 22
c18 0 33 -7 45 -22s16 -33 13 -54c-3 -23 -13 -41 -30 -55s-34 -21 -52 -21zM314 410v-1c-33 0 -62 -11 -86 -33s-42 -50 -54 -85l237 9c-3 36 -12 63 -28 82s-39 28 -69 28zM473 73l-2 -1c-28 -29 -60 -51 -97 -66s-75 -23 -114 -23c-33 0 -64 6 -93 18s-53 29 -73 51
s-35 49 -44 81s-11 68 -5 107c7 41 20 78 39 111s41 61 67 83s55 39 86 51s63 18 95 18s61 -6 88 -19s49 -32 67 -57s30 -56 36 -93s5 -80 -3 -128h-359c2 -37 15 -65 38 -85s53 -30 90 -30c24 0 46 4 66 13s39 22 56 39z" />
    <glyph glyph-name="igrave" unicode="&#xec;" horiz-adv-x="245" 
d="M62 696h127l45 -144h-105zM117 495h111l-78 -495h-112z" />
    <glyph glyph-name="iacute" unicode="&#xed;" horiz-adv-x="245" 
d="M129 551l90 144h128l-112 -144h-106zM117 495h111l-79 -495h-111z" />
    <glyph glyph-name="icircumflex" unicode="&#xee;" horiz-adv-x="245" 
d="M198 649l-77 -98h-105l106 144h166l61 -144h-105zM117 495h111l-78 -495h-112z" />
    <glyph glyph-name="idieresis" unicode="&#xef;" horiz-adv-x="245" 
d="M83 572v-1c-19 0 -35 7 -47 21s-16 33 -13 56c3 21 13 39 30 54s35 22 54 22c18 0 33 -7 45 -22s16 -33 13 -54c-3 -23 -13 -41 -30 -55s-34 -21 -52 -21zM285 571v-1c-19 0 -35 7 -47 21s-16 33 -13 56c3 21 13 39 30 54s35 22 54 22c18 0 33 -7 45 -22s16 -33 13 -54
c-2 -11 -6 -21 -11 -30s-11 -17 -19 -24s-16 -12 -25 -16s-18 -6 -27 -6zM117 493h111l-78 -495h-112z" />
    <glyph glyph-name="eth" unicode="&#xf0;" horiz-adv-x="560" 
d="M243 -13l-2 -2c-33 0 -63 6 -90 18s-49 29 -67 51s-30 49 -37 80s-8 66 -3 104s16 72 32 101s36 53 59 73s49 35 78 45s59 15 90 15c21 0 43 -3 66 -10s45 -16 66 -27c-3 45 -14 80 -33 105l-57 -52l-25 36l51 46c-13 9 -27 15 -42 19s-31 6 -48 6c-18 0 -35 -2 -52 -6
s-35 -9 -54 -15l-21 89c28 9 54 15 77 19s48 6 75 6c29 0 56 -3 81 -9s48 -16 69 -31l80 73l26 -34l-73 -68c27 -30 46 -71 56 -123s9 -118 -4 -198l-2 -8c-8 -51 -21 -95 -40 -133s-42 -69 -69 -94s-56 -44 -88 -57s-65 -19 -99 -19zM265 100l-1 -4c17 0 34 3 50 9
s31 15 44 27s24 27 33 45s16 39 20 62c3 16 2 31 -2 45s-11 26 -20 36s-21 18 -35 24s-29 9 -46 9c-18 0 -35 -3 -51 -8s-31 -13 -44 -23s-24 -23 -33 -38s-15 -32 -18 -52c-3 -21 -3 -40 1 -56s11 -30 20 -41s21 -20 35 -26s30 -9 47 -9z" />
    <glyph glyph-name="ntilde" unicode="&#xf1;" horiz-adv-x="587" 
d="M206 582h-1c7 40 21 70 42 89s43 29 66 29c14 0 27 -2 39 -6s23 -8 33 -13s20 -9 30 -13s21 -6 33 -6c7 0 14 2 21 6s12 12 15 23h44c-7 -40 -19 -71 -36 -92s-40 -32 -68 -32c-15 0 -28 2 -40 6s-23 8 -34 13s-22 9 -32 13s-21 6 -33 6c-17 0 -28 -8 -33 -23h-46z
M340 393l-3 -2c-25 0 -49 -7 -73 -20s-46 -31 -67 -54l-51 -319h-111l79 495h74l8 -80c29 32 60 56 92 71s64 23 96 23c25 0 49 -4 71 -12s40 -20 55 -37s26 -38 32 -64s6 -57 0 -93l-48 -301h-111l44 277c7 40 2 69 -15 88s-41 28 -72 28z" />
    <glyph glyph-name="ograve" unicode="&#xf2;" horiz-adv-x="570" 
d="M234 696h127l45 -144h-105zM254 -13v-1c-32 0 -62 6 -90 18s-52 29 -71 51s-33 49 -42 81s-10 68 -4 107c7 41 19 78 37 111s40 61 66 83s55 39 87 51s66 18 102 18c33 0 64 -6 92 -19s52 -31 71 -54s33 -51 41 -83s9 -68 3 -107s-18 -74 -36 -106s-40 -59 -66 -81
s-55 -39 -88 -51s-67 -18 -102 -18zM271 95l-3 -1c19 0 38 4 56 11s34 17 48 30s26 29 36 47s17 38 20 60s3 42 -1 61s-11 35 -21 49s-23 25 -38 33s-32 12 -51 12s-37 -4 -54 -12s-33 -19 -47 -33s-26 -30 -36 -49s-17 -39 -20 -61c-3 -21 -3 -41 1 -59s11 -34 21 -47
s23 -23 38 -30s32 -11 51 -11z" />
    <glyph glyph-name="oacute" unicode="&#xf3;" horiz-adv-x="570" 
d="M281 551l90 144h128l-112 -144h-106zM254 -13v-1c-32 0 -62 6 -90 18s-52 29 -71 51s-33 49 -42 81s-10 68 -4 107c7 41 19 78 37 111s40 61 66 83s55 39 87 51s66 18 102 18c33 0 64 -6 92 -19s52 -31 71 -54s33 -51 41 -83s9 -68 3 -107s-18 -74 -36 -106
s-40 -59 -66 -81s-55 -39 -88 -51s-67 -18 -102 -18zM271 95l-3 -1c19 0 38 4 56 11s34 17 48 30s26 29 36 47s17 38 20 60s3 42 -1 61s-11 35 -21 49s-23 25 -38 33s-32 12 -51 12s-37 -4 -54 -12s-33 -19 -47 -33s-26 -30 -36 -49s-17 -39 -20 -61c-3 -21 -3 -41 1 -59
s11 -34 21 -47s23 -23 38 -30s32 -11 51 -11z" />
    <glyph glyph-name="ocircumflex" unicode="&#xf4;" horiz-adv-x="570" 
d="M351 649l-77 -98h-105l107 144h165l61 -144h-105zM254 -13v-1c-32 0 -62 6 -90 18s-52 29 -71 51s-33 49 -42 81s-10 68 -4 107c7 41 19 78 37 111s40 61 66 83s55 39 87 51s66 18 102 18c33 0 64 -6 92 -19s52 -31 71 -54s33 -51 41 -83s9 -68 3 -107s-18 -74 -36 -106
s-40 -59 -66 -81s-55 -39 -88 -51s-67 -18 -102 -18zM271 95l-3 -1c19 0 38 4 56 11s34 17 48 30s26 29 36 47s17 38 20 60s3 42 -1 61s-11 35 -21 49s-23 25 -38 33s-32 12 -51 12s-37 -4 -54 -12s-33 -19 -47 -33s-26 -30 -36 -49s-17 -39 -20 -61c-3 -21 -3 -41 1 -59
s11 -34 21 -47s23 -23 38 -30s32 -11 51 -11z" />
    <glyph glyph-name="otilde" unicode="&#xf5;" horiz-adv-x="570" 
d="M191 582h-1c7 40 21 70 42 89s43 29 66 29c14 0 27 -2 39 -6s23 -8 33 -13s20 -9 30 -13s21 -6 33 -6c7 0 14 2 21 6s12 12 15 23h44c-7 -40 -19 -71 -36 -92s-40 -32 -68 -32c-15 0 -28 2 -40 6s-23 8 -34 13s-22 9 -32 13s-21 6 -33 6c-17 0 -28 -8 -33 -23h-46z
M253 -13v-1c-32 0 -62 6 -90 18s-52 29 -71 51s-33 49 -42 81s-10 68 -4 107c7 41 19 78 37 111s40 61 66 83s55 39 87 51s66 18 102 18c33 0 64 -6 92 -19s52 -31 71 -54s33 -51 41 -83s9 -68 3 -107s-18 -74 -36 -106s-40 -59 -66 -81s-55 -39 -88 -51s-67 -18 -102 -18z
M270 95l-3 -1c19 0 38 4 56 11s34 17 48 30s26 29 36 47s17 38 20 60s3 42 -1 61s-11 35 -21 49s-23 25 -38 33s-32 12 -51 12s-37 -4 -54 -12s-33 -19 -47 -33s-26 -30 -36 -49s-17 -39 -20 -61c-3 -21 -3 -41 1 -59s11 -34 21 -47s23 -23 38 -30s32 -11 51 -11z" />
    <glyph glyph-name="odieresis" unicode="&#xf6;" horiz-adv-x="570" 
d="M246 572v-1c-19 0 -35 7 -47 21s-16 33 -13 56c3 21 13 39 30 54s35 22 54 22c18 0 33 -7 45 -22s16 -33 13 -54c-3 -23 -13 -41 -30 -55s-34 -21 -52 -21zM448 571v-1c-19 0 -35 7 -47 21s-16 33 -13 56c3 21 13 39 30 54s35 22 54 22c18 0 33 -7 45 -22s16 -33 13 -54
c-2 -11 -6 -21 -11 -30s-11 -17 -19 -24s-16 -12 -25 -16s-18 -6 -27 -6zM254 -15v-1c-32 0 -62 6 -90 18s-52 29 -71 51s-33 49 -42 81s-10 68 -4 107c7 41 19 78 37 111s40 61 66 83s55 39 87 51s66 18 102 18c33 0 64 -6 92 -19s52 -31 71 -54s33 -51 41 -83
s9 -68 3 -107s-18 -74 -36 -106s-40 -59 -66 -81s-55 -39 -88 -51s-67 -18 -102 -18zM271 93l-3 -1c19 0 38 4 56 11s34 17 48 30s26 29 36 47s17 38 20 60s3 42 -1 61s-11 35 -21 49s-23 25 -38 33s-32 12 -51 12s-37 -4 -54 -12s-33 -19 -47 -33s-26 -30 -36 -49
s-17 -39 -20 -61c-3 -21 -3 -41 1 -59s11 -34 21 -47s23 -23 38 -30s32 -11 51 -11z" />
    <glyph glyph-name="divide" unicode="&#xf7;" horiz-adv-x="469" 
d="M263 343h2c-18 0 -32 7 -43 20s-15 29 -12 48s12 35 27 48s31 20 49 20c17 0 31 -7 41 -20s14 -29 11 -48s-12 -35 -27 -48s-31 -20 -48 -20zM55 285h397l-13 -79h-397zM214 15l2 -2c-19 0 -34 7 -45 21s-15 31 -12 50s12 35 27 48s31 20 49 20c17 0 31 -6 42 -19
s15 -29 12 -48s-12 -35 -27 -49s-31 -21 -48 -21z" />
    <glyph glyph-name="oslash" unicode="&#xf8;" horiz-adv-x="570" 
d="M161 245l-1 1c-3 -22 -2 -42 2 -61s11 -35 21 -48l210 236c-20 18 -45 27 -75 27c-19 0 -37 -4 -54 -12s-33 -19 -47 -33s-26 -30 -36 -49s-17 -39 -20 -61zM270 97l-2 2c19 0 38 4 56 11s34 17 48 30s26 29 36 47s17 38 20 60c3 21 3 41 0 59s-9 34 -18 47l-209 -234
c20 -15 43 -22 69 -22zM251 -10l-2 -3c-49 0 -92 14 -129 42l-98 -109h-34l112 126c-23 23 -40 51 -51 85s-13 72 -6 115c7 41 19 78 37 111s40 61 66 83s55 39 87 51s66 18 102 18c26 0 51 -4 74 -12s44 -19 63 -34l102 115h35l-118 -133c21 -23 37 -51 47 -85
s12 -72 5 -114c-6 -39 -18 -74 -36 -106s-40 -59 -66 -81s-55 -39 -88 -51s-67 -18 -102 -18z" />
    <glyph glyph-name="ugrave" unicode="&#xf9;" horiz-adv-x="578" 
d="M230 696h127l45 -144h-105zM403 79v-1c-28 -30 -58 -53 -90 -69s-64 -24 -95 -24c-25 0 -48 4 -69 13s-39 22 -53 40s-24 41 -30 69s-6 61 0 100l45 287h111l-43 -270c-13 -83 17 -124 89 -123c25 -1 48 6 70 20s43 32 64 54l50 320h111l-78 -495h-75z" />
    <glyph glyph-name="uacute" unicode="&#xfa;" horiz-adv-x="578" 
d="M285 551l90 144h128l-113 -144h-105zM403 79v-1c-28 -30 -58 -53 -90 -69s-64 -24 -95 -24c-25 0 -48 4 -69 13s-39 22 -53 40s-24 41 -30 69s-6 61 0 100l45 287h111l-43 -270c-13 -83 17 -124 89 -123c25 -1 48 6 70 20s43 32 64 54l50 320h111l-78 -495h-75z" />
    <glyph glyph-name="ucircumflex" unicode="&#xfb;" horiz-adv-x="578" 
d="M366 649l-77 -98h-105l107 144h165l61 -144h-105zM403 79v-1c-28 -30 -58 -53 -90 -69s-64 -24 -95 -24c-25 0 -48 4 -69 13s-39 22 -53 40s-24 41 -30 69s-6 61 0 100l45 287h111l-43 -270c-13 -83 17 -124 89 -123c25 -1 48 6 70 20s43 32 64 54l50 320h111l-78 -495
h-75z" />
    <glyph glyph-name="udieresis" unicode="&#xfc;" horiz-adv-x="578" 
d="M248 572v-1c-19 0 -35 7 -47 21s-16 33 -13 56c3 21 13 39 30 54s35 22 54 22c18 0 33 -7 45 -22s16 -33 13 -54c-2 -11 -6 -21 -11 -30s-11 -17 -19 -24s-16 -12 -25 -16s-18 -6 -27 -6zM450 571l1 -1c-19 0 -35 7 -47 21s-16 33 -13 56c3 21 13 39 29 54s34 22 54 22
c18 0 33 -7 45 -22s16 -33 13 -54c-2 -11 -6 -21 -11 -30s-11 -17 -19 -24s-16 -12 -25 -16s-18 -6 -27 -6zM404 77v-1c-28 -30 -58 -53 -90 -69s-64 -24 -95 -24c-25 0 -48 4 -69 13s-39 22 -53 40s-24 41 -30 69s-6 61 0 100l45 287h111l-43 -270c-13 -83 17 -124 89 -123
c25 -1 48 6 70 20s43 32 64 54l50 320h111l-78 -495h-75z" />
    <glyph glyph-name="yacute" unicode="&#xfd;" horiz-adv-x="484" 
d="M246 551l90 144h128l-112 -144h-106zM-43 -126l-4 -2c20 0 40 6 60 18s39 26 57 43s35 35 50 54s28 36 39 51l-105 456h122l65 -346c36 53 67 108 93 165s49 117 70 181h121c-33 -91 -73 -180 -121 -267s-102 -169 -163 -246c-26 -33 -51 -63 -75 -90s-48 -50 -72 -69
s-49 -33 -74 -43s-52 -15 -80 -15z" />
    <glyph glyph-name="thorn" unicode="&#xfe;" 
d="M297 95h-1c20 0 39 4 56 12s33 19 47 33s25 30 34 48s15 38 18 59s3 41 -1 60s-11 35 -21 49s-23 25 -38 33s-32 12 -51 12s-38 -4 -56 -12s-34 -19 -48 -33s-26 -30 -36 -49s-17 -39 -20 -61c-3 -21 -3 -41 1 -60s11 -35 21 -48s23 -23 39 -31s35 -12 56 -12zM110 -236
l-110 -2l150 950h110l-40 -257c23 16 47 29 72 38s50 14 75 14c32 0 62 -6 89 -19s50 -31 68 -54s31 -50 39 -82s9 -67 3 -106c-6 -38 -17 -73 -33 -105s-36 -59 -60 -82s-51 -41 -81 -54s-61 -19 -94 -19c-31 0 -59 7 -84 20s-47 30 -66 51l-7 -94z" />
    <glyph glyph-name="ydieresis" unicode="&#xff;" horiz-adv-x="484" 
d="M209 572v-1c-19 0 -35 7 -47 21s-16 33 -13 56c3 21 13 39 30 54s35 22 54 22c18 0 33 -7 45 -22s16 -33 13 -54c-2 -11 -6 -21 -11 -30s-11 -17 -19 -24s-16 -12 -25 -16s-18 -6 -27 -6zM410 571l1 -1c-19 0 -34 7 -46 21s-16 33 -13 56c3 21 13 39 29 54s34 22 54 22
c18 0 33 -7 45 -22s16 -33 13 -54c-4 -23 -14 -41 -31 -55s-34 -21 -52 -21zM-42 -128l-4 -2c20 0 40 6 60 18s39 26 57 43s35 35 50 54s28 36 39 51l-105 456h122l65 -346c36 53 67 108 93 165s49 117 70 181h121c-33 -91 -73 -180 -121 -267s-102 -169 -163 -246
c-26 -33 -51 -63 -75 -90s-48 -50 -72 -69s-49 -33 -74 -43s-52 -15 -80 -15z" />
    <glyph glyph-name="Amacron" unicode="&#x100;" horiz-adv-x="678" 
d="M286 835h293l-14 -90h-293zM399 548l-151 -286h212zM484 150h-295l-79 -150h-125l371 675h123l157 -675h-120z" />
    <glyph glyph-name="amacron" unicode="&#x101;" 
d="M234 659h278l-14 -90h-278zM275 95l-1 -4c19 0 37 4 55 12s34 19 48 33s26 30 36 49s17 39 20 60c3 22 3 42 -1 61s-11 35 -21 49s-23 25 -38 33s-32 12 -51 12s-38 -4 -56 -12s-34 -19 -48 -33s-26 -30 -36 -49s-17 -39 -20 -60s-3 -40 1 -58s11 -34 21 -48
s23 -25 38 -33s33 -12 53 -12zM421 66l-2 -2c-26 -23 -54 -43 -85 -59s-63 -24 -96 -24c-31 0 -60 6 -86 19s-48 31 -66 54s-31 51 -39 83s-9 67 -3 105s18 73 36 105s40 60 66 83s54 41 85 54s63 20 96 20c31 0 60 -7 87 -21s50 -32 69 -55l26 63h66l-79 -495h-65z" />
    <glyph glyph-name="Abreve" unicode="&#x102;" horiz-adv-x="678" 
d="M370 878l-2 -1c-1 -17 5 -33 17 -48s29 -22 52 -22c22 0 41 7 58 21s28 31 33 50h65c-13 -49 -33 -87 -61 -114s-63 -40 -106 -40c-44 0 -76 13 -96 40s-27 65 -22 114h62zM397 547l-151 -286h212zM482 149h-295l-79 -150h-125l371 675h123l157 -675h-120z" />
    <glyph glyph-name="abreve" unicode="&#x103;" 
d="M294 703l-1 -1c-1 -17 5 -33 17 -48s29 -22 51 -22s41 7 58 21s28 31 34 50h64c-13 -49 -33 -87 -61 -114s-64 -40 -107 -40s-75 13 -95 40s-28 65 -23 114h63zM274 94l-1 -4c19 0 37 4 55 12s34 19 48 33s26 30 36 49s17 39 20 60c3 22 3 42 -1 61s-11 35 -21 49
s-23 25 -38 33s-32 12 -51 12s-38 -4 -56 -12s-34 -19 -48 -33s-26 -30 -36 -49s-17 -39 -20 -60s-3 -40 1 -58s11 -34 21 -48s23 -25 38 -33s33 -12 53 -12zM420 65l-2 -2c-26 -23 -54 -43 -85 -59s-63 -24 -96 -24c-31 0 -60 6 -86 19s-48 31 -66 54s-31 51 -39 83
s-9 67 -3 105s18 73 36 105s40 60 66 83s54 41 85 54s63 20 96 20c31 0 60 -7 87 -21s50 -32 69 -55l26 63h66l-79 -495h-65z" />
    <glyph glyph-name="Aogonek" unicode="&#x104;" horiz-adv-x="676" 
d="M399 548l-151 -286h212zM627 -164l-4 -1c-26 -22 -59 -33 -98 -33c-36 0 -63 8 -81 25s-24 40 -19 70c4 25 14 47 29 65s34 34 56 47l-29 140h-295l-80 -150h-124l371 675h123l157 -675h-3c-42 -11 -72 -24 -89 -38s-27 -31 -30 -50c-1 -11 2 -20 9 -28s17 -12 30 -12
c26 0 49 9 68 27z" />
    <glyph glyph-name="aogonek" unicode="&#x105;" 
d="M395 -197l-4 -4c-36 0 -63 8 -81 25s-24 40 -19 70c5 34 20 62 45 84s54 39 87 51l-6 38c-26 -23 -54 -43 -85 -59s-63 -24 -96 -24c-31 0 -60 6 -86 19s-48 31 -66 54s-31 51 -39 83s-9 67 -3 105s18 73 36 105s40 60 66 83s54 41 85 54s63 20 96 20c31 0 60 -7 87 -21
s50 -32 69 -55l26 63h66l-78 -491l1 -4c-42 -11 -72 -24 -89 -38s-27 -31 -30 -50c-1 -11 2 -20 9 -28s17 -12 30 -12c26 0 49 9 68 27l9 -62c-26 -22 -59 -33 -98 -33zM271 91l-1 -4c19 0 37 4 55 12s34 19 48 33s26 30 36 49s17 39 20 60c3 22 3 42 -1 61s-11 35 -21 49
s-23 25 -38 33s-32 12 -51 12s-38 -4 -56 -12s-34 -19 -48 -33s-26 -30 -36 -49s-17 -39 -20 -60s-3 -40 1 -58s11 -34 21 -48s23 -25 38 -33s33 -12 53 -12z" />
    <glyph glyph-name="Cacute" unicode="&#x106;" horiz-adv-x="678" 
d="M390 727l90 144h128l-112 -144h-106zM618 94l-4 -3c-35 -33 -76 -59 -124 -78s-97 -28 -146 -28c-47 0 -89 9 -127 26s-70 41 -95 72s-43 68 -54 110s-12 89 -4 140c9 55 26 105 51 149s55 81 90 111s74 53 116 69s85 24 128 24c55 0 104 -9 146 -28s76 -46 101 -82
l-88 -74c-19 24 -43 42 -72 53s-61 17 -96 17c-31 0 -61 -6 -89 -18s-54 -28 -77 -49s-42 -46 -57 -75s-25 -60 -30 -94s-4 -65 3 -94s19 -53 35 -73s36 -36 60 -48s51 -18 80 -18c34 0 68 7 101 20s62 32 87 57z" />
    <glyph glyph-name="cacute" unicode="&#x107;" horiz-adv-x="508" 
d="M279 551l90 144h128l-112 -144h-106zM458 72l-4 -2c-28 -28 -60 -49 -96 -63s-73 -21 -111 -21c-32 0 -62 6 -90 18s-51 29 -70 51s-33 49 -42 81s-10 68 -4 107s18 75 36 107s40 60 66 83s55 41 87 54s66 19 101 19c38 0 72 -7 103 -21s56 -35 75 -62l-89 -72
c-13 14 -28 25 -45 34s-37 13 -60 13c-19 0 -37 -4 -54 -11s-32 -17 -46 -31s-26 -30 -36 -49s-16 -39 -19 -61s-3 -42 1 -60s11 -34 21 -47s23 -23 38 -31s32 -12 51 -12c23 0 44 4 62 13s37 21 56 36z" />
    <glyph glyph-name="Ccircumflex" unicode="&#x108;" horiz-adv-x="678" 
d="M477 825l-78 -98h-105l113 144h154l67 -144h-105zM618 94l-4 -3c-35 -33 -76 -59 -124 -78s-97 -28 -146 -28c-47 0 -89 9 -127 26s-70 41 -95 72s-43 68 -54 110s-12 89 -4 140c9 55 26 105 51 149s55 81 90 111s74 53 116 69s85 24 128 24c55 0 104 -9 146 -28
s76 -46 101 -82l-88 -74c-19 24 -43 42 -72 53s-61 17 -96 17c-31 0 -61 -6 -89 -18s-54 -28 -77 -49s-42 -46 -57 -75s-25 -60 -30 -94s-4 -65 3 -94s19 -53 35 -73s36 -36 60 -48s51 -18 80 -18c34 0 68 7 101 20s62 32 87 57z" />
    <glyph glyph-name="ccircumflex" unicode="&#x109;" horiz-adv-x="508" 
d="M341 649l-77 -98h-105l106 144h166l61 -144h-105zM458 72l-4 -2c-28 -28 -60 -49 -96 -63s-73 -21 -111 -21c-32 0 -62 6 -90 18s-51 29 -70 51s-33 49 -42 81s-10 68 -4 107s18 75 36 107s40 60 66 83s55 41 87 54s66 19 101 19c38 0 72 -7 103 -21s56 -35 75 -62
l-89 -72c-13 14 -28 25 -45 34s-37 13 -60 13c-19 0 -37 -4 -54 -11s-32 -17 -46 -31s-26 -30 -36 -49s-16 -39 -19 -61s-3 -42 1 -60s11 -34 21 -47s23 -23 38 -31s32 -12 51 -12c23 0 44 4 62 13s37 21 56 36z" />
    <glyph glyph-name="Cdotaccent" unicode="&#x10a;" horiz-adv-x="678" 
d="M460 741v-1c-19 0 -35 7 -47 21s-16 33 -13 56c3 21 13 39 30 54s35 22 54 22c18 0 33 -7 45 -22s16 -33 13 -54c-3 -23 -13 -41 -30 -55s-34 -21 -52 -21zM618 93l-4 -3c-35 -33 -76 -59 -124 -78s-97 -28 -146 -28c-47 0 -89 9 -127 26s-70 41 -95 72s-43 68 -54 110
s-12 89 -4 140c9 55 26 105 51 149s55 81 90 111s74 53 116 69s85 24 128 24c55 0 104 -9 146 -28s76 -46 101 -82l-88 -74c-19 24 -43 42 -72 53s-61 17 -96 17c-31 0 -61 -6 -89 -18s-54 -28 -77 -49s-42 -46 -57 -75s-25 -60 -30 -94s-4 -65 3 -94s19 -53 35 -73
s36 -36 60 -48s51 -18 80 -18c34 0 68 7 101 20s62 32 87 57z" />
    <glyph glyph-name="cdotaccent" unicode="&#x10b;" horiz-adv-x="508" 
d="M337 571l-2 -1c-19 0 -35 7 -47 22s-16 33 -13 55c3 21 13 39 30 53s35 21 54 21c18 0 33 -7 45 -21s16 -32 13 -53c-2 -11 -6 -21 -11 -30s-11 -17 -18 -24s-15 -12 -24 -16s-18 -6 -27 -6zM456 71l-4 -2c-28 -28 -60 -49 -96 -63s-73 -21 -111 -21c-32 0 -62 6 -90 18
s-51 29 -70 51s-33 49 -42 81s-10 68 -4 107s18 75 36 107s40 60 66 83s55 41 87 54s66 19 101 19c38 0 72 -7 103 -21s56 -35 75 -62l-89 -72c-13 14 -28 25 -45 34s-37 13 -60 13c-19 0 -37 -4 -54 -11s-32 -17 -46 -31s-26 -30 -36 -49s-16 -39 -19 -61s-3 -42 1 -60
s11 -34 21 -47s23 -23 38 -31s32 -12 51 -12c23 0 44 4 62 13s37 21 56 36z" />
    <glyph glyph-name="Ccaron" unicode="&#x10c;" horiz-adv-x="678" 
d="M312 870h105l46 -98l76 98h107l-107 -144h-166zM618 94l-4 -3c-35 -33 -76 -59 -124 -78s-97 -28 -146 -28c-47 0 -89 9 -127 26s-70 41 -95 72s-43 68 -54 110s-12 89 -4 140c9 55 26 105 51 149s55 81 90 111s74 53 116 69s85 24 128 24c55 0 104 -9 146 -28
s76 -46 101 -82l-88 -74c-19 24 -43 42 -72 53s-61 17 -96 17c-31 0 -61 -6 -89 -18s-54 -28 -77 -49s-42 -46 -57 -75s-25 -60 -30 -94s-4 -65 3 -94s19 -53 35 -73s36 -36 60 -48s51 -18 80 -18c34 0 68 7 101 20s62 32 87 57z" />
    <glyph glyph-name="ccaron" unicode="&#x10d;" horiz-adv-x="508" 
d="M192 695h104l46 -98l77 98h106l-107 -144h-165zM458 72l-4 -2c-28 -28 -60 -49 -96 -63s-73 -21 -111 -21c-32 0 -62 6 -90 18s-51 29 -70 51s-33 49 -42 81s-10 68 -4 107s18 75 36 107s40 60 66 83s55 41 87 54s66 19 101 19c38 0 72 -7 103 -21s56 -35 75 -62l-89 -72
c-13 14 -28 25 -45 34s-37 13 -60 13c-19 0 -37 -4 -54 -11s-32 -17 -46 -31s-26 -30 -36 -49s-16 -39 -19 -61s-3 -42 1 -60s11 -34 21 -47s23 -23 38 -31s32 -12 51 -12c23 0 44 4 62 13s37 21 56 36z" />
    <glyph glyph-name="Dcaron" unicode="&#x10e;" horiz-adv-x="697" 
d="M257 870h104l46 -98l77 98h106l-107 -144h-165zM248 563l-72 -450h146c29 0 58 6 86 18s53 28 75 48s41 44 56 71s25 56 30 87s5 60 0 87s-14 51 -28 72s-32 37 -53 49s-45 18 -72 18h-168zM150 676l278 3c43 0 82 -9 117 -27s64 -42 87 -72s39 -66 49 -107
s11 -85 4 -132s-22 -91 -44 -132s-49 -77 -81 -108s-68 -55 -108 -73s-82 -27 -126 -27h-283z" />
    <glyph glyph-name="dcaron" unicode="&#x10f;" horiz-adv-x="746" 
d="M652 432l-3 -2c15 17 28 33 39 47s20 31 27 50c-21 0 -37 8 -49 24s-16 35 -13 57c2 11 6 21 11 31s12 18 20 25s17 13 27 17s20 6 31 6c21 0 37 -9 48 -26s15 -38 12 -63c-5 -33 -18 -66 -39 -98s-52 -63 -93 -93zM270 94l-5 2c19 0 38 4 56 12s34 19 49 32s27 29 37 48
s17 39 20 61s3 42 -1 60s-11 34 -21 48s-23 25 -39 33s-34 12 -54 12s-39 -4 -56 -12s-32 -19 -46 -33s-25 -30 -34 -49s-15 -39 -18 -60s-3 -41 0 -60s9 -35 18 -49s22 -25 38 -33s35 -12 56 -12zM415 61l1 -2c-27 -23 -56 -41 -87 -54s-62 -20 -93 -20c-32 0 -61 7 -88 20
s-50 31 -68 54s-31 51 -39 83s-9 67 -3 105c6 39 17 74 34 106s37 59 61 82s51 41 82 54s63 19 97 19c30 0 57 -5 81 -16s45 -25 62 -42l5 62l32 202h111l-113 -714h-65z" />
    <glyph glyph-name="Dcroat" unicode="&#x110;" horiz-adv-x="716" 
d="M207 289l-29 -176h177c26 0 52 6 77 18s48 28 68 49s37 45 51 72s24 56 29 87s5 60 -1 87s-16 51 -30 71s-31 36 -52 48s-44 18 -70 18h-177l-25 -162h158l-18 -112h-158zM91 290l-50 3l18 112h48l43 274h292c43 0 82 -9 117 -27s64 -42 87 -72s39 -66 49 -107
s11 -85 4 -132s-22 -91 -45 -132s-51 -77 -84 -108s-69 -55 -109 -73s-81 -27 -124 -27h-292z" />
    <glyph glyph-name="dcroat" unicode="&#x111;" horiz-adv-x="591" 
d="M273 96l-5 2c19 0 38 4 56 12s34 19 49 32s27 29 37 48s17 39 20 61s3 42 -1 60s-11 34 -21 48s-23 25 -39 33s-34 12 -54 12s-39 -4 -56 -12s-32 -19 -46 -33s-25 -30 -34 -49s-15 -39 -18 -60s-3 -41 0 -60s9 -35 18 -49s22 -25 38 -33s35 -12 56 -12zM418 63l1 -2
c-27 -23 -56 -41 -87 -54s-62 -20 -93 -20c-32 0 -61 7 -88 20s-50 31 -68 54s-31 51 -39 83s-9 67 -3 105c6 39 17 74 34 106s37 59 61 82s51 41 82 54s63 19 97 19c30 0 57 -5 81 -16s45 -25 62 -42l5 62l7 44h-234l12 76h234l13 82h111l-13 -82h45l-12 -76h-45l-88 -556
h-65z" />
    <glyph glyph-name="Emacron" unicode="&#x112;" horiz-adv-x="580" 
d="M250 835h293l-14 -90h-293zM151 675h446l-18 -112h-331l-26 -165h312l-18 -112h-312l-28 -174h334l-17 -112h-449z" />
    <glyph glyph-name="emacron" unicode="&#x113;" horiz-adv-x="548" 
d="M210 670h278l-15 -90h-278zM313 412v-1c-33 0 -62 -11 -86 -33s-42 -50 -54 -85l237 9c-3 36 -12 63 -28 82s-39 28 -69 28zM472 75l-2 -1c-28 -29 -60 -51 -97 -66s-75 -23 -114 -23c-33 0 -64 6 -93 18s-53 29 -73 51s-35 49 -44 81s-11 68 -5 107c7 41 20 78 39 111
s41 61 67 83s55 39 86 51s63 18 95 18s61 -6 88 -19s49 -32 67 -57s30 -56 36 -93s5 -80 -3 -128h-359c2 -37 15 -65 38 -85s53 -30 90 -30c24 0 46 4 66 13s39 22 56 39z" />
    <glyph glyph-name="Ebreve" unicode="&#x114;" horiz-adv-x="580" 
d="M322 879l-1 -1c-1 -18 5 -34 17 -49s29 -22 51 -22s41 7 58 21s28 31 34 50h64c-13 -49 -33 -87 -61 -114s-64 -40 -107 -40s-75 14 -95 41s-28 65 -23 114h63zM150 674h446l-18 -112h-331l-26 -165h312l-18 -112h-312l-28 -174h334l-17 -112h-449z" />
    <glyph glyph-name="ebreve" unicode="&#x115;" horiz-adv-x="548" 
d="M279 703l-2 -1c-1 -17 5 -33 17 -48s29 -22 52 -22c22 0 41 7 58 21s28 31 33 50h65c-13 -49 -33 -87 -61 -114s-63 -40 -106 -40c-44 0 -76 13 -96 40s-27 65 -22 114h62zM311 411v-1c-33 0 -62 -11 -86 -33s-42 -50 -54 -85l237 9c-3 36 -12 63 -28 82s-39 28 -69 28z
M470 74l-2 -1c-28 -29 -60 -51 -97 -66s-75 -23 -114 -23c-33 0 -64 6 -93 18s-53 29 -73 51s-35 49 -44 81s-11 68 -5 107c7 41 20 78 39 111s41 61 67 83s55 39 86 51s63 18 95 18s61 -6 88 -19s49 -32 67 -57s30 -56 36 -93s5 -80 -3 -128h-359c2 -37 15 -65 38 -85
s53 -30 90 -30c24 0 46 4 66 13s39 22 56 39z" />
    <glyph glyph-name="Edotaccent" unicode="&#x116;" horiz-adv-x="580" 
d="M389 741l1 -1c-19 0 -35 7 -47 21s-16 33 -13 56c3 21 13 39 29 54s34 22 54 22c18 0 33 -7 45 -22s16 -33 13 -54c-2 -11 -6 -21 -11 -30s-11 -17 -19 -24s-16 -12 -25 -16s-18 -6 -27 -6zM152 674h446l-18 -112h-331l-26 -165h312l-18 -112h-312l-28 -174h334l-17 -112
h-449z" />
    <glyph glyph-name="edotaccent" unicode="&#x117;" horiz-adv-x="548" 
d="M340 571l-3 -1c-19 0 -35 7 -47 22s-16 33 -13 55c3 21 13 39 30 53s35 21 54 21s34 -7 46 -21s16 -32 13 -53c-2 -11 -6 -21 -11 -30s-11 -17 -18 -24s-15 -12 -24 -16s-18 -6 -27 -6zM310 411v-1c-33 0 -62 -11 -86 -33s-42 -50 -54 -85l237 9c-3 36 -12 63 -28 82
s-39 28 -69 28zM469 74l-2 -1c-28 -29 -60 -51 -97 -66s-75 -23 -114 -23c-33 0 -64 6 -93 18s-53 29 -73 51s-35 49 -44 81s-11 68 -5 107c7 41 20 78 39 111s41 61 67 83s55 39 86 51s63 18 95 18s61 -6 88 -19s49 -32 67 -57s30 -56 36 -93s5 -80 -3 -128h-359
c2 -37 15 -65 38 -85s53 -30 90 -30c24 0 46 4 66 13s39 22 56 39z" />
    <glyph glyph-name="Eogonek" unicode="&#x118;" horiz-adv-x="600" 
d="M488 -164l-3 -2c-26 -22 -59 -33 -98 -33c-36 0 -63 8 -81 25s-24 40 -19 70c3 22 11 41 23 58s27 32 45 45h-315l107 675h447l-18 -112h-331l-27 -165h313l-18 -112h-312l-28 -174h334l-17 -109l1 -3c-42 -11 -72 -24 -89 -38s-27 -30 -30 -49c-1 -11 2 -21 9 -29
s17 -12 30 -12c26 0 49 9 68 27l9 -62v0z" />
    <glyph glyph-name="eogonek" unicode="&#x119;" horiz-adv-x="548" 
d="M313 412v-1c-33 0 -62 -11 -86 -33s-42 -50 -54 -85l237 9c-3 36 -12 63 -28 82s-39 28 -69 28zM362 -157l-7 -2c-25 -21 -57 -32 -97 -32c-37 0 -64 8 -82 25s-25 40 -20 70c3 17 9 33 17 47s19 27 32 38c-27 5 -52 15 -74 29s-41 32 -56 54s-26 47 -32 76s-6 60 -1 94
c7 41 20 78 39 111s41 61 67 83s55 39 86 51s63 18 95 18s61 -6 88 -19s49 -32 67 -57s30 -56 36 -93s5 -80 -3 -128h-359c2 -37 15 -65 38 -85s53 -30 90 -30c24 0 46 4 66 13s39 22 56 39l62 -70c-21 -21 -44 -39 -70 -53s-53 -24 -81 -30c-24 -9 -41 -20 -52 -32
s-17 -26 -19 -41c-2 -11 0 -21 7 -29s17 -12 30 -12c26 0 49 9 68 27z" />
    <glyph glyph-name="Ecaron" unicode="&#x11a;" horiz-adv-x="580" 
d="M242 870h104l46 -98l77 98h106l-107 -144h-165zM151 675h446l-18 -112h-331l-26 -165h312l-18 -112h-312l-28 -174h334l-17 -112h-449z" />
    <glyph glyph-name="ecaron" unicode="&#x11b;" horiz-adv-x="548" 
d="M194 695h105l46 -98l77 98h106l-107 -144h-166zM313 412v-1c-33 0 -62 -11 -86 -33s-42 -50 -54 -85l237 9c-3 36 -12 63 -28 82s-39 28 -69 28zM472 75l-2 -1c-28 -29 -60 -51 -97 -66s-75 -23 -114 -23c-33 0 -64 6 -93 18s-53 29 -73 51s-35 49 -44 81s-11 68 -5 107
c7 41 20 78 39 111s41 61 67 83s55 39 86 51s63 18 95 18s61 -6 88 -19s49 -32 67 -57s30 -56 36 -93s5 -80 -3 -128h-359c2 -37 15 -65 38 -85s53 -30 90 -30c24 0 46 4 66 13s39 22 56 39z" />
    <glyph glyph-name="Gcircumflex" unicode="&#x11c;" horiz-adv-x="721" 
d="M471 825l-77 -98h-106l113 144h154l67 -144h-105zM637 84l-6 -3c-16 -15 -35 -28 -56 -40s-44 -22 -68 -31s-49 -15 -75 -19s-52 -6 -78 -6c-47 0 -90 9 -129 27s-72 43 -98 74s-45 68 -56 111s-13 90 -5 141s24 98 47 141s52 80 87 111s75 55 119 72s91 26 140 26
c57 0 108 -9 153 -28s80 -46 105 -82l-89 -77c-15 23 -39 41 -71 54s-69 19 -111 19c-33 0 -64 -6 -93 -19s-55 -30 -78 -52s-42 -47 -58 -75s-26 -57 -31 -88c-5 -33 -4 -64 3 -93s19 -54 35 -76s37 -39 63 -51s56 -18 90 -18c28 0 55 3 82 10s51 17 72 30l18 111h-132
l18 112h247z" />
    <glyph glyph-name="gcircumflex" unicode="&#x11d;" 
d="M366 649l-77 -98h-105l107 144h165l61 -144h-105zM323 399h-2c-19 0 -38 -4 -56 -12s-34 -19 -48 -33s-26 -30 -36 -49s-17 -39 -20 -60s-3 -41 1 -59s11 -34 21 -47s23 -24 39 -32s34 -12 53 -12s37 4 55 12s34 19 48 32s26 29 36 47s17 38 20 60s3 42 -1 60
s-11 34 -21 48s-23 25 -38 33s-32 12 -51 12zM221 -225l1 -4c-44 0 -82 4 -115 12s-66 20 -100 35l44 89c28 -11 56 -19 83 -25s57 -9 90 -9c47 0 85 13 113 39s45 59 51 100l4 22c-22 -15 -46 -27 -71 -36s-52 -13 -80 -13c-31 0 -60 6 -87 19s-49 31 -67 54s-31 51 -38 83
s-8 67 -2 105s18 73 35 105s38 60 63 83s53 41 84 54s64 20 99 20c31 0 60 -6 86 -19s49 -31 68 -54l29 60h65l-76 -480c-6 -36 -16 -69 -31 -99s-34 -55 -58 -76s-52 -37 -84 -48s-67 -17 -106 -17z" />
    <glyph glyph-name="Gbreve" unicode="&#x11e;" horiz-adv-x="721" 
d="M404 879l-2 -1c-1 -18 5 -34 17 -49s29 -22 51 -22c23 0 43 7 60 21s28 31 33 50h64c-13 -49 -33 -87 -61 -114s-63 -40 -106 -40c-44 0 -76 14 -96 41s-28 65 -23 114h63zM635 83l-6 -3c-16 -15 -35 -28 -56 -40s-44 -22 -68 -31s-49 -15 -75 -19s-52 -6 -78 -6
c-47 0 -90 9 -129 27s-72 43 -98 74s-45 68 -56 111s-13 90 -5 141s24 98 47 141s52 80 87 111s75 55 119 72s91 26 140 26c57 0 108 -9 153 -28s80 -46 105 -82l-89 -77c-15 23 -39 41 -71 54s-69 19 -111 19c-33 0 -64 -6 -93 -19s-55 -30 -78 -52s-42 -47 -58 -75
s-26 -57 -31 -88c-5 -33 -4 -64 3 -93s19 -54 35 -76s37 -39 63 -51s56 -18 90 -18c28 0 55 3 82 10s51 17 72 30l18 111h-132l18 112h247z" />
    <glyph glyph-name="gbreve" unicode="&#x11f;" 
d="M292 703l1 -1c-1 -17 5 -33 17 -48s29 -22 51 -22s41 7 58 21s28 31 34 50h64c-13 -49 -33 -87 -61 -114s-64 -40 -107 -40s-75 13 -96 40s-29 65 -24 114h63zM324 398h-2c-19 0 -38 -4 -56 -12s-34 -19 -48 -33s-26 -30 -36 -49s-17 -39 -20 -60s-3 -41 1 -59
s11 -34 21 -47s23 -24 39 -32s34 -12 53 -12s37 4 55 12s34 19 48 32s26 29 36 47s17 38 20 60s3 42 -1 60s-11 34 -21 48s-23 25 -38 33s-32 12 -51 12zM222 -226l1 -4c-44 0 -82 4 -115 12s-66 20 -100 35l44 89c28 -11 56 -19 83 -25s57 -9 90 -9c47 0 85 13 113 39
s45 59 51 100l4 22c-22 -15 -46 -27 -71 -36s-52 -13 -80 -13c-31 0 -60 6 -87 19s-49 31 -67 54s-31 51 -38 83s-8 67 -2 105s18 73 35 105s38 60 63 83s53 41 84 54s64 20 99 20c31 0 60 -6 86 -19s49 -31 68 -54l29 60h65l-76 -480c-6 -36 -16 -69 -31 -99
s-34 -55 -58 -76s-52 -37 -84 -48s-67 -17 -106 -17z" />
    <glyph glyph-name="Gdotaccent" unicode="&#x120;" horiz-adv-x="721" 
d="M459 741v-1c-19 0 -35 7 -47 21s-16 33 -13 56c3 21 13 39 30 54s35 22 54 22c18 0 33 -7 45 -22s16 -33 13 -54c-3 -23 -13 -41 -30 -55s-34 -21 -52 -21zM637 83l-6 -3c-16 -15 -35 -28 -56 -40s-44 -22 -68 -31s-49 -15 -75 -19s-52 -6 -78 -6c-47 0 -90 9 -129 27
s-72 43 -98 74s-45 68 -56 111s-13 90 -5 141s24 98 47 141s52 80 87 111s75 55 119 72s91 26 140 26c57 0 108 -9 153 -28s80 -46 105 -82l-89 -77c-15 23 -39 41 -71 54s-69 19 -111 19c-33 0 -64 -6 -93 -19s-55 -30 -78 -52s-42 -47 -58 -75s-26 -57 -31 -88
c-5 -33 -4 -64 3 -93s19 -54 35 -76s37 -39 63 -51s56 -18 90 -18c28 0 55 3 82 10s51 17 72 30l18 111h-132l18 112h247z" />
    <glyph glyph-name="gdotaccent" unicode="&#x121;" 
d="M353 571l-2 -1c-19 0 -35 7 -47 22s-16 33 -13 55c3 21 13 39 30 53s35 21 54 21c18 0 33 -7 45 -21s16 -32 13 -53c-2 -11 -6 -21 -11 -30s-11 -17 -18 -24s-15 -12 -24 -16s-18 -6 -27 -6zM321 398h-2c-19 0 -38 -4 -56 -12s-34 -19 -48 -33s-26 -30 -36 -49
s-17 -39 -20 -60s-3 -41 1 -59s11 -34 21 -47s23 -24 39 -32s34 -12 53 -12s37 4 55 12s34 19 48 32s26 29 36 47s17 38 20 60s3 42 -1 60s-11 34 -21 48s-23 25 -38 33s-32 12 -51 12zM219 -226l1 -4c-44 0 -82 4 -115 12s-66 20 -100 35l44 89c28 -11 56 -19 83 -25
s57 -9 90 -9c47 0 85 13 113 39s45 59 51 100l4 22c-22 -15 -46 -27 -71 -36s-52 -13 -80 -13c-31 0 -60 6 -87 19s-49 31 -67 54s-31 51 -38 83s-8 67 -2 105s18 73 35 105s38 60 63 83s53 41 84 54s64 20 99 20c31 0 60 -6 86 -19s49 -31 68 -54l29 60h65l-76 -480
c-6 -36 -16 -69 -31 -99s-34 -55 -58 -76s-52 -37 -84 -48s-67 -17 -106 -17z" />
    <glyph glyph-name="Gcommaaccent" unicode="&#x122;" horiz-adv-x="721" 
d="M637 84l-6 -3c-16 -15 -35 -28 -56 -40s-44 -22 -68 -31s-49 -15 -75 -19s-52 -6 -78 -6c-47 0 -90 9 -129 27s-72 43 -98 74s-45 68 -56 111s-13 90 -5 141s24 98 47 141s52 80 87 111s75 55 119 72s91 26 140 26c57 0 108 -9 153 -28s80 -46 105 -82l-89 -77
c-15 23 -39 41 -71 54s-69 19 -111 19c-33 0 -64 -6 -93 -19s-55 -30 -78 -52s-42 -47 -58 -75s-26 -57 -31 -88c-5 -33 -4 -64 3 -93s19 -54 35 -76s37 -39 63 -51s56 -18 90 -18c28 0 55 3 82 10s51 17 72 30l18 111h-132l18 112h247zM245 -308l-3 -1c14 16 26 31 36 45
s18 30 25 47c-19 1 -34 9 -45 23s-15 32 -12 53s13 39 29 54s34 22 54 22s35 -8 46 -25s15 -37 12 -60c-5 -31 -17 -62 -36 -93s-49 -61 -89 -90z" />
    <glyph glyph-name="gcommaaccent" unicode="&#x123;" 
d="M340 561h1c-20 0 -35 9 -46 26s-15 37 -12 60c5 31 18 62 38 93s50 61 89 89l17 -24c-14 -16 -26 -31 -36 -45s-18 -30 -25 -47c19 -1 34 -9 45 -24s15 -33 12 -54c-3 -20 -13 -37 -29 -52s-34 -22 -54 -22zM324 399h-2c-19 0 -38 -4 -56 -12s-34 -19 -48 -33
s-26 -30 -36 -49s-17 -39 -20 -60s-3 -41 1 -59s11 -34 21 -47s23 -24 39 -32s34 -12 53 -12s37 4 55 12s34 19 48 32s26 29 36 47s17 38 20 60s3 42 -1 60s-11 34 -21 48s-23 25 -38 33s-32 12 -51 12zM222 -225l1 -4c-44 0 -82 4 -115 12s-66 20 -100 35l44 89
c28 -11 56 -19 83 -25s57 -9 90 -9c47 0 85 13 113 39s45 59 51 100l4 22c-22 -15 -46 -27 -71 -36s-52 -13 -80 -13c-31 0 -60 6 -87 19s-49 31 -67 54s-31 51 -38 83s-8 67 -2 105s18 73 35 105s38 60 63 83s53 41 84 54s64 20 99 20c31 0 60 -6 86 -19s49 -31 68 -54
l29 60h65l-76 -480c-6 -36 -16 -69 -31 -99s-34 -55 -58 -76s-52 -37 -84 -48s-67 -17 -106 -17z" />
    <glyph glyph-name="Hcircumflex" unicode="&#x124;" horiz-adv-x="714" 
d="M461 825l-77 -98h-105l112 144h154l67 -144h-105zM544 287h-340l-45 -287h-115l107 675h114l-43 -275h340l44 275h115l-107 -675h-115z" />
    <glyph glyph-name="hcircumflex" unicode="&#x125;" horiz-adv-x="585" 
d="M410 875l-77 -99h-105l113 144h153l67 -144h-105zM339 393l-4 1c-25 0 -49 -7 -72 -20s-45 -31 -66 -53c-5 -29 -10 -62 -16 -99s-11 -72 -16 -105c-7 -39 -13 -78 -19 -117h-111l113 714h110l-31 -200l-20 -87c26 25 55 45 86 59s61 21 90 21c25 0 49 -4 71 -12
s40 -20 55 -37s26 -38 32 -64s7 -57 2 -93l-48 -301h-111l44 277c6 41 0 71 -17 89s-41 27 -72 27z" />
    <glyph glyph-name="Hbar" unicode="&#x126;" horiz-adv-x="715" 
d="M579 502h-340l-16 -102h340zM545 287h-340l-46 -287h-115l80 502h-43l12 76h43l15 97h115l-15 -97h340l16 97h114l-15 -97h38l-12 -76h-38l-79 -502h-115z" />
    <glyph glyph-name="hbar" unicode="&#x127;" horiz-adv-x="585" 
d="M339 393l-4 1c-25 0 -49 -7 -72 -20s-45 -31 -66 -53c-5 -29 -10 -62 -16 -99s-11 -72 -16 -105c-7 -39 -13 -78 -19 -117h-111l88 558h-55l12 75h55l13 81h110l-12 -81h225l-12 -75h-225l-7 -44l-20 -87c26 25 55 45 86 59s61 21 90 21c25 0 49 -4 71 -12s40 -20 55 -37
s26 -38 32 -64s7 -57 2 -93l-48 -301h-111l44 277c6 41 0 71 -17 89s-41 27 -72 27z" />
    <glyph glyph-name="Itilde" unicode="&#x128;" horiz-adv-x="258" 
d="M51 749c4 20 10 37 18 52s17 27 27 37s21 17 32 22s22 7 32 7c14 0 27 -2 39 -6s23 -8 33 -13s20 -9 30 -13s21 -6 32 -6c7 0 14 2 21 6s12 12 15 23h44c-7 -39 -20 -69 -40 -91s-41 -33 -64 -33c-15 0 -28 2 -40 6s-23 8 -34 13s-22 9 -33 13s-22 6 -33 6
c-7 0 -14 -2 -20 -6s-10 -10 -13 -17h-46zM151 675h114l-106 -675h-115z" />
    <glyph glyph-name="itilde" unicode="&#x129;" horiz-adv-x="245" 
d="M31 582h1c7 40 21 70 42 89s43 29 66 29c14 0 27 -2 39 -6s23 -8 33 -13s20 -9 30 -13s21 -6 32 -6c7 0 14 2 21 6s12 12 15 23h44c-7 -40 -19 -71 -36 -92s-40 -32 -68 -32c-15 0 -28 2 -40 6s-23 8 -34 13s-22 9 -33 13s-22 6 -33 6c-7 0 -14 -2 -20 -6
s-10 -10 -13 -17h-46zM117 495h111l-78 -495h-111z" />
    <glyph glyph-name="Imacron" unicode="&#x12a;" horiz-adv-x="258" 
d="M82 839h278l-14 -90h-278zM151 675h114l-106 -675h-115z" />
    <glyph glyph-name="imacron" unicode="&#x12b;" horiz-adv-x="245" 
d="M55 659h278l-14 -90h-278zM117 495h111l-78 -495h-112z" />
    <glyph glyph-name="Ibreve" unicode="&#x12c;" horiz-adv-x="258" 
d="M161 879l-1 2c-1 -9 0 -18 3 -27s7 -17 13 -24s13 -12 22 -16s19 -6 30 -6c22 0 41 7 58 21s28 31 33 50h65c-13 -49 -33 -87 -61 -114s-64 -40 -107 -40c-44 0 -76 13 -96 40s-27 65 -22 114h63zM150 677h114l-106 -675h-115z" />
    <glyph glyph-name="ibreve" unicode="&#x12d;" horiz-adv-x="245" 
d="M125 703l1 -1c-1 -17 5 -33 17 -48s29 -22 51 -22s41 7 58 21s28 31 34 50h64c-13 -49 -33 -87 -61 -114s-64 -40 -107 -40s-75 13 -96 40s-29 65 -24 114h63zM118 494h111l-78 -495h-112z" />
    <glyph glyph-name="Iogonek" unicode="&#x12e;" horiz-adv-x="258" 
d="M153 -164l-2 -3c-26 -22 -59 -33 -98 -33c-36 0 -63 8 -81 25s-24 40 -19 70c4 27 15 50 32 69s37 35 60 48l105 661h115l-107 -675h-1c-42 -11 -71 -24 -88 -38s-27 -31 -30 -50c-1 -11 2 -20 9 -28s16 -12 28 -12c14 0 27 2 38 7s21 12 30 21l9 -62v0z" />
    <glyph glyph-name="iogonek" unicode="&#x12f;" horiz-adv-x="245" 
d="M188 578l1 -2c-20 0 -36 8 -47 23s-15 33 -12 54s13 39 29 53s34 21 54 21c19 0 34 -7 45 -21s15 -31 12 -52s-13 -39 -29 -54s-34 -22 -53 -22zM145 -166h-5c-25 -22 -57 -33 -96 -33c-37 0 -64 8 -82 25s-24 40 -19 70c4 27 15 50 33 69s40 35 65 48l75 479h111
l-78 -495c-42 -11 -71 -24 -88 -38s-27 -31 -30 -50c-2 -11 0 -20 7 -28s17 -12 30 -12c26 0 49 9 68 27z" />
    <glyph glyph-name="Idotaccent" unicode="&#x130;" horiz-adv-x="258" 
d="M220 741l1 -1c-19 0 -35 7 -47 21s-16 33 -13 56c3 21 13 39 29 54s34 22 54 22c18 0 33 -7 45 -22s16 -33 13 -54c-2 -11 -6 -21 -11 -30s-11 -17 -19 -24s-16 -12 -25 -16s-18 -6 -27 -6zM152 674h114l-106 -675h-115z" />
    <glyph glyph-name="dotlessi" unicode="&#x131;" horiz-adv-x="244" 
d="M117 495h111l-79 -495h-111z" />
    <glyph glyph-name="IJ" unicode="&#x132;" horiz-adv-x="794" 
d="M151 675h114l-106 -675h-115zM492 -13c-56 0 -102 11 -138 32s-66 50 -89 87l79 77c17 -24 37 -43 60 -57s52 -21 87 -21c29 0 56 10 81 31s41 53 48 96l71 443h115l-72 -451c-7 -43 -18 -79 -34 -109s-35 -54 -57 -73s-46 -33 -72 -42s-52 -13 -79 -13z" />
    <glyph glyph-name="ij" unicode="&#x133;" horiz-adv-x="485" 
d="M427 578l-3 -2c-21 0 -37 8 -48 23s-15 33 -12 54s13 39 29 53s34 21 55 21c19 0 34 -7 46 -21s16 -31 13 -52c-2 -11 -6 -21 -11 -30s-11 -17 -18 -24s-15 -12 -24 -16s-18 -6 -27 -6zM185 576l-3 -2c-21 0 -37 8 -48 23s-15 33 -12 54s13 39 29 53s34 21 55 21
c19 0 34 -7 46 -21s16 -31 13 -52c-2 -11 -6 -21 -11 -30s-11 -17 -18 -24s-15 -12 -24 -16s-18 -6 -27 -6zM378 -41v-3c-5 -30 -14 -57 -27 -81s-30 -45 -51 -62s-44 -30 -70 -39s-54 -14 -85 -14l18 109c13 0 25 2 37 7s23 12 32 20s17 18 23 29s10 23 12 36l84 530h111z
M111 488h111l-78 -495h-112z" />
    <glyph glyph-name="Jcircumflex" unicode="&#x134;" horiz-adv-x="541" 
d="M509 825l-77 -98h-105l113 144h154l67 -144h-106zM239 -13c-56 0 -102 11 -138 32s-66 50 -89 87l79 77c17 -24 37 -43 60 -57s52 -21 87 -21c29 0 56 10 81 31s41 53 48 96l71 443h115l-72 -451c-7 -43 -18 -79 -34 -109s-35 -54 -57 -73s-46 -33 -72 -42
s-52 -13 -79 -13z" />
    <glyph glyph-name="jcircumflex" unicode="&#x135;" horiz-adv-x="245" 
d="M200 649l-77 -98h-105l107 144h165l61 -144h-105zM144 -37l-1 -1c-5 -30 -14 -57 -27 -81s-30 -45 -50 -62s-43 -30 -69 -39s-54 -14 -85 -14l17 108c13 0 25 2 37 7s23 11 32 19s17 18 23 29s10 23 12 36l85 530h111z" />
    <glyph glyph-name="Kcommaaccent" unicode="&#x136;" horiz-adv-x="659" 
d="M305 299l-117 -111l-29 -188h-115l107 675h114l-51 -325l344 325h144l-313 -296l224 -379h-132zM215 -305l-2 -1c14 16 26 31 36 45s18 30 24 47c-19 1 -34 9 -45 23s-15 32 -12 53s13 39 29 54s34 22 55 22c19 0 34 -8 45 -25s15 -37 11 -60c-5 -31 -17 -62 -36 -93
s-48 -61 -87 -90z" />
    <glyph glyph-name="kcommaaccent" unicode="&#x137;" horiz-adv-x="556" 
d="M277 193l-1 2c-18 -14 -36 -28 -55 -42s-38 -28 -57 -41l-17 -110h-111l113 714h111l-75 -472c103 76 187 160 251 253h128c-29 -41 -60 -81 -94 -120s-71 -77 -112 -114l150 -263h-121zM166 -303l-2 -1c14 16 26 31 36 45s18 30 24 47c-19 1 -34 9 -45 23s-15 32 -12 53
s13 39 29 54s34 22 55 22c19 0 34 -8 45 -25s15 -37 11 -60c-5 -31 -17 -62 -36 -93s-48 -61 -87 -90z" />
    <glyph glyph-name="kgreenlandic" unicode="&#x138;" horiz-adv-x="557" 
d="M261 215l-92 -85l-21 -130h-111l78 495h111l-33 -213l233 213h138l-221 -204l165 -291h-124z" />
    <glyph glyph-name="Lacute" unicode="&#x139;" horiz-adv-x="545" 
d="M163 727l90 144h128l-112 -144h-106zM151 675h114l-89 -563h325l-18 -112h-439z" />
    <glyph glyph-name="lacute" unicode="&#x13a;" horiz-adv-x="242" 
d="M156 752l91 144h127l-112 -144h-106zM151 714h111l-113 -714h-111z" />
    <glyph glyph-name="Lcommaaccent" unicode="&#x13b;" horiz-adv-x="545" 
d="M151 675h114l-89 -563h325l-18 -112h-439zM169 -305l-3 -1c14 16 26 31 36 45s18 30 25 47c-19 1 -34 9 -45 23s-15 32 -12 53s13 39 29 54s34 22 54 22s35 -8 46 -25s15 -37 12 -60c-5 -31 -17 -62 -36 -93s-49 -61 -89 -90z" />
    <glyph glyph-name="lcommaaccent" unicode="&#x13c;" horiz-adv-x="242" 
d="M151 714h111l-113 -714h-111zM-3 -305l-3 -1c14 16 26 31 36 45s18 30 25 47c-19 1 -34 9 -45 23s-15 32 -12 53s13 39 29 54s34 22 54 22s35 -8 46 -25s15 -37 12 -60c-5 -31 -17 -62 -36 -93s-49 -61 -89 -90z" />
    <glyph glyph-name="Lcaron" unicode="&#x13d;" horiz-adv-x="545" 
d="M317 432h1c15 17 28 33 39 47s20 31 27 50c-21 0 -37 8 -49 24s-16 35 -13 57c3 21 13 39 30 54s36 23 57 23s37 -9 48 -26s15 -38 11 -63c-5 -33 -18 -66 -39 -98s-52 -63 -93 -93zM152 675h114l-89 -563h325l-18 -112h-439z" />
    <glyph glyph-name="lcaron" unicode="&#x13e;" horiz-adv-x="406" 
d="M151 714h111l-113 -714h-111zM314 432h1c15 17 28 33 39 47s20 31 27 50c-21 0 -37 8 -49 24s-16 35 -13 57c3 21 13 39 30 54s36 23 57 23s37 -9 48 -26s15 -38 11 -63c-5 -33 -18 -66 -39 -98s-52 -63 -93 -93z" />
    <glyph glyph-name="Ldot" unicode="&#x13f;" horiz-adv-x="546" 
d="M407 304l-2 -1c-21 0 -37 8 -48 23s-15 33 -12 54s13 39 29 54s34 22 55 22c19 0 34 -7 46 -22s16 -33 13 -54s-13 -39 -29 -54s-33 -22 -52 -22zM149 674h114l-89 -563h325l-18 -112h-439z" />
    <glyph glyph-name="ldot" unicode="&#x140;" horiz-adv-x="347" 
d="M151 714h111l-113 -714h-111zM315 291l3 -1c-20 0 -36 8 -48 23s-16 33 -13 54s13 39 29 54s34 22 54 22c19 0 34 -7 45 -22s15 -33 12 -54s-13 -39 -29 -54s-34 -22 -53 -22z" />
    <glyph glyph-name="Lslash" unicode="&#x141;" horiz-adv-x="548" 
d="M83 232l-66 -43l11 68l66 43l59 375h115l-46 -293l131 85l-10 -68l-132 -84l-32 -203h325l-18 -112h-440z" />
    <glyph glyph-name="lslash" unicode="&#x142;" horiz-adv-x="246" 
d="M40 0l47 298l-58 -35l9 61l59 36l56 354h111l-44 -278l62 38l-10 -63l-62 -38l-59 -373h-111z" />
    <glyph glyph-name="Nacute" unicode="&#x143;" horiz-adv-x="714" 
d="M388 727l90 144h128l-113 -144h-105zM238 501l-79 -501h-115l107 675h114l262 -502l79 502h115l-107 -675h-115z" />
    <glyph glyph-name="nacute" unicode="&#x144;" horiz-adv-x="587" 
d="M302 551l90 144h128l-112 -144h-106zM341 393l-3 -2c-25 0 -49 -7 -73 -20s-46 -31 -67 -54l-51 -319h-111l79 495h74l8 -80c29 32 60 56 92 71s64 23 96 23c25 0 49 -4 71 -12s40 -20 55 -37s26 -38 32 -64s6 -57 0 -93l-48 -301h-111l44 277c7 40 2 69 -15 88
s-41 28 -72 28z" />
    <glyph glyph-name="Ncommaaccent" unicode="&#x145;" horiz-adv-x="714" 
d="M238 501l-79 -501h-115l107 675h114l262 -502l79 502h115l-107 -675h-115zM240 -305l-1 -1c13 16 25 31 35 45s18 30 24 47c-19 1 -34 9 -45 23s-15 32 -12 53s13 39 29 54s34 22 54 22s35 -8 46 -25s14 -37 10 -60c-5 -31 -17 -62 -36 -93s-48 -61 -87 -90z" />
    <glyph glyph-name="ncommaaccent" unicode="&#x146;" horiz-adv-x="587" 
d="M341 393l-3 -2c-25 0 -49 -7 -73 -20s-46 -31 -67 -54l-51 -319h-111l79 495h74l8 -80c29 32 60 56 92 71s64 23 96 23c25 0 49 -4 71 -12s40 -20 55 -37s26 -38 32 -64s6 -57 0 -93l-48 -301h-111l44 277c7 40 2 69 -15 88s-41 28 -72 28zM171 -307l-2 -1
c13 16 25 31 35 45s18 30 25 47c-19 1 -34 9 -45 23s-15 32 -12 53s13 39 29 54s34 22 54 22s35 -8 46 -25s15 -37 12 -60c-5 -31 -17 -62 -37 -93s-49 -61 -88 -90z" />
    <glyph glyph-name="Ncaron" unicode="&#x147;" horiz-adv-x="714" 
d="M305 870h104l46 -98l77 98h106l-107 -144h-165zM238 501l-79 -501h-115l107 675h114l262 -502l79 502h115l-107 -675h-115z" />
    <glyph glyph-name="ncaron" unicode="&#x148;" horiz-adv-x="587" 
d="M207 695h104l46 -98l77 98h106l-107 -144h-165zM341 393l-3 -2c-25 0 -49 -7 -73 -20s-46 -31 -67 -54l-51 -319h-111l79 495h74l8 -80c29 32 60 56 92 71s64 23 96 23c25 0 49 -4 71 -12s40 -20 55 -37s26 -38 32 -64s6 -57 0 -93l-48 -301h-111l44 277
c7 40 2 69 -15 88s-41 28 -72 28z" />
    <glyph glyph-name="napostrophe" unicode="&#x149;" horiz-adv-x="732" 
d="M91 432l-3 -2c15 17 28 33 39 47s20 31 27 50c-21 0 -37 8 -49 24s-16 35 -13 57c2 11 6 21 11 31s12 18 20 25s17 13 27 17s20 6 31 6c21 0 37 -9 48 -26s15 -38 12 -63c-5 -33 -18 -66 -39 -98s-52 -63 -93 -93zM485 391l-3 -2c-25 0 -49 -7 -73 -20s-46 -31 -67 -54
l-50 -319h-111l78 495h75l7 -80c29 32 60 56 92 71s64 23 96 23c25 0 49 -4 71 -12s40 -20 55 -37s26 -38 32 -64s6 -57 0 -93l-47 -301h-111l43 277c7 40 2 69 -15 88s-41 28 -72 28z" />
    <glyph glyph-name="Eng" unicode="&#x14a;" horiz-adv-x="712" 
d="M385 -245l-2 -2c-48 0 -88 10 -120 30s-58 47 -78 81l80 78c15 -23 32 -40 50 -51s42 -17 71 -17c25 0 48 10 69 29s34 47 40 84l2 12l-261 501l-80 -501h-115l107 675h115l262 -502l79 502h115l-110 -694c-6 -37 -16 -70 -30 -98s-31 -52 -52 -71s-43 -33 -67 -42
s-49 -14 -75 -14z" />
    <glyph glyph-name="eng" unicode="&#x14b;" horiz-adv-x="587" 
d="M275 -127l-3 -3c13 0 25 2 37 7s23 11 32 19s17 18 24 29s11 23 13 36l49 313c7 40 2 69 -16 88s-42 28 -73 28c-26 0 -51 -7 -74 -20s-45 -31 -66 -54l-51 -319h-111l79 495h74l8 -80c29 32 60 56 92 71s64 23 96 23c25 0 49 -4 71 -12s40 -20 55 -37s26 -38 32 -64
s6 -57 0 -93l-54 -337c-5 -30 -14 -57 -27 -81s-30 -45 -50 -63s-43 -31 -69 -40s-54 -14 -85 -14z" />
    <glyph glyph-name="Omacron" unicode="&#x14c;" horiz-adv-x="757" 
d="M336 835h293l-14 -90h-293zM348 -13l-1 -1c-47 0 -89 9 -127 27s-70 43 -96 75s-44 69 -55 111s-13 88 -6 137c8 48 24 93 47 136s52 80 87 112s75 57 119 75s91 27 140 27c47 0 89 -9 127 -27s70 -43 96 -75s44 -69 55 -112s13 -88 6 -136c-8 -49 -24 -94 -48 -136
s-54 -79 -89 -111s-75 -57 -119 -75s-89 -27 -136 -27zM365 101h-1c30 0 59 6 88 18s55 29 78 51s43 47 59 75s27 58 32 90s4 62 -3 91s-19 54 -35 75s-36 38 -61 51s-52 19 -82 19s-59 -6 -87 -19s-54 -30 -77 -51s-43 -46 -59 -75s-26 -59 -31 -91s-4 -62 3 -90
s19 -53 35 -75s36 -39 60 -51s51 -18 81 -18z" />
    <glyph glyph-name="omacron" unicode="&#x14d;" horiz-adv-x="570" 
d="M217 670h278l-14 -90h-278zM254 -13v-1c-32 0 -62 6 -90 18s-52 29 -71 51s-33 49 -42 81s-10 68 -4 107c7 41 19 78 37 111s40 61 66 83s55 39 87 51s66 18 102 18c33 0 64 -6 92 -19s52 -31 71 -54s33 -51 41 -83s9 -68 3 -107s-18 -74 -36 -106s-40 -59 -66 -81
s-55 -39 -88 -51s-67 -18 -102 -18zM271 95l-3 -1c19 0 38 4 56 11s34 17 48 30s26 29 36 47s17 38 20 60s3 42 -1 61s-11 35 -21 49s-23 25 -38 33s-32 12 -51 12s-37 -4 -54 -12s-33 -19 -47 -33s-26 -30 -36 -49s-17 -39 -20 -61c-3 -21 -3 -41 1 -59s11 -34 21 -47
s23 -23 38 -30s32 -11 51 -11z" />
    <glyph glyph-name="Obreve" unicode="&#x14e;" horiz-adv-x="757" 
d="M409 879l-2 -1c-1 -18 5 -34 17 -49s29 -22 52 -22c22 0 41 7 58 21s28 31 33 50h65c-13 -49 -33 -87 -61 -114s-64 -40 -107 -40c-44 0 -76 14 -96 41s-27 65 -22 114h63zM346 -14l-1 -1c-47 0 -89 9 -127 27s-70 43 -96 75s-44 69 -55 111s-13 88 -6 137
c8 48 24 93 47 136s52 80 87 112s75 57 119 75s91 27 140 27c47 0 89 -9 127 -27s70 -43 96 -75s44 -69 55 -112s13 -88 6 -136c-8 -49 -24 -94 -48 -136s-54 -79 -89 -111s-75 -57 -119 -75s-89 -27 -136 -27zM363 100h-1c30 0 59 6 88 18s55 29 78 51s43 47 59 75
s27 58 32 90s4 62 -3 91s-19 54 -35 75s-36 38 -61 51s-52 19 -82 19s-59 -6 -87 -19s-54 -30 -77 -51s-43 -46 -59 -75s-26 -59 -31 -91s-4 -62 3 -90s19 -53 35 -75s36 -39 60 -51s51 -18 81 -18z" />
    <glyph glyph-name="obreve" unicode="&#x14f;" horiz-adv-x="570" 
d="M281 703l-1 2c0 -9 2 -18 5 -27s8 -17 14 -24s13 -12 21 -16s18 -6 29 -6c22 0 41 7 58 21s28 31 33 50h65c-13 -49 -33 -87 -61 -114s-64 -40 -107 -40c-44 0 -76 13 -96 40s-27 65 -22 114h62zM253 -11v-1c-32 0 -62 6 -90 18s-52 29 -71 51s-33 49 -42 81
s-10 68 -4 107c7 41 19 78 37 111s40 61 66 83s55 39 87 51s66 18 102 18c33 0 64 -6 92 -19s52 -31 71 -54s33 -51 41 -83s9 -68 3 -107s-18 -74 -36 -106s-40 -59 -66 -81s-55 -39 -88 -51s-67 -18 -102 -18zM270 97l-3 -1c19 0 38 4 56 11s34 17 48 30s26 29 36 47
s17 38 20 60s3 42 -1 61s-11 35 -21 49s-23 25 -38 33s-32 12 -51 12s-37 -4 -54 -12s-33 -19 -47 -33s-26 -30 -36 -49s-17 -39 -20 -61c-3 -21 -3 -41 1 -59s11 -34 21 -47s23 -23 38 -30s32 -11 51 -11z" />
    <glyph glyph-name="Ohungarumlaut" unicode="&#x150;" horiz-adv-x="755" 
d="M656 875l-96 -144h-93l73 144h116zM502 875l-96 -144h-94l73 144h117zM348 -13l-1 -1c-47 0 -89 9 -127 27s-70 43 -96 75s-44 69 -55 111s-13 88 -6 137c8 48 24 93 47 136s52 80 87 112s75 57 119 75s91 27 140 27c47 0 89 -9 127 -27s70 -43 96 -75s44 -69 55 -112
s13 -88 6 -136c-8 -49 -24 -94 -48 -136s-54 -79 -89 -111s-75 -57 -119 -75s-89 -27 -136 -27zM365 101h-1c30 0 59 6 88 18s55 29 78 51s43 47 59 75s27 58 32 90s4 62 -3 91s-19 54 -35 75s-36 38 -61 51s-52 19 -82 19s-59 -6 -87 -19s-54 -30 -77 -51s-43 -46 -59 -75
s-26 -59 -31 -91s-4 -62 3 -90s19 -53 35 -75s36 -39 60 -51s51 -18 81 -18z" />
    <glyph glyph-name="ohungarumlaut" unicode="&#x151;" horiz-adv-x="570" 
d="M556 695l-96 -144h-94l73 144h117zM401 695l-95 -144h-94l73 144h116zM254 -13v-1c-32 0 -62 6 -90 18s-52 29 -71 51s-33 49 -42 81s-10 68 -4 107c7 41 19 78 37 111s40 61 66 83s55 39 87 51s66 18 102 18c33 0 64 -6 92 -19s52 -31 71 -54s33 -51 41 -83
s9 -68 3 -107s-18 -74 -36 -106s-40 -59 -66 -81s-55 -39 -88 -51s-67 -18 -102 -18zM271 95l-3 -1c19 0 38 4 56 11s34 17 48 30s26 29 36 47s17 38 20 60s3 42 -1 61s-11 35 -21 49s-23 25 -38 33s-32 12 -51 12s-37 -4 -54 -12s-33 -19 -47 -33s-26 -30 -36 -49
s-17 -39 -20 -61c-3 -21 -3 -41 1 -59s11 -34 21 -47s23 -23 38 -30s32 -11 51 -11z" />
    <glyph glyph-name="OE" unicode="&#x152;" horiz-adv-x="1003" 
d="M484 109l71 458h-127c-28 0 -55 -6 -82 -18s-51 -29 -73 -50s-41 -45 -56 -73s-25 -58 -30 -89s-4 -60 2 -88s17 -52 32 -73s34 -37 56 -49s47 -18 74 -18h133zM321 -1l1 -3c-43 0 -82 9 -117 27s-64 42 -87 72s-39 66 -49 107s-11 85 -4 132s22 91 45 132s51 77 84 108
s70 55 110 73s81 27 124 27h590l-17 -112h-332l-26 -165h313l-18 -112h-312l-28 -174h334l-18 -112h-593z" />
    <glyph glyph-name="oe" unicode="&#x153;" horiz-adv-x="932" 
d="M697 412v-1c-33 0 -62 -11 -86 -33s-42 -50 -53 -85l236 9c-3 36 -12 63 -28 82s-39 28 -69 28zM271 95l-4 -1c19 0 38 4 56 11s34 17 48 30s26 28 36 46s17 38 20 59v3l1 4c3 21 2 41 -2 59s-11 34 -21 47s-22 24 -37 32s-32 12 -51 12s-37 -4 -54 -12s-33 -19 -47 -33
s-26 -30 -36 -49s-17 -39 -20 -61c-3 -21 -3 -41 1 -59s11 -34 21 -47s23 -23 38 -30s32 -11 51 -11zM852 74l-2 1c-28 -29 -60 -51 -97 -66s-75 -23 -114 -23c-38 0 -73 8 -105 24s-58 38 -77 67c-28 -29 -60 -51 -96 -67s-74 -24 -115 -24c-32 0 -62 6 -90 18
s-52 29 -71 51s-33 49 -42 81s-10 68 -4 107c7 41 19 78 37 111s40 61 66 83s55 39 87 51s66 18 102 18c37 0 71 -8 102 -24s56 -38 75 -67c28 29 60 51 95 66s71 23 108 23c32 0 61 -6 88 -19s49 -32 67 -57s30 -56 36 -93s5 -80 -3 -128h-359c2 -37 15 -65 39 -85
s54 -30 90 -30c24 0 46 4 66 13s39 22 56 39z" />
    <glyph glyph-name="Racute" unicode="&#x154;" horiz-adv-x="656" 
d="M342 727l90 144h128l-113 -144h-105zM248 563l-36 -230h195c16 0 30 4 43 11s24 16 33 27s17 24 23 38s10 28 12 42s2 28 1 41s-4 25 -9 36s-12 20 -22 26s-22 9 -37 9h-203zM390 220l-196 1l-35 -222h-115l107 675h334c30 0 56 -6 77 -18s38 -28 51 -49s22 -44 26 -70
s4 -52 0 -79c-7 -43 -22 -84 -45 -123s-52 -69 -88 -90l76 -247h-124z" />
    <glyph glyph-name="racute" unicode="&#x155;" horiz-adv-x="385" 
d="M192 551l90 144h128l-112 -144h-106zM37 0l78 495h81l11 -99c29 34 60 61 93 81s67 30 101 30l-18 -114c-38 0 -73 -9 -105 -27s-60 -41 -83 -68l-47 -298h-111z" />
    <glyph glyph-name="Rcommaaccent" unicode="&#x156;" horiz-adv-x="656" 
d="M248 563l-36 -230h195c16 0 30 4 43 11s24 16 33 27s17 24 23 38s10 28 12 42s2 28 1 41s-4 25 -9 36s-12 20 -22 26s-22 9 -37 9h-203zM390 220l-196 1l-35 -222h-115l107 675h334c30 0 56 -6 77 -18s38 -28 51 -49s22 -44 26 -70s4 -52 0 -79c-7 -43 -22 -84 -45 -123
s-52 -69 -88 -90l76 -247h-124zM214 -306l-1 -1c13 16 25 31 35 45s18 30 24 47c-19 1 -34 9 -45 23s-15 32 -12 53s13 39 29 54s34 22 54 22s35 -8 46 -25s14 -37 10 -60c-5 -31 -17 -62 -36 -93s-48 -61 -87 -90z" />
    <glyph glyph-name="rcommaaccent" unicode="&#x157;" horiz-adv-x="385" 
d="M37 0l78 495h81l11 -99c29 34 60 61 93 81s67 30 101 30l-18 -114c-38 0 -73 -9 -105 -27s-60 -41 -83 -68l-47 -298h-111zM-3 -305l-2 -1c13 16 25 31 35 45s18 30 25 47c-19 1 -34 9 -45 23s-15 32 -12 53s13 39 29 54s34 22 54 22s35 -8 46 -25s15 -37 12 -60
c-5 -31 -17 -62 -37 -93s-49 -61 -88 -90z" />
    <glyph glyph-name="Rcaron" unicode="&#x158;" horiz-adv-x="656" 
d="M253 870h104l46 -98l77 98h106l-107 -144h-165zM248 563l-36 -230h195c16 0 30 4 43 11s24 16 33 27s17 24 23 38s10 28 12 42s2 28 1 41s-4 25 -9 36s-12 20 -22 26s-22 9 -37 9h-203zM390 220l-196 1l-35 -222h-115l107 675h334c30 0 56 -6 77 -18s38 -28 51 -49
s22 -44 26 -70s4 -52 0 -79c-7 -43 -22 -84 -45 -123s-52 -69 -88 -90l76 -247h-124z" />
    <glyph glyph-name="rcaron" unicode="&#x159;" horiz-adv-x="385" 
d="M126 695h104l46 -98l78 98h105l-106 -144h-166zM37 0l78 495h81l11 -99c29 34 60 61 93 81s67 30 101 30l-18 -114c-38 0 -73 -9 -105 -27s-60 -41 -83 -68l-47 -298h-111z" />
    <glyph glyph-name="Sacute" unicode="&#x15a;" horiz-adv-x="613" 
d="M330 727l90 144h128l-113 -144h-105zM95 184h-3c69 -55 145 -82 227 -82c31 0 58 8 81 24s37 37 41 63c3 24 -4 42 -21 55s-45 25 -85 36c-50 14 -90 29 -120 45s-53 33 -68 51s-24 37 -27 57s-3 42 0 65c4 25 13 49 26 72s30 43 51 60s46 31 75 41s61 15 96 15
c47 0 92 -6 135 -18s82 -34 116 -66l-61 -98c-29 23 -61 40 -95 51s-70 16 -108 16c-29 0 -54 -7 -75 -21s-33 -32 -36 -54c-2 -13 -2 -24 1 -33s9 -17 18 -24s21 -14 37 -21s36 -14 60 -21c43 -14 79 -28 107 -42s50 -29 65 -45s25 -34 30 -54s5 -42 1 -67
c-5 -29 -15 -56 -30 -81s-34 -46 -57 -64s-50 -32 -80 -42s-62 -15 -97 -15c-56 0 -105 8 -148 24s-83 41 -121 75z" />
    <glyph glyph-name="sacute" unicode="&#x15b;" horiz-adv-x="506" 
d="M257 551l90 144h128l-112 -144h-106zM71 150l-1 -1c35 -21 68 -36 100 -45s64 -13 95 -13c21 0 39 5 53 14s22 19 24 30c1 15 -4 26 -15 33s-28 13 -52 18c-41 9 -74 20 -99 32s-44 25 -57 39s-21 29 -24 45s-4 33 -2 50c3 22 10 43 21 62s26 36 45 50s41 25 66 33
s53 12 84 12c17 0 35 -1 53 -3s36 -5 53 -9s33 -9 48 -16s28 -15 39 -24l-52 -91c-19 11 -42 20 -69 27s-55 10 -83 10c-23 0 -43 -4 -60 -11s-26 -18 -28 -33c-2 -12 2 -22 11 -30s27 -15 54 -21c37 -9 68 -19 93 -29s45 -22 60 -35s25 -28 30 -45s6 -36 3 -58
s-10 -42 -22 -61s-28 -35 -48 -49s-43 -25 -69 -33s-54 -12 -85 -12c-45 0 -86 6 -122 18s-69 29 -99 52z" />
    <glyph glyph-name="Scircumflex" unicode="&#x15c;" horiz-adv-x="613" 
d="M418 825l-77 -98h-105l112 144h154l67 -144h-105zM95 184h-3c69 -55 145 -82 227 -82c31 0 58 8 81 24s37 37 41 63c3 24 -4 42 -21 55s-45 25 -85 36c-50 14 -90 29 -120 45s-53 33 -68 51s-24 37 -27 57s-3 42 0 65c4 25 13 49 26 72s30 43 51 60s46 31 75 41
s61 15 96 15c47 0 92 -6 135 -18s82 -34 116 -66l-61 -98c-29 23 -61 40 -95 51s-70 16 -108 16c-29 0 -54 -7 -75 -21s-33 -32 -36 -54c-2 -13 -2 -24 1 -33s9 -17 18 -24s21 -14 37 -21s36 -14 60 -21c43 -14 79 -28 107 -42s50 -29 65 -45s25 -34 30 -54s5 -42 1 -67
c-5 -29 -15 -56 -30 -81s-34 -46 -57 -64s-50 -32 -80 -42s-62 -15 -97 -15c-56 0 -105 8 -148 24s-83 41 -121 75z" />
    <glyph glyph-name="scircumflex" unicode="&#x15d;" horiz-adv-x="506" 
d="M338 649l-77 -98h-105l107 144h165l61 -144h-105zM71 150l-1 -1c35 -21 68 -36 100 -45s64 -13 95 -13c21 0 39 5 53 14s22 19 24 30c1 15 -4 26 -15 33s-28 13 -52 18c-41 9 -74 20 -99 32s-44 25 -57 39s-21 29 -24 45s-4 33 -2 50c3 22 10 43 21 62s26 36 45 50
s41 25 66 33s53 12 84 12c17 0 35 -1 53 -3s36 -5 53 -9s33 -9 48 -16s28 -15 39 -24l-52 -91c-19 11 -42 20 -69 27s-55 10 -83 10c-23 0 -43 -4 -60 -11s-26 -18 -28 -33c-2 -12 2 -22 11 -30s27 -15 54 -21c37 -9 68 -19 93 -29s45 -22 60 -35s25 -28 30 -45s6 -36 3 -58
s-10 -42 -22 -61s-28 -35 -48 -49s-43 -25 -69 -33s-54 -12 -85 -12c-45 0 -86 6 -122 18s-69 29 -99 52z" />
    <glyph glyph-name="Scedilla" unicode="&#x15e;" horiz-adv-x="613" 
d="M95 184h-3c69 -55 145 -82 227 -82c31 0 58 8 81 24s37 37 41 63c3 24 -4 42 -21 55s-45 25 -85 36c-50 14 -90 29 -120 45s-53 33 -68 51s-24 37 -27 57s-3 42 0 65c4 25 13 49 26 72s30 43 51 60s46 31 75 41s61 15 96 15c47 0 92 -6 135 -18s82 -34 116 -66l-61 -98
c-29 23 -61 40 -95 51s-70 16 -108 16c-29 0 -54 -7 -75 -21s-33 -32 -36 -54c-2 -13 -2 -24 1 -33s9 -17 18 -24s21 -14 37 -21s36 -14 60 -21c43 -14 79 -28 107 -42s50 -29 65 -45s25 -34 30 -54s5 -42 1 -67c-5 -29 -15 -56 -30 -81s-34 -46 -57 -64s-50 -32 -80 -42
s-62 -15 -97 -15c-56 0 -105 8 -148 24s-83 41 -121 75zM189 -305l-2 -1c14 16 26 31 36 45s18 30 24 47c-19 1 -34 9 -45 23s-15 32 -12 53s13 39 29 54s34 22 55 22c19 0 34 -8 45 -25s15 -37 12 -60c-5 -31 -17 -62 -36 -93s-49 -61 -89 -90z" />
    <glyph glyph-name="scedilla" unicode="&#x15f;" horiz-adv-x="506" 
d="M71 150l-1 -1c35 -21 68 -36 100 -45s64 -13 95 -13c21 0 39 5 53 14s22 19 24 30c1 15 -4 26 -15 33s-28 13 -52 18c-41 9 -74 20 -99 32s-44 25 -57 39s-21 29 -24 45s-4 33 -2 50c3 22 10 43 21 62s26 36 45 50s41 25 66 33s53 12 84 12c17 0 35 -1 53 -3s36 -5 53 -9
s33 -9 48 -16s28 -15 39 -24l-52 -91c-19 11 -42 20 -69 27s-55 10 -83 10c-23 0 -43 -4 -60 -11s-26 -18 -28 -33c-2 -12 2 -22 11 -30s27 -15 54 -21c37 -9 68 -19 93 -29s45 -22 60 -35s25 -28 30 -45s6 -36 3 -58s-10 -42 -22 -61s-28 -35 -48 -49s-43 -25 -69 -33
s-54 -12 -85 -12c-45 0 -86 6 -122 18s-69 29 -99 52zM129 -306l-3 -1c14 16 26 31 36 45s18 30 25 47c-19 1 -34 9 -45 23s-15 32 -12 53s13 39 29 54s34 22 54 22s35 -8 46 -25s15 -37 12 -60c-5 -31 -17 -62 -36 -93s-49 -61 -89 -90z" />
    <glyph glyph-name="Scaron" unicode="&#x160;" horiz-adv-x="613" 
d="M248 870h105l46 -98l77 98h106l-107 -144h-165zM95 184h-3c69 -55 145 -82 227 -82c31 0 58 8 81 24s37 37 41 63c3 24 -4 42 -21 55s-45 25 -85 36c-50 14 -90 29 -120 45s-53 33 -68 51s-24 37 -27 57s-3 42 0 65c4 25 13 49 26 72s30 43 51 60s46 31 75 41
s61 15 96 15c47 0 92 -6 135 -18s82 -34 116 -66l-61 -98c-29 23 -61 40 -95 51s-70 16 -108 16c-29 0 -54 -7 -75 -21s-33 -32 -36 -54c-2 -13 -2 -24 1 -33s9 -17 18 -24s21 -14 37 -21s36 -14 60 -21c43 -14 79 -28 107 -42s50 -29 65 -45s25 -34 30 -54s5 -42 1 -67
c-5 -29 -15 -56 -30 -81s-34 -46 -57 -64s-50 -32 -80 -42s-62 -15 -97 -15c-56 0 -105 8 -148 24s-83 41 -121 75z" />
    <glyph glyph-name="scaron" unicode="&#x161;" horiz-adv-x="506" 
d="M176 695h104l46 -98l78 98h105l-106 -144h-166zM71 150l-1 -1c35 -21 68 -36 100 -45s64 -13 95 -13c21 0 39 5 53 14s22 19 24 30c1 15 -4 26 -15 33s-28 13 -52 18c-41 9 -74 20 -99 32s-44 25 -57 39s-21 29 -24 45s-4 33 -2 50c3 22 10 43 21 62s26 36 45 50
s41 25 66 33s53 12 84 12c17 0 35 -1 53 -3s36 -5 53 -9s33 -9 48 -16s28 -15 39 -24l-52 -91c-19 11 -42 20 -69 27s-55 10 -83 10c-23 0 -43 -4 -60 -11s-26 -18 -28 -33c-2 -12 2 -22 11 -30s27 -15 54 -21c37 -9 68 -19 93 -29s45 -22 60 -35s25 -28 30 -45s6 -36 3 -58
s-10 -42 -22 -61s-28 -35 -48 -49s-43 -25 -69 -33s-54 -12 -85 -12c-45 0 -86 6 -122 18s-69 29 -99 52z" />
    <glyph glyph-name="Tcedilla" unicode="&#x162;" horiz-adv-x="592" 
d="M415 563l-89 -563h-115l89 563h-215l18 112h544l-18 -112h-214zM172 -306l-2 -1c14 16 26 31 36 45s18 30 24 47c-19 1 -34 9 -45 23s-15 32 -12 53s13 39 29 54s34 22 55 22c19 0 34 -8 45 -25s15 -37 12 -60c-5 -32 -17 -63 -36 -94s-49 -60 -89 -88z" />
    <glyph glyph-name="tcedilla" unicode="&#x163;" horiz-adv-x="328" 
d="M267 -13l-1 -1c-73 0 -125 18 -156 54s-42 83 -33 142l33 210h-51l16 103h51l19 121l118 40l-26 -161h101l-13 -88l-15 -15h-89l-32 -203c-5 -28 0 -51 16 -68s42 -26 79 -26zM62 -306l1 -1c13 16 25 31 35 45s18 30 24 47c-19 1 -34 9 -45 23s-15 32 -12 53s13 39 29 54
s34 22 54 22s35 -8 46 -25s14 -37 10 -60c-5 -31 -17 -62 -37 -93s-49 -61 -88 -90z" />
    <glyph glyph-name="Tcaron" unicode="&#x164;" horiz-adv-x="592" 
d="M238 870h104l46 -98l77 98h106l-107 -144h-165zM415 563l-89 -563h-115l89 563h-215l18 112h544l-18 -112h-214z" />
    <glyph glyph-name="tcaron" unicode="&#x165;" horiz-adv-x="494" 
d="M394 432h-2c15 17 28 33 39 47s20 31 27 50c-21 0 -37 8 -49 24s-16 35 -13 57c3 21 13 39 30 54s36 23 57 23s37 -9 48 -26s15 -38 11 -63c-5 -33 -18 -66 -38 -98s-51 -63 -92 -93zM265 -13l-1 -1c-73 0 -125 18 -156 54s-42 83 -33 142l33 210h-51l16 103h51l19 121
l118 40l-26 -161h101l-13 -88l-15 -15h-89l-32 -203c-5 -28 0 -51 16 -68s42 -26 79 -26z" />
    <glyph glyph-name="Tbar" unicode="&#x166;" horiz-adv-x="594" 
d="M381 346l-54 -346h-115l55 346h-154l12 76h154l22 141h-215l18 112h543l-17 -112h-214l-23 -141h147l-12 -76h-147z" />
    <glyph glyph-name="tbar" unicode="&#x167;" horiz-adv-x="331" 
d="M270 -13l-2 -1c-73 0 -125 18 -156 54s-42 83 -33 142l9 52h-54l12 76h54l13 82h-51l16 103h51l19 121l117 40l-25 -161h101l-14 -88l-14 -15h-89l-13 -82h99l-12 -76h-99l-7 -45c-5 -28 0 -51 16 -68s42 -26 79 -26z" />
    <glyph glyph-name="Utilde" unicode="&#x168;" horiz-adv-x="691" 
d="M284 749h1c3 20 9 37 17 52s17 27 27 37s21 17 32 22s22 7 32 7c14 0 27 -2 39 -6s23 -8 33 -13s20 -9 30 -13s21 -6 33 -6c7 0 14 2 21 6s12 12 15 23h44c-6 -39 -19 -69 -39 -91s-42 -33 -66 -33c-14 0 -27 2 -39 6s-23 8 -34 13s-22 9 -33 13s-22 6 -34 6
c-17 0 -28 -8 -33 -23h-46zM264 675l-62 -395c-10 -61 -3 -106 21 -135s63 -44 118 -45c22 0 43 4 63 12s39 19 56 34s31 34 42 56s19 49 24 80l62 392h115l-64 -401c-7 -47 -20 -88 -39 -124s-42 -66 -70 -90s-59 -42 -94 -54s-72 -18 -112 -18c-43 0 -81 6 -114 18
s-60 30 -81 54s-35 54 -43 90s-8 78 -1 125l64 401h115z" />
    <glyph glyph-name="utilde" unicode="&#x169;" horiz-adv-x="578" 
d="M198 582h3c7 40 21 70 42 89s43 29 66 29c14 0 27 -2 38 -6s22 -8 32 -13s20 -9 30 -13s21 -6 32 -6c7 0 14 2 21 6s12 12 15 23h44c-6 -40 -18 -71 -36 -92s-40 -32 -67 -32c-15 0 -28 2 -40 6s-23 8 -34 13s-22 9 -33 13s-22 6 -34 6c-7 0 -14 -2 -20 -6
s-10 -10 -13 -17h-46zM406 79v-1c-28 -30 -58 -53 -90 -69s-64 -24 -95 -24c-25 0 -48 4 -69 13s-39 22 -53 40s-24 41 -30 69s-6 61 0 100l45 287h111l-43 -270c-13 -83 17 -124 89 -123c25 -1 48 6 70 20s43 32 64 54l50 320h111l-78 -495h-75z" />
    <glyph glyph-name="Umacron" unicode="&#x16a;" horiz-adv-x="691" 
d="M302 835h293l-14 -90h-293zM263 675l-62 -395c-10 -61 -3 -106 21 -135s63 -44 118 -45c22 0 43 4 63 12s39 19 56 34s31 34 42 56s19 49 24 80l62 392h115l-64 -401c-7 -47 -20 -88 -39 -124s-42 -66 -70 -90s-59 -42 -94 -54s-72 -18 -112 -18c-43 0 -81 6 -114 18
s-60 30 -81 54s-35 54 -43 90s-8 78 -1 125l64 401h115z" />
    <glyph glyph-name="umacron" unicode="&#x16b;" horiz-adv-x="578" 
d="M229 670h278l-15 -90h-277zM403 79v-1c-28 -30 -58 -53 -90 -69s-64 -24 -95 -24c-25 0 -48 4 -69 13s-39 22 -53 40s-24 41 -30 69s-6 61 0 100l45 287h111l-43 -270c-13 -83 17 -124 89 -123c25 -1 48 6 70 20s43 32 64 54l50 320h111l-78 -495h-75z" />
    <glyph glyph-name="Ubreve" unicode="&#x16c;" horiz-adv-x="691" 
d="M374 879l-2 -1c-1 -18 5 -34 17 -49s29 -22 52 -22c22 0 41 7 58 21s28 31 34 50h64c-13 -49 -33 -87 -61 -114s-64 -40 -107 -40s-75 14 -95 41s-28 65 -23 114h63zM261 674l-62 -395c-10 -61 -3 -106 21 -135s63 -44 118 -45c22 0 43 4 63 12s39 19 56 34s31 34 42 56
s19 49 24 80l62 392h115l-64 -401c-7 -47 -20 -88 -39 -124s-42 -66 -70 -90s-59 -42 -94 -54s-72 -18 -112 -18c-43 0 -81 6 -114 18s-60 30 -81 54s-35 54 -43 90s-8 78 -1 125l64 401h115z" />
    <glyph glyph-name="ubreve" unicode="&#x16d;" horiz-adv-x="578" 
d="M291 703l-2 -1c-1 -17 5 -33 17 -48s29 -22 52 -22c22 0 41 7 58 21s28 31 33 50h65c-13 -49 -33 -87 -61 -114s-63 -40 -106 -40c-44 0 -76 13 -96 40s-27 65 -22 114h62zM401 78v-1c-28 -30 -58 -53 -90 -69s-64 -24 -95 -24c-25 0 -48 4 -69 13s-39 22 -53 40
s-24 41 -30 69s-6 61 0 100l45 287h111l-43 -270c-13 -83 17 -124 89 -123c25 -1 48 6 70 20s43 32 64 54l50 320h111l-78 -495h-75z" />
    <glyph glyph-name="Uring" unicode="&#x16e;" horiz-adv-x="691" 
d="M330 847l1 1c0 17 3 32 9 46s14 26 24 36s22 18 36 24s30 9 47 9c34 0 62 -11 83 -33s32 -50 32 -83c0 -34 -11 -62 -32 -84s-49 -33 -83 -33c-38 0 -67 11 -87 33s-30 50 -30 84zM447 796l-1 -2c13 0 24 5 33 14s14 21 14 36c0 17 -5 30 -14 39s-20 13 -33 13
s-24 -5 -33 -14s-13 -21 -13 -36c0 -17 5 -30 14 -38s20 -12 33 -12zM263 674l-62 -395c-10 -61 -3 -106 21 -135s63 -44 118 -45c22 0 43 4 63 12s39 19 56 34s31 34 42 56s19 49 24 80l62 392h115l-64 -401c-7 -47 -20 -88 -39 -124s-42 -66 -70 -90s-59 -42 -94 -54
s-72 -18 -112 -18c-43 0 -81 6 -114 18s-60 30 -81 54s-35 54 -43 90s-8 78 -1 125l64 401h115z" />
    <glyph glyph-name="uring" unicode="&#x16f;" horiz-adv-x="576" 
d="M236 668h-2c0 33 11 60 32 82s49 33 84 33c34 0 62 -11 83 -33s32 -49 32 -82c0 -34 -10 -62 -31 -84s-48 -33 -82 -33c-39 0 -68 11 -87 33s-29 50 -29 84zM350 615v-2c12 0 23 5 32 14s14 22 14 38s-5 29 -14 38s-20 14 -32 14c-13 0 -24 -5 -33 -14s-14 -21 -14 -36
c0 -17 5 -30 14 -39s20 -13 33 -13zM401 77v-1c-28 -30 -58 -53 -90 -69s-64 -24 -95 -24c-25 0 -48 4 -69 13s-39 22 -53 40s-24 41 -30 69s-6 61 0 100l45 287h111l-43 -270c-13 -83 17 -124 89 -123c25 -1 48 6 70 20s43 32 64 54l50 320h111l-78 -495h-75z" />
    <glyph glyph-name="Uhungarumlaut" unicode="&#x170;" horiz-adv-x="691" 
d="M653 875l-96 -144h-94l74 144h116zM498 875l-95 -144h-94l73 144h116zM263 675l-62 -395c-10 -61 -3 -106 21 -135s63 -44 118 -45c22 0 43 4 63 12s39 19 56 34s31 34 42 56s19 49 24 80l62 392h115l-64 -401c-7 -47 -20 -88 -39 -124s-42 -66 -70 -90s-59 -42 -94 -54
s-72 -18 -112 -18c-43 0 -81 6 -114 18s-60 30 -81 54s-35 54 -43 90s-8 78 -1 125l64 401h115z" />
    <glyph glyph-name="uhungarumlaut" unicode="&#x171;" horiz-adv-x="578" 
d="M560 695l-96 -144h-94l73 144h117zM405 695l-95 -144h-94l73 144h116zM403 79v-1c-28 -30 -58 -53 -90 -69s-64 -24 -95 -24c-25 0 -48 4 -69 13s-39 22 -53 40s-24 41 -30 69s-6 61 0 100l45 287h111l-43 -270c-13 -83 17 -124 89 -123c25 -1 48 6 70 20s43 32 64 54
l50 320h111l-78 -495h-75z" />
    <glyph glyph-name="Uogonek" unicode="&#x172;" horiz-adv-x="691" 
d="M320 -192l-1 -4c-37 0 -64 8 -82 25s-25 40 -20 70c6 35 23 64 51 87c-35 5 -65 15 -91 29s-47 33 -63 57s-27 53 -33 86s-5 71 2 113l64 401h115l-62 -392c-10 -61 -3 -106 21 -135s63 -44 118 -45c22 0 43 4 63 12s39 19 56 34s31 34 42 56s19 49 24 80l62 392h115
l-64 -401c-13 -83 -43 -148 -89 -195s-102 -76 -167 -87c-27 -10 -46 -21 -57 -33s-18 -26 -21 -41c-2 -11 0 -21 7 -29s17 -12 30 -12c26 0 49 9 69 27l9 -62c-26 -22 -59 -33 -98 -33z" />
    <glyph glyph-name="uogonek" unicode="&#x173;" horiz-adv-x="579" 
d="M479 -164l-4 -2c-26 -22 -59 -33 -98 -33c-36 0 -63 8 -81 25s-24 40 -19 70c5 33 20 60 44 81s52 38 84 51l-5 49c-28 -30 -58 -53 -90 -69s-64 -24 -95 -24c-25 0 -48 4 -69 13s-39 22 -53 40s-24 41 -30 69s-6 61 0 100l45 287h111l-43 -270c-13 -83 17 -124 89 -123
c25 -1 48 6 70 20s43 32 64 54l50 320h111l-78 -495c-42 -11 -72 -24 -89 -38s-27 -31 -30 -50c-1 -11 2 -20 9 -28s17 -12 30 -12c26 0 49 9 68 27l9 -62v0z" />
    <glyph glyph-name="Wcircumflex" unicode="&#x174;" horiz-adv-x="960" 
d="M580 825l-77 -98h-105l113 144h153l67 -144h-105zM97 675h122l65 -522l219 522h111l58 -525l228 525h120l-309 -675h-122l-54 521l-219 -521h-121z" />
    <glyph glyph-name="wcircumflex" unicode="&#x175;" horiz-adv-x="774" 
d="M462 649l-78 -98h-105l107 144h166l61 -144h-105zM57 495l114 -1l62 -367c31 50 59 106 85 167s50 128 71 201h91l56 -365c37 59 69 119 97 179s51 122 69 186h113c-61 -189 -148 -354 -261 -495h-88l-48 329c-19 -57 -43 -112 -71 -166s-60 -108 -97 -163h-88z" />
    <glyph glyph-name="Ycircumflex" unicode="&#x176;" horiz-adv-x="686" 
d="M444 825l-77 -98h-105l113 144h154l67 -144h-106zM373 0h-115l36 230l-198 445h125l145 -347l254 347h129l-340 -445z" />
    <glyph glyph-name="ycircumflex" unicode="&#x177;" horiz-adv-x="484" 
d="M308 649l-78 -98h-105l107 144h165l62 -144h-105zM-43 -126l-4 -2c20 0 40 6 60 18s39 26 57 43s35 35 50 54s28 36 39 51l-105 456h122l65 -346c36 53 67 108 93 165s49 117 70 181h121c-33 -91 -73 -180 -121 -267s-102 -169 -163 -246c-26 -33 -51 -63 -75 -90
s-48 -50 -72 -69s-49 -33 -74 -43s-52 -15 -80 -15z" />
    <glyph glyph-name="Ydieresis" unicode="&#x178;" horiz-adv-x="686" 
d="M319 737l1 -2c-19 0 -35 7 -47 21s-16 33 -13 56c3 21 13 39 29 53s34 21 54 21c18 0 33 -7 45 -21s16 -31 13 -52c-2 -11 -6 -21 -11 -30s-11 -17 -19 -24s-16 -12 -25 -16s-18 -6 -27 -6zM529 735v-3c-19 0 -35 7 -47 21s-16 33 -13 56c1 10 4 20 9 29s12 17 20 24
s17 12 26 16s19 6 29 6c18 0 33 -7 45 -21s16 -31 13 -52c-2 -11 -6 -21 -11 -30s-11 -17 -19 -24s-16 -12 -25 -16s-18 -6 -27 -6zM374 -5h-115l36 230l-198 445h125l145 -347l254 347h129l-340 -445z" />
    <glyph glyph-name="Zacute" unicode="&#x179;" horiz-adv-x="611" 
d="M329 727l90 144h128l-112 -144h-106zM20 0l13 83l427 480h-338l17 112h491l-13 -81l-433 -482h370l-18 -112h-516z" />
    <glyph glyph-name="zacute" unicode="&#x17a;" horiz-adv-x="493" 
d="M245 551l90 144h128l-112 -144h-106zM422 0l1 1c-131 15 -267 15 -408 0l16 101l297 283c-80 -2 -158 1 -234 9l15 102c137 -13 265 -13 384 0l-16 -102l-296 -281c45 1 89 1 132 -1s85 -5 126 -10z" />
    <glyph glyph-name="Zdotaccent" unicode="&#x17b;" horiz-adv-x="611" 
d="M390 741v-1c-19 0 -35 7 -47 21s-16 33 -13 56c3 21 13 39 30 54s35 22 54 22c18 0 33 -7 45 -22s16 -33 13 -54c-2 -11 -6 -21 -11 -30s-11 -17 -19 -24s-16 -12 -25 -16s-18 -6 -27 -6zM20 -1l13 83l427 480h-338l17 112h491l-13 -81l-433 -482h370l-18 -112h-516z" />
    <glyph glyph-name="zdotaccent" unicode="&#x17c;" horiz-adv-x="493" 
d="M309 571l-2 -1c-19 0 -35 7 -47 22s-16 33 -13 55c3 21 13 39 30 53s35 21 54 21c18 0 33 -7 45 -21s16 -32 13 -53c-2 -11 -6 -21 -11 -30s-11 -17 -18 -24s-15 -12 -24 -16s-18 -6 -27 -6zM420 -1l1 1c-131 15 -267 15 -408 0l16 101l297 283c-80 -2 -158 1 -234 9
l15 102c137 -13 265 -13 384 0l-16 -102l-296 -281c45 1 89 1 132 -1s85 -5 126 -10z" />
    <glyph glyph-name="Zcaron" unicode="&#x17d;" horiz-adv-x="611" 
d="M241 870h105l46 -98l77 98h106l-107 -144h-165zM20 0l13 83l427 480h-338l17 112h491l-13 -81l-433 -482h370l-18 -112h-516z" />
    <glyph glyph-name="zcaron" unicode="&#x17e;" horiz-adv-x="493" 
d="M162 696h105l46 -98l77 98h106l-107 -144h-166zM422 0l1 1c-131 15 -267 15 -408 0l16 101l297 283c-80 -2 -158 1 -234 9l15 102c137 -13 265 -13 384 0l-16 -102l-296 -281c45 1 89 1 132 -1s85 -5 126 -10z" />
    <glyph glyph-name="longs" unicode="&#x17f;" horiz-adv-x="283" 
d="M-61 -140h1c29 0 51 8 66 23s24 33 27 54l73 457h-38l16 101h38l6 41c10 63 35 108 75 136s92 42 157 42l-26 -102c-29 0 -51 -7 -66 -21s-25 -32 -29 -55l-95 -599c-10 -63 -35 -108 -75 -136s-92 -42 -156 -42z" />
    <glyph glyph-name="Schwa" unicode="&#x18f;" horiz-adv-x="755" 
d="M350 -13l-4 -3c-46 0 -88 9 -127 28s-72 45 -98 79s-44 74 -54 121s-9 99 3 156h550c1 28 -3 54 -12 79s-22 46 -38 64s-36 32 -59 42s-48 15 -75 15c-26 0 -52 -4 -78 -13s-49 -22 -70 -40l-66 85c34 27 71 48 111 63s81 23 123 23c47 0 89 -9 127 -27s70 -43 95 -75
s43 -69 54 -112s13 -88 5 -136c-7 -49 -23 -94 -47 -136s-54 -79 -89 -111s-74 -57 -117 -75s-88 -27 -134 -27zM364 100l3 -2c23 0 46 4 68 12s43 19 63 33s38 31 54 50s30 40 41 63h-410c4 -25 12 -47 23 -66s25 -35 41 -49s34 -24 54 -31s41 -10 63 -10z" />
    <glyph glyph-name="florin" unicode="&#x192;" horiz-adv-x="277" 
d="M-55 -140c29 0 51 8 66 23s24 33 27 54l73 457h-51l16 101h51l7 41c9 63 34 108 74 136s92 42 157 42l-26 -102c-29 0 -51 -7 -66 -21s-25 -32 -29 -55l-6 -41h83l-4 -31l-20 -70h-75l-72 -457c-10 -63 -35 -108 -75 -136s-92 -42 -155 -42z" />
    <glyph glyph-name="DZcaron" unicode="&#x1c4;" horiz-adv-x="1317" 
d="M248 563l-72 -450h146c29 0 58 6 86 18s53 28 75 48s41 44 56 71s25 56 30 87s5 60 0 87s-14 51 -28 72s-32 37 -53 49s-45 18 -72 18h-168zM150 676l278 3c43 0 82 -9 117 -27s64 -42 87 -72s39 -66 49 -107s11 -85 4 -132s-22 -91 -44 -132s-49 -77 -81 -108
s-68 -55 -108 -73s-82 -27 -126 -27h-283zM941 874h105l46 -98l77 98h106l-107 -144h-165zM720 4l13 83l427 480h-338l17 112h491l-13 -81l-433 -482h370l-18 -112h-516z" />
    <glyph glyph-name="Dzcaron" unicode="&#x1c5;" horiz-adv-x="1174" 
d="M248 563l-72 -450h146c29 0 58 6 86 18s53 28 75 48s41 44 56 71s25 56 30 87s5 60 0 87s-14 51 -28 72s-32 37 -53 49s-45 18 -72 18h-168zM843 692h104l46 -98l77 98h106l-107 -144h-165zM1102 1v1c-131 15 -267 15 -408 0l16 101l296 283c-79 -2 -157 1 -233 9l15 102
c137 -13 265 -13 384 0l-16 -102l-296 -281c45 1 89 1 132 -1s85 -5 126 -10zM150 677l278 3c43 0 82 -9 117 -27s64 -42 87 -72s39 -66 49 -107s11 -85 4 -132s-22 -91 -44 -132s-49 -77 -81 -108s-68 -55 -108 -73s-82 -27 -126 -27h-283z" />
    <glyph glyph-name="dzcaron" unicode="&#x1c6;" horiz-adv-x="1078" 
d="M752 695h105l46 -98l77 98h106l-107 -144h-166zM1007 0l1 1c-131 15 -267 15 -408 0l16 101l297 283c-80 -2 -158 1 -234 9l15 102c137 -13 265 -13 384 0l-16 -102l-296 -281c45 1 89 1 132 -1s85 -5 126 -10zM274 97l-5 2c19 0 38 4 56 12s34 19 49 32s27 29 37 48
s17 39 20 61s3 42 -1 60s-11 34 -21 48s-23 25 -39 33s-34 12 -54 12s-39 -4 -56 -12s-32 -19 -46 -33s-25 -30 -34 -49s-15 -39 -18 -60s-3 -41 0 -60s9 -35 18 -49s22 -25 38 -33s35 -12 56 -12zM419 64l1 -2c-27 -23 -56 -41 -87 -54s-62 -20 -93 -20c-32 0 -61 7 -88 20
s-50 31 -68 54s-31 51 -39 83s-9 67 -3 105c6 39 17 74 34 106s37 59 61 82s51 41 82 54s63 19 97 19c30 0 57 -5 81 -16s45 -25 62 -42l5 62l32 202h111l-113 -714h-65z" />
    <glyph glyph-name="LJ" unicode="&#x1c7;" horiz-adv-x="1086" 
d="M151 675h114l-89 -563h325l-18 -112h-439zM784 -13c-56 0 -102 11 -138 32s-66 50 -89 87l79 77c17 -24 37 -43 60 -57s52 -21 87 -21c29 0 56 10 81 31s41 53 48 96l71 443h115l-72 -451c-7 -43 -18 -79 -34 -109s-35 -54 -57 -73s-46 -33 -72 -42s-52 -13 -79 -13z" />
    <glyph glyph-name="Lj" unicode="&#x1c8;" horiz-adv-x="790" 
d="M151 675h114l-89 -563h325l-18 -112h-439zM732 578l1 -2c-20 0 -36 8 -47 23s-15 33 -12 54s13 39 29 53s34 21 54 21c19 0 34 -7 45 -21s15 -31 12 -52s-13 -39 -29 -54s-34 -22 -53 -22zM690 -39l-1 -3c-5 -30 -14 -57 -27 -81s-30 -45 -50 -62s-43 -30 -69 -39
s-54 -14 -85 -14l17 109c13 0 25 2 37 7s23 12 32 20s17 18 23 29s10 23 12 36l85 530h111z" />
    <glyph glyph-name="lj" unicode="&#x1c9;" horiz-adv-x="482" 
d="M424 578l-4 -2c-20 0 -36 8 -47 23s-15 33 -12 54s13 39 29 53s34 21 54 21c19 0 35 -7 47 -21s16 -31 13 -52c-2 -11 -6 -21 -11 -30s-11 -17 -18 -24s-15 -12 -24 -16s-18 -6 -27 -6zM147 712h111l-113 -714h-111zM378 -39l-1 -3c-5 -30 -14 -57 -27 -81
s-30 -45 -51 -62s-44 -30 -70 -39s-54 -14 -85 -14l17 109c13 0 25 2 37 7s23 12 32 20s17 18 24 29s11 23 13 36l84 530h111z" />
    <glyph glyph-name="NJ" unicode="&#x1ca;" horiz-adv-x="1255" 
d="M238 501l-79 -501h-115l107 675h114l262 -502l79 502h115l-107 -675h-115zM953 -13c-56 0 -102 11 -138 32s-66 50 -89 87l79 77c17 -24 37 -43 60 -57s52 -21 87 -21c29 0 56 10 81 31s41 53 48 96l71 443h115l-72 -451c-7 -43 -18 -79 -34 -109s-35 -54 -57 -73
s-46 -33 -72 -42s-52 -13 -79 -13z" />
    <glyph glyph-name="Nj" unicode="&#x1cb;" horiz-adv-x="959" 
d="M238 501l-79 -501h-115l107 675h114l262 -502l79 502h115l-107 -675h-115zM901 578l1 -2c-20 0 -36 8 -47 23s-15 33 -12 54s13 39 29 53s34 21 54 21c19 0 34 -7 45 -21s15 -31 12 -52s-13 -39 -29 -54s-34 -22 -53 -22zM859 -39l-1 -3c-5 -30 -14 -57 -27 -81
s-30 -45 -50 -62s-43 -30 -69 -39s-54 -14 -85 -14l17 109c13 0 25 2 37 7s23 12 32 20s17 18 23 29s10 23 12 36l85 530h111z" />
    <glyph glyph-name="nj" unicode="&#x1cc;" horiz-adv-x="825" 
d="M767 578l-4 -2c-20 0 -36 8 -47 23s-15 33 -12 54s13 39 29 53s34 21 54 21c19 0 35 -7 47 -21s16 -31 13 -52c-2 -11 -6 -21 -11 -30s-11 -17 -18 -24s-15 -12 -24 -16s-18 -6 -27 -6zM721 -39l-1 -3c-5 -30 -14 -57 -27 -81s-30 -45 -51 -62s-44 -30 -70 -39
s-54 -14 -85 -14l17 109c13 0 25 2 37 7s23 12 32 20s17 18 24 29s11 23 13 36l84 530h111zM336 388l-3 -2c-25 0 -49 -7 -73 -20s-46 -31 -67 -54l-51 -319h-111l79 495h74l8 -80c29 32 60 56 92 71s64 23 96 23c25 0 49 -4 71 -12s40 -20 55 -37s26 -38 32 -64
s6 -57 0 -93l-48 -301h-111l44 277c7 40 2 69 -15 88s-41 28 -72 28z" />
    <glyph glyph-name="Acaron" unicode="&#x1cd;" horiz-adv-x="678" 
d="M277 870h104l46 -98l77 98h106l-107 -144h-165zM399 548l-151 -286h212zM484 150h-295l-79 -150h-125l371 675h123l157 -675h-120z" />
    <glyph glyph-name="acaron" unicode="&#x1ce;" 
d="M192 695h104l46 -98l77 98h106l-107 -144h-165zM275 95l-1 -4c19 0 37 4 55 12s34 19 48 33s26 30 36 49s17 39 20 60c3 22 3 42 -1 61s-11 35 -21 49s-23 25 -38 33s-32 12 -51 12s-38 -4 -56 -12s-34 -19 -48 -33s-26 -30 -36 -49s-17 -39 -20 -60s-3 -40 1 -58
s11 -34 21 -48s23 -25 38 -33s33 -12 53 -12zM421 66l-2 -2c-26 -23 -54 -43 -85 -59s-63 -24 -96 -24c-31 0 -60 6 -86 19s-48 31 -66 54s-31 51 -39 83s-9 67 -3 105s18 73 36 105s40 60 66 83s54 41 85 54s63 20 96 20c31 0 60 -7 87 -21s50 -32 69 -55l26 63h66
l-79 -495h-65z" />
    <glyph glyph-name="Icaron" unicode="&#x1cf;" horiz-adv-x="258" 
d="M73 870h105l46 -98l77 98h106l-107 -144h-165zM151 675h114l-106 -675h-115z" />
    <glyph glyph-name="icaron" unicode="&#x1d0;" horiz-adv-x="245" 
d="M33 695h105l46 -98l77 98h106l-107 -144h-166zM117 495h111l-78 -495h-112z" />
    <glyph glyph-name="Ocaron" unicode="&#x1d1;" horiz-adv-x="757" 
d="M317 870h104l46 -98l77 98h106l-107 -144h-165zM348 -13l-1 -1c-47 0 -89 9 -127 27s-70 43 -96 75s-44 69 -55 111s-13 88 -6 137c8 48 24 93 47 136s52 80 87 112s75 57 119 75s91 27 140 27c47 0 89 -9 127 -27s70 -43 96 -75s44 -69 55 -112s13 -88 6 -136
c-8 -49 -24 -94 -48 -136s-54 -79 -89 -111s-75 -57 -119 -75s-89 -27 -136 -27zM365 101h-1c30 0 59 6 88 18s55 29 78 51s43 47 59 75s27 58 32 90s4 62 -3 91s-19 54 -35 75s-36 38 -61 51s-52 19 -82 19s-59 -6 -87 -19s-54 -30 -77 -51s-43 -46 -59 -75
s-26 -59 -31 -91s-4 -62 3 -90s19 -53 35 -75s36 -39 60 -51s51 -18 81 -18z" />
    <glyph glyph-name="ocaron" unicode="&#x1d2;" horiz-adv-x="570" 
d="M190 695h105l46 -98l77 98h106l-107 -144h-165zM254 -13v-1c-32 0 -62 6 -90 18s-52 29 -71 51s-33 49 -42 81s-10 68 -4 107c7 41 19 78 37 111s40 61 66 83s55 39 87 51s66 18 102 18c33 0 64 -6 92 -19s52 -31 71 -54s33 -51 41 -83s9 -68 3 -107s-18 -74 -36 -106
s-40 -59 -66 -81s-55 -39 -88 -51s-67 -18 -102 -18zM271 95l-3 -1c19 0 38 4 56 11s34 17 48 30s26 29 36 47s17 38 20 60s3 42 -1 61s-11 35 -21 49s-23 25 -38 33s-32 12 -51 12s-37 -4 -54 -12s-33 -19 -47 -33s-26 -30 -36 -49s-17 -39 -20 -61c-3 -21 -3 -41 1 -59
s11 -34 21 -47s23 -23 38 -30s32 -11 51 -11z" />
    <glyph glyph-name="Ucaron" unicode="&#x1d3;" horiz-adv-x="691" 
d="M280 870h104l46 -98l77 98h106l-107 -144h-165zM263 675l-62 -395c-10 -61 -3 -106 21 -135s63 -44 118 -45c22 0 43 4 63 12s39 19 56 34s31 34 42 56s19 49 24 80l62 392h115l-64 -401c-7 -47 -20 -88 -39 -124s-42 -66 -70 -90s-59 -42 -94 -54s-72 -18 -112 -18
c-43 0 -81 6 -114 18s-60 30 -81 54s-35 54 -43 90s-8 78 -1 125l64 401h115z" />
    <glyph glyph-name="ucaron" unicode="&#x1d4;" horiz-adv-x="578" 
d="M198 695h105l46 -98l77 98h106l-107 -144h-165zM403 79v-1c-28 -30 -58 -53 -90 -69s-64 -24 -95 -24c-25 0 -48 4 -69 13s-39 22 -53 40s-24 41 -30 69s-6 61 0 100l45 287h111l-43 -270c-13 -83 17 -124 89 -123c25 -1 48 6 70 20s43 32 64 54l50 320h111l-78 -495h-75
z" />
    <glyph glyph-name="Udieresismacron" unicode="&#x1d5;" horiz-adv-x="691" 
d="M323 991h293l-14 -90h-293zM321 711v-2c-19 0 -35 7 -47 21s-16 33 -13 56c3 21 13 39 30 53s35 21 54 21c18 0 33 -7 45 -21s16 -31 13 -52c-2 -11 -6 -21 -11 -30s-11 -17 -19 -24s-16 -12 -25 -16s-18 -6 -27 -6zM530 709v-2c-19 0 -35 7 -47 21s-16 33 -13 56
c3 21 13 39 30 53s35 21 54 21c18 0 33 -7 45 -21s16 -31 13 -52c-2 -11 -6 -21 -11 -30s-11 -17 -19 -24s-16 -12 -25 -16s-18 -6 -27 -6zM263 671l-62 -395c-10 -61 -3 -106 21 -135s63 -44 118 -45c22 0 43 4 63 12s39 19 56 34s31 34 42 56s19 49 24 80l62 392h115
l-64 -401c-7 -47 -20 -88 -39 -124s-42 -66 -70 -90s-59 -42 -94 -54s-72 -18 -112 -18c-43 0 -81 6 -114 18s-60 30 -81 54s-35 54 -43 90s-8 78 -1 125l64 401h115z" />
    <glyph glyph-name="udieresismacron" unicode="&#x1d6;" horiz-adv-x="578" 
d="M245 802h278l-14 -90h-278zM246 525v-1c-19 0 -35 7 -47 22s-16 33 -13 55c3 21 13 39 30 53s35 21 54 21c18 0 33 -7 45 -21s16 -32 13 -53c-2 -11 -6 -21 -11 -30s-11 -17 -19 -24s-16 -12 -25 -16s-18 -6 -27 -6zM447 524h1c-19 0 -34 7 -46 22s-16 33 -13 55
c3 21 13 39 29 53s34 21 54 21c18 0 33 -7 45 -21s16 -32 13 -53c-4 -22 -14 -40 -31 -55s-34 -22 -52 -22zM404 78v-1c-28 -30 -58 -53 -90 -69s-64 -24 -95 -24c-25 0 -48 4 -69 13s-39 22 -53 40s-24 41 -30 69s-6 61 0 100l45 287h111l-43 -270c-13 -83 17 -124 89 -123
c25 -1 48 6 70 20s43 32 64 54l50 320h111l-78 -495h-75z" />
    <glyph glyph-name="Udieresisacute" unicode="&#x1d7;" horiz-adv-x="691" 
d="M395 898l90 144h128l-113 -144h-105zM320 711l-1 -2c-19 0 -34 7 -46 21s-16 33 -13 56c3 21 13 39 30 53s35 21 54 21s34 -7 46 -21s16 -31 13 -52c-4 -23 -14 -41 -31 -55s-34 -21 -52 -21zM529 709l1 -2c-19 0 -35 7 -47 21s-16 33 -13 56c3 21 13 39 29 53
s34 21 54 21c18 0 33 -7 45 -21s16 -31 13 -52c-2 -11 -6 -21 -11 -30s-11 -17 -19 -24s-16 -12 -25 -16s-18 -6 -27 -6zM263 671l-62 -395c-10 -61 -3 -106 21 -135s63 -44 118 -45c22 0 43 4 63 12s39 19 56 34s31 34 42 56s19 49 24 80l62 392h115l-64 -401
c-7 -47 -20 -88 -39 -124s-42 -66 -70 -90s-59 -42 -94 -54s-72 -18 -112 -18c-43 0 -81 6 -114 18s-60 30 -81 54s-35 54 -43 90s-8 78 -1 125l64 401h115z" />
    <glyph glyph-name="udieresisacute" unicode="&#x1d8;" horiz-adv-x="578" 
d="M314 692l90 144h128l-113 -144h-105zM244 525l-2 -1c-19 0 -35 7 -47 22s-16 33 -13 55c3 21 13 39 30 53s35 21 54 21c18 0 33 -7 45 -21s16 -32 13 -53c-2 -11 -6 -21 -11 -30s-11 -17 -18 -24s-15 -12 -24 -16s-18 -6 -27 -6zM444 524v-1c-19 0 -35 7 -47 22
s-16 33 -13 55c3 21 13 39 30 53s35 21 54 21c18 0 33 -7 45 -21s16 -32 13 -53c-2 -11 -6 -21 -11 -30s-11 -17 -19 -24s-16 -12 -25 -16s-18 -6 -27 -6zM401 77v-1c-28 -30 -58 -53 -90 -69s-64 -24 -95 -24c-25 0 -48 4 -69 13s-39 22 -53 40s-24 41 -30 69s-6 61 0 100
l45 287h111l-43 -270c-13 -83 17 -124 89 -123c25 -1 48 6 70 20s43 32 64 54l50 320h111l-78 -495h-75z" />
    <glyph glyph-name="Udieresiscaron" unicode="&#x1d9;" horiz-adv-x="691" 
d="M317 1041h105l46 -98l77 98h106l-107 -144h-165zM329 711v-2c-19 0 -35 7 -47 21s-16 33 -13 56c3 21 13 39 30 53s35 21 54 21c18 0 33 -7 45 -21s16 -31 13 -52c-3 -23 -13 -41 -30 -55s-34 -21 -52 -21zM538 709l-2 -2c-19 0 -35 7 -47 21s-16 33 -12 56
c3 21 13 39 30 53s35 21 54 21s34 -7 46 -21s16 -31 13 -52c-3 -23 -13 -41 -30 -55s-34 -21 -52 -21zM261 671l-62 -395c-10 -61 -3 -106 21 -135s63 -44 118 -45c22 0 43 4 63 12s39 19 56 34s31 34 42 56s19 49 24 80l62 392h115l-64 -401c-7 -47 -20 -88 -39 -124
s-42 -66 -70 -90s-59 -42 -94 -54s-72 -18 -112 -18c-43 0 -81 6 -114 18s-60 30 -81 54s-35 54 -43 90s-8 78 -1 125l64 401h115z" />
    <glyph glyph-name="udieresiscaron" unicode="&#x1da;" horiz-adv-x="578" 
d="M234 852h104l46 -98l77 98h106l-107 -144h-165zM247 525v-1c-19 0 -35 7 -47 22s-16 33 -13 55c3 21 13 39 30 53s35 21 54 21c18 0 33 -7 45 -21s16 -32 13 -53c-2 -11 -6 -21 -11 -30s-11 -17 -19 -24s-16 -12 -25 -16s-18 -6 -27 -6zM448 524h1c-19 0 -34 7 -46 22
s-16 33 -13 55c3 21 13 39 29 53s34 21 54 21c18 0 33 -7 45 -21s16 -32 13 -53c-4 -22 -14 -40 -31 -55s-34 -22 -52 -22zM404 78v-1c-28 -30 -58 -53 -90 -69s-64 -24 -95 -24c-25 0 -48 4 -69 13s-39 22 -53 40s-24 41 -30 69s-6 61 0 100l45 287h111l-43 -270
c-13 -83 17 -124 89 -123c25 -1 48 6 70 20s43 32 64 54l50 320h111l-78 -495h-75z" />
    <glyph glyph-name="Udieresisgrave" unicode="&#x1db;" horiz-adv-x="691" 
d="M339 1041h128l44 -144h-105zM326 711v-2c-19 0 -35 7 -47 21s-16 33 -13 56c3 21 13 39 30 53s35 21 54 21c18 0 33 -7 45 -21s16 -31 13 -52c-2 -11 -6 -21 -11 -30s-11 -17 -19 -24s-16 -12 -25 -16s-18 -6 -27 -6zM535 709v-2c-19 0 -35 7 -47 21s-16 33 -13 56
c3 21 13 39 30 53s35 21 54 21c18 0 33 -7 45 -21s16 -31 13 -52c-2 -11 -6 -21 -11 -30s-11 -17 -19 -24s-16 -12 -25 -16s-18 -6 -27 -6zM263 671l-62 -395c-10 -61 -3 -106 21 -135s63 -44 118 -45c22 0 43 4 63 12s39 19 56 34s31 34 42 56s19 49 24 80l62 392h115
l-64 -401c-7 -47 -20 -88 -39 -124s-42 -66 -70 -90s-59 -42 -94 -54s-72 -18 -112 -18c-43 0 -81 6 -114 18s-60 30 -81 54s-35 54 -43 90s-8 78 -1 125l64 401h115z" />
    <glyph glyph-name="udieresisgrave" unicode="&#x1dc;" horiz-adv-x="578" 
d="M244 833h127l45 -144h-105zM239 525v-1c-19 0 -35 7 -47 22s-16 33 -13 55c3 21 13 39 30 53s35 21 54 21c18 0 33 -7 45 -21s16 -32 13 -53c-2 -11 -6 -21 -11 -30s-11 -17 -19 -24s-16 -12 -25 -16s-18 -6 -27 -6zM440 524h1c-19 0 -34 7 -46 22s-16 33 -13 55
c3 21 13 39 29 53s34 21 54 21c18 0 33 -7 45 -21s16 -32 13 -53c-4 -22 -14 -40 -31 -55s-34 -22 -52 -22zM404 78v-1c-28 -30 -58 -53 -90 -69s-64 -24 -95 -24c-25 0 -48 4 -69 13s-39 22 -53 40s-24 41 -30 69s-6 61 0 100l45 287h111l-43 -270c-13 -83 17 -124 89 -123
c25 -1 48 6 70 20s43 32 64 54l50 320h111l-78 -495h-75z" />
    <glyph glyph-name="Oogonek" unicode="&#x1ea;" horiz-adv-x="757" 
d="M321 -201h-6c-37 0 -64 8 -82 25s-25 40 -20 70c3 21 11 40 23 56s27 30 44 42c-37 8 -71 22 -101 43s-55 47 -75 77s-34 64 -42 102s-8 79 -1 122c8 48 24 93 47 136s52 80 87 112s75 57 119 75s91 27 140 27c47 0 89 -9 127 -27s70 -43 96 -75s44 -69 55 -112
s13 -88 6 -136c-7 -43 -20 -83 -40 -121s-44 -72 -73 -102s-62 -55 -98 -76s-74 -35 -114 -43c-39 -11 -66 -24 -82 -38s-25 -30 -28 -49c-2 -11 0 -20 7 -28s17 -12 30 -12c26 0 49 9 68 27l9 -62c-25 -22 -57 -33 -96 -33zM360 102h-1c30 0 59 6 88 18s55 29 78 51
s43 47 59 75s27 58 32 90s4 62 -3 91s-19 54 -35 75s-36 38 -61 51s-52 19 -82 19s-59 -6 -87 -19s-54 -30 -77 -51s-43 -46 -59 -75s-26 -59 -31 -91s-4 -62 3 -90s19 -53 35 -75s36 -39 60 -51s51 -18 81 -18z" />
    <glyph glyph-name="oogonek" unicode="&#x1eb;" horiz-adv-x="570" 
d="M219 -201l-5 -2c-36 0 -63 8 -81 25s-24 40 -19 70c3 22 11 42 24 59s28 32 46 45c-24 7 -46 18 -66 33s-36 33 -49 54s-22 45 -27 72s-5 57 0 89c7 41 19 78 37 111s40 61 66 83s55 39 87 51s66 18 102 18c33 0 64 -6 92 -19s52 -31 71 -54s33 -51 41 -83s9 -68 3 -107
c-5 -34 -15 -65 -29 -93s-31 -53 -52 -75s-45 -40 -71 -54s-54 -24 -83 -30c-37 -11 -63 -23 -78 -37s-24 -30 -27 -48c-1 -11 2 -20 9 -28s17 -12 30 -12c26 0 49 9 68 27l9 -62c-26 -22 -59 -33 -98 -33zM266 94l-3 -1c19 0 38 4 56 11s34 17 48 30s26 29 36 47
s17 38 20 60s3 42 -1 61s-11 35 -21 49s-23 25 -38 33s-32 12 -51 12s-37 -4 -54 -12s-33 -19 -47 -33s-26 -30 -36 -49s-17 -39 -20 -61c-3 -21 -3 -41 1 -59s11 -34 21 -47s23 -23 38 -30s32 -11 51 -11z" />
    <glyph glyph-name="DZ" unicode="&#x1f1;" horiz-adv-x="1316" 
d="M248 563l-72 -450h146c29 0 58 6 86 18s53 28 75 48s41 44 56 71s25 56 30 87s5 60 0 87s-14 51 -28 72s-32 37 -53 49s-45 18 -72 18h-168zM150 676l278 3c43 0 82 -9 117 -27s64 -42 87 -72s39 -66 49 -107s11 -85 4 -132s-22 -91 -44 -132s-49 -77 -81 -108
s-68 -55 -108 -73s-82 -27 -126 -27h-283zM718 4l13 83l427 480h-338l17 112h491l-13 -81l-433 -482h370l-18 -112h-516z" />
    <glyph glyph-name="Dz" unicode="&#x1f2;" horiz-adv-x="1178" 
d="M248 563l-72 -450h146c29 0 58 6 86 18s53 28 75 48s41 44 56 71s25 56 30 87s5 60 0 87s-14 51 -28 72s-32 37 -53 49s-45 18 -72 18h-168zM1106 1l1 1c-131 15 -267 15 -408 0l16 101l297 283c-80 -2 -158 1 -234 9l15 102c137 -13 265 -13 384 0l-16 -102l-296 -281
c45 1 89 1 132 -1s85 -5 126 -10zM151 677l278 3c43 0 82 -9 117 -27s64 -42 87 -72s39 -66 49 -107s11 -85 4 -132s-22 -91 -44 -132s-49 -77 -81 -108s-68 -55 -108 -73s-82 -27 -126 -27h-283z" />
    <glyph glyph-name="dz" unicode="&#x1f3;" horiz-adv-x="1078" 
d="M1007 0l1 1c-131 15 -267 15 -408 0l16 101l297 283c-80 -2 -158 1 -234 9l15 102c137 -13 265 -13 384 0l-16 -102l-296 -281c45 1 89 1 132 -1s85 -5 126 -10zM274 97l-5 2c19 0 38 4 56 12s34 19 49 32s27 29 37 48s17 39 20 61s3 42 -1 60s-11 34 -21 48
s-23 25 -39 33s-34 12 -54 12s-39 -4 -56 -12s-32 -19 -46 -33s-25 -30 -34 -49s-15 -39 -18 -60s-3 -41 0 -60s9 -35 18 -49s22 -25 38 -33s35 -12 56 -12zM419 64l1 -2c-27 -23 -56 -41 -87 -54s-62 -20 -93 -20c-32 0 -61 7 -88 20s-50 31 -68 54s-31 51 -39 83
s-9 67 -3 105c6 39 17 74 34 106s37 59 61 82s51 41 82 54s63 19 97 19c30 0 57 -5 81 -16s45 -25 62 -42l5 62l32 202h111l-113 -714h-65z" />
    <glyph glyph-name="Gacute" unicode="&#x1f4;" horiz-adv-x="721" 
d="M408 727l90 144h128l-113 -144h-105zM637 84l-6 -3c-16 -15 -35 -28 -56 -40s-44 -22 -68 -31s-49 -15 -75 -19s-52 -6 -78 -6c-47 0 -90 9 -129 27s-72 43 -98 74s-45 68 -56 111s-13 90 -5 141s24 98 47 141s52 80 87 111s75 55 119 72s91 26 140 26
c57 0 108 -9 153 -28s80 -46 105 -82l-89 -77c-15 23 -39 41 -71 54s-69 19 -111 19c-33 0 -64 -6 -93 -19s-55 -30 -78 -52s-42 -47 -58 -75s-26 -57 -31 -88c-5 -33 -4 -64 3 -93s19 -54 35 -76s37 -39 63 -51s56 -18 90 -18c28 0 55 3 82 10s51 17 72 30l18 111h-132
l18 112h247z" />
    <glyph glyph-name="gacute" unicode="&#x1f5;" 
d="M288 551l90 144h128l-113 -144h-105zM323 399h-2c-19 0 -38 -4 -56 -12s-34 -19 -48 -33s-26 -30 -36 -49s-17 -39 -20 -60s-3 -41 1 -59s11 -34 21 -47s23 -24 39 -32s34 -12 53 -12s37 4 55 12s34 19 48 32s26 29 36 47s17 38 20 60s3 42 -1 60s-11 34 -21 48
s-23 25 -38 33s-32 12 -51 12zM221 -225l1 -4c-44 0 -82 4 -115 12s-66 20 -100 35l44 89c28 -11 56 -19 83 -25s57 -9 90 -9c47 0 85 13 113 39s45 59 51 100l4 22c-22 -15 -46 -27 -71 -36s-52 -13 -80 -13c-31 0 -60 6 -87 19s-49 31 -67 54s-31 51 -38 83s-8 67 -2 105
s18 73 35 105s38 60 63 83s53 41 84 54s64 20 99 20c31 0 60 -6 86 -19s49 -31 68 -54l29 60h65l-76 -480c-6 -36 -16 -69 -31 -99s-34 -55 -58 -76s-52 -37 -84 -48s-67 -17 -106 -17z" />
    <glyph glyph-name="Aringacute" unicode="&#x1fa;" horiz-adv-x="678" 
d="M373 882l90 144h128l-112 -144h-106zM423 689v-1c12 0 23 5 32 14s14 21 14 36c0 17 -5 30 -14 38s-20 12 -32 12c-13 0 -24 -4 -33 -13s-14 -21 -14 -36c0 -17 5 -30 14 -38s20 -12 33 -12zM399 547l-151 -286h212zM484 149l-296 -3l-79 -150h-125l358 650
c-13 11 -22 24 -28 40s-9 33 -9 52c0 33 11 61 32 83s49 33 84 33c34 0 62 -11 83 -33s32 -49 32 -82c0 -21 -4 -40 -13 -57s-21 -31 -36 -41l149 -642h-120z" />
    <glyph glyph-name="aringacute" unicode="&#x1fb;" horiz-adv-x="593" 
d="M315 818l90 144h128l-113 -144h-105zM252 668h-2c0 33 11 60 33 82s50 33 85 33c34 0 62 -11 83 -33s32 -49 32 -82c0 -34 -10 -62 -31 -84s-48 -33 -82 -33c-39 0 -68 11 -88 33s-30 50 -30 84zM367 615v-2c12 0 23 5 32 14s14 22 14 38s-5 29 -14 38s-20 14 -32 14
c-13 0 -24 -5 -33 -14s-14 -21 -14 -36c0 -17 5 -30 14 -39s20 -13 33 -13zM275 93l-4 -4c19 0 37 4 55 12s34 19 48 33s26 30 36 49s17 39 20 60c3 22 3 42 -1 61s-11 35 -21 49s-22 25 -37 33s-32 12 -51 12s-38 -4 -56 -12s-34 -19 -48 -33s-26 -30 -36 -49
s-16 -39 -19 -60s-3 -40 1 -58s11 -34 21 -48s23 -25 39 -33s34 -12 53 -12zM419 64l2 -2c-26 -23 -54 -43 -85 -59s-63 -24 -96 -24c-31 0 -60 6 -87 19s-49 31 -67 54s-31 51 -39 83s-9 67 -3 105s18 73 36 105s40 60 65 83s53 41 84 54s63 20 95 20s61 -7 88 -21
s50 -32 69 -55l26 63h65l-78 -495h-65z" />
    <glyph glyph-name="AEacute" unicode="&#x1fc;" horiz-adv-x="961" 
d="M603 727l90 144h128l-113 -144h-105zM512 563h-64l-177 -289h196zM449 162h-247l-99 -162h-119l418 675h575l-18 -112h-332l-26 -164h313l-17 -113h-313l-28 -174h334l-17 -112h-450z" />
    <glyph glyph-name="aeacute" unicode="&#x1fd;" horiz-adv-x="877" 
d="M400 551l90 144h128l-113 -144h-105zM643 412l-1 -1c-33 0 -62 -11 -86 -33s-42 -50 -53 -85l235 9c-3 36 -12 63 -28 82s-38 28 -67 28zM215 84l-3 -2c27 0 54 6 80 18s53 29 82 50c-5 23 -6 49 -3 77l-118 -15c-13 -1 -25 -3 -37 -6s-22 -7 -31 -12s-16 -12 -22 -20
s-10 -18 -12 -31c-3 -17 1 -31 11 -42s28 -17 53 -17zM798 73h-7c-29 -29 -61 -51 -97 -66s-74 -23 -113 -23c-38 0 -73 8 -105 24s-58 39 -77 68c-20 -15 -39 -28 -57 -39s-36 -20 -54 -28s-36 -14 -54 -18s-37 -6 -58 -6c-28 0 -52 4 -72 13s-36 21 -48 36s-20 33 -24 54
s-4 43 0 66c4 24 12 45 23 62s25 32 42 44s37 21 60 28s48 11 75 13l150 12l2 11c4 27 -3 47 -22 60s-47 20 -85 20c-29 0 -56 -2 -81 -6s-51 -11 -78 -20l-8 93c31 11 61 20 91 26s65 9 104 9c85 0 142 -22 172 -65c24 21 50 37 78 48s57 17 87 17c34 0 65 -6 93 -19
s52 -32 71 -57s32 -56 39 -93s7 -80 -1 -128h-358c3 -37 16 -65 39 -85s53 -30 89 -30c24 0 46 4 66 12s39 21 56 38z" />
    <glyph glyph-name="Oslashacute" unicode="&#x1fe;" horiz-adv-x="757" 
d="M406 727l90 144h128l-113 -144h-105zM186 337l-2 -1c-5 -34 -4 -65 4 -94s21 -54 38 -75l316 375c-30 21 -64 31 -102 31c-30 0 -59 -6 -87 -19s-54 -30 -77 -51s-43 -46 -59 -75s-26 -59 -31 -91zM364 101l-4 2c30 0 59 6 88 18s55 29 78 51s43 47 59 75s27 58 32 90
c5 33 4 64 -3 93s-19 54 -36 75l-316 -375c15 -9 31 -16 48 -21s35 -8 54 -8zM342 -12l-3 2c-31 0 -60 4 -87 12s-52 20 -75 35l-96 -115h-69l125 149c-32 32 -55 71 -69 117s-17 96 -8 150c8 48 24 93 47 136s52 80 87 112s75 57 119 75s91 27 140 27c32 0 62 -4 89 -13
s52 -21 75 -36l99 118h69l-128 -152c32 -33 55 -72 69 -118s17 -96 8 -150c-8 -49 -24 -94 -48 -136s-54 -79 -89 -111s-75 -57 -119 -75s-89 -27 -136 -27z" />
    <glyph glyph-name="oslashacute" unicode="&#x1ff;" horiz-adv-x="570" 
d="M287 551l90 144h128l-113 -144h-105zM161 245l-1 1c-3 -22 -2 -42 2 -61s11 -35 21 -48l210 236c-20 18 -45 27 -75 27c-19 0 -37 -4 -54 -12s-33 -19 -47 -33s-26 -30 -36 -49s-17 -39 -20 -61zM270 97l-2 2c19 0 38 4 56 11s34 17 48 30s26 29 36 47s17 38 20 60
c3 21 3 41 0 59s-9 34 -18 47l-209 -234c20 -15 43 -22 69 -22zM251 -10l-2 -3c-49 0 -92 14 -129 42l-98 -109h-34l112 126c-23 23 -40 51 -51 85s-13 72 -6 115c7 41 19 78 37 111s40 61 66 83s55 39 87 51s66 18 102 18c26 0 51 -4 74 -12s44 -19 63 -34l102 115h35
l-118 -133c21 -23 37 -51 47 -85s12 -72 5 -114c-6 -39 -18 -74 -36 -106s-40 -59 -66 -81s-55 -39 -88 -51s-67 -18 -102 -18z" />
    <glyph glyph-name="Adblgrave" unicode="&#x200;" horiz-adv-x="678" 
d="M252 871h116l28 -144h-94zM406 871h117l27 -144h-94zM399 548l-151 -286h212zM484 150h-295l-79 -150h-125l371 675h123l157 -675h-120z" />
    <glyph glyph-name="adblgrave" unicode="&#x201;" horiz-adv-x="593" 
d="M172 695h117l27 -144h-94zM327 695h116l27 -144h-93zM277 95l-4 -4c19 0 37 4 55 12s34 19 48 33s26 30 36 49s17 39 20 60c3 22 3 42 -1 61s-11 35 -21 49s-22 25 -37 33s-32 12 -51 12s-38 -4 -56 -12s-34 -19 -48 -33s-26 -30 -36 -49s-16 -39 -19 -60s-3 -40 1 -58
s11 -34 21 -48s23 -25 39 -33s34 -12 53 -12zM421 66l2 -2c-26 -23 -54 -43 -85 -59s-63 -24 -96 -24c-31 0 -60 6 -87 19s-49 31 -67 54s-31 51 -39 83s-9 67 -3 105s18 73 36 105s40 60 65 83s53 41 84 54s63 20 95 20s61 -7 88 -21s50 -32 69 -55l26 63h65l-78 -495h-65z
" />
    <glyph glyph-name="Ainvertedbreve" unicode="&#x202;" horiz-adv-x="678" 
d="M278 724v1c11 49 31 87 60 114s65 41 109 41c43 0 75 -13 95 -40s28 -65 25 -114h-64c0 19 -6 36 -18 50s-29 21 -52 21c-11 0 -21 -2 -31 -6s-19 -9 -27 -16s-15 -15 -21 -24s-10 -18 -13 -27h-63zM399 549l-151 -286h212zM484 151h-295l-79 -150h-125l371 675h123
l157 -675h-120z" />
    <glyph glyph-name="ainvertedbreve" unicode="&#x203;" horiz-adv-x="593" 
d="M190 549v2c11 49 31 87 60 114s65 40 108 40s75 -13 95 -40s28 -65 25 -114h-64c0 19 -6 36 -18 50s-29 21 -51 21c-11 0 -21 -2 -31 -6s-19 -9 -27 -16s-15 -15 -21 -24s-10 -18 -13 -27h-63zM277 97l-4 -4c19 0 37 4 55 12s34 19 48 33s26 30 36 49s17 39 20 60
c3 22 3 42 -1 61s-11 35 -21 49s-22 25 -37 33s-32 12 -51 12s-38 -4 -56 -12s-34 -19 -48 -33s-26 -30 -36 -49s-16 -39 -19 -60s-3 -40 1 -58s11 -34 21 -48s23 -25 39 -33s34 -12 53 -12zM421 68l2 -2c-26 -23 -54 -43 -85 -59s-63 -24 -96 -24c-31 0 -60 6 -87 19
s-49 31 -67 54s-31 51 -39 83s-9 67 -3 105s18 73 36 105s40 60 65 83s53 41 84 54s63 20 95 20s61 -7 88 -21s50 -32 69 -55l26 63h65l-78 -495h-65z" />
    <glyph glyph-name="Edblgrave" unicode="&#x204;" horiz-adv-x="580" 
d="M220 871h116l27 -144h-93zM374 871h116l28 -144h-94zM151 675h446l-18 -112h-331l-26 -165h312l-18 -112h-312l-28 -174h334l-17 -112h-449z" />
    <glyph glyph-name="edblgrave" unicode="&#x205;" horiz-adv-x="548" 
d="M167 695h117l27 -144h-94zM322 695h116l28 -144h-94zM313 412v-1c-33 0 -62 -11 -86 -33s-42 -50 -54 -85l237 9c-3 36 -12 63 -28 82s-39 28 -69 28zM472 75l-2 -1c-28 -29 -60 -51 -97 -66s-75 -23 -114 -23c-33 0 -64 6 -93 18s-53 29 -73 51s-35 49 -44 81
s-11 68 -5 107c7 41 20 78 39 111s41 61 67 83s55 39 86 51s63 18 95 18s61 -6 88 -19s49 -32 67 -57s30 -56 36 -93s5 -80 -3 -128h-359c2 -37 15 -65 38 -85s53 -30 90 -30c24 0 46 4 66 13s39 22 56 39z" />
    <glyph glyph-name="Einvertedbreve" unicode="&#x206;" horiz-adv-x="580" 
d="M241 724l1 1c11 49 31 87 59 114s64 41 108 41c43 0 75 -13 95 -40s28 -65 25 -114h-64c0 19 -6 36 -18 50s-29 21 -51 21c-11 0 -21 -2 -31 -6s-19 -9 -27 -16s-15 -15 -21 -24s-10 -18 -13 -27h-63zM152 676h446l-18 -112h-331l-26 -165h312l-18 -112h-312l-28 -174
h334l-17 -112h-449z" />
    <glyph glyph-name="einvertedbreve" unicode="&#x207;" horiz-adv-x="548" 
d="M192 549v2c11 49 31 87 60 114s65 40 108 40s75 -13 95 -40s28 -65 25 -114h-64c0 19 -6 36 -18 50s-29 21 -51 21c-11 0 -21 -2 -31 -6s-19 -9 -27 -16s-15 -15 -21 -24s-10 -18 -13 -27h-63zM313 414v-1c-33 0 -62 -11 -86 -33s-42 -50 -54 -85l237 9
c-3 36 -12 63 -28 82s-39 28 -69 28zM472 77l-2 -1c-28 -29 -60 -51 -97 -66s-75 -23 -114 -23c-33 0 -64 6 -93 18s-53 29 -73 51s-35 49 -44 81s-11 68 -5 107c7 41 20 78 39 111s41 61 67 83s55 39 86 51s63 18 95 18s61 -6 88 -19s49 -32 67 -57s30 -56 36 -93
s5 -80 -3 -128h-359c2 -37 15 -65 38 -85s53 -30 90 -30c24 0 46 4 66 13s39 22 56 39z" />
    <glyph glyph-name="Idblgrave" unicode="&#x208;" horiz-adv-x="258" 
d="M44 871h116l28 -144h-94zM198 871h117l27 -144h-94zM151 675h114l-106 -675h-115z" />
    <glyph glyph-name="idblgrave" unicode="&#x209;" horiz-adv-x="245" 
d="M15 695h116l28 -144h-94zM170 695h116l27 -144h-93zM117 495h111l-78 -495h-112z" />
    <glyph glyph-name="Iinvertedbreve" unicode="&#x20a;" horiz-adv-x="258" 
d="M72 724l1 1c11 49 31 87 59 114s64 41 108 41c43 0 75 -13 95 -40s28 -65 25 -114h-64c0 19 -6 36 -18 50s-29 21 -51 21c-11 0 -21 -2 -31 -6s-19 -9 -27 -16s-15 -15 -21 -24s-10 -18 -13 -27h-63zM152 676h114l-106 -675h-115z" />
    <glyph glyph-name="iinvertedbreve" unicode="&#x20b;" horiz-adv-x="245" 
d="M38 549l-1 2c11 49 31 87 60 114s65 40 109 40c43 0 74 -13 94 -40s28 -65 25 -114h-65c1 19 -5 36 -17 50s-29 21 -51 21c-11 0 -21 -2 -31 -6s-19 -9 -27 -16s-15 -15 -21 -24s-10 -18 -13 -27h-62zM116 497h111l-78 -495h-112z" />
    <glyph glyph-name="Odblgrave" unicode="&#x20c;" horiz-adv-x="757" 
d="M295 871h117l27 -144h-94zM450 871h116l28 -144h-94zM348 -13l-1 -1c-47 0 -89 9 -127 27s-70 43 -96 75s-44 69 -55 111s-13 88 -6 137c8 48 24 93 47 136s52 80 87 112s75 57 119 75s91 27 140 27c47 0 89 -9 127 -27s70 -43 96 -75s44 -69 55 -112s13 -88 6 -136
c-8 -49 -24 -94 -48 -136s-54 -79 -89 -111s-75 -57 -119 -75s-89 -27 -136 -27zM365 101h-1c30 0 59 6 88 18s55 29 78 51s43 47 59 75s27 58 32 90s4 62 -3 91s-19 54 -35 75s-36 38 -61 51s-52 19 -82 19s-59 -6 -87 -19s-54 -30 -77 -51s-43 -46 -59 -75
s-26 -59 -31 -91s-4 -62 3 -90s19 -53 35 -75s36 -39 60 -51s51 -18 81 -18z" />
    <glyph glyph-name="odblgrave" unicode="&#x20d;" horiz-adv-x="570" 
d="M171 695h116l28 -144h-94zM325 695h116l28 -144h-94zM254 -13v-1c-32 0 -62 6 -90 18s-52 29 -71 51s-33 49 -42 81s-10 68 -4 107c7 41 19 78 37 111s40 61 66 83s55 39 87 51s66 18 102 18c33 0 64 -6 92 -19s52 -31 71 -54s33 -51 41 -83s9 -68 3 -107
s-18 -74 -36 -106s-40 -59 -66 -81s-55 -39 -88 -51s-67 -18 -102 -18zM271 95l-3 -1c19 0 38 4 56 11s34 17 48 30s26 29 36 47s17 38 20 60s3 42 -1 61s-11 35 -21 49s-23 25 -38 33s-32 12 -51 12s-37 -4 -54 -12s-33 -19 -47 -33s-26 -30 -36 -49s-17 -39 -20 -61
c-3 -21 -3 -41 1 -59s11 -34 21 -47s23 -23 38 -30s32 -11 51 -11z" />
    <glyph glyph-name="Oinvertedbreve" unicode="&#x20e;" horiz-adv-x="757" 
d="M322 724l-1 1c11 49 31 87 60 114s65 41 109 41c43 0 74 -13 94 -40s29 -65 26 -114h-65c0 19 -6 36 -18 50s-29 21 -51 21c-11 0 -21 -2 -31 -6s-19 -9 -27 -16s-15 -15 -21 -24s-10 -18 -13 -27h-62zM347 -12l-1 -1c-47 0 -89 9 -127 27s-70 43 -96 75s-44 69 -55 111
s-13 88 -6 137c8 48 24 93 47 136s52 80 87 112s75 57 119 75s91 27 140 27c47 0 89 -9 127 -27s70 -43 96 -75s44 -69 55 -112s13 -88 6 -136c-8 -49 -24 -94 -48 -136s-54 -79 -89 -111s-75 -57 -119 -75s-89 -27 -136 -27zM364 102h-1c30 0 59 6 88 18s55 29 78 51
s43 47 59 75s27 58 32 90s4 62 -3 91s-19 54 -35 75s-36 38 -61 51s-52 19 -82 19s-59 -6 -87 -19s-54 -30 -77 -51s-43 -46 -59 -75s-26 -59 -31 -91s-4 -62 3 -90s19 -53 35 -75s36 -39 60 -51s51 -18 81 -18z" />
    <glyph glyph-name="oinvertedbreve" unicode="&#x20f;" horiz-adv-x="570" 
d="M192 549v2c11 49 31 87 60 114s65 40 109 40c43 0 74 -13 94 -40s28 -65 25 -114h-65c1 19 -5 36 -17 50s-29 21 -51 21c-11 0 -21 -2 -31 -6s-19 -9 -27 -16s-15 -15 -21 -24s-10 -18 -13 -27h-63zM254 -11v-1c-32 0 -62 6 -90 18s-52 29 -71 51s-33 49 -42 81
s-10 68 -4 107c7 41 19 78 37 111s40 61 66 83s55 39 87 51s66 18 102 18c33 0 64 -6 92 -19s52 -31 71 -54s33 -51 41 -83s9 -68 3 -107s-18 -74 -36 -106s-40 -59 -66 -81s-55 -39 -88 -51s-67 -18 -102 -18zM271 97l-3 -1c19 0 38 4 56 11s34 17 48 30s26 29 36 47
s17 38 20 60s3 42 -1 61s-11 35 -21 49s-23 25 -38 33s-32 12 -51 12s-37 -4 -54 -12s-33 -19 -47 -33s-26 -30 -36 -49s-17 -39 -20 -61c-3 -21 -3 -41 1 -59s11 -34 21 -47s23 -23 38 -30s32 -11 51 -11z" />
    <glyph glyph-name="Rdblgrave" unicode="&#x210;" horiz-adv-x="656" 
d="M217 871h117l27 -144h-93zM372 871h116l28 -144h-94zM248 563l-36 -230h195c16 0 30 4 43 11s24 16 33 27s17 24 23 38s10 28 12 42s2 28 1 41s-4 25 -9 36s-12 20 -22 26s-22 9 -37 9h-203zM390 220l-196 1l-35 -222h-115l107 675h334c30 0 56 -6 77 -18s38 -28 51 -49
s22 -44 26 -70s4 -52 0 -79c-7 -43 -22 -84 -45 -123s-52 -69 -88 -90l76 -247h-124z" />
    <glyph glyph-name="rdblgrave" unicode="&#x211;" horiz-adv-x="385" 
d="M101 695h116l28 -144h-94zM255 695h117l27 -144h-94zM37 0l78 495h81l11 -99c29 34 60 61 93 81s67 30 101 30l-18 -114c-38 0 -73 -9 -105 -27s-60 -41 -83 -68l-47 -298h-111z" />
    <glyph glyph-name="Rinvertedbreve" unicode="&#x212;" horiz-adv-x="656" 
d="M246 724l-1 1c11 49 31 87 60 114s65 41 109 41c43 0 74 -13 94 -40s29 -65 26 -114h-65c0 19 -6 36 -18 50s-29 21 -51 21c-11 0 -21 -2 -31 -6s-19 -9 -27 -16s-15 -15 -21 -24s-10 -18 -13 -27h-62zM247 564l-36 -230h195c16 0 30 4 43 11s24 16 33 27s17 24 23 38
s10 28 12 42s2 28 1 41s-4 25 -9 36s-12 20 -22 26s-22 9 -37 9h-203zM389 221l-196 1l-35 -222h-115l107 675h334c30 0 56 -6 77 -18s38 -28 51 -49s22 -44 26 -70s4 -52 0 -79c-7 -43 -22 -84 -45 -123s-52 -69 -88 -90l76 -247h-124z" />
    <glyph glyph-name="rinvertedbreve" unicode="&#x213;" horiz-adv-x="385" 
d="M128 549v2c11 49 31 87 60 114s65 40 109 40c43 0 75 -13 95 -40s28 -65 25 -114h-65c1 19 -5 36 -17 50s-29 21 -52 21c-11 0 -21 -2 -31 -6s-19 -9 -27 -16s-15 -15 -21 -24s-10 -18 -13 -27h-63zM37 2l78 495h81l11 -99c29 34 60 61 93 81s67 30 101 30l-18 -114
c-38 0 -73 -9 -105 -27s-60 -41 -83 -68l-47 -298h-111z" />
    <glyph glyph-name="Udblgrave" unicode="&#x214;" horiz-adv-x="691" 
d="M269 871h116l27 -144h-93zM423 871h116l28 -144h-94zM263 675l-62 -395c-10 -61 -3 -106 21 -135s63 -44 118 -45c22 0 43 4 63 12s39 19 56 34s31 34 42 56s19 49 24 80l62 392h115l-64 -401c-7 -47 -20 -88 -39 -124s-42 -66 -70 -90s-59 -42 -94 -54s-72 -18 -112 -18
c-43 0 -81 6 -114 18s-60 30 -81 54s-35 54 -43 90s-8 78 -1 125l64 401h115z" />
    <glyph glyph-name="udblgrave" unicode="&#x215;" horiz-adv-x="578" 
d="M189 695h116l28 -144h-94zM343 695h116l28 -144h-94zM403 79v-1c-28 -30 -58 -53 -90 -69s-64 -24 -95 -24c-25 0 -48 4 -69 13s-39 22 -53 40s-24 41 -30 69s-6 61 0 100l45 287h111l-43 -270c-13 -83 17 -124 89 -123c25 -1 48 6 70 20s43 32 64 54l50 320h111
l-78 -495h-75z" />
    <glyph glyph-name="Uinvertedbreve" unicode="&#x216;" horiz-adv-x="691" 
d="M289 724v1c11 49 31 87 60 114s65 41 109 41c43 0 75 -13 95 -40s28 -65 25 -114h-65c1 19 -5 36 -17 50s-29 21 -52 21c-11 0 -21 -2 -31 -6s-19 -9 -27 -16s-15 -15 -21 -24s-10 -18 -13 -27h-63zM263 676l-62 -395c-10 -61 -3 -106 21 -135s63 -44 118 -45
c22 0 43 4 63 12s39 19 56 34s31 34 42 56s19 49 24 80l62 392h115l-64 -401c-7 -47 -20 -88 -39 -124s-42 -66 -70 -90s-59 -42 -94 -54s-72 -18 -112 -18c-43 0 -81 6 -114 18s-60 30 -81 54s-35 54 -43 90s-8 78 -1 125l64 401h115z" />
    <glyph glyph-name="uinvertedbreve" unicode="&#x217;" horiz-adv-x="578" 
d="M205 549l-1 2c11 49 31 87 60 114s65 40 109 40c43 0 74 -13 94 -40s28 -65 25 -114h-64c0 19 -6 36 -18 50s-29 21 -51 21c-11 0 -21 -2 -31 -6s-19 -9 -27 -16s-15 -15 -21 -24s-10 -18 -13 -27h-62zM402 81v-1c-28 -30 -58 -53 -90 -69s-64 -24 -95 -24
c-25 0 -48 4 -69 13s-39 22 -53 40s-24 41 -30 69s-6 61 0 100l45 287h111l-43 -270c-13 -83 17 -124 89 -123c25 -1 48 6 70 20s43 32 64 54l50 320h111l-78 -495h-75z" />
    <glyph glyph-name="Scommaaccent" unicode="&#x218;" horiz-adv-x="613" 
d="M95 184h-3c69 -55 145 -82 227 -82c31 0 58 8 81 24s37 37 41 63c3 24 -4 42 -21 55s-45 25 -85 36c-50 14 -90 29 -120 45s-53 33 -68 51s-24 37 -27 57s-3 42 0 65c4 25 13 49 26 72s30 43 51 60s46 31 75 41s61 15 96 15c47 0 92 -6 135 -18s82 -34 116 -66l-61 -98
c-29 23 -61 40 -95 51s-70 16 -108 16c-29 0 -54 -7 -75 -21s-33 -32 -36 -54c-2 -13 -2 -24 1 -33s9 -17 18 -24s21 -14 37 -21s36 -14 60 -21c43 -14 79 -28 107 -42s50 -29 65 -45s25 -34 30 -54s5 -42 1 -67c-5 -29 -15 -56 -30 -81s-34 -46 -57 -64s-50 -32 -80 -42
s-62 -15 -97 -15c-56 0 -105 8 -148 24s-83 41 -121 75zM188 -305l-2 -1c13 16 25 31 35 45s18 30 25 47c-19 1 -34 9 -45 23s-15 32 -12 53s13 39 29 54s34 22 54 22s35 -8 46 -25s15 -37 12 -60c-5 -31 -17 -62 -37 -93s-49 -61 -88 -90z" />
    <glyph glyph-name="scommaaccent" unicode="&#x219;" horiz-adv-x="506" 
d="M71 150l-1 -1c35 -21 68 -36 100 -45s64 -13 95 -13c21 0 39 5 53 14s22 19 24 30c1 15 -4 26 -15 33s-28 13 -52 18c-41 9 -74 20 -99 32s-44 25 -57 39s-21 29 -24 45s-4 33 -2 50c3 22 10 43 21 62s26 36 45 50s41 25 66 33s53 12 84 12c17 0 35 -1 53 -3s36 -5 53 -9
s33 -9 48 -16s28 -15 39 -24l-52 -91c-19 11 -42 20 -69 27s-55 10 -83 10c-23 0 -43 -4 -60 -11s-26 -18 -28 -33c-2 -12 2 -22 11 -30s27 -15 54 -21c37 -9 68 -19 93 -29s45 -22 60 -35s25 -28 30 -45s6 -36 3 -58s-10 -42 -22 -61s-28 -35 -48 -49s-43 -25 -69 -33
s-54 -12 -85 -12c-45 0 -86 6 -122 18s-69 29 -99 52zM124 -306l-2 -1c13 16 25 31 35 45s18 30 25 47c-19 1 -34 9 -45 23s-15 32 -12 53s13 39 29 54s34 22 54 22s35 -8 46 -25s15 -37 12 -60c-5 -31 -17 -62 -37 -93s-49 -61 -88 -90z" />
    <glyph glyph-name="uni021A" unicode="&#x21a;" horiz-adv-x="592" 
d="M415 563l-89 -563h-115l89 563h-215l18 112h544l-18 -112h-214zM171 -305l-3 -1c14 16 26 31 36 45s18 30 25 47c-19 1 -34 9 -45 23s-15 32 -12 53s13 39 29 54s34 22 55 22c19 0 34 -8 45 -25s15 -37 12 -60c-5 -31 -17 -62 -36 -93s-49 -61 -89 -90z" />
    <glyph glyph-name="uni021B" unicode="&#x21b;" horiz-adv-x="328" 
d="M267 -13l-1 -1c-73 0 -125 18 -156 54s-42 83 -33 142l33 210h-51l16 103h51l19 121l118 40l-26 -161h101l-13 -88l-15 -15h-89l-32 -203c-5 -28 0 -51 16 -68s42 -26 79 -26zM46 -306l-2 -1c14 16 26 31 36 45s18 30 24 47c-19 1 -34 9 -45 23s-15 32 -12 53
s13 39 29 54s34 22 55 22c19 0 34 -8 45 -25s15 -37 12 -60c-5 -31 -17 -62 -36 -93s-49 -61 -89 -90z" />
    <glyph glyph-name="schwa" unicode="&#x259;" horiz-adv-x="548" 
d="M239 -13l-2 -4c-32 0 -61 6 -88 19s-49 32 -66 57s-29 56 -36 93s-6 80 3 129h358c-3 34 -16 62 -38 84s-50 33 -84 33c-49 0 -91 -17 -127 -51l-62 70c29 29 62 51 99 66s75 23 114 23c33 0 64 -6 93 -18s53 -29 73 -51s34 -49 43 -81s11 -67 5 -106s-18 -75 -37 -107
s-41 -60 -67 -83s-55 -41 -86 -54s-63 -19 -95 -19zM256 79h1c33 0 62 11 86 33s42 51 53 86l-238 -9c3 -36 13 -63 30 -82s40 -28 68 -28z" />
    <glyph glyph-name="circumflex" unicode="&#x2c6;" horiz-adv-x="360" 
d="M257 649l-77 -98h-105l107 144h165l61 -144h-105z" />
    <glyph glyph-name="caron" unicode="&#x2c7;" horiz-adv-x="360" 
d="M98 695h104l46 -98l77 98h106l-107 -144h-165z" />
    <glyph glyph-name="breve" unicode="&#x2d8;" horiz-adv-x="350" 
d="M180 703l-2 -1c-1 -17 5 -33 17 -48s29 -22 52 -22c22 0 41 7 58 21s28 31 33 50h65c-13 -49 -33 -87 -61 -114s-63 -40 -106 -40c-44 0 -76 13 -96 40s-27 65 -22 114h62z" />
    <glyph glyph-name="dotaccent" unicode="&#x2d9;" horiz-adv-x="205" 
d="M169 571v-1c-19 0 -35 7 -47 22s-16 33 -13 55c3 21 13 39 30 53s35 21 54 21c18 0 33 -7 45 -21s16 -32 13 -53c-2 -11 -6 -21 -11 -30s-11 -17 -19 -24s-16 -12 -25 -16s-18 -6 -27 -6z" />
    <glyph glyph-name="ring" unicode="&#x2da;" horiz-adv-x="294" 
d="M116 667h-1c0 33 11 61 32 83s49 33 84 33c34 0 62 -11 83 -33s32 -50 32 -83c0 -34 -10 -62 -31 -84s-48 -33 -82 -33c-38 0 -67 11 -87 33s-30 50 -30 84zM231 615v-2c12 0 23 5 33 14s15 21 15 36c0 17 -5 30 -15 39s-21 13 -33 13c-13 0 -24 -5 -33 -14
s-14 -21 -14 -36c0 -17 5 -30 14 -38s20 -12 33 -12z" />
    <glyph glyph-name="ogonek" unicode="&#x2db;" horiz-adv-x="266" 
d="M186 -168l-3 -1c-26 -22 -59 -33 -98 -33c-37 0 -64 8 -82 25s-25 40 -20 70c3 22 11 41 23 58s27 32 45 44s38 22 60 30s44 14 66 19l12 -49c-42 -11 -71 -24 -88 -38s-27 -31 -30 -50c-1 -11 2 -20 8 -28s16 -12 29 -12c26 0 49 9 69 27z" />
    <glyph glyph-name="tilde" unicode="&#x2dc;" horiz-adv-x="346" 
d="M87 582h2c7 40 21 70 42 89s43 29 66 29c14 0 27 -2 38 -6s22 -8 32 -13s20 -9 30 -13s21 -6 32 -6c7 0 14 2 21 6s12 12 15 23h44c-6 -40 -18 -71 -36 -92s-40 -32 -67 -32c-15 0 -28 2 -40 6s-23 8 -34 13s-22 9 -33 13s-22 6 -33 6c-7 0 -14 -2 -20 -6
s-10 -10 -13 -17h-46z" />
    <glyph glyph-name="hungarumlaut" unicode="&#x2dd;" horiz-adv-x="384" 
d="M437 695l-95 -144h-94l73 144h116zM283 695l-96 -144h-93l73 144h116z" />
    <glyph glyph-name="uni0401" unicode="&#x401;" horiz-adv-x="580" 
d="M274 737v-2c-19 0 -35 7 -47 21s-16 33 -13 56c3 21 13 39 30 53s35 21 54 21c18 0 33 -7 45 -21s16 -31 13 -52c-2 -11 -6 -21 -11 -30s-11 -17 -19 -24s-16 -12 -25 -16s-18 -6 -27 -6zM483 735v-2c-19 0 -35 7 -47 21s-16 33 -13 56c3 21 13 39 30 53s35 21 54 21
c18 0 33 -7 45 -21s16 -31 13 -52c-2 -11 -6 -21 -11 -30s-11 -17 -19 -24s-16 -12 -25 -16s-18 -6 -27 -6zM151 671h446l-18 -112h-331l-26 -165h312l-18 -112h-312l-28 -174h334l-17 -112h-449z" />
    <glyph glyph-name="uni0402" unicode="&#x402;" horiz-adv-x="771" 
d="M745 232l-1 1c-6 -37 -17 -70 -33 -100s-36 -56 -60 -77s-52 -37 -84 -49s-67 -18 -105 -18l17 109c39 0 72 11 99 33s43 53 49 92c7 42 1 74 -18 95s-54 32 -104 32c-29 0 -56 -3 -82 -9s-54 -16 -85 -31l-49 -309h-114l89 563h-169l18 112h451l-18 -112h-167l-23 -144
c34 15 66 26 95 32s61 9 95 9c36 0 68 -4 95 -13s50 -23 68 -42s30 -43 36 -72s6 -63 0 -102z" />
    <glyph glyph-name="uni0403" unicode="&#x403;" horiz-adv-x="543" 
d="M310 727l90 144h128l-113 -144h-105zM250 563l-89 -563h-115l107 675h433l-18 -112h-318z" />
    <glyph glyph-name="uni0404" unicode="&#x404;" horiz-adv-x="672" 
d="M607 94l1 -5c-35 -34 -76 -60 -122 -79s-93 -28 -140 -28c-46 0 -88 9 -126 27s-69 43 -94 75s-43 69 -54 111s-13 88 -6 137c8 49 24 95 48 138s54 80 89 112s74 57 117 75s88 27 134 27c50 0 95 -10 135 -29s73 -46 98 -81l-91 -76c-17 23 -40 41 -69 54s-60 19 -93 19
c-25 0 -49 -4 -73 -13s-46 -21 -67 -37s-39 -35 -55 -57s-29 -45 -39 -70h249l-18 -113h-250c1 -26 6 -50 15 -72s21 -41 36 -57s34 -29 56 -38s47 -14 75 -14c32 1 64 8 96 21s60 32 83 57l65 -84v0z" />
    <glyph glyph-name="uni0405" unicode="&#x405;" horiz-adv-x="613" 
d="M95 184h-3c69 -55 145 -82 227 -82c31 0 58 8 81 24s37 37 41 63c3 24 -4 42 -21 55s-45 25 -85 36c-50 14 -90 29 -120 45s-53 33 -68 51s-24 37 -27 57s-3 42 0 65c4 25 13 49 26 72s30 43 51 60s46 31 75 41s61 15 96 15c47 0 92 -6 135 -18s82 -34 116 -66l-61 -98
c-29 23 -61 40 -95 51s-70 16 -108 16c-29 0 -54 -7 -75 -21s-33 -32 -36 -54c-2 -13 -2 -24 1 -33s9 -17 18 -24s21 -14 37 -21s36 -14 60 -21c43 -14 79 -28 107 -42s50 -29 65 -45s25 -34 30 -54s5 -42 1 -67c-5 -29 -15 -56 -30 -81s-34 -46 -57 -64s-50 -32 -80 -42
s-62 -15 -97 -15c-56 0 -105 8 -148 24s-83 41 -121 75z" />
    <glyph glyph-name="uni0406" unicode="&#x406;" horiz-adv-x="258" 
d="M153 675h115l-107 -675h-115z" />
    <glyph glyph-name="uni0407" unicode="&#x407;" horiz-adv-x="258" 
d="M115 737v-2c-19 0 -35 7 -47 21s-16 33 -13 56c3 21 13 39 30 53s35 21 54 21c18 0 33 -7 45 -21s16 -31 13 -52c-2 -11 -6 -21 -11 -30s-11 -17 -19 -24s-16 -12 -25 -16s-18 -6 -27 -6zM324 735v-2c-19 0 -35 7 -47 21s-16 33 -13 56c3 21 13 39 30 53s35 21 54 21
c18 0 33 -7 45 -21s16 -31 13 -52c-2 -11 -6 -21 -11 -30s-11 -17 -19 -24s-16 -12 -25 -16s-18 -6 -27 -6zM153 671h115l-107 -675h-115z" />
    <glyph glyph-name="uni0408" unicode="&#x408;" horiz-adv-x="535" 
d="M241 -13l2 1c-56 0 -102 11 -138 32s-65 50 -88 87l79 77c17 -24 37 -43 59 -57s51 -21 86 -21c29 0 56 10 81 30s41 52 48 96l70 443h115l-71 -451c-7 -43 -18 -79 -34 -109s-35 -54 -57 -73s-46 -33 -72 -42s-53 -13 -80 -13z" />
    <glyph glyph-name="uni0409" unicode="&#x409;" horiz-adv-x="1046" 
d="M241 192v-2c-5 -32 -15 -61 -29 -86s-31 -46 -52 -63s-45 -30 -72 -39s-56 -14 -87 -14l18 109c12 0 24 2 36 6s23 10 33 18s19 18 26 30s12 26 14 41l76 483h512l-41 -259h184c31 0 57 -6 79 -18s40 -27 53 -46s22 -41 26 -66s4 -50 0 -75c-4 -27 -12 -53 -24 -78
s-28 -47 -47 -67s-41 -36 -66 -48s-52 -18 -81 -18h-306l89 562h-283zM656 302l-33 -193h162c16 0 30 3 43 9s24 14 33 23s17 20 23 32s10 24 12 37c2 11 2 22 0 33s-6 21 -12 30s-15 16 -26 21s-24 8 -40 8h-162z" />
    <glyph glyph-name="uni040A" unicode="&#x40a;" horiz-adv-x="1047" 
d="M662 303l-33 -191h162c16 0 30 3 43 9s24 14 33 23s17 20 23 32s10 24 12 37c2 11 2 22 0 33s-6 21 -12 29s-15 15 -26 20s-24 8 -40 8h-162zM543 291l-341 -2l-46 -291h-115l107 675h114l-43 -272h341l43 272h115l-41 -259h183c29 0 55 -6 77 -18s40 -27 54 -46
s23 -41 28 -65s6 -49 2 -74c-4 -27 -12 -53 -24 -78s-28 -47 -47 -67s-41 -36 -66 -48s-52 -18 -81 -18h-306z" />
    <glyph glyph-name="uni040B" unicode="&#x40b;" horiz-adv-x="803" 
d="M538 367l-2 -1c-31 0 -60 -6 -88 -18s-55 -28 -80 -48l-48 -302h-115l89 563h-200l18 112h514l-18 -112h-199l-23 -147c30 20 61 36 92 47s64 17 98 17c32 0 61 -4 87 -12s48 -21 65 -39s29 -40 36 -67s8 -60 2 -98l-42 -262h-115l41 256c6 38 -1 66 -21 84
s-50 27 -91 27z" />
    <glyph glyph-name="uni040C" unicode="&#x40c;" horiz-adv-x="659" 
d="M346 727l90 144h128l-112 -144h-106zM305 299l-117 -111l-29 -188h-115l107 675h114l-51 -325l344 325h144l-313 -296l224 -379h-132z" />
    <glyph glyph-name="uni040E" unicode="&#x40e;" horiz-adv-x="630" 
d="M345 879l-3 -1c-1 -18 5 -34 17 -49s29 -22 51 -22c23 0 43 7 60 21s28 31 33 50h65c-13 -49 -33 -87 -61 -114s-63 -40 -106 -40c-44 0 -76 14 -96 41s-27 65 -22 114h62zM466 296l-1 -3c-36 -61 -72 -111 -109 -150s-74 -70 -112 -93s-77 -38 -117 -46
s-82 -12 -126 -11l25 110c45 0 86 6 122 18s70 31 101 58l-158 495h124l121 -391c1 1 2 3 3 5l4 7l224 379h124z" />
    <glyph glyph-name="uni040F" unicode="&#x40f;" horiz-adv-x="699" 
d="M392 0l-35 -156h-100l15 156h-229l107 675h115l-89 -563h340l89 563h115l-107 -675h-221z" />
    <glyph glyph-name="uni0410" unicode="&#x410;" horiz-adv-x="678" 
d="M399 548l-151 -286h212zM484 150h-295l-79 -150h-125l371 675h123l157 -675h-120z" />
    <glyph glyph-name="uni0411" unicode="&#x411;" horiz-adv-x="627" 
d="M207 304l-34 -193h200c16 0 30 3 43 9s24 14 33 23s17 20 23 32s10 24 12 37c2 11 2 22 0 33s-6 21 -12 30s-14 16 -25 21s-24 8 -40 8h-200zM148 674h432l-17 -112h-316l-24 -147h221c31 0 57 -6 79 -18s40 -27 53 -46s22 -41 26 -66s4 -50 0 -75
c-4 -27 -12 -53 -24 -78s-27 -47 -46 -67s-41 -36 -66 -48s-52 -18 -81 -18h-344z" />
    <glyph glyph-name="uni0412" unicode="&#x412;" horiz-adv-x="655" 
d="M151 675l315 -2c29 0 54 -5 75 -15s38 -23 50 -40s21 -36 26 -58s5 -45 1 -69c-4 -25 -12 -49 -24 -72s-27 -43 -44 -60c27 -15 46 -38 57 -68s14 -62 9 -96c-4 -25 -12 -49 -24 -73s-27 -45 -46 -63s-41 -32 -66 -43s-53 -16 -83 -16h-353zM245 561l-27 -164h189
c12 0 23 3 33 8s19 11 27 19s14 17 19 26s8 19 9 29c1 11 1 21 -1 31s-5 19 -10 26s-12 13 -21 18s-20 7 -34 7h-184zM393 108l1 -2c15 0 28 3 40 8s22 12 31 21s16 19 21 30s9 22 11 34c3 23 -1 43 -12 60s-30 26 -58 26h-227l-28 -177h221z" />
    <glyph glyph-name="uni0413" unicode="&#x413;" horiz-adv-x="543" 
d="M248 563l-89 -563h-115l107 675h432l-18 -112h-317z" />
    <glyph glyph-name="uni0414" unicode="&#x414;" horiz-adv-x="711" 
d="M559 563h-190c-20 -95 -43 -179 -69 -252s-55 -139 -86 -199h274zM537 0l-421 -1l-26 -114h-101l36 226h69c50 89 89 180 116 273s48 190 63 291h418l-90 -563h62l-36 -226h-101z" />
    <glyph glyph-name="uni0415" unicode="&#x415;" horiz-adv-x="580" 
d="M151 675h446l-18 -112h-331l-26 -165h312l-18 -112h-312l-28 -174h334l-17 -112h-449z" />
    <glyph glyph-name="uni0416" unicode="&#x416;" horiz-adv-x="1061" 
d="M-9 0l357 368l-226 305l143 2l236 -319l51 319h115l-51 -320l339 320h149l-328 -310l238 -365h-140l-184 283l-100 -95l-30 -188h-115l31 194l-64 86l-275 -280h-146z" />
    <glyph glyph-name="uni0417" unicode="&#x417;" horiz-adv-x="632" 
d="M296 -13h-8c-57 0 -107 8 -151 23s-84 41 -119 78l64 83c31 -26 63 -44 96 -54s71 -15 115 -15c54 0 95 8 123 24s44 38 49 65c5 30 -9 54 -42 73s-82 28 -147 28l17 105c43 0 78 3 105 9s48 14 63 23s26 19 32 30s10 22 12 33c4 28 -7 49 -32 62s-59 20 -102 20
c-42 0 -80 -5 -114 -15s-69 -24 -106 -42l-32 91c38 25 81 45 129 59s98 21 151 21c37 0 71 -4 101 -11s56 -18 77 -33s36 -34 45 -57s11 -50 6 -82c-5 -33 -19 -63 -42 -91s-55 -51 -96 -69c35 -17 61 -39 78 -66s23 -57 18 -90c-5 -29 -14 -56 -28 -81s-33 -46 -57 -64
s-53 -32 -87 -42s-73 -15 -118 -15z" />
    <glyph glyph-name="uni0418" unicode="&#x418;" horiz-adv-x="712" 
d="M44 0l107 675h114l-79 -503l419 503h114l-106 -675h-115l79 500l-418 -500h-115z" />
    <glyph glyph-name="uni0419" unicode="&#x419;" horiz-adv-x="712" 
d="M390 879l-2 -1c-1 -18 5 -34 17 -49s29 -22 51 -22c23 0 43 7 60 21s28 31 33 50h65c-13 -49 -34 -87 -62 -114s-63 -40 -106 -40c-44 0 -76 14 -96 41s-27 65 -22 114h62zM44 -1l107 675h115l-80 -503l419 503h115l-107 -675h-115l79 500l-418 -500h-115z" />
    <glyph glyph-name="uni041A" unicode="&#x41a;" horiz-adv-x="659" 
d="M305 299l-117 -111l-29 -188h-115l107 675h114l-51 -325l344 325h144l-313 -296l224 -379h-132z" />
    <glyph glyph-name="uni041B" unicode="&#x41b;" horiz-adv-x="707" 
d="M241 192l-2 -2c-5 -32 -15 -61 -29 -86s-31 -46 -52 -63s-45 -30 -72 -39s-56 -14 -87 -14l18 109c12 0 24 2 36 6s23 10 33 18s19 18 26 30s12 26 14 41l76 483h512l-107 -675h-115l89 562h-282l-58 -370v0z" />
    <glyph glyph-name="uni041C" unicode="&#x41c;" horiz-adv-x="848" 
d="M234 474l-75 -474h-115l107 675h117l163 -456l307 456h117l-107 -675h-115l76 474l-272 -408h-61z" />
    <glyph glyph-name="uni041D" unicode="&#x41d;" horiz-adv-x="714" 
d="M544 287h-340l-45 -287h-115l107 675h114l-43 -275h340l44 275h115l-107 -675h-115z" />
    <glyph glyph-name="uni041E" unicode="&#x41e;" horiz-adv-x="757" 
d="M348 -13l-1 -1c-47 0 -89 9 -127 27s-70 43 -96 75s-44 69 -55 111s-13 88 -6 137c8 48 24 93 47 136s52 80 87 112s75 57 119 75s91 27 140 27c47 0 89 -9 127 -27s70 -43 96 -75s44 -69 55 -112s13 -88 6 -136c-8 -49 -24 -94 -48 -136s-54 -79 -89 -111
s-75 -57 -119 -75s-89 -27 -136 -27zM365 101h-1c30 0 59 6 88 18s55 29 78 51s43 47 59 75s27 58 32 90s4 62 -3 91s-19 54 -35 75s-36 38 -61 51s-52 19 -82 19s-59 -6 -87 -19s-54 -30 -77 -51s-43 -46 -59 -75s-26 -59 -31 -91s-4 -62 3 -90s19 -53 35 -75
s36 -39 60 -51s51 -18 81 -18z" />
    <glyph glyph-name="uni041F" unicode="&#x41f;" horiz-adv-x="713" 
d="M588 563h-340l-89 -563h-115l107 675h570l-107 -675h-115z" />
    <glyph glyph-name="uni0420" unicode="&#x420;" horiz-adv-x="634" 
d="M248 563l-44 -256h178c20 0 38 4 54 12s30 18 42 31s21 27 28 43s12 32 15 48c3 15 3 30 1 45s-7 28 -15 39s-18 20 -31 27s-29 11 -48 11h-180zM186 195l-29 -196h-115l107 675h316c33 0 62 -7 86 -21s43 -32 57 -54s24 -47 29 -75s5 -56 0 -85c-5 -31 -15 -61 -29 -90
s-32 -55 -53 -78s-46 -41 -74 -55s-59 -21 -93 -21h-202z" />
    <glyph glyph-name="uni0421" unicode="&#x421;" horiz-adv-x="678" 
d="M618 94l-4 -3c-35 -33 -76 -59 -124 -78s-97 -28 -146 -28c-47 0 -89 9 -127 26s-70 41 -95 72s-43 68 -54 110s-12 89 -4 140c9 55 26 105 51 149s55 81 90 111s74 53 116 69s85 24 128 24c55 0 104 -9 146 -28s76 -46 101 -82l-88 -74c-19 24 -43 42 -72 53
s-61 17 -96 17c-31 0 -61 -6 -89 -18s-54 -28 -77 -49s-42 -46 -57 -75s-25 -60 -30 -94s-4 -65 3 -94s19 -53 35 -73s36 -36 60 -48s51 -18 80 -18c34 0 68 7 101 20s62 32 87 57z" />
    <glyph glyph-name="uni0422" unicode="&#x422;" horiz-adv-x="592" 
d="M415 563l-89 -563h-115l89 563h-215l18 112h544l-18 -112h-214z" />
    <glyph glyph-name="uni0423" unicode="&#x423;" horiz-adv-x="630" 
d="M469 297l-1 -3c-36 -61 -72 -111 -109 -150s-74 -70 -112 -93s-77 -38 -117 -46s-82 -12 -126 -11l25 110c45 0 86 6 122 18s70 31 101 58l-158 495h124l121 -391c1 1 2 3 3 5l4 7l224 379h124l-225 -378v0z" />
    <glyph glyph-name="uni0424" unicode="&#x424;" horiz-adv-x="801" 
d="M313 0l17 86c-53 4 -98 13 -135 27s-67 32 -89 54s-37 48 -45 78s-9 63 -4 98c5 33 16 64 33 92s40 53 69 75s64 40 105 54s89 23 143 27l13 85h115l-13 -85c53 -4 99 -13 137 -27s68 -32 91 -54s39 -48 47 -77s9 -61 4 -95s-16 -66 -34 -95s-42 -55 -72 -77
s-66 -40 -108 -54s-90 -23 -145 -27l-14 -85h-115zM685 338l-2 -2c3 17 2 33 -3 49s-14 30 -28 42s-33 22 -57 30s-54 14 -89 17l-43 -273c73 5 127 21 162 47s55 56 60 90zM171 336v-3c-3 -17 -2 -33 3 -48s14 -28 28 -40s33 -22 57 -30s53 -13 88 -16l43 273
c-35 -3 -66 -9 -92 -17s-48 -18 -66 -30s-32 -26 -42 -41s-16 -31 -19 -48z" />
    <glyph glyph-name="uni0425" unicode="&#x425;" horiz-adv-x="698" 
d="M364 255l-228 -255h-139l314 346l-188 329h130l138 -241l211 241h136l-297 -334l197 -341h-129z" />
    <glyph glyph-name="uni0426" unicode="&#x426;" horiz-adv-x="734" 
d="M557 -114l11 114h-525l107 675h115l-89 -562h341l89 562h115l-89 -562h61l-36 -227h-100z" />
    <glyph glyph-name="uni0427" unicode="&#x427;" horiz-adv-x="646" 
d="M432 0l40 246c-46 -13 -92 -19 -139 -19c-41 0 -78 6 -111 17s-60 28 -82 50s-37 49 -46 81s-10 69 -3 111l30 189h115l-27 -169c-5 -29 -5 -54 0 -75s14 -38 27 -51s30 -23 50 -29s43 -9 68 -9s48 1 69 4s43 8 66 15l50 314h115l-107 -675h-115z" />
    <glyph glyph-name="uni0428" unicode="&#x428;" horiz-adv-x="961" 
d="M151 675h114l-89 -563h237l89 563h115l-89 -563h236l89 563h115l-107 -675h-817z" />
    <glyph glyph-name="uni0429" unicode="&#x429;" horiz-adv-x="980" 
d="M804 -114l11 114h-772l107 675h115l-89 -563h236l89 563h115l-89 -563h237l89 563h115l-89 -563h61l-36 -226h-100z" />
    <glyph glyph-name="uni042A" unicode="&#x42a;" horiz-adv-x="780" 
d="M363 304l-31 -193h196c16 0 30 3 42 9s23 14 32 23s17 20 23 32s10 24 12 37c2 11 2 22 0 33s-6 21 -12 30s-15 16 -26 21s-24 8 -40 8h-196zM288 562h-200l18 112h317l-41 -259h217c31 0 57 -6 79 -18s40 -27 53 -46s22 -41 26 -66s4 -50 0 -75c-4 -27 -12 -53 -24 -78
s-27 -47 -46 -67s-41 -36 -66 -48s-52 -18 -81 -18h-341z" />
    <glyph glyph-name="uni042B" unicode="&#x42b;" horiz-adv-x="869" 
d="M761 675h115l-107 -675h-115zM207 304l-34 -193h200c16 0 30 3 43 9s24 14 33 23s17 20 23 32s10 24 12 37c2 11 2 22 0 33s-6 21 -12 30s-14 16 -25 21s-24 8 -40 8h-200zM148 674h116l-41 -259h221c31 0 57 -6 79 -18s40 -27 53 -46s22 -41 26 -66s4 -50 0 -75
c-4 -27 -12 -53 -24 -78s-27 -47 -46 -67s-41 -36 -66 -48s-52 -18 -81 -18h-344z" />
    <glyph glyph-name="uni042C" unicode="&#x42c;" horiz-adv-x="624" 
d="M207 304l-33 -193h196c16 0 30 3 43 9s24 14 33 23s17 20 23 32s10 24 12 37c2 11 2 22 0 33s-6 21 -12 30s-15 16 -26 21s-24 8 -40 8h-196zM149 674h115l-41 -259h218c31 0 57 -6 79 -18s40 -27 53 -46s22 -41 26 -66s4 -50 0 -75c-4 -27 -12 -53 -24 -78
s-27 -47 -46 -67s-41 -36 -66 -48s-52 -18 -81 -18h-340z" />
    <glyph glyph-name="uni042D" unicode="&#x42d;" horiz-adv-x="671" 
d="M270 -13l1 -4c-50 0 -96 9 -138 28s-75 45 -100 79l88 79c17 -23 40 -40 68 -52s59 -18 93 -18c25 0 49 5 73 14s46 22 66 38s38 35 54 57s29 46 38 71h-249l18 113h249c-2 25 -8 49 -17 71s-21 41 -37 57s-34 29 -55 38s-44 14 -69 14c-34 0 -67 -7 -99 -20
s-60 -31 -84 -54l-67 79c36 35 77 62 124 81s95 29 145 29c46 0 88 -9 125 -27s68 -43 93 -75s43 -69 54 -112s12 -89 4 -138c-7 -48 -21 -93 -42 -136s-48 -80 -81 -111s-71 -56 -114 -74s-90 -27 -141 -27z" />
    <glyph glyph-name="uni042E" unicode="&#x42e;" horiz-adv-x="1032" 
d="M619 -13l-3 -2c-43 0 -82 8 -117 23s-65 36 -90 63s-44 59 -58 95s-20 76 -19 119h-130l-46 -287h-115l107 675h115l-44 -276h132c13 41 33 79 59 114s56 66 89 92s69 46 108 61s79 22 120 22c47 0 89 -9 127 -27s70 -43 96 -75s44 -69 55 -112s13 -88 6 -136
c-8 -49 -24 -94 -48 -136s-54 -79 -89 -111s-75 -57 -119 -75s-89 -27 -136 -27zM634 100c30 0 59 6 88 19s55 30 78 51s43 46 59 75s27 59 32 91s5 62 -1 90s-17 53 -33 75s-36 39 -61 52s-54 19 -87 19c-30 0 -59 -6 -87 -19s-54 -30 -77 -52s-43 -47 -59 -75
s-26 -58 -31 -90s-5 -62 0 -91s15 -54 30 -75s35 -38 60 -51s55 -19 89 -19z" />
    <glyph glyph-name="uni042F" unicode="&#x42f;" horiz-adv-x="676" 
d="M517 347l34 215h-228c-15 0 -28 -3 -40 -9s-22 -14 -31 -24s-16 -21 -21 -34s-9 -26 -11 -39s-2 -26 -1 -39s5 -25 11 -36s14 -19 24 -25s23 -9 38 -9h225zM499 233h-215l-146 -234h-123l161 260c-16 10 -29 22 -40 36s-19 30 -25 48s-10 37 -11 57s0 40 3 60
c4 27 13 53 26 79s30 49 51 69s45 36 72 48s56 18 87 18h345l-107 -675h-115z" />
    <glyph glyph-name="uni0430" unicode="&#x430;" 
d="M275 95l-1 -4c19 0 37 4 55 12s34 19 48 33s26 30 36 49s17 39 20 60c3 22 3 42 -1 61s-11 35 -21 49s-23 25 -38 33s-32 12 -51 12s-38 -4 -56 -12s-34 -19 -48 -33s-26 -30 -36 -49s-17 -39 -20 -60s-3 -40 1 -58s11 -34 21 -48s23 -25 38 -33s33 -12 53 -12zM421 66
l-2 -2c-26 -23 -54 -43 -85 -59s-63 -24 -96 -24c-31 0 -60 6 -86 19s-48 31 -66 54s-31 51 -39 83s-9 67 -3 105s18 73 36 105s40 60 66 83s54 41 85 54s63 20 96 20c31 0 60 -7 87 -21s50 -32 69 -55l26 63h66l-79 -495h-65z" />
    <glyph glyph-name="uni0431" unicode="&#x431;" horiz-adv-x="571" 
d="M543 226l-4 2c-6 -40 -18 -75 -35 -105s-38 -55 -62 -75s-51 -35 -81 -45s-61 -15 -94 -15c-36 0 -69 6 -99 18s-55 30 -75 54s-34 54 -42 90s-8 79 0 128l1 6c12 75 31 138 56 190s55 94 90 125s73 54 115 68s86 21 131 21c27 0 52 -2 75 -6s47 -10 72 -19l-52 -105
c-38 14 -77 21 -117 21c-22 0 -43 -3 -64 -8s-41 -14 -60 -26s-36 -28 -52 -48s-30 -45 -42 -74c23 10 46 18 69 24s44 9 63 9c33 0 64 -5 92 -15s52 -24 71 -43s33 -43 41 -72s9 -62 3 -100zM272 98l-3 -1c18 0 35 3 52 9s32 15 46 26s26 25 36 41s17 34 20 55
c3 19 2 36 -3 51s-13 28 -24 38s-24 18 -40 23s-33 8 -51 8s-35 -3 -52 -9s-32 -14 -45 -24s-24 -22 -33 -35s-14 -27 -16 -42c-4 -23 -4 -43 0 -60s12 -32 23 -44s24 -21 39 -27s32 -9 51 -9z" />
    <glyph glyph-name="uni0432" unicode="&#x432;" horiz-adv-x="545" 
d="M115 495l262 2c25 0 46 -4 63 -12s31 -18 42 -31s18 -28 22 -45s5 -34 2 -51s-9 -34 -17 -50s-18 -31 -31 -44c19 -13 33 -30 41 -52s10 -44 6 -67c-3 -19 -9 -37 -18 -54s-21 -32 -36 -46s-32 -25 -52 -33s-42 -12 -66 -12h-296zM211 392l-14 -88h144c13 0 24 5 32 15
s13 21 15 32c1 11 -1 21 -7 29s-17 12 -32 12h-138zM180 199l-16 -93h169c16 0 29 5 38 14s15 20 17 33c2 12 0 23 -6 32s-17 14 -32 14h-170z" />
    <glyph glyph-name="uni0433" unicode="&#x433;" horiz-adv-x="441" 
d="M210 385l-61 -385h-112l78 495h346l-18 -110h-233z" />
    <glyph glyph-name="uni0434" unicode="&#x434;" horiz-adv-x="565" 
d="M394 385l-100 -1c-13 -50 -28 -98 -46 -145s-37 -90 -58 -129h160zM108 -1l-27 -115h-100l36 224h59c31 55 58 114 82 177s43 133 56 209h309l-61 -385h63l-35 -224h-100l10 115z" />
    <glyph glyph-name="uni0435" unicode="&#x435;" horiz-adv-x="548" 
d="M313 412v-1c-33 0 -62 -11 -86 -33s-42 -50 -54 -85l237 9c-3 36 -12 63 -28 82s-39 28 -69 28zM472 75l-2 -1c-28 -29 -60 -51 -97 -66s-75 -23 -114 -23c-33 0 -64 6 -93 18s-53 29 -73 51s-35 49 -44 81s-11 68 -5 107c7 41 20 78 39 111s41 61 67 83s55 39 86 51
s63 18 95 18s61 -6 88 -19s49 -32 67 -57s30 -56 36 -93s5 -80 -3 -128h-359c2 -37 15 -65 38 -85s53 -30 90 -30c24 0 46 4 66 13s39 22 56 39z" />
    <glyph glyph-name="uni0436" unicode="&#x436;" horiz-adv-x="814" 
d="M343 120l-2 -2c-17 19 -34 38 -50 57l-168 -176h-135l241 252c-58 77 -107 158 -148 243h137c21 -47 44 -90 68 -129s50 -75 77 -107l38 237h112l-37 -234c47 40 89 80 126 119s69 77 96 114h137c-34 -44 -69 -86 -106 -127s-76 -80 -117 -118l159 -249h-130l-112 176
l-36 -30c-12 -10 -25 -20 -38 -29l-18 -117h-113z" />
    <glyph glyph-name="uni0437" unicode="&#x437;" horiz-adv-x="478" 
d="M220 -13l-2 1c-42 0 -78 6 -109 17s-61 31 -90 59l55 76c13 -9 25 -17 36 -23s23 -11 35 -15s24 -7 37 -9s27 -3 42 -3c28 0 49 5 63 15s23 24 26 42c3 17 -6 31 -27 41s-52 15 -93 15l16 99c28 0 51 2 68 5s31 7 41 12s17 11 21 17s7 12 8 18c3 17 -2 29 -16 36
s-32 10 -54 10c-30 0 -56 -3 -79 -9s-49 -15 -78 -28l-23 86c31 18 64 32 99 42s73 15 113 15c26 0 50 -3 71 -8s39 -13 53 -24s25 -25 32 -42s8 -37 4 -61s-14 -46 -30 -66s-37 -37 -63 -52c21 -14 36 -31 45 -51s12 -41 9 -64c-7 -45 -28 -81 -62 -109s-83 -42 -148 -42z
" />
    <glyph glyph-name="uni0438" unicode="&#x438;" horiz-adv-x="585" 
d="M37 0l78 495h112l-52 -329l283 329h113l-79 -495h-112l52 328l-283 -328h-112z" />
    <glyph glyph-name="uni0439" unicode="&#x439;" horiz-adv-x="585" 
d="M288 703l-1 -1c-1 -17 5 -33 17 -48s29 -22 52 -22c22 0 41 7 58 21s28 31 33 50h65c-13 -49 -34 -87 -62 -114s-63 -40 -106 -40c-44 0 -76 13 -96 40s-27 65 -22 114h62zM38 -1l79 495h112l-52 -329l283 329h112l-78 -495h-113l52 328l-282 -328h-113z" />
    <glyph glyph-name="uni043A" unicode="&#x43a;" horiz-adv-x="543" 
d="M247 178l-1 -2c-13 -11 -26 -21 -39 -31l-39 -30l-19 -116h-112l78 495h113l-38 -237c42 35 82 72 120 112s75 82 110 126h137c-67 -86 -142 -167 -225 -244l160 -251h-131z" />
    <glyph glyph-name="uni043B" unicode="&#x43b;" horiz-adv-x="596" 
d="M220 174l1 -3c-5 -28 -14 -53 -27 -76s-29 -42 -48 -58s-41 -28 -66 -37s-52 -13 -81 -13l17 109c11 0 22 2 32 6s19 10 27 17s15 15 21 25s10 21 12 33l50 318h424l-79 -495h-112l61 385h-199l-33 -211v0z" />
    <glyph glyph-name="uni043C" unicode="&#x43c;" horiz-adv-x="676" 
d="M198 309l-49 -309h-112l78 495h115l111 -297l206 297h115l-79 -495h-112l49 309l-177 -257h-50z" />
    <glyph glyph-name="uni043D" unicode="&#x43d;" horiz-adv-x="589" 
d="M415 194h-235l-31 -194h-112l78 495h113l-31 -191h236l30 191h112l-78 -495h-113z" />
    <glyph glyph-name="uni043E" unicode="&#x43e;" horiz-adv-x="570" 
d="M254 -13v-1c-32 0 -62 6 -90 18s-52 29 -71 51s-33 49 -42 81s-10 68 -4 107c7 41 19 78 37 111s40 61 66 83s55 39 87 51s66 18 102 18c33 0 64 -6 92 -19s52 -31 71 -54s33 -51 41 -83s9 -68 3 -107s-18 -74 -36 -106s-40 -59 -66 -81s-55 -39 -88 -51
s-67 -18 -102 -18zM271 95l-3 -1c19 0 38 4 56 11s34 17 48 30s26 29 36 47s17 38 20 60s3 42 -1 61s-11 35 -21 49s-23 25 -38 33s-32 12 -51 12s-37 -4 -54 -12s-33 -19 -47 -33s-26 -30 -36 -49s-17 -39 -20 -61c-3 -21 -3 -41 1 -59s11 -34 21 -47s23 -23 38 -30
s32 -11 51 -11z" />
    <glyph glyph-name="uni043F" unicode="&#x43f;" horiz-adv-x="589" 
d="M446 385h-236l-61 -385h-112l78 495h460l-78 -495h-113z" />
    <glyph glyph-name="uni0440" unicode="&#x440;" 
d="M340 399l2 1c-19 0 -37 -4 -55 -12s-34 -19 -49 -33s-27 -30 -37 -48s-17 -38 -20 -59c-3 -22 -3 -42 1 -60s11 -34 21 -48s23 -25 38 -33s32 -12 51 -12s37 4 55 12s34 19 48 33s26 30 36 48s17 38 20 59s3 41 -1 59s-11 34 -21 48s-23 25 -38 33s-32 12 -51 12z
M112 -235h-113l116 731h65l10 -61c26 23 54 41 85 54s62 20 93 20c32 0 62 -6 89 -19s50 -31 68 -54s31 -50 39 -82s9 -67 3 -105c-6 -39 -18 -74 -36 -106s-39 -59 -64 -82s-53 -41 -84 -54s-62 -19 -93 -19c-29 0 -55 6 -78 18s-43 27 -60 46l-5 -68z" />
    <glyph glyph-name="uni0441" unicode="&#x441;" horiz-adv-x="508" 
d="M458 72l-4 -2c-28 -28 -60 -49 -96 -63s-73 -21 -111 -21c-32 0 -62 6 -90 18s-51 29 -70 51s-33 49 -42 81s-10 68 -4 107s18 75 36 107s40 60 66 83s55 41 87 54s66 19 101 19c38 0 72 -7 103 -21s56 -35 75 -62l-89 -72c-13 14 -28 25 -45 34s-37 13 -60 13
c-19 0 -37 -4 -54 -11s-32 -17 -46 -31s-26 -30 -36 -49s-16 -39 -19 -61s-3 -42 1 -60s11 -34 21 -47s23 -23 38 -31s32 -12 51 -12c23 0 44 4 62 13s37 21 56 36z" />
    <glyph glyph-name="uni0442" unicode="&#x442;" horiz-adv-x="428" 
d="M304 390l-62 -390h-112l62 390h-144l17 105h399l-17 -105h-143z" />
    <glyph glyph-name="uni0443" unicode="&#x443;" horiz-adv-x="484" 
d="M-44 -126l-2 -2c20 0 40 6 60 18s39 26 57 43s35 35 50 54s28 36 39 51l-105 456h122l66 -346c35 53 66 108 92 165s49 117 69 181h121c-33 -91 -73 -180 -121 -267s-103 -169 -164 -246c-26 -33 -51 -63 -75 -90s-48 -50 -72 -69s-49 -33 -74 -43s-52 -15 -80 -15z" />
    <glyph glyph-name="uni0444" unicode="&#x444;" horiz-adv-x="925" 
d="M630 96v1c19 0 37 4 54 12s33 19 47 32s26 29 36 47s17 38 20 59s3 41 -1 60s-11 35 -21 49s-22 25 -37 33s-32 12 -51 12s-37 -4 -54 -12s-33 -19 -47 -33s-26 -30 -36 -49s-17 -39 -20 -61s-3 -42 1 -60s11 -34 21 -47s22 -23 37 -31s32 -12 51 -12zM269 97v-1
c19 0 37 4 54 12s33 19 47 33s26 30 36 48s17 38 20 60s3 42 -1 60s-11 34 -21 47s-22 24 -37 32s-32 12 -51 12c-18 0 -36 -4 -53 -12s-33 -19 -47 -32s-26 -29 -36 -48s-16 -39 -19 -60s-3 -40 1 -58s11 -34 21 -48s22 -25 37 -33s31 -12 49 -12zM453 -234l-114 -2l43 274
c-22 -17 -45 -30 -69 -39s-49 -14 -74 -14c-32 0 -61 7 -87 20s-48 31 -66 54s-31 51 -39 83s-9 67 -3 105c6 39 18 74 36 106s39 59 64 82s52 41 82 54s61 19 92 19c28 0 53 -6 76 -19s43 -29 60 -49l5 72l33 211h111l-42 -267c22 17 45 30 70 39s50 14 75 14
c32 0 61 -6 87 -19s48 -31 66 -54s31 -51 38 -83s8 -67 2 -105c-6 -39 -18 -74 -36 -106s-39 -59 -64 -82s-52 -41 -82 -54s-60 -19 -91 -19c-28 0 -53 6 -75 19s-42 29 -59 48l-5 -72z" />
    <glyph glyph-name="uni0445" unicode="&#x445;" horiz-adv-x="531" 
d="M258 171l-2 1c-30 -23 -57 -48 -81 -76s-45 -60 -62 -96h-125c30 54 64 102 102 144s78 79 120 111l-137 240h129l91 -175c30 24 56 51 78 80s41 61 58 96h127c-28 -51 -60 -98 -95 -141s-75 -82 -119 -117l140 -238h-128z" />
    <glyph glyph-name="uni0446" unicode="&#x446;" horiz-adv-x="608" 
d="M430 -114l10 114h-403l78 495h112l-61 -385h224l61 385h112l-61 -385h63l-35 -224h-100z" />
    <glyph glyph-name="uni0447" unicode="&#x447;" horiz-adv-x="546" 
d="M341 0l21 127l18 69c-19 -13 -38 -24 -58 -32s-40 -12 -60 -12c-33 0 -63 5 -89 15s-48 26 -65 47s-29 47 -36 78s-7 67 0 108l15 95h112l-13 -86c-9 -52 -4 -89 15 -111s46 -33 82 -33c19 0 38 4 56 12s35 19 51 32l30 186h112l-78 -495h-113z" />
    <glyph glyph-name="uni0448" unicode="&#x448;" horiz-adv-x="810" 
d="M115 495h112l-61 -385h172l61 385h113l-61 -385h172l61 385h112l-79 -495h-680z" />
    <glyph glyph-name="uni0449" unicode="&#x449;" horiz-adv-x="840" 
d="M662 -114l10 114h-635l78 495h112l-61 -385h172l61 385h112l-61 -385h172l61 385h112l-61 -385h64l-36 -224h-100z" />
    <glyph glyph-name="uni044A" unicode="&#x44a;" horiz-adv-x="583" 
d="M284 235l-21 -132h105c19 0 35 7 47 20s20 29 23 47c3 17 1 32 -7 45s-22 20 -41 20h-106zM196 390l-140 1l16 104h253l-26 -158h119c26 0 48 -5 67 -14s34 -21 45 -37s18 -34 22 -54s4 -41 1 -62c-3 -22 -10 -43 -20 -63s-23 -38 -38 -54s-33 -29 -54 -39
s-44 -15 -69 -15h-238z" />
    <glyph glyph-name="uni044B" unicode="&#x44b;" horiz-adv-x="711" 
d="M506 0l78 495h113l-78 -495h-113zM187 235l-23 -132h128c19 0 35 7 47 20s20 29 23 47c3 17 1 32 -7 45s-21 20 -40 20h-128zM113 494l111 1l-25 -158h140c26 0 48 -5 67 -14s34 -21 45 -37s19 -34 23 -54s4 -41 1 -62c-3 -22 -10 -43 -20 -63s-23 -38 -38 -54
s-33 -29 -54 -39s-43 -15 -67 -15h-261z" />
    <glyph glyph-name="uni044C" unicode="&#x44c;" horiz-adv-x="508" 
d="M187 235l-23 -132h128c19 0 35 7 47 20s20 29 23 47c3 17 1 32 -7 45s-21 20 -40 20h-128zM113 494l111 1l-25 -158h140c26 0 48 -5 67 -14s34 -21 45 -37s19 -34 23 -54s4 -41 1 -62c-3 -22 -10 -43 -20 -63s-23 -38 -38 -54s-33 -29 -54 -39s-43 -15 -67 -15h-261z" />
    <glyph glyph-name="uni044D" unicode="&#x44d;" horiz-adv-x="508" 
d="M198 -13h-1c-38 0 -73 7 -104 21s-56 35 -75 63l91 73c15 -15 30 -27 46 -36s35 -13 58 -13c34 0 63 10 88 29s43 44 55 75h-187l15 96h186c-3 32 -14 57 -33 75s-44 27 -74 27c-23 0 -44 -4 -64 -13s-38 -21 -55 -36l-69 75c28 27 60 48 95 62s71 21 108 21
c32 0 62 -6 90 -19s52 -31 71 -54s33 -51 41 -83s9 -68 3 -107s-17 -74 -34 -106s-38 -59 -63 -81s-53 -39 -85 -51s-66 -18 -103 -18z" />
    <glyph glyph-name="uni044E" unicode="&#x44e;" horiz-adv-x="776" 
d="M463 -13v-5c-29 0 -56 5 -81 15s-47 24 -66 42s-34 40 -46 65s-18 54 -19 86h-70l-30 -194h-113l79 495h112l-30 -191h71c11 31 26 59 45 84s41 47 66 65s51 32 79 42s56 15 84 15c33 0 64 -6 92 -19s52 -31 71 -54s33 -51 41 -83s9 -68 3 -107s-18 -74 -37 -106
s-41 -59 -67 -81s-55 -39 -87 -51s-64 -18 -97 -18zM478 91v2c19 0 37 4 55 11s34 17 48 30s26 29 36 47s17 38 20 59c3 22 3 42 -1 61s-11 35 -21 49s-23 25 -38 33s-32 12 -51 12s-37 -4 -55 -12s-34 -19 -48 -33s-26 -30 -36 -49s-17 -39 -20 -61c-3 -21 -3 -41 1 -59
s11 -34 21 -47s23 -23 38 -31s32 -12 51 -12z" />
    <glyph glyph-name="uni044F" unicode="&#x44f;" horiz-adv-x="534" 
d="M372 267l19 123h-143c-17 0 -30 -6 -40 -18s-16 -25 -18 -40c-3 -17 -1 -32 5 -45s18 -20 35 -20h142zM355 162l-121 -2l-104 -162h-121l119 185c-23 15 -39 37 -48 65s-11 57 -6 88c3 19 9 38 19 57s22 36 37 51s32 27 51 36s40 14 63 14h276l-79 -495h-112z" />
    <glyph glyph-name="uni0451" unicode="&#x451;" horiz-adv-x="548" 
d="M238 572l1 -1c-19 0 -35 7 -47 21s-16 33 -13 56c3 21 13 39 29 54s34 22 54 22c18 0 33 -7 45 -22s16 -33 13 -54c-2 -11 -6 -21 -11 -30s-11 -17 -19 -24s-16 -12 -25 -16s-18 -6 -27 -6zM440 571v-1c-19 0 -35 7 -47 21s-16 33 -13 56c3 21 13 39 30 54s35 22 54 22
c18 0 33 -7 45 -22s16 -33 13 -54c-3 -23 -13 -41 -30 -55s-34 -21 -52 -21zM314 410v-1c-33 0 -62 -11 -86 -33s-42 -50 -54 -85l237 9c-3 36 -12 63 -28 82s-39 28 -69 28zM473 73l-2 -1c-28 -29 -60 -51 -97 -66s-75 -23 -114 -23c-33 0 -64 6 -93 18s-53 29 -73 51
s-35 49 -44 81s-11 68 -5 107c7 41 20 78 39 111s41 61 67 83s55 39 86 51s63 18 95 18s61 -6 88 -19s49 -32 67 -57s30 -56 36 -93s5 -80 -3 -128h-359c2 -37 15 -65 38 -85s53 -30 90 -30c24 0 46 4 66 13s39 22 56 39z" />
    <glyph glyph-name="uni0452" unicode="&#x452;" horiz-adv-x="585" 
d="M489 -36l-4 -1c-5 -30 -14 -57 -27 -81s-30 -45 -50 -63s-43 -31 -69 -40s-54 -14 -85 -14l17 108c13 0 25 2 37 7s23 11 32 19s17 18 24 29s11 23 13 36l49 313c6 41 1 71 -16 89s-41 27 -72 27c-26 0 -51 -7 -74 -20s-45 -31 -66 -53c-5 -29 -10 -62 -16 -99
s-11 -72 -16 -105l-18 -117h-112l89 560h-54l13 83h54l13 80h111l-13 -80h213l-13 -83h-213l-7 -46l-20 -86c26 25 55 45 86 59s61 21 90 21c25 0 49 -4 71 -12s40 -20 55 -37s26 -38 32 -64s6 -57 0 -93l-54 -337v0z" />
    <glyph glyph-name="uni0453" unicode="&#x453;" horiz-adv-x="432" 
d="M219 551l90 144h128l-112 -144h-106zM213 385l-61 -385h-113l79 495h345l-17 -110h-233z" />
    <glyph glyph-name="uni0454" unicode="&#x454;" horiz-adv-x="513" 
d="M458 72l-3 -3c-28 -28 -60 -49 -96 -63s-73 -21 -111 -21c-32 0 -62 6 -90 18s-51 29 -70 51s-33 49 -42 81s-10 68 -4 107s18 75 37 107s42 60 69 83s56 41 88 54s64 19 96 19c38 0 72 -7 103 -21s56 -35 75 -62l-93 -75c-11 15 -25 27 -42 36s-37 14 -60 14
c-30 0 -57 -9 -82 -27s-44 -43 -57 -75h185l-16 -100h-184c4 -30 16 -54 36 -72s45 -27 74 -27c23 0 44 4 62 13s37 21 56 36l69 -73v0z" />
    <glyph glyph-name="uni0455" unicode="&#x455;" horiz-adv-x="506" 
d="M71 150l-1 -1c35 -21 68 -36 100 -45s64 -13 95 -13c21 0 39 5 53 14s22 19 24 30c1 15 -4 26 -15 33s-28 13 -52 18c-41 9 -74 20 -99 32s-44 25 -57 39s-21 29 -24 45s-4 33 -2 50c3 22 10 43 21 62s26 36 45 50s41 25 66 33s53 12 84 12c17 0 35 -1 53 -3s36 -5 53 -9
s33 -9 48 -16s28 -15 39 -24l-52 -91c-19 11 -42 20 -69 27s-55 10 -83 10c-23 0 -43 -4 -60 -11s-26 -18 -28 -33c-2 -12 2 -22 11 -30s27 -15 54 -21c37 -9 68 -19 93 -29s45 -22 60 -35s25 -28 30 -45s6 -36 3 -58s-10 -42 -22 -61s-28 -35 -48 -49s-43 -25 -69 -33
s-54 -12 -85 -12c-45 0 -86 6 -122 18s-69 29 -99 52z" />
    </font>
</defs>
</svg>
