<?xml version="1.0" standalone="no"?>
<!DOCTYPE svg PUBLIC "-//W3C//DTD SVG 1.1//EN" "http://www.w3.org/Graphics/SVG/1.1/DTD/svg11.dtd" >
<svg xmlns="http://www.w3.org/2000/svg" xmlns:xlink="http://www.w3.org/1999/xlink" version="1.1">
<metadata>
Created by FontForge 20160407 at Mon Sep 26 17:42:55 2016
 By Jimmy Warting
Copyright (c) 2014 by Josep Patau Bellart. All rights reserved.
</metadata>
<defs>
<font id="Naste-LightItalic" horiz-adv-x="593" >
  <font-face 
    font-family="Naste Light"
    font-weight="300"
    font-style="italic"
    font-stretch="normal"
    units-per-em="1000"
    panose-1="2 0 0 0 0 0 0 0 0 0"
    ascent="752"
    descent="-248"
    x-height="494"
    cap-height="675"
    bbox="-199 -277 1330 999"
    underline-thickness="64"
    underline-position="-129"
    slope="-9"
    unicode-range="U+0020-FB04"
  />
<missing-glyph horiz-adv-x="506" 
d="M142 750h380l-159 -1000h-380zM324 -200l143 900h-286l-143 -900h286z" />
    <glyph glyph-name="f_f" unicode="ff" horiz-adv-x="501" 
d="M341 -73l-5 -3c-4 -26 -12 -49 -24 -69s-26 -37 -43 -51s-37 -24 -59 -31s-45 -10 -69 -10l12 60c15 0 29 3 43 8s26 12 36 21s19 20 26 33s12 27 14 42l81 508h-40l10 60h39l9 57c4 26 12 49 24 69s27 37 45 51s38 25 60 32s45 11 69 11l-12 -60c-15 0 -29 -2 -42 -7
s-25 -12 -35 -21s-19 -20 -26 -33s-11 -27 -13 -42l-9 -57h96l-3 -20l-16 -40h-87zM87 -76l-2 -3c-4 -26 -12 -49 -24 -69s-27 -37 -45 -51s-38 -24 -60 -31s-45 -10 -69 -10l12 60c15 0 29 3 43 8s26 12 36 21s19 20 26 33s12 27 14 42l81 508h-40l10 60h40l9 57
c4 26 12 49 24 69s27 37 44 51s37 25 59 32s45 11 69 11l-12 -60c-15 0 -29 -2 -42 -7s-25 -12 -35 -21s-19 -20 -26 -33s-11 -27 -13 -42l-9 -57h96l-3 -20l-16 -40h-87z" />
    <glyph glyph-name="fi" unicode="fi" horiz-adv-x="462" 
d="M414 601h-2c-13 0 -24 5 -32 15s-11 22 -9 36c3 13 10 25 21 35s23 15 36 15s24 -5 32 -15s11 -22 9 -35c-2 -14 -8 -26 -19 -36s-23 -15 -36 -15zM360 495h65l-78 -495h-65zM90 -73l-5 -3c-4 -26 -12 -49 -24 -69s-26 -37 -43 -51s-37 -24 -59 -31s-45 -10 -69 -10
l12 60c15 0 29 3 43 8s26 12 36 21s19 20 26 33s12 27 14 42l81 508h-40l10 60h39l9 57c4 26 12 49 24 69s27 37 45 51s38 25 60 32s45 11 69 11l-12 -60c-15 0 -29 -2 -42 -7s-25 -12 -35 -21s-19 -20 -26 -33s-11 -27 -13 -42l-9 -57h96l-3 -20l-16 -40h-87z" />
    <glyph glyph-name="fl" unicode="fl" horiz-adv-x="465" 
d="M398 714h65l-113 -714h-65zM92 -73l-2 -3c-4 -26 -12 -49 -24 -69s-27 -37 -45 -51s-38 -24 -60 -31s-45 -10 -69 -10l12 60c15 0 29 3 43 8s26 12 36 21s19 20 26 33s12 27 14 42l81 508h-40l10 60h40l9 57c4 26 12 49 24 69s27 37 44 51s37 25 59 32s45 11 69 11
l-12 -60c-15 0 -29 -2 -42 -7s-25 -12 -35 -21s-19 -20 -26 -33s-11 -27 -13 -42l-9 -57h96l-3 -20l-16 -40h-87z" />
    <glyph glyph-name="f_f_i" unicode="ffi" horiz-adv-x="710" 
d="M663 601h-2c-13 0 -24 5 -32 15s-11 22 -9 36c3 13 10 25 21 35s23 15 36 15s24 -5 32 -15s11 -22 9 -35c-2 -14 -8 -26 -19 -36s-23 -15 -36 -15zM609 495h65l-78 -495h-65zM339 -73l-5 -3c-4 -26 -12 -49 -24 -69s-26 -37 -43 -51s-37 -24 -59 -31s-45 -10 -69 -10
l12 60c15 0 29 3 43 8s26 12 36 21s19 20 26 33s12 27 14 42l81 508h-40l10 60h39l9 57c4 26 12 49 24 69s27 37 45 51s38 25 60 32s45 11 69 11l-12 -60c-15 0 -29 -2 -42 -7s-25 -12 -35 -21s-19 -20 -26 -33s-11 -27 -13 -42l-9 -57h96l-3 -20l-16 -40h-87zM85 -76l-2 -3
c-4 -26 -12 -49 -24 -69s-27 -37 -45 -51s-38 -24 -60 -31s-45 -10 -69 -10l12 60c15 0 29 3 43 8s26 12 36 21s19 20 26 33s12 27 14 42l81 508h-40l10 60h40l9 57c4 26 12 49 24 69s27 37 44 51s37 25 59 32s45 11 69 11l-12 -60c-15 0 -29 -2 -42 -7s-25 -12 -35 -21
s-19 -20 -26 -33s-11 -27 -13 -42l-9 -57h96l-3 -20l-16 -40h-87z" />
    <glyph glyph-name="f_f_l" unicode="ffl" horiz-adv-x="715" 
d="M648 714h65l-113 -714h-65zM341 -73l-5 -3c-4 -26 -12 -49 -24 -69s-26 -37 -43 -51s-37 -24 -59 -31s-45 -10 -69 -10l12 60c15 0 29 3 43 8s26 12 36 21s19 20 26 33s12 27 14 42l81 508h-40l10 60h39l9 57c4 26 12 49 24 69s27 37 45 51s38 25 60 32s45 11 69 11
l-12 -60c-15 0 -29 -2 -42 -7s-25 -12 -35 -21s-19 -20 -26 -33s-11 -27 -13 -42l-9 -57h96l-3 -20l-16 -40h-87zM87 -76l-2 -3c-4 -26 -12 -49 -24 -69s-27 -37 -45 -51s-38 -24 -60 -31s-45 -10 -69 -10l12 60c15 0 29 3 43 8s26 12 36 21s19 20 26 33s12 27 14 42l81 508
h-40l10 60h40l9 57c4 26 12 49 24 69s27 37 44 51s37 25 59 32s45 11 69 11l-12 -60c-15 0 -29 -2 -42 -7s-25 -12 -35 -21s-19 -20 -26 -33s-11 -27 -13 -42l-9 -57h96l-3 -20l-16 -40h-87z" />
    <glyph glyph-name=".notdef" horiz-adv-x="506" 
d="M142 750h380l-159 -1000h-380zM324 -200l143 900h-286l-143 -900h286z" />
    <glyph glyph-name="space" unicode=" " horiz-adv-x="235" 
 />
    <glyph glyph-name="exclam" unicode="!" horiz-adv-x="191" 
d="M113 574l16 101h70l-16 -101l-81 -414h-41zM54 -13h-1c-14 0 -25 5 -33 15s-11 22 -8 36c2 13 9 25 20 35s24 15 38 15c13 0 24 -5 32 -15s11 -22 9 -35c-3 -14 -10 -26 -21 -36s-23 -15 -36 -15z" />
    <glyph glyph-name="quotedbl" unicode="&#x22;" horiz-adv-x="301" 
d="M102 574l16 101h67l-16 -101l-35 -124h-37zM231 574l16 101h66l-16 -101l-33 -124h-38z" />
    <glyph glyph-name="numbersign" unicode="#" horiz-adv-x="657" 
d="M452 422h-166l-55 -169h166zM375 186h-166l-61 -186h-67l61 186h-121l22 67h120l56 169h-129l22 67h129l61 186h67l-61 -186h166l61 186h67l-61 -186h122l-22 -67h-121l-56 -169h130l-23 -67h-129l-61 -186h-67z" />
    <glyph glyph-name="dollar" unicode="$" horiz-adv-x="595" 
d="M184 507l-1 1c-2 -15 -2 -28 0 -40s8 -23 17 -33s21 -19 36 -27s35 -16 59 -24l37 237c-19 -1 -37 -5 -54 -11s-32 -14 -45 -24s-24 -22 -33 -35s-14 -28 -16 -44zM289 54v2c22 0 43 3 63 9s38 15 54 26s29 25 39 41s17 34 20 54c5 33 -5 58 -29 75s-63 32 -116 45l-3 1
l-40 -253h12zM266 -10l-18 -96h-33l15 98c-45 3 -85 13 -121 29s-69 40 -100 71l42 55c54 -52 117 -82 190 -90l41 261c-39 12 -71 25 -95 39s-42 29 -55 44s-21 32 -24 50s-3 38 0 59c3 23 11 45 23 66s28 40 48 57s44 30 71 40s57 16 90 17l17 105h32l-16 -105
c42 -2 81 -9 118 -21s71 -33 102 -63l-40 -55c-26 25 -55 43 -87 54s-66 17 -102 18l-38 -247c4 -1 7 -2 10 -3c39 -11 72 -23 99 -35s49 -25 65 -40s27 -31 33 -49s7 -39 4 -62c-4 -29 -13 -55 -28 -79s-34 -45 -57 -62s-49 -31 -79 -41s-62 -15 -96 -15h-11z" />
    <glyph glyph-name="percent" unicode="%" horiz-adv-x="717" 
d="M82 532h-1c3 22 10 42 21 61s24 35 39 49s33 25 53 33s41 12 64 12s43 -4 61 -12s32 -19 43 -33s19 -30 24 -49s6 -39 3 -61s-10 -43 -21 -62s-24 -36 -40 -50s-34 -25 -54 -33s-41 -12 -64 -12c-25 0 -46 4 -64 12s-32 19 -43 33s-18 31 -21 50s-3 40 0 62zM160 0h-57
l478 675h56zM136 530h-5c-3 -16 -3 -30 0 -43s8 -23 16 -31s17 -14 28 -18s23 -6 36 -6c27 0 52 9 74 27s35 42 40 72c3 16 3 30 0 43s-8 24 -15 33s-16 16 -27 20s-23 6 -36 6s-25 -2 -37 -7s-23 -12 -33 -21s-19 -20 -26 -33s-12 -27 -15 -42zM352 144h1c3 22 10 42 21 61
s24 35 39 49s33 25 53 33s41 12 63 12c23 0 43 -4 61 -12s33 -19 44 -33s19 -30 23 -49s5 -39 2 -61s-10 -43 -21 -62s-24 -36 -40 -50s-34 -25 -54 -33s-41 -12 -64 -12c-25 0 -46 4 -64 12s-32 19 -43 33s-18 31 -21 50s-3 40 0 62zM488 42l-7 2c27 0 52 9 74 27
s35 42 40 72c3 16 3 30 0 43s-8 24 -15 33s-16 16 -27 20s-23 6 -36 6s-25 -2 -37 -7s-23 -12 -33 -21s-19 -20 -26 -33s-12 -27 -14 -42c-5 -33 0 -58 16 -75s38 -25 65 -25z" />
    <glyph glyph-name="ampersand" unicode="&#x26;" horiz-adv-x="661" 
d="M452 96l-1 -3c-38 -35 -77 -62 -117 -81s-81 -28 -124 -28c-31 0 -58 5 -82 14s-44 22 -60 38s-28 35 -35 57s-9 46 -5 71c8 51 29 93 62 125s78 59 135 82c-19 24 -33 49 -42 74s-11 53 -6 84c3 23 11 44 23 63s27 36 45 50s38 25 60 33s45 12 69 12c25 0 47 -4 66 -12
s35 -19 47 -33s21 -31 26 -50s6 -39 3 -60c-6 -38 -24 -72 -54 -103s-70 -57 -120 -78l125 -150c19 22 37 46 55 72s36 53 53 82l56 -28c-41 -68 -82 -126 -124 -174l98 -118l-59 -51zM246 526l4 -3c-2 -13 -2 -25 0 -36s6 -22 11 -32s11 -20 18 -30s15 -19 23 -28
c38 13 70 30 96 51s42 46 47 75c3 26 -3 48 -18 66s-37 27 -67 27c-27 0 -52 -8 -74 -24s-35 -38 -40 -66zM228 51l-2 -1c33 0 65 8 96 23s62 37 92 65l-149 180c-46 -16 -83 -35 -111 -58s-45 -54 -52 -94c-5 -35 4 -63 28 -84s57 -31 98 -31z" />
    <glyph glyph-name="quotesingle" unicode="'" horiz-adv-x="173" 
d="M104 574l16 101h66l-16 -101l-34 -124h-37z" />
    <glyph glyph-name="parenleft" unicode="(" horiz-adv-x="325" 
d="M201 -276v-1c-71 57 -121 127 -150 211s-35 179 -18 284s53 200 108 285s127 155 215 211l25 -51c-80 -55 -143 -119 -188 -192s-75 -157 -90 -252s-11 -179 11 -252s64 -137 126 -191l-39 -52v0z" />
    <glyph glyph-name="parenright" unicode=")" horiz-adv-x="325" 
d="M-66 -224l2 1c79 54 141 118 186 191s75 157 90 252s12 179 -10 252s-64 137 -126 192l40 51c71 -56 121 -126 149 -211s34 -180 17 -285s-53 -200 -109 -284s-128 -154 -217 -211z" />
    <glyph glyph-name="asterisk" unicode="*" horiz-adv-x="383" 
d="M277 511l50 -96l-50 -33l-51 95l-81 -96l-40 34l81 95l-102 38l26 55l102 -37l19 119h55l-18 -119l112 37l8 -56z" />
    <glyph glyph-name="plus" unicode="+" horiz-adv-x="472" 
d="M260 211l-28 -174h-61l28 174h-166l10 65h166l27 174h62l-28 -174h166l-10 -65h-166z" />
    <glyph glyph-name="comma" unicode="," horiz-adv-x="196" 
d="M5 -101h-2c11 15 21 29 29 42s15 28 20 45c-13 1 -23 7 -30 17s-9 22 -6 35c2 13 9 25 20 35s24 15 38 15c15 0 26 -6 33 -17s9 -25 6 -41v-1c-8 -50 -38 -98 -91 -145z" />
    <glyph glyph-name="hyphen" unicode="-" horiz-adv-x="502" 
d="M58 277h393l-10 -66h-393z" />
    <glyph glyph-name="period" unicode="." horiz-adv-x="195" 
d="M59 -13h-1c-14 0 -25 5 -33 15s-11 22 -8 36c2 13 9 25 20 35s24 15 38 15c13 0 24 -5 32 -15s11 -22 9 -35c-3 -14 -10 -26 -21 -36s-23 -15 -36 -15z" />
    <glyph glyph-name="slash" unicode="/" horiz-adv-x="313" 
d="M284 675h61l-290 -675h-60z" />
    <glyph glyph-name="zero" unicode="0" horiz-adv-x="642" 
d="M278 -13h-1c-37 0 -71 7 -102 22s-56 37 -76 66s-34 65 -41 109s-6 95 3 154c9 58 24 109 45 153s46 81 75 110s61 51 96 66s71 22 108 22c38 0 73 -7 104 -22s57 -37 77 -66s34 -66 42 -110s7 -95 -2 -153c-9 -59 -24 -110 -45 -154s-46 -80 -76 -109s-62 -51 -97 -66
s-72 -22 -110 -22zM288 55l-3 -1c28 0 55 6 82 18s51 30 73 54s41 54 57 89s28 75 35 120s8 85 3 120s-15 65 -29 89s-32 42 -55 54s-48 18 -76 18s-55 -6 -81 -18s-50 -30 -72 -54s-41 -54 -57 -89s-28 -75 -35 -120s-8 -85 -3 -120s15 -64 30 -88s34 -42 56 -54
s47 -18 75 -18z" />
    <glyph glyph-name="one" unicode="1" horiz-adv-x="408" 
d="M22 0l10 66h130l84 531l-149 -81l-21 59l183 100h68l-97 -609h130l-11 -66h-327z" />
    <glyph glyph-name="two" unicode="2" horiz-adv-x="563" 
d="M15 0l9 78c7 43 22 80 45 110s51 57 83 80s66 43 102 61s69 35 100 52s57 35 79 54s35 41 39 66c6 37 -3 66 -27 88s-57 33 -99 33c-41 0 -79 -7 -114 -21s-71 -36 -108 -65l-27 49c43 35 86 61 128 78s87 26 135 26c32 0 60 -5 85 -14s45 -22 61 -39s27 -37 34 -60
s8 -48 3 -75c-5 -34 -19 -63 -41 -87s-49 -45 -80 -64s-64 -37 -99 -54s-68 -35 -99 -54s-58 -41 -81 -66s-37 -55 -42 -91l-4 -19h396l-11 -66h-467z" />
    <glyph glyph-name="three" unicode="3" horiz-adv-x="555" 
d="M244 -13l-7 -6c-48 0 -90 8 -126 24s-70 41 -102 75l42 50c29 -29 58 -50 88 -63s66 -20 108 -20c50 0 89 12 116 35s44 55 50 95c7 40 -5 73 -36 98s-79 38 -144 38l12 67c44 0 80 4 108 12s50 19 66 32s28 27 35 43s12 31 14 45c3 20 2 37 -3 51s-14 25 -26 33
s-27 14 -45 18s-38 6 -60 6c-37 0 -70 -7 -100 -20s-63 -33 -100 -60l-24 53c38 32 76 56 114 71s79 23 123 23c31 0 59 -3 85 -9s48 -16 65 -30s30 -31 38 -52s10 -46 5 -76c-5 -38 -19 -72 -42 -102s-56 -53 -100 -70c34 -17 59 -40 75 -69s21 -61 16 -96
c-5 -29 -13 -55 -25 -79s-28 -45 -48 -62s-44 -30 -73 -40s-62 -15 -99 -15z" />
    <glyph glyph-name="four" unicode="4" horiz-adv-x="571" 
d="M423 584l-327 -365h269zM423 152l-24 -152h-69l24 152h-347l11 67l416 456h71l-72 -456h108l-11 -67h-107z" />
    <glyph glyph-name="five" unicode="5" horiz-adv-x="562" 
d="M238 -13l-7 -3c-49 0 -92 8 -129 23s-72 39 -105 72l42 51c30 -28 61 -49 93 -62s69 -20 112 -20c56 0 101 15 135 45s55 70 62 120c3 23 2 44 -4 63s-17 36 -32 50s-35 25 -60 33s-54 12 -87 12c-28 0 -56 -3 -84 -10s-56 -17 -83 -30l91 341h374l-20 -66h-306l-50 -183
c32 9 65 14 98 14c45 0 84 -6 116 -17s58 -27 77 -47s32 -43 39 -70s8 -56 3 -88c-5 -33 -15 -64 -29 -92s-32 -52 -55 -72s-50 -36 -82 -47s-68 -17 -109 -17z" />
    <glyph glyph-name="six" unicode="6" horiz-adv-x="592" 
d="M547 223l-9 -4c-6 -39 -18 -73 -36 -102s-39 -53 -64 -73s-53 -35 -84 -45s-64 -15 -98 -15c-35 0 -67 6 -96 17s-53 28 -73 51s-34 52 -42 86s-8 74 -1 120l1 7c14 82 34 150 59 204s55 97 89 129s72 55 113 68s84 20 128 20c27 0 52 -2 75 -6s47 -9 72 -16l-32 -64
c-21 6 -41 11 -61 14s-41 5 -63 5c-29 0 -57 -4 -84 -12s-53 -21 -77 -40s-46 -43 -66 -73s-37 -67 -51 -111c26 17 55 31 86 41s62 15 93 15c35 0 67 -5 97 -14s55 -23 75 -41s35 -40 44 -67s11 -58 5 -94zM260 51l1 -2c25 0 49 4 72 11s44 18 62 32s34 31 47 52
s22 45 26 72c7 49 -4 86 -34 112s-72 39 -127 39c-24 0 -47 -3 -70 -10s-43 -16 -61 -28s-33 -26 -45 -42s-19 -33 -22 -51c-9 -62 0 -108 28 -139s69 -46 123 -46z" />
    <glyph glyph-name="seven" unicode="7" horiz-adv-x="529" 
d="M45 0l428 609h-393l11 66h501l-474 -675h-73z" />
    <glyph glyph-name="eight" unicode="8" horiz-adv-x="630" 
d="M274 -13l-1 -7c-37 0 -71 4 -102 12s-57 20 -79 36s-38 36 -48 60s-12 53 -7 86c7 42 24 77 52 105s63 49 104 63c-28 14 -49 34 -64 59s-19 58 -12 98c5 30 16 56 32 79s36 42 60 58s51 28 81 36s61 12 94 12s63 -4 91 -12s52 -20 71 -35s33 -34 42 -57s11 -50 6 -81
c-6 -39 -20 -71 -42 -96s-49 -44 -82 -57c37 -14 65 -35 84 -62s25 -62 18 -104c-5 -33 -16 -61 -34 -85s-40 -44 -67 -60s-57 -28 -91 -36s-69 -12 -106 -12zM335 374l-1 -4c23 0 45 3 66 8s40 13 57 23s31 23 42 38s18 32 21 51s1 36 -5 51s-16 28 -30 38s-31 18 -51 23
s-41 8 -64 8s-45 -3 -66 -8s-40 -13 -57 -23s-31 -22 -42 -37s-18 -32 -21 -51s-1 -36 6 -51s17 -27 30 -37s30 -17 50 -22s42 -7 65 -7zM282 44l-1 -2c27 0 53 3 78 9s47 14 67 25s36 24 49 40s21 34 24 55s1 40 -7 56s-20 30 -36 41s-36 19 -59 25s-48 9 -75 9
s-53 -3 -78 -9s-47 -14 -66 -25s-35 -24 -48 -40s-21 -34 -24 -55s-1 -39 7 -55s20 -29 36 -40s35 -19 58 -25s48 -9 75 -9z" />
    <glyph glyph-name="nine" unicode="9" horiz-adv-x="592" 
d="M349 620v3c-25 0 -49 -4 -72 -11s-44 -18 -63 -32s-35 -31 -48 -52s-21 -45 -25 -72c-4 -24 -3 -45 4 -64s18 -35 33 -48s33 -23 55 -30s46 -10 71 -10c24 0 47 3 69 10s42 16 60 28s33 26 45 42s20 33 23 51c5 31 5 58 -1 81s-16 42 -30 57s-31 27 -52 35s-44 12 -69 12
zM180 -10l-3 -1c-27 0 -52 2 -75 6s-47 10 -72 17l31 65c21 -6 42 -11 62 -15s41 -6 62 -6c31 0 61 4 89 12s54 22 78 41s46 44 65 74s35 68 48 113c-27 -17 -56 -31 -87 -42s-62 -16 -93 -16c-35 0 -67 5 -96 14s-54 23 -74 41s-34 41 -43 69s-10 60 -4 96
c6 39 18 73 35 102s39 53 65 72s55 34 87 44s65 15 100 15s67 -5 96 -16s54 -28 74 -51s34 -51 42 -85s9 -73 2 -118l-2 -12c-13 -82 -32 -150 -57 -204s-55 -97 -89 -129s-72 -54 -113 -67s-84 -19 -128 -19z" />
    <glyph glyph-name="colon" unicode=":" horiz-adv-x="202" 
d="M126 407c-13 0 -24 5 -32 15s-11 22 -9 36c3 13 10 25 21 35s23 15 36 15s23 -5 31 -15s11 -22 8 -35c-2 -14 -8 -26 -19 -36s-23 -15 -36 -15zM59 -13c-13 0 -24 5 -32 15s-11 22 -8 36c2 13 9 25 20 35s23 15 36 15s24 -5 32 -15s11 -22 9 -35c-3 -14 -10 -26 -21 -36
s-23 -15 -36 -15z" />
    <glyph glyph-name="semicolon" unicode=";" horiz-adv-x="203" 
d="M127 407h-2c-14 0 -25 5 -33 15s-11 22 -9 36c3 13 10 25 21 35s24 15 38 15c13 0 23 -5 31 -15s11 -22 9 -35c-2 -14 -8 -26 -19 -36s-23 -15 -36 -15zM4 -101h-1c11 15 21 29 29 42s15 28 21 45c-13 1 -23 7 -30 17s-9 22 -6 35c2 13 9 25 20 35s23 15 36 15
c15 0 26 -6 33 -17s9 -25 7 -41c-8 -51 -39 -100 -92 -146z" />
    <glyph glyph-name="less" unicode="&#x3c;" horiz-adv-x="497" 
d="M30 213l13 78l437 182l-11 -73l-379 -149l330 -147l-12 -72z" />
    <glyph glyph-name="equal" unicode="=" horiz-adv-x="509" 
d="M80 387h392l-10 -66h-393zM45 171h393l-10 -66h-393z" />
    <glyph glyph-name="greater" unicode="&#x3e;" horiz-adv-x="497" 
d="M18 32l12 72l376 147l-331 149l11 73l381 -182l-13 -78z" />
    <glyph glyph-name="question" unicode="?" horiz-adv-x="518" 
d="M177 131l32 202c34 0 65 4 93 12s52 19 72 33s37 31 50 50s21 40 24 62c7 41 0 73 -21 96s-59 35 -113 35c-37 0 -73 -7 -107 -20s-65 -31 -94 -54l-27 53c37 30 76 52 117 66s82 21 122 21c38 0 70 -5 97 -15s48 -23 63 -40s25 -38 30 -62s5 -50 0 -79
c-4 -28 -12 -54 -25 -78s-30 -46 -51 -65s-46 -35 -75 -47s-63 -20 -101 -24l-23 -146h-63zM186 -13l-1 -1c-13 0 -23 5 -31 15s-10 22 -7 35c2 13 8 24 19 33s23 14 36 14c12 0 22 -5 30 -14s11 -20 9 -33s-8 -24 -19 -34s-23 -15 -36 -15z" />
    <glyph glyph-name="at" unicode="@" horiz-adv-x="788" 
d="M301 -80l-11 -1c-48 0 -89 10 -124 30s-63 46 -84 77s-35 66 -43 105s-9 78 -3 117c8 53 24 101 47 144s52 79 87 109s75 53 121 69s96 24 151 24c49 0 93 -7 133 -21s73 -34 100 -61s46 -60 57 -99s13 -84 5 -135c-5 -31 -13 -60 -23 -87s-23 -51 -38 -71
s-32 -36 -51 -48s-39 -18 -61 -18c-21 0 -38 6 -52 17s-23 26 -26 45c-20 -20 -43 -36 -68 -48s-50 -18 -75 -18c-24 0 -46 5 -66 15s-37 24 -51 42s-24 39 -30 63s-7 51 -2 80c5 28 14 54 28 78s31 45 51 63s42 32 65 42s47 15 71 15c27 0 51 -6 73 -18s40 -28 54 -49
l14 55h42l-45 -284c-2 -13 0 -24 6 -33s14 -13 25 -13c15 0 29 5 42 15s24 23 34 39s18 34 25 54s12 40 15 60c7 44 6 83 -2 117s-23 62 -45 85s-50 40 -84 52s-73 18 -117 18c-50 0 -95 -7 -136 -21s-76 -34 -106 -60s-54 -57 -73 -94s-32 -78 -39 -123
c-5 -33 -5 -66 1 -99s18 -63 36 -90s42 -49 72 -66s66 -25 108 -25zM390 389l1 1c-17 0 -34 -4 -50 -12s-30 -18 -43 -31s-24 -28 -33 -45s-15 -35 -18 -54s-3 -37 0 -54s9 -32 18 -45s20 -23 34 -31s30 -12 47 -12c18 0 35 4 52 11s32 17 46 30s25 28 34 45s15 36 18 57
c3 20 3 39 -1 56s-11 32 -21 44s-22 22 -36 29s-30 11 -48 11z" />
    <glyph glyph-name="A" unicode="A" horiz-adv-x="656" 
d="M384 601l-199 -351h286zM487 185h-338l-105 -185h-74l387 675h75l174 -675h-73z" />
    <glyph glyph-name="B" unicode="B" horiz-adv-x="663" 
d="M154 675l313 -1c28 0 52 -5 72 -14s36 -22 48 -38s20 -35 24 -56s4 -44 0 -68c-4 -27 -13 -52 -27 -76s-31 -44 -51 -60c32 -14 55 -37 68 -69s17 -67 11 -105c-4 -25 -12 -49 -24 -72s-27 -43 -45 -60s-39 -31 -63 -41s-51 -15 -80 -15h-353zM212 609l-36 -230h251
c15 0 29 3 42 10s24 16 34 27s18 23 25 37s11 28 13 41c2 15 2 30 0 44s-7 26 -14 37s-17 19 -30 25s-29 9 -48 9h-237zM398 61l-4 2c21 0 40 3 57 10s32 16 44 28s22 26 30 41s13 31 16 48s3 33 1 48s-7 28 -15 39s-18 20 -31 27s-29 10 -48 10h-282l-40 -253h272z" />
    <glyph glyph-name="C" unicode="C" horiz-adv-x="667" 
d="M607 93v-2c-17 -17 -36 -32 -58 -45s-44 -24 -67 -33s-47 -16 -72 -21s-49 -7 -73 -7c-47 0 -90 9 -128 27s-70 43 -95 74s-43 68 -54 110s-12 88 -4 137c8 51 24 98 48 141s54 80 89 111s74 55 117 73s87 27 132 27c52 0 100 -9 143 -27s77 -45 102 -80l-51 -41
c-21 28 -50 49 -87 63s-76 21 -117 21c-37 0 -73 -7 -107 -22s-65 -35 -93 -61s-51 -56 -70 -91s-32 -72 -39 -112c-6 -39 -5 -76 3 -111s22 -65 42 -90s45 -45 75 -60s64 -22 102 -22c40 0 80 8 120 23s75 38 105 68z" />
    <glyph glyph-name="D" unicode="D" horiz-adv-x="720" 
d="M212 610l-88 -544h197c36 0 71 7 104 21s63 34 90 59s49 54 67 87s30 68 36 105s6 72 -1 105s-19 62 -37 87s-40 45 -67 59s-58 21 -93 21h-208zM152 676l278 3c43 0 82 -9 117 -27s64 -42 87 -72s40 -66 50 -107s11 -85 4 -132s-22 -91 -44 -132s-49 -77 -82 -108
s-70 -55 -111 -73s-84 -27 -129 -27h-277z" />
    <glyph glyph-name="E" unicode="E" horiz-adv-x="581" 
d="M154 675h437l-10 -65h-369l-36 -229h349l-10 -65h-349l-40 -251h371l-10 -65h-440z" />
    <glyph glyph-name="F" unicode="F" horiz-adv-x="571" 
d="M161 290l-45 -290h-69l107 675h434l-10 -65h-366l-40 -255h346l-10 -65h-347z" />
    <glyph glyph-name="G" unicode="G" horiz-adv-x="720" 
d="M632 83h4c-17 -15 -36 -28 -58 -40s-45 -22 -70 -30s-51 -14 -78 -18s-54 -6 -81 -6c-49 0 -93 9 -132 27s-72 43 -99 75s-46 69 -57 112s-13 89 -5 138s24 95 48 138s54 80 90 111s76 56 120 74s89 27 136 27c57 0 109 -9 156 -28s83 -46 108 -81l-50 -43
c-20 27 -48 48 -85 63s-82 22 -136 22c-37 0 -73 -7 -108 -22s-67 -35 -96 -61s-53 -56 -73 -91s-33 -72 -40 -111c-6 -39 -5 -76 3 -111s22 -65 43 -91s47 -46 78 -61s67 -22 108 -22c39 0 77 5 114 15s69 25 96 44l25 159h-170l11 65h238l-40 -254v0z" />
    <glyph glyph-name="H" unicode="H" horiz-adv-x="730" 
d="M584 314h-419l-49 -314h-69l107 675h68l-46 -296h418l47 296h69l-107 -675h-69z" />
    <glyph glyph-name="I" unicode="I" horiz-adv-x="243" 
d="M154 675h68l-106 -675h-69z" />
    <glyph glyph-name="J" unicode="J" horiz-adv-x="533" 
d="M212 -13l-4 -2c-54 0 -99 11 -135 33s-63 52 -82 90l49 42c17 -34 40 -59 68 -74s63 -23 104 -23c18 0 36 3 54 10s34 17 49 30s28 30 39 50s18 43 22 69l74 462h69l-74 -466c-6 -39 -17 -73 -32 -101s-33 -51 -54 -69s-44 -31 -69 -39s-51 -12 -78 -12z" />
    <glyph glyph-name="K" unicode="K" horiz-adv-x="628" 
d="M277 324l-128 -113l-33 -211h-69l107 675h68l-58 -371l424 371h89l-349 -306l258 -369h-82z" />
    <glyph glyph-name="L" unicode="L" horiz-adv-x="541" 
d="M154 675h68l-96 -610h368l-10 -65h-437z" />
    <glyph glyph-name="M" unicode="M" horiz-adv-x="868" 
d="M204 555l-88 -555h-69l107 675h69l191 -542l365 542h69l-107 -675h-69l88 552l-330 -493h-53z" />
    <glyph glyph-name="N" unicode="N" horiz-adv-x="730" 
d="M207 576l-91 -576h-69l107 675h68l328 -577l91 577h69l-107 -675h-69z" />
    <glyph glyph-name="O" unicode="O" horiz-adv-x="768" 
d="M342 -13l1 -1c-47 0 -90 9 -129 27s-71 43 -97 75s-45 69 -56 111s-13 88 -6 137c8 48 24 93 48 136s54 80 90 112s76 57 121 75s91 27 139 27c47 0 90 -9 129 -27s71 -43 97 -75s45 -69 56 -112s13 -88 6 -136c-8 -49 -24 -94 -49 -136s-55 -79 -91 -111
s-76 -57 -121 -75s-91 -27 -138 -27zM353 52l-1 -5c37 0 73 8 108 23s67 36 96 62s53 56 73 90s33 71 39 110s5 76 -3 111s-22 65 -42 91s-46 47 -77 62s-66 23 -105 23c-37 0 -73 -7 -108 -22s-67 -35 -96 -61s-53 -56 -73 -91s-33 -72 -39 -111s-5 -75 4 -109
s24 -64 44 -90s46 -46 77 -61s65 -22 103 -22z" />
    <glyph glyph-name="P" unicode="P" horiz-adv-x="635" 
d="M212 610l-53 -331h213c27 0 51 5 73 15s41 23 57 39s29 35 38 56s15 42 18 63c3 19 3 38 0 57s-9 36 -19 51s-23 27 -40 36s-38 14 -63 14h-224zM149 215l-32 -215h-69l107 675h299c33 0 62 -6 86 -19s44 -30 59 -51s25 -45 30 -72s6 -54 2 -81c-5 -30 -14 -59 -28 -87
s-32 -53 -54 -75s-47 -40 -76 -54s-60 -21 -94 -21h-230z" />
    <glyph glyph-name="Q" unicode="Q" horiz-adv-x="768" 
d="M280 -7h-3c-39 7 -74 21 -105 42s-56 47 -76 77s-34 64 -42 102s-9 79 -2 122c8 48 24 93 48 136s54 80 90 112s76 57 121 75s92 27 141 27c47 0 90 -9 129 -27s71 -43 97 -75s45 -69 56 -112s13 -88 6 -136c-7 -41 -19 -80 -37 -117s-41 -70 -68 -100s-58 -55 -93 -76
s-72 -36 -111 -45l52 -13l163 -54l-12 -72zM349 53l3 -3c37 0 73 8 108 23s67 35 96 61s53 56 73 90s33 71 39 110s5 76 -3 111s-22 65 -42 91s-45 47 -76 62s-67 23 -108 23c-37 0 -73 -7 -108 -22s-67 -35 -96 -61s-53 -56 -73 -91s-33 -72 -39 -111s-5 -76 3 -110
s22 -64 42 -90s45 -46 76 -61s66 -22 105 -22z" />
    <glyph glyph-name="R" unicode="R" horiz-adv-x="646" 
d="M212 610l-52 -295h247c21 0 40 4 57 13s32 21 45 35s23 30 31 48s14 36 17 54s4 36 2 53s-6 33 -13 47s-17 25 -30 33s-29 12 -48 12h-256zM394 250h-243l-39 -250h-69l107 675h329c29 0 54 -6 74 -18s36 -28 48 -48s20 -42 24 -67s4 -50 0 -76c-3 -23 -9 -45 -18 -67
s-20 -42 -34 -61s-30 -35 -48 -49s-38 -24 -60 -31l79 -258h-74z" />
    <glyph glyph-name="S" unicode="S" horiz-adv-x="588" 
d="M49 145l-4 2c33 -32 69 -55 107 -70s81 -22 128 -22c22 0 43 3 63 9s38 15 54 26s29 25 39 41s17 34 20 54c5 33 -5 58 -29 75s-63 32 -117 45c-47 13 -85 27 -114 41s-51 29 -66 45s-25 34 -29 53s-4 40 -1 63c3 24 11 47 24 69s30 41 51 57s46 29 74 39s60 15 95 15
c46 0 90 -6 131 -18s78 -34 111 -66l-40 -55c-29 28 -61 47 -97 57s-74 15 -114 15c-21 0 -41 -3 -59 -9s-34 -14 -48 -24s-26 -22 -35 -36s-15 -29 -18 -46s-2 -32 2 -45s12 -24 24 -34s29 -19 50 -28s48 -18 80 -27c39 -11 72 -23 99 -35s49 -25 65 -40s27 -31 33 -49
s7 -39 4 -62c-4 -29 -13 -55 -28 -79s-34 -45 -57 -62s-49 -31 -79 -41s-62 -15 -96 -15c-55 0 -104 8 -147 24s-82 42 -118 78z" />
    <glyph glyph-name="T" unicode="T" horiz-adv-x="586" 
d="M383 610l-96 -610h-69l97 610h-243l10 65h554l-10 -65h-243z" />
    <glyph glyph-name="U" unicode="U" horiz-adv-x="699" 
d="M215 675l-65 -412c-6 -35 -6 -66 0 -93s17 -49 33 -66s36 -30 60 -39s51 -13 81 -13c27 0 53 4 78 13s48 22 68 39s38 39 53 66s25 58 30 93l66 411h68l-66 -414c-7 -45 -20 -85 -39 -119s-42 -62 -69 -85s-58 -40 -92 -52s-70 -18 -107 -18c-39 0 -74 6 -106 18
s-58 29 -79 52s-36 52 -45 86s-10 74 -3 119l66 414h68z" />
    <glyph glyph-name="V" unicode="V" horiz-adv-x="657" 
d="M77 675h73l149 -608l338 608h76l-387 -675h-76z" />
    <glyph glyph-name="W" unicode="W" horiz-adv-x="969" 
d="M83 675h74l97 -589l260 589h67l83 -592l283 592h72l-330 -675h-74l-80 583l-260 -583h-74z" />
    <glyph glyph-name="X" unicode="X" horiz-adv-x="635" 
d="M326 294l-273 -294h-85l326 347l-199 328h80l168 -280l256 280h82l-308 -334l207 -341h-78z" />
    <glyph glyph-name="Y" unicode="Y" horiz-adv-x="655" 
d="M322 0h-69l38 238l-216 437h75l184 -379l301 379h80l-355 -438z" />
    <glyph glyph-name="Z" unicode="Z" horiz-adv-x="585" 
d="M-9 0l7 46l508 564h-407l10 65h502l-7 -44l-511 -566h433l-11 -65h-524z" />
    <glyph glyph-name="bracketleft" unicode="[" horiz-adv-x="224" 
d="M133 675h121l-10 -64h-53l-127 -797h54l-10 -64h-122z" />
    <glyph glyph-name="backslash" unicode="\" horiz-adv-x="319" 
d="M181 0l-77 675h61l76 -675h-60z" />
    <glyph glyph-name="bracketright" unicode="]" horiz-adv-x="224" 
d="M-33 -186h53l127 797h-53l9 64h122l-146 -925h-122z" />
    <glyph glyph-name="asciicircum" unicode="^" horiz-adv-x="468" 
d="M372 334l-78 282l-164 -280h-72l207 339h75l100 -341h-68z" />
    <glyph glyph-name="underscore" unicode="_" horiz-adv-x="557" 
d="M-51 -73h555l-10 -64h-555z" />
    <glyph glyph-name="grave" unicode="`" horiz-adv-x="225" 
d="M118 683h74l59 -132h-66z" />
    <glyph glyph-name="a" unicode="a" 
d="M250 49h1c25 0 49 5 72 15s44 24 63 42s35 39 48 63s22 50 27 78s5 54 0 78s-14 45 -27 63s-30 32 -50 42s-43 15 -70 15c-25 0 -49 -5 -72 -16s-44 -25 -63 -43s-35 -39 -48 -63s-21 -49 -25 -76s-4 -52 0 -76s13 -45 26 -63s29 -32 49 -43s43 -16 69 -16zM440 87l-1 -2
c-28 -30 -60 -54 -95 -72s-72 -27 -110 -27c-31 0 -60 7 -87 20s-49 31 -67 54s-31 51 -39 83s-9 67 -3 104s18 72 36 104s40 60 66 83s54 41 85 54s63 20 95 20c37 0 71 -9 101 -26s54 -41 71 -71l25 84h43l-78 -495h-44z" />
    <glyph glyph-name="b" unicode="b" 
d="M273 -13l-1 -2c-36 0 -69 9 -99 26s-54 41 -72 71l-27 -83h-43l113 713h64l-39 -252l-11 -44c27 28 58 50 92 66s70 24 107 24c32 0 61 -6 88 -19s49 -31 67 -54s31 -51 39 -83s9 -67 3 -105c-6 -37 -18 -71 -36 -103s-40 -59 -66 -82s-54 -41 -85 -54s-62 -19 -94 -19z
M278 47l-1 -3c25 0 49 5 72 16s44 25 62 43s34 39 47 63s21 49 25 76s4 53 -1 77s-14 45 -27 63s-29 33 -49 44s-42 16 -67 16s-49 -5 -72 -15s-44 -24 -63 -42s-35 -39 -48 -63s-22 -50 -27 -79c-5 -28 -4 -54 2 -78s16 -45 29 -62s30 -31 50 -41s43 -15 68 -15z" />
    <glyph glyph-name="c" unicode="c" horiz-adv-x="500" 
d="M439 67l3 -1c-27 -25 -57 -45 -91 -59s-69 -21 -105 -21c-32 0 -62 6 -90 18s-51 29 -70 51s-33 49 -42 81s-10 68 -4 107c6 40 18 76 36 108s40 60 66 83s55 41 87 53s65 18 98 18c35 0 68 -7 98 -20s55 -32 74 -57l-52 -41c-14 17 -32 31 -54 41s-47 15 -75 15
c-25 0 -49 -5 -72 -15s-44 -24 -63 -42s-35 -39 -48 -63s-22 -50 -27 -79c-5 -28 -5 -54 0 -78s14 -45 27 -62s30 -31 50 -41s43 -15 68 -15c28 0 54 6 78 17s47 26 68 45z" />
    <glyph glyph-name="d" unicode="d" horiz-adv-x="594" 
d="M250 49h-1c25 0 49 5 73 15s45 24 64 41s35 38 48 62s22 50 27 78c5 29 5 56 0 80s-14 45 -27 63s-30 32 -51 42s-45 15 -72 15c-25 0 -49 -5 -72 -16s-43 -25 -61 -43s-33 -39 -46 -63s-21 -49 -25 -76s-4 -52 0 -76s12 -45 24 -63s28 -32 48 -43s44 -16 71 -16zM436 83
l-5 -3c-28 -30 -59 -53 -94 -70s-70 -25 -106 -25c-32 0 -61 7 -88 20s-49 31 -67 54s-31 50 -39 82s-9 67 -3 104c6 38 18 73 36 105s39 60 64 83s53 41 84 54s63 20 96 20c38 0 72 -8 101 -24s53 -38 71 -66l3 44l39 252h66l-113 -713h-44z" />
    <glyph glyph-name="e" unicode="e" horiz-adv-x="542" 
d="M309 450v-1c-22 0 -43 -4 -63 -12s-39 -20 -56 -35s-32 -33 -45 -54s-23 -43 -30 -67l329 9c1 49 -10 88 -33 117s-57 43 -102 43zM454 68v-2c-28 -26 -59 -46 -93 -60s-69 -21 -106 -21c-34 0 -65 6 -94 18s-53 29 -73 51s-35 49 -44 81s-11 68 -5 107
c7 40 20 76 38 108s40 60 66 83s54 41 85 53s62 18 93 18c33 0 63 -6 89 -19s48 -31 65 -54s29 -52 35 -86s6 -72 -1 -115h-402c-3 -27 -1 -52 5 -75s16 -42 30 -58s32 -28 53 -37s45 -13 72 -13c29 0 56 6 81 17s48 27 69 47z" />
    <glyph glyph-name="f" unicode="f" horiz-adv-x="252" 
d="M92 -73l-2 -3c-4 -26 -12 -49 -24 -69s-27 -37 -45 -51s-38 -24 -60 -31s-45 -10 -69 -10l12 60c15 0 29 3 43 8s26 12 36 21s19 20 26 33s12 27 14 42l81 508h-40l10 60h40l9 57c4 26 12 49 24 69s27 37 44 51s37 25 59 32s45 11 69 11l-12 -60c-15 0 -29 -2 -42 -7
s-25 -12 -35 -21s-19 -20 -26 -33s-11 -27 -13 -42l-9 -57h96l-3 -20l-16 -40h-87l-80 -508v0z" />
    <glyph glyph-name="g" unicode="g" 
d="M312 446l-1 -3c-25 0 -49 -5 -72 -16s-44 -25 -63 -43s-35 -39 -48 -63s-21 -49 -25 -76s-4 -52 1 -76s14 -45 27 -63s29 -32 49 -43s43 -16 69 -16c25 0 49 5 72 15s44 24 63 42s35 39 48 63s22 51 27 80s5 55 0 79s-14 45 -27 63s-30 32 -50 42s-43 15 -70 15z
M213 -217l-1 -3c-40 0 -77 4 -111 13s-68 22 -103 39l29 53c31 -15 61 -26 91 -33s63 -10 99 -10c29 0 55 5 78 14s43 21 60 36s30 33 40 53s17 41 20 64l10 60c-26 -26 -56 -47 -89 -62s-68 -23 -104 -23c-31 0 -60 7 -87 20s-49 31 -67 54s-31 51 -39 83s-9 67 -3 104
s18 72 35 104s39 60 65 83s54 41 85 54s63 20 96 20c36 0 69 -8 99 -24s54 -39 72 -68l26 79h43l-76 -483c-5 -33 -15 -63 -29 -91s-32 -52 -55 -72s-50 -36 -81 -47s-65 -17 -103 -17z" />
    <glyph glyph-name="h" unicode="h" horiz-adv-x="582" 
d="M340 444l-5 -2c-37 0 -72 -11 -104 -33s-60 -49 -85 -81c-6 -38 -12 -76 -18 -115s-12 -74 -17 -106c-6 -37 -12 -73 -17 -108h-65l113 714h65l-38 -238l-16 -72c29 32 61 57 96 76s71 28 107 28c26 0 50 -4 73 -12s42 -20 58 -37s27 -38 34 -64s7 -57 1 -93l-47 -302
h-66l47 294c4 26 4 49 0 68s-11 35 -22 47s-24 21 -40 27s-34 9 -54 9z" />
    <glyph glyph-name="i" unicode="i" horiz-adv-x="211" 
d="M163 601h-2c-13 0 -24 5 -32 15s-11 22 -8 36c2 13 9 25 20 35s23 15 36 15s24 -5 32 -15s11 -22 9 -35c-2 -14 -8 -26 -19 -36s-23 -15 -36 -15zM110 495h65l-78 -495h-66z" />
    <glyph glyph-name="j" unicode="j" horiz-adv-x="211" 
d="M161 601h-2c-13 0 -24 5 -32 15s-11 22 -8 36c2 13 9 25 20 35s23 15 36 15s24 -5 32 -15s11 -22 9 -35c-2 -14 -8 -26 -19 -36s-23 -15 -36 -15zM86 -66h1c-4 -25 -12 -48 -24 -69s-27 -39 -45 -54s-38 -26 -60 -34s-45 -12 -68 -12l9 62c15 0 29 3 43 9s26 14 37 24
s20 22 27 35s12 26 14 39l90 561h65z" />
    <glyph glyph-name="k" unicode="k" horiz-adv-x="512" 
d="M261 233h1c-48 -39 -96 -74 -143 -105l-21 -128h-65l113 714h65l-80 -508c125 90 227 186 306 289h81c-61 -80 -131 -154 -209 -222l151 -272l-71 -1z" />
    <glyph glyph-name="l" unicode="l" horiz-adv-x="215" 
d="M148 714h65l-113 -714h-65z" />
    <glyph glyph-name="m" unicode="m" horiz-adv-x="907" 
d="M326 444l-4 -3c-17 0 -34 -3 -50 -9s-31 -14 -46 -24s-29 -22 -42 -36s-26 -29 -38 -44l-52 -329h-66l79 495h47l-2 -91c28 33 58 59 91 77s66 27 99 27c37 0 69 -9 97 -27s46 -47 55 -86c28 34 60 61 95 82s70 31 105 31c25 0 48 -4 69 -12s39 -20 53 -37s24 -38 30 -64
s6 -57 0 -93l-47 -301h-65l46 293c4 26 4 49 1 68s-9 35 -19 47s-22 21 -37 27s-32 9 -51 9c-33 0 -64 -11 -94 -33s-57 -48 -81 -79c-1 -5 -1 -10 -1 -15s-1 -10 -2 -15l-48 -301h-65l47 293c8 52 2 90 -18 114s-49 36 -86 36z" />
    <glyph glyph-name="n" unicode="n" horiz-adv-x="583" 
d="M340 444v-1c-18 0 -36 -3 -54 -9s-35 -14 -51 -24s-31 -22 -46 -36s-28 -29 -40 -45l-52 -330h-66l79 495h47l-3 -92c31 35 64 61 99 79s71 27 107 27c26 0 50 -4 73 -12s42 -20 57 -37s26 -38 33 -64s7 -57 1 -93l-48 -301h-65l47 293c8 52 1 90 -22 114s-55 36 -96 36z
" />
    <glyph glyph-name="o" unicode="o" horiz-adv-x="563" 
d="M239 -13c-31 0 -60 6 -87 18s-50 29 -69 51s-33 49 -41 81s-9 68 -3 107c7 40 19 76 37 108s40 60 66 83s54 41 85 53s63 18 96 18s63 -6 90 -19s50 -31 69 -54s32 -51 40 -83s9 -68 3 -107s-18 -74 -36 -106s-40 -59 -66 -81s-55 -39 -87 -51s-64 -18 -97 -18zM248 49h1
c25 0 49 5 72 15s44 24 63 41s35 38 48 62s22 50 27 79s5 56 0 80s-14 45 -27 63s-29 32 -49 42s-43 15 -69 15c-24 0 -47 -5 -70 -15s-44 -24 -63 -42s-35 -39 -48 -63s-22 -50 -27 -79c-5 -28 -5 -54 0 -78s14 -45 26 -63s28 -32 48 -42s43 -15 68 -15z" />
    <glyph glyph-name="p" unicode="p" 
d="M343 446l-2 -3c-25 0 -49 -5 -72 -15s-44 -24 -63 -41s-35 -38 -48 -62s-22 -50 -27 -78c-5 -29 -4 -55 2 -79s16 -45 29 -63s30 -32 50 -42s43 -15 68 -15s49 5 72 16s44 26 62 44s34 39 47 63s22 50 26 77s4 52 -1 76s-14 45 -27 63s-29 32 -49 43s-42 16 -67 16z
M58 -238l-66 -4l115 730h44l1 -83c28 30 60 54 95 71s71 26 107 26c32 0 61 -6 88 -19s50 -31 68 -54s31 -50 39 -82s9 -66 3 -103c-6 -38 -18 -73 -36 -105s-40 -60 -65 -83s-53 -41 -83 -54s-61 -19 -92 -19c-37 0 -70 9 -100 26s-54 40 -72 69l-4 -47z" />
    <glyph glyph-name="q" unicode="q" 
d="M378 -235l46 266l11 44c-27 -28 -57 -50 -91 -66s-70 -24 -107 -24c-32 0 -61 7 -88 20s-49 31 -67 54s-31 51 -39 83s-9 67 -3 105c6 37 18 72 35 104s38 59 63 82s53 41 84 54s63 20 96 20c36 0 69 -8 99 -25s54 -40 72 -69l27 82h43l-115 -730h-66zM315 443h-5
c-27 0 -52 -5 -75 -16s-44 -25 -62 -43s-33 -39 -45 -63s-20 -49 -24 -76s-3 -52 2 -76s14 -45 27 -63s29 -32 49 -43s42 -16 67 -16s49 5 73 15s45 24 64 42s35 39 48 63s22 51 27 80c5 28 5 54 -1 78s-15 45 -28 62s-30 31 -50 41s-42 15 -67 15z" />
    <glyph glyph-name="r" unicode="r" horiz-adv-x="356" 
d="M32 0l77 494h49l-3 -109c32 37 68 67 107 89s79 33 120 33l-10 -64c-23 0 -45 -3 -66 -10s-41 -16 -61 -27s-38 -24 -54 -39s-30 -31 -43 -48l-51 -319h-65z" />
    <glyph glyph-name="s" unicode="s" horiz-adv-x="477" 
d="M33 108l-3 -1c33 -23 65 -39 96 -47s66 -12 104 -12c31 0 58 7 80 22s35 33 38 54c3 25 -4 44 -22 57s-46 24 -85 33c-38 9 -68 19 -91 30s-40 23 -52 36s-19 27 -22 42s-3 30 -1 46c3 20 10 39 20 56s24 32 41 45s37 23 61 30s50 11 79 11c33 0 66 -5 99 -14
s60 -22 81 -39l-34 -51c-19 13 -42 23 -68 31s-53 12 -82 12c-35 0 -65 -7 -89 -21s-38 -33 -41 -58c-3 -21 3 -38 18 -51s45 -25 89 -36c33 -8 61 -17 84 -26s41 -20 54 -32s22 -26 27 -41s6 -33 3 -53c-3 -21 -10 -40 -21 -57s-25 -32 -43 -45s-39 -23 -63 -30
s-50 -11 -78 -11c-44 0 -83 6 -118 17s-67 28 -96 51z" />
    <glyph glyph-name="t" unicode="t" horiz-adv-x="287" 
d="M230 -13l-1 -3c-66 0 -111 15 -135 45s-32 69 -25 118l45 286h-56l9 60h57l19 126l70 29l-24 -155h113l-7 -45l-12 -15h-104l-44 -284c-3 -15 -3 -29 -1 -41s7 -23 15 -32s19 -16 34 -21s34 -7 57 -7z" />
    <glyph glyph-name="u" unicode="u" horiz-adv-x="569" 
d="M411 92v-1c-29 -32 -61 -57 -95 -76s-68 -28 -102 -28c-25 0 -48 4 -70 12s-40 21 -55 38s-25 39 -31 66s-6 59 0 96l47 297h65l-46 -291c-8 -53 -2 -92 19 -117s52 -37 93 -37c18 0 35 3 51 9s32 14 47 24s30 22 44 36s27 29 39 44l52 331h65l-78 -495h-47z" />
    <glyph glyph-name="v" unicode="v" horiz-adv-x="492" 
d="M49 495h70l97 -423c95 133 169 274 222 423h72c-64 -182 -158 -347 -281 -495h-56z" />
    <glyph glyph-name="w" unicode="w" horiz-adv-x="769" 
d="M54 495l67 -3l72 -425c41 63 78 130 110 201s60 146 84 224h60l69 -427c44 67 83 136 116 207s61 145 84 222h68c-62 -189 -146 -354 -251 -495h-60l-64 402c-23 -73 -51 -142 -84 -208s-72 -130 -117 -193h-60z" />
    <glyph glyph-name="x" unicode="x" horiz-adv-x="494" 
d="M238 211l1 1c-39 -29 -74 -61 -106 -96s-60 -74 -85 -117h-73c32 55 68 104 107 147s82 80 128 111l-143 237h75l115 -200c37 28 70 58 99 91s54 69 75 109h75c-28 -50 -60 -95 -97 -135s-78 -77 -123 -110l151 -249h-74z" />
    <glyph glyph-name="y" unicode="y" horiz-adv-x="489" 
d="M-54 -173v-2c18 0 37 6 57 18s40 27 60 45s39 38 57 60s35 43 50 63l-116 483h71l93 -420c23 31 45 63 66 95s41 65 59 99s35 70 51 107s32 77 47 119h69c-28 -81 -67 -166 -118 -256s-111 -179 -180 -268c-24 -31 -48 -59 -72 -84s-47 -47 -70 -65s-46 -32 -68 -42
s-44 -15 -66 -15z" />
    <glyph glyph-name="z" unicode="z" horiz-adv-x="469" 
d="M396 0h-1c-121 18 -256 18 -405 0l10 60l368 369c-101 -6 -198 -4 -291 6l9 60c132 -13 259 -13 380 0l-10 -60l-365 -366c112 8 217 5 315 -9l-10 -60v0z" />
    <glyph glyph-name="braceleft" unicode="{" horiz-adv-x="292" 
d="M197 -231l1 -2c-22 0 -42 4 -61 11s-35 18 -48 32s-22 31 -28 50s-7 40 -3 63l28 179c5 30 -1 55 -17 75s-38 30 -66 30l10 58c14 0 27 3 40 8s25 12 35 21s19 20 26 33s12 27 14 42l29 188c4 23 12 44 24 63s27 36 44 50s36 25 57 32s43 11 65 11l-9 -58
c-14 0 -27 -3 -40 -8s-25 -12 -36 -21s-20 -20 -27 -33s-11 -27 -13 -42l-30 -183c-5 -29 -16 -55 -33 -77s-37 -40 -60 -54c19 -13 34 -31 44 -53s13 -47 8 -76l-27 -176c-5 -30 0 -55 16 -75s38 -30 66 -30l-9 -58v0z" />
    <glyph glyph-name="bar" unicode="|" horiz-adv-x="201" 
d="M141 714h65l-153 -964h-65z" />
    <glyph glyph-name="braceright" unicode="}" horiz-adv-x="292" 
d="M-49 -173h-6c14 0 27 3 40 8s25 12 36 21s20 20 27 33s12 27 14 42l30 184c5 28 16 53 33 75s37 40 60 53c-19 13 -33 31 -43 53s-13 48 -8 77l27 175c5 30 0 55 -16 75s-38 30 -66 30l9 58c22 0 42 -4 61 -11s35 -17 48 -31s23 -30 29 -49s7 -40 4 -63l-29 -180
c-5 -30 0 -55 16 -75s38 -30 66 -30l-9 -58c-14 0 -27 -3 -40 -8s-24 -12 -34 -21s-19 -20 -26 -33s-12 -27 -14 -42l-30 -187c-4 -23 -12 -44 -24 -63s-26 -35 -43 -49s-36 -24 -57 -31s-42 -11 -64 -11z" />
    <glyph glyph-name="asciitilde" unicode="~" horiz-adv-x="465" 
d="M57 248l-3 -1c7 38 21 66 43 84s45 27 70 27c18 0 34 -3 48 -8s28 -11 41 -18s26 -13 38 -18s26 -8 41 -8c11 0 22 4 32 12s18 23 24 44h33c-6 -37 -18 -66 -37 -87s-43 -31 -73 -31c-17 0 -33 3 -47 8s-28 11 -41 18s-26 13 -39 18s-26 8 -40 8c-15 0 -27 -4 -35 -12
s-15 -20 -20 -36h-35z" />
    <glyph glyph-name="uni00A0" unicode="&#xa0;" horiz-adv-x="180" 
 />
    <glyph glyph-name="exclamdown" unicode="&#xa1;" horiz-adv-x="184" 
d="M132 508c13 0 23 -5 31 -15s11 -22 8 -36c-2 -13 -8 -25 -19 -35s-23 -15 -36 -15s-24 5 -32 15s-11 22 -9 35c3 14 10 26 21 36s23 15 36 15zM126 335l-51 -414l-16 -101h-70l16 101l80 414h41z" />
    <glyph glyph-name="cent" unicode="&#xa2;" horiz-adv-x="505" 
d="M436 67h2c-23 -22 -49 -40 -77 -53s-57 -21 -87 -24l-23 -145h-64l23 145c-28 4 -54 13 -78 27s-44 32 -60 54s-27 48 -34 78s-7 63 -1 98c5 36 16 69 32 99s36 56 59 78s49 40 77 54s57 23 87 27l22 138h64l-22 -138c29 -3 56 -11 80 -24s45 -30 62 -51l-54 -43
c-13 19 -30 34 -52 44s-47 15 -75 15c-25 0 -49 -5 -72 -15s-44 -24 -63 -42s-35 -39 -48 -63s-22 -50 -27 -79c-5 -28 -5 -54 0 -78s14 -45 27 -63s30 -32 50 -42s43 -15 68 -15c27 0 53 5 77 16s46 26 67 45l40 -43v0z" />
    <glyph glyph-name="sterling" unicode="&#xa3;" horiz-adv-x="621" 
d="M13 0l6 50l110 12v256h-80l9 55l71 7l1 52c0 44 8 82 25 114s39 59 65 80s56 37 89 47s65 15 97 15c48 0 92 -9 131 -26s71 -41 95 -72l-44 -45c-23 25 -51 44 -84 56s-69 18 -108 18c-23 0 -46 -3 -69 -10s-44 -18 -63 -32s-34 -32 -46 -54s-18 -48 -18 -79v-60h186
l-10 -56l-176 -7v-257h263l30 127h50l-30 -191h-500z" />
    <glyph glyph-name="currency" unicode="&#xa4;" horiz-adv-x="633" 
d="M450 131l1 2c-25 -18 -51 -32 -79 -42s-56 -15 -85 -15c-28 0 -54 5 -78 14s-45 22 -64 39l-75 -68l-42 51l78 70c-11 21 -18 44 -22 69s-3 53 2 83c5 32 14 62 27 89s29 51 48 72l-57 71l53 47l56 -70c23 17 48 30 75 39s54 14 81 14c55 0 101 -17 138 -51l80 72l42 -51
l-81 -73c11 -21 19 -45 23 -72s4 -56 -1 -88c-5 -30 -13 -58 -25 -84s-27 -49 -44 -70l57 -71l-53 -47zM298 140l2 -3c25 0 49 5 72 15s44 24 62 42s34 39 47 63s22 50 27 78c4 28 4 54 0 79s-12 46 -24 64s-28 32 -48 42s-44 15 -72 15c-24 0 -47 -5 -70 -15
s-44 -24 -63 -42s-35 -39 -48 -64s-22 -51 -27 -79s-5 -54 -1 -78s12 -44 24 -61s28 -31 48 -41s44 -15 71 -15z" />
    <glyph glyph-name="yen" unicode="&#xa5;" horiz-adv-x="624" 
d="M328 142l-23 -142h-68l22 142h-201l9 62h202l9 54l-21 48h-173l9 62h136l-135 307h74l154 -358l266 358h74l-232 -307h128l-9 -62h-166l-37 -49l-9 -53h195l-9 -62h-195z" />
    <glyph glyph-name="brokenbar" unicode="&#xa6;" horiz-adv-x="211" 
d="M138 675h69l-45 -280h-68zM78 298h69l-47 -298h-69z" />
    <glyph glyph-name="section" unicode="&#xa7;" horiz-adv-x="544" 
d="M260 105l1 -2c21 0 41 3 60 8s36 12 51 22s27 22 37 35s16 28 19 45c5 38 -2 67 -22 88c-21 14 -43 23 -67 27s-49 6 -75 6c-19 0 -37 -3 -54 -8s-32 -12 -45 -22s-24 -21 -33 -34s-15 -27 -18 -42c-2 -15 -2 -29 1 -41s9 -23 18 -32s22 -18 39 -26s38 -16 63 -24h12h13z
M195 -236l-6 -5c-43 0 -81 7 -114 21s-64 36 -93 65l42 55c26 -24 53 -42 80 -55s58 -19 93 -19c34 0 64 9 89 27s40 42 45 72c4 27 -2 48 -19 62s-45 27 -84 39c-43 13 -77 26 -103 40s-46 29 -60 46s-23 35 -26 54s-3 40 0 63c3 18 9 36 18 53s21 32 36 46s32 26 52 36
s42 17 66 21c-33 18 -55 40 -67 65s-16 53 -11 84c3 20 10 39 20 57s24 34 41 48s37 25 60 33s48 12 75 12c36 0 71 -5 104 -15s63 -27 90 -51l-38 -57c-23 21 -48 36 -75 44s-56 12 -87 12c-30 0 -56 -8 -78 -24s-35 -35 -39 -58c-5 -30 3 -54 23 -71s48 -31 85 -41
c39 -11 71 -23 97 -36s46 -28 60 -45s23 -36 27 -58s4 -46 0 -73c-5 -36 -21 -67 -47 -94s-60 -46 -101 -58c25 -15 42 -33 50 -54s10 -47 6 -77c-3 -24 -11 -46 -23 -66s-27 -37 -46 -52s-40 -26 -64 -34s-50 -12 -78 -12z" />
    <glyph glyph-name="dieresis" unicode="&#xa8;" horiz-adv-x="362" 
d="M160 591l1 -1c-12 0 -22 4 -31 13s-12 22 -9 39c2 13 9 25 20 35s23 15 36 15c12 0 22 -5 30 -15s11 -21 9 -34c-3 -17 -10 -30 -22 -39s-23 -13 -34 -13zM341 590l-1 -1c-12 0 -22 4 -31 13s-12 22 -9 39c2 13 9 25 20 35s24 15 38 15c12 0 22 -5 30 -15s11 -21 9 -34
c-3 -17 -10 -30 -22 -39s-23 -13 -34 -13z" />
    <glyph glyph-name="copyright" unicode="&#xa9;" horiz-adv-x="756" 
d="M336 -13v-1c-46 0 -88 9 -126 27s-69 43 -94 75s-43 69 -54 111s-13 88 -6 137c8 48 24 93 48 136s54 80 89 112s74 57 117 75s88 27 134 27s88 -9 126 -27s69 -43 94 -75s43 -69 54 -112s13 -88 5 -136c-7 -49 -23 -94 -47 -136s-54 -79 -89 -111s-74 -57 -117 -75
s-88 -27 -134 -27zM341 20l1 -1c41 0 81 8 120 25s74 40 105 69s58 63 80 101s37 79 44 122s6 84 -4 122s-26 72 -49 101s-51 52 -84 69s-70 25 -111 25s-81 -8 -120 -25s-74 -40 -106 -69s-59 -63 -81 -101s-36 -79 -43 -122s-6 -84 4 -122s26 -71 49 -100s51 -52 84 -69
s70 -25 111 -25zM521 185l-6 -3c-22 -21 -46 -37 -73 -48s-55 -16 -84 -16c-27 0 -52 5 -75 15s-42 25 -58 44s-27 41 -34 67s-8 55 -3 87s15 61 30 87s34 49 56 68s46 34 72 45s53 16 80 16c29 0 55 -6 79 -17s44 -27 60 -47l-42 -40c-11 17 -25 30 -43 38s-38 12 -61 12
c-21 0 -41 -4 -60 -12s-36 -19 -52 -34s-29 -32 -40 -52s-18 -41 -21 -64c-4 -23 -4 -44 1 -63s13 -36 24 -50s25 -25 42 -33s36 -12 57 -12c23 0 45 5 66 14s40 22 57 38z" />
    <glyph glyph-name="ordfeminine" unicode="&#xaa;" horiz-adv-x="335" 
d="M169 444l-2 -2c15 0 29 3 43 8s28 12 42 21l10 63l-61 -7c-17 -1 -31 -5 -43 -11s-19 -18 -22 -35c-1 -10 1 -19 6 -26s14 -11 27 -11zM252 430h4c-17 -11 -34 -19 -51 -24s-35 -8 -54 -8c-28 0 -48 8 -60 23s-16 34 -13 57c5 29 18 50 39 63s46 21 75 23l76 6l4 25
c3 13 1 23 -7 30s-25 11 -52 11c-15 0 -29 -1 -42 -3s-27 -6 -42 -11l-2 45c17 7 33 12 48 15s33 5 54 5c36 0 62 -8 79 -24s23 -38 18 -66l-31 -197h-37z" />
    <glyph glyph-name="guillemotleft" unicode="&#xab;" horiz-adv-x="486" 
d="M37 216l11 73l222 184l-12 -79l-174 -142l128 -138l-12 -82zM236 216l11 73l222 184l-12 -79l-173 -142l128 -138l-14 -82z" />
    <glyph glyph-name="logicalnot" unicode="&#xac;" horiz-adv-x="645" 
d="M480 76l42 267h-451l11 66h518l-53 -333h-67z" />
    <glyph glyph-name="registered" unicode="&#xae;" horiz-adv-x="756" 
d="M336 -13v-1c-46 0 -88 9 -126 27s-69 43 -94 75s-43 69 -54 111s-13 88 -6 137c8 48 24 93 48 136s54 80 89 112s74 57 117 75s88 27 134 27s88 -9 126 -27s69 -43 94 -75s43 -69 54 -112s13 -88 5 -136c-7 -49 -23 -94 -47 -136s-54 -79 -89 -111s-74 -57 -117 -75
s-88 -27 -134 -27zM341 20l1 -1c41 0 81 8 120 25s74 40 105 69s58 63 80 101s37 79 44 122s6 84 -4 122s-26 72 -49 101s-51 52 -84 69s-70 25 -111 25s-81 -8 -120 -25s-74 -40 -106 -69s-59 -63 -81 -101s-36 -79 -43 -122s-6 -84 4 -122s26 -71 49 -100s51 -52 84 -69
s70 -25 111 -25zM336 487l-25 -154h123c19 0 35 8 47 24s20 34 23 53s1 37 -6 53s-20 24 -39 24h-123zM405 285l-102 -2l-24 -152h-52l63 402h183c16 0 30 -3 42 -10s22 -16 29 -28s12 -25 14 -40s2 -30 0 -45c-5 -28 -16 -54 -33 -77s-39 -38 -66 -45l47 -155h-54z" />
    <glyph glyph-name="macron" unicode="&#xaf;" horiz-adv-x="365" 
d="M128 643h261l-9 -58h-261z" />
    <glyph glyph-name="degree" unicode="&#xb0;" horiz-adv-x="388" 
d="M85 533c3 22 10 42 21 61s24 35 39 49s33 25 53 33s41 12 64 12s43 -4 60 -12s31 -19 42 -33s19 -30 24 -49s6 -39 3 -61s-10 -43 -21 -62s-24 -36 -40 -50s-34 -25 -54 -33s-41 -12 -64 -12c-24 0 -45 4 -62 12s-31 19 -42 33s-18 31 -22 50s-4 40 -1 62zM221 431l-2 3
c27 0 52 9 74 27s35 42 40 72c5 33 0 58 -15 75s-37 26 -67 26c-13 0 -26 -2 -38 -7s-23 -12 -33 -21s-19 -20 -26 -33s-12 -27 -15 -42c-5 -33 0 -58 15 -75s37 -25 67 -25z" />
    <glyph glyph-name="plusminus" unicode="&#xb1;" horiz-adv-x="494" 
d="M281 272l-25 -160h-61l26 160h-160l10 64h160l25 159h61l-26 -159h162l-9 -64h-163zM27 58h383l-9 -58h-384z" />
    <glyph glyph-name="two.sups" unicode="&#xb2;" horiz-adv-x="307" 
d="M50 340l2 48c3 21 10 39 21 54s24 28 39 39s31 21 48 30s33 17 47 25s26 16 36 24s16 18 18 29c2 14 -2 25 -12 34s-24 13 -41 13c-37 0 -73 -14 -107 -41l-21 37c23 19 46 33 69 42s48 13 75 13c33 0 59 -9 77 -27s25 -41 20 -69c-3 -17 -9 -31 -19 -43s-22 -23 -36 -32
s-29 -18 -45 -26s-31 -16 -45 -25s-26 -19 -37 -30s-17 -24 -19 -39l-1 -5h181l-8 -51h-242z" />
    <glyph glyph-name="three.sups" unicode="&#xb3;" horiz-adv-x="305" 
d="M169 334l-4 -2c-25 0 -47 4 -67 12s-38 21 -55 39l32 38c15 -13 30 -22 44 -28s31 -9 50 -9c22 0 39 5 51 14s20 21 23 36c2 15 -4 28 -18 38s-35 15 -63 15l7 47c19 0 35 2 47 6s22 9 29 14s12 11 15 18s5 14 6 20c3 15 -1 25 -11 31s-24 9 -41 9c-20 0 -37 -3 -52 -8
s-32 -13 -51 -24l-16 41c39 29 84 43 134 43c31 0 56 -7 75 -20s26 -35 21 -65c-3 -18 -10 -35 -21 -50s-27 -27 -47 -36c16 -9 28 -20 36 -34s10 -29 7 -46c-5 -30 -18 -54 -39 -72s-52 -27 -92 -27z" />
    <glyph glyph-name="acute" unicode="&#xb4;" horiz-adv-x="225" 
d="M94 550l100 132h80l-109 -132h-71z" />
    <glyph glyph-name="mu" unicode="&#xb5;" horiz-adv-x="575" 
d="M87 -66l-3 -2c-4 -25 -12 -48 -24 -69s-27 -39 -45 -54s-38 -26 -60 -34s-45 -12 -68 -12l9 61c30 0 57 10 80 30s37 46 42 78l89 561h65l-46 -291c-4 -27 -4 -50 0 -69s11 -35 21 -47s23 -21 39 -27s34 -9 54 -9c35 0 68 11 99 33s59 49 84 81l52 330h65l-78 -495h-47
l2 93c-29 -32 -60 -58 -94 -77s-68 -29 -103 -29c-23 0 -45 4 -65 11s-38 18 -53 33l-15 -96v0z" />
    <glyph glyph-name="paragraph" unicode="&#xb6;" horiz-adv-x="650" 
d="M545 611l-77 -2l-134 -846h-68l64 401h-62c-40 0 -74 8 -103 24s-52 37 -69 63s-28 55 -34 88s-6 66 -1 100c5 29 15 58 31 86s36 53 61 75s54 40 87 54s70 21 110 21h320l-9 -64h-48l-133 -846h-69z" />
    <glyph glyph-name="periodcentered" unicode="&#xb7;" horiz-adv-x="207" 
d="M110 292h-1c-14 0 -25 5 -33 15s-11 22 -9 36c3 13 10 25 21 35s23 15 36 15s24 -5 32 -15s11 -22 9 -35c-2 -14 -8 -26 -19 -36s-23 -15 -36 -15z" />
    <glyph glyph-name="cedilla" unicode="&#xb8;" horiz-adv-x="234" 
d="M4 -125v1c8 -8 17 -13 26 -16s19 -4 30 -4c9 0 17 2 24 7s11 12 12 21c1 10 -5 18 -18 23s-32 8 -57 8l40 89h42l-22 -51c31 -2 52 -8 63 -18s15 -26 12 -47s-14 -39 -32 -54s-39 -22 -63 -22c-21 0 -38 3 -50 9s-20 13 -25 20z" />
    <glyph glyph-name="one.sups" unicode="&#xb9;" horiz-adv-x="234" 
d="M57 340l8 51h58l36 228l-66 -36l-17 45l93 50h56l-46 -287h58l-7 -51h-173z" />
    <glyph glyph-name="ordmasculine" unicode="&#xba;" horiz-adv-x="349" 
d="M87 545h-5c3 20 9 39 18 56s21 32 35 45s30 23 47 30s35 11 54 11c20 0 38 -4 53 -11s28 -17 38 -30s17 -28 21 -45s4 -36 1 -56s-9 -39 -18 -57s-20 -33 -34 -46s-29 -23 -46 -30s-36 -11 -56 -11c-21 0 -39 4 -54 11s-27 17 -36 30s-15 28 -18 46s-3 37 0 57zM200 451
h-3c22 0 42 9 60 26s30 40 35 68c5 30 1 53 -12 69s-31 24 -53 24c-11 0 -21 -2 -31 -7s-19 -11 -28 -19s-16 -18 -22 -30s-10 -24 -12 -37c-5 -31 -1 -54 12 -70s31 -24 54 -24z" />
    <glyph glyph-name="guillemotright" unicode="&#xbb;" horiz-adv-x="486" 
d="M229 115l173 139l-128 142l12 77l163 -184l-12 -73l-221 -184zM30 115l173 139l-129 142l12 77l164 -184l-12 -73l-221 -184z" />
    <glyph glyph-name="onequarter" unicode="&#xbc;" horiz-adv-x="664" 
d="M441 675h61l-289 -675h-61zM51 340l8 51h58l36 228l-66 -36l-17 45l93 50h56l-46 -287h58l-7 -51h-173zM552 270l-134 -148h111zM577 72l-12 -72h-55l11 72h-171l8 50l202 216h59l-34 -216h45l-8 -50h-45z" />
    <glyph glyph-name="onehalf" unicode="&#xbd;" horiz-adv-x="694" 
d="M441 675h61l-289 -675h-61zM51 340l8 51h58l36 228l-66 -36l-17 45l93 50h56l-46 -287h58l-7 -51h-173zM391 0l4 49c3 20 10 38 21 53s24 28 39 39s31 21 48 30s33 17 47 25s26 16 36 24s16 18 18 29c3 14 -1 25 -11 34s-24 13 -41 13c-37 0 -73 -14 -107 -41l-21 37
c23 19 46 33 69 42s48 13 75 13c34 0 60 -9 77 -27s23 -41 18 -69c-3 -17 -10 -31 -21 -43s-23 -23 -37 -32s-29 -18 -45 -26s-31 -16 -45 -25s-26 -19 -36 -30s-16 -24 -18 -39l-1 -5h181l-8 -51h-242z" />
    <glyph glyph-name="threequarters" unicode="&#xbe;" horiz-adv-x="693" 
d="M473 675h61l-290 -675h-61zM167 334v-2c-26 0 -49 4 -69 12s-38 21 -55 39l32 38c15 -13 30 -22 44 -28s31 -9 50 -9c22 0 39 5 51 14s19 21 22 36s-3 28 -17 38s-35 15 -64 15l8 47c19 0 35 2 47 6s22 9 29 14s12 11 15 18s5 14 6 20c2 15 -2 25 -12 31s-23 9 -40 9
c-20 0 -37 -3 -52 -8s-32 -13 -51 -24l-17 41c41 29 86 43 135 43c31 0 56 -7 75 -20s26 -35 21 -65c-3 -18 -10 -35 -21 -50s-27 -27 -47 -36c16 -9 28 -20 35 -34s9 -29 6 -46c-5 -30 -18 -54 -39 -72s-52 -27 -92 -27zM581 268l-135 -148h111zM605 70l-12 -72h-55l11 72
h-171l8 50l202 216h59l-34 -216h45l-8 -50h-45z" />
    <glyph glyph-name="questiondown" unicode="&#xbf;" horiz-adv-x="513" 
d="M312 411v-1c-13 0 -23 5 -30 14s-10 20 -8 33c3 13 10 25 20 35s22 15 35 15s23 -5 30 -15s10 -21 8 -34s-8 -24 -19 -33s-23 -14 -36 -14zM431 -93h1c-36 -29 -73 -51 -111 -66s-76 -22 -114 -22c-41 0 -75 5 -103 15s-50 24 -67 41s-28 38 -34 62s-7 50 -3 78
c8 54 33 100 75 137s101 59 177 66l23 146h63l-31 -202c-34 1 -65 -2 -93 -9s-52 -17 -73 -30s-38 -29 -51 -48s-21 -39 -24 -61c-7 -41 1 -73 23 -96s62 -35 119 -35c36 0 71 7 104 20s64 31 93 54z" />
    <glyph glyph-name="Agrave" unicode="&#xc0;" horiz-adv-x="656" 
d="M297 856h77l58 -132h-68zM384 601l-199 -351h286zM487 185h-338l-105 -185h-74l387 675h75l174 -675h-73z" />
    <glyph glyph-name="Aacute" unicode="&#xc1;" horiz-adv-x="656" 
d="M369 724l101 132h78l-108 -132h-71zM384 601l-199 -351h286zM487 185h-338l-105 -185h-74l387 675h75l174 -675h-73z" />
    <glyph glyph-name="Acircumflex" unicode="&#xc2;" horiz-adv-x="656" 
d="M414 819l-77 -95h-72l109 132h90l67 -132h-69zM384 601l-199 -351h286zM487 185h-338l-105 -185h-74l387 675h75l174 -675h-73z" />
    <glyph glyph-name="Atilde" unicode="&#xc3;" horiz-adv-x="656" 
d="M269 756h-4c5 29 17 51 35 65s36 21 55 21c12 0 23 -2 32 -6s18 -8 27 -13s17 -9 25 -13s17 -6 27 -6c7 0 13 2 19 6s11 12 14 23h38c-5 -29 -15 -52 -30 -68s-33 -24 -54 -24c-12 0 -23 2 -33 6s-19 8 -28 13s-18 9 -27 13s-18 6 -27 6c-15 0 -25 -8 -30 -23h-39z
M380 601l-199 -351h286zM483 185h-338l-105 -185h-74l387 675h75l174 -675h-73z" />
    <glyph glyph-name="Adieresis" unicode="&#xc4;" horiz-adv-x="656" 
d="M303 744v-2c-12 0 -22 5 -31 14s-12 22 -9 38c2 14 9 26 20 36s23 15 36 15s23 -5 31 -15s11 -22 9 -36c-3 -16 -10 -28 -22 -37s-23 -13 -34 -13zM498 742l1 -2c-12 0 -22 5 -31 14s-12 22 -9 38c2 14 9 26 20 36s23 15 36 15s23 -5 31 -15s11 -22 8 -36
c-3 -16 -10 -28 -22 -37s-23 -13 -34 -13zM385 597l-199 -351h286zM488 181h-338l-105 -185h-74l387 675h75l174 -675h-73z" />
    <glyph glyph-name="Aring" unicode="&#xc5;" horiz-adv-x="656" 
d="M400 689l-2 -2c13 0 25 5 35 15s15 23 15 39c0 18 -5 32 -15 41s-21 14 -34 14s-25 -5 -35 -15s-15 -23 -15 -40s5 -30 15 -39s22 -13 36 -13zM382 599l-199 -351h286zM485 183h-337l-105 -185h-74l376 655c-15 9 -27 21 -35 36s-12 32 -12 51c0 29 9 53 28 72
s43 29 73 29s54 -9 72 -28s27 -43 27 -72c0 -22 -5 -41 -16 -58s-26 -29 -45 -36l167 -649h-73z" />
    <glyph glyph-name="AE" unicode="&#xc6;" horiz-adv-x="955" 
d="M517 610h-89l-228 -356h261zM450 189h-291l-121 -189h-73l435 675h566l-11 -65h-369l-37 -230h351l-10 -65h-351l-39 -250h371l-9 -65h-442z" />
    <glyph glyph-name="Ccedilla" unicode="&#xc7;" horiz-adv-x="667" 
d="M297 -189l-1 -3c-21 0 -37 3 -49 9s-21 13 -26 20l19 34c8 -8 17 -13 26 -16s19 -4 30 -4c10 0 19 2 26 7s11 12 12 21c1 10 -5 18 -18 23s-32 8 -57 8l34 76c-41 5 -78 18 -111 38s-60 45 -81 76s-36 66 -45 106s-10 83 -3 128c8 51 24 98 48 141s54 80 89 111
s74 55 117 73s87 27 132 27c52 0 100 -9 143 -27s77 -45 102 -80l-51 -41c-21 28 -50 49 -87 63s-76 21 -117 21c-37 0 -73 -7 -107 -22s-65 -35 -93 -61s-51 -56 -70 -91s-32 -72 -39 -112c-6 -39 -5 -76 3 -111s22 -65 42 -90s45 -45 75 -60s64 -22 102 -22
c40 0 80 8 120 23s75 38 105 68l37 -50c-17 -17 -36 -32 -58 -45s-44 -24 -67 -33s-47 -16 -72 -21s-49 -7 -73 -7l-16 -36c31 -2 52 -8 63 -18s15 -26 12 -47s-14 -39 -32 -54s-39 -22 -64 -22z" />
    <glyph glyph-name="Egrave" unicode="&#xc8;" horiz-adv-x="581" 
d="M297 856h76l59 -132h-68zM154 675h437l-10 -65h-369l-36 -229h349l-10 -65h-349l-40 -251h371l-10 -65h-440z" />
    <glyph glyph-name="Eacute" unicode="&#xc9;" horiz-adv-x="581" 
d="M340 724l100 132h78l-108 -132h-70zM154 675h437l-10 -65h-369l-36 -229h349l-10 -65h-349l-40 -251h371l-10 -65h-440z" />
    <glyph glyph-name="Ecircumflex" unicode="&#xca;" horiz-adv-x="581" 
d="M402 819l-78 -95h-72l109 132h90l67 -132h-69zM154 675h437l-10 -65h-369l-36 -229h349l-10 -65h-349l-40 -251h371l-10 -65h-440z" />
    <glyph glyph-name="Edieresis" unicode="&#xcb;" horiz-adv-x="581" 
d="M294 744v-2c-12 0 -22 5 -31 14s-12 22 -9 38c2 14 9 26 20 36s23 15 36 15s23 -5 31 -15s11 -22 9 -36c-3 -16 -10 -28 -22 -37s-23 -13 -34 -13zM489 742l1 -2c-12 0 -22 5 -31 14s-12 22 -9 38c2 14 9 26 20 36s23 15 36 15s23 -5 31 -15s11 -22 8 -36
c-3 -16 -10 -28 -22 -37s-23 -13 -34 -13zM155 671h437l-10 -65h-369l-36 -229h349l-10 -65h-349l-40 -251h371l-10 -65h-440z" />
    <glyph glyph-name="Igrave" unicode="&#xcc;" horiz-adv-x="243" 
d="M96 856h76l59 -132h-68zM154 675h68l-106 -675h-69z" />
    <glyph glyph-name="Iacute" unicode="&#xcd;" horiz-adv-x="243" 
d="M164 724l101 132h78l-108 -132h-71zM154 675h68l-106 -675h-69z" />
    <glyph glyph-name="Icircumflex" unicode="&#xce;" horiz-adv-x="243" 
d="M216 819l-78 -95h-71l108 132h90l67 -132h-68zM154 675h68l-106 -675h-69z" />
    <glyph glyph-name="Idieresis" unicode="&#xcf;" horiz-adv-x="243" 
d="M98 744l-1 -2c-12 0 -22 5 -31 14s-12 22 -9 38c3 14 10 26 21 36s23 15 36 15s23 -5 31 -15s11 -22 9 -36c-3 -16 -10 -28 -22 -37s-23 -13 -34 -13zM292 742l-1 -2c-11 0 -21 5 -30 14s-12 22 -9 38c3 14 10 26 21 36s23 15 36 15s23 -5 31 -15s11 -22 8 -36
c-3 -16 -10 -28 -22 -37s-23 -13 -34 -13zM152 671h68l-106 -675h-69z" />
    <glyph glyph-name="Eth" unicode="&#xd0;" horiz-adv-x="735" 
d="M165 314l-39 -248h223c33 0 66 7 98 21s61 34 87 59s48 54 66 87s30 68 36 105s5 72 -3 105s-21 62 -39 87s-41 45 -68 59s-57 21 -90 21h-224l-36 -231h197l-10 -65h-198zM97 315l-62 3l10 65h60l47 296h292c43 0 82 -9 117 -27s65 -42 89 -72s41 -66 51 -107
s11 -85 4 -132s-22 -91 -45 -132s-51 -77 -84 -108s-70 -55 -111 -73s-83 -27 -126 -27h-292z" />
    <glyph glyph-name="Ntilde" unicode="&#xd1;" horiz-adv-x="730" 
d="M330 756h-1c5 29 17 51 35 65s36 21 55 21c12 0 23 -2 32 -6s18 -8 27 -13s17 -9 25 -13s17 -6 27 -6c7 0 14 2 20 6s11 12 14 23h37c-5 -29 -15 -52 -30 -68s-33 -24 -54 -24c-12 0 -23 2 -33 6s-20 8 -29 13s-18 9 -27 13s-18 6 -28 6c-15 0 -25 -8 -31 -23h-39z
M206 576l-91 -576h-69l107 675h68l328 -577l91 577h69l-107 -675h-69z" />
    <glyph glyph-name="Ograve" unicode="&#xd2;" horiz-adv-x="768" 
d="M350 856h76l59 -132h-68zM342 -13l1 -1c-47 0 -90 9 -129 27s-71 43 -97 75s-45 69 -56 111s-13 88 -6 137c8 48 24 93 48 136s54 80 90 112s76 57 121 75s91 27 139 27c47 0 90 -9 129 -27s71 -43 97 -75s45 -69 56 -112s13 -88 6 -136c-8 -49 -24 -94 -49 -136
s-55 -79 -91 -111s-76 -57 -121 -75s-91 -27 -138 -27zM353 52l-1 -5c37 0 73 8 108 23s67 36 96 62s53 56 73 90s33 71 39 110s5 76 -3 111s-22 65 -42 91s-46 47 -77 62s-66 23 -105 23c-37 0 -73 -7 -108 -22s-67 -35 -96 -61s-53 -56 -73 -91s-33 -72 -39 -111
s-5 -75 4 -109s24 -64 44 -90s46 -46 77 -61s65 -22 103 -22z" />
    <glyph glyph-name="Oacute" unicode="&#xd3;" horiz-adv-x="768" 
d="M416 723l100 132h78l-108 -132h-70zM342 -13l1 -1c-47 0 -90 9 -129 27s-71 43 -97 75s-45 69 -56 111s-13 88 -6 137c8 48 24 93 48 136s54 80 90 112s76 57 121 75s91 27 139 27c47 0 90 -9 129 -27s71 -43 97 -75s45 -69 56 -112s13 -88 6 -136
c-8 -49 -24 -94 -49 -136s-55 -79 -91 -111s-76 -57 -121 -75s-91 -27 -138 -27zM353 52l-1 -5c37 0 73 8 108 23s67 36 96 62s53 56 73 90s33 71 39 110s5 76 -3 111s-22 65 -42 91s-46 47 -77 62s-66 23 -105 23c-37 0 -73 -7 -108 -22s-67 -35 -96 -61s-53 -56 -73 -91
s-33 -72 -39 -111s-5 -75 4 -109s24 -64 44 -90s46 -46 77 -61s65 -22 103 -22z" />
    <glyph glyph-name="Ocircumflex" unicode="&#xd4;" horiz-adv-x="768" 
d="M470 819l-78 -95h-72l109 132h90l67 -132h-69zM342 -13l1 -1c-47 0 -90 9 -129 27s-71 43 -97 75s-45 69 -56 111s-13 88 -6 137c8 48 24 93 48 136s54 80 90 112s76 57 121 75s91 27 139 27c47 0 90 -9 129 -27s71 -43 97 -75s45 -69 56 -112s13 -88 6 -136
c-8 -49 -24 -94 -49 -136s-55 -79 -91 -111s-76 -57 -121 -75s-91 -27 -138 -27zM353 52l-1 -5c37 0 73 8 108 23s67 36 96 62s53 56 73 90s33 71 39 110s5 76 -3 111s-22 65 -42 91s-46 47 -77 62s-66 23 -105 23c-37 0 -73 -7 -108 -22s-67 -35 -96 -61s-53 -56 -73 -91
s-33 -72 -39 -111s-5 -75 4 -109s24 -64 44 -90s46 -46 77 -61s65 -22 103 -22z" />
    <glyph glyph-name="Otilde" unicode="&#xd5;" horiz-adv-x="768" 
d="M328 756h-4c5 29 17 51 35 65s36 21 55 21c12 0 23 -2 32 -6s18 -8 27 -13s17 -9 25 -13s17 -6 27 -6c7 0 13 2 19 6s11 12 14 23h38c-5 -29 -15 -52 -30 -68s-33 -24 -54 -24c-12 0 -23 2 -33 6s-19 8 -28 13s-18 9 -27 13s-18 6 -27 6c-15 0 -25 -8 -30 -23h-39z
M338 -13l1 -1c-47 0 -90 9 -129 27s-71 43 -97 75s-45 69 -56 111s-13 88 -6 137c8 48 24 93 48 136s54 80 90 112s76 57 121 75s91 27 139 27c47 0 90 -9 129 -27s71 -43 97 -75s45 -69 56 -112s13 -88 6 -136c-8 -49 -24 -94 -49 -136s-55 -79 -91 -111s-76 -57 -121 -75
s-91 -27 -138 -27zM349 52l-1 -5c37 0 73 8 108 23s67 36 96 62s53 56 73 90s33 71 39 110s5 76 -3 111s-22 65 -42 91s-46 47 -77 62s-66 23 -105 23c-37 0 -73 -7 -108 -22s-67 -35 -96 -61s-53 -56 -73 -91s-33 -72 -39 -111s-5 -75 4 -109s24 -64 44 -90s46 -46 77 -61
s65 -22 103 -22z" />
    <glyph glyph-name="Odieresis" unicode="&#xd6;" horiz-adv-x="768" 
d="M364 744l-1 -2c-11 0 -21 5 -30 14s-12 22 -9 38c2 14 9 26 20 36s23 15 36 15s24 -5 32 -15s11 -22 8 -36c-3 -16 -10 -28 -22 -37s-23 -13 -34 -13zM558 742l-1 -2c-11 0 -21 5 -30 14s-12 22 -9 38c2 14 9 26 20 36s23 15 36 15s24 -5 32 -15s11 -22 8 -36
c-3 -16 -10 -28 -22 -37s-23 -13 -34 -13zM340 -17l1 -1c-47 0 -90 9 -129 27s-71 43 -97 75s-45 69 -56 111s-13 88 -6 137c8 48 24 93 48 136s54 80 90 112s76 57 121 75s91 27 139 27c47 0 90 -9 129 -27s71 -43 97 -75s45 -69 56 -112s13 -88 6 -136
c-8 -49 -24 -94 -49 -136s-55 -79 -91 -111s-76 -57 -121 -75s-91 -27 -138 -27zM351 48l-1 -5c37 0 73 8 108 23s67 36 96 62s53 56 73 90s33 71 39 110s5 76 -3 111s-22 65 -42 91s-46 47 -77 62s-66 23 -105 23c-37 0 -73 -7 -108 -22s-67 -35 -96 -61s-53 -56 -73 -91
s-33 -72 -39 -111s-5 -75 4 -109s24 -64 44 -90s46 -46 77 -61s65 -22 103 -22z" />
    <glyph glyph-name="multiply" unicode="&#xd7;" horiz-adv-x="439" 
d="M211 198l-137 -124l-36 46l137 124l-98 123l50 45l98 -123l137 123l36 -45l-136 -123l98 -124l-51 -46z" />
    <glyph glyph-name="Oslash" unicode="&#xd8;" horiz-adv-x="768" 
d="M125 337l-1 1c-7 -43 -5 -83 6 -120s29 -69 54 -96l398 455c-38 30 -85 45 -141 45c-37 0 -73 -7 -108 -22s-67 -35 -96 -61s-53 -56 -73 -91s-33 -72 -39 -111zM351 54h3c37 0 73 8 108 23s67 36 96 62s53 56 73 90s33 71 39 110c7 43 5 83 -6 120s-29 69 -54 96
l-399 -455c19 -15 40 -26 63 -34s49 -12 77 -12zM344 -12h-1c-35 0 -67 5 -97 15s-57 24 -82 42l-108 -124h-47l129 147c-33 32 -57 71 -72 118s-18 98 -9 153c8 48 24 93 48 136s54 80 90 112s76 57 121 75s91 27 139 27c35 0 67 -5 97 -15s57 -24 81 -41l110 125h46
l-129 -148c34 -33 59 -73 74 -120s18 -98 9 -153c-8 -49 -24 -94 -49 -136s-55 -79 -91 -111s-76 -57 -121 -75s-91 -27 -138 -27z" />
    <glyph glyph-name="Ugrave" unicode="&#xd9;" horiz-adv-x="699" 
d="M339 856h77l58 -132h-68zM215 675l-65 -412c-6 -35 -6 -66 0 -93s17 -49 33 -66s36 -30 60 -39s51 -13 81 -13c27 0 53 4 78 13s48 22 68 39s38 39 53 66s25 58 30 93l66 411h68l-66 -414c-7 -45 -20 -85 -39 -119s-42 -62 -69 -85s-58 -40 -92 -52s-70 -18 -107 -18
c-39 0 -74 6 -106 18s-58 29 -79 52s-36 52 -45 86s-10 74 -3 119l66 414h68z" />
    <glyph glyph-name="Uacute" unicode="&#xda;" horiz-adv-x="699" 
d="M377 724l101 132h78l-108 -132h-71zM215 675l-65 -412c-6 -35 -6 -66 0 -93s17 -49 33 -66s36 -30 60 -39s51 -13 81 -13c27 0 53 4 78 13s48 22 68 39s38 39 53 66s25 58 30 93l66 411h68l-66 -414c-7 -45 -20 -85 -39 -119s-42 -62 -69 -85s-58 -40 -92 -52
s-70 -18 -107 -18c-39 0 -74 6 -106 18s-58 29 -79 52s-36 52 -45 86s-10 74 -3 119l66 414h68z" />
    <glyph glyph-name="Ucircumflex" unicode="&#xdb;" horiz-adv-x="699" 
d="M441 819l-78 -95h-72l109 132h90l67 -132h-68zM215 675l-65 -412c-6 -35 -6 -66 0 -93s17 -49 33 -66s36 -30 60 -39s51 -13 81 -13c27 0 53 4 78 13s48 22 68 39s38 39 53 66s25 58 30 93l66 411h68l-66 -414c-7 -45 -20 -85 -39 -119s-42 -62 -69 -85s-58 -40 -92 -52
s-70 -18 -107 -18c-39 0 -74 6 -106 18s-58 29 -79 52s-36 52 -45 86s-10 74 -3 119l66 414h68z" />
    <glyph glyph-name="Udieresis" unicode="&#xdc;" horiz-adv-x="699" 
d="M331 744v-2c-12 0 -22 5 -31 14s-12 22 -9 38c2 14 9 26 20 36s23 15 36 15s23 -5 31 -15s11 -22 9 -36c-3 -16 -10 -28 -22 -37s-23 -13 -34 -13zM526 742l1 -2c-12 0 -22 5 -31 14s-12 22 -9 38c2 14 9 26 20 36s23 15 36 15s23 -5 31 -15s11 -22 8 -36
c-3 -16 -10 -28 -22 -37s-23 -13 -34 -13zM216 671l-65 -412c-6 -35 -6 -66 0 -93s17 -49 33 -66s36 -30 60 -39s51 -13 81 -13c27 0 53 4 78 13s48 22 68 39s38 39 53 66s25 58 30 93l66 411h68l-66 -414c-7 -45 -20 -85 -39 -119s-42 -62 -69 -85s-58 -40 -92 -52
s-70 -18 -107 -18c-39 0 -74 6 -106 18s-58 29 -79 52s-36 52 -45 86s-10 74 -3 119l66 414h68z" />
    <glyph glyph-name="Yacute" unicode="&#xdd;" horiz-adv-x="655" 
d="M362 724l101 132h78l-109 -132h-70zM322 0h-69l38 238l-216 437h75l184 -379l301 379h80l-355 -438z" />
    <glyph glyph-name="Thorn" unicode="&#xde;" horiz-adv-x="628" 
d="M194 494l-50 -308h250c20 0 38 5 55 14s32 21 45 36s23 32 31 50s14 37 17 56s3 38 1 56s-7 34 -15 48s-19 26 -33 35s-31 13 -51 13h-250zM134 121l-18 -127h-69l107 675h68l-18 -117h261c28 0 52 -6 72 -18s36 -28 48 -48s20 -43 24 -69s4 -52 0 -79
c-5 -27 -13 -54 -25 -80s-27 -49 -46 -69s-40 -36 -64 -49s-50 -19 -79 -19h-261z" />
    <glyph glyph-name="germandbls" unicode="&#xdf;" horiz-adv-x="587" 
d="M284 376l15 -2c24 0 47 3 69 8s42 13 60 23s33 23 45 39s20 34 23 54s2 38 -4 54s-15 29 -28 40s-28 19 -46 25s-38 9 -60 9s-43 -3 -63 -9s-38 -15 -54 -26s-29 -25 -40 -42s-18 -37 -21 -59l-78 -489h-65l78 489c5 33 15 62 30 87s34 46 56 63s47 30 75 38s58 12 90 12
c31 0 60 -4 86 -12s48 -20 66 -35s31 -34 39 -57s10 -49 5 -79c-7 -39 -22 -72 -46 -98s-53 -46 -88 -59c39 -14 69 -35 90 -64s28 -65 21 -108c-5 -32 -16 -60 -32 -84s-36 -44 -60 -60s-51 -28 -81 -36s-61 -12 -93 -12c-16 0 -32 1 -47 2s-30 4 -45 8l11 62
c15 -5 30 -8 45 -9s30 -1 46 -1c23 0 45 3 66 9s40 15 57 26s31 25 42 42s18 36 21 57s1 40 -7 56s-20 30 -37 41s-37 20 -61 26s-50 9 -78 9h-12z" />
    <glyph glyph-name="agrave" unicode="&#xe0;" 
d="M232 683h74l59 -132h-66zM250 49h1c25 0 49 5 72 15s44 24 63 42s35 39 48 63s22 50 27 78s5 54 0 78s-14 45 -27 63s-30 32 -50 42s-43 15 -70 15c-25 0 -49 -5 -72 -16s-44 -25 -63 -43s-35 -39 -48 -63s-21 -49 -25 -76s-4 -52 0 -76s13 -45 26 -63s29 -32 49 -43
s43 -16 69 -16zM440 87l-1 -2c-28 -30 -60 -54 -95 -72s-72 -27 -110 -27c-31 0 -60 7 -87 20s-49 31 -67 54s-31 51 -39 83s-9 67 -3 104s18 72 36 104s40 60 66 83s54 41 85 54s63 20 95 20c37 0 71 -9 101 -26s54 -41 71 -71l25 84h43l-78 -495h-44z" />
    <glyph glyph-name="aacute" unicode="&#xe1;" 
d="M295 550l100 132h79l-108 -132h-71zM250 49h1c25 0 49 5 72 15s44 24 63 42s35 39 48 63s22 50 27 78s5 54 0 78s-14 45 -27 63s-30 32 -50 42s-43 15 -70 15c-25 0 -49 -5 -72 -16s-44 -25 -63 -43s-35 -39 -48 -63s-21 -49 -25 -76s-4 -52 0 -76s13 -45 26 -63
s29 -32 49 -43s43 -16 69 -16zM440 87l-1 -2c-28 -30 -60 -54 -95 -72s-72 -27 -110 -27c-31 0 -60 7 -87 20s-49 31 -67 54s-31 51 -39 83s-9 67 -3 104s18 72 36 104s40 60 66 83s54 41 85 54s63 20 95 20c37 0 71 -9 101 -26s54 -41 71 -71l25 84h43l-78 -495h-44z" />
    <glyph glyph-name="acircumflex" unicode="&#xe2;" 
d="M348 645l-78 -95h-71l107 132h94l64 -132h-67zM250 49h1c25 0 49 5 72 15s44 24 63 42s35 39 48 63s22 50 27 78s5 54 0 78s-14 45 -27 63s-30 32 -50 42s-43 15 -70 15c-25 0 -49 -5 -72 -16s-44 -25 -63 -43s-35 -39 -48 -63s-21 -49 -25 -76s-4 -52 0 -76
s13 -45 26 -63s29 -32 49 -43s43 -16 69 -16zM440 87l-1 -2c-28 -30 -60 -54 -95 -72s-72 -27 -110 -27c-31 0 -60 7 -87 20s-49 31 -67 54s-31 51 -39 83s-9 67 -3 104s18 72 36 104s40 60 66 83s54 41 85 54s63 20 95 20c37 0 71 -9 101 -26s54 -41 71 -71l25 84h43
l-78 -495h-44z" />
    <glyph glyph-name="atilde" unicode="&#xe3;" 
d="M205 597c5 29 17 51 35 65s37 21 56 21c12 0 23 -2 32 -6s18 -8 26 -13s16 -9 24 -13s17 -6 27 -6c7 0 13 2 19 6s10 12 13 23h38c-5 -29 -15 -52 -29 -68s-33 -24 -56 -24c-12 0 -23 2 -33 6s-19 8 -28 13s-18 9 -27 13s-18 6 -28 6c-15 0 -25 -8 -30 -23h-39zM250 49h1
c25 0 49 5 72 15s44 24 63 42s35 39 48 63s22 50 27 78s5 54 0 78s-14 45 -27 63s-30 32 -50 42s-43 15 -70 15c-25 0 -49 -5 -72 -16s-44 -25 -63 -43s-35 -39 -48 -63s-21 -49 -25 -76s-4 -52 0 -76s13 -45 26 -63s29 -32 49 -43s43 -16 69 -16zM440 87l-1 -2
c-28 -30 -60 -54 -95 -72s-72 -27 -110 -27c-31 0 -60 7 -87 20s-49 31 -67 54s-31 51 -39 83s-9 67 -3 104s18 72 36 104s40 60 66 83s54 41 85 54s63 20 95 20c37 0 71 -9 101 -26s54 -41 71 -71l25 84h43l-78 -495h-44z" />
    <glyph glyph-name="adieresis" unicode="&#xe4;" 
d="M242 591v-1c-12 0 -22 4 -31 13s-12 22 -9 39c2 13 9 25 20 35s23 15 36 15s23 -5 31 -15s11 -21 9 -34c-3 -17 -10 -30 -22 -39s-23 -13 -34 -13zM422 590l1 -1c-12 0 -22 4 -31 13s-12 22 -9 39c2 13 9 25 20 35s23 15 36 15c12 0 22 -5 30 -15s11 -21 9 -34
c-3 -17 -10 -30 -22 -39s-23 -13 -34 -13zM251 47h1c25 0 49 5 72 15s44 24 63 42s35 39 48 63s22 50 27 78s5 54 0 78s-14 45 -27 63s-30 32 -50 42s-43 15 -70 15c-25 0 -49 -5 -72 -16s-44 -25 -63 -43s-35 -39 -48 -63s-21 -49 -25 -76s-4 -52 0 -76s13 -45 26 -63
s29 -32 49 -43s43 -16 69 -16zM441 85l-1 -2c-28 -30 -60 -54 -95 -72s-72 -27 -110 -27c-31 0 -60 7 -87 20s-49 31 -67 54s-31 51 -39 83s-9 67 -3 104s18 72 36 104s40 60 66 83s54 41 85 54s63 20 95 20c37 0 71 -9 101 -26s54 -41 71 -71l25 84h43l-78 -495h-44z" />
    <glyph glyph-name="aring" unicode="&#xe5;" 
d="M250 650l-1 -2c0 29 9 53 28 72s43 29 73 29s54 -9 72 -28s27 -43 27 -72s-9 -53 -27 -72s-42 -28 -72 -28c-33 0 -58 10 -75 29s-25 43 -25 72zM350 593l-2 -1c13 0 25 5 35 15s15 23 15 39c0 18 -5 32 -15 41s-21 14 -34 14s-25 -5 -35 -15s-15 -23 -15 -40
s5 -30 15 -39s22 -14 36 -14zM247 46h1c25 0 49 5 72 15s44 24 63 42s35 39 48 63s22 50 27 78s5 54 0 78s-14 45 -27 63s-30 32 -50 42s-43 15 -70 15c-25 0 -49 -5 -72 -16s-44 -25 -63 -43s-35 -39 -48 -63s-21 -49 -25 -76s-4 -52 0 -76s13 -45 26 -63s29 -32 49 -43
s43 -16 69 -16zM437 84l-1 -2c-28 -30 -60 -54 -95 -72s-72 -27 -110 -27c-31 0 -60 7 -87 20s-49 31 -67 54s-31 51 -39 83s-9 67 -3 104s18 72 36 104s40 60 66 83s54 41 85 54s63 20 95 20c37 0 71 -9 101 -26s54 -41 71 -71l25 84h43l-78 -495h-44z" />
    <glyph glyph-name="ae" unicode="&#xe6;" horiz-adv-x="880" 
d="M648 450c-22 0 -43 -4 -63 -12s-38 -20 -55 -35s-32 -33 -45 -53s-23 -42 -30 -66l323 8c-1 49 -12 88 -34 116s-54 42 -96 42zM175 46l2 -1c36 0 70 9 102 26s67 40 104 68c-9 33 -11 67 -6 102l3 16l-145 -14c-19 -2 -37 -5 -54 -9s-32 -10 -45 -18s-24 -18 -33 -30
s-15 -27 -18 -45c-4 -27 1 -50 15 -68s39 -27 75 -27zM795 68l-2 -3c-28 -26 -59 -46 -93 -60s-70 -21 -107 -21c-41 0 -78 9 -112 27s-60 44 -79 77c-22 -17 -43 -32 -63 -45s-40 -24 -60 -33s-40 -16 -60 -21s-41 -7 -64 -7c-27 0 -50 4 -69 12s-34 19 -45 33
s-19 31 -23 50s-4 40 0 62c4 25 12 46 24 64s27 33 45 45s39 22 62 29s48 11 74 13l164 12l6 39c5 34 -2 59 -22 75s-51 24 -93 24c-30 0 -58 -2 -84 -5s-53 -10 -81 -21l-8 54c29 13 58 22 86 27s61 8 99 8c47 0 85 -8 113 -24s46 -39 53 -69c27 30 58 53 92 69
s69 24 105 24c33 0 63 -6 90 -19s49 -31 67 -54s30 -52 36 -86s6 -72 -1 -115h-399c-3 -27 -1 -52 6 -74s18 -41 32 -57s32 -28 53 -37s44 -13 69 -13c29 0 56 6 81 17s48 27 69 47z" />
    <glyph glyph-name="ccedilla" unicode="&#xe7;" horiz-adv-x="500" 
d="M197 -189l2 -1c-21 0 -37 3 -49 9s-20 13 -25 20l19 34c8 -8 17 -13 26 -16s19 -4 30 -4c9 0 17 2 24 7s11 12 12 21c1 10 -5 18 -18 23s-32 8 -56 8l35 79c-27 5 -51 15 -73 29s-40 32 -55 54s-25 47 -31 76s-6 60 -1 94c6 40 18 76 36 108s40 60 66 83s55 41 87 53
s65 18 98 18c35 0 68 -7 98 -20s55 -32 74 -57l-52 -41c-14 17 -32 31 -54 41s-47 15 -75 15c-25 0 -49 -5 -72 -15s-44 -24 -63 -42s-35 -39 -48 -63s-22 -50 -27 -79c-5 -28 -5 -54 0 -78s14 -45 27 -62s30 -31 50 -41s43 -15 68 -15c28 0 54 6 78 17s47 26 68 45l40 -43
c-27 -25 -57 -45 -91 -59s-69 -21 -105 -21h-8l-15 -36c31 -2 52 -8 63 -18s15 -26 12 -47s-14 -39 -32 -54s-39 -22 -63 -22z" />
    <glyph glyph-name="egrave" unicode="&#xe8;" horiz-adv-x="542" 
d="M223 683h74l59 -132h-66zM309 450v-1c-22 0 -43 -4 -63 -12s-39 -20 -56 -35s-32 -33 -45 -54s-23 -43 -30 -67l329 9c1 49 -10 88 -33 117s-57 43 -102 43zM454 68v-2c-28 -26 -59 -46 -93 -60s-69 -21 -106 -21c-34 0 -65 6 -94 18s-53 29 -73 51s-35 49 -44 81
s-11 68 -5 107c7 40 20 76 38 108s40 60 66 83s54 41 85 53s62 18 93 18c33 0 63 -6 89 -19s48 -31 65 -54s29 -52 35 -86s6 -72 -1 -115h-402c-3 -27 -1 -52 5 -75s16 -42 30 -58s32 -28 53 -37s45 -13 72 -13c29 0 56 6 81 17s48 27 69 47z" />
    <glyph glyph-name="eacute" unicode="&#xe9;" horiz-adv-x="542" 
d="M284 550l99 132h80l-108 -132h-71zM309 450v-1c-22 0 -43 -4 -63 -12s-39 -20 -56 -35s-32 -33 -45 -54s-23 -43 -30 -67l329 9c1 49 -10 88 -33 117s-57 43 -102 43zM454 68v-2c-28 -26 -59 -46 -93 -60s-69 -21 -106 -21c-34 0 -65 6 -94 18s-53 29 -73 51
s-35 49 -44 81s-11 68 -5 107c7 40 20 76 38 108s40 60 66 83s54 41 85 53s62 18 93 18c33 0 63 -6 89 -19s48 -31 65 -54s29 -52 35 -86s6 -72 -1 -115h-402c-3 -27 -1 -52 5 -75s16 -42 30 -58s32 -28 53 -37s45 -13 72 -13c29 0 56 6 81 17s48 27 69 47z" />
    <glyph glyph-name="ecircumflex" unicode="&#xea;" horiz-adv-x="542" 
d="M344 645l-78 -95h-71l107 132h94l64 -132h-67zM309 450v-1c-22 0 -43 -4 -63 -12s-39 -20 -56 -35s-32 -33 -45 -54s-23 -43 -30 -67l329 9c1 49 -10 88 -33 117s-57 43 -102 43zM454 68v-2c-28 -26 -59 -46 -93 -60s-69 -21 -106 -21c-34 0 -65 6 -94 18s-53 29 -73 51
s-35 49 -44 81s-11 68 -5 107c7 40 20 76 38 108s40 60 66 83s54 41 85 53s62 18 93 18c33 0 63 -6 89 -19s48 -31 65 -54s29 -52 35 -86s6 -72 -1 -115h-402c-3 -27 -1 -52 5 -75s16 -42 30 -58s32 -28 53 -37s45 -13 72 -13c29 0 56 6 81 17s48 27 69 47z" />
    <glyph glyph-name="edieresis" unicode="&#xeb;" horiz-adv-x="542" 
d="M237 591l-1 -1c-12 0 -22 4 -31 13s-12 22 -9 39c2 13 9 25 20 35s24 15 38 15c12 0 22 -5 30 -15s11 -21 9 -34c-3 -17 -10 -30 -22 -39s-23 -13 -34 -13zM415 590l-1 -1c-11 0 -21 4 -30 13s-12 22 -9 39c2 13 9 25 20 35s23 15 36 15s24 -5 32 -15s11 -21 8 -34
c-3 -17 -10 -30 -22 -39s-23 -13 -34 -13zM307 448v-1c-22 0 -43 -4 -63 -12s-39 -20 -56 -35s-32 -33 -45 -54s-23 -43 -30 -67l329 9c1 49 -10 88 -33 117s-57 43 -102 43zM452 66v-2c-28 -26 -59 -46 -93 -60s-69 -21 -106 -21c-34 0 -65 6 -94 18s-53 29 -73 51
s-35 49 -44 81s-11 68 -5 107c7 40 20 76 38 108s40 60 66 83s54 41 85 53s62 18 93 18c33 0 63 -6 89 -19s48 -31 65 -54s29 -52 35 -86s6 -72 -1 -115h-402c-3 -27 -1 -52 5 -75s16 -42 30 -58s32 -28 53 -37s45 -13 72 -13c29 0 56 6 81 17s48 27 69 47z" />
    <glyph glyph-name="igrave" unicode="&#xec;" horiz-adv-x="211" 
d="M50 683h74l59 -132h-66zM112 495h65l-78 -495h-66z" />
    <glyph glyph-name="iacute" unicode="&#xed;" horiz-adv-x="211" 
d="M119 550l100 132h79l-108 -132h-71zM111 495h65l-78 -495h-66z" />
    <glyph glyph-name="icircumflex" unicode="&#xee;" horiz-adv-x="212" 
d="M172 645l-79 -95h-70l106 132h94l65 -132h-68zM112 495h65l-78 -495h-66z" />
    <glyph glyph-name="idieresis" unicode="&#xef;" horiz-adv-x="212" 
d="M68 591l-1 -1c-11 0 -21 4 -30 13s-12 22 -9 39c2 13 9 25 20 35s23 15 36 15s24 -5 32 -15s11 -21 8 -34c-3 -17 -10 -30 -22 -39s-23 -13 -34 -13zM247 590l-1 -1c-11 0 -21 4 -30 13s-12 22 -9 39c2 13 9 25 20 35s23 15 36 15s23 -5 31 -15s11 -21 9 -34
c-3 -17 -10 -30 -22 -39s-23 -13 -34 -13zM110 493h65l-78 -495h-66z" />
    <glyph glyph-name="eth" unicode="&#xf0;" horiz-adv-x="584" 
d="M244 -13l-1 -3c-34 0 -65 6 -93 18s-51 29 -70 52s-32 51 -40 84s-9 70 -3 111c6 40 18 75 36 106s40 57 65 78s54 37 86 47s65 15 99 15c31 0 60 -6 87 -18s51 -27 72 -46c-2 31 -7 58 -15 81s-18 43 -31 59l-64 -57l-23 32l58 52c-15 11 -31 19 -49 24s-37 8 -57 8
c-17 0 -34 -2 -51 -6s-34 -8 -52 -13l-15 54c23 7 45 13 65 17s42 6 65 6c28 0 54 -3 79 -10s47 -18 66 -33l80 72l25 -31l-75 -67c27 -31 46 -73 56 -126s9 -119 -4 -199l-2 -12c-8 -49 -21 -92 -40 -129s-42 -68 -68 -93s-55 -43 -87 -55s-65 -18 -99 -18zM255 48l-4 2
c24 0 48 5 71 14s44 23 63 41s35 41 49 68s24 59 30 95c3 23 2 44 -3 64s-14 37 -27 52s-29 27 -49 35s-43 12 -68 12s-49 -4 -73 -12s-45 -20 -64 -36s-35 -35 -48 -58s-22 -49 -27 -78c-5 -31 -5 -59 1 -84s16 -46 30 -63s31 -30 51 -39s43 -13 68 -13z" />
    <glyph glyph-name="ntilde" unicode="&#xf1;" horiz-adv-x="583" 
d="M221 597h-1c5 29 17 51 35 65s37 21 56 21c12 0 23 -2 32 -6s18 -8 26 -13s16 -9 24 -13s17 -6 27 -6c7 0 14 2 20 6s11 12 14 23h37c-5 -29 -14 -52 -28 -68s-33 -24 -56 -24c-12 0 -23 2 -33 6s-20 8 -29 13s-18 9 -27 13s-18 6 -28 6c-14 0 -24 -8 -29 -23h-40z
M339 444v-1c-18 0 -36 -3 -54 -9s-35 -14 -51 -24s-31 -22 -46 -36s-28 -29 -40 -45l-52 -330h-66l79 495h47l-3 -92c31 35 64 61 99 79s71 27 107 27c26 0 50 -4 73 -12s42 -20 57 -37s26 -38 33 -64s7 -57 1 -93l-48 -301h-65l47 293c8 52 1 90 -22 114s-55 36 -96 36z
" />
    <glyph glyph-name="ograve" unicode="&#xf2;" horiz-adv-x="563" 
d="M238 683h74l59 -132h-66zM239 -13c-31 0 -60 6 -87 18s-50 29 -69 51s-33 49 -41 81s-9 68 -3 107c7 40 19 76 37 108s40 60 66 83s54 41 85 53s63 18 96 18s63 -6 90 -19s50 -31 69 -54s32 -51 40 -83s9 -68 3 -107s-18 -74 -36 -106s-40 -59 -66 -81s-55 -39 -87 -51
s-64 -18 -97 -18zM248 49h1c25 0 49 5 72 15s44 24 63 41s35 38 48 62s22 50 27 79s5 56 0 80s-14 45 -27 63s-29 32 -49 42s-43 15 -69 15c-24 0 -47 -5 -70 -15s-44 -24 -63 -42s-35 -39 -48 -63s-22 -50 -27 -79c-5 -28 -5 -54 0 -78s14 -45 26 -63s28 -32 48 -42
s43 -15 68 -15z" />
    <glyph glyph-name="oacute" unicode="&#xf3;" horiz-adv-x="563" 
d="M283 551l100 132h79l-108 -132h-71zM239 -13c-31 0 -60 6 -87 18s-50 29 -69 51s-33 49 -41 81s-9 68 -3 107c7 40 19 76 37 108s40 60 66 83s54 41 85 53s63 18 96 18s63 -6 90 -19s50 -31 69 -54s32 -51 40 -83s9 -68 3 -107s-18 -74 -36 -106s-40 -59 -66 -81
s-55 -39 -87 -51s-64 -18 -97 -18zM248 49h1c25 0 49 5 72 15s44 24 63 41s35 38 48 62s22 50 27 79s5 56 0 80s-14 45 -27 63s-29 32 -49 42s-43 15 -69 15c-24 0 -47 -5 -70 -15s-44 -24 -63 -42s-35 -39 -48 -63s-22 -50 -27 -79c-5 -28 -5 -54 0 -78s14 -45 26 -63
s28 -32 48 -42s43 -15 68 -15z" />
    <glyph glyph-name="ocircumflex" unicode="&#xf4;" horiz-adv-x="563" 
d="M343 645l-78 -95h-71l107 132h94l64 -132h-67zM239 -13c-31 0 -60 6 -87 18s-50 29 -69 51s-33 49 -41 81s-9 68 -3 107c7 40 19 76 37 108s40 60 66 83s54 41 85 53s63 18 96 18s63 -6 90 -19s50 -31 69 -54s32 -51 40 -83s9 -68 3 -107s-18 -74 -36 -106
s-40 -59 -66 -81s-55 -39 -87 -51s-64 -18 -97 -18zM248 49h1c25 0 49 5 72 15s44 24 63 41s35 38 48 62s22 50 27 79s5 56 0 80s-14 45 -27 63s-29 32 -49 42s-43 15 -69 15c-24 0 -47 -5 -70 -15s-44 -24 -63 -42s-35 -39 -48 -63s-22 -50 -27 -79c-5 -28 -5 -54 0 -78
s14 -45 26 -63s28 -32 48 -42s43 -15 68 -15z" />
    <glyph glyph-name="otilde" unicode="&#xf5;" horiz-adv-x="563" 
d="M203 597c5 29 17 51 35 65s37 21 56 21c12 0 23 -2 32 -6s18 -8 26 -13s16 -9 24 -13s17 -6 27 -6c7 0 14 2 20 6s11 12 14 23h37c-5 -29 -15 -52 -29 -68s-33 -24 -56 -24c-12 0 -23 2 -33 6s-20 8 -29 13s-18 9 -27 13s-18 6 -28 6c-15 0 -25 -8 -30 -23h-39zM239 -13
c-31 0 -60 6 -87 18s-50 29 -69 51s-33 49 -41 81s-9 68 -3 107c7 40 19 76 37 108s40 60 66 83s54 41 85 53s63 18 96 18s63 -6 90 -19s50 -31 69 -54s32 -51 40 -83s9 -68 3 -107s-18 -74 -36 -106s-40 -59 -66 -81s-55 -39 -87 -51s-64 -18 -97 -18zM248 49h1
c25 0 49 5 72 15s44 24 63 41s35 38 48 62s22 50 27 79s5 56 0 80s-14 45 -27 63s-29 32 -49 42s-43 15 -69 15c-24 0 -47 -5 -70 -15s-44 -24 -63 -42s-35 -39 -48 -63s-22 -50 -27 -79c-5 -28 -5 -54 0 -78s14 -45 26 -63s28 -32 48 -42s43 -15 68 -15z" />
    <glyph glyph-name="odieresis" unicode="&#xf6;" horiz-adv-x="563" 
d="M239 591l-1 -1c-11 0 -21 4 -30 13s-12 22 -9 39c2 13 9 25 20 35s23 15 36 15s24 -5 32 -15s11 -21 8 -34c-3 -17 -10 -30 -22 -39s-23 -13 -34 -13zM418 590l-1 -1c-11 0 -21 4 -30 13s-12 22 -9 39c2 13 9 25 20 35s23 15 36 15s23 -5 31 -15s11 -21 9 -34
c-3 -17 -10 -30 -22 -39s-23 -13 -34 -13zM237 -15c-31 0 -60 6 -87 18s-50 29 -69 51s-33 49 -41 81s-9 68 -3 107c7 40 19 76 37 108s40 60 66 83s54 41 85 53s63 18 96 18s63 -6 90 -19s50 -31 69 -54s32 -51 40 -83s9 -68 3 -107s-18 -74 -36 -106s-40 -59 -66 -81
s-55 -39 -87 -51s-64 -18 -97 -18zM246 47h1c25 0 49 5 72 15s44 24 63 41s35 38 48 62s22 50 27 79s5 56 0 80s-14 45 -27 63s-29 32 -49 42s-43 15 -69 15c-24 0 -47 -5 -70 -15s-44 -24 -63 -42s-35 -39 -48 -63s-22 -50 -27 -79c-5 -28 -5 -54 0 -78s14 -45 26 -63
s28 -32 48 -42s43 -15 68 -15z" />
    <glyph glyph-name="divide" unicode="&#xf7;" horiz-adv-x="510" 
d="M276 356l-2 -1c-13 0 -23 5 -30 15s-9 22 -6 35c2 13 8 24 18 33s22 14 35 14c12 0 22 -5 29 -14s10 -20 8 -33s-8 -24 -18 -34s-21 -15 -34 -15zM58 271h397l-9 -55h-397zM225 42l-1 -1c-13 0 -23 5 -30 15s-10 22 -8 35s8 24 18 33s22 14 35 14c12 0 22 -5 30 -14
s11 -20 9 -33s-8 -24 -19 -34s-22 -15 -34 -15z" />
    <glyph glyph-name="oslash" unicode="&#xf8;" horiz-adv-x="563" 
d="M106 245l6 -3c-5 -29 -5 -56 0 -80s14 -45 27 -62l277 306c-13 12 -28 21 -45 28s-36 10 -57 10c-24 0 -47 -5 -70 -15s-44 -24 -63 -42s-35 -39 -48 -63s-22 -50 -27 -79zM254 46l-3 -1c25 0 49 5 72 15s44 24 63 41s35 38 48 62s22 50 27 79s5 56 0 80s-14 45 -27 63
l-276 -305c25 -23 57 -34 96 -34zM242 -17v-2c-51 0 -95 15 -132 45l-101 -112h-35l117 130c-21 23 -36 51 -46 84s-11 70 -4 112c7 40 19 76 37 108s40 60 66 83s54 41 85 53s63 18 96 18c27 0 52 -4 75 -13s44 -21 62 -36l107 118h36l-124 -137c20 -23 35 -51 44 -84
s10 -70 3 -111c-6 -39 -18 -74 -36 -106s-40 -59 -66 -81s-55 -39 -87 -51s-64 -18 -97 -18z" />
    <glyph glyph-name="ugrave" unicode="&#xf9;" horiz-adv-x="569" 
d="M243 683h74l59 -132h-66zM411 92v-1c-29 -32 -61 -57 -95 -76s-68 -28 -102 -28c-25 0 -48 4 -70 12s-40 21 -55 38s-25 39 -31 66s-6 59 0 96l47 297h65l-46 -291c-8 -53 -2 -92 19 -117s52 -37 93 -37c18 0 35 3 51 9s32 14 47 24s30 22 44 36s27 29 39 44l52 331h65
l-78 -495h-47z" />
    <glyph glyph-name="uacute" unicode="&#xfa;" horiz-adv-x="569" 
d="M288 550l100 132h80l-109 -132h-71zM411 92v-1c-29 -32 -61 -57 -95 -76s-68 -28 -102 -28c-25 0 -48 4 -70 12s-40 21 -55 38s-25 39 -31 66s-6 59 0 96l47 297h65l-46 -291c-8 -53 -2 -92 19 -117s52 -37 93 -37c18 0 35 3 51 9s32 14 47 24s30 22 44 36s27 29 39 44
l52 331h65l-78 -495h-47z" />
    <glyph glyph-name="ucircumflex" unicode="&#xfb;" horiz-adv-x="569" 
d="M350 645l-78 -95h-71l107 132h94l64 -132h-67zM411 92v-1c-29 -32 -61 -57 -95 -76s-68 -28 -102 -28c-25 0 -48 4 -70 12s-40 21 -55 38s-25 39 -31 66s-6 59 0 96l47 297h65l-46 -291c-8 -53 -2 -92 19 -117s52 -37 93 -37c18 0 35 3 51 9s32 14 47 24s30 22 44 36
s27 29 39 44l52 331h65l-78 -495h-47z" />
    <glyph glyph-name="udieresis" unicode="&#xfc;" horiz-adv-x="569" 
d="M241 591l1 -1c-12 0 -22 4 -31 13s-12 22 -9 39c2 13 9 25 20 35s23 15 36 15c12 0 22 -5 30 -15s11 -21 9 -34c-3 -17 -10 -30 -22 -39s-23 -13 -34 -13zM422 590l-1 -1c-12 0 -22 4 -31 13s-12 22 -9 39c2 13 9 25 20 35s24 15 38 15c12 0 22 -5 30 -15s11 -21 9 -34
c-3 -17 -10 -30 -22 -39s-23 -13 -34 -13zM411 90v-1c-29 -32 -61 -57 -95 -76s-68 -28 -102 -28c-25 0 -48 4 -70 12s-40 21 -55 38s-25 39 -31 66s-6 59 0 96l47 297h65l-46 -291c-8 -53 -2 -92 19 -117s52 -37 93 -37c18 0 35 3 51 9s32 14 47 24s30 22 44 36
s27 29 39 44l52 331h65l-78 -495h-47z" />
    <glyph glyph-name="yacute" unicode="&#xfd;" horiz-adv-x="489" 
d="M247 550l100 132h80l-108 -132h-72zM-54 -173v-2c18 0 37 6 57 18s40 27 60 45s39 38 57 60s35 43 50 63l-116 483h71l93 -420c23 31 45 63 66 95s41 65 59 99s35 70 51 107s32 77 47 119h69c-28 -81 -67 -166 -118 -256s-111 -179 -180 -268c-24 -31 -48 -59 -72 -84
s-47 -47 -70 -65s-46 -32 -68 -42s-44 -15 -66 -15z" />
    <glyph glyph-name="thorn" unicode="&#xfe;" 
d="M282 49l2 1c25 0 49 5 72 16s44 25 62 43s33 39 45 63s20 49 24 76s4 52 -1 76s-14 45 -27 63s-29 33 -49 44s-42 16 -67 16s-49 -5 -72 -15s-44 -24 -63 -42s-35 -39 -48 -63s-22 -50 -27 -79s-5 -55 0 -79s15 -45 29 -63s31 -32 51 -42s43 -15 69 -15zM62 -234l-63 -3
l150 949h65l-46 -291c27 27 57 48 90 63s67 23 102 23c32 0 61 -6 88 -19s50 -31 68 -54s31 -51 39 -83s9 -67 3 -104s-18 -71 -35 -103s-38 -59 -63 -82s-53 -41 -84 -54s-63 -19 -96 -19c-38 0 -72 9 -102 27s-54 42 -72 72l-8 -93z" />
    <glyph glyph-name="ydieresis" unicode="&#xff;" horiz-adv-x="489" 
d="M209 591l-1 -1c-12 0 -22 4 -31 13s-12 22 -9 39c3 13 10 25 21 35s23 15 36 15s23 -5 31 -15s11 -21 9 -34c-3 -17 -10 -30 -22 -39s-23 -13 -34 -13zM388 590v-1c-12 0 -22 4 -31 13s-12 22 -9 39c2 13 9 25 20 35s23 15 36 15s23 -5 31 -15s11 -21 9 -34
c-3 -17 -10 -30 -22 -39s-23 -13 -34 -13zM-55 -175v-2c18 0 37 6 57 18s40 27 60 45s39 38 57 60s35 43 50 63l-116 483h71l93 -420c23 31 45 63 66 95s41 65 59 99s35 70 51 107s32 77 47 119h69c-28 -81 -67 -166 -118 -256s-111 -179 -180 -268c-24 -31 -48 -59 -72 -84
s-47 -47 -70 -65s-46 -32 -68 -42s-44 -15 -66 -15z" />
    <glyph glyph-name="Amacron" unicode="&#x100;" horiz-adv-x="656" 
d="M262 818h292l-10 -58h-291zM384 601l-199 -351h286zM487 185h-338l-105 -185h-74l387 675h75l174 -675h-73z" />
    <glyph glyph-name="amacron" unicode="&#x101;" 
d="M219 643h261l-9 -58h-261zM250 49h1c25 0 49 5 72 15s44 24 63 42s35 39 48 63s22 50 27 78s5 54 0 78s-14 45 -27 63s-30 32 -50 42s-43 15 -70 15c-25 0 -49 -5 -72 -16s-44 -25 -63 -43s-35 -39 -48 -63s-21 -49 -25 -76s-4 -52 0 -76s13 -45 26 -63s29 -32 49 -43
s43 -16 69 -16zM440 87l-1 -2c-28 -30 -60 -54 -95 -72s-72 -27 -110 -27c-31 0 -60 7 -87 20s-49 31 -67 54s-31 51 -39 83s-9 67 -3 104s18 72 36 104s40 60 66 83s54 41 85 54s63 20 95 20c37 0 71 -9 101 -26s54 -41 71 -71l25 84h43l-78 -495h-44z" />
    <glyph glyph-name="Abreve" unicode="&#x102;" horiz-adv-x="656" 
d="M335 857h-1c0 -10 1 -20 3 -30s6 -19 12 -27s14 -14 24 -19s22 -7 36 -7c25 0 47 9 65 26s31 36 38 57h48c-11 -44 -30 -78 -58 -102s-61 -36 -100 -36s-69 12 -89 36s-28 58 -24 102h46zM383 601l-199 -351h286zM486 185h-338l-105 -185h-74l387 675h75l174 -675h-73z
" />
    <glyph glyph-name="abreve" unicode="&#x103;" 
d="M268 684l-3 -1c0 -10 1 -20 4 -30s7 -19 13 -27s14 -14 24 -19s22 -7 35 -7s25 2 36 7s21 11 30 19s17 17 23 27s11 20 14 31h47c-11 -44 -30 -78 -57 -102s-60 -36 -99 -36s-68 12 -88 36s-28 58 -24 102h45zM247 48h1c25 0 49 5 72 15s44 24 63 42s35 39 48 63
s22 50 27 78s5 54 0 78s-14 45 -27 63s-30 32 -50 42s-43 15 -70 15c-25 0 -49 -5 -72 -16s-44 -25 -63 -43s-35 -39 -48 -63s-21 -49 -25 -76s-4 -52 0 -76s13 -45 26 -63s29 -32 49 -43s43 -16 69 -16zM437 86l-1 -2c-28 -30 -60 -54 -95 -72s-72 -27 -110 -27
c-31 0 -60 7 -87 20s-49 31 -67 54s-31 51 -39 83s-9 67 -3 104s18 72 36 104s40 60 66 83s54 41 85 54s63 20 95 20c37 0 71 -9 101 -26s54 -41 71 -71l25 84h43l-78 -495h-44z" />
    <glyph glyph-name="Aogonek" unicode="&#x104;" horiz-adv-x="654" 
d="M383 601l-198 -351h285zM590 -167l-1 1c-24 -20 -55 -30 -92 -30c-29 0 -52 8 -69 24s-23 38 -18 67c5 31 19 57 41 77s48 36 78 47l-42 167h-338l-105 -185h-74l388 675h75l173 -675h-1c-47 -12 -80 -26 -100 -43s-31 -36 -34 -57c-2 -14 1 -26 9 -36s20 -15 36 -15
c27 0 50 9 69 27z" />
    <glyph glyph-name="aogonek" unicode="&#x105;" 
d="M250 49h1c25 0 49 5 72 15s44 24 63 42s35 39 48 63s22 50 27 78s5 54 0 78s-14 45 -27 63s-30 32 -50 42s-43 15 -70 15c-25 0 -49 -5 -72 -16s-44 -25 -63 -43s-35 -39 -48 -63s-21 -49 -25 -76s-4 -52 0 -76s13 -45 26 -63s29 -32 49 -43s43 -16 69 -16zM469 -167
l-3 -1c-24 -20 -55 -30 -92 -30c-15 0 -28 2 -40 6s-22 10 -30 18s-14 18 -18 29s-4 24 -1 38c3 18 9 34 18 48s21 27 35 38s29 21 46 29s35 15 53 20l1 58c-28 -30 -60 -54 -95 -72s-72 -27 -110 -27c-31 0 -60 7 -87 20s-49 31 -67 54s-31 51 -39 83s-9 67 -3 104
s18 72 36 104s40 60 66 83s54 41 85 54s63 20 95 20c37 0 71 -9 101 -26s54 -41 71 -71l25 84h43l-78 -495c-47 -12 -80 -26 -99 -43s-30 -36 -33 -57c-3 -14 0 -26 9 -36s21 -15 36 -15c27 0 50 9 70 27z" />
    <glyph glyph-name="Cacute" unicode="&#x106;" horiz-adv-x="667" 
d="M402 724l101 132h78l-108 -132h-71zM607 93v-2c-17 -17 -36 -32 -58 -45s-44 -24 -67 -33s-47 -16 -72 -21s-49 -7 -73 -7c-47 0 -90 9 -128 27s-70 43 -95 74s-43 68 -54 110s-12 88 -4 137c8 51 24 98 48 141s54 80 89 111s74 55 117 73s87 27 132 27
c52 0 100 -9 143 -27s77 -45 102 -80l-51 -41c-21 28 -50 49 -87 63s-76 21 -117 21c-37 0 -73 -7 -107 -22s-65 -35 -93 -61s-51 -56 -70 -91s-32 -72 -39 -112c-6 -39 -5 -76 3 -111s22 -65 42 -90s45 -45 75 -60s64 -22 102 -22c40 0 80 8 120 23s75 38 105 68z" />
    <glyph glyph-name="cacute" unicode="&#x107;" horiz-adv-x="500" 
d="M280 550l100 132h79l-108 -132h-71zM439 67l3 -1c-27 -25 -57 -45 -91 -59s-69 -21 -105 -21c-32 0 -62 6 -90 18s-51 29 -70 51s-33 49 -42 81s-10 68 -4 107c6 40 18 76 36 108s40 60 66 83s55 41 87 53s65 18 98 18c35 0 68 -7 98 -20s55 -32 74 -57l-52 -41
c-14 17 -32 31 -54 41s-47 15 -75 15c-25 0 -49 -5 -72 -15s-44 -24 -63 -42s-35 -39 -48 -63s-22 -50 -27 -79c-5 -28 -5 -54 0 -78s14 -45 27 -62s30 -31 50 -41s43 -15 68 -15c28 0 54 6 78 17s47 26 68 45z" />
    <glyph glyph-name="Ccircumflex" unicode="&#x108;" horiz-adv-x="667" 
d="M470 819l-78 -95h-72l109 132h90l67 -132h-68zM607 93v-2c-17 -17 -36 -32 -58 -45s-44 -24 -67 -33s-47 -16 -72 -21s-49 -7 -73 -7c-47 0 -90 9 -128 27s-70 43 -95 74s-43 68 -54 110s-12 88 -4 137c8 51 24 98 48 141s54 80 89 111s74 55 117 73s87 27 132 27
c52 0 100 -9 143 -27s77 -45 102 -80l-51 -41c-21 28 -50 49 -87 63s-76 21 -117 21c-37 0 -73 -7 -107 -22s-65 -35 -93 -61s-51 -56 -70 -91s-32 -72 -39 -112c-6 -39 -5 -76 3 -111s22 -65 42 -90s45 -45 75 -60s64 -22 102 -22c40 0 80 8 120 23s75 38 105 68z" />
    <glyph glyph-name="ccircumflex" unicode="&#x109;" horiz-adv-x="500" 
d="M347 645l-79 -95h-70l106 132h94l65 -132h-68zM439 67l3 -1c-27 -25 -57 -45 -91 -59s-69 -21 -105 -21c-32 0 -62 6 -90 18s-51 29 -70 51s-33 49 -42 81s-10 68 -4 107c6 40 18 76 36 108s40 60 66 83s55 41 87 53s65 18 98 18c35 0 68 -7 98 -20s55 -32 74 -57
l-52 -41c-14 17 -32 31 -54 41s-47 15 -75 15c-25 0 -49 -5 -72 -15s-44 -24 -63 -42s-35 -39 -48 -63s-22 -50 -27 -79c-5 -28 -5 -54 0 -78s14 -45 27 -62s30 -31 50 -41s43 -15 68 -15c28 0 54 6 78 17s47 26 68 45z" />
    <glyph glyph-name="Cdotaccent" unicode="&#x10a;" horiz-adv-x="667" 
d="M456 753l-1 -2c-11 0 -21 5 -30 14s-12 22 -9 38c3 14 10 26 21 36s23 15 36 15s23 -5 31 -15s11 -22 8 -36c-3 -16 -10 -28 -22 -37s-23 -13 -34 -13zM606 91v-2c-17 -17 -36 -32 -58 -45s-44 -24 -67 -33s-47 -16 -72 -21s-49 -7 -73 -7c-47 0 -90 9 -128 27
s-70 43 -95 74s-43 68 -54 110s-12 88 -4 137c8 51 24 98 48 141s54 80 89 111s74 55 117 73s87 27 132 27c52 0 100 -9 143 -27s77 -45 102 -80l-51 -41c-21 28 -50 49 -87 63s-76 21 -117 21c-37 0 -73 -7 -107 -22s-65 -35 -93 -61s-51 -56 -70 -91s-32 -72 -39 -112
c-6 -39 -5 -76 3 -111s22 -65 42 -90s45 -45 75 -60s64 -22 102 -22c40 0 80 8 120 23s75 38 105 68z" />
    <glyph glyph-name="cdotaccent" unicode="&#x10b;" horiz-adv-x="500" 
d="M338 590l1 -2c-12 0 -23 5 -32 14s-12 22 -9 38c3 14 10 26 21 36s23 15 36 15c12 0 22 -5 30 -15s11 -22 9 -36c-3 -16 -10 -28 -22 -37s-23 -13 -34 -13zM440 65l3 -1c-27 -25 -57 -45 -91 -59s-69 -21 -105 -21c-32 0 -62 6 -90 18s-51 29 -70 51s-33 49 -42 81
s-10 68 -4 107c6 40 18 76 36 108s40 60 66 83s55 41 87 53s65 18 98 18c35 0 68 -7 98 -20s55 -32 74 -57l-52 -41c-14 17 -32 31 -54 41s-47 15 -75 15c-25 0 -49 -5 -72 -15s-44 -24 -63 -42s-35 -39 -48 -63s-22 -50 -27 -79c-5 -28 -5 -54 0 -78s14 -45 27 -62
s30 -31 50 -41s43 -15 68 -15c28 0 54 6 78 17s47 26 68 45z" />
    <glyph glyph-name="Ccaron" unicode="&#x10c;" horiz-adv-x="667" 
d="M329 855h68l47 -93l77 93h74l-107 -132h-94zM607 93v-2c-17 -17 -36 -32 -58 -45s-44 -24 -67 -33s-47 -16 -72 -21s-49 -7 -73 -7c-47 0 -90 9 -128 27s-70 43 -95 74s-43 68 -54 110s-12 88 -4 137c8 51 24 98 48 141s54 80 89 111s74 55 117 73s87 27 132 27
c52 0 100 -9 143 -27s77 -45 102 -80l-51 -41c-21 28 -50 49 -87 63s-76 21 -117 21c-37 0 -73 -7 -107 -22s-65 -35 -93 -61s-51 -56 -70 -91s-32 -72 -39 -112c-6 -39 -5 -76 3 -111s22 -65 42 -90s45 -45 75 -60s64 -22 102 -22c40 0 80 8 120 23s75 38 105 68z" />
    <glyph glyph-name="ccaron" unicode="&#x10d;" horiz-adv-x="500" 
d="M222 682h67l48 -94l78 94h72l-106 -132h-95zM439 67l3 -1c-27 -25 -57 -45 -91 -59s-69 -21 -105 -21c-32 0 -62 6 -90 18s-51 29 -70 51s-33 49 -42 81s-10 68 -4 107c6 40 18 76 36 108s40 60 66 83s55 41 87 53s65 18 98 18c35 0 68 -7 98 -20s55 -32 74 -57l-52 -41
c-14 17 -32 31 -54 41s-47 15 -75 15c-25 0 -49 -5 -72 -15s-44 -24 -63 -42s-35 -39 -48 -63s-22 -50 -27 -79c-5 -28 -5 -54 0 -78s14 -45 27 -62s30 -31 50 -41s43 -15 68 -15c28 0 54 6 78 17s47 26 68 45z" />
    <glyph glyph-name="Dcaron" unicode="&#x10e;" horiz-adv-x="717" 
d="M293 855h68l47 -94l77 94h74l-107 -132h-94zM212 610l-88 -544h197c36 0 71 7 104 21s63 34 90 59s49 54 67 87s30 68 36 105s6 72 -1 105s-19 62 -37 87s-40 45 -67 59s-58 21 -93 21h-208zM152 676l278 3c43 0 82 -9 117 -27s64 -42 87 -72s40 -66 50 -107
s11 -85 4 -132s-22 -91 -44 -132s-49 -77 -82 -108s-70 -55 -111 -73s-84 -27 -129 -27h-277z" />
    <glyph glyph-name="dcaron" unicode="&#x10f;" horiz-adv-x="663" 
d="M628 474l3 -1c13 16 25 32 36 48s20 34 27 54c-16 0 -28 6 -37 17s-12 25 -9 41c3 15 10 28 22 39s26 16 41 16c17 0 29 -6 36 -19s9 -28 6 -45c-5 -29 -16 -57 -33 -85s-41 -55 -72 -82zM253 48h-1c25 0 49 5 73 15s45 24 64 41s35 38 48 62s22 50 27 78c5 29 5 56 0 80
s-14 45 -27 63s-30 32 -51 42s-45 15 -72 15c-25 0 -49 -5 -72 -16s-43 -25 -61 -43s-33 -39 -46 -63s-21 -49 -25 -76s-4 -52 0 -76s12 -45 24 -63s28 -32 48 -43s44 -16 71 -16zM439 82l-5 -3c-28 -30 -59 -53 -94 -70s-70 -25 -106 -25c-32 0 -61 7 -88 20s-49 31 -67 54
s-31 50 -39 82s-9 67 -3 104c6 38 18 73 36 105s39 60 64 83s53 41 84 54s63 20 96 20c38 0 72 -8 101 -24s53 -38 71 -66l3 44l39 252h66l-113 -713h-44z" />
    <glyph glyph-name="Dcroat" unicode="&#x110;" horiz-adv-x="735" 
d="M166 314l-40 -248h223c33 0 66 7 98 21s61 34 87 59s48 54 66 87s30 68 36 105s5 72 -3 105s-21 62 -39 87s-41 45 -68 59s-57 21 -90 21h-223l-37 -231h198l-10 -65h-198zM97 315l-63 3l10 65h61l47 296h292c43 0 82 -9 117 -27s65 -42 89 -72s41 -66 51 -107
s11 -85 4 -132s-22 -91 -45 -132s-51 -77 -84 -108s-70 -55 -111 -73s-83 -27 -126 -27h-292z" />
    <glyph glyph-name="dcroat" unicode="&#x111;" horiz-adv-x="594" 
d="M250 49h-1c25 0 49 5 73 15s45 24 64 41s35 38 48 62s22 50 27 78c5 29 5 56 0 80s-14 45 -27 63s-30 32 -51 42s-45 15 -72 15c-25 0 -49 -5 -72 -16s-43 -25 -61 -43s-33 -39 -46 -63s-21 -49 -25 -76s-4 -52 0 -76s12 -45 24 -63s28 -32 48 -43s44 -16 71 -16zM436 83
l-5 -3c-28 -30 -59 -53 -94 -70s-70 -25 -106 -25c-32 0 -61 7 -88 20s-49 31 -67 54s-31 50 -39 82s-9 67 -3 104c6 38 18 73 36 105s39 60 64 83s53 41 84 54s63 20 96 20c38 0 72 -8 101 -24s53 -38 71 -66l3 44l16 105h-270l9 51h269l15 96h66l-15 -96h58l-8 -51h-58
l-90 -566h-44z" />
    <glyph glyph-name="Emacron" unicode="&#x112;" horiz-adv-x="581" 
d="M249 818h292l-9 -58h-291zM154 675h437l-10 -65h-369l-36 -229h349l-10 -65h-349l-40 -251h371l-10 -65h-440z" />
    <glyph glyph-name="emacron" unicode="&#x113;" horiz-adv-x="542" 
d="M200 647h261l-10 -58h-261zM309 450v-1c-22 0 -43 -4 -63 -12s-39 -20 -56 -35s-32 -33 -45 -54s-23 -43 -30 -67l329 9c1 49 -10 88 -33 117s-57 43 -102 43zM454 68v-2c-28 -26 -59 -46 -93 -60s-69 -21 -106 -21c-34 0 -65 6 -94 18s-53 29 -73 51s-35 49 -44 81
s-11 68 -5 107c7 40 20 76 38 108s40 60 66 83s54 41 85 53s62 18 93 18c33 0 63 -6 89 -19s48 -31 65 -54s29 -52 35 -86s6 -72 -1 -115h-402c-3 -27 -1 -52 5 -75s16 -42 30 -58s32 -28 53 -37s45 -13 72 -13c29 0 56 6 81 17s48 27 69 47z" />
    <glyph glyph-name="Ebreve" unicode="&#x114;" horiz-adv-x="581" 
d="M305 858c0 -10 1 -20 3 -30s6 -19 12 -27s14 -14 23 -19s21 -7 35 -7c25 0 47 8 65 25s31 36 38 58h47c-11 -44 -30 -78 -57 -102s-60 -36 -99 -36s-69 12 -89 36s-28 58 -24 102h46zM154 675h437l-10 -65h-369l-36 -229h349l-10 -65h-349l-40 -251h371l-10 -65h-440z
" />
    <glyph glyph-name="ebreve" unicode="&#x115;" horiz-adv-x="542" 
d="M250 684h-3c0 -10 1 -20 4 -30s8 -19 14 -27s14 -14 24 -19s22 -7 35 -7c25 0 47 9 65 26s31 36 38 57h47c-11 -44 -30 -78 -57 -102s-60 -36 -99 -36s-69 12 -89 36s-28 58 -23 102h44zM306 450v-1c-22 0 -43 -4 -63 -12s-39 -20 -56 -35s-32 -33 -45 -54
s-23 -43 -30 -67l329 9c1 49 -10 88 -33 117s-57 43 -102 43zM451 68v-2c-28 -26 -59 -46 -93 -60s-69 -21 -106 -21c-34 0 -65 6 -94 18s-53 29 -73 51s-35 49 -44 81s-11 68 -5 107c7 40 20 76 38 108s40 60 66 83s54 41 85 53s62 18 93 18c33 0 63 -6 89 -19
s48 -31 65 -54s29 -52 35 -86s6 -72 -1 -115h-402c-3 -27 -1 -52 5 -75s16 -42 30 -58s32 -28 53 -37s45 -13 72 -13c29 0 56 6 81 17s48 27 69 47z" />
    <glyph glyph-name="Edotaccent" unicode="&#x116;" horiz-adv-x="581" 
d="M391 753l1 -2c-12 0 -22 5 -31 14s-12 22 -9 38c2 14 9 26 20 36s23 15 36 15s23 -5 31 -15s11 -22 8 -36c-3 -16 -10 -28 -22 -37s-23 -13 -34 -13zM155 673h437l-10 -65h-369l-36 -229h349l-10 -65h-349l-40 -251h371l-10 -65h-440z" />
    <glyph glyph-name="edotaccent" unicode="&#x117;" horiz-adv-x="542" 
d="M326 590l-1 -2c-11 0 -21 5 -30 14s-12 22 -9 38c3 14 10 26 21 36s23 15 36 15s23 -5 31 -15s11 -22 8 -36c-3 -16 -10 -28 -22 -37s-23 -13 -34 -13zM308 448v-1c-22 0 -43 -4 -63 -12s-39 -20 -56 -35s-32 -33 -45 -54s-23 -43 -30 -67l329 9c1 49 -10 88 -33 117
s-57 43 -102 43zM453 66v-2c-28 -26 -59 -46 -93 -60s-69 -21 -106 -21c-34 0 -65 6 -94 18s-53 29 -73 51s-35 49 -44 81s-11 68 -5 107c7 40 20 76 38 108s40 60 66 83s54 41 85 53s62 18 93 18c33 0 63 -6 89 -19s48 -31 65 -54s29 -52 35 -86s6 -72 -1 -115h-402
c-3 -27 -1 -52 5 -75s16 -42 30 -58s32 -28 53 -37s45 -13 72 -13c29 0 56 6 81 17s48 27 69 47z" />
    <glyph glyph-name="Eogonek" unicode="&#x118;" horiz-adv-x="587" 
d="M475 -167l-2 2c-23 -19 -54 -29 -92 -29c-29 0 -52 8 -69 24s-23 38 -18 67c4 23 13 43 27 60s32 32 53 44h-329l107 675h437l-10 -65h-368l-37 -229h350l-10 -65h-350l-40 -251h372l-10 -60l2 -4l-3 -1c-45 -12 -77 -26 -96 -43s-30 -36 -33 -57c-2 -14 1 -26 9 -36
s20 -15 36 -15c27 0 50 9 69 27l5 -44v0z" />
    <glyph glyph-name="eogonek" unicode="&#x119;" horiz-adv-x="542" 
d="M309 450v-1c-22 0 -43 -4 -63 -12s-39 -20 -56 -35s-32 -33 -45 -54s-23 -43 -30 -67l329 9c1 49 -10 88 -33 117s-57 43 -102 43zM331 -166l1 -2c-23 -19 -54 -29 -92 -29c-29 0 -52 8 -69 24s-23 38 -18 67c3 20 10 38 21 53s25 28 41 39c-29 5 -55 14 -79 28
s-44 32 -60 54s-27 48 -34 77s-8 61 -3 96c7 40 20 76 38 108s40 60 66 83s54 41 85 53s62 18 93 18c33 0 63 -6 89 -19s48 -31 65 -54s29 -52 35 -86s6 -72 -1 -115h-402c-3 -27 -1 -52 5 -75s16 -42 30 -58s32 -28 53 -37s45 -13 72 -13c29 0 56 6 81 17s48 27 69 47
l37 -43c-21 -19 -43 -35 -67 -48s-49 -22 -76 -27c-34 -11 -58 -24 -73 -39s-24 -32 -27 -51c-3 -14 0 -26 9 -36s21 -15 36 -15c27 0 50 9 70 27z" />
    <glyph glyph-name="Ecaron" unicode="&#x11a;" horiz-adv-x="581" 
d="M273 855h68l48 -93l77 93h73l-107 -132h-94zM154 675h437l-10 -65h-369l-36 -229h349l-10 -65h-349l-40 -251h371l-10 -65h-440z" />
    <glyph glyph-name="ecaron" unicode="&#x11b;" horiz-adv-x="542" 
d="M210 682h68l47 -94l78 94h72l-106 -132h-95zM309 450v-1c-22 0 -43 -4 -63 -12s-39 -20 -56 -35s-32 -33 -45 -54s-23 -43 -30 -67l329 9c1 49 -10 88 -33 117s-57 43 -102 43zM454 68v-2c-28 -26 -59 -46 -93 -60s-69 -21 -106 -21c-34 0 -65 6 -94 18s-53 29 -73 51
s-35 49 -44 81s-11 68 -5 107c7 40 20 76 38 108s40 60 66 83s54 41 85 53s62 18 93 18c33 0 63 -6 89 -19s48 -31 65 -54s29 -52 35 -86s6 -72 -1 -115h-402c-3 -27 -1 -52 5 -75s16 -42 30 -58s32 -28 53 -37s45 -13 72 -13c29 0 56 6 81 17s48 27 69 47z" />
    <glyph glyph-name="Gcircumflex" unicode="&#x11c;" horiz-adv-x="720" 
d="M460 819l-77 -95h-72l109 132h90l67 -132h-69zM632 83h4c-17 -15 -36 -28 -58 -40s-45 -22 -70 -30s-51 -14 -78 -18s-54 -6 -81 -6c-49 0 -93 9 -132 27s-72 43 -99 75s-46 69 -57 112s-13 89 -5 138s24 95 48 138s54 80 90 111s76 56 120 74s89 27 136 27
c57 0 109 -9 156 -28s83 -46 108 -81l-50 -43c-20 27 -48 48 -85 63s-82 22 -136 22c-37 0 -73 -7 -108 -22s-67 -35 -96 -61s-53 -56 -73 -91s-33 -72 -40 -111c-6 -39 -5 -76 3 -111s22 -65 43 -91s47 -46 78 -61s67 -22 108 -22c39 0 77 5 114 15s69 25 96 44l25 159
h-170l11 65h238z" />
    <glyph glyph-name="gcircumflex" unicode="&#x11d;" 
d="M354 645l-78 -95h-71l107 132h94l64 -132h-67zM312 446l-1 -3c-25 0 -49 -5 -72 -16s-44 -25 -63 -43s-35 -39 -48 -63s-21 -49 -25 -76s-4 -52 1 -76s14 -45 27 -63s29 -32 49 -43s43 -16 69 -16c25 0 49 5 72 15s44 24 63 42s35 39 48 63s22 51 27 80s5 55 0 79
s-14 45 -27 63s-30 32 -50 42s-43 15 -70 15zM213 -217l-1 -3c-40 0 -77 4 -111 13s-68 22 -103 39l29 53c31 -15 61 -26 91 -33s63 -10 99 -10c29 0 55 5 78 14s43 21 60 36s30 33 40 53s17 41 20 64l10 60c-26 -26 -56 -47 -89 -62s-68 -23 -104 -23c-31 0 -60 7 -87 20
s-49 31 -67 54s-31 51 -39 83s-9 67 -3 104s18 72 35 104s39 60 65 83s54 41 85 54s63 20 96 20c36 0 69 -8 99 -24s54 -39 72 -68l26 79h43l-76 -483c-5 -33 -15 -63 -29 -91s-32 -52 -55 -72s-50 -36 -81 -47s-65 -17 -103 -17z" />
    <glyph glyph-name="Gbreve" unicode="&#x11e;" horiz-adv-x="720" 
d="M383 858h-2c0 -10 1 -20 3 -30s6 -19 12 -27s14 -14 24 -19s22 -7 36 -7c25 0 47 8 65 25s31 36 38 58h47c-11 -44 -30 -78 -57 -102s-60 -36 -99 -36s-69 12 -89 36s-28 58 -23 102h45zM630 83h4c-17 -15 -36 -28 -58 -40s-45 -22 -70 -30s-51 -14 -78 -18
s-54 -6 -81 -6c-49 0 -93 9 -132 27s-72 43 -99 75s-46 69 -57 112s-13 89 -5 138s24 95 48 138s54 80 90 111s76 56 120 74s89 27 136 27c57 0 109 -9 156 -28s83 -46 108 -81l-50 -43c-20 27 -48 48 -85 63s-82 22 -136 22c-37 0 -73 -7 -108 -22s-67 -35 -96 -61
s-53 -56 -73 -91s-33 -72 -40 -111c-6 -39 -5 -76 3 -111s22 -65 43 -91s47 -46 78 -61s67 -22 108 -22c39 0 77 5 114 15s69 25 96 44l25 159h-170l11 65h238z" />
    <glyph glyph-name="gbreve" unicode="&#x11f;" 
d="M269 684h-3c0 -10 1 -20 4 -30s7 -19 13 -27s14 -14 24 -19s22 -7 35 -7c25 0 47 9 65 26s31 36 38 57h46c-11 -44 -30 -78 -57 -102s-60 -36 -99 -36s-68 12 -88 36s-28 58 -23 102h45zM309 446l-1 -3c-25 0 -49 -5 -72 -16s-44 -25 -63 -43s-35 -39 -48 -63
s-21 -49 -25 -76s-4 -52 1 -76s14 -45 27 -63s29 -32 49 -43s43 -16 69 -16c25 0 49 5 72 15s44 24 63 42s35 39 48 63s22 51 27 80s5 55 0 79s-14 45 -27 63s-30 32 -50 42s-43 15 -70 15zM210 -217l-1 -3c-40 0 -77 4 -111 13s-68 22 -103 39l29 53c31 -15 61 -26 91 -33
s63 -10 99 -10c29 0 55 5 78 14s43 21 60 36s30 33 40 53s17 41 20 64l10 60c-26 -26 -56 -47 -89 -62s-68 -23 -104 -23c-31 0 -60 7 -87 20s-49 31 -67 54s-31 51 -39 83s-9 67 -3 104s18 72 35 104s39 60 65 83s54 41 85 54s63 20 96 20c36 0 69 -8 99 -24s54 -39 72 -68
l26 79h43l-76 -483c-5 -33 -15 -63 -29 -91s-32 -52 -55 -72s-50 -36 -81 -47s-65 -17 -103 -17z" />
    <glyph glyph-name="Gdotaccent" unicode="&#x120;" horiz-adv-x="720" 
d="M447 753l-1 -2c-11 0 -21 5 -30 14s-12 22 -9 38c3 14 10 26 21 36s23 15 36 15s23 -5 31 -15s11 -22 8 -36c-3 -16 -10 -28 -22 -37s-23 -13 -34 -13zM631 81h4c-17 -15 -36 -28 -58 -40s-45 -22 -70 -30s-51 -14 -78 -18s-54 -6 -81 -6c-49 0 -93 9 -132 27
s-72 43 -99 75s-46 69 -57 112s-13 89 -5 138s24 95 48 138s54 80 90 111s76 56 120 74s89 27 136 27c57 0 109 -9 156 -28s83 -46 108 -81l-50 -43c-20 27 -48 48 -85 63s-82 22 -136 22c-37 0 -73 -7 -108 -22s-67 -35 -96 -61s-53 -56 -73 -91s-33 -72 -40 -111
c-6 -39 -5 -76 3 -111s22 -65 43 -91s47 -46 78 -61s67 -22 108 -22c39 0 77 5 114 15s69 25 96 44l25 159h-170l11 65h238z" />
    <glyph glyph-name="gdotaccent" unicode="&#x121;" 
d="M346 590l-2 -2c-11 0 -21 5 -30 14s-12 22 -9 38c3 14 10 26 21 36s23 15 36 15s23 -5 31 -15s11 -22 9 -36c-3 -16 -10 -28 -22 -37s-23 -13 -34 -13zM310 444l-1 -3c-25 0 -49 -5 -72 -16s-44 -25 -63 -43s-35 -39 -48 -63s-21 -49 -25 -76s-4 -52 1 -76s14 -45 27 -63
s29 -32 49 -43s43 -16 69 -16c25 0 49 5 72 15s44 24 63 42s35 39 48 63s22 51 27 80s5 55 0 79s-14 45 -27 63s-30 32 -50 42s-43 15 -70 15zM211 -219l-1 -3c-40 0 -77 4 -111 13s-68 22 -103 39l29 53c31 -15 61 -26 91 -33s63 -10 99 -10c29 0 55 5 78 14s43 21 60 36
s30 33 40 53s17 41 20 64l10 60c-26 -26 -56 -47 -89 -62s-68 -23 -104 -23c-31 0 -60 7 -87 20s-49 31 -67 54s-31 51 -39 83s-9 67 -3 104s18 72 35 104s39 60 65 83s54 41 85 54s63 20 96 20c36 0 69 -8 99 -24s54 -39 72 -68l26 79h43l-76 -483c-5 -33 -15 -63 -29 -91
s-32 -52 -55 -72s-50 -36 -81 -47s-65 -17 -103 -17z" />
    <glyph glyph-name="Gcommaaccent" unicode="&#x122;" horiz-adv-x="720" 
d="M632 83h4c-17 -15 -36 -28 -58 -40s-45 -22 -70 -30s-51 -14 -78 -18s-54 -6 -81 -6c-49 0 -93 9 -132 27s-72 43 -99 75s-46 69 -57 112s-13 89 -5 138s24 95 48 138s54 80 90 111s76 56 120 74s89 27 136 27c57 0 109 -9 156 -28s83 -46 108 -81l-50 -43
c-20 27 -48 48 -85 63s-82 22 -136 22c-37 0 -73 -7 -108 -22s-67 -35 -96 -61s-53 -56 -73 -91s-33 -72 -40 -111c-6 -39 -5 -76 3 -111s22 -65 43 -91s47 -46 78 -61s67 -22 108 -22c39 0 77 5 114 15s69 25 96 44l25 159h-170l11 65h238zM260 -254v-1c11 15 21 29 29 42
s15 28 20 45c-12 1 -21 7 -28 17s-9 22 -7 35s9 25 20 35s23 15 36 15c15 0 26 -6 33 -18s9 -25 6 -40c-4 -25 -13 -50 -28 -74s-36 -48 -63 -71z" />
    <glyph glyph-name="gcommaaccent" unicode="&#x123;" 
d="M332 579l1 -1c-15 0 -26 6 -33 17s-9 25 -6 41c4 25 13 50 28 74s36 48 63 71l18 -15c-11 -15 -21 -29 -30 -42s-16 -28 -21 -45c12 -1 22 -6 29 -16s9 -21 6 -34c-2 -13 -8 -25 -19 -35s-23 -15 -36 -15zM313 445l-1 -3c-25 0 -49 -5 -72 -16s-44 -25 -63 -43
s-35 -39 -48 -63s-21 -49 -25 -76s-4 -52 1 -76s14 -45 27 -63s29 -32 49 -43s43 -16 69 -16c25 0 49 5 72 15s44 24 63 42s35 39 48 63s22 51 27 80s5 55 0 79s-14 45 -27 63s-30 32 -50 42s-43 15 -70 15zM214 -218l-1 -3c-40 0 -77 4 -111 13s-68 22 -103 39l29 53
c31 -15 61 -26 91 -33s63 -10 99 -10c29 0 55 5 78 14s43 21 60 36s30 33 40 53s17 41 20 64l10 60c-26 -26 -56 -47 -89 -62s-68 -23 -104 -23c-31 0 -60 7 -87 20s-49 31 -67 54s-31 51 -39 83s-9 67 -3 104s18 72 35 104s39 60 65 83s54 41 85 54s63 20 96 20
c36 0 69 -8 99 -24s54 -39 72 -68l26 79h43l-76 -483c-5 -33 -15 -63 -29 -91s-32 -52 -55 -72s-50 -36 -81 -47s-65 -17 -103 -17z" />
    <glyph glyph-name="Hcircumflex" unicode="&#x124;" horiz-adv-x="730" 
d="M459 819l-78 -95h-71l108 132h90l67 -132h-68zM584 314h-419l-49 -314h-69l107 675h68l-46 -296h418l47 296h69l-107 -675h-69z" />
    <glyph glyph-name="hcircumflex" unicode="&#x125;" horiz-adv-x="582" 
d="M394 862l-78 -95h-71l109 132h89l67 -132h-68zM340 444l-5 -2c-37 0 -72 -11 -104 -33s-60 -49 -85 -81c-6 -38 -12 -76 -18 -115s-12 -74 -17 -106c-6 -37 -12 -73 -17 -108h-65l113 714h65l-38 -238l-16 -72c29 32 61 57 96 76s71 28 107 28c26 0 50 -4 73 -12
s42 -20 58 -37s27 -38 34 -64s7 -57 1 -93l-47 -302h-66l47 294c4 26 4 49 0 68s-11 35 -22 47s-24 21 -40 27s-34 9 -54 9z" />
    <glyph glyph-name="Hbar" unicode="&#x126;" horiz-adv-x="730" 
d="M616 512h-419l-21 -133h419zM584 314h-418l-50 -314h-69l82 512h-48l7 49h48l18 114h69l-18 -114h418l19 114h68l-18 -114h38l-8 -49h-38l-81 -512h-68z" />
    <glyph glyph-name="hbar" unicode="&#x127;" horiz-adv-x="582" 
d="M340 444l-5 -2c-37 0 -72 -11 -104 -33s-60 -49 -85 -81c-6 -38 -12 -76 -18 -115s-12 -74 -17 -106c-6 -37 -12 -73 -17 -108h-65l90 567h-67l8 51h67l15 96h65l-15 -96h262l-9 -51h-261l-15 -91l-16 -72c29 32 61 57 96 76s71 28 107 28c26 0 50 -4 73 -12
s42 -20 58 -37s27 -38 34 -64s7 -57 1 -93l-47 -302h-66l47 294c4 26 4 49 0 68s-11 35 -22 47s-24 21 -40 27s-34 9 -54 9z" />
    <glyph glyph-name="Itilde" unicode="&#x128;" horiz-adv-x="243" 
d="M66 756h-4c5 29 17 51 35 65s36 21 55 21c12 0 23 -2 32 -6s18 -8 27 -13s17 -9 25 -13s17 -6 27 -6c7 0 13 2 19 6s11 12 14 23h38c-5 -29 -15 -52 -30 -68s-33 -24 -54 -24c-12 0 -23 2 -33 6s-19 8 -28 13s-18 9 -27 13s-18 6 -27 6c-15 0 -25 -8 -30 -23h-39z
M150 675h68l-106 -675h-69z" />
    <glyph glyph-name="itilde" unicode="&#x129;" horiz-adv-x="212" 
d="M30 597h1c5 29 17 51 35 65s37 21 56 21c12 0 23 -2 32 -6s18 -8 26 -13s16 -9 24 -13s17 -6 27 -6c7 0 13 2 19 6s11 12 14 23h37c-5 -29 -15 -52 -29 -68s-33 -24 -56 -24c-12 0 -23 2 -33 6s-20 8 -29 13s-18 9 -27 13s-18 6 -28 6c-15 0 -25 -8 -30 -23h-39zM112 495
h65l-78 -495h-65z" />
    <glyph glyph-name="Imacron" unicode="&#x12a;" horiz-adv-x="243" 
d="M59 823h260l-9 -58h-261zM154 675h68l-106 -675h-69z" />
    <glyph glyph-name="imacron" unicode="&#x12b;" horiz-adv-x="212" 
d="M35 643h261l-10 -58h-260zM112 495h65l-78 -495h-66z" />
    <glyph glyph-name="Ibreve" unicode="&#x12c;" horiz-adv-x="243" 
d="M130 858l-2 -1c-1 -10 0 -20 3 -30s7 -19 13 -27s14 -14 23 -19s21 -7 35 -7c13 0 25 2 36 7s21 11 30 19s17 17 23 27s11 20 14 31h47c-11 -44 -30 -78 -57 -102s-60 -36 -99 -36s-69 12 -89 36s-28 58 -23 102h46zM152 674h68l-106 -675h-69z" />
    <glyph glyph-name="ibreve" unicode="&#x12d;" horiz-adv-x="212" 
d="M86 684h-3c0 -10 1 -20 4 -30s7 -19 13 -27s14 -14 24 -19s22 -7 35 -7c25 0 47 9 65 26s31 36 38 57h46c-11 -44 -30 -78 -57 -102s-60 -36 -99 -36s-68 12 -88 36s-28 58 -23 102h45zM109 495h65l-78 -495h-66z" />
    <glyph glyph-name="Iogonek" unicode="&#x12e;" horiz-adv-x="244" 
d="M104 -167v2c-24 -20 -55 -30 -92 -30c-15 0 -28 2 -40 6s-22 10 -30 18s-14 18 -18 29s-4 24 -1 38c5 33 20 60 44 80s52 36 84 47l104 653h68l-107 -675c-47 -12 -80 -26 -99 -43s-30 -36 -33 -57c-3 -14 0 -26 9 -36s21 -15 36 -15c27 0 50 9 70 27l5 -44v0z" />
    <glyph glyph-name="iogonek" unicode="&#x12f;" horiz-adv-x="214" 
d="M166 601h-2c-13 0 -24 5 -32 15s-11 22 -8 36c2 13 9 25 20 35s23 15 36 15s24 -5 32 -15s11 -22 9 -35c-2 -14 -8 -26 -19 -36s-23 -15 -36 -15zM86 -167h-1c-24 -20 -55 -30 -92 -30c-29 0 -52 8 -69 24s-23 38 -18 67c3 17 8 32 16 45s18 25 30 36s25 20 40 28
s30 15 46 21l75 472h65l-78 -495c-46 -12 -79 -26 -99 -43s-31 -36 -34 -57c-2 -14 1 -26 9 -36s20 -15 36 -15c26 0 49 9 69 27z" />
    <glyph glyph-name="Idotaccent" unicode="&#x130;" horiz-adv-x="243" 
d="M202 753l1 -2c-12 0 -22 5 -31 14s-12 22 -9 38c2 14 9 26 20 36s23 15 36 15s23 -5 31 -15s11 -22 8 -36c-3 -16 -10 -28 -22 -37s-23 -13 -34 -13zM155 673h68l-106 -675h-69z" />
    <glyph glyph-name="dotlessi" unicode="&#x131;" horiz-adv-x="210" 
d="M111 495h65l-78 -495h-66z" />
    <glyph glyph-name="IJ" unicode="&#x132;" horiz-adv-x="774" 
d="M154 675h68l-106 -675h-69zM453 -13l-4 -2c-54 0 -99 11 -135 33s-63 52 -82 90l49 42c17 -34 40 -59 68 -74s63 -23 104 -23c18 0 36 3 54 10s34 17 49 30s28 30 39 50s18 43 22 69l74 462h69l-74 -466c-6 -39 -17 -73 -32 -101s-33 -51 -54 -69s-44 -31 -69 -39
s-51 -12 -78 -12z" />
    <glyph glyph-name="ij" unicode="&#x133;" horiz-adv-x="420" 
d="M370 601h-2c-13 0 -24 5 -32 15s-11 22 -8 36c2 13 9 25 20 35s23 15 36 15s24 -5 32 -15s11 -22 9 -35c-2 -14 -8 -26 -19 -36s-23 -15 -36 -15zM161 601h-2c-13 0 -24 5 -32 15s-11 22 -8 36c2 13 9 25 20 35s23 15 36 15s24 -5 32 -15s11 -22 9 -35
c-2 -14 -8 -26 -19 -36s-23 -15 -36 -15zM293 -66h2c-4 -25 -12 -48 -24 -69s-27 -39 -45 -54s-38 -26 -60 -34s-45 -12 -69 -12l10 62c15 0 29 3 42 9s25 14 36 24s20 22 28 35s13 26 15 39l89 561h65zM110 495h65l-78 -495h-66z" />
    <glyph glyph-name="Jcircumflex" unicode="&#x134;" horiz-adv-x="533" 
d="M506 819l-78 -95h-72l109 132h90l67 -132h-68zM212 -13l-4 -2c-54 0 -99 11 -135 33s-63 52 -82 90l49 42c17 -34 40 -59 68 -74s63 -23 104 -23c18 0 36 3 54 10s34 17 49 30s28 30 39 50s18 43 22 69l74 462h69l-74 -466c-6 -39 -17 -73 -32 -101s-33 -51 -54 -69
s-44 -31 -69 -39s-51 -12 -78 -12z" />
    <glyph glyph-name="jcircumflex" unicode="&#x135;" horiz-adv-x="212" 
d="M170 645l-79 -95h-70l106 132h94l65 -132h-68zM88 -66l1 -1c-4 -25 -12 -48 -24 -69s-27 -39 -45 -54s-38 -26 -60 -34s-45 -12 -68 -12l9 61c15 0 29 3 43 8s26 13 37 23s20 21 27 34s12 28 14 44l90 561h65z" />
    <glyph glyph-name="Kcommaaccent" unicode="&#x136;" horiz-adv-x="628" 
d="M277 324l-128 -113l-33 -211h-69l107 675h68l-58 -371l424 371h89l-349 -306l258 -369h-82zM214 -254l1 -1c11 15 21 29 29 42s15 28 21 45c-13 1 -23 7 -30 17s-9 22 -7 35s9 25 20 35s23 15 36 15c15 0 26 -6 33 -18s9 -25 6 -40c-4 -25 -13 -50 -28 -74
s-36 -48 -63 -71z" />
    <glyph glyph-name="kcommaaccent" unicode="&#x137;" horiz-adv-x="512" 
d="M261 233h1c-48 -39 -96 -74 -143 -105l-21 -128h-65l113 714h65l-80 -508c125 90 227 186 306 289h81c-61 -80 -131 -154 -209 -222l151 -272l-71 -1zM159 -254l1 -1c11 15 21 29 29 42s15 28 21 45c-13 1 -23 7 -30 17s-9 22 -7 35s9 25 20 35s23 15 36 15
c15 0 26 -6 33 -18s9 -25 6 -40c-4 -25 -13 -50 -28 -74s-36 -48 -63 -71z" />
    <glyph glyph-name="kgreenlandic" unicode="&#x138;" horiz-adv-x="513" 
d="M248 253l-129 -116l-22 -137h-65l78 495h65l-42 -269l300 269h84l-219 -197l165 -298h-76z" />
    <glyph glyph-name="Lacute" unicode="&#x139;" horiz-adv-x="541" 
d="M163 724l101 132h78l-108 -132h-71zM154 675h68l-96 -610h368l-10 -65h-437z" />
    <glyph glyph-name="lacute" unicode="&#x13a;" horiz-adv-x="215" 
d="M149 758l101 132h78l-108 -132h-71zM148 714h65l-113 -714h-65z" />
    <glyph glyph-name="Lcommaaccent" unicode="&#x13b;" horiz-adv-x="541" 
d="M154 675h68l-96 -610h368l-10 -65h-437zM182 -254v-1c11 15 21 29 29 42s15 28 20 45c-12 1 -21 7 -28 17s-9 22 -7 35s9 25 20 35s23 15 36 15c15 0 26 -6 33 -18s9 -25 6 -40c-4 -25 -13 -50 -28 -74s-36 -48 -63 -71z" />
    <glyph glyph-name="lcommaaccent" unicode="&#x13c;" horiz-adv-x="215" 
d="M148 714h65l-113 -714h-65zM-14 -254v-1c11 15 21 29 29 42s15 28 20 45c-12 1 -21 7 -28 17s-9 22 -7 35s9 25 20 35s23 15 36 15c15 0 26 -6 33 -18s9 -25 6 -40c-4 -25 -13 -50 -28 -74s-36 -48 -63 -71z" />
    <glyph glyph-name="Lcaron" unicode="&#x13d;" horiz-adv-x="541" 
d="M292 474l1 -1c13 16 25 32 36 48s20 34 27 54h-1c-15 0 -27 6 -36 17s-12 25 -9 41c3 15 10 28 22 39s26 16 42 16c17 0 29 -6 36 -19s9 -28 6 -45c-5 -29 -16 -57 -33 -85s-40 -55 -70 -82zM155 674h68l-96 -610h368l-10 -65h-437z" />
    <glyph glyph-name="lcaron" unicode="&#x13e;" horiz-adv-x="283" 
d="M148 714h65l-113 -714h-65zM249 474l1 -1c13 16 25 32 36 48s20 34 27 54h-1c-15 0 -27 6 -36 17s-12 25 -9 41c3 15 10 28 22 39s26 16 42 16c17 0 29 -6 36 -19s9 -28 6 -45c-5 -29 -16 -57 -33 -85s-40 -55 -70 -82z" />
    <glyph glyph-name="Ldot" unicode="&#x13f;" horiz-adv-x="549" 
d="M403 319l-1 -1c-14 0 -25 5 -33 15s-11 22 -8 36c2 13 9 25 20 35s23 15 36 15s24 -5 32 -15s11 -21 9 -34c-2 -14 -8 -26 -19 -36s-23 -15 -36 -15zM153 674h68l-96 -610h368l-10 -65h-437z" />
    <glyph glyph-name="ldot" unicode="&#x140;" horiz-adv-x="261" 
d="M148 714h65l-113 -714h-65zM250 308h-1c-14 0 -25 5 -33 15s-11 22 -9 36c3 13 10 25 21 35s23 15 36 15s24 -5 32 -15s11 -22 9 -35c-2 -14 -8 -26 -19 -36s-23 -15 -36 -15z" />
    <glyph glyph-name="Lslash" unicode="&#x141;" horiz-adv-x="543" 
d="M88 245l-79 -50l9 54l79 50l59 376h69l-52 -328l176 112l-9 -54l-176 -111l-36 -229h369l-11 -65h-437z" />
    <glyph glyph-name="lslash" unicode="&#x142;" horiz-adv-x="237" 
d="M46 0l50 318l-76 -48l9 54l76 48l54 342h65l-47 -297l79 49l-9 -54l-79 -50l-57 -362h-65z" />
    <glyph glyph-name="Nacute" unicode="&#x143;" horiz-adv-x="730" 
d="M407 724l100 132h78l-108 -132h-70zM207 576l-91 -576h-69l107 675h68l328 -577l91 577h69l-107 -675h-69z" />
    <glyph glyph-name="nacute" unicode="&#x144;" horiz-adv-x="583" 
d="M313 550l100 132h79l-108 -132h-71zM340 444v-1c-18 0 -36 -3 -54 -9s-35 -14 -51 -24s-31 -22 -46 -36s-28 -29 -40 -45l-52 -330h-66l79 495h47l-3 -92c31 35 64 61 99 79s71 27 107 27c26 0 50 -4 73 -12s42 -20 57 -37s26 -38 33 -64s7 -57 1 -93l-48 -301h-65
l47 293c8 52 1 90 -22 114s-55 36 -96 36z" />
    <glyph glyph-name="Ncommaaccent" unicode="&#x145;" horiz-adv-x="730" 
d="M207 576l-91 -576h-69l107 675h68l328 -577l91 577h69l-107 -675h-69zM247 -254v-1c11 15 21 29 29 42s15 28 20 45c-12 1 -21 7 -28 17s-9 22 -7 35s9 25 20 35s23 15 36 15c15 0 26 -6 33 -18s9 -25 6 -40c-4 -25 -13 -50 -28 -74s-36 -48 -63 -71z" />
    <glyph glyph-name="ncommaaccent" unicode="&#x146;" horiz-adv-x="583" 
d="M340 444v-1c-18 0 -36 -3 -54 -9s-35 -14 -51 -24s-31 -22 -46 -36s-28 -29 -40 -45l-52 -330h-66l79 495h47l-3 -92c31 35 64 61 99 79s71 27 107 27c26 0 50 -4 73 -12s42 -20 57 -37s26 -38 33 -64s7 -57 1 -93l-48 -301h-65l47 293c8 52 1 90 -22 114s-55 36 -96 36z
M179 -255h1c11 15 21 29 29 42s15 28 21 45c-13 1 -23 7 -30 17s-9 22 -7 35s9 25 20 35s23 15 36 15c15 0 26 -6 33 -18s9 -25 6 -40c-8 -51 -39 -100 -92 -146z" />
    <glyph glyph-name="Ncaron" unicode="&#x147;" horiz-adv-x="730" 
d="M336 855h68l47 -93l77 93h73l-107 -132h-93zM207 576l-91 -576h-69l107 675h68l328 -577l91 577h69l-107 -675h-69z" />
    <glyph glyph-name="ncaron" unicode="&#x148;" horiz-adv-x="583" 
d="M228 682h68l48 -94l77 94h72l-106 -132h-94zM340 444v-1c-18 0 -36 -3 -54 -9s-35 -14 -51 -24s-31 -22 -46 -36s-28 -29 -40 -45l-52 -330h-66l79 495h47l-3 -92c31 35 64 61 99 79s71 27 107 27c26 0 50 -4 73 -12s42 -20 57 -37s26 -38 33 -64s7 -57 1 -93l-48 -301
h-65l47 293c8 52 1 90 -22 114s-55 36 -96 36z" />
    <glyph glyph-name="napostrophe" unicode="&#x149;" horiz-adv-x="645" 
d="M76 474v-1c13 16 25 32 36 48s20 34 27 54h-1c-15 0 -27 6 -36 17s-12 25 -9 41c3 15 11 28 23 39s26 16 41 16c17 0 29 -6 36 -19s9 -28 6 -45c-5 -29 -16 -57 -33 -85s-40 -55 -70 -82zM412 443l-1 -2c-18 0 -36 -3 -54 -9s-35 -14 -51 -24s-31 -22 -45 -36
s-27 -29 -40 -45l-52 -330h-65l78 495h47l-2 -92c30 35 63 61 98 79s71 27 107 27c26 0 50 -4 73 -12s42 -20 58 -37s27 -38 34 -64s7 -57 1 -93l-48 -301h-65l46 293c4 26 4 49 0 68s-11 35 -22 47s-25 21 -42 27s-35 9 -55 9z" />
    <glyph glyph-name="Eng" unicode="&#x14a;" horiz-adv-x="729" 
d="M375 -239l-5 -6c-44 0 -81 10 -110 29s-51 45 -66 78l50 44c14 -29 32 -50 53 -63s48 -19 81 -19c17 0 33 3 49 10s31 17 44 30s25 29 35 48s17 41 21 66l4 21l-328 576l-91 -576h-69l107 675h69l327 -577l92 577h68l-104 -654l-6 -42c-6 -36 -16 -68 -30 -95
s-31 -50 -51 -68s-42 -32 -66 -41s-49 -13 -74 -13z" />
    <glyph glyph-name="eng" unicode="&#x14b;" horiz-adv-x="582" 
d="M279 -174l1 -3c15 0 29 3 42 8s25 13 36 23s20 21 28 34s13 28 15 44l57 359c4 26 4 49 0 68s-11 35 -22 47s-25 21 -42 27s-35 9 -55 9c-18 0 -36 -3 -54 -9s-35 -14 -51 -24s-31 -22 -45 -36s-27 -29 -40 -45l-52 -330h-66l79 495h47l-2 -92c30 35 63 61 98 79
s71 27 107 27c26 0 50 -4 73 -12s42 -20 58 -37s27 -38 34 -64s7 -57 1 -93l-59 -367c-4 -25 -12 -48 -24 -69s-27 -39 -45 -54s-38 -26 -60 -34s-45 -12 -69 -12z" />
    <glyph glyph-name="Omacron" unicode="&#x14c;" horiz-adv-x="768" 
d="M327 818h292l-9 -58h-291zM342 -13l1 -1c-47 0 -90 9 -129 27s-71 43 -97 75s-45 69 -56 111s-13 88 -6 137c8 48 24 93 48 136s54 80 90 112s76 57 121 75s91 27 139 27c47 0 90 -9 129 -27s71 -43 97 -75s45 -69 56 -112s13 -88 6 -136c-8 -49 -24 -94 -49 -136
s-55 -79 -91 -111s-76 -57 -121 -75s-91 -27 -138 -27zM353 52l-1 -5c37 0 73 8 108 23s67 36 96 62s53 56 73 90s33 71 39 110s5 76 -3 111s-22 65 -42 91s-46 47 -77 62s-66 23 -105 23c-37 0 -73 -7 -108 -22s-67 -35 -96 -61s-53 -56 -73 -91s-33 -72 -39 -111
s-5 -75 4 -109s24 -64 44 -90s46 -46 77 -61s65 -22 103 -22z" />
    <glyph glyph-name="omacron" unicode="&#x14d;" horiz-adv-x="563" 
d="M208 647h261l-9 -58h-261zM239 -13c-31 0 -60 6 -87 18s-50 29 -69 51s-33 49 -41 81s-9 68 -3 107c7 40 19 76 37 108s40 60 66 83s54 41 85 53s63 18 96 18s63 -6 90 -19s50 -31 69 -54s32 -51 40 -83s9 -68 3 -107s-18 -74 -36 -106s-40 -59 -66 -81s-55 -39 -87 -51
s-64 -18 -97 -18zM248 49h1c25 0 49 5 72 15s44 24 63 41s35 38 48 62s22 50 27 79s5 56 0 80s-14 45 -27 63s-29 32 -49 42s-43 15 -69 15c-24 0 -47 -5 -70 -15s-44 -24 -63 -42s-35 -39 -48 -63s-22 -50 -27 -79c-5 -28 -5 -54 0 -78s14 -45 26 -63s28 -32 48 -42
s43 -15 68 -15z" />
    <glyph glyph-name="Obreve" unicode="&#x14e;" horiz-adv-x="768" 
d="M390 858h-2c0 -10 1 -20 3 -30s6 -19 12 -27s14 -14 24 -19s22 -7 36 -7c25 0 47 8 65 25s31 36 38 58h48c-11 -44 -30 -78 -57 -102s-60 -36 -99 -36c-40 0 -70 12 -90 36s-28 58 -23 102h45zM340 -13l1 -1c-47 0 -90 9 -129 27s-71 43 -97 75s-45 69 -56 111
s-13 88 -6 137c8 48 24 93 48 136s54 80 90 112s76 57 121 75s91 27 139 27c47 0 90 -9 129 -27s71 -43 97 -75s45 -69 56 -112s13 -88 6 -136c-8 -49 -24 -94 -49 -136s-55 -79 -91 -111s-76 -57 -121 -75s-91 -27 -138 -27zM351 52l-1 -5c37 0 73 8 108 23s67 36 96 62
s53 56 73 90s33 71 39 110s5 76 -3 111s-22 65 -42 91s-46 47 -77 62s-66 23 -105 23c-37 0 -73 -7 -108 -22s-67 -35 -96 -61s-53 -56 -73 -91s-33 -72 -39 -111s-5 -75 4 -109s24 -64 44 -90s46 -46 77 -61s65 -22 103 -22z" />
    <glyph glyph-name="obreve" unicode="&#x14f;" horiz-adv-x="563" 
d="M257 684h-3c0 -10 1 -20 4 -30s8 -19 14 -27s14 -14 24 -19s22 -7 35 -7c25 0 47 9 65 26s31 36 38 57h47c-11 -44 -30 -78 -57 -102s-60 -36 -99 -36s-69 12 -89 36s-28 58 -24 102h45zM236 -13c-31 0 -60 6 -87 18s-50 29 -69 51s-33 49 -41 81s-9 68 -3 107
c7 40 19 76 37 108s40 60 66 83s54 41 85 53s63 18 96 18s63 -6 90 -19s50 -31 69 -54s32 -51 40 -83s9 -68 3 -107s-18 -74 -36 -106s-40 -59 -66 -81s-55 -39 -87 -51s-64 -18 -97 -18zM245 49h1c25 0 49 5 72 15s44 24 63 41s35 38 48 62s22 50 27 79s5 56 0 80
s-14 45 -27 63s-29 32 -49 42s-43 15 -69 15c-24 0 -47 -5 -70 -15s-44 -24 -63 -42s-35 -39 -48 -63s-22 -50 -27 -79c-5 -28 -5 -54 0 -78s14 -45 26 -63s28 -32 48 -42s43 -15 68 -15z" />
    <glyph glyph-name="Ohungarumlaut" unicode="&#x150;" horiz-adv-x="768" 
d="M616 862l-103 -132h-63l94 132h72zM501 862l-103 -132h-64l95 132h72zM342 -13l1 -1c-47 0 -90 9 -129 27s-71 43 -97 75s-45 69 -56 111s-13 88 -6 137c8 48 24 93 48 136s54 80 90 112s76 57 121 75s91 27 139 27c47 0 90 -9 129 -27s71 -43 97 -75s45 -69 56 -112
s13 -88 6 -136c-8 -49 -24 -94 -49 -136s-55 -79 -91 -111s-76 -57 -121 -75s-91 -27 -138 -27zM353 52l-1 -5c37 0 73 8 108 23s67 36 96 62s53 56 73 90s33 71 39 110s5 76 -3 111s-22 65 -42 91s-46 47 -77 62s-66 23 -105 23c-37 0 -73 -7 -108 -22s-67 -35 -96 -61
s-53 -56 -73 -91s-33 -72 -39 -111s-5 -75 4 -109s24 -64 44 -90s46 -46 77 -61s65 -22 103 -22z" />
    <glyph glyph-name="ohungarumlaut" unicode="&#x151;" horiz-adv-x="563" 
d="M515 682l-103 -132h-64l94 132h73zM399 682l-102 -132h-64l95 132h71zM239 -13c-31 0 -60 6 -87 18s-50 29 -69 51s-33 49 -41 81s-9 68 -3 107c7 40 19 76 37 108s40 60 66 83s54 41 85 53s63 18 96 18s63 -6 90 -19s50 -31 69 -54s32 -51 40 -83s9 -68 3 -107
s-18 -74 -36 -106s-40 -59 -66 -81s-55 -39 -87 -51s-64 -18 -97 -18zM248 49h1c25 0 49 5 72 15s44 24 63 41s35 38 48 62s22 50 27 79s5 56 0 80s-14 45 -27 63s-29 32 -49 42s-43 15 -69 15c-24 0 -47 -5 -70 -15s-44 -24 -63 -42s-35 -39 -48 -63s-22 -50 -27 -79
c-5 -28 -5 -54 0 -78s14 -45 26 -63s28 -32 48 -42s43 -15 68 -15z" />
    <glyph glyph-name="OE" unicode="&#x152;" horiz-adv-x="1006" 
d="M482 64l84 546h-150c-34 0 -67 -7 -100 -21s-62 -34 -88 -59s-48 -54 -66 -87s-30 -69 -36 -107s-5 -73 3 -106s21 -62 40 -87s42 -44 69 -58s58 -21 92 -21h152zM313 -2l1 -3c-43 0 -82 9 -117 27s-64 42 -88 72s-41 66 -51 107s-11 85 -4 132s22 91 45 132
s51 77 84 108s70 55 111 73s83 27 126 27h593l-10 -65h-369l-36 -229h349l-10 -65h-350l-39 -251h371l-10 -65h-596z" />
    <glyph glyph-name="oe" unicode="&#x153;" horiz-adv-x="959" 
d="M726 450l2 -1c-22 0 -43 -4 -64 -12s-40 -20 -57 -35s-32 -33 -45 -54s-23 -43 -30 -67l329 9c1 49 -10 88 -33 117s-57 43 -102 43zM250 48l3 -2c24 0 47 5 69 14s42 22 60 38s34 35 47 57s22 47 27 74c1 3 1 5 1 7s0 4 1 7s2 5 2 7s1 4 2 7c3 27 2 52 -3 75
s-14 43 -27 60s-29 30 -49 39s-42 14 -67 14c-24 0 -47 -5 -70 -15s-44 -24 -63 -42s-35 -39 -48 -63s-22 -50 -27 -79c-5 -28 -5 -54 0 -78s14 -45 26 -63s28 -32 48 -42s43 -15 68 -15zM876 66l-2 -3c-28 -26 -59 -46 -93 -60s-69 -21 -106 -21c-46 0 -87 11 -123 33
s-62 52 -79 91c-28 -39 -62 -69 -102 -91s-82 -33 -127 -33c-31 0 -60 6 -87 18s-50 29 -69 51s-33 49 -41 81s-9 68 -3 107c7 40 19 76 37 108s40 60 66 83s54 41 85 53s63 18 96 18c43 0 82 -11 116 -33s59 -52 74 -91c28 39 62 70 102 92s81 33 124 33c33 0 62 -6 88 -19
s48 -31 65 -54s29 -52 35 -86s6 -72 -1 -115h-402c-3 -27 -1 -52 5 -75s16 -42 30 -58s32 -28 53 -37s45 -13 72 -13c29 0 56 6 81 17s48 27 69 47z" />
    <glyph glyph-name="Racute" unicode="&#x154;" horiz-adv-x="646" 
d="M356 724l101 132h78l-109 -132h-70zM212 610l-52 -295h247c21 0 40 4 57 13s32 21 45 35s23 30 31 48s14 36 17 54s4 36 2 53s-6 33 -13 47s-17 25 -30 33s-29 12 -48 12h-256zM394 250h-243l-39 -250h-69l107 675h329c29 0 54 -6 74 -18s36 -28 48 -48s20 -42 24 -67
s4 -50 0 -76c-3 -23 -9 -45 -18 -67s-20 -42 -34 -61s-30 -35 -48 -49s-38 -24 -60 -31l79 -258h-74z" />
    <glyph glyph-name="racute" unicode="&#x155;" horiz-adv-x="356" 
d="M186 550l100 132h79l-108 -132h-71zM32 0l77 494h49l-3 -109c32 37 68 67 107 89s79 33 120 33l-10 -64c-23 0 -45 -3 -66 -10s-41 -16 -61 -27s-38 -24 -54 -39s-30 -31 -43 -48l-51 -319h-65z" />
    <glyph glyph-name="Rcommaaccent" unicode="&#x156;" horiz-adv-x="646" 
d="M212 610l-52 -295h247c21 0 40 4 57 13s32 21 45 35s23 30 31 48s14 36 17 54s4 36 2 53s-6 33 -13 47s-17 25 -30 33s-29 12 -48 12h-256zM394 250h-243l-39 -250h-69l107 675h329c29 0 54 -6 74 -18s36 -28 48 -48s20 -42 24 -67s4 -50 0 -76c-3 -23 -9 -45 -18 -67
s-20 -42 -34 -61s-30 -35 -48 -49s-38 -24 -60 -31l79 -258h-74zM205 -254v-1c11 15 21 29 29 42s15 28 20 45c-12 1 -21 7 -28 17s-9 22 -7 35s9 25 20 35s23 15 36 15c15 0 26 -6 33 -18s9 -25 6 -40c-4 -25 -13 -50 -28 -74s-36 -48 -63 -71z" />
    <glyph glyph-name="rcommaaccent" unicode="&#x157;" horiz-adv-x="356" 
d="M32 0l77 494h49l-3 -109c32 37 68 67 107 89s79 33 120 33l-10 -64c-23 0 -45 -3 -66 -10s-41 -16 -61 -27s-38 -24 -54 -39s-30 -31 -43 -48l-51 -319h-65zM-15 -255h1c11 15 21 29 29 42s15 28 21 45c-13 1 -23 7 -30 17s-9 22 -7 35s9 25 20 35s23 15 36 15
c15 0 26 -6 33 -18s9 -25 6 -40c-8 -51 -39 -100 -92 -146z" />
    <glyph glyph-name="Rcaron" unicode="&#x158;" horiz-adv-x="646" 
d="M275 855h68l47 -93l77 93h74l-107 -132h-94zM212 610l-52 -295h247c21 0 40 4 57 13s32 21 45 35s23 30 31 48s14 36 17 54s4 36 2 53s-6 33 -13 47s-17 25 -30 33s-29 12 -48 12h-256zM394 250h-243l-39 -250h-69l107 675h329c29 0 54 -6 74 -18s36 -28 48 -48
s20 -42 24 -67s4 -50 0 -76c-3 -23 -9 -45 -18 -67s-20 -42 -34 -61s-30 -35 -48 -49s-38 -24 -60 -31l79 -258h-74z" />
    <glyph glyph-name="rcaron" unicode="&#x159;" horiz-adv-x="356" 
d="M145 682h68l48 -94l78 94h71l-106 -132h-94zM32 0l77 494h49l-3 -109c32 37 68 67 107 89s79 33 120 33l-10 -64c-23 0 -45 -3 -66 -10s-41 -16 -61 -27s-38 -24 -54 -39s-30 -31 -43 -48l-51 -319h-65z" />
    <glyph glyph-name="Sacute" unicode="&#x15a;" horiz-adv-x="588" 
d="M320 724l101 132h78l-109 -132h-70zM49 145l-4 2c33 -32 69 -55 107 -70s81 -22 128 -22c22 0 43 3 63 9s38 15 54 26s29 25 39 41s17 34 20 54c5 33 -5 58 -29 75s-63 32 -117 45c-47 13 -85 27 -114 41s-51 29 -66 45s-25 34 -29 53s-4 40 -1 63c3 24 11 47 24 69
s30 41 51 57s46 29 74 39s60 15 95 15c46 0 90 -6 131 -18s78 -34 111 -66l-40 -55c-29 28 -61 47 -97 57s-74 15 -114 15c-21 0 -41 -3 -59 -9s-34 -14 -48 -24s-26 -22 -35 -36s-15 -29 -18 -46s-2 -32 2 -45s12 -24 24 -34s29 -19 50 -28s48 -18 80 -27
c39 -11 72 -23 99 -35s49 -25 65 -40s27 -31 33 -49s7 -39 4 -62c-4 -29 -13 -55 -28 -79s-34 -45 -57 -62s-49 -31 -79 -41s-62 -15 -96 -15c-55 0 -104 8 -147 24s-82 42 -118 78z" />
    <glyph glyph-name="sacute" unicode="&#x15b;" horiz-adv-x="477" 
d="M238 550l100 132h80l-108 -132h-72zM33 108l-3 -1c33 -23 65 -39 96 -47s66 -12 104 -12c31 0 58 7 80 22s35 33 38 54c3 25 -4 44 -22 57s-46 24 -85 33c-38 9 -68 19 -91 30s-40 23 -52 36s-19 27 -22 42s-3 30 -1 46c3 20 10 39 20 56s24 32 41 45s37 23 61 30
s50 11 79 11c33 0 66 -5 99 -14s60 -22 81 -39l-34 -51c-19 13 -42 23 -68 31s-53 12 -82 12c-35 0 -65 -7 -89 -21s-38 -33 -41 -58c-3 -21 3 -38 18 -51s45 -25 89 -36c33 -8 61 -17 84 -26s41 -20 54 -32s22 -26 27 -41s6 -33 3 -53c-3 -21 -10 -40 -21 -57
s-25 -32 -43 -45s-39 -23 -63 -30s-50 -11 -78 -11c-44 0 -83 6 -118 17s-67 28 -96 51z" />
    <glyph glyph-name="Scircumflex" unicode="&#x15c;" horiz-adv-x="588" 
d="M396 819l-78 -95h-71l108 132h90l67 -132h-68zM49 145l-4 2c33 -32 69 -55 107 -70s81 -22 128 -22c22 0 43 3 63 9s38 15 54 26s29 25 39 41s17 34 20 54c5 33 -5 58 -29 75s-63 32 -117 45c-47 13 -85 27 -114 41s-51 29 -66 45s-25 34 -29 53s-4 40 -1 63
c3 24 11 47 24 69s30 41 51 57s46 29 74 39s60 15 95 15c46 0 90 -6 131 -18s78 -34 111 -66l-40 -55c-29 28 -61 47 -97 57s-74 15 -114 15c-21 0 -41 -3 -59 -9s-34 -14 -48 -24s-26 -22 -35 -36s-15 -29 -18 -46s-2 -32 2 -45s12 -24 24 -34s29 -19 50 -28s48 -18 80 -27
c39 -11 72 -23 99 -35s49 -25 65 -40s27 -31 33 -49s7 -39 4 -62c-4 -29 -13 -55 -28 -79s-34 -45 -57 -62s-49 -31 -79 -41s-62 -15 -96 -15c-55 0 -104 8 -147 24s-82 42 -118 78z" />
    <glyph glyph-name="scircumflex" unicode="&#x15d;" horiz-adv-x="477" 
d="M308 645l-78 -95h-71l107 132h94l64 -132h-67zM33 108l-3 -1c33 -23 65 -39 96 -47s66 -12 104 -12c31 0 58 7 80 22s35 33 38 54c3 25 -4 44 -22 57s-46 24 -85 33c-38 9 -68 19 -91 30s-40 23 -52 36s-19 27 -22 42s-3 30 -1 46c3 20 10 39 20 56s24 32 41 45
s37 23 61 30s50 11 79 11c33 0 66 -5 99 -14s60 -22 81 -39l-34 -51c-19 13 -42 23 -68 31s-53 12 -82 12c-35 0 -65 -7 -89 -21s-38 -33 -41 -58c-3 -21 3 -38 18 -51s45 -25 89 -36c33 -8 61 -17 84 -26s41 -20 54 -32s22 -26 27 -41s6 -33 3 -53c-3 -21 -10 -40 -21 -57
s-25 -32 -43 -45s-39 -23 -63 -30s-50 -11 -78 -11c-44 0 -83 6 -118 17s-67 28 -96 51z" />
    <glyph glyph-name="Scedilla" unicode="&#x15e;" horiz-adv-x="588" 
d="M49 145l-4 2c33 -32 69 -55 107 -70s81 -22 128 -22c22 0 43 3 63 9s38 15 54 26s29 25 39 41s17 34 20 54c5 33 -5 58 -29 75s-63 32 -117 45c-47 13 -85 27 -114 41s-51 29 -66 45s-25 34 -29 53s-4 40 -1 63c3 24 11 47 24 69s30 41 51 57s46 29 74 39s60 15 95 15
c46 0 90 -6 131 -18s78 -34 111 -66l-40 -55c-29 28 -61 47 -97 57s-74 15 -114 15c-21 0 -41 -3 -59 -9s-34 -14 -48 -24s-26 -22 -35 -36s-15 -29 -18 -46s-2 -32 2 -45s12 -24 24 -34s29 -19 50 -28s48 -18 80 -27c39 -11 72 -23 99 -35s49 -25 65 -40s27 -31 33 -49
s7 -39 4 -62c-4 -29 -13 -55 -28 -79s-34 -45 -57 -62s-49 -31 -79 -41s-62 -15 -96 -15c-55 0 -104 8 -147 24s-82 42 -118 78zM179 -252l-2 -1c11 15 21 29 30 42s16 28 21 45c-13 1 -23 7 -30 17s-9 22 -7 35s9 25 20 35s24 15 38 15c15 0 26 -6 33 -18s9 -25 6 -40
c-4 -25 -13 -50 -28 -74s-36 -48 -64 -71z" />
    <glyph glyph-name="scedilla" unicode="&#x15f;" horiz-adv-x="477" 
d="M33 108l-3 -1c33 -23 65 -39 96 -47s66 -12 104 -12c31 0 58 7 80 22s35 33 38 54c3 25 -4 44 -22 57s-46 24 -85 33c-38 9 -68 19 -91 30s-40 23 -52 36s-19 27 -22 42s-3 30 -1 46c3 20 10 39 20 56s24 32 41 45s37 23 61 30s50 11 79 11c33 0 66 -5 99 -14
s60 -22 81 -39l-34 -51c-19 13 -42 23 -68 31s-53 12 -82 12c-35 0 -65 -7 -89 -21s-38 -33 -41 -58c-3 -21 3 -38 18 -51s45 -25 89 -36c33 -8 61 -17 84 -26s41 -20 54 -32s22 -26 27 -41s6 -33 3 -53c-3 -21 -10 -40 -21 -57s-25 -32 -43 -45s-39 -23 -63 -30
s-50 -11 -78 -11c-44 0 -83 6 -118 17s-67 28 -96 51zM112 -255v-1c11 15 21 29 29 42s15 28 20 45c-12 1 -21 7 -28 17s-9 22 -7 35s9 25 20 35s23 15 36 15c15 0 26 -6 33 -18s9 -25 6 -40c-4 -25 -13 -50 -28 -74s-36 -48 -63 -71z" />
    <glyph glyph-name="Scaron" unicode="&#x160;" horiz-adv-x="588" 
d="M257 855h69l47 -93l77 93h73l-107 -132h-93zM49 145l-4 2c33 -32 69 -55 107 -70s81 -22 128 -22c22 0 43 3 63 9s38 15 54 26s29 25 39 41s17 34 20 54c5 33 -5 58 -29 75s-63 32 -117 45c-47 13 -85 27 -114 41s-51 29 -66 45s-25 34 -29 53s-4 40 -1 63
c3 24 11 47 24 69s30 41 51 57s46 29 74 39s60 15 95 15c46 0 90 -6 131 -18s78 -34 111 -66l-40 -55c-29 28 -61 47 -97 57s-74 15 -114 15c-21 0 -41 -3 -59 -9s-34 -14 -48 -24s-26 -22 -35 -36s-15 -29 -18 -46s-2 -32 2 -45s12 -24 24 -34s29 -19 50 -28s48 -18 80 -27
c39 -11 72 -23 99 -35s49 -25 65 -40s27 -31 33 -49s7 -39 4 -62c-4 -29 -13 -55 -28 -79s-34 -45 -57 -62s-49 -31 -79 -41s-62 -15 -96 -15c-55 0 -104 8 -147 24s-82 42 -118 78z" />
    <glyph glyph-name="scaron" unicode="&#x161;" horiz-adv-x="477" 
d="M179 682h68l48 -94l78 94h71l-106 -132h-94zM33 108l-3 -1c33 -23 65 -39 96 -47s66 -12 104 -12c31 0 58 7 80 22s35 33 38 54c3 25 -4 44 -22 57s-46 24 -85 33c-38 9 -68 19 -91 30s-40 23 -52 36s-19 27 -22 42s-3 30 -1 46c3 20 10 39 20 56s24 32 41 45
s37 23 61 30s50 11 79 11c33 0 66 -5 99 -14s60 -22 81 -39l-34 -51c-19 13 -42 23 -68 31s-53 12 -82 12c-35 0 -65 -7 -89 -21s-38 -33 -41 -58c-3 -21 3 -38 18 -51s45 -25 89 -36c33 -8 61 -17 84 -26s41 -20 54 -32s22 -26 27 -41s6 -33 3 -53c-3 -21 -10 -40 -21 -57
s-25 -32 -43 -45s-39 -23 -63 -30s-50 -11 -78 -11c-44 0 -83 6 -118 17s-67 28 -96 51z" />
    <glyph glyph-name="Tcedilla" unicode="&#x162;" horiz-adv-x="586" 
d="M383 610l-96 -610h-69l97 610h-243l10 65h554l-10 -65h-243zM171 -254l-2 -3c11 15 21 29 30 42s16 28 21 45c-13 1 -23 7 -30 17s-9 22 -7 35s9 25 20 35s24 15 38 15c15 0 26 -6 33 -17s9 -24 6 -39c-4 -25 -13 -50 -28 -74s-36 -48 -64 -71z" />
    <glyph glyph-name="tcedilla" unicode="&#x163;" horiz-adv-x="287" 
d="M230 -13l-1 -3c-66 0 -111 15 -135 45s-32 69 -25 118l45 286h-56l9 60h57l19 126l70 29l-24 -155h113l-7 -45l-12 -15h-104l-44 -284c-3 -15 -3 -29 -1 -41s7 -23 15 -32s19 -16 34 -21s34 -7 57 -7zM50 -257l-3 -1c11 15 21 29 30 42s16 28 21 45c-13 1 -23 7 -30 17
s-9 22 -7 35c3 13 10 25 21 35s24 15 38 15c15 0 26 -6 33 -18s9 -25 6 -40c-4 -25 -13 -50 -28 -74s-36 -48 -63 -71z" />
    <glyph glyph-name="Tcaron" unicode="&#x164;" horiz-adv-x="586" 
d="M253 855h68l47 -93l77 93h73l-107 -132h-93zM383 610l-96 -610h-69l97 610h-243l10 65h554l-10 -65h-243z" />
    <glyph glyph-name="tcaron" unicode="&#x165;" horiz-adv-x="378" 
d="M341 474l1 -1c13 16 25 32 36 48s20 34 27 54c-15 0 -27 6 -36 17s-12 25 -9 41c3 15 10 28 22 39s26 16 42 16c17 0 29 -6 36 -19s9 -28 6 -45c-5 -29 -16 -57 -33 -85s-41 -55 -72 -82zM231 -14l-1 -3c-66 0 -111 15 -135 45s-32 69 -25 118l45 286h-56l9 60h57l19 126
l70 29l-24 -155h113l-7 -45l-12 -15h-104l-44 -284c-3 -15 -3 -29 -1 -41s7 -23 15 -32s19 -16 34 -21s34 -7 57 -7z" />
    <glyph glyph-name="Tbar" unicode="&#x166;" horiz-adv-x="595" 
d="M352 387l-61 -387h-68l61 387h-169l8 50h169l27 173h-243l11 65h553l-10 -65h-243l-27 -173h166l-9 -50h-165z" />
    <glyph glyph-name="tbar" unicode="&#x167;" horiz-adv-x="291" 
d="M232 -13l2 -3c-66 0 -111 15 -136 45s-34 69 -27 118l17 108h-56l8 51h56l21 127h-56l9 60h56l20 126l70 29l-25 -155h114l-7 -45l-12 -15h-104l-20 -127h114l-8 -51h-114l-17 -106c-3 -15 -3 -29 -1 -41s7 -23 15 -32s19 -16 34 -21s34 -7 57 -7z" />
    <glyph glyph-name="Utilde" unicode="&#x168;" horiz-adv-x="699" 
d="M301 756c5 29 17 51 35 65s37 21 56 21c12 0 23 -2 32 -6s18 -8 26 -13s16 -9 24 -13s17 -6 27 -6c7 0 13 2 19 6s11 12 14 23h37c-5 -29 -15 -52 -30 -68s-33 -24 -54 -24c-12 0 -23 2 -33 6s-20 8 -29 13s-18 9 -27 13s-18 6 -28 6c-15 0 -25 -8 -30 -23h-39zM215 675
l-65 -412c-6 -35 -6 -66 0 -93s17 -49 33 -66s36 -30 60 -39s51 -13 81 -13c27 0 53 4 78 13s48 22 68 39s38 39 53 66s25 58 30 93l66 411h68l-66 -414c-7 -45 -20 -85 -39 -119s-42 -62 -69 -85s-58 -40 -92 -52s-70 -18 -107 -18c-39 0 -74 6 -106 18s-58 29 -79 52
s-36 52 -45 86s-10 74 -3 119l66 414h68z" />
    <glyph glyph-name="utilde" unicode="&#x169;" horiz-adv-x="569" 
d="M203 597h-2c5 29 17 51 35 65s37 21 57 21c11 0 21 -2 30 -6s18 -8 27 -13s18 -9 26 -13s17 -6 26 -6c7 0 14 2 20 6s11 12 14 23h37c-5 -29 -14 -52 -28 -68s-33 -24 -56 -24c-12 0 -23 2 -33 6s-20 8 -29 13s-18 9 -27 13s-18 6 -28 6c-6 0 -12 -2 -17 -6
s-9 -10 -12 -17h-40zM409 92v-1c-29 -32 -61 -57 -95 -76s-68 -28 -102 -28c-25 0 -48 4 -70 12s-40 21 -55 38s-25 39 -31 66s-6 59 0 96l47 297h65l-46 -291c-8 -53 -2 -92 19 -117s52 -37 93 -37c18 0 35 3 51 9s32 14 47 24s30 22 44 36s27 29 39 44l52 331h65l-78 -495
h-47z" />
    <glyph glyph-name="Umacron" unicode="&#x16a;" horiz-adv-x="699" 
d="M293 818h292l-9 -58h-291zM215 675l-65 -412c-6 -35 -6 -66 0 -93s17 -49 33 -66s36 -30 60 -39s51 -13 81 -13c27 0 53 4 78 13s48 22 68 39s38 39 53 66s25 58 30 93l66 411h68l-66 -414c-7 -45 -20 -85 -39 -119s-42 -62 -69 -85s-58 -40 -92 -52s-70 -18 -107 -18
c-39 0 -74 6 -106 18s-58 29 -79 52s-36 52 -45 86s-10 74 -3 119l66 414h68z" />
    <glyph glyph-name="umacron" unicode="&#x16b;" horiz-adv-x="569" 
d="M216 647h260l-9 -58h-261zM411 92v-1c-29 -32 -61 -57 -95 -76s-68 -28 -102 -28c-25 0 -48 4 -70 12s-40 21 -55 38s-25 39 -31 66s-6 59 0 96l47 297h65l-46 -291c-8 -53 -2 -92 19 -117s52 -37 93 -37c18 0 35 3 51 9s32 14 47 24s30 22 44 36s27 29 39 44l52 331h65
l-78 -495h-47z" />
    <glyph glyph-name="Ubreve" unicode="&#x16c;" horiz-adv-x="699" 
d="M356 858h-3c0 -10 1 -20 3 -30s6 -19 12 -27s14 -14 24 -19s22 -7 36 -7c25 0 47 8 65 25s31 36 38 58h48c-11 -44 -30 -78 -57 -102s-60 -36 -99 -36s-69 12 -89 36s-28 58 -24 102h46zM212 675l-65 -412c-6 -35 -6 -66 0 -93s17 -49 33 -66s36 -30 60 -39
s51 -13 81 -13c27 0 53 4 78 13s48 22 68 39s38 39 53 66s25 58 30 93l66 411h68l-66 -414c-7 -45 -20 -85 -39 -119s-42 -62 -69 -85s-58 -40 -92 -52s-70 -18 -107 -18c-39 0 -74 6 -106 18s-58 29 -79 52s-36 52 -45 86s-10 74 -3 119l66 414h68z" />
    <glyph glyph-name="ubreve" unicode="&#x16d;" horiz-adv-x="569" 
d="M258 684h-3c0 -10 1 -20 4 -30s8 -19 14 -27s14 -14 24 -19s22 -7 35 -7c25 0 47 9 65 26s31 36 38 57h47c-11 -44 -30 -78 -57 -102s-60 -36 -99 -36s-69 12 -89 36s-28 58 -23 102h44zM408 92v-1c-29 -32 -61 -57 -95 -76s-68 -28 -102 -28c-25 0 -48 4 -70 12
s-40 21 -55 38s-25 39 -31 66s-6 59 0 96l47 297h65l-46 -291c-8 -53 -2 -92 19 -117s52 -37 93 -37c18 0 35 3 51 9s32 14 47 24s30 22 44 36s27 29 39 44l52 331h65l-78 -495h-47z" />
    <glyph glyph-name="Uring" unicode="&#x16e;" horiz-adv-x="699" 
d="M331 829l-1 -2c0 29 9 53 28 72s43 29 73 29s54 -9 72 -28s27 -43 27 -72s-9 -53 -27 -72s-42 -28 -72 -28c-33 0 -58 10 -75 29s-25 43 -25 72zM431 772l-2 -1c13 0 25 5 35 15s15 23 15 39c0 18 -5 32 -15 41s-21 14 -34 14s-25 -5 -35 -15s-15 -23 -15 -40
s5 -30 15 -39s22 -14 36 -14zM212 672l-65 -412c-6 -35 -6 -66 0 -93s17 -49 33 -66s36 -30 60 -39s51 -13 81 -13c27 0 53 4 78 13s48 22 68 39s38 39 53 66s25 58 30 93l66 411h68l-66 -414c-7 -45 -20 -85 -39 -119s-42 -62 -69 -85s-58 -40 -92 -52s-70 -18 -107 -18
c-39 0 -74 6 -106 18s-58 29 -79 52s-36 52 -45 86s-10 74 -3 119l66 414h68z" />
    <glyph glyph-name="uring" unicode="&#x16f;" horiz-adv-x="568" 
d="M242 650l-1 -1c0 28 9 52 28 71s43 29 73 29s54 -10 72 -29s27 -43 27 -71c0 -29 -9 -53 -27 -72s-42 -28 -72 -28c-33 0 -58 10 -75 29s-25 43 -25 72zM342 594l-2 -3c13 0 25 5 35 15s15 23 15 40s-5 31 -15 41s-21 15 -34 15s-25 -5 -35 -15s-15 -23 -15 -40
c0 -18 5 -31 15 -40s22 -13 36 -13zM408 88v-1c-29 -32 -61 -57 -95 -76s-68 -28 -102 -28c-25 0 -48 4 -70 12s-40 21 -55 38s-25 39 -31 66s-6 59 0 96l47 297h65l-46 -291c-8 -53 -2 -92 19 -117s52 -37 93 -37c18 0 35 3 51 9s32 14 47 24s30 22 44 36s27 29 39 44
l52 331h65l-78 -495h-47z" />
    <glyph glyph-name="Uhungarumlaut" unicode="&#x170;" horiz-adv-x="699" 
d="M608 862l-102 -132h-64l94 132h72zM493 862l-103 -132h-64l95 132h72zM215 675l-65 -412c-6 -35 -6 -66 0 -93s17 -49 33 -66s36 -30 60 -39s51 -13 81 -13c27 0 53 4 78 13s48 22 68 39s38 39 53 66s25 58 30 93l66 411h68l-66 -414c-7 -45 -20 -85 -39 -119
s-42 -62 -69 -85s-58 -40 -92 -52s-70 -18 -107 -18c-39 0 -74 6 -106 18s-58 29 -79 52s-36 52 -45 86s-10 74 -3 119l66 414h68z" />
    <glyph glyph-name="uhungarumlaut" unicode="&#x171;" horiz-adv-x="569" 
d="M514 682l-103 -132h-64l95 132h72zM398 682l-102 -132h-64l95 132h71zM411 92v-1c-29 -32 -61 -57 -95 -76s-68 -28 -102 -28c-25 0 -48 4 -70 12s-40 21 -55 38s-25 39 -31 66s-6 59 0 96l47 297h65l-46 -291c-8 -53 -2 -92 19 -117s52 -37 93 -37c18 0 35 3 51 9
s32 14 47 24s30 22 44 36s27 29 39 44l52 331h65l-78 -495h-47z" />
    <glyph glyph-name="Uogonek" unicode="&#x172;" horiz-adv-x="699" 
d="M319 -187v2c-30 0 -54 8 -71 24s-23 38 -18 67c3 17 9 33 18 47s20 26 33 37c-35 3 -66 11 -93 24s-50 31 -68 54s-30 51 -37 83s-7 69 0 111l66 414h68l-65 -411c-6 -35 -6 -66 0 -93s17 -49 33 -66s36 -30 60 -39s51 -13 81 -13c27 0 53 4 78 13s48 22 68 39
s38 39 53 66s25 58 30 93l66 411h68l-66 -414c-6 -39 -17 -74 -33 -105s-35 -58 -57 -81s-47 -41 -75 -55s-58 -24 -89 -29c-25 -11 -43 -23 -55 -37s-19 -29 -22 -45c-3 -14 0 -26 8 -36s20 -15 36 -15c27 0 50 9 70 27l5 -44c-23 -19 -54 -29 -92 -29z" />
    <glyph glyph-name="uogonek" unicode="&#x173;" horiz-adv-x="569" 
d="M442 -167h-1c-24 -20 -55 -30 -92 -30c-29 0 -52 8 -69 24s-23 38 -18 67c3 18 9 34 18 48s21 27 35 38s29 20 45 28s33 15 51 20l1 64c-29 -32 -61 -57 -95 -76s-68 -28 -102 -28c-25 0 -48 4 -70 12s-40 21 -55 38s-25 39 -31 66s-6 59 0 96l47 297h65l-46 -291
c-8 -53 -2 -92 19 -117s52 -37 93 -37c18 0 35 3 51 9s32 14 47 24s30 22 44 36s27 29 39 44l52 331h65l-78 -495c-47 -12 -80 -26 -100 -43s-31 -36 -34 -57c-2 -14 1 -26 9 -36s20 -15 36 -15c27 0 50 9 69 27l5 -44v0z" />
    <glyph glyph-name="Wcircumflex" unicode="&#x174;" horiz-adv-x="969" 
d="M564 819l-78 -95h-71l109 132h89l67 -132h-68zM83 675h74l97 -589l260 589h67l83 -592l283 592h72l-330 -675h-74l-80 583l-260 -583h-74z" />
    <glyph glyph-name="wcircumflex" unicode="&#x175;" horiz-adv-x="769" 
d="M447 645l-79 -95h-70l106 132h95l64 -132h-68zM54 495l67 -3l72 -425c41 63 78 130 110 201s60 146 84 224h60l69 -427c44 67 83 136 116 207s61 145 84 222h68c-62 -189 -146 -354 -251 -495h-60l-64 402c-23 -73 -51 -142 -84 -208s-72 -130 -117 -193h-60z" />
    <glyph glyph-name="Ycircumflex" unicode="&#x176;" horiz-adv-x="655" 
d="M413 819l-78 -95h-72l109 132h90l67 -132h-68zM322 0h-69l38 238l-216 437h75l184 -379l301 379h80l-355 -438z" />
    <glyph glyph-name="ycircumflex" unicode="&#x177;" horiz-adv-x="489" 
d="M304 645l-79 -95h-70l106 132h95l64 -132h-67zM-54 -173v-2c18 0 37 6 57 18s40 27 60 45s39 38 57 60s35 43 50 63l-116 483h71l93 -420c23 31 45 63 66 95s41 65 59 99s35 70 51 107s32 77 47 119h69c-28 -81 -67 -166 -118 -256s-111 -179 -180 -268
c-24 -31 -48 -59 -72 -84s-47 -47 -70 -65s-46 -32 -68 -42s-44 -15 -66 -15z" />
    <glyph glyph-name="Ydieresis" unicode="&#x178;" horiz-adv-x="655" 
d="M299 744v-2c-12 0 -22 5 -31 14s-12 22 -9 38c2 14 9 26 20 36s23 15 36 15s23 -5 31 -15s11 -22 9 -36c-3 -16 -10 -28 -22 -37s-23 -13 -34 -13zM494 742l1 -2c-12 0 -22 5 -31 14s-12 22 -9 38c2 14 9 26 20 36s23 15 36 15s23 -5 31 -15s11 -22 8 -36
c-3 -16 -10 -28 -22 -37s-23 -13 -34 -13zM323 -4h-69l38 238l-216 437h75l184 -379l301 379h80l-355 -438z" />
    <glyph glyph-name="Zacute" unicode="&#x179;" horiz-adv-x="585" 
d="M320 724l101 132h78l-108 -132h-71zM-9 0l7 46l508 564h-407l10 65h502l-7 -44l-511 -566h433l-11 -65h-524z" />
    <glyph glyph-name="zacute" unicode="&#x17a;" horiz-adv-x="469" 
d="M230 550l100 132h80l-108 -132h-72zM396 0h-1c-121 18 -256 18 -405 0l10 60l368 369c-101 -6 -198 -4 -291 6l9 60c132 -13 259 -13 380 0l-10 -60l-365 -366c112 8 217 5 315 -9z" />
    <glyph glyph-name="Zdotaccent" unicode="&#x17b;" horiz-adv-x="585" 
d="M361 753l-2 -2c-11 0 -21 5 -30 14s-12 22 -9 38c3 14 10 26 21 36s23 15 36 15s24 -5 32 -15s11 -22 8 -36c-3 -16 -10 -28 -22 -37s-23 -13 -34 -13zM-11 -2l7 46l508 564h-407l10 65h502l-7 -44l-511 -566h433l-11 -65h-524z" />
    <glyph glyph-name="zdotaccent" unicode="&#x17c;" horiz-adv-x="469" 
d="M282 590l-2 -2c-11 0 -21 5 -30 14s-12 22 -9 38c3 14 10 26 21 36s23 15 36 15s23 -5 31 -15s11 -22 9 -36c-3 -16 -10 -28 -22 -37s-23 -13 -34 -13zM394 -2h-1c-121 18 -256 18 -405 0l10 60l368 369c-101 -6 -198 -4 -291 6l9 60c132 -13 259 -13 380 0l-10 -60
l-365 -366c112 8 217 5 315 -9z" />
    <glyph glyph-name="Zcaron" unicode="&#x17d;" horiz-adv-x="585" 
d="M242 855h69l47 -93l77 93h73l-107 -132h-93zM-9 0l7 46l508 564h-407l10 65h502l-7 -44l-511 -566h433l-11 -65h-524z" />
    <glyph glyph-name="zcaron" unicode="&#x17e;" horiz-adv-x="469" 
d="M170 682h68l47 -94l78 94h72l-106 -132h-95zM396 0h-1c-121 18 -256 18 -405 0l10 60l368 369c-101 -6 -198 -4 -291 6l9 60c132 -13 259 -13 380 0l-10 -60l-365 -366c112 8 217 5 315 -9z" />
    <glyph glyph-name="longs" unicode="&#x17f;" horiz-adv-x="240" 
d="M-92 -187h-3c15 0 29 3 42 8s25 12 35 21s19 20 26 32s12 25 14 39l83 520h-41l10 60h40l9 57c4 26 12 49 24 69s27 37 45 51s38 25 60 32s45 11 69 11l-13 -60c-31 0 -57 -9 -78 -28s-34 -43 -39 -73l-101 -637c-4 -26 -12 -49 -24 -69s-26 -37 -43 -51s-37 -24 -59 -31
s-45 -11 -69 -11z" />
    <glyph glyph-name="Schwa" unicode="&#x18f;" horiz-adv-x="756" 
d="M338 -13l-1 -4c-47 0 -90 9 -129 26s-72 41 -99 72s-47 68 -59 110s-14 88 -7 137h614v4c6 39 5 76 -4 111s-24 65 -45 91s-47 47 -78 62s-65 23 -102 23c-30 0 -60 -5 -90 -14s-58 -23 -83 -42l-39 49c33 24 68 42 106 55s77 19 117 19c48 0 91 -9 130 -27
s71 -43 97 -75s45 -69 56 -112s13 -88 6 -136c-8 -49 -24 -94 -48 -136s-54 -79 -89 -111s-74 -57 -118 -75s-89 -27 -135 -27zM347 49h-2c31 0 61 6 91 17s58 26 84 45s49 42 69 68s36 55 48 86h-528c2 -32 10 -61 23 -88s30 -50 51 -69s46 -34 74 -44s58 -15 90 -15z" />
    <glyph glyph-name="florin" unicode="&#x192;" horiz-adv-x="293" 
d="M-69 -187h3c15 0 29 3 42 8s25 12 35 21s19 20 26 32s11 25 13 39l83 520h-69l9 60h70l9 57c4 26 12 49 24 69s27 37 44 51s37 25 59 32s45 11 69 11l-12 -60c-31 0 -57 -9 -79 -28s-35 -43 -40 -73l-9 -57h97l-3 -20l-14 -40h-89l-82 -520c-4 -26 -12 -49 -24 -69
s-27 -37 -45 -51s-38 -24 -60 -31s-45 -11 -69 -11z" />
    <glyph glyph-name="DZcaron" unicode="&#x1c4;" horiz-adv-x="1305" 
d="M212 610l-88 -544h197c36 0 71 7 104 21s63 34 90 59s49 54 67 87s30 68 36 105s6 72 -1 105s-19 62 -37 87s-40 45 -67 59s-58 21 -93 21h-208zM152 676l278 3c43 0 82 -9 117 -27s64 -42 87 -72s40 -66 50 -107s11 -85 4 -132s-22 -91 -44 -132s-49 -77 -82 -108
s-70 -55 -111 -73s-84 -27 -129 -27h-277zM961 859h69l47 -93l77 93h73l-107 -132h-93zM710 4l7 46l508 564h-407l10 65h502l-7 -44l-511 -566h433l-11 -65h-524z" />
    <glyph glyph-name="Dzcaron" unicode="&#x1c5;" horiz-adv-x="1181" 
d="M212 610l-88 -544h197c36 0 71 7 104 21s63 34 90 59s49 54 67 87s30 68 36 105s6 72 -1 105s-19 62 -37 87s-40 45 -67 59s-58 21 -93 21h-208zM880 681h67l48 -94l78 94h72l-106 -132h-95zM1106 1c-121 18 -256 18 -405 0l9 60l368 369c-101 -6 -198 -4 -291 6l9 60
c132 -13 259 -13 380 0l-10 -60l-365 -366c112 8 217 5 314 -9zM152 676l278 3c43 0 82 -9 117 -27s64 -42 87 -72s40 -66 50 -107s11 -85 4 -132s-22 -91 -44 -132s-49 -77 -82 -108s-70 -55 -111 -73s-84 -27 -129 -27h-277z" />
    <glyph glyph-name="dzcaron" unicode="&#x1c6;" horiz-adv-x="1061" 
d="M764 682h68l47 -94l78 94h72l-106 -132h-95zM988 0c-120 18 -255 18 -404 0l9 60l368 369c-101 -6 -198 -4 -292 6l9 60c132 -13 259 -13 380 0l-10 -60l-365 -366c112 8 217 5 315 -9zM250 49h-1c25 0 49 5 73 15s45 24 64 41s35 38 48 62s22 50 27 78c5 29 5 56 0 80
s-14 45 -27 63s-30 32 -51 42s-45 15 -72 15c-25 0 -49 -5 -72 -16s-43 -25 -61 -43s-33 -39 -46 -63s-21 -49 -25 -76s-4 -52 0 -76s12 -45 24 -63s28 -32 48 -43s44 -16 71 -16zM436 83l-5 -3c-28 -30 -59 -53 -94 -70s-70 -25 -106 -25c-32 0 -61 7 -88 20s-49 31 -67 54
s-31 50 -39 82s-9 67 -3 104c6 38 18 73 36 105s39 60 64 83s53 41 84 54s63 20 96 20c38 0 72 -8 101 -24s53 -38 71 -66l3 44l39 252h66l-113 -713h-44z" />
    <glyph glyph-name="LJ" unicode="&#x1c7;" horiz-adv-x="1074" 
d="M154 675h68l-96 -610h368l-10 -65h-437zM753 -13l-4 -2c-54 0 -99 11 -135 33s-63 52 -82 90l49 42c17 -34 40 -59 68 -74s63 -23 104 -23c18 0 36 3 54 10s34 17 49 30s28 30 39 50s18 43 22 69l74 462h69l-74 -466c-6 -39 -17 -73 -32 -101s-33 -51 -54 -69
s-44 -31 -69 -39s-51 -12 -78 -12z" />
    <glyph glyph-name="Lj" unicode="&#x1c8;" horiz-adv-x="752" 
d="M154 675h68l-96 -610h368l-10 -65h-437zM702 601h-2c-13 0 -24 5 -32 15s-11 22 -8 36c2 13 9 25 20 35s23 15 36 15s24 -5 32 -15s11 -22 9 -35c-2 -14 -8 -26 -19 -36s-23 -15 -36 -15zM627 -66h1c-4 -25 -12 -48 -24 -69s-27 -39 -45 -54s-38 -26 -60 -34
s-45 -12 -68 -12l9 62c15 0 29 3 43 9s26 14 37 24s20 22 27 35s12 26 14 39l90 561h65z" />
    <glyph glyph-name="lj" unicode="&#x1c9;" horiz-adv-x="425" 
d="M148 714h65l-113 -714h-65zM375 601h-1c-13 0 -24 5 -32 15s-11 22 -9 36c2 13 9 25 20 35s23 15 36 15s24 -5 32 -15s11 -22 9 -35c-2 -14 -8 -26 -19 -36s-23 -15 -36 -15zM301 -66h1c-4 -25 -12 -48 -24 -69s-27 -39 -45 -54s-38 -26 -60 -34s-45 -12 -69 -12l10 62
c15 0 29 3 43 9s26 14 37 24s20 22 27 35s12 26 14 39l90 561h65z" />
    <glyph glyph-name="NJ" unicode="&#x1ca;" horiz-adv-x="1263" 
d="M207 576l-91 -576h-69l107 675h68l328 -577l91 577h69l-107 -675h-69zM942 -13l-4 -2c-54 0 -99 11 -135 33s-63 52 -82 90l49 42c17 -34 40 -59 68 -74s63 -23 104 -23c18 0 36 3 54 10s34 17 49 30s28 30 39 50s18 43 22 69l74 462h69l-74 -466
c-6 -39 -17 -73 -32 -101s-33 -51 -54 -69s-44 -31 -69 -39s-51 -12 -78 -12z" />
    <glyph glyph-name="Nj" unicode="&#x1cb;" horiz-adv-x="941" 
d="M207 576l-91 -576h-69l107 675h68l328 -577l91 577h69l-107 -675h-69zM891 601h-2c-13 0 -24 5 -32 15s-11 22 -8 36c2 13 9 25 20 35s23 15 36 15s24 -5 32 -15s11 -22 9 -35c-2 -14 -8 -26 -19 -36s-23 -15 -36 -15zM816 -66h1c-4 -25 -12 -48 -24 -69s-27 -39 -45 -54
s-38 -26 -60 -34s-45 -12 -68 -12l9 62c15 0 29 3 43 9s26 14 37 24s20 22 27 35s12 26 14 39l90 561h65z" />
    <glyph glyph-name="nj" unicode="&#x1cc;" horiz-adv-x="792" 
d="M742 601h-1c-13 0 -24 5 -32 15s-11 22 -9 36c2 13 9 25 20 35s23 15 36 15s24 -5 32 -15s11 -22 9 -35c-2 -14 -8 -26 -19 -36s-23 -15 -36 -15zM668 -66h1c-4 -25 -12 -48 -24 -69s-27 -39 -45 -54s-38 -26 -60 -34s-45 -12 -69 -12l10 62c15 0 29 3 43 9s26 14 37 24
s20 22 27 35s12 26 14 39l90 561h65zM340 444v-1c-18 0 -36 -3 -54 -9s-35 -14 -51 -24s-31 -22 -46 -36s-28 -29 -40 -45l-52 -330h-66l79 495h47l-3 -92c31 35 64 61 99 79s71 27 107 27c26 0 50 -4 73 -12s42 -20 57 -37s26 -38 33 -64s7 -57 1 -93l-48 -301h-65l47 293
c8 52 1 90 -22 114s-55 36 -96 36z" />
    <glyph glyph-name="Acaron" unicode="&#x1cd;" horiz-adv-x="656" 
d="M287 855h68l47 -93l77 93h74l-107 -132h-94zM384 601l-199 -351h286zM487 185h-338l-105 -185h-74l387 675h75l174 -675h-73z" />
    <glyph glyph-name="acaron" unicode="&#x1ce;" 
d="M229 682h68l48 -94l77 94h72l-106 -132h-94zM250 49h1c25 0 49 5 72 15s44 24 63 42s35 39 48 63s22 50 27 78s5 54 0 78s-14 45 -27 63s-30 32 -50 42s-43 15 -70 15c-25 0 -49 -5 -72 -16s-44 -25 -63 -43s-35 -39 -48 -63s-21 -49 -25 -76s-4 -52 0 -76s13 -45 26 -63
s29 -32 49 -43s43 -16 69 -16zM440 87l-1 -2c-28 -30 -60 -54 -95 -72s-72 -27 -110 -27c-31 0 -60 7 -87 20s-49 31 -67 54s-31 51 -39 83s-9 67 -3 104s18 72 36 104s40 60 66 83s54 41 85 54s63 20 95 20c37 0 71 -9 101 -26s54 -41 71 -71l25 84h43l-78 -495h-44z" />
    <glyph glyph-name="Icaron" unicode="&#x1cf;" horiz-adv-x="243" 
d="M86 855h69l47 -93l77 93h73l-107 -132h-93zM154 675h68l-106 -675h-69z" />
    <glyph glyph-name="icaron" unicode="&#x1d0;" horiz-adv-x="212" 
d="M41 682h68l47 -94l78 94h72l-106 -132h-95zM112 495h65l-78 -495h-66z" />
    <glyph glyph-name="Ocaron" unicode="&#x1d1;" horiz-adv-x="768" 
d="M345 855h68l47 -93l77 93h74l-107 -132h-94zM342 -13l1 -1c-47 0 -90 9 -129 27s-71 43 -97 75s-45 69 -56 111s-13 88 -6 137c8 48 24 93 48 136s54 80 90 112s76 57 121 75s91 27 139 27c47 0 90 -9 129 -27s71 -43 97 -75s45 -69 56 -112s13 -88 6 -136
c-8 -49 -24 -94 -49 -136s-55 -79 -91 -111s-76 -57 -121 -75s-91 -27 -138 -27zM353 52l-1 -5c37 0 73 8 108 23s67 36 96 62s53 56 73 90s33 71 39 110s5 76 -3 111s-22 65 -42 91s-46 47 -77 62s-66 23 -105 23c-37 0 -73 -7 -108 -22s-67 -35 -96 -61s-53 -56 -73 -91
s-33 -72 -39 -111s-5 -75 4 -109s24 -64 44 -90s46 -46 77 -61s65 -22 103 -22z" />
    <glyph glyph-name="ocaron" unicode="&#x1d2;" horiz-adv-x="563" 
d="M207 682h67l48 -94l78 94h72l-106 -132h-95zM239 -13c-31 0 -60 6 -87 18s-50 29 -69 51s-33 49 -41 81s-9 68 -3 107c7 40 19 76 37 108s40 60 66 83s54 41 85 53s63 18 96 18s63 -6 90 -19s50 -31 69 -54s32 -51 40 -83s9 -68 3 -107s-18 -74 -36 -106s-40 -59 -66 -81
s-55 -39 -87 -51s-64 -18 -97 -18zM248 49h1c25 0 49 5 72 15s44 24 63 41s35 38 48 62s22 50 27 79s5 56 0 80s-14 45 -27 63s-29 32 -49 42s-43 15 -69 15c-24 0 -47 -5 -70 -15s-44 -24 -63 -42s-35 -39 -48 -63s-22 -50 -27 -79c-5 -28 -5 -54 0 -78s14 -45 26 -63
s28 -32 48 -42s43 -15 68 -15z" />
    <glyph glyph-name="Ucaron" unicode="&#x1d3;" horiz-adv-x="699" 
d="M307 855h68l48 -93l77 93h73l-107 -132h-94zM215 675l-65 -412c-6 -35 -6 -66 0 -93s17 -49 33 -66s36 -30 60 -39s51 -13 81 -13c27 0 53 4 78 13s48 22 68 39s38 39 53 66s25 58 30 93l66 411h68l-66 -414c-7 -45 -20 -85 -39 -119s-42 -62 -69 -85s-58 -40 -92 -52
s-70 -18 -107 -18c-39 0 -74 6 -106 18s-58 29 -79 52s-36 52 -45 86s-10 74 -3 119l66 414h68z" />
    <glyph glyph-name="ucaron" unicode="&#x1d4;" horiz-adv-x="569" 
d="M211 682h68l48 -94l78 94h72l-107 -132h-94zM411 92v-1c-29 -32 -61 -57 -95 -76s-68 -28 -102 -28c-25 0 -48 4 -70 12s-40 21 -55 38s-25 39 -31 66s-6 59 0 96l47 297h65l-46 -291c-8 -53 -2 -92 19 -117s52 -37 93 -37c18 0 35 3 51 9s32 14 47 24s30 22 44 36
s27 29 39 44l52 331h65l-78 -495h-47z" />
    <glyph glyph-name="Udieresismacron" unicode="&#x1d5;" horiz-adv-x="699" 
d="M310 928h291l-9 -58h-291zM326 718l1 -2c-12 0 -22 5 -31 14s-12 22 -9 38c2 14 9 26 20 36s23 15 36 15c12 0 22 -5 30 -15s11 -22 9 -36c-3 -16 -10 -28 -22 -37s-23 -13 -34 -13zM522 716l3 -2c-12 0 -23 5 -32 14s-12 22 -9 38c2 14 9 26 20 36s23 15 36 15
c12 0 22 -5 30 -15s11 -22 8 -36c-3 -16 -10 -28 -22 -37s-23 -13 -34 -13zM219 671l-65 -412c-6 -35 -6 -66 0 -93s17 -49 33 -66s36 -30 60 -39s51 -13 81 -13c27 0 53 4 78 13s48 22 68 39s38 39 53 66s25 58 30 93l66 411h68l-66 -414c-7 -45 -20 -85 -39 -119
s-42 -62 -69 -85s-58 -40 -92 -52s-70 -18 -107 -18c-39 0 -74 6 -106 18s-58 29 -79 52s-36 52 -45 86s-10 74 -3 119l66 414h68z" />
    <glyph glyph-name="udieresismacron" unicode="&#x1d6;" horiz-adv-x="569" 
d="M228 728h261l-9 -58h-261zM238 526l-1 -2c-12 0 -22 5 -31 14s-12 22 -9 38c3 14 10 26 21 35s23 14 36 14s23 -5 31 -14s11 -21 9 -35c-3 -16 -10 -28 -22 -37s-23 -13 -34 -13zM417 524v-2c-12 0 -22 5 -31 14s-12 22 -9 38c2 14 9 26 20 35s23 14 36 14s23 -5 31 -14
s11 -21 9 -35c-3 -16 -10 -28 -22 -37s-23 -13 -34 -13zM410 88v-1c-29 -32 -61 -57 -95 -76s-68 -28 -102 -28c-25 0 -48 4 -70 12s-40 21 -55 38s-25 39 -31 66s-6 59 0 96l47 297h65l-46 -291c-8 -53 -2 -92 19 -117s52 -37 93 -37c18 0 35 3 51 9s32 14 47 24
s30 22 44 36s27 29 39 44l52 331h65l-78 -495h-47z" />
    <glyph glyph-name="Udieresisacute" unicode="&#x1d7;" horiz-adv-x="699" 
d="M409 857l101 132h78l-109 -132h-70zM332 718l-1 -2c-11 0 -21 5 -30 14s-12 22 -9 38c2 14 9 26 20 36s23 15 36 15s23 -5 31 -15s11 -22 9 -36c-3 -16 -10 -28 -22 -37s-23 -13 -34 -13zM526 716l-1 -2c-11 0 -21 5 -30 14s-12 22 -9 38c2 14 9 26 20 36s23 15 36 15
s23 -5 31 -15s11 -22 9 -36c-3 -16 -10 -28 -22 -37s-23 -13 -34 -13zM213 671l-65 -412c-6 -35 -6 -66 0 -93s17 -49 33 -66s36 -30 60 -39s51 -13 81 -13c27 0 53 4 78 13s48 22 68 39s38 39 53 66s25 58 30 93l66 411h68l-66 -414c-7 -45 -20 -85 -39 -119
s-42 -62 -69 -85s-58 -40 -92 -52s-70 -18 -107 -18c-39 0 -74 6 -106 18s-58 29 -79 52s-36 52 -45 86s-10 74 -3 119l66 414h68z" />
    <glyph glyph-name="udieresisacute" unicode="&#x1d8;" horiz-adv-x="569" 
d="M310 647l100 132h79l-108 -132h-71zM241 526l-1 -2c-11 0 -21 5 -30 14s-12 22 -9 38c2 14 9 26 20 35s23 14 36 14s24 -5 32 -14s11 -21 8 -35c-3 -16 -10 -28 -22 -37s-23 -13 -34 -13zM420 524l-1 -2c-11 0 -21 5 -30 14s-12 22 -9 38c2 14 9 26 20 35s23 14 36 14
s23 -5 31 -14s11 -21 9 -35c-3 -16 -10 -28 -22 -37s-23 -13 -34 -13zM409 88v-1c-29 -32 -61 -57 -95 -76s-68 -28 -102 -28c-25 0 -48 4 -70 12s-40 21 -55 38s-25 39 -31 66s-6 59 0 96l47 297h65l-46 -291c-8 -53 -2 -92 19 -117s52 -37 93 -37c18 0 35 3 51 9
s32 14 47 24s30 22 44 36s27 29 39 44l52 331h65l-78 -495h-47z" />
    <glyph glyph-name="Udieresiscaron" unicode="&#x1d9;" horiz-adv-x="699" 
d="M334 983h69l47 -94l77 94h73l-107 -132h-93zM328 718l1 -2c-12 0 -22 5 -31 14s-12 22 -9 38c2 14 9 26 20 36s23 15 36 15c12 0 22 -5 30 -15s11 -22 9 -36c-3 -16 -10 -28 -22 -37s-23 -13 -34 -13zM524 716l2 -2c-12 0 -23 5 -32 14s-12 22 -9 38c2 14 9 26 20 36
s23 15 36 15s23 -5 31 -15s11 -22 8 -36c-3 -16 -10 -28 -22 -37s-23 -13 -34 -13zM218 671l-65 -412c-6 -35 -6 -66 0 -93s17 -49 33 -66s36 -30 60 -39s51 -13 81 -13c27 0 53 4 78 13s48 22 68 39s38 39 53 66s25 58 30 93l66 411h68l-66 -414c-7 -45 -20 -85 -39 -119
s-42 -62 -69 -85s-58 -40 -92 -52s-70 -18 -107 -18c-39 0 -74 6 -106 18s-58 29 -79 52s-36 52 -45 86s-10 74 -3 119l66 414h68z" />
    <glyph glyph-name="udieresiscaron" unicode="&#x1da;" horiz-adv-x="569" 
d="M237 785h67l48 -94l78 94h72l-107 -132h-94zM239 526l-1 -2c-12 0 -22 5 -31 14s-12 22 -9 38c3 14 10 26 21 35s23 14 36 14s23 -5 31 -14s11 -21 9 -35c-3 -16 -10 -28 -22 -37s-23 -13 -34 -13zM418 524v-2c-12 0 -22 5 -31 14s-12 22 -9 38c2 14 9 26 20 35
s23 14 36 14s23 -5 31 -14s11 -21 9 -35c-3 -16 -10 -28 -22 -37s-23 -13 -34 -13zM410 88v-1c-29 -32 -61 -57 -95 -76s-68 -28 -102 -28c-25 0 -48 4 -70 12s-40 21 -55 38s-25 39 -31 66s-6 59 0 96l47 297h65l-46 -291c-8 -53 -2 -92 19 -117s52 -37 93 -37
c18 0 35 3 51 9s32 14 47 24s30 22 44 36s27 29 39 44l52 331h65l-78 -495h-47z" />
    <glyph glyph-name="Udieresisgrave" unicode="&#x1db;" horiz-adv-x="699" 
d="M343 986h77l58 -132h-68zM327 718l-1 -2c-11 0 -21 5 -30 14s-12 22 -9 38c2 14 9 26 20 36s23 15 36 15s24 -5 32 -15s11 -22 8 -36c-3 -16 -10 -28 -22 -37s-23 -13 -34 -13zM521 716l-1 -2c-11 0 -21 5 -30 14s-12 22 -9 38c2 14 9 26 20 36s23 15 36 15s24 -5 32 -15
s11 -22 8 -36c-3 -16 -10 -28 -22 -37s-23 -13 -34 -13zM213 671l-65 -412c-6 -35 -6 -66 0 -93s17 -49 33 -66s36 -30 60 -39s51 -13 81 -13c27 0 53 4 78 13s48 22 68 39s38 39 53 66s25 58 30 93l66 411h68l-66 -414c-7 -45 -20 -85 -39 -119s-42 -62 -69 -85
s-58 -40 -92 -52s-70 -18 -107 -18c-39 0 -74 6 -106 18s-58 29 -79 52s-36 52 -45 86s-10 74 -3 119l66 414h68z" />
    <glyph glyph-name="udieresisgrave" unicode="&#x1dc;" horiz-adv-x="569" 
d="M244 774h74l59 -132h-66zM235 526l-1 -2c-12 0 -22 5 -31 14s-12 22 -9 38c3 14 10 26 21 35s23 14 36 14s23 -5 31 -14s11 -21 9 -35c-3 -16 -10 -28 -22 -37s-23 -13 -34 -13zM414 524v-2c-12 0 -22 5 -31 14s-12 22 -9 38c2 14 9 26 20 35s23 14 36 14s23 -5 31 -14
s11 -21 9 -35c-3 -16 -10 -28 -22 -37s-23 -13 -34 -13zM410 88v-1c-29 -32 -61 -57 -95 -76s-68 -28 -102 -28c-25 0 -48 4 -70 12s-40 21 -55 38s-25 39 -31 66s-6 59 0 96l47 297h65l-46 -291c-8 -53 -2 -92 19 -117s52 -37 93 -37c18 0 35 3 51 9s32 14 47 24
s30 22 44 36s27 29 39 44l52 331h65l-78 -495h-47z" />
    <glyph glyph-name="Oogonek" unicode="&#x1ea;" horiz-adv-x="768" 
d="M311 -201l-5 2c-29 0 -52 8 -69 24s-23 38 -18 67c3 23 11 43 24 59s29 30 48 41c-41 6 -78 19 -111 39s-60 46 -81 77s-36 66 -45 105s-10 81 -3 125c8 48 24 93 48 136s54 80 90 112s76 57 121 75s91 27 139 27c47 0 90 -9 129 -27s71 -43 97 -75s45 -69 56 -112
s13 -88 6 -136c-7 -43 -21 -84 -41 -123s-45 -74 -75 -104s-64 -55 -102 -76s-78 -35 -119 -42c-41 -12 -70 -26 -87 -42s-27 -34 -30 -54c-3 -14 0 -26 9 -36s21 -15 36 -15c27 0 50 9 70 27l5 -44c-24 -20 -55 -30 -92 -30zM347 55l-1 -5c37 0 73 8 108 23s67 36 96 62
s53 56 73 90s33 71 39 110s5 76 -3 111s-22 65 -42 91s-46 47 -77 62s-66 23 -105 23c-37 0 -73 -7 -108 -22s-67 -35 -96 -61s-53 -56 -73 -91s-33 -72 -39 -111s-5 -75 4 -109s24 -64 44 -90s46 -46 77 -61s65 -22 103 -22z" />
    <glyph glyph-name="oogonek" unicode="&#x1eb;" horiz-adv-x="563" 
d="M200 -201l-2 2c-29 0 -52 8 -69 24s-23 38 -18 67c4 23 13 43 27 60s31 31 50 43c-25 6 -48 16 -69 30s-38 32 -52 54s-24 47 -30 75s-6 59 -1 92c7 40 19 76 37 108s40 60 66 83s54 41 85 53s63 18 96 18s63 -6 90 -19s50 -31 69 -54s32 -51 40 -83s9 -68 3 -107
c-5 -33 -15 -64 -29 -92s-31 -53 -51 -75s-43 -40 -68 -54s-51 -24 -78 -30c-43 -12 -73 -26 -91 -42s-29 -34 -32 -55c-2 -14 1 -26 9 -36s20 -15 36 -15c27 0 50 9 69 27l5 -44c-24 -20 -55 -30 -92 -30zM246 51h1c25 0 49 5 72 15s44 24 63 41s35 38 48 62s22 50 27 79
s5 56 0 80s-14 45 -27 63s-29 32 -49 42s-43 15 -69 15c-24 0 -47 -5 -70 -15s-44 -24 -63 -42s-35 -39 -48 -63s-22 -50 -27 -79c-5 -28 -5 -54 0 -78s14 -45 26 -63s28 -32 48 -42s43 -15 68 -15z" />
    <glyph glyph-name="DZ" unicode="&#x1f1;" horiz-adv-x="1293" 
d="M212 610l-88 -544h197c36 0 71 7 104 21s63 34 90 59s49 54 67 87s30 68 36 105s6 72 -1 105s-19 62 -37 87s-40 45 -67 59s-58 21 -93 21h-208zM152 676l278 3c43 0 82 -9 117 -27s64 -42 87 -72s40 -66 50 -107s11 -85 4 -132s-22 -91 -44 -132s-49 -77 -82 -108
s-70 -55 -111 -73s-84 -27 -129 -27h-277zM698 4l7 46l508 564h-407l10 65h502l-7 -44l-511 -566h433l-11 -65h-524z" />
    <glyph glyph-name="Dz" unicode="&#x1f2;" horiz-adv-x="1178" 
d="M212 610l-88 -544h197c36 0 71 7 104 21s63 34 90 59s49 54 67 87s30 68 36 105s6 72 -1 105s-19 62 -37 87s-40 45 -67 59s-58 21 -93 21h-208zM1103 1h-1c-121 18 -256 18 -405 0l10 60l368 369c-101 -6 -198 -4 -291 6l9 60c132 -13 259 -13 380 0l-10 -60l-365 -366
c112 8 217 5 315 -9zM151 676l278 3c43 0 82 -9 117 -27s64 -42 87 -72s40 -66 50 -107s11 -85 4 -132s-22 -91 -44 -132s-49 -77 -82 -108s-70 -55 -111 -73s-84 -27 -129 -27h-277z" />
    <glyph glyph-name="dz" unicode="&#x1f3;" horiz-adv-x="1061" 
d="M988 0c-120 18 -255 18 -404 0l9 60l368 369c-101 -6 -198 -4 -292 6l9 60c132 -13 259 -13 380 0l-10 -60l-365 -366c112 8 217 5 315 -9zM250 49h-1c25 0 49 5 73 15s45 24 64 41s35 38 48 62s22 50 27 78c5 29 5 56 0 80s-14 45 -27 63s-30 32 -51 42s-45 15 -72 15
c-25 0 -49 -5 -72 -16s-43 -25 -61 -43s-33 -39 -46 -63s-21 -49 -25 -76s-4 -52 0 -76s12 -45 24 -63s28 -32 48 -43s44 -16 71 -16zM436 83l-5 -3c-28 -30 -59 -53 -94 -70s-70 -25 -106 -25c-32 0 -61 7 -88 20s-49 31 -67 54s-31 50 -39 82s-9 67 -3 104
c6 38 18 73 36 105s39 60 64 83s53 41 84 54s63 20 96 20c38 0 72 -8 101 -24s53 -38 71 -66l3 44l39 252h66l-113 -713h-44z" />
    <glyph glyph-name="Gacute" unicode="&#x1f4;" horiz-adv-x="720" 
d="M413 724l101 132h78l-108 -132h-71zM632 83h4c-17 -15 -36 -28 -58 -40s-45 -22 -70 -30s-51 -14 -78 -18s-54 -6 -81 -6c-49 0 -93 9 -132 27s-72 43 -99 75s-46 69 -57 112s-13 89 -5 138s24 95 48 138s54 80 90 111s76 56 120 74s89 27 136 27c57 0 109 -9 156 -28
s83 -46 108 -81l-50 -43c-20 27 -48 48 -85 63s-82 22 -136 22c-37 0 -73 -7 -108 -22s-67 -35 -96 -61s-53 -56 -73 -91s-33 -72 -40 -111c-6 -39 -5 -76 3 -111s22 -65 43 -91s47 -46 78 -61s67 -22 108 -22c39 0 77 5 114 15s69 25 96 44l25 159h-170l11 65h238z" />
    <glyph glyph-name="gacute" unicode="&#x1f5;" 
d="M291 550l100 132h80l-109 -132h-71zM312 446l-1 -3c-25 0 -49 -5 -72 -16s-44 -25 -63 -43s-35 -39 -48 -63s-21 -49 -25 -76s-4 -52 1 -76s14 -45 27 -63s29 -32 49 -43s43 -16 69 -16c25 0 49 5 72 15s44 24 63 42s35 39 48 63s22 51 27 80s5 55 0 79s-14 45 -27 63
s-30 32 -50 42s-43 15 -70 15zM213 -217l-1 -3c-40 0 -77 4 -111 13s-68 22 -103 39l29 53c31 -15 61 -26 91 -33s63 -10 99 -10c29 0 55 5 78 14s43 21 60 36s30 33 40 53s17 41 20 64l10 60c-26 -26 -56 -47 -89 -62s-68 -23 -104 -23c-31 0 -60 7 -87 20s-49 31 -67 54
s-31 51 -39 83s-9 67 -3 104s18 72 35 104s39 60 65 83s54 41 85 54s63 20 96 20c36 0 69 -8 99 -24s54 -39 72 -68l26 79h43l-76 -483c-5 -33 -15 -63 -29 -91s-32 -52 -55 -72s-50 -36 -81 -47s-65 -17 -103 -17z" />
    <glyph glyph-name="Aringacute" unicode="&#x1fa;" horiz-adv-x="656" 
d="M369 867l101 132h78l-108 -132h-71zM402 692l-2 -2c13 0 25 5 35 15s15 23 15 39c0 18 -5 32 -15 41s-21 14 -34 14c-14 0 -26 -5 -36 -15s-15 -23 -15 -40s5 -30 15 -39s22 -13 37 -13zM382 599l-199 -351h286zM485 183l-338 -1l-105 -185h-74l377 658
c-15 9 -27 21 -35 36s-12 32 -12 51c0 29 10 53 29 72s44 29 74 29s54 -9 72 -28s27 -43 27 -72c0 -22 -6 -41 -18 -58s-27 -29 -46 -36l168 -651h-73z" />
    <glyph glyph-name="aringacute" unicode="&#x1fb;" horiz-adv-x="594" 
d="M305 783l101 132h78l-109 -132h-70zM231 650l-2 -1c0 28 10 52 29 71s44 29 74 29s54 -10 72 -29s27 -43 27 -71c0 -29 -9 -53 -27 -72s-42 -28 -72 -28c-33 0 -58 10 -75 29s-26 43 -26 72zM331 594l-1 -3c13 0 25 5 35 15s15 23 15 40s-5 31 -15 41s-21 15 -34 15
c-14 0 -26 -5 -36 -15s-15 -23 -15 -40c0 -18 5 -31 15 -40s22 -13 36 -13zM247 45h-1c25 0 49 5 73 15s45 24 64 42s35 39 48 63s22 50 27 78c4 28 4 54 -1 78s-14 45 -27 63s-30 32 -50 42s-43 15 -69 15c-25 0 -49 -5 -72 -16s-44 -25 -63 -43s-35 -39 -48 -63
s-21 -49 -25 -76s-4 -52 0 -76s13 -45 26 -63s29 -32 49 -43s43 -16 69 -16zM435 83l-3 -2c-27 -30 -58 -54 -93 -72s-72 -27 -110 -27c-31 0 -60 7 -87 20s-49 31 -67 54s-31 51 -39 83s-9 67 -3 104s18 72 36 104s40 60 66 83s54 41 85 54s63 20 95 20c37 0 71 -9 101 -26
s54 -41 72 -71l25 84h43l-78 -495h-44z" />
    <glyph glyph-name="AEacute" unicode="&#x1fc;" horiz-adv-x="955" 
d="M601 724l101 132h78l-109 -132h-70zM517 610h-89l-228 -356h261zM450 189h-291l-121 -189h-73l435 675h566l-11 -65h-369l-37 -230h351l-10 -65h-351l-39 -250h371l-9 -65h-442z" />
    <glyph glyph-name="aeacute" unicode="&#x1fd;" horiz-adv-x="880" 
d="M407 550l100 132h80l-109 -132h-71zM648 450c-22 0 -43 -4 -63 -12s-38 -20 -55 -35s-32 -33 -45 -53s-23 -42 -30 -66l323 8c-1 49 -12 88 -34 116s-54 42 -96 42zM175 46l2 -1c36 0 70 9 102 26s67 40 104 68c-9 33 -11 67 -6 102l3 16l-145 -14c-19 -2 -37 -5 -54 -9
s-32 -10 -45 -18s-24 -18 -33 -30s-15 -27 -18 -45c-4 -27 1 -50 15 -68s39 -27 75 -27zM795 68l-2 -3c-28 -26 -59 -46 -93 -60s-70 -21 -107 -21c-41 0 -78 9 -112 27s-60 44 -79 77c-22 -17 -43 -32 -63 -45s-40 -24 -60 -33s-40 -16 -60 -21s-41 -7 -64 -7
c-27 0 -50 4 -69 12s-34 19 -45 33s-19 31 -23 50s-4 40 0 62c4 25 12 46 24 64s27 33 45 45s39 22 62 29s48 11 74 13l164 12l6 39c5 34 -2 59 -22 75s-51 24 -93 24c-30 0 -58 -2 -84 -5s-53 -10 -81 -21l-8 54c29 13 58 22 86 27s61 8 99 8c47 0 85 -8 113 -24
s46 -39 53 -69c27 30 58 53 92 69s69 24 105 24c33 0 63 -6 90 -19s49 -31 67 -54s30 -52 36 -86s6 -72 -1 -115h-399c-3 -27 -1 -52 6 -74s18 -41 32 -57s32 -28 53 -37s44 -13 69 -13c29 0 56 6 81 17s48 27 69 47z" />
    <glyph glyph-name="Oslashacute" unicode="&#x1fe;" horiz-adv-x="768" 
d="M415 724l101 132h78l-108 -132h-71zM125 337l1 -1c-7 -43 -5 -83 6 -120s29 -69 54 -95l398 455c-19 15 -40 26 -64 34s-50 12 -79 12c-37 0 -73 -7 -108 -22s-67 -35 -96 -61s-53 -56 -73 -91s-33 -72 -39 -111zM353 52l2 -1c37 0 73 8 108 23s67 36 96 62s53 56 73 90
s33 71 39 110c7 43 5 83 -6 120s-28 69 -52 96l-398 -455c19 -14 40 -25 63 -33s48 -12 75 -12zM345 -15h1c-34 0 -66 5 -96 15s-57 24 -81 41l-107 -122h-48l127 145c-34 32 -59 72 -74 119s-18 98 -9 153c8 48 24 93 48 136s54 80 90 112s76 57 121 75s91 27 139 27
c35 0 68 -5 98 -15s57 -24 82 -43l111 127h47l-131 -150c33 -33 57 -73 72 -120s18 -97 9 -151c-8 -49 -24 -94 -49 -136s-55 -79 -91 -111s-76 -57 -121 -75s-91 -27 -138 -27z" />
    <glyph glyph-name="oslashacute" unicode="&#x1ff;" horiz-adv-x="563" 
d="M291 550l100 132h79l-108 -132h-71zM106 245l6 -3c-5 -29 -5 -56 0 -80s14 -45 27 -62l277 306c-13 12 -28 21 -45 28s-36 10 -57 10c-24 0 -47 -5 -70 -15s-44 -24 -63 -42s-35 -39 -48 -63s-22 -50 -27 -79zM254 46l-3 -1c25 0 49 5 72 15s44 24 63 41s35 38 48 62
s22 50 27 79s5 56 0 80s-14 45 -27 63l-276 -305c25 -23 57 -34 96 -34zM242 -17v-2c-51 0 -95 15 -132 45l-101 -112h-35l117 130c-21 23 -36 51 -46 84s-11 70 -4 112c7 40 19 76 37 108s40 60 66 83s54 41 85 53s63 18 96 18c27 0 52 -4 75 -13s44 -21 62 -36l107 118h36
l-124 -137c20 -23 35 -51 44 -84s10 -70 3 -111c-6 -39 -18 -74 -36 -106s-40 -59 -66 -81s-55 -39 -87 -51s-64 -18 -97 -18z" />
    <glyph glyph-name="Adblgrave" unicode="&#x200;" horiz-adv-x="656" 
d="M251 855h72l54 -132h-64zM367 855h72l53 -132h-65zM384 601l-199 -351h286zM487 185h-338l-105 -185h-74l387 675h75l174 -675h-73z" />
    <glyph glyph-name="adblgrave" unicode="&#x201;" horiz-adv-x="594" 
d="M168 682h72l53 -132h-64zM284 682h72l52 -132h-64zM250 49h-1c25 0 49 5 73 15s45 24 64 42s35 39 48 63s22 50 27 78c4 28 4 54 -1 78s-14 45 -27 63s-30 32 -50 42s-43 15 -69 15c-25 0 -49 -5 -72 -16s-44 -25 -63 -43s-35 -39 -48 -63s-21 -49 -25 -76s-4 -52 0 -76
s13 -45 26 -63s29 -32 49 -43s43 -16 69 -16zM438 87l-3 -2c-27 -30 -58 -54 -93 -72s-72 -27 -110 -27c-31 0 -60 7 -87 20s-49 31 -67 54s-31 51 -39 83s-9 67 -3 104s18 72 36 104s40 60 66 83s54 41 85 54s63 20 95 20c37 0 71 -9 101 -26s54 -41 72 -71l25 84h43
l-78 -495h-44z" />
    <glyph glyph-name="Ainvertedbreve" unicode="&#x202;" horiz-adv-x="656" 
d="M261 719v1c9 44 28 78 56 102s62 36 101 36s68 -12 88 -36s29 -58 26 -102h-47c0 22 -6 41 -19 58s-32 25 -57 25c-12 0 -23 -2 -34 -7s-21 -11 -30 -19s-17 -17 -24 -27s-12 -20 -15 -31h-45zM384 602l-199 -351h286zM487 186h-338l-105 -185h-74l387 675h75l174 -675
h-73z" />
    <glyph glyph-name="ainvertedbreve" unicode="&#x203;" horiz-adv-x="594" 
d="M171 546c9 44 28 78 56 102s61 36 100 36s69 -12 89 -36s28 -58 25 -102h-46c0 21 -6 40 -19 57s-32 26 -57 26c-12 0 -23 -2 -34 -7s-21 -11 -30 -19s-17 -17 -24 -27s-12 -20 -15 -30h-45zM250 49h-1c25 0 49 5 73 15s45 24 64 42s35 39 48 63s22 50 27 78
c4 28 4 54 -1 78s-14 45 -27 63s-30 32 -50 42s-43 15 -69 15c-25 0 -49 -5 -72 -16s-44 -25 -63 -43s-35 -39 -48 -63s-21 -49 -25 -76s-4 -52 0 -76s13 -45 26 -63s29 -32 49 -43s43 -16 69 -16zM438 87l-3 -2c-27 -30 -58 -54 -93 -72s-72 -27 -110 -27
c-31 0 -60 7 -87 20s-49 31 -67 54s-31 51 -39 83s-9 67 -3 104s18 72 36 104s40 60 66 83s54 41 85 54s63 20 95 20c37 0 71 -9 101 -26s54 -41 72 -71l25 84h43l-78 -495h-44z" />
    <glyph glyph-name="Edblgrave" unicode="&#x204;" horiz-adv-x="581" 
d="M246 856h72l53 -132h-64zM361 856h72l54 -132h-65zM154 675h437l-10 -65h-369l-36 -229h349l-10 -65h-349l-40 -251h371l-10 -65h-440z" />
    <glyph glyph-name="edblgrave" unicode="&#x205;" horiz-adv-x="542" 
d="M177 682h72l53 -132h-64zM293 682h72l52 -132h-64zM309 450v-1c-22 0 -43 -4 -63 -12s-39 -20 -56 -35s-32 -33 -45 -54s-23 -43 -30 -67l329 9c1 49 -10 88 -33 117s-57 43 -102 43zM454 68v-2c-28 -26 -59 -46 -93 -60s-69 -21 -106 -21c-34 0 -65 6 -94 18
s-53 29 -73 51s-35 49 -44 81s-11 68 -5 107c7 40 20 76 38 108s40 60 66 83s54 41 85 53s62 18 93 18c33 0 63 -6 89 -19s48 -31 65 -54s29 -52 35 -86s6 -72 -1 -115h-402c-3 -27 -1 -52 5 -75s16 -42 30 -58s32 -28 53 -37s45 -13 72 -13c29 0 56 6 81 17s48 27 69 47z
" />
    <glyph glyph-name="Einvertedbreve" unicode="&#x206;" horiz-adv-x="581" 
d="M249 719v1c9 44 28 78 56 102s62 36 102 36c39 0 68 -12 87 -36s28 -58 26 -102h-47c0 22 -6 41 -19 58s-32 25 -57 25c-12 0 -23 -2 -34 -7s-21 -11 -30 -19s-17 -17 -24 -27s-12 -20 -15 -31h-45zM154 676h437l-10 -65h-369l-36 -229h349l-10 -65h-349l-40 -251h371
l-10 -65h-440z" />
    <glyph glyph-name="einvertedbreve" unicode="&#x207;" horiz-adv-x="542" 
d="M184 546l-2 -1c9 44 28 78 56 102s62 36 101 36s68 -12 88 -36s29 -58 26 -102h-47c0 11 -2 21 -5 31s-8 19 -14 27s-14 14 -24 19s-21 7 -33 7s-23 -2 -34 -7s-21 -11 -30 -19s-17 -17 -23 -27s-10 -20 -13 -30h-46zM307 449v-1c-22 0 -43 -4 -63 -12s-39 -20 -56 -35
s-32 -33 -45 -54s-23 -43 -30 -67l329 9c1 49 -10 88 -33 117s-57 43 -102 43zM452 67v-2c-28 -26 -59 -46 -93 -60s-69 -21 -106 -21c-34 0 -65 6 -94 18s-53 29 -73 51s-35 49 -44 81s-11 68 -5 107c7 40 20 76 38 108s40 60 66 83s54 41 85 53s62 18 93 18
c33 0 63 -6 89 -19s48 -31 65 -54s29 -52 35 -86s6 -72 -1 -115h-402c-3 -27 -1 -52 5 -75s16 -42 30 -58s32 -28 53 -37s45 -13 72 -13c29 0 56 6 81 17s48 27 69 47z" />
    <glyph glyph-name="Idblgrave" unicode="&#x208;" horiz-adv-x="243" 
d="M43 856h72l54 -132h-64zM159 856h72l53 -132h-65zM154 675h68l-106 -675h-69z" />
    <glyph glyph-name="idblgrave" unicode="&#x209;" horiz-adv-x="211" 
d="M4 682h72l52 -132h-64zM119 682h72l53 -132h-64zM112 495h65l-78 -495h-66z" />
    <glyph glyph-name="Iinvertedbreve" unicode="&#x20a;" horiz-adv-x="243" 
d="M56 719v1c9 44 28 78 56 102s62 36 102 36c39 0 68 -12 87 -36s28 -58 26 -102h-47c0 22 -6 41 -19 58s-32 25 -57 25c-12 0 -23 -2 -34 -7s-21 -11 -30 -19s-17 -17 -24 -27s-12 -20 -15 -31h-45zM154 676h68l-106 -675h-69z" />
    <glyph glyph-name="iinvertedbreve" unicode="&#x20b;" horiz-adv-x="212" 
d="M19 546l1 -1c9 44 28 78 56 102s61 36 100 36s68 -12 88 -36s28 -58 25 -102h-47c0 11 -1 21 -4 31s-8 19 -15 27s-15 14 -24 19s-20 7 -32 7s-23 -2 -34 -7s-21 -11 -30 -19s-17 -17 -24 -27s-12 -20 -15 -30h-45zM113 494h65l-78 -495h-66z" />
    <glyph glyph-name="Odblgrave" unicode="&#x20c;" horiz-adv-x="768" 
d="M312 856h73l53 -132h-64zM428 856h72l53 -132h-64zM342 -13l1 -1c-47 0 -90 9 -129 27s-71 43 -97 75s-45 69 -56 111s-13 88 -6 137c8 48 24 93 48 136s54 80 90 112s76 57 121 75s91 27 139 27c47 0 90 -9 129 -27s71 -43 97 -75s45 -69 56 -112s13 -88 6 -136
c-8 -49 -24 -94 -49 -136s-55 -79 -91 -111s-76 -57 -121 -75s-91 -27 -138 -27zM353 52l-1 -5c37 0 73 8 108 23s67 36 96 62s53 56 73 90s33 71 39 110s5 76 -3 111s-22 65 -42 91s-46 47 -77 62s-66 23 -105 23c-37 0 -73 -7 -108 -22s-67 -35 -96 -61s-53 -56 -73 -91
s-33 -72 -39 -111s-5 -75 4 -109s24 -64 44 -90s46 -46 77 -61s65 -22 103 -22z" />
    <glyph glyph-name="odblgrave" unicode="&#x20d;" horiz-adv-x="563" 
d="M178 682h72l52 -132h-64zM293 682h72l53 -132h-64zM239 -13c-31 0 -60 6 -87 18s-50 29 -69 51s-33 49 -41 81s-9 68 -3 107c7 40 19 76 37 108s40 60 66 83s54 41 85 53s63 18 96 18s63 -6 90 -19s50 -31 69 -54s32 -51 40 -83s9 -68 3 -107s-18 -74 -36 -106
s-40 -59 -66 -81s-55 -39 -87 -51s-64 -18 -97 -18zM248 49h1c25 0 49 5 72 15s44 24 63 41s35 38 48 62s22 50 27 79s5 56 0 80s-14 45 -27 63s-29 32 -49 42s-43 15 -69 15c-24 0 -47 -5 -70 -15s-44 -24 -63 -42s-35 -39 -48 -63s-22 -50 -27 -79c-5 -28 -5 -54 0 -78
s14 -45 26 -63s28 -32 48 -42s43 -15 68 -15z" />
    <glyph glyph-name="Oinvertedbreve" unicode="&#x20e;" horiz-adv-x="768" 
d="M323 719l1 1c9 44 28 78 56 102s62 36 101 36s68 -12 87 -36s28 -58 26 -102h-47c0 22 -6 41 -19 58s-32 25 -57 25c-12 0 -23 -2 -34 -7s-21 -11 -30 -19s-17 -17 -24 -27s-12 -20 -15 -31h-45zM343 -12l1 -1c-47 0 -90 9 -129 27s-71 43 -97 75s-45 69 -56 111
s-13 88 -6 137c8 48 24 93 48 136s54 80 90 112s76 57 121 75s91 27 139 27c47 0 90 -9 129 -27s71 -43 97 -75s45 -69 56 -112s13 -88 6 -136c-8 -49 -24 -94 -49 -136s-55 -79 -91 -111s-76 -57 -121 -75s-91 -27 -138 -27zM354 53l-1 -5c37 0 73 8 108 23s67 36 96 62
s53 56 73 90s33 71 39 110s5 76 -3 111s-22 65 -42 91s-46 47 -77 62s-66 23 -105 23c-37 0 -73 -7 -108 -22s-67 -35 -96 -61s-53 -56 -73 -91s-33 -72 -39 -111s-5 -75 4 -109s24 -64 44 -90s46 -46 77 -61s65 -22 103 -22z" />
    <glyph glyph-name="oinvertedbreve" unicode="&#x20f;" horiz-adv-x="563" 
d="M189 546l-2 -1c9 44 28 78 56 102s62 36 101 36s68 -12 88 -36s29 -58 26 -102h-47c0 11 -2 21 -5 31s-8 19 -14 27s-14 14 -24 19s-21 7 -33 7s-23 -2 -34 -7s-21 -11 -30 -19s-17 -17 -23 -27s-10 -20 -13 -30h-46zM237 -14c-31 0 -60 6 -87 18s-50 29 -69 51
s-33 49 -41 81s-9 68 -3 107c7 40 19 76 37 108s40 60 66 83s54 41 85 53s63 18 96 18s63 -6 90 -19s50 -31 69 -54s32 -51 40 -83s9 -68 3 -107s-18 -74 -36 -106s-40 -59 -66 -81s-55 -39 -87 -51s-64 -18 -97 -18zM246 48h1c25 0 49 5 72 15s44 24 63 41s35 38 48 62
s22 50 27 79s5 56 0 80s-14 45 -27 63s-29 32 -49 42s-43 15 -69 15c-24 0 -47 -5 -70 -15s-44 -24 -63 -42s-35 -39 -48 -63s-22 -50 -27 -79c-5 -28 -5 -54 0 -78s14 -45 26 -63s28 -32 48 -42s43 -15 68 -15z" />
    <glyph glyph-name="Rdblgrave" unicode="&#x210;" horiz-adv-x="646" 
d="M235 856h72l53 -132h-63zM351 856h72l53 -132h-65zM212 610l-52 -295h247c21 0 40 4 57 13s32 21 45 35s23 30 31 48s14 36 17 54s4 36 2 53s-6 33 -13 47s-17 25 -30 33s-29 12 -48 12h-256zM394 250h-243l-39 -250h-69l107 675h329c29 0 54 -6 74 -18s36 -28 48 -48
s20 -42 24 -67s4 -50 0 -76c-3 -23 -9 -45 -18 -67s-20 -42 -34 -61s-30 -35 -48 -49s-38 -24 -60 -31l79 -258h-74z" />
    <glyph glyph-name="rdblgrave" unicode="&#x211;" horiz-adv-x="356" 
d="M116 682h72l53 -132h-64zM232 682h72l52 -132h-64zM32 0l77 494h49l-3 -109c32 37 68 67 107 89s79 33 120 33l-10 -64c-23 0 -45 -3 -66 -10s-41 -16 -61 -27s-38 -24 -54 -39s-30 -31 -43 -48l-51 -319h-65z" />
    <glyph glyph-name="Rinvertedbreve" unicode="&#x212;" horiz-adv-x="646" 
d="M247 719l1 1c9 44 28 78 56 102s62 36 101 36s68 -12 87 -36s28 -58 26 -102h-47c0 22 -6 41 -19 58s-32 25 -57 25c-12 0 -23 -2 -34 -7s-21 -11 -30 -19s-17 -17 -24 -27s-12 -20 -15 -31h-45zM213 611l-52 -295h247c21 0 40 4 57 13s32 21 45 35s23 30 31 48
s14 36 17 54s4 36 2 53s-6 33 -13 47s-17 25 -30 33s-29 12 -48 12h-256zM395 251h-243l-39 -250h-69l107 675h329c29 0 54 -6 74 -18s36 -28 48 -48s20 -42 24 -67s4 -50 0 -76c-3 -23 -9 -45 -18 -67s-20 -42 -34 -61s-30 -35 -48 -49s-38 -24 -60 -31l79 -258h-74z" />
    <glyph glyph-name="rinvertedbreve" unicode="&#x213;" horiz-adv-x="356" 
d="M126 546l-2 -1c9 44 28 78 56 102s62 36 101 36s68 -12 88 -36s29 -58 26 -102h-47c0 11 -2 21 -5 31s-8 19 -14 27s-14 14 -24 19s-21 7 -33 7s-23 -2 -34 -7s-21 -11 -30 -19s-17 -17 -23 -27s-10 -20 -13 -30h-46zM30 -1l77 494h49l-3 -109c32 37 68 67 107 89
s79 33 120 33l-10 -64c-23 0 -45 -3 -66 -10s-41 -16 -61 -27s-38 -24 -54 -39s-30 -31 -43 -48l-51 -319h-65z" />
    <glyph glyph-name="Udblgrave" unicode="&#x214;" horiz-adv-x="699" 
d="M287 856h72l53 -132h-64zM402 856h72l54 -132h-65zM215 675l-65 -412c-6 -35 -6 -66 0 -93s17 -49 33 -66s36 -30 60 -39s51 -13 81 -13c27 0 53 4 78 13s48 22 68 39s38 39 53 66s25 58 30 93l66 411h68l-66 -414c-7 -45 -20 -85 -39 -119s-42 -62 -69 -85
s-58 -40 -92 -52s-70 -18 -107 -18c-39 0 -74 6 -106 18s-58 29 -79 52s-36 52 -45 86s-10 74 -3 119l66 414h68z" />
    <glyph glyph-name="udblgrave" unicode="&#x215;" horiz-adv-x="569" 
d="M188 682h72l52 -132h-64zM303 682h72l53 -132h-64zM411 92v-1c-29 -32 -61 -57 -95 -76s-68 -28 -102 -28c-25 0 -48 4 -70 12s-40 21 -55 38s-25 39 -31 66s-6 59 0 96l47 297h65l-46 -291c-8 -53 -2 -92 19 -117s52 -37 93 -37c18 0 35 3 51 9s32 14 47 24s30 22 44 36
s27 29 39 44l52 331h65l-78 -495h-47z" />
    <glyph glyph-name="Uinvertedbreve" unicode="&#x216;" horiz-adv-x="699" 
d="M288 719l2 1c9 44 28 78 56 102s62 36 101 36s68 -12 87 -36s27 -58 24 -102h-47c1 22 -5 41 -18 58s-32 25 -57 25c-12 0 -23 -2 -34 -7s-21 -11 -30 -19s-17 -17 -24 -27s-12 -20 -15 -31h-45zM217 676l-65 -412c-6 -35 -6 -66 0 -93s17 -49 33 -66s36 -30 60 -39
s51 -13 81 -13c27 0 53 4 78 13s48 22 68 39s38 39 53 66s25 58 30 93l66 411h68l-66 -414c-7 -45 -20 -85 -39 -119s-42 -62 -69 -85s-58 -40 -92 -52s-70 -18 -107 -18c-39 0 -74 6 -106 18s-58 29 -79 52s-36 52 -45 86s-10 74 -3 119l66 414h68z" />
    <glyph glyph-name="uinvertedbreve" unicode="&#x217;" horiz-adv-x="569" 
d="M193 546c9 44 28 78 56 102s62 36 101 36s68 -12 88 -36s28 -58 25 -102h-46c0 21 -6 40 -19 57s-32 26 -57 26c-12 0 -23 -2 -34 -7s-21 -11 -30 -19s-17 -17 -24 -27s-12 -20 -15 -30h-45zM411 92v-1c-29 -32 -61 -57 -95 -76s-68 -28 -102 -28c-25 0 -48 4 -70 12
s-40 21 -55 38s-25 39 -31 66s-6 59 0 96l47 297h65l-46 -291c-8 -53 -2 -92 19 -117s52 -37 93 -37c18 0 35 3 51 9s32 14 47 24s30 22 44 36s27 29 39 44l52 331h65l-78 -495h-47z" />
    <glyph glyph-name="Scommaaccent" unicode="&#x218;" horiz-adv-x="588" 
d="M49 145l-4 2c33 -32 69 -55 107 -70s81 -22 128 -22c22 0 43 3 63 9s38 15 54 26s29 25 39 41s17 34 20 54c5 33 -5 58 -29 75s-63 32 -117 45c-47 13 -85 27 -114 41s-51 29 -66 45s-25 34 -29 53s-4 40 -1 63c3 24 11 47 24 69s30 41 51 57s46 29 74 39s60 15 95 15
c46 0 90 -6 131 -18s78 -34 111 -66l-40 -55c-29 28 -61 47 -97 57s-74 15 -114 15c-21 0 -41 -3 -59 -9s-34 -14 -48 -24s-26 -22 -35 -36s-15 -29 -18 -46s-2 -32 2 -45s12 -24 24 -34s29 -19 50 -28s48 -18 80 -27c39 -11 72 -23 99 -35s49 -25 65 -40s27 -31 33 -49
s7 -39 4 -62c-4 -29 -13 -55 -28 -79s-34 -45 -57 -62s-49 -31 -79 -41s-62 -15 -96 -15c-55 0 -104 8 -147 24s-82 42 -118 78zM180 -252h1c11 15 21 29 29 42s15 28 21 45c-13 1 -23 7 -30 17s-9 22 -7 35s9 25 20 35s23 15 36 15c15 0 26 -6 33 -18s9 -25 6 -40
c-8 -51 -39 -100 -92 -146z" />
    <glyph glyph-name="scommaaccent" unicode="&#x219;" horiz-adv-x="477" 
d="M33 108l-3 -1c33 -23 65 -39 96 -47s66 -12 104 -12c31 0 58 7 80 22s35 33 38 54c3 25 -4 44 -22 57s-46 24 -85 33c-38 9 -68 19 -91 30s-40 23 -52 36s-19 27 -22 42s-3 30 -1 46c3 20 10 39 20 56s24 32 41 45s37 23 61 30s50 11 79 11c33 0 66 -5 99 -14
s60 -22 81 -39l-34 -51c-19 13 -42 23 -68 31s-53 12 -82 12c-35 0 -65 -7 -89 -21s-38 -33 -41 -58c-3 -21 3 -38 18 -51s45 -25 89 -36c33 -8 61 -17 84 -26s41 -20 54 -32s22 -26 27 -41s6 -33 3 -53c-3 -21 -10 -40 -21 -57s-25 -32 -43 -45s-39 -23 -63 -30
s-50 -11 -78 -11c-44 0 -83 6 -118 17s-67 28 -96 51zM111 -255h1c11 15 21 29 29 42s15 28 21 45c-13 1 -23 7 -30 17s-9 22 -7 35s9 25 20 35s23 15 36 15c15 0 26 -6 33 -18s9 -25 6 -40c-8 -51 -39 -100 -92 -146z" />
    <glyph glyph-name="uni021A" unicode="&#x21a;" horiz-adv-x="586" 
d="M383 610l-96 -610h-69l97 610h-243l10 65h554l-10 -65h-243zM169 -254l-2 -1c11 15 21 29 30 42s16 28 21 45c-13 1 -23 7 -30 17s-9 22 -7 35s9 25 20 35s24 15 38 15c15 0 26 -6 33 -18s9 -25 6 -40c-4 -25 -13 -50 -28 -74s-36 -48 -63 -71z" />
    <glyph glyph-name="uni021B" unicode="&#x21b;" horiz-adv-x="287" 
d="M230 -13l-1 -3c-66 0 -111 15 -135 45s-32 69 -25 118l45 286h-56l9 60h57l19 126l70 29l-24 -155h113l-7 -45l-12 -15h-104l-44 -284c-3 -15 -3 -29 -1 -41s7 -23 15 -32s19 -16 34 -21s34 -7 57 -7zM33 -257l-2 -1c11 15 21 29 30 42s16 28 21 45c-13 1 -23 7 -30 17
s-9 22 -7 35s9 25 20 35s24 15 38 15c15 0 26 -6 33 -18s9 -25 6 -40c-4 -25 -13 -50 -28 -74s-36 -48 -64 -71z" />
    <glyph glyph-name="schwa" unicode="&#x259;" horiz-adv-x="541" 
d="M220 -13l-2 -5c-33 0 -62 6 -88 18s-48 30 -65 54s-29 53 -35 87s-5 73 2 116h402c3 27 1 52 -5 75s-16 43 -29 59s-29 29 -49 38s-42 14 -66 14c-65 0 -119 -21 -163 -63l-38 43c29 27 62 48 99 62s75 21 114 21c32 0 62 -6 90 -18s51 -29 70 -51s33 -49 41 -81
s9 -67 3 -106s-18 -75 -36 -107s-40 -60 -66 -83s-54 -41 -85 -54s-62 -19 -94 -19zM229 40v-1c22 0 43 4 63 12s39 20 56 35s32 33 45 54s23 43 30 67l-329 -9c-1 -48 11 -86 35 -115s57 -43 100 -43z" />
    <glyph glyph-name="circumflex" unicode="&#x2c6;" horiz-adv-x="263" 
d="M209 645l-79 -95h-70l106 132h94l65 -132h-68z" />
    <glyph glyph-name="caron" unicode="&#x2c7;" horiz-adv-x="263" 
d="M81 682h67l48 -94l78 94h72l-107 -132h-94z" />
    <glyph glyph-name="breve" unicode="&#x2d8;" horiz-adv-x="341" 
d="M163 684h-3c0 -10 1 -20 4 -30s8 -19 14 -27s14 -14 24 -19s22 -7 35 -7c25 0 47 9 65 26s31 36 38 57h47c-11 -44 -30 -78 -57 -102s-60 -36 -99 -36s-69 12 -89 36s-28 58 -23 102h44z" />
    <glyph glyph-name="dotaccent" unicode="&#x2d9;" horiz-adv-x="168" 
d="M153 590l-1 -2c-12 0 -22 5 -31 14s-12 22 -9 38c3 14 10 26 21 36s23 15 36 15s23 -5 31 -15s11 -22 9 -36c-3 -16 -10 -28 -22 -37s-23 -13 -34 -13z" />
    <glyph glyph-name="ring" unicode="&#x2da;" horiz-adv-x="274" 
d="M115 649l-1 -2c0 29 9 53 28 72s43 29 73 29s54 -9 72 -28s27 -43 27 -72s-9 -53 -27 -72s-42 -28 -72 -28c-33 0 -58 10 -75 29s-25 43 -25 72zM215 592l-2 -1c13 0 25 5 35 15s15 23 15 39c0 18 -5 32 -15 41s-21 14 -34 14s-25 -5 -35 -15s-15 -23 -15 -40
s5 -30 15 -39s22 -14 36 -14z" />
    <glyph glyph-name="ogonek" unicode="&#x2db;" horiz-adv-x="249" 
d="M167 -171l-2 -1c-24 -20 -55 -30 -92 -30c-29 0 -52 8 -69 24s-23 38 -18 67c3 21 11 39 23 55s26 30 43 42s35 22 55 29s40 13 61 18l13 -36c-46 -12 -79 -26 -99 -43s-31 -36 -34 -57c-2 -14 1 -26 9 -36s20 -15 36 -15c26 0 49 9 69 27z" />
    <glyph glyph-name="tilde" unicode="&#x2dc;" horiz-adv-x="323" 
d="M101 597h-1c5 29 17 51 35 65s37 21 56 21c12 0 23 -2 32 -6s18 -8 26 -13s16 -9 24 -13s17 -6 27 -6c7 0 14 2 20 6s11 12 14 23h37c-5 -29 -14 -52 -28 -68s-33 -24 -56 -24c-12 0 -23 2 -33 6s-20 8 -29 13s-18 9 -27 13s-18 6 -28 6c-15 0 -25 -8 -30 -23h-39z" />
    <glyph glyph-name="hungarumlaut" unicode="&#x2dd;" horiz-adv-x="333" 
d="M379 682l-102 -132h-64l94 132h72zM264 682l-103 -132h-64l95 132h72z" />
    <glyph glyph-name="uni0401" unicode="&#x401;" horiz-adv-x="581" 
d="M279 744l-1 -2c-11 0 -21 5 -30 14s-12 22 -9 38c2 14 9 26 20 36s23 15 36 15s24 -5 32 -15s11 -22 8 -36c-3 -16 -10 -28 -22 -37s-23 -13 -34 -13zM473 742l-1 -2c-11 0 -21 5 -30 14s-12 22 -9 38c2 14 9 26 20 36s23 15 36 15s24 -5 32 -15s11 -22 8 -36
c-3 -16 -10 -28 -22 -37s-23 -13 -34 -13zM152 671h437l-10 -65h-369l-36 -229h349l-10 -65h-349l-40 -251h371l-10 -65h-440z" />
    <glyph glyph-name="uni0402" unicode="&#x402;" horiz-adv-x="776" 
d="M739 228l-4 -4c-6 -36 -17 -69 -33 -99s-36 -55 -60 -76s-52 -37 -84 -48s-67 -17 -106 -17l9 64c55 0 101 15 137 45s58 71 66 122c9 59 1 103 -25 133s-72 45 -138 45c-18 0 -35 -1 -51 -2s-32 -3 -48 -7s-33 -9 -50 -15s-35 -14 -55 -23l-55 -348h-68l96 610h-195
l10 65h459l-11 -65h-194l-32 -199c39 17 76 30 110 38s71 12 110 12c38 0 72 -5 101 -14s53 -23 72 -42s32 -43 39 -72s7 -63 0 -103z" />
    <glyph glyph-name="uni0403" unicode="&#x403;" horiz-adv-x="533" 
d="M319 724l100 132h78l-108 -132h-70zM213 610l-97 -610h-68l107 675h419l-10 -65h-351z" />
    <glyph glyph-name="uni0404" unicode="&#x404;" horiz-adv-x="670" 
d="M604 93l-1 -7c-36 -34 -78 -60 -126 -78s-96 -27 -144 -27c-47 0 -89 9 -127 27s-69 43 -94 75s-43 69 -54 111s-13 88 -6 137c8 49 24 95 48 138s53 80 88 112s74 57 117 75s88 27 135 27c50 0 97 -9 140 -27s77 -45 102 -80l-54 -43c-10 13 -22 25 -36 36
s-30 20 -47 27s-35 13 -54 17s-39 6 -59 6c-34 0 -67 -6 -99 -19s-61 -30 -87 -52s-49 -48 -69 -78s-35 -62 -45 -97h308l-10 -65h-309c-3 -36 1 -69 11 -100s25 -58 44 -81s43 -41 72 -54s61 -20 97 -20c39 0 78 8 118 23s74 37 103 66l38 -49v0z" />
    <glyph glyph-name="uni0405" unicode="&#x405;" horiz-adv-x="588" 
d="M49 145l-4 2c33 -32 69 -55 107 -70s81 -22 128 -22c22 0 43 3 63 9s38 15 54 26s29 25 39 41s17 34 20 54c5 33 -5 58 -29 75s-63 32 -117 45c-47 13 -85 27 -114 41s-51 29 -66 45s-25 34 -29 53s-4 40 -1 63c3 24 11 47 24 69s30 41 51 57s46 29 74 39s60 15 95 15
c46 0 90 -6 131 -18s78 -34 111 -66l-40 -55c-29 28 -61 47 -97 57s-74 15 -114 15c-21 0 -41 -3 -59 -9s-34 -14 -48 -24s-26 -22 -35 -36s-15 -29 -18 -46s-2 -32 2 -45s12 -24 24 -34s29 -19 50 -28s48 -18 80 -27c39 -11 72 -23 99 -35s49 -25 65 -40s27 -31 33 -49
s7 -39 4 -62c-4 -29 -13 -55 -28 -79s-34 -45 -57 -62s-49 -31 -79 -41s-62 -15 -96 -15c-55 0 -104 8 -147 24s-82 42 -118 78z" />
    <glyph glyph-name="uni0406" unicode="&#x406;" horiz-adv-x="243" 
d="M155 675h68l-107 -675h-68z" />
    <glyph glyph-name="uni0407" unicode="&#x407;" horiz-adv-x="243" 
d="M99 744l-1 -2c-12 0 -22 5 -31 14s-12 22 -9 38c3 14 10 26 21 36s23 15 36 15s23 -5 31 -15s11 -22 9 -36c-3 -16 -10 -28 -22 -37s-23 -13 -34 -13zM293 742v-2c-12 0 -22 5 -31 14s-12 22 -9 38c3 14 10 26 21 36s23 15 36 15s23 -5 31 -15s11 -22 8 -36
c-3 -16 -10 -28 -22 -37s-23 -13 -34 -13zM154 671h68l-107 -675h-68z" />
    <glyph glyph-name="uni0408" unicode="&#x408;" horiz-adv-x="531" 
d="M213 -13l-4 -2c-54 0 -99 11 -135 33s-63 52 -82 90l49 42c17 -34 40 -59 68 -74s63 -23 104 -23c18 0 36 3 54 10s34 17 49 30s28 30 39 50s18 43 22 69l74 462h68l-73 -466c-6 -39 -17 -73 -32 -101s-33 -51 -54 -69s-44 -31 -69 -39s-51 -12 -78 -12z" />
    <glyph glyph-name="uni0409" unicode="&#x409;" horiz-adv-x="1043" 
d="M181 168l-4 -1c-5 -30 -14 -56 -27 -78s-28 -41 -46 -56s-38 -26 -61 -34s-47 -12 -72 -12l11 64c13 0 27 3 41 8s27 12 39 21s22 21 30 35s14 31 17 50l81 509h479l-45 -284h224c29 0 54 -5 75 -16s38 -25 51 -43s22 -38 26 -61s5 -46 2 -70c-4 -25 -12 -50 -24 -74
s-27 -45 -45 -64s-39 -34 -63 -45s-50 -17 -78 -17h-295l97 610h-343zM613 326l-44 -263h211c21 0 40 4 57 12s32 18 45 31s23 28 31 44s13 33 16 50c3 15 3 30 0 45s-8 29 -16 41s-19 22 -33 29s-31 11 -51 11h-216z" />
    <glyph glyph-name="uni040A" unicode="&#x40a;" horiz-adv-x="1079" 
d="M654 326l-44 -262h209c21 0 40 4 57 12s32 18 45 31s23 28 31 44s13 33 16 50c3 15 3 30 1 45s-7 28 -15 40s-19 22 -33 29s-31 11 -51 11h-216zM582 321l-422 -1l-50 -322h-69l107 675h68l-45 -289h418l46 289h69l-46 -284h224c29 0 54 -5 75 -16s38 -25 51 -43
s22 -38 27 -61s5 -46 1 -70c-4 -25 -12 -50 -24 -74s-27 -45 -45 -64s-39 -34 -63 -45s-50 -17 -78 -17h-295z" />
    <glyph glyph-name="uni040B" unicode="&#x40b;" horiz-adv-x="788" 
d="M533 433v-2c-42 0 -82 -10 -120 -29s-71 -44 -99 -74l-53 -330h-68l97 610h-214l11 65h493l-10 -65h-212l-32 -203c32 29 68 51 107 67s79 24 119 24c31 0 60 -4 86 -12s48 -21 65 -38s30 -39 38 -65s9 -57 3 -94l-46 -288h-68l45 286c8 51 -1 88 -28 112s-65 36 -114 36
z" />
    <glyph glyph-name="uni040C" unicode="&#x40c;" horiz-adv-x="628" 
d="M353 724l101 132h78l-108 -132h-71zM277 324l-128 -113l-33 -211h-69l107 675h68l-58 -371l424 371h89l-349 -306l258 -369h-82z" />
    <glyph glyph-name="uni040E" unicode="&#x40e;" horiz-adv-x="617" 
d="M317 858h-2c0 -10 1 -20 3 -30s6 -19 12 -27s14 -14 24 -19s22 -7 36 -7c25 0 47 8 65 25s31 36 38 58h48c-11 -44 -30 -78 -57 -102s-60 -36 -99 -36c-40 0 -70 12 -90 36s-28 58 -23 102h45zM438 300l3 -2c-35 -56 -70 -104 -105 -143s-71 -71 -108 -96
s-75 -43 -115 -54s-82 -16 -127 -16l15 64c44 0 88 9 133 26s88 47 130 89l-182 507h75l159 -448c7 10 14 20 21 31l21 33l235 384h77z" />
    <glyph glyph-name="uni040F" unicode="&#x40f;" horiz-adv-x="724" 
d="M366 0l-29 -132h-57l13 132h-247l107 675h69l-97 -610h418l97 610h68l-107 -675h-235z" />
    <glyph glyph-name="uni0410" unicode="&#x410;" horiz-adv-x="656" 
d="M384 601l-199 -351h286zM487 185h-338l-105 -185h-74l387 675h75l174 -675h-73z" />
    <glyph glyph-name="uni0411" unicode="&#x411;" horiz-adv-x="624" 
d="M167 327l-44 -263h248c21 0 40 4 57 12s32 18 45 31s23 28 31 44s13 33 16 50c3 15 3 30 0 45s-8 29 -16 41s-19 22 -32 29s-30 11 -50 11h-255zM151 674l403 -1l-10 -65h-338l-34 -219h261c29 0 54 -5 75 -16s38 -25 51 -43s22 -38 26 -61s5 -46 2 -70
c-4 -25 -12 -50 -24 -74s-27 -45 -45 -64s-39 -34 -63 -45s-50 -17 -78 -17h-333z" />
    <glyph glyph-name="uni0412" unicode="&#x412;" horiz-adv-x="663" 
d="M154 675l313 -1c28 0 52 -5 72 -14s36 -22 48 -38s20 -35 24 -56s4 -44 0 -68c-4 -27 -13 -52 -27 -76s-31 -44 -51 -60c32 -14 55 -37 68 -69s17 -67 11 -105c-4 -25 -12 -49 -24 -72s-27 -43 -45 -60s-39 -31 -63 -41s-51 -15 -80 -15h-353zM212 609l-36 -230h251
c15 0 29 3 42 10s24 16 34 27s18 23 25 37s11 28 13 41c2 15 2 30 0 44s-7 26 -14 37s-17 19 -30 25s-29 9 -48 9h-237zM398 61l-4 2c21 0 40 3 57 10s32 16 44 28s22 26 30 41s13 31 16 48s3 33 1 48s-7 28 -15 39s-18 20 -31 27s-29 10 -48 10h-282l-40 -253h272z" />
    <glyph glyph-name="uni0413" unicode="&#x413;" horiz-adv-x="533" 
d="M212 610l-96 -610h-69l107 675h419l-10 -65h-351z" />
    <glyph glyph-name="uni0414" unicode="&#x414;" horiz-adv-x="692" 
d="M579 610l-241 1c-22 -111 -50 -211 -84 -300s-71 -171 -112 -246h351zM546 1l-493 -1l-26 -118h-59l29 183h71c58 103 104 205 138 306s58 203 72 305h379l-97 -610h62l-29 -183h-59z" />
    <glyph glyph-name="uni0415" unicode="&#x415;" horiz-adv-x="581" 
d="M154 675h437l-10 -65h-369l-36 -229h349l-10 -65h-349l-40 -251h371l-10 -65h-440z" />
    <glyph glyph-name="uni0416" unicode="&#x416;" horiz-adv-x="1014" 
d="M-37 0l379 365l-254 309l87 1l306 -370l59 370h68l-58 -370l424 370h89l-354 -311l262 -364h-82l-231 319l-123 -109l-34 -210h-68l34 213l-84 102l-331 -315h-89z" />
    <glyph glyph-name="uni0417" unicode="&#x417;" horiz-adv-x="615" 
d="M279 -13l-6 -6c-57 0 -108 8 -153 23s-85 41 -121 77l40 49c32 -29 68 -50 107 -63s84 -19 135 -19c63 0 111 11 144 33s52 52 58 89c7 42 -10 76 -51 102s-102 39 -183 39l11 63c53 0 96 4 129 12s59 19 78 32s33 27 41 42s13 30 15 45c3 19 1 36 -5 50s-16 26 -30 35
s-32 16 -53 21s-44 7 -70 7c-23 0 -44 -1 -64 -4s-40 -7 -59 -13s-38 -13 -57 -22s-38 -19 -58 -30l-24 49c36 27 78 48 126 64s98 24 150 24c35 0 67 -4 96 -11s54 -18 74 -32s35 -32 44 -54s11 -48 6 -77c-6 -37 -22 -70 -47 -100s-64 -53 -116 -70c44 -17 77 -40 98 -70
s29 -63 23 -100c-4 -27 -13 -52 -27 -75s-32 -42 -55 -58s-51 -29 -84 -38s-70 -14 -112 -14z" />
    <glyph glyph-name="uni0418" unicode="&#x418;" horiz-adv-x="729" 
d="M47 0l107 675h68l-91 -577l510 577h68l-107 -675h-68l91 576l-509 -576h-69z" />
    <glyph glyph-name="uni0419" unicode="&#x419;" horiz-adv-x="729" 
d="M378 858h-2c0 -10 1 -20 3 -30s6 -19 12 -27s14 -14 24 -19s22 -7 36 -7c25 0 47 8 65 25s31 36 38 58h48c-11 -44 -30 -78 -57 -102s-60 -36 -99 -36c-40 0 -70 12 -90 36s-28 58 -23 102h45zM46 0l107 675h68l-91 -577l510 577h68l-107 -675h-68l91 576l-510 -576h-68z
" />
    <glyph glyph-name="uni041A" unicode="&#x41a;" horiz-adv-x="628" 
d="M277 324l-128 -113l-33 -211h-69l107 675h68l-58 -371l424 371h89l-349 -306l258 -369h-82z" />
    <glyph glyph-name="uni041B" unicode="&#x41b;" horiz-adv-x="692" 
d="M181 168h-1c-5 -30 -14 -56 -27 -78s-28 -41 -46 -56s-38 -26 -61 -34s-47 -12 -72 -12l11 64c13 0 27 3 41 8s27 12 39 21s22 21 30 35s14 31 17 50l81 509h480l-107 -675h-69l97 609h-343l-70 -441v0z" />
    <glyph glyph-name="uni041C" unicode="&#x41c;" horiz-adv-x="868" 
d="M204 555l-88 -555h-69l107 675h69l191 -542l365 542h69l-107 -675h-69l88 552l-330 -493h-53z" />
    <glyph glyph-name="uni041D" unicode="&#x41d;" horiz-adv-x="730" 
d="M584 314h-419l-49 -314h-69l107 675h68l-46 -296h418l47 296h69l-107 -675h-69z" />
    <glyph glyph-name="uni041E" unicode="&#x41e;" horiz-adv-x="768" 
d="M342 -13l1 -1c-47 0 -90 9 -129 27s-71 43 -97 75s-45 69 -56 111s-13 88 -6 137c8 48 24 93 48 136s54 80 90 112s76 57 121 75s91 27 139 27c47 0 90 -9 129 -27s71 -43 97 -75s45 -69 56 -112s13 -88 6 -136c-8 -49 -24 -94 -49 -136s-55 -79 -91 -111
s-76 -57 -121 -75s-91 -27 -138 -27zM353 52l-1 -5c37 0 73 8 108 23s67 36 96 62s53 56 73 90s33 71 39 110s5 76 -3 111s-22 65 -42 91s-46 47 -77 62s-66 23 -105 23c-37 0 -73 -7 -108 -22s-67 -35 -96 -61s-53 -56 -73 -91s-33 -72 -39 -111s-5 -75 4 -109
s24 -64 44 -90s46 -46 77 -61s65 -22 103 -22z" />
    <glyph glyph-name="uni041F" unicode="&#x41f;" horiz-adv-x="730" 
d="M631 610h-419l-96 -610h-69l107 675h556l-107 -675h-69z" />
    <glyph glyph-name="uni0420" unicode="&#x420;" horiz-adv-x="635" 
d="M212 610l-53 -331h213c27 0 51 5 73 15s41 23 57 39s29 35 38 56s15 42 18 63c3 19 3 38 0 57s-9 36 -19 51s-23 27 -40 36s-38 14 -63 14h-224zM149 215l-32 -215h-69l107 675h299c33 0 62 -6 86 -19s44 -30 59 -51s25 -45 30 -72s6 -54 2 -81c-5 -30 -14 -59 -28 -87
s-32 -53 -54 -75s-47 -40 -76 -54s-60 -21 -94 -21h-230z" />
    <glyph glyph-name="uni0421" unicode="&#x421;" horiz-adv-x="667" 
d="M607 93v-2c-17 -17 -36 -32 -58 -45s-44 -24 -67 -33s-47 -16 -72 -21s-49 -7 -73 -7c-47 0 -90 9 -128 27s-70 43 -95 74s-43 68 -54 110s-12 88 -4 137c8 51 24 98 48 141s54 80 89 111s74 55 117 73s87 27 132 27c52 0 100 -9 143 -27s77 -45 102 -80l-51 -41
c-21 28 -50 49 -87 63s-76 21 -117 21c-37 0 -73 -7 -107 -22s-65 -35 -93 -61s-51 -56 -70 -91s-32 -72 -39 -112c-6 -39 -5 -76 3 -111s22 -65 42 -90s45 -45 75 -60s64 -22 102 -22c40 0 80 8 120 23s75 38 105 68z" />
    <glyph glyph-name="uni0422" unicode="&#x422;" horiz-adv-x="586" 
d="M383 610l-96 -610h-69l97 610h-243l10 65h554l-10 -65h-243z" />
    <glyph glyph-name="uni0423" unicode="&#x423;" horiz-adv-x="617" 
d="M440 300l3 -2c-35 -56 -70 -104 -105 -143s-71 -71 -108 -96s-75 -43 -115 -54s-82 -16 -127 -16l15 64c44 0 88 9 133 26s88 47 130 89l-182 507h75l159 -448c7 10 14 20 21 31l21 33l235 384h77l-232 -375v0z" />
    <glyph glyph-name="uni0424" unicode="&#x424;" horiz-adv-x="800" 
d="M322 0l19 90c-59 2 -109 10 -150 24s-73 32 -97 54s-40 48 -49 77s-11 60 -6 93c5 32 17 63 35 92s43 55 74 77s69 40 114 54s97 22 156 24l14 90h69l-14 -90c59 -2 109 -10 150 -24s74 -32 98 -54s41 -48 50 -77s11 -60 6 -93s-16 -64 -34 -93s-43 -54 -75 -76
s-71 -40 -117 -54s-99 -22 -159 -24l-15 -90h-69zM723 337l2 -3c3 23 1 45 -6 66s-20 40 -39 57s-45 31 -78 42s-74 17 -123 19l-57 -363c50 2 93 8 129 19s66 25 90 41s43 35 56 56s22 43 26 66zM113 334l-2 2c-3 -23 -1 -45 6 -66s20 -40 39 -56s45 -29 77 -40
s72 -17 120 -19l58 363c-49 -2 -91 -8 -127 -19s-66 -25 -90 -42s-43 -36 -56 -57s-21 -43 -25 -66z" />
    <glyph glyph-name="uni0425" unicode="&#x425;" horiz-adv-x="635" 
d="M326 294l-273 -294h-85l326 347l-199 328h80l168 -280l256 280h82l-308 -334l207 -341h-78z" />
    <glyph glyph-name="uni0426" unicode="&#x426;" horiz-adv-x="742" 
d="M589 -118l11 118h-554l107 675h69l-97 -610h420l96 610h69l-97 -610h62l-29 -183h-57z" />
    <glyph glyph-name="uni0427" unicode="&#x427;" horiz-adv-x="637" 
d="M442 0l49 285c-29 -11 -58 -19 -87 -24s-58 -7 -87 -7c-38 0 -73 5 -105 15s-59 25 -81 45s-38 45 -48 75s-12 65 -6 104l29 182h68l-28 -178c-5 -29 -3 -55 5 -77s20 -41 37 -56s37 -26 61 -33s50 -11 77 -11c34 0 64 2 90 6s53 12 81 23l52 326h68l-107 -675h-68z" />
    <glyph glyph-name="uni0428" unicode="&#x428;" horiz-adv-x="970" 
d="M154 675h68l-96 -610h295l96 610h69l-97 -610h295l97 610h68l-107 -675h-795z" />
    <glyph glyph-name="uni0429" unicode="&#x429;" horiz-adv-x="980" 
d="M827 -118l12 118h-793l107 675h68l-97 -610h295l97 610h68l-97 -610h296l97 610h68l-97 -610h62l-29 -183h-57z" />
    <glyph glyph-name="uni042A" unicode="&#x42a;" horiz-adv-x="761" 
d="M308 327l-43 -263h240c21 0 40 4 57 12s32 18 44 31s22 28 30 44s13 33 16 50c3 15 3 30 1 45s-7 29 -15 41s-19 22 -33 29s-31 11 -51 11h-246zM283 609l-216 -1l10 65h283l-45 -284h255c29 0 54 -5 75 -16s38 -25 50 -43s21 -38 26 -61s5 -46 1 -70
c-4 -25 -12 -50 -24 -74s-27 -45 -45 -64s-39 -34 -63 -45s-50 -17 -78 -17h-326z" />
    <glyph glyph-name="uni042B" unicode="&#x42b;" horiz-adv-x="868" 
d="M779 675h68l-107 -675h-68zM167 327l-44 -263h248c21 0 40 4 57 12s32 18 45 31s23 28 31 44s13 33 16 50c3 15 3 30 0 45s-8 29 -16 41s-19 22 -32 29s-30 11 -50 11h-255zM151 674l65 -1l-44 -284h261c29 0 54 -5 75 -16s38 -25 51 -43s22 -38 26 -61s5 -46 2 -70
c-4 -25 -12 -50 -24 -74s-27 -45 -45 -64s-39 -34 -63 -45s-50 -17 -78 -17h-333z" />
    <glyph glyph-name="uni042C" unicode="&#x42c;" horiz-adv-x="622" 
d="M167 327l-43 -263h239c21 0 40 4 57 12s32 18 45 31s23 28 31 44s13 33 16 50c3 15 3 30 1 45s-7 29 -15 41s-19 22 -33 29s-31 11 -51 11h-247zM152 674l66 -1l-44 -284h254c29 0 54 -5 75 -16s38 -25 51 -43s22 -38 26 -61s4 -46 0 -70c-4 -25 -12 -50 -24 -74
s-27 -45 -45 -64s-39 -34 -63 -45s-50 -17 -78 -17h-325z" />
    <glyph glyph-name="uni042D" unicode="&#x42d;" horiz-adv-x="669" 
d="M259 -13l-2 -1c-50 0 -97 9 -141 27s-79 44 -104 78l51 46c21 -28 50 -49 87 -64s76 -22 117 -22c33 0 66 7 98 20s61 31 87 54s49 50 68 81s33 64 42 99h-309l10 65h309c2 35 -2 68 -12 99s-25 58 -45 80s-44 40 -72 53s-59 20 -93 20c-20 0 -40 -2 -60 -6
s-40 -9 -60 -16s-39 -16 -57 -27s-34 -23 -48 -37l-41 44c36 35 79 62 128 80s99 27 149 27c46 0 88 -9 126 -27s69 -43 94 -75s43 -69 54 -112s12 -89 4 -138c-7 -48 -22 -93 -45 -135s-51 -79 -85 -111s-72 -57 -115 -75s-88 -27 -135 -27z" />
    <glyph glyph-name="uni042E" unicode="&#x42e;" horiz-adv-x="1017" 
d="M590 -13l-1 -4c-45 0 -86 9 -124 26s-70 40 -96 69s-45 64 -58 104s-17 83 -12 129h-137l-50 -314h-68l107 675h68l-47 -297h139c12 43 31 84 56 122s55 71 90 99s73 50 115 66s85 24 129 24c47 0 90 -9 129 -27s71 -43 97 -75s45 -69 56 -112s13 -88 6 -136
c-8 -49 -24 -94 -49 -136s-55 -79 -91 -111s-76 -57 -121 -75s-91 -27 -138 -27zM599 49l-2 -3c37 0 74 8 110 23s68 35 97 61s53 56 73 90s33 71 39 110s5 76 -3 111s-22 65 -43 91s-47 47 -78 62s-65 23 -103 23c-37 0 -73 -7 -108 -22s-67 -35 -96 -61s-53 -56 -73 -91
s-33 -72 -39 -111s-5 -76 3 -110s22 -64 42 -90s45 -46 76 -61s66 -22 105 -22z" />
    <glyph glyph-name="uni042F" unicode="&#x42f;" horiz-adv-x="666" 
d="M521 319l45 290h-276c-19 0 -37 -4 -53 -12s-30 -19 -42 -33s-21 -29 -28 -46s-12 -34 -15 -52s-3 -36 -1 -53s7 -33 15 -47s19 -25 33 -34s32 -13 54 -13h268zM510 253l-262 1l-158 -254h-75l164 263c-20 7 -37 17 -51 31s-25 30 -33 48s-13 38 -15 59s-1 43 2 65
c4 26 12 52 24 77s28 47 47 66s41 35 66 47s52 18 81 18h345l-107 -675h-68z" />
    <glyph glyph-name="uni0430" unicode="&#x430;" 
d="M250 49h1c25 0 49 5 72 15s44 24 63 42s35 39 48 63s22 50 27 78s5 54 0 78s-14 45 -27 63s-30 32 -50 42s-43 15 -70 15c-25 0 -49 -5 -72 -16s-44 -25 -63 -43s-35 -39 -48 -63s-21 -49 -25 -76s-4 -52 0 -76s13 -45 26 -63s29 -32 49 -43s43 -16 69 -16zM440 87l-1 -2
c-28 -30 -60 -54 -95 -72s-72 -27 -110 -27c-31 0 -60 7 -87 20s-49 31 -67 54s-31 51 -39 83s-9 67 -3 104s18 72 36 104s40 60 66 83s54 41 85 54s63 20 95 20c37 0 71 -9 101 -26s54 -41 71 -71l25 84h43l-78 -495h-44z" />
    <glyph glyph-name="uni0431" unicode="&#x431;" horiz-adv-x="588" 
d="M544 223l-2 -1c-6 -39 -18 -73 -36 -102s-40 -53 -66 -73s-54 -35 -85 -45s-64 -15 -98 -15c-35 0 -67 6 -96 18s-53 30 -72 53s-33 52 -41 86s-8 74 -1 119l1 6c13 80 32 147 57 201s55 97 89 129s72 55 113 69s84 21 128 21c26 0 50 -2 72 -6s45 -9 69 -16l-33 -61
c-21 6 -41 11 -60 14s-39 5 -60 5c-29 0 -57 -4 -84 -12s-53 -21 -77 -39s-46 -42 -66 -72s-37 -68 -51 -113c26 17 55 31 86 41s63 15 95 15c35 0 67 -5 96 -14s53 -23 73 -42s34 -42 43 -70s11 -60 6 -96zM265 50h-6c25 0 49 4 72 12s44 19 63 34s35 33 48 54s22 45 27 72
c4 25 3 47 -4 66s-18 36 -33 50s-33 24 -54 31s-44 11 -69 11c-24 0 -47 -3 -69 -10s-42 -17 -60 -30s-33 -28 -45 -45s-19 -35 -22 -54c-5 -31 -5 -59 1 -83s16 -44 30 -60s31 -28 52 -36s44 -12 69 -12z" />
    <glyph glyph-name="uni0432" unicode="&#x432;" horiz-adv-x="548" 
d="M110 495l270 2c21 0 40 -3 56 -10s29 -16 38 -28s15 -26 18 -42s3 -33 0 -50c-3 -19 -9 -37 -18 -54s-21 -32 -36 -45c23 -11 39 -28 48 -51s12 -48 8 -75c-3 -19 -9 -37 -18 -54s-20 -32 -34 -45s-30 -23 -49 -31s-39 -12 -61 -12h-300zM168 434l-22 -145h207
c9 0 18 2 26 6s15 10 21 17s11 15 15 24s7 18 8 27c3 19 0 36 -9 50s-26 21 -51 21h-195zM136 227l-24 -163h224c26 0 47 8 62 24s24 35 27 58c3 22 0 41 -10 57s-27 24 -52 24h-227z" />
    <glyph glyph-name="uni0433" unicode="&#x433;" horiz-adv-x="440" 
d="M168 431l-68 -431h-68l78 495h346l-11 -64h-277z" />
    <glyph glyph-name="uni0434" unicode="&#x434;" horiz-adv-x="551" 
d="M419 431l-162 -1c-7 -33 -15 -66 -25 -99s-20 -65 -31 -96s-23 -61 -36 -90s-26 -56 -39 -81h235zM419 -1l-371 -1l-26 -119h-57l29 183h62c36 67 66 136 91 207s44 146 57 225h292l-67 -431h64l-29 -183h-57z" />
    <glyph glyph-name="uni0435" unicode="&#x435;" horiz-adv-x="542" 
d="M309 450v-1c-22 0 -43 -4 -63 -12s-39 -20 -56 -35s-32 -33 -45 -54s-23 -43 -30 -67l329 9c1 49 -10 88 -33 117s-57 43 -102 43zM454 68v-2c-28 -26 -59 -46 -93 -60s-69 -21 -106 -21c-34 0 -65 6 -94 18s-53 29 -73 51s-35 49 -44 81s-11 68 -5 107
c7 40 20 76 38 108s40 60 66 83s54 41 85 53s62 18 93 18c33 0 63 -6 89 -19s48 -31 65 -54s29 -52 35 -86s6 -72 -1 -115h-402c-3 -27 -1 -52 5 -75s16 -42 30 -58s32 -28 53 -37s45 -13 72 -13c29 0 56 6 81 17s48 27 69 47z" />
    <glyph glyph-name="uni0436" unicode="&#x436;" horiz-adv-x="747" 
d="M324 145l-2 -1c-11 11 -22 22 -32 33s-20 22 -29 33l-206 -211h-83l248 258c-59 73 -111 152 -156 237h84c27 -53 56 -102 87 -147s65 -85 101 -121l43 269h68l-42 -267c61 47 114 93 159 137s84 87 116 129h82c-69 -85 -146 -165 -231 -239l165 -256h-78l-140 211
l-42 -33s-29 -22 -44 -33l-23 -144h-68z" />
    <glyph glyph-name="uni0437" unicode="&#x437;" horiz-adv-x="465" 
d="M197 -13l-6 1c-41 0 -76 6 -106 18s-60 31 -89 57l37 47c26 -21 51 -36 76 -45s55 -14 90 -14c39 0 69 8 90 23s33 35 37 60c5 27 -7 49 -35 66s-70 26 -127 26l10 62c39 0 70 3 94 8s43 12 57 20s24 17 30 27s10 20 11 29c4 27 -3 46 -22 56s-44 15 -76 15
c-17 0 -32 -1 -46 -3s-28 -5 -42 -10s-28 -11 -42 -18s-29 -15 -45 -24l-19 51c62 44 132 66 211 66c25 0 48 -2 69 -7s38 -13 52 -23s24 -23 30 -39s7 -35 4 -58c-5 -27 -16 -51 -34 -73s-45 -39 -80 -52c28 -14 49 -32 62 -53s17 -45 12 -71c-7 -41 -27 -75 -60 -102
s-81 -40 -143 -40z" />
    <glyph glyph-name="uni0438" unicode="&#x438;" horiz-adv-x="586" 
d="M32 0l78 495h67l-63 -402l371 402h68l-79 -495h-68l64 402l-371 -402h-67z" />
    <glyph glyph-name="uni0439" unicode="&#x439;" horiz-adv-x="586" 
d="M267 684h-3c0 -10 1 -20 4 -30s8 -19 14 -27s14 -14 24 -19s22 -7 35 -7c25 0 47 9 65 26s31 36 38 57h47c-11 -44 -30 -78 -57 -102s-60 -36 -99 -36s-69 12 -89 36s-28 58 -23 102h44zM29 0l79 495h67l-64 -402l372 402h68l-79 -495h-68l64 402l-371 -402h-68z" />
    <glyph glyph-name="uni043A" unicode="&#x43a;" horiz-adv-x="513" 
d="M231 223l1 -3c-17 -13 -35 -26 -53 -39s-37 -26 -56 -39l-22 -143h-68l78 495h68l-43 -270c57 40 111 83 162 129s99 93 144 142h85c-38 -41 -77 -80 -117 -118s-82 -75 -125 -111l174 -266h-79z" />
    <glyph glyph-name="uni043B" unicode="&#x43b;" horiz-adv-x="583" 
d="M153 132v-2c-7 -44 -26 -79 -57 -105s-69 -39 -115 -39l10 64c23 0 44 9 62 26s29 40 33 68l56 351h409l-78 -495h-67l68 431h-274l-47 -299v0z" />
    <glyph glyph-name="uni043C" unicode="&#x43c;" horiz-adv-x="670" 
d="M160 380l-60 -380h-68l78 495h69l135 -372l255 372h68l-79 -495h-67l61 380l-229 -335h-42z" />
    <glyph glyph-name="uni043D" unicode="&#x43d;" horiz-adv-x="588" 
d="M444 221h-309l-35 -221h-68l78 495h68l-33 -210h309l34 210h67l-79 -495h-67z" />
    <glyph glyph-name="uni043E" unicode="&#x43e;" horiz-adv-x="563" 
d="M239 -13c-31 0 -60 6 -87 18s-50 29 -69 51s-33 49 -41 81s-9 68 -3 107c7 40 19 76 37 108s40 60 66 83s54 41 85 53s63 18 96 18s63 -6 90 -19s50 -31 69 -54s32 -51 40 -83s9 -68 3 -107s-18 -74 -36 -106s-40 -59 -66 -81s-55 -39 -87 -51s-64 -18 -97 -18zM248 49h1
c25 0 49 5 72 15s44 24 63 41s35 38 48 62s22 50 27 79s5 56 0 80s-14 45 -27 63s-29 32 -49 42s-43 15 -69 15c-24 0 -47 -5 -70 -15s-44 -24 -63 -42s-35 -39 -48 -63s-22 -50 -27 -79c-5 -28 -5 -54 0 -78s14 -45 26 -63s28 -32 48 -42s43 -15 68 -15z" />
    <glyph glyph-name="uni043F" unicode="&#x43f;" horiz-adv-x="588" 
d="M477 431h-310l-68 -431h-67l78 495h445l-79 -495h-67z" />
    <glyph glyph-name="uni0440" unicode="&#x440;" horiz-adv-x="592" 
d="M341 446v-3c-25 0 -49 -5 -72 -15s-44 -24 -63 -41s-35 -38 -48 -62s-21 -50 -25 -78c-5 -29 -5 -55 0 -79s14 -45 27 -63s30 -32 50 -42s43 -15 68 -15s49 5 72 16s44 26 62 44s34 39 47 63s22 50 26 77s4 52 -1 76s-14 45 -27 63s-29 32 -49 43s-42 16 -67 16zM59 -238
l-66 -4l115 730h44l1 -83c28 30 60 54 95 71s71 26 107 26c32 0 62 -6 89 -19s50 -31 68 -54s31 -50 39 -82s9 -66 3 -103c-6 -38 -18 -73 -36 -105s-39 -60 -64 -83s-53 -41 -84 -54s-62 -19 -93 -19c-37 0 -70 9 -100 26s-54 40 -73 69l-3 -47z" />
    <glyph glyph-name="uni0441" unicode="&#x441;" horiz-adv-x="500" 
d="M439 67l3 -1c-27 -25 -57 -45 -91 -59s-69 -21 -105 -21c-32 0 -62 6 -90 18s-51 29 -70 51s-33 49 -42 81s-10 68 -4 107c6 40 18 76 36 108s40 60 66 83s55 41 87 53s65 18 98 18c35 0 68 -7 98 -20s55 -32 74 -57l-52 -41c-14 17 -32 31 -54 41s-47 15 -75 15
c-25 0 -49 -5 -72 -15s-44 -24 -63 -42s-35 -39 -48 -63s-22 -50 -27 -79c-5 -28 -5 -54 0 -78s14 -45 27 -62s30 -31 50 -41s43 -15 68 -15c28 0 54 6 78 17s47 26 68 45z" />
    <glyph glyph-name="uni0442" unicode="&#x442;" horiz-adv-x="448" 
d="M286 431l-69 -431h-67l68 431h-175l11 64h417l-11 -64h-174z" />
    <glyph glyph-name="uni0443" unicode="&#x443;" horiz-adv-x="489" 
d="M-58 -173l-4 -2c18 0 37 6 57 18s40 27 60 45s39 38 57 60s35 43 50 63l-117 483h72l93 -420c23 31 45 63 66 95s41 65 60 99s36 70 52 107s31 77 46 119h69c-27 -81 -66 -166 -117 -256s-111 -179 -180 -268c-24 -31 -48 -59 -71 -84s-46 -47 -69 -65s-46 -32 -68 -42
s-44 -15 -66 -15z" />
    <glyph glyph-name="uni0444" unicode="&#x444;" horiz-adv-x="948" 
d="M242 50v-2c23 0 45 5 67 14s42 22 60 38s34 35 47 57s22 47 27 74c1 3 1 5 1 7s0 4 1 7c1 2 1 4 1 6s0 4 1 6c3 27 2 52 -4 75s-15 43 -28 60s-29 30 -48 39s-40 14 -63 14s-46 -5 -68 -16s-42 -25 -60 -43s-33 -39 -46 -63s-21 -49 -25 -76c-4 -26 -3 -51 2 -75
s14 -45 26 -63s27 -32 46 -43s40 -16 63 -16zM642 47l-1 -1c24 0 47 5 69 16s42 26 60 44s33 39 45 63s20 49 24 76c4 26 4 51 -1 75s-13 45 -25 63s-27 32 -46 43s-40 16 -63 16c-24 0 -47 -5 -70 -15s-43 -23 -61 -40s-33 -37 -46 -61s-21 -49 -25 -76v-3v-3l-1 -5
c-3 -27 -2 -52 3 -76s14 -44 27 -61s29 -30 48 -40s40 -15 63 -15zM429 -238l-70 -6l49 310c-26 -27 -55 -48 -87 -64s-65 -24 -98 -24c-31 0 -59 7 -85 20s-48 31 -65 54s-29 50 -37 82s-9 67 -3 104c6 38 18 73 36 105s39 60 64 83s52 41 82 54s60 20 91 20
c36 0 68 -9 95 -27s49 -42 66 -72l4 53l40 255h65l-47 -296c26 27 55 49 87 65s65 24 98 24c31 0 59 -6 85 -19s48 -31 66 -54s31 -50 39 -82s9 -66 3 -103c-6 -38 -18 -73 -36 -105s-39 -59 -64 -82s-52 -41 -82 -54s-60 -19 -91 -19c-35 0 -66 9 -93 27s-49 42 -66 71
l-4 -54z" />
    <glyph glyph-name="uni0445" unicode="&#x445;" horiz-adv-x="495" 
d="M239 211l2 1c-39 -29 -74 -61 -106 -96s-60 -74 -85 -117h-72c32 55 68 104 107 147s81 80 126 111l-143 237h76l115 -200c37 28 70 58 99 91s54 69 75 109h76c-29 -50 -62 -95 -99 -135s-78 -77 -124 -110l152 -249h-75z" />
    <glyph glyph-name="uni0446" unicode="&#x446;" horiz-adv-x="586" 
d="M441 -119l12 119h-422l78 495h67l-68 -431h287l69 431h67l-68 -431h64l-29 -183h-57z" />
    <glyph glyph-name="uni0447" unicode="&#x447;" horiz-adv-x="543" 
d="M364 0l30 181l16 66c-27 -28 -56 -50 -87 -66s-62 -24 -94 -24c-29 0 -55 4 -79 13s-44 23 -60 41s-27 41 -34 69s-7 61 -1 99l18 114h67l-17 -111c-5 -28 -5 -52 -1 -72s11 -36 22 -49s25 -22 41 -28s34 -9 54 -9c34 0 66 10 96 29s57 43 80 71l27 171h67l-78 -495h-67z
" />
    <glyph glyph-name="uni0448" unicode="&#x448;" horiz-adv-x="783" 
d="M110 495h67l-68 -431h219l68 431h68l-68 -431h219l68 431h68l-79 -495h-640z" />
    <glyph glyph-name="uni0449" unicode="&#x449;" horiz-adv-x="805" 
d="M660 -119l11 119h-641l78 495h68l-68 -431h219l68 431h67l-68 -431h220l68 431h67l-68 -431h65l-29 -183h-57z" />
    <glyph glyph-name="uni044A" unicode="&#x44a;" horiz-adv-x="573" 
d="M251 250l-29 -185h140c28 0 50 9 66 27s26 40 30 66c5 25 2 47 -8 65s-28 27 -55 27h-144zM213 435l-166 -2l9 62h235l-30 -186h152c23 0 43 -4 59 -12s29 -19 38 -33s15 -30 18 -49s3 -38 0 -58c-3 -21 -9 -41 -18 -60s-21 -36 -35 -50s-30 -25 -49 -33s-40 -12 -63 -12
h-219z" />
    <glyph glyph-name="uni044B" unicode="&#x44b;" horiz-adv-x="686" 
d="M507 0l78 495h68l-78 -495h-68zM139 250l-29 -185h185c28 0 50 9 66 27s26 40 30 66c5 25 2 47 -8 65s-28 27 -55 27h-189zM110 497l66 -2l-29 -186h195c23 0 43 -4 59 -12s29 -19 39 -33s17 -30 20 -49s3 -38 0 -58c-3 -21 -9 -41 -18 -60s-21 -36 -35 -50
s-30 -25 -49 -33s-39 -12 -61 -12h-265z" />
    <glyph glyph-name="uni044C" unicode="&#x44c;" horiz-adv-x="508" 
d="M139 250l-29 -185h185c28 0 50 9 66 27s26 40 30 66c5 25 2 47 -8 65s-28 27 -55 27h-189zM110 497l66 -2l-29 -186h195c23 0 43 -4 59 -12s29 -19 39 -33s17 -30 20 -49s3 -38 0 -58c-3 -21 -9 -41 -18 -60s-21 -36 -35 -50s-30 -25 -49 -33s-39 -12 -61 -12h-265z" />
    </font>
</defs>
</svg>
