<?xml version="1.0" standalone="no"?>
<!DOCTYPE svg PUBLIC "-//W3C//DTD SVG 1.1//EN" "http://www.w3.org/Graphics/SVG/1.1/DTD/svg11.dtd" >
<svg xmlns="http://www.w3.org/2000/svg" xmlns:xlink="http://www.w3.org/1999/xlink" version="1.1">
<metadata>
Created by FontForge 20160407 at Mon Sep 26 18:32:15 2016
 By Jimmy Warting
Copyright 1998 DoubleAlex Font Studio.  Tornado is a trademark of DoubleAlex Font Studio.
</metadata>
<defs>
<font id="TornadoLightC" horiz-adv-x="537" >
  <font-face 
    font-family="TornadoLightC"
    font-weight="300"
    font-stretch="normal"
    units-per-em="1000"
    panose-1="0 0 4 0 0 0 0 0 0 0"
    ascent="775"
    descent="-225"
    x-height="504"
    cap-height="712"
    bbox="-52 -225 1061 892"
    underline-thickness="50"
    underline-position="-100"
    stemh="52"
    stemv="62"
    unicode-range="U+0020-2265"
  />
<missing-glyph horiz-adv-x="1000" 
 />
    <glyph glyph-name=".notdef" horiz-adv-x="1000" 
 />
    <glyph glyph-name="space" unicode=" " horiz-adv-x="278" 
 />
    <glyph glyph-name="space" unicode="&#xa0;" horiz-adv-x="278" 
 />
    <glyph glyph-name="exclam" unicode="!" horiz-adv-x="315" 
d="M171 200h-35l-17 298v214h69v-214zM117 0v102h82v-102h-82z" />
    <glyph glyph-name="quotedbl" unicode="&#x22;" horiz-adv-x="390" 
d="M294 472h-39l-10 240h59zM135 472h-39l-10 240h59z" />
    <glyph glyph-name="numbersign" unicode="#" 
d="M409 444l-24 -176h105v-44h-113l-31 -224h-45l31 224h-164l-32 -224h-45l32 224h-108v44h114l25 176h-109v44h116l32 224h45l-32 -224h165l31 224h45l-30 -224h105v-44h-113zM200 444l-26 -176h165l25 176h-164z" />
    <glyph glyph-name="dollar" unicode="$" 
d="M282 -5v-100h-28v96h-31c-58 0 -102 9 -145 25v61c41 -19 90 -28 144 -28c3 0 32 1 32 1v289c-25 12 -49 23 -72 35c-68 36 -118 78 -118 165c0 95 74 163 190 180v96h28v-94c61 -1 103 -7 148 -21v-58c-36 14 -79 21 -120 21h-28v-260c12 -8 68 -38 72 -40
c76 -41 120 -86 120 -171c0 -107 -72 -178 -192 -197zM254 661c-78 -18 -115 -55 -115 -120c0 -57 49 -90 115 -127v247zM282 324v-273c80 24 116 76 116 136c0 66 -42 99 -116 137z" />
    <glyph glyph-name="percent" unicode="%" horiz-adv-x="868" 
d="M683 -11c-105 0 -142 86 -142 190c0 110 32 191 142 191c109 0 142 -81 142 -191c0 -104 -37 -190 -142 -190zM238 -22h-37l428 756h37zM185 342c-105 0 -142 85 -142 191c0 110 32 190 142 190s142 -81 142 -190c0 -106 -37 -191 -142 -191zM683 331
c-76 0 -87 -97 -87 -152c0 -53 12 -151 87 -151c74 0 87 98 87 151c0 58 -7 152 -87 152zM185 684c-76 0 -87 -97 -87 -151c0 -55 13 -152 87 -152c75 0 87 97 87 152c0 57 -7 151 -87 151z" />
    <glyph glyph-name="ampersand" unicode="&#x26;" horiz-adv-x="667" 
d="M553 0l-72 84c-64 -72 -127 -96 -218 -96c-137 0 -223 74 -223 191c0 104 55 166 173 213c-55 67 -88 111 -88 176c0 105 80 156 181 156c90 0 167 -47 167 -148c0 -89 -72 -148 -174 -195l186 -210c45 67 59 122 64 200h60c-10 -103 -39 -171 -89 -242l115 -129h-82z
M302 675c-60 0 -115 -33 -115 -109c0 -60 38 -103 80 -148c60 27 144 72 144 151s-48 106 -109 106zM246 356c-72 -44 -135 -86 -135 -171c0 -96 83 -148 168 -148c77 0 131 42 170 84z" />
    <glyph glyph-name="quotesingle" unicode="'" horiz-adv-x="259" 
d="M149 472h-39l-10 240h59z" />
    <glyph glyph-name="parenleft" unicode="(" horiz-adv-x="322" 
d="M241 -140c-100 138 -181 282 -181 448c0 168 81 307 181 448h53c-82 -136 -162 -286 -162 -448s78 -312 162 -448h-53z" />
    <glyph glyph-name="parenright" unicode=")" horiz-adv-x="322" 
d="M81 -140h-53c82 136 162 286 162 448s-78 312 -162 448h53c100 -138 181 -282 181 -448c0 -168 -81 -307 -181 -448z" />
    <glyph glyph-name="asterisk" unicode="*" 
d="M299 509l119 -140l-46 -31l-94 156l-94 -156l-45 31l120 140l-178 39l17 53l170 -69l-16 180h56l-15 -181l166 70l16 -53z" />
    <glyph glyph-name="plus" unicode="+" horiz-adv-x="600" 
d="M329 224v-224h-58v224h-224v58h224v224h58v-224h224v-58h-224z" />
    <glyph glyph-name="comma" unicode="," horiz-adv-x="259" 
d="M185 106l-89 -239h-61l66 239h84z" />
    <glyph glyph-name="hyphen" unicode="-" horiz-adv-x="333" 
d="M39 242v59h255v-59h-255z" />
    <glyph glyph-name="hyphen" unicode="&#xad;" horiz-adv-x="333" 
d="M39 242v59h255v-59h-255z" />
    <glyph glyph-name="period" unicode="." horiz-adv-x="259" 
d="M88 0v106h82v-106h-82z" />
    <glyph glyph-name="slash" unicode="/" horiz-adv-x="278" 
d="M38 -12h-57l259 736h57z" />
    <glyph glyph-name="zero" unicode="0" 
d="M268 -11c-193 0 -239 202 -239 367c0 168 48 367 239 367c192 0 240 -199 240 -367c0 -165 -46 -367 -240 -367zM268 664c-141 0 -168 -202 -168 -308c0 -105 23 -308 168 -308c146 0 169 203 169 308c0 106 -27 308 -169 308z" />
    <glyph glyph-name="one" unicode="1" 
d="M277 0v649l-140 -112l-35 42l176 133h73v-712h-74z" />
    <glyph glyph-name="two" unicode="2" 
d="M40 0v81l140 129c84 77 217 202 217 325c0 83 -72 129 -160 129c-60 0 -124 -19 -171 -41v62c57 23 120 38 181 38c129 0 223 -66 223 -192c0 -112 -119 -243 -211 -328l-155 -144h381v-59h-445z" />
    <glyph glyph-name="three" unicode="3" 
d="M200 -11c-56 0 -113 11 -161 24v66c45 -17 105 -31 161 -31c86 0 206 26 206 139c0 130 -115 162 -211 162h-52v50h37c80 0 219 19 219 140c0 99 -88 125 -170 125c-60 0 -115 -13 -161 -33v64c49 16 116 28 174 28c129 0 229 -57 229 -182c0 -83 -62 -149 -159 -167v-3
c108 -18 164 -92 164 -187c0 -148 -124 -195 -276 -195z" />
    <glyph glyph-name="four" unicode="4" 
d="M419 161v-161h-69v161h-328v73l305 478h92v-492h99v-59h-99zM350 640h-3l-267 -420h270v420z" />
    <glyph glyph-name="five" unicode="5" 
d="M217 -11c-68 0 -116 10 -148 20v66c44 -18 90 -27 145 -27c99 0 203 50 203 162c0 120 -67 173 -184 173c-44 0 -74 -8 -110 -32h-50v361h393v-59h-326v-230c43 12 74 17 121 17c128 0 226 -91 226 -215c0 -152 -116 -236 -270 -236z" />
    <glyph glyph-name="six" unicode="6" 
d="M273 -11c-194 0 -237 168 -237 339c0 206 71 395 299 395c43 0 102 -8 134 -17v-62c-40 13 -91 20 -130 20c-168 0 -238 -138 -239 -313h2c38 61 115 93 176 93c139 0 224 -91 224 -226c0 -143 -95 -229 -229 -229zM276 386c-105 0 -164 -75 -164 -169
c0 -78 49 -169 156 -169c109 0 160 78 160 167c0 83 -48 171 -152 171z" />
    <glyph glyph-name="seven" unicode="7" 
d="M202 0h-72l290 653h-381v59h447v-64z" />
    <glyph glyph-name="eight" unicode="8" 
d="M266 -11c-122 0 -238 65 -238 189c0 108 72 161 164 202c-64 30 -143 85 -143 182c0 88 85 161 221 161c140 0 215 -75 215 -152c0 -94 -75 -146 -162 -189c113 -48 186 -94 186 -200c0 -134 -107 -193 -243 -193zM264 664c-59 0 -151 -29 -151 -115
c0 -58 72 -105 148 -140c85 38 153 84 153 149c0 89 -92 106 -150 106zM259 352c-77 -37 -159 -66 -159 -169c0 -95 92 -135 174 -135s161 37 163 128c3 108 -93 145 -178 176z" />
    <glyph glyph-name="nine" unicode="9" 
d="M204 -11c-44 0 -102 8 -134 17v65c39 -14 89 -23 130 -23c168 0 238 138 239 313h-3c-34 -45 -94 -84 -185 -84c-128 0 -214 82 -214 217c0 143 95 229 229 229c206 0 236 -168 236 -339c0 -206 -70 -395 -298 -395zM267 664c-108 0 -159 -78 -159 -167
c0 -83 48 -162 152 -162c105 0 161 66 161 160c0 78 -46 169 -154 169z" />
    <glyph glyph-name="colon" unicode=":" horiz-adv-x="259" 
d="M88 0v106h82v-106h-82zM88 404v106h82v-106h-82z" />
    <glyph glyph-name="semicolon" unicode=";" horiz-adv-x="259" 
d="M95 -133h-61l66 239h84zM88 404v106h82v-106h-82z" />
    <glyph glyph-name="less" unicode="&#x3c;" horiz-adv-x="600" 
d="M46 224v58l508 224v-55l-450 -198l450 -198v-55z" />
    <glyph glyph-name="equal" unicode="=" horiz-adv-x="600" 
d="M47 339v60h506v-60h-506zM47 107v60h506v-60h-506z" />
    <glyph glyph-name="greater" unicode="&#x3e;" horiz-adv-x="600" 
d="M46 0v55l451 198l-451 198v55l508 -224v-58z" />
    <glyph glyph-name="question" unicode="?" horiz-adv-x="473" 
d="M274 294c-18 -29 -24 -55 -24 -88v-3h-69v5c0 67 19 102 67 156c43 48 105 109 105 177c0 88 -66 123 -153 123c-60 0 -113 -12 -152 -29v62c45 16 99 27 162 27c129 0 218 -61 218 -176c0 -110 -100 -170 -154 -254zM177 0v107h83v-107h-83z" />
    <glyph glyph-name="at" unicode="@" horiz-adv-x="800" 
d="M535 144c-27 0 -58 15 -61 61h-3c-32 -33 -91 -61 -134 -61c-76 0 -137 68 -137 153c0 128 87 255 215 255c65 0 110 -38 125 -98l26 81h42l-69 -252c-5 -17 -11 -35 -10 -53c1 -16 8 -41 37 -41c61 0 152 107 152 221c0 178 -141 274 -304 274
c-190 0 -321 -145 -321 -329c0 -210 140 -327 329 -327c97 0 183 41 243 103l26 -26c-68 -74 -165 -117 -272 -117c-219 0 -377 145 -377 368c0 215 160 368 373 368c182 0 344 -120 344 -301c0 -188 -147 -279 -224 -279zM420 502c-93 0 -164 -103 -163 -194
c0 -64 38 -115 101 -115c99 0 162 120 162 202c0 63 -45 107 -100 107z" />
    <glyph glyph-name="A" unicode="A" horiz-adv-x="667" 
d="M605 0l-79 190h-386l-78 -190h-70l301 712h84l298 -712h-70zM333 656l-172 -416h344z" />
    <glyph glyph-name="B" unicode="B" horiz-adv-x="564" 
d="M269 0h-197v712h205c151 0 226 -64 226 -170c0 -92 -38 -151 -134 -173v-3c102 -10 155 -88 155 -181c0 -132 -109 -185 -255 -185zM292 653h-151v-256h82c98 0 211 6 211 135c0 97 -78 121 -142 121zM232 338h-91v-279h123c97 0 189 26 189 133c0 136 -125 146 -221 146
z" />
    <glyph glyph-name="C" unicode="C" horiz-adv-x="630" 
d="M432 -12c-231 0 -397 146 -397 370c0 218 174 366 397 366c51 0 118 -7 166 -25v-69c-49 22 -114 34 -162 34c-186 0 -330 -128 -330 -308c0 -187 154 -308 326 -308c46 0 119 13 167 32v-67c-51 -19 -127 -25 -167 -25z" />
    <glyph glyph-name="D" unicode="D" horiz-adv-x="722" 
d="M295 0h-223v712h233c223 0 378 -134 378 -351c0 -243 -149 -361 -388 -361zM314 653h-173v-594h154c198 0 318 90 318 300c0 194 -134 294 -299 294z" />
    <glyph glyph-name="E" unicode="E" horiz-adv-x="500" 
d="M69 0v712h409v-59h-340v-253h291v-59h-291v-282h342v-59h-411z" />
    <glyph glyph-name="F" unicode="F" horiz-adv-x="463" 
d="M141 653v-253h275v-59h-275v-341h-69v712h379v-59h-310z" />
    <glyph glyph-name="G" unicode="G" horiz-adv-x="722" 
d="M436 -12c-230 0 -395 146 -395 370c0 218 173 366 396 366c91 0 150 -13 205 -32v-66c-53 26 -122 37 -200 37c-186 0 -330 -128 -330 -307c0 -187 153 -307 325 -307c70 0 107 5 150 18v230h-181v58h249v-337c-47 -15 -119 -30 -219 -30z" />
    <glyph glyph-name="H" unicode="H" horiz-adv-x="722" 
d="M588 0v341h-452v-341h-69v712h69v-312h452v312h68v-712h-68z" />
    <glyph glyph-name="I" unicode="I" horiz-adv-x="219" 
d="M75 0v712h69v-712h-69z" />
    <glyph glyph-name="J" unicode="J" horiz-adv-x="343" 
d="M73 -12c-27 0 -52 3 -73 8v62c16 -3 39 -8 55 -8c115 0 146 67 146 158v504h68v-515c0 -101 -43 -209 -196 -209z" />
    <glyph glyph-name="K" unicode="K" horiz-adv-x="611" 
d="M522 0l-383 371v-371h-69v712h69v-332l349 332h93l-357 -336l396 -376h-98z" />
    <glyph glyph-name="L" unicode="L" horiz-adv-x="486" 
d="M72 0v712h69v-653h342v-59h-411z" />
    <glyph glyph-name="M" unicode="M" horiz-adv-x="807" 
d="M666 0v612h-3l-260 -292l-259 292h-3v-612h-69v712h64l269 -303l267 303h63v-712h-69z" />
    <glyph glyph-name="N" unicode="N" horiz-adv-x="756" 
d="M602 0l-458 619h-3v-619h-69v712h87l453 -611h3v611h69v-712h-82z" />
    <glyph glyph-name="O" unicode="O" horiz-adv-x="815" 
d="M407 -12c-215 0 -367 155 -367 368c0 204 149 368 367 368c227 0 368 -163 368 -368c0 -212 -146 -368 -368 -368zM407 664c-188 0 -296 -149 -296 -308c0 -152 112 -308 296 -308c188 0 297 151 297 308c0 159 -112 308 -297 308z" />
    <glyph glyph-name="P" unicode="P" horiz-adv-x="548" 
d="M285 300h-142v-300h-69v712h198c150 0 250 -53 250 -205c0 -147 -105 -207 -237 -207zM281 653h-138v-293h135c81 0 173 29 173 148c0 108 -93 145 -170 145z" />
    <glyph glyph-name="Q" unicode="Q" horiz-adv-x="815" 
d="M520 3l145 -135h-91l-128 122c-13 -2 -26 -2 -39 -2c-215 0 -367 155 -367 368c0 204 149 368 367 368c227 0 368 -163 368 -368c0 -173 -97 -309 -255 -353zM407 664c-188 0 -296 -149 -296 -308c0 -152 112 -308 296 -308c188 0 297 152 297 308
c0 159 -112 308 -297 308z" />
    <glyph glyph-name="R" unicode="R" horiz-adv-x="564" 
d="M457 0l-216 312h-100v-312h-69v712h184c144 0 244 -54 244 -205c0 -78 -58 -170 -187 -185l234 -322h-90zM268 653h-127v-282h102c124 0 187 45 187 134c0 95 -53 148 -162 148z" />
    <glyph glyph-name="S" unicode="S" horiz-adv-x="487" 
d="M191 -12c-51 0 -99 12 -144 26v68c42 -17 103 -33 155 -33c72 0 177 33 177 137c0 97 -110 136 -180 170c-85 41 -160 83 -160 184c0 117 97 184 230 184c43 0 96 -6 144 -21v-66c-43 16 -84 27 -141 27c-67 0 -162 -18 -162 -116c0 -87 114 -126 181 -158
c82 -40 158 -89 158 -199c0 -144 -115 -203 -258 -203z" />
    <glyph glyph-name="T" unicode="T" horiz-adv-x="600" 
d="M335 653v-653h-69v653h-266v59h600v-59h-265z" />
    <glyph glyph-name="U" unicode="U" horiz-adv-x="722" 
d="M362 -12c-162 0 -299 99 -299 300v424h69v-405c0 -144 79 -259 230 -259s230 115 230 259v405h68v-424c0 -202 -136 -300 -298 -300z" />
    <glyph glyph-name="V" unicode="V" horiz-adv-x="637" 
d="M353 0h-82l-279 712h80l240 -638h3l259 638h71z" />
    <glyph glyph-name="W" unicode="W" horiz-adv-x="1020" 
d="M786 0h-98l-177 653h-2l-177 -653h-98l-237 712h76l207 -643h3l173 643h108l173 -643h3l207 643h76z" />
    <glyph glyph-name="X" unicode="X" horiz-adv-x="611" 
d="M532 0l-232 323l-223 -323h-81l265 377l-241 335h80l211 -291l205 291h77l-244 -343l267 -369h-84z" />
    <glyph glyph-name="Y" unicode="Y" horiz-adv-x="611" 
d="M340 301v-301h-70v301l-272 411h81l229 -349l226 349h80z" />
    <glyph glyph-name="Z" unicode="Z" horiz-adv-x="514" 
d="M13 0v68l406 585h-394v59h465v-68l-405 -585h412v-59h-484z" />
    <glyph glyph-name="bracketleft" unicode="[" horiz-adv-x="278" 
d="M77 -140v896h183v-47h-120v-802h120v-47h-183z" />
    <glyph glyph-name="backslash" unicode="\" horiz-adv-x="278" 
d="M240 -12l-259 736h57l259 -736h-57z" />
    <glyph glyph-name="bracketright" unicode="]" horiz-adv-x="278" 
d="M18 -140v47h120v802h-120v47h183v-896h-183z" />
    <glyph glyph-name="asciicircum" unicode="^" horiz-adv-x="600" 
d="M476 302l-176 370l-176 -370h-56l200 410h64l200 -410h-56z" />
    <glyph glyph-name="underscore" unicode="_" horiz-adv-x="500" 
d="M0 -125v50h500v-50h-500z" />
    <glyph glyph-name="grave" unicode="`" horiz-adv-x="241" 
d="M149 579l-122 144h72l85 -144h-35z" />
    <glyph glyph-name="a" unicode="a" horiz-adv-x="522" 
d="M398 0v55h-2c-41 -37 -105 -67 -178 -67c-104 0 -179 64 -179 158c0 134 147 170 223 170c67 0 117 -14 136 -21v41c0 89 -51 126 -150 126c-65 0 -112 -29 -147 -53v61c23 15 88 46 160 46c143 0 199 -65 199 -203v-313h-62zM398 243c-25 9 -70 22 -115 22
c-48 0 -177 -11 -177 -122c0 -71 65 -101 120 -101c58 0 131 32 172 77v124z" />
    <glyph glyph-name="b" unicode="b" horiz-adv-x="611" 
d="M570 249c0 -149 -114 -261 -252 -261c-104 0 -164 50 -191 76h-1v-64h-62v712h62v-269h1c31 35 101 73 192 73c148 0 251 -117 251 -267zM506 246c0 120 -79 216 -201 216c-99 0 -151 -52 -179 -89v-242c22 -24 84 -89 179 -89c121 0 201 91 201 204z" />
    <glyph glyph-name="c" unicode="c" horiz-adv-x="463" 
d="M316 -12c-165 0 -274 119 -274 264c0 161 109 264 276 264c39 0 82 -11 110 -21v-59c-36 16 -63 26 -104 26c-139 0 -218 -90 -218 -210c0 -108 79 -210 221 -210c40 0 77 14 107 29v-60c-39 -14 -83 -23 -118 -23z" />
    <glyph glyph-name="d" unicode="d" horiz-adv-x="611" 
d="M547 0h-62v64h-1c-27 -26 -87 -76 -191 -76c-138 0 -252 112 -252 261c0 150 103 267 251 267c91 0 161 -38 192 -73h1v269h62v-712zM485 131v242c-28 37 -80 89 -179 89c-122 0 -201 -96 -201 -216c0 -113 80 -204 201 -204c95 0 157 65 179 89z" />
    <glyph glyph-name="e" unicode="e" horiz-adv-x="556" 
d="M106 235c0 -121 106 -193 213 -193c51 0 120 18 161 38v-63c-39 -14 -94 -29 -166 -29c-176 0 -271 115 -271 271c0 154 102 257 242 257c156 0 230 -103 230 -250v-31h-409zM284 462c-109 0 -172 -79 -179 -175h347c0 108 -67 175 -168 175z" />
    <glyph glyph-name="f" unicode="f" horiz-adv-x="326" 
d="M280 674c-103 0 -113 -59 -113 -110v-60h166v-52h-166v-452h-62v452h-105v52h105v32c0 107 26 188 162 188c20 0 49 -2 69 -5v-49c-19 3 -43 4 -56 4z" />
    <glyph glyph-name="g" unicode="g" horiz-adv-x="600" 
d="M537 53c0 -149 -90 -253 -276 -253c-55 0 -108 9 -176 31v64c61 -26 116 -41 182 -41c122 0 209 70 209 194v29h-2c-33 -35 -100 -73 -192 -73c-145 0 -238 118 -238 254c0 135 96 258 246 258c90 0 148 -32 184 -74h2v68h61v-457zM476 149v209c-24 54 -84 104 -172 104
c-129 0 -196 -100 -196 -205c0 -115 83 -199 195 -199c65 0 138 42 173 91z" />
    <glyph glyph-name="h" unicode="h" horiz-adv-x="556" 
d="M432 0v266c0 124 -31 196 -135 196c-82 0 -142 -59 -171 -113v-349h-62v712h62v-283h2c36 51 105 87 181 87c117 0 185 -70 185 -204v-312h-62z" />
    <glyph glyph-name="i" unicode="i" horiz-adv-x="202" 
d="M132 622h-62v90h62v-90zM132 0h-62v504h62v-504z" />
    <glyph glyph-name="j" unicode="j" horiz-adv-x="202" 
d="M134 622h-62v90h62v-90zM134 -15c0 -81 -21 -183 -139 -183c-16 0 -34 1 -47 2v55c9 0 24 -2 34 -2c68 1 90 36 90 119v528h62v-519z" />
    <glyph glyph-name="k" unicode="k" horiz-adv-x="500" 
d="M505 0h-87l-294 258v-258h-62v712h62v-440l268 232h83l-276 -235z" />
    <glyph glyph-name="l" unicode="l" horiz-adv-x="202" 
d="M70 0v712h62v-712h-62z" />
    <glyph glyph-name="m" unicode="m" horiz-adv-x="835" 
d="M711 0v319c0 69 -19 143 -114 143c-78 0 -125 -55 -148 -96v-366h-62v319c0 69 -19 143 -114 143c-73 0 -130 -69 -147 -96v-366h-62v504h62v-64h2c30 35 97 76 155 76c63 0 128 -35 146 -92h2c33 53 103 92 171 92c114 0 171 -67 171 -175v-341h-62z" />
    <glyph glyph-name="n" unicode="n" horiz-adv-x="556" 
d="M432 0v266c0 124 -31 196 -135 196c-82 0 -142 -59 -171 -113v-349h-62v504h62v-71h2c38 46 98 83 181 83c117 0 185 -70 185 -204v-312h-62z" />
    <glyph glyph-name="o" unicode="o" horiz-adv-x="611" 
d="M572 252c0 -141 -111 -264 -267 -264c-159 0 -267 124 -267 264c0 147 110 264 267 264c158 0 267 -119 267 -264zM508 252c0 120 -87 210 -203 210c-114 0 -203 -90 -203 -210c0 -115 80 -210 203 -210c126 0 203 98 203 210z" />
    <glyph glyph-name="p" unicode="p" horiz-adv-x="611" 
d="M570 255c0 -150 -103 -267 -251 -267c-91 0 -161 38 -192 73h-1v-249h-62v692h62v-64h1c27 26 91 76 195 76c138 0 248 -112 248 -261zM506 258c0 113 -76 204 -197 204c-95 0 -161 -65 -183 -89v-242c28 -37 80 -89 179 -89c122 0 201 96 201 216z" />
    <glyph glyph-name="q" unicode="q" horiz-adv-x="611" 
d="M547 -188h-62v249h-1c-31 -35 -101 -73 -192 -73c-148 0 -251 117 -251 267c0 149 114 261 252 261c104 0 164 -50 191 -76h1v64h62v-692zM485 131v242c-22 24 -84 89 -179 89c-121 0 -201 -91 -201 -204c0 -120 79 -216 201 -216c99 0 151 52 179 89z" />
    <glyph glyph-name="r" unicode="r" horiz-adv-x="336" 
d="M306 460c-100 0 -148 -45 -180 -104v-356h-62v504h62v-68h2c36 50 110 80 160 80c20 0 44 -2 58 -4v-56c-14 3 -28 4 -40 4z" />
    <glyph glyph-name="s" unicode="s" horiz-adv-x="400" 
d="M181 -12c-48 0 -96 5 -139 23v61c41 -18 91 -30 123 -30c52 0 130 14 130 87c0 60 -70 82 -120 106c-69 33 -132 69 -132 147c0 80 75 134 178 134c38 0 76 -7 114 -18v-57c-34 11 -81 21 -104 21c-58 0 -124 -13 -124 -76c0 -52 35 -69 94 -98c73 -36 158 -69 158 -151
c0 -102 -85 -149 -178 -149z" />
    <glyph glyph-name="t" unicode="t" horiz-adv-x="336" 
d="M250 -12c-100 0 -146 57 -146 153v311h-101v52h101v122l62 19v-141h167v-52h-167v-301c0 -66 20 -109 101 -109c23 0 49 5 66 10v-53c-19 -5 -56 -11 -83 -11z" />
    <glyph glyph-name="u" unicode="u" horiz-adv-x="556" 
d="M492 0h-62v71h-2c-38 -46 -98 -83 -181 -83c-117 0 -185 67 -185 201v315h62v-269c0 -124 31 -193 135 -193c82 0 142 59 171 113v349h62v-504z" />
    <glyph glyph-name="v" unicode="v" horiz-adv-x="459" 
d="M264 0h-70l-192 504h69l157 -431h2l162 431h65z" />
    <glyph glyph-name="w" unicode="w" horiz-adv-x="741" 
d="M743 504l-154 -504h-88l-129 452h-2l-129 -452h-88l-154 504h68l128 -447h2l131 447h86l131 -447h2l128 447h68z" />
    <glyph glyph-name="x" unicode="x" horiz-adv-x="448" 
d="M372 0l-149 226l-148 -226h-75l185 272l-161 232h78l127 -193l129 193h73l-166 -238l183 -266h-76z" />
    <glyph glyph-name="y" unicode="y" horiz-adv-x="463" 
d="M203 2l-203 502h70l165 -419l164 419h64l-270 -692h-63z" />
    <glyph glyph-name="z" unicode="z" horiz-adv-x="429" 
d="M21 0v59l311 393h-297v52h363v-59l-311 -393h321v-52h-387z" />
    <glyph glyph-name="braceleft" unicode="{" horiz-adv-x="322" 
d="M240 -140c-47 0 -107 38 -107 114v196c0 70 -43 109 -96 118v40c53 9 96 48 96 115v199c0 76 60 114 107 114h66v-47h-43c-54 0 -71 -48 -71 -98v-187c0 -83 -64 -108 -102 -115v-2c38 -6 102 -27 102 -118v-184c0 -50 17 -98 71 -98h43v-47h-66z" />
    <glyph glyph-name="bar" unicode="|" horiz-adv-x="222" 
d="M76 -188v938h69v-938h-69z" />
    <glyph glyph-name="braceright" unicode="}" horiz-adv-x="322" 
d="M285 288c-53 -9 -96 -48 -96 -118v-196c0 -76 -60 -114 -107 -114h-66v47h43c54 0 71 48 71 98v184c0 91 64 112 102 118v2c-38 7 -102 32 -102 115v187c0 50 -17 98 -71 98h-43v47h66c47 0 107 -38 107 -114v-199c0 -67 43 -106 96 -115v-40z" />
    <glyph glyph-name="asciitilde" unicode="~" horiz-adv-x="600" 
d="M413 180c-33 0 -72 17 -113 38c-33 17 -77 47 -114 47c-40 0 -69 -34 -93 -73l-35 29c23 47 70 105 129 105c33 0 72 -17 113 -38c33 -17 77 -47 114 -47c40 0 69 34 93 73l37 -24c-23 -47 -72 -110 -131 -110z" />
    <glyph glyph-name="afii10051" unicode="&#x402;" horiz-adv-x="782" 
d="M493 -78c-28 0 -49 4 -69 9v60c19 -4 38 -8 54 -8c121 0 200 95 200 215c0 113 -62 202 -200 202c-88 0 -148 -57 -174 -84v-316h-69v653h-235v59h610v-59h-306v-263c32 28 91 71 188 71c153 0 256 -114 256 -266c0 -153 -105 -273 -255 -273z" />
    <glyph glyph-name="afii10052" unicode="&#x403;" horiz-adv-x="481" 
d="M138 653v-653h-69v712h412v-59h-343zM271 763h-51l86 129h75z" />
    <glyph glyph-name="quotesinglbase" unicode="&#x201a;" horiz-adv-x="259" 
d="M116 -133h-61l66 239h84z" />
    <glyph glyph-name="afii10100" unicode="&#x453;" horiz-adv-x="400" 
d="M216 583h-51l86 129h75zM128 452v-452h-62v504h333v-52h-271z" />
    <glyph glyph-name="quotedblbase" unicode="&#x201e;" horiz-adv-x="444" 
d="M118 -133h-61l66 239h84zM298 -133h-61l66 239h84z" />
    <glyph glyph-name="ellipsis" unicode="&#x2026;" horiz-adv-x="1000" 
d="M111 0v106h82v-106h-82zM460 0v106h82v-106h-82zM807 0v106h82v-106h-82z" />
    <glyph glyph-name="dagger" unicode="&#x2020;" 
d="M296 474v-474h-57v474h-181v38h181v200h57v-200h182v-38h-182z" />
    <glyph glyph-name="daggerdbl" unicode="&#x2021;" 
d="M478 282v-38h-182v-244h-57v244h-181v38h181v192h-181v38h181v200h57v-200h182v-38h-182v-192h182z" />
    <glyph glyph-name="perthousand" unicode="&#x2030;" horiz-adv-x="1000" 
d="M481 -11c-105 0 -142 86 -142 190c0 110 32 191 142 191c109 0 142 -81 142 -191c0 -104 -37 -190 -142 -190zM136 -22h-37l428 756h37zM173 342c-105 0 -142 85 -142 191c0 110 32 190 142 190s142 -81 142 -190c0 -106 -37 -191 -142 -191zM481 331
c-76 0 -87 -97 -87 -152c0 -53 12 -151 87 -151c74 0 87 98 87 151c0 58 -7 152 -87 152zM173 684c-76 0 -87 -97 -87 -151c0 -55 13 -152 87 -152c75 0 87 97 87 152c0 57 -7 151 -87 151zM801 -11c-105 0 -142 86 -142 190c0 110 32 191 142 191c109 0 142 -81 142 -191
c0 -104 -37 -190 -142 -190zM801 331c-76 0 -87 -97 -87 -152c0 -53 12 -151 87 -151c74 0 87 98 87 151c0 58 -7 152 -87 152z" />
    <glyph glyph-name="afii10058" unicode="&#x409;" horiz-adv-x="981" 
d="M700 0h-208v653h-236v-231c0 -204 -18 -433 -187 -433c-25 0 -49 3 -69 8v58c18 -4 37 -6 52 -6c116 0 134 166 134 411v252h375v-302h151c132 0 242 -57 242 -205c0 -152 -105 -205 -254 -205zM702 349h-141v-290h143c79 0 178 38 178 145c0 119 -98 145 -180 145z" />
    <glyph glyph-name="guilsinglleft" unicode="&#x2039;" horiz-adv-x="259" 
d="M168 66l-141 203l141 203h56l-130 -203l130 -203h-56z" />
    <glyph glyph-name="afii10059" unicode="&#x40a;" horiz-adv-x="981" 
d="M698 0h-208v350h-349v-350h-69v712h69v-302h349v302h69v-302h151c132 0 242 -57 242 -205c0 -152 -105 -205 -254 -205zM700 349h-141v-290h143c79 0 178 38 178 145c0 119 -98 145 -180 145z" />
    <glyph glyph-name="afii10061" unicode="&#x40c;" horiz-adv-x="611" 
d="M286 763h-51l86 129h75zM522 0l-383 371v-371h-69v712h69v-332l349 332h93l-357 -336l396 -376h-98z" />
    <glyph glyph-name="afii10060" unicode="&#x40b;" horiz-adv-x="782" 
d="M667 0v186c0 147 -47 194 -194 194c-52 0 -134 -15 -169 -23v-357h-69v653h-235v59h610v-59h-306v-238c37 11 114 25 169 25c165 0 263 -46 263 -243v-197h-69z" />
    <glyph glyph-name="afii10145" unicode="&#x40f;" horiz-adv-x="722" 
d="M394 0v-163h-67v163h-260v712h69v-653h452v653h68v-712h-262z" />
    <glyph glyph-name="afii10099" unicode="&#x452;" horiz-adv-x="574" 
d="M548 133c0 -136 -93 -259 -238 -259c-16 0 -42 2 -55 3v53c9 0 24 -2 34 -2c112 0 195 89 195 204c0 105 -67 200 -196 200c-70 0 -122 -31 -152 -70v-262h-62v452h-71v52h71v208h62v-208h257v-52h-257v-123c37 33 89 57 166 57c150 0 246 -118 246 -253z" />
    <glyph glyph-name="quoteleft" unicode="&#x2018;" horiz-adv-x="259" 
d="M204 712l-66 -239h-84l89 239h61z" />
    <glyph glyph-name="quoteright" unicode="&#x2019;" horiz-adv-x="259" 
d="M116 473h-61l66 239h84z" />
    <glyph glyph-name="quotedblleft" unicode="&#x201c;" horiz-adv-x="444" 
d="M387 712l-66 -239h-84l89 239h61zM207 712l-66 -239h-84l89 239h61z" />
    <glyph glyph-name="quotedblright" unicode="&#x201d;" horiz-adv-x="444" 
d="M118 473h-61l66 239h84zM298 473h-61l66 239h84z" />
    <glyph glyph-name="bullet" unicode="&#x2022;" horiz-adv-x="500" 
d="M250 174c-97 0 -174 77 -174 175c0 97 77 174 174 174s175 -77 175 -174c0 -98 -78 -175 -175 -175z" />
    <glyph glyph-name="endash" unicode="&#x2013;" horiz-adv-x="500" 
d="M0 242v59h500v-59h-500z" />
    <glyph glyph-name="emdash" unicode="&#x2014;" horiz-adv-x="1000" 
d="M0 242v59h1000v-59h-1000z" />
    <glyph glyph-name="trademark" unicode="&#x2122;" horiz-adv-x="1000" 
d="M790 301v362l-132 -119l-130 117v-360h-53v411h66l118 -106l118 106h66v-411h-53zM295 666v-365h-53v365h-129v46h311v-46h-129z" />
    <glyph glyph-name="afii10106" unicode="&#x459;" horiz-adv-x="833" 
d="M803 148c0 -96 -67 -148 -170 -148h-236v452h-206v-156c0 -130 -3 -304 -153 -304c-13 0 -29 2 -40 4v55c11 -2 24 -3 35 -3c89 0 96 93 96 322v134h330v-206h178c93 0 166 -50 166 -150zM739 145c0 82 -58 101 -117 101h-163v-194h170c65 0 110 25 110 93z" />
    <glyph glyph-name="guilsinglright" unicode="&#x203a;" horiz-adv-x="259" 
d="M232 269l-141 -203h-56l130 203l-130 203h56z" />
    <glyph glyph-name="afii10107" unicode="&#x45a;" horiz-adv-x="833" 
d="M397 246h-273v-246h-62v504h62v-206h273v206h62v-206h178c93 0 166 -50 166 -150c0 -96 -67 -148 -170 -148h-236v246zM622 246h-163v-194h170c65 0 110 25 110 93c0 82 -58 101 -117 101z" />
    <glyph glyph-name="afii10109" unicode="&#x45c;" horiz-adv-x="481" 
d="M252 583h-51l86 129h75zM64 0v504h62v-230l252 230h82l-264 -233l295 -271h-84l-281 262v-262h-62z" />
    <glyph glyph-name="afii10108" unicode="&#x45b;" horiz-adv-x="556" 
d="M3 452v52h71v208h62v-208h257v-52h-257v-153h2c36 51 105 87 181 87c117 0 185 -70 185 -204v-182h-62v136c0 124 -31 196 -135 196c-82 0 -142 -59 -171 -113v-219h-62v452h-71z" />
    <glyph glyph-name="afii10193" unicode="&#x45f;" horiz-adv-x="556" 
d="M309 0v-150h-62v150h-185v504h62v-452h308v452h62v-504h-185z" />
    <glyph glyph-name="nbspace" horiz-adv-x="278" 
 />
    <glyph glyph-name="afii10062" unicode="&#x40e;" horiz-adv-x="604" 
d="M308 740c-63 0 -108 33 -131 102l46 16c14 -47 40 -68 84 -68s72 21 86 68l46 -16c-23 -69 -68 -102 -131 -102zM242 0h-77l104 198l-274 514h78l235 -442l232 442h74z" />
    <glyph glyph-name="afii10110" unicode="&#x45e;" horiz-adv-x="463" 
d="M203 2l-203 502h70l165 -419l164 419h64l-270 -692h-63zM360 696c-22 -67 -66 -100 -129 -100c-62 0 -106 33 -129 100l46 16c14 -46 39 -66 82 -66s71 20 85 66z" />
    <glyph glyph-name="afii10057" unicode="&#x408;" horiz-adv-x="343" 
d="M73 -12c-27 0 -52 3 -73 8v62c16 -3 39 -8 55 -8c115 0 146 67 146 158v504h68v-515c0 -101 -43 -209 -196 -209z" />
    <glyph glyph-name="currency" unicode="&#xa4;" horiz-adv-x="556" 
d="M495 103l-57 59c-48 -42 -102 -61 -160 -61c-57 0 -110 17 -159 60l-58 -58l-29 29l58 60c-43 50 -60 101 -60 157c0 55 16 110 61 159l-59 57l29 30l58 -57c49 40 106 59 159 59c56 0 110 -18 161 -59l56 57l30 -30l-57 -57c41 -47 58 -102 58 -159
c0 -55 -17 -108 -58 -157l57 -60zM278 546c-107 0 -190 -91 -190 -197c0 -109 84 -197 190 -197c111 1 190 94 190 197s-80 198 -190 197z" />
    <glyph glyph-name="afii10050" unicode="&#x490;" horiz-adv-x="481" 
d="M480 667h-342v-667h-69v726h344v132h67v-191z" />
    <glyph glyph-name="brokenbar" unicode="&#xa6;" horiz-adv-x="222" 
d="M145 450h-69v300h69v-300zM145 -188h-69v300h69v-300z" />
    <glyph glyph-name="section" unicode="&#xa7;" 
d="M395 152c52 -33 69 -65 69 -108c0 -120 -125 -170 -232 -170c-52 0 -106 7 -153 21v61c51 -20 110 -28 167 -28c65 0 148 31 148 112c0 77 -120 98 -175 118c-83 30 -153 66 -153 153c0 54 5 100 79 143c-56 35 -75 66 -75 115c0 103 110 155 215 155c47 0 88 -6 135 -16
l-1 -66c-38 13 -81 22 -120 22c-60 0 -159 -13 -159 -90c0 -82 116 -109 177 -129c85 -29 155 -62 155 -147c0 -56 -12 -95 -77 -146zM319 382c-44 19 -91 29 -133 52c-42 -32 -57 -62 -57 -102c0 -54 46 -84 91 -104c44 -19 96 -32 136 -50c30 33 53 59 53 99
c0 56 -46 85 -90 105z" />
    <glyph glyph-name="afii10023" unicode="&#x401;" horiz-adv-x="500" 
d="M340 759v90h64v-90h-64zM143 759v90h64v-90h-64zM72 0v712h409v-59h-340v-253h291v-59h-291v-282h342v-59h-411z" />
    <glyph glyph-name="copyright" unicode="&#xa9;" horiz-adv-x="800" 
d="M400 -11c-203 0 -367 165 -367 368s164 367 367 367s368 -164 368 -367s-165 -368 -368 -368zM400 668c-171 0 -311 -139 -311 -311s140 -312 311 -312c172 0 311 140 311 312s-139 311 -311 311zM423 143c-135 0 -222 84 -222 216c0 127 92 212 222 212
c32 0 58 -5 87 -17v-44c-27 13 -55 19 -85 19c-104 0 -172 -72 -172 -172c0 -104 74 -172 169 -172c29 0 67 6 92 17v-45c-30 -11 -66 -14 -91 -14z" />
    <glyph glyph-name="afii10053" unicode="&#x404;" horiz-adv-x="630" 
d="M434 -12c-231 0 -397 146 -397 370c0 218 174 366 397 366c51 0 118 -7 166 -25v-69c-49 22 -114 34 -162 34c-170 0 -305 -107 -327 -264h337v-59h-340c8 -179 159 -293 326 -293c46 0 119 13 167 32v-67c-51 -19 -127 -25 -167 -25z" />
    <glyph glyph-name="guillemotleft" unicode="&#xab;" horiz-adv-x="476" 
d="M379 66l-141 203l141 203h56l-130 -203l130 -203h-56zM182 66l-141 203l141 203h56l-130 -203l130 -203h-56z" />
    <glyph glyph-name="logicalnot" unicode="&#xac;" horiz-adv-x="600" 
d="M496 106v233h-449v60h506v-293h-57z" />
    <glyph glyph-name="registered" unicode="&#xae;" horiz-adv-x="400" 
d="M381 544c0 -99 -81 -181 -181 -181c-99 0 -180 81 -180 181c0 99 80 180 180 180c99 0 181 -80 181 -180zM347 544h1c0 81 -66 148 -148 148c-81 0 -147 -66 -147 -148c0 -81 66 -148 147 -148s147 66 147 148zM233 591h1c0 20 -18 31 -44 31h-27v-64h23
c27 0 47 11 47 33zM224 539l57 -98h-33l-53 93c-5 -1 -9 -1 -13 -1h-18v-92h-30v206h49c40 0 81 -6 81 -55c0 -29 -17 -45 -40 -53z" />
    <glyph glyph-name="afii10056" unicode="&#x407;" horiz-adv-x="219" 
d="M173 759v90h64v-90h-64zM-16 759v90h64v-90h-64zM75 0v712h69v-712h-69z" />
    <glyph glyph-name="degree" unicode="&#xb0;" horiz-adv-x="400" 
d="M200 435c-80 0 -146 63 -146 144s66 144 146 144s146 -63 146 -144s-66 -144 -146 -144zM200 688c-61 0 -111 -46 -111 -109c0 -62 51 -111 111 -111s111 49 111 111c0 63 -50 109 -111 109z" />
    <glyph glyph-name="plusminus" unicode="&#xb1;" horiz-adv-x="600" 
d="M329 288v-162h-58v162h-224v57h224v161h58v-161h224v-57h-224zM47 0v57h506v-57h-506z" />
    <glyph glyph-name="afii10055" unicode="&#x406;" horiz-adv-x="219" 
d="M75 0v712h69v-712h-69z" />
    <glyph glyph-name="afii10103" unicode="&#x456;" horiz-adv-x="202" 
d="M132 622h-62v90h62v-90zM132 0h-62v504h62v-504z" />
    <glyph glyph-name="afii10098" unicode="&#x491;" horiz-adv-x="400" 
d="M399 452h-271v-452h-62v504h271v135h62v-187z" />
    <glyph glyph-name="mu" unicode="&#xb5;" horiz-adv-x="556" 
d="M437 0v95h-3c-40 -50 -122 -99 -191 -99c-41 0 -72 6 -123 34v-218h-62v692h62v-364c18 -52 67 -100 134 -100c83 0 146 61 182 121v343h62v-504h-61z" />
    <glyph glyph-name="mu" unicode="&#x3bc;" horiz-adv-x="556" 
d="M437 0v95h-3c-40 -50 -122 -99 -191 -99c-41 0 -72 6 -123 34v-218h-62v692h62v-364c18 -52 67 -100 134 -100c83 0 146 61 182 121v343h62v-504h-61z" />
    <glyph glyph-name="paragraph" unicode="&#xb6;" horiz-adv-x="600" 
d="M465 -112v782h-133v-782h-62v476c-151 0 -230 72 -230 170c0 129 90 178 236 178h251v-824h-62z" />
    <glyph glyph-name="periodcentered" unicode="&#xb7;" horiz-adv-x="259" 
d="M88 242v106h82v-106h-82z" />
    <glyph glyph-name="periodcentered" unicode="&#x2219;" horiz-adv-x="259" 
d="M88 242v106h82v-106h-82z" />
    <glyph glyph-name="afii10071" unicode="&#x451;" horiz-adv-x="556" 
d="M342 622v90h64v-90h-64zM145 622v90h64v-90h-64zM106 235c0 -121 106 -193 213 -193c51 0 120 18 161 38v-63c-39 -14 -94 -29 -166 -29c-176 0 -271 115 -271 271c0 154 102 257 242 257c156 0 230 -103 230 -250v-31h-409zM284 462c-109 0 -172 -79 -179 -175h347
c0 108 -67 175 -168 175z" />
    <glyph glyph-name="afii61352" unicode="&#x2116;" horiz-adv-x="1090" 
d="M870 171c-98 0 -156 69 -156 149c0 88 57 151 156 151c100 0 157 -63 157 -151c0 -80 -58 -149 -157 -149zM708 0v58h324v-58h-324zM509 0l-365 650h-2v-650h-67v712h108l359 -642h2v642h67v-712h-102zM870 425c-65 0 -96 -44 -96 -105c0 -58 26 -104 96 -104
c71 0 95 46 95 104c0 61 -30 105 -95 105z" />
    <glyph glyph-name="afii10101" unicode="&#x454;" horiz-adv-x="463" 
d="M433 11c-39 -14 -83 -23 -118 -23c-165 0 -274 119 -274 264c0 161 109 264 276 264c39 0 82 -11 110 -21v-59c-36 16 -63 26 -104 26c-122 0 -198 -69 -214 -167h230v-52h-234c4 -105 83 -201 221 -201c40 0 77 14 107 29v-60z" />
    <glyph glyph-name="guillemotright" unicode="&#xbb;" horiz-adv-x="476" 
d="M435 269l-141 -203h-56l130 203l-130 203h56zM238 269l-141 -203h-56l130 203l-130 203h56z" />
    <glyph glyph-name="afii10105" unicode="&#x458;" horiz-adv-x="202" 
d="M134 622h-62v90h62v-90zM134 -15c0 -81 -21 -183 -139 -183c-16 0 -34 1 -47 2v55c9 0 24 -2 34 -2c68 1 90 36 90 119v528h62v-519z" />
    <glyph glyph-name="afii10054" unicode="&#x405;" horiz-adv-x="487" 
d="M191 -12c-51 0 -99 12 -144 26v68c42 -17 103 -33 155 -33c72 0 177 33 177 137c0 97 -110 136 -180 170c-85 41 -160 83 -160 184c0 117 97 184 230 184c43 0 96 -6 144 -21v-66c-43 16 -84 27 -141 27c-67 0 -162 -18 -162 -116c0 -87 114 -126 181 -158
c82 -40 158 -89 158 -199c0 -144 -115 -203 -258 -203z" />
    <glyph glyph-name="afii10102" unicode="&#x455;" horiz-adv-x="400" 
d="M181 -12c-48 0 -96 5 -139 23v61c41 -18 91 -30 123 -30c52 0 130 14 130 87c0 60 -70 82 -120 106c-69 33 -132 69 -132 147c0 80 75 134 178 134c38 0 76 -7 114 -18v-57c-34 11 -81 21 -104 21c-58 0 -124 -13 -124 -76c0 -52 35 -69 94 -98c73 -36 158 -69 158 -151
c0 -102 -85 -149 -178 -149z" />
    <glyph glyph-name="afii10104" unicode="&#x457;" horiz-adv-x="202" 
d="M147 622v90h62v-90h-62zM-8 622v90h62v-90h-62zM70 0v504h62v-504h-62z" />
    <glyph glyph-name="afii10017" unicode="&#x410;" horiz-adv-x="667" 
d="M605 0l-79 190h-386l-78 -190h-70l301 712h84l298 -712h-70zM333 656l-172 -416h344z" />
    <glyph glyph-name="afii10018" unicode="&#x411;" horiz-adv-x="564" 
d="M262 0h-190v712h398v-59h-329v-245h135c142 0 247 -57 247 -208s-107 -200 -261 -200zM279 348h-138v-289h126c75 0 185 26 185 141c0 120 -96 148 -173 148z" />
    <glyph glyph-name="afii10019" unicode="&#x412;" horiz-adv-x="564" 
d="M269 0h-197v712h205c151 0 226 -64 226 -170c0 -92 -38 -151 -134 -173v-3c102 -10 155 -88 155 -181c0 -132 -109 -185 -255 -185zM292 653h-151v-256h82c98 0 211 6 211 135c0 97 -78 121 -142 121zM232 338h-91v-279h123c97 0 189 26 189 133c0 136 -125 146 -221 146
z" />
    <glyph glyph-name="afii10020" unicode="&#x413;" horiz-adv-x="481" 
d="M138 653v-653h-69v712h412v-59h-343z" />
    <glyph glyph-name="afii10021" unicode="&#x414;" horiz-adv-x="702" 
d="M624 -163v163h-551v-163h-66v222h69c66 75 117 249 121 416l5 237h404v-653h85v-222h-67zM537 653h-271l-3 -214c-2 -144 -48 -274 -106 -380h380v594z" />
    <glyph glyph-name="afii10022" unicode="&#x415;" horiz-adv-x="500" 
d="M72 0v712h409v-59h-340v-253h291v-59h-291v-282h342v-59h-411z" />
    <glyph glyph-name="afii10024" unicode="&#x416;" horiz-adv-x="970" 
d="M887 0l-368 366v-366h-69v366l-368 -366h-90l376 379l-342 333h86l338 -334v334h69v-334l338 334h86l-342 -333l376 -379h-90z" />
    <glyph glyph-name="afii10025" unicode="&#x417;" horiz-adv-x="495" 
d="M202 -12c-51 0 -125 13 -169 28v68c44 -17 112 -36 160 -36c94 0 192 37 192 139c0 129 -107 154 -204 154h-27v59h22c82 0 201 36 201 148c0 92 -76 116 -158 116c-51 0 -112 -16 -159 -34v62c33 15 112 32 163 32c130 0 222 -50 222 -174c0 -86 -48 -156 -136 -175v-3
c100 -19 146 -86 146 -180c0 -137 -115 -204 -253 -204z" />
    <glyph glyph-name="afii10026" unicode="&#x418;" horiz-adv-x="722" 
d="M587 0v617h-3l-436 -617h-81v712h69v-620h3l437 620h80v-712h-69z" />
    <glyph glyph-name="afii10027" unicode="&#x419;" horiz-adv-x="722" 
d="M364 740c-63 0 -108 33 -131 102l46 16c14 -47 40 -68 84 -68s72 21 86 68l46 -16c-23 -69 -68 -102 -131 -102zM587 0v617h-3l-436 -617h-81v712h69v-620h3l437 620h80v-712h-69z" />
    <glyph glyph-name="afii10028" unicode="&#x41a;" horiz-adv-x="611" 
d="M522 0l-383 371v-371h-69v712h69v-332l349 332h93l-357 -336l396 -376h-98z" />
    <glyph glyph-name="afii10029" unicode="&#x41b;" horiz-adv-x="696" 
d="M555 0v653h-299v-231c0 -204 -18 -433 -187 -433c-25 0 -49 3 -69 8v58c18 -4 37 -6 52 -6c116 0 134 166 134 411v252h438v-712h-69z" />
    <glyph glyph-name="afii10030" unicode="&#x41c;" horiz-adv-x="807" 
d="M666 0v612h-3l-260 -292l-259 292h-3v-612h-69v712h64l269 -303l267 303h63v-712h-69z" />
    <glyph glyph-name="afii10031" unicode="&#x41d;" horiz-adv-x="722" 
d="M588 0v341h-452v-341h-69v712h69v-312h452v312h68v-712h-68z" />
    <glyph glyph-name="afii10032" unicode="&#x41e;" horiz-adv-x="815" 
d="M407 -12c-215 0 -367 155 -367 368c0 204 149 368 367 368c227 0 368 -163 368 -368c0 -212 -146 -368 -368 -368zM407 664c-188 0 -296 -149 -296 -308c0 -152 112 -308 296 -308c188 0 297 151 297 308c0 159 -112 308 -297 308z" />
    <glyph glyph-name="afii10033" unicode="&#x41f;" horiz-adv-x="722" 
d="M587 0v653h-451v-653h-69v712h589v-712h-69z" />
    <glyph glyph-name="afii10034" unicode="&#x420;" horiz-adv-x="548" 
d="M285 300h-142v-300h-69v712h198c150 0 250 -53 250 -205c0 -147 -105 -207 -237 -207zM281 653h-138v-293h135c81 0 173 29 173 148c0 108 -93 145 -170 145z" />
    <glyph glyph-name="afii10035" unicode="&#x421;" horiz-adv-x="630" 
d="M432 -12c-231 0 -397 146 -397 370c0 218 174 366 397 366c51 0 118 -7 166 -25v-69c-49 22 -114 34 -162 34c-186 0 -330 -128 -330 -308c0 -187 154 -308 326 -308c46 0 119 13 167 32v-67c-51 -19 -127 -25 -167 -25z" />
    <glyph glyph-name="afii10036" unicode="&#x422;" horiz-adv-x="600" 
d="M335 653v-653h-69v653h-266v59h600v-59h-265z" />
    <glyph glyph-name="afii10037" unicode="&#x423;" horiz-adv-x="604" 
d="M242 0h-77l104 198l-274 514h78l235 -442l232 442h74z" />
    <glyph glyph-name="afii10038" unicode="&#x424;" horiz-adv-x="800" 
d="M434 76v-84h-69v84c-193 3 -330 131 -330 293c0 172 127 287 330 292v58h69v-58c202 -5 330 -120 330 -292c0 -162 -137 -290 -330 -293zM434 602v-466c167 3 259 105 259 233c0 131 -92 228 -259 233zM365 602c-167 -5 -259 -102 -259 -233c0 -128 92 -230 259 -233v466
z" />
    <glyph glyph-name="afii10039" unicode="&#x425;" horiz-adv-x="611" 
d="M532 0l-232 323l-223 -323h-81l265 377l-241 335h80l211 -291l205 291h77l-244 -343l267 -369h-84z" />
    <glyph glyph-name="afii10040" unicode="&#x426;" horiz-adv-x="722" 
d="M651 -163v163h-584v712h69v-653h434v653h69v-653h79v-222h-67z" />
    <glyph glyph-name="afii10041" unicode="&#x427;" horiz-adv-x="617" 
d="M479 0v328c-36 -11 -114 -26 -169 -26c-165 0 -262 46 -262 244v166h69v-156c0 -146 46 -193 193 -193c52 0 135 15 169 22v327h69v-712h-69z" />
    <glyph glyph-name="afii10042" unicode="&#x428;" horiz-adv-x="1057" 
d="M70 0v712h69v-653h355v653h69v-653h355v653h69v-712h-917z" />
    <glyph glyph-name="afii10043" unicode="&#x429;" horiz-adv-x="1065" 
d="M994 -163v163h-926v712h69v-653h355v653h69v-653h355v653h69v-653h76v-222h-67z" />
    <glyph glyph-name="afii10044" unicode="&#x42a;" horiz-adv-x="692" 
d="M424 0h-213v653h-211v59h279v-292h157c131 0 236 -62 236 -210c0 -152 -100 -210 -248 -210zM426 360h-147v-301h149c78 0 172 43 172 150c0 119 -93 151 -174 151z" />
    <glyph glyph-name="afii10045" unicode="&#x42b;" horiz-adv-x="778" 
d="M645 0v712h69v-712h-69zM285 0h-213v712h69v-292h156c131 0 236 -62 236 -210c0 -152 -100 -210 -248 -210zM287 360h-146v-301h148c78 0 173 43 173 150c0 119 -94 151 -175 151z" />
    <glyph glyph-name="afii10046" unicode="&#x42c;" horiz-adv-x="556" 
d="M283 0h-213v712h69v-292h156c131 0 236 -62 236 -210c0 -152 -100 -210 -248 -210zM285 360h-146v-301h148c78 0 173 43 173 150c0 119 -94 151 -175 151z" />
    <glyph glyph-name="afii10047" unicode="&#x42d;" horiz-adv-x="630" 
d="M198 -12c-41 0 -117 6 -168 25v67c48 -19 121 -32 168 -32c167 0 317 114 325 293h-340v59h338c-22 157 -157 264 -327 264c-49 0 -114 -12 -163 -34v69c48 18 115 25 167 25c222 0 396 -148 396 -366c0 -224 -166 -370 -396 -370z" />
    <glyph glyph-name="afii10048" unicode="&#x42e;" horiz-adv-x="991" 
d="M618 -12c-201 0 -321 136 -332 353h-149v-341h-69v712h69v-312h150c21 197 138 324 331 324c213 0 333 -159 333 -368c0 -218 -121 -368 -333 -368zM618 664c-179 0 -260 -152 -260 -308c0 -154 76 -308 260 -308s262 154 262 308c0 156 -84 308 -262 308z" />
    <glyph glyph-name="afii10049" unicode="&#x42f;" horiz-adv-x="575" 
d="M434 0v296h-100l-237 -296h-93l254 306c-130 16 -196 118 -196 196c0 160 114 210 256 210h185v-712h-69zM434 653h-128c-108 0 -170 -56 -170 -153c0 -89 67 -145 190 -145h108v298z" />
    <glyph glyph-name="afii10065" unicode="&#x430;" horiz-adv-x="522" 
d="M398 0v55h-2c-41 -37 -105 -67 -178 -67c-104 0 -179 64 -179 158c0 134 147 170 223 170c67 0 117 -14 136 -21v41c0 89 -51 126 -150 126c-65 0 -112 -29 -147 -53v61c23 15 88 46 160 46c143 0 199 -65 199 -203v-313h-62zM398 243c-25 9 -70 22 -115 22
c-48 0 -177 -11 -177 -122c0 -71 65 -101 120 -101c58 0 131 32 172 77v124z" />
    <glyph glyph-name="afii10066" unicode="&#x431;" horiz-adv-x="611" 
d="M575 248c0 -139 -105 -260 -259 -260c-157 0 -267 111 -267 291c0 275 70 406 339 414c18 1 83 5 122 12v-60c-32 -5 -88 -8 -118 -9c-192 -7 -262 -67 -295 -264h3c48 96 135 136 224 136c144 0 251 -117 251 -260zM511 248c0 118 -79 206 -193 206
c-112 0 -205 -88 -205 -206c0 -113 82 -206 203 -206c124 0 195 96 195 206z" />
    <glyph glyph-name="afii10067" unicode="&#x432;" horiz-adv-x="522" 
d="M310 0h-245v504h234c90 0 153 -50 153 -117c0 -57 -34 -104 -74 -117v-2c44 -6 104 -41 104 -129s-77 -139 -172 -139zM280 452h-153v-161h149c52 0 112 18 112 86c0 62 -50 75 -108 75zM300 241h-173v-189h166c56 0 125 15 125 97c0 64 -54 92 -118 92z" />
    <glyph glyph-name="afii10068" unicode="&#x433;" horiz-adv-x="400" 
d="M128 452v-452h-62v504h333v-52h-271z" />
    <glyph glyph-name="afii10069" unicode="&#x434;" horiz-adv-x="560" 
d="M483 -150v150h-414v-150h-61v202h50c38 47 80 158 87 318l6 134h334v-452h59v-202h-61zM423 452h-216l-4 -98c-5 -114 -28 -229 -76 -302h296v400z" />
    <glyph glyph-name="afii10070" unicode="&#x435;" horiz-adv-x="556" 
d="M106 235c0 -121 106 -193 213 -193c51 0 120 18 161 38v-63c-39 -14 -94 -29 -166 -29c-176 0 -271 115 -271 271c0 154 102 257 242 257c156 0 230 -103 230 -250v-31h-409zM284 462c-109 0 -172 -79 -179 -175h347c0 108 -67 175 -168 175z" />
    <glyph glyph-name="afii10072" unicode="&#x436;" horiz-adv-x="722" 
d="M330 265l-254 -265h-83l267 272l-236 232h79l227 -231v231h62v-231l227 231h79l-236 -232l267 -272h-83l-254 265v-265h-62v265z" />
    <glyph glyph-name="afii10073" unicode="&#x437;" horiz-adv-x="430" 
d="M187 -12c-58 0 -116 5 -158 23v60c44 -19 102 -29 141 -29c85 0 156 30 156 100c0 83 -64 98 -125 98h-45v52h41c57 0 122 21 122 91c0 67 -69 79 -131 79c-43 0 -100 -15 -137 -32v57c39 14 100 29 156 29c104 0 173 -44 173 -123c0 -57 -35 -113 -99 -124v-2
c71 -4 109 -50 109 -124c0 -95 -82 -155 -203 -155z" />
    <glyph glyph-name="afii10074" unicode="&#x438;" horiz-adv-x="556" 
d="M432 0v421h-2l-284 -421h-84v504h62v-430h2l292 430h76v-504h-62z" />
    <glyph glyph-name="afii10075" unicode="&#x439;" horiz-adv-x="556" 
d="M408 696c-22 -67 -66 -100 -129 -100c-62 0 -106 33 -129 100l46 16c14 -46 39 -66 82 -66s71 20 85 66zM494 0h-62v421h-2l-284 -421h-84v504h62v-430h2l292 430h76v-504z" />
    <glyph glyph-name="afii10076" unicode="&#x43a;" horiz-adv-x="481" 
d="M64 0v504h62v-230l252 230h82l-264 -233l295 -271h-84l-281 262v-262h-62z" />
    <glyph glyph-name="afii10077" unicode="&#x43b;" 
d="M413 0v452h-222v-156c0 -130 -3 -304 -153 -304c-13 0 -29 2 -40 4v55c11 -2 24 -3 35 -3c89 0 96 93 96 322v134h346v-504h-62z" />
    <glyph glyph-name="afii10078" unicode="&#x43c;" horiz-adv-x="630" 
d="M315 223l-189 197h-2v-420h-62v504h62l191 -201l192 201h61v-504h-61v420h-2z" />
    <glyph glyph-name="afii10079" unicode="&#x43d;" horiz-adv-x="556" 
d="M432 0v240h-308v-240h-62v504h62v-212h308v212h62v-504h-62z" />
    <glyph glyph-name="afii10080" unicode="&#x43e;" horiz-adv-x="611" 
d="M572 252c0 -141 -111 -264 -267 -264c-159 0 -267 124 -267 264c0 147 110 264 267 264c158 0 267 -119 267 -264zM508 252c0 120 -87 210 -203 210c-114 0 -203 -90 -203 -210c0 -115 80 -210 203 -210c126 0 203 98 203 210z" />
    <glyph glyph-name="afii10081" unicode="&#x43f;" horiz-adv-x="556" 
d="M432 0v452h-308v-452h-62v504h432v-504h-62z" />
    <glyph glyph-name="afii10082" unicode="&#x440;" horiz-adv-x="611" 
d="M570 255c0 -150 -103 -267 -251 -267c-91 0 -161 38 -192 73h-1v-249h-62v692h62v-64h1c27 26 91 76 195 76c138 0 248 -112 248 -261zM506 258c0 113 -76 204 -197 204c-95 0 -161 -65 -183 -89v-242c28 -37 80 -89 179 -89c122 0 201 96 201 216z" />
    <glyph glyph-name="afii10083" unicode="&#x441;" horiz-adv-x="463" 
d="M316 -12c-165 0 -274 119 -274 264c0 161 109 264 276 264c39 0 82 -11 110 -21v-59c-36 16 -63 26 -104 26c-139 0 -218 -90 -218 -210c0 -108 79 -210 221 -210c40 0 77 14 107 29v-60c-39 -14 -83 -23 -118 -23z" />
    <glyph glyph-name="afii10084" unicode="&#x442;" horiz-adv-x="436" 
d="M249 452v-452h-62v452h-187v52h436v-52h-187z" />
    <glyph glyph-name="afii10085" unicode="&#x443;" horiz-adv-x="463" 
d="M203 2l-203 502h70l165 -419l164 419h64l-270 -692h-63z" />
    <glyph glyph-name="afii10086" unicode="&#x444;" horiz-adv-x="706" 
d="M670 252c0 -137 -110 -261 -286 -261v-179h-62v179c-176 0 -286 124 -286 261c0 140 103 261 286 261v199h62v-199c183 0 286 -121 286 -261zM606 252c0 110 -77 209 -222 209v-418c152 0 222 112 222 209zM322 43v418c-145 0 -222 -99 -222 -209c0 -97 70 -209 222 -209
z" />
    <glyph glyph-name="afii10087" unicode="&#x445;" horiz-adv-x="448" 
d="M372 0l-149 226l-148 -226h-75l185 272l-161 232h78l127 -193l129 193h73l-166 -238l183 -266h-76z" />
    <glyph glyph-name="afii10088" unicode="&#x446;" horiz-adv-x="576" 
d="M507 -150v150h-445v504h62v-452h312v452h62v-452h71v-202h-62z" />
    <glyph glyph-name="afii10089" unicode="&#x447;" horiz-adv-x="522" 
d="M399 0v227c-41 -19 -116 -34 -167 -34c-131 0 -184 49 -184 180v131h62v-103c0 -116 14 -154 141 -154c53 0 120 19 148 35v222h62v-504h-62z" />
    <glyph glyph-name="afii10090" unicode="&#x448;" horiz-adv-x="813" 
d="M62 0v504h62v-452h251v452h62v-452h252v452h62v-504h-689z" />
    <glyph glyph-name="afii10091" unicode="&#x449;" horiz-adv-x="826" 
d="M819 -150h-59v150h-695v504h62v-452h251v452h62v-452h252v452h62v-452h65v-202z" />
    <glyph glyph-name="afii10092" unicode="&#x44a;" horiz-adv-x="589" 
d="M156 452h-156v52h217v-196h174c93 0 170 -55 170 -155c0 -96 -71 -153 -174 -153h-231v452zM376 256h-159v-204h166c65 0 114 30 114 98c0 82 -62 106 -121 106z" />
    <glyph glyph-name="afii10093" unicode="&#x44b;" horiz-adv-x="667" 
d="M543 0v504h62v-504h-62zM284 0h-222v504h62v-196h164c93 0 170 -55 170 -155c0 -96 -71 -153 -174 -153zM273 256h-149v-204h156c65 0 114 30 114 98c0 82 -62 106 -121 106z" />
    <glyph glyph-name="afii10094" unicode="&#x44c;" horiz-adv-x="500" 
d="M296 0h-232v504h62v-196h174c93 0 170 -55 170 -155c0 -96 -71 -153 -174 -153zM285 256h-159v-204h166c65 0 114 30 114 98c0 82 -62 106 -121 106z" />
    <glyph glyph-name="afii10095" unicode="&#x44d;" horiz-adv-x="463" 
d="M422 252c0 -145 -109 -264 -274 -264c-35 0 -79 9 -118 23v60c30 -15 67 -29 107 -29c138 0 217 96 221 201h-234v52h230c-16 98 -92 167 -214 167c-41 0 -68 -10 -104 -26v59c28 10 71 21 110 21c167 0 276 -103 276 -264z" />
    <glyph glyph-name="afii10096" unicode="&#x44e;" horiz-adv-x="790" 
d="M499 -12c-145 0 -238 103 -251 252h-122v-240h-62v504h62v-212h123c21 136 112 224 250 224c154 0 251 -111 251 -264c0 -146 -98 -264 -251 -264zM499 462c-119 0 -187 -99 -187 -210c0 -105 59 -210 187 -210s187 105 187 210c0 111 -68 210 -187 210z" />
    <glyph glyph-name="afii10097" unicode="&#x44f;" horiz-adv-x="500" 
d="M376 0v200h-108l-180 -200h-80l182 205v2c-83 10 -135 81 -135 148c0 86 68 149 167 149h216v-504h-62zM376 452h-149c-67 0 -108 -46 -108 -100c0 -69 58 -100 121 -100h136v200z" />
    <glyph glyph-name="sterling" unicode="&#xa3;" 
d="M398 664c-132 0 -182 -84 -182 -198v-67h177v-59h-177v-281h270v-59h-441v59h102v281h-88v59h88v75c0 142 78 249 243 249c45 0 82 -7 109 -15v-62c-26 10 -63 18 -101 18z" />
    <glyph glyph-name="florin" unicode="&#x192;" horiz-adv-x="500" 
d="M490 671c-11 2 -23 4 -35 4c-89 0 -108 -58 -124 -135l-26 -127h135l-7 -38h-136l-78 -401c-25 -127 -51 -199 -180 -199c-15 0 -27 1 -37 3l10 47c7 -1 14 -1 23 -1c87 0 106 76 118 138l79 413h-122l6 38h123l26 124c22 103 52 186 176 186c19 0 38 -3 57 -7z" />
    <glyph glyph-name="divide" unicode="&#xf7;" horiz-adv-x="600" 
d="M47 224v58h506v-58h-506zM254 -17v106h92v-106h-92zM254 417v106h92v-106h-92z" />
    <glyph glyph-name="Delta" unicode="&#x394;" horiz-adv-x="656" 
d="M36 0l314 707l278 -707h-592zM330 589l-253 -564h476z" />
    <glyph glyph-name="Delta" unicode="&#x2206;" horiz-adv-x="656" 
d="M36 0l314 707l278 -707h-592zM330 589l-253 -564h476z" />
    <glyph glyph-name="approxequal" unicode="&#x2248;" horiz-adv-x="600" 
d="M413 294c-33 0 -72 17 -113 38c-33 17 -77 47 -114 47c-40 0 -69 -34 -93 -73l-35 29c23 47 70 105 129 105c33 0 72 -17 113 -38c33 -17 77 -47 114 -47c40 0 69 34 93 73l37 -24c-23 -47 -72 -110 -131 -110zM413 100c-33 0 -72 17 -113 38c-33 17 -77 47 -114 47
c-40 0 -69 -34 -93 -73l-35 29c23 47 70 105 129 105c33 0 72 -17 113 -38c33 -17 77 -47 114 -47c40 0 69 34 93 73l37 -24c-23 -47 -72 -110 -131 -110z" />
    <glyph glyph-name="greaterequal" unicode="&#x2265;" horiz-adv-x="600" 
d="M49 78v58l434 160l-434 162v57l502 -189v-60zM49 -27v52h502v-52h-502z" />
    <glyph glyph-name="hyphenminus" horiz-adv-x="333" 
d="M39 242v59h255v-59h-255z" />
    <glyph glyph-name="infinity" unicode="&#x221e;" horiz-adv-x="738" 
d="M575 114c-89 0 -149 66 -206 125c-58 -61 -113 -125 -206 -125c-75 0 -133 79 -133 152c0 80 63 151 140 151c60 0 94 -24 199 -126c103 102 137 126 197 126c77 0 140 -71 140 -151c0 -72 -56 -152 -131 -152zM566 378c-76 0 -124 -64 -175 -112
c77 -84 108 -116 175 -116c53 0 104 46 104 109c0 48 -34 119 -104 119zM170 378c-71 0 -104 -75 -104 -119c0 -66 57 -109 109 -109c78 0 124 64 172 116c-51 46 -102 112 -177 112z" />
    <glyph glyph-name="lessequal" unicode="&#x2264;" horiz-adv-x="600" 
d="M49 266v60l502 189v-57l-433 -162l433 -160v-58zM49 -27v52h502v-52h-502z" />
    <glyph glyph-name="notequal" unicode="&#x2260;" horiz-adv-x="600" 
d="M256 114l-66 -115h-57l66 115h-140v57h175l94 164h-269v57h303l67 116h56l-67 -116h147v-57h-180l-95 -164h275v-57h-309z" />
    <glyph glyph-name="radical" unicode="&#x221a;" horiz-adv-x="487" 
d="M496 785l-210 -999h-60l-167 343l-45 -22l-22 45l94 46l163 -340l191 928z" />
    <glyph glyph-name="Euro" unicode="&#x20ac;" 
d="M494 675v-71c-29 30 -79 55 -148 55c-115 0 -171 -91 -183 -206h288l-19 -55h-276c-1 -11 -1 -27 -1 -40c0 -15 1 -30 1 -40h249l-18 -56h-224c15 -134 79 -209 184 -209c69 0 115 24 147 56v-73c-24 -22 -79 -46 -156 -46c-134 0 -220 86 -242 272h-69l18 56h46
c-1 9 -2 27 -2 40c0 14 1 29 2 40h-64l18 55h50c19 155 90 270 244 270c73 0 129 -24 155 -48z" />
    </font>
</defs>
</svg>
