<?xml version="1.0" encoding="iso-8859-1"?>
<!-- Generator: Adobe Illustrator 19.0.0, SVG Export Plug-In . SVG Version: 6.00 Build 0)  -->
<svg xmlns="http://www.w3.org/2000/svg" xmlns:xlink="http://www.w3.org/1999/xlink" version="1.1" id="Layer_1" x="0px" y="0px" viewBox="0 0 330 330" style="enable-background:new 0 0 330 330;" xml:space="preserve" width="512px" height="512px">
<g id="XMLID_446_">
	<g>
		<path d="M165,0C98.832,0,45,53.832,45,120v90c0,66.168,53.832,120,120,120s120-53.832,120-120v-90C285,53.832,231.168,0,165,0z     M182.581,91.438v22.566c0,9.694-7.887,17.58-17.581,17.58c-9.694,0-17.581-7.887-17.581-17.581V91.438    c0-9.694,7.887-17.581,17.581-17.581C174.694,73.857,182.581,81.744,182.581,91.438z M265,210c0,55.14-44.859,100-100,100    S65,265.14,65,210v-90c0-51.765,39.537-94.468,90-99.501v34.72c-15.882,4.391-27.581,18.96-27.581,36.22v22.566    c0,17.26,11.699,31.829,27.581,36.219V186h20v-35.777c15.882-4.39,27.581-18.96,27.581-36.219V91.438    c0-17.26-11.699-31.829-27.581-36.22v-34.72c50.463,5.033,90,47.736,90,99.501V210z" fill="#39b7dd"/>
	</g>
</g>
<g>
</g>
<g>
</g>
<g>
</g>
<g>
</g>
<g>
</g>
<g>
</g>
<g>
</g>
<g>
</g>
<g>
</g>
<g>
</g>
<g>
</g>
<g>
</g>
<g>
</g>
<g>
</g>
<g>
</g>
</svg>
